<svg width="138" height="40" viewBox="0 0 138 40" fill="none" xmlns="http://www.w3.org/2000/svg">
<path d="M57.8418 19.4661C57.8418 18.5761 57.4658 18.1011 56.5168 18.1011H52.5168C52.3478 18.0821 52.1767 18.1011 52.016 18.1568C51.8553 18.2124 51.7091 18.3033 51.588 18.4227C51.4669 18.5422 51.3741 18.6872 51.3163 18.8471C51.2584 19.007 51.2371 19.1779 51.2538 19.3471C51.2538 20.3361 52.0258 20.5931 52.7178 20.5931H54.8348C54.743 21.4158 54.343 22.1731 53.7153 22.7128C53.0877 23.2525 52.279 23.5345 51.4518 23.5021C48.8008 23.5021 47.4158 21.5631 47.4158 18.7541C47.4158 15.1541 49.1768 13.6891 51.4158 13.6891C54.5808 13.6891 53.9878 15.9251 55.5898 15.9251C55.7873 15.9502 55.9879 15.9314 56.1773 15.8701C56.3666 15.8088 56.5402 15.7066 56.6856 15.5706C56.831 15.4347 56.9447 15.2684 57.0185 15.0835C57.0923 14.8987 57.1245 14.6998 57.1128 14.5011C57.1128 13.2351 55.1938 11.0781 51.5928 11.0781C47.1808 11.0781 44.1738 13.7291 44.1738 18.5361C44.1738 22.5361 46.0928 25.9941 51.1178 25.9941C51.926 26.0396 52.7332 25.8888 53.4705 25.5546C54.2078 25.2204 54.8533 24.7128 55.3518 24.0751C55.5518 25.3411 55.8068 25.9151 56.7368 25.9151C56.8818 25.9193 57.0261 25.8942 57.1611 25.8412C57.2961 25.7883 57.419 25.7086 57.5225 25.607C57.6259 25.5054 57.7078 25.384 57.7632 25.25C57.8186 25.116 57.8464 24.9721 57.8448 24.8271L57.8418 19.4661ZM60.5518 24.4711C60.525 24.6671 60.5439 24.8665 60.607 25.0539C60.6701 25.2414 60.7756 25.4116 60.9155 25.5515C61.0553 25.6913 61.2256 25.7969 61.413 25.86C61.6004 25.9231 61.7999 25.9419 61.9958 25.9151C62.1918 25.9419 62.3912 25.9231 62.5786 25.86C62.7661 25.7969 62.9364 25.6913 63.0762 25.5515C63.216 25.4116 63.3216 25.2414 63.3847 25.0539C63.4478 24.8665 63.4666 24.6671 63.4398 24.4711V21.1081C63.4398 18.7141 64.0728 17.9081 65.2398 17.9081H65.7538C65.9467 17.9243 66.1407 17.8979 66.3221 17.8307C66.5036 17.7636 66.6681 17.6574 66.804 17.5196C66.9398 17.3818 67.0438 17.2159 67.1084 17.0335C67.173 16.8511 67.1967 16.6567 67.1778 16.4641C67.1707 16.2666 67.1235 16.0726 67.0391 15.8939C66.9546 15.7151 66.8347 15.5555 66.6867 15.4245C66.5386 15.2936 66.3655 15.1941 66.1778 15.1321C65.9901 15.0702 65.7917 15.0471 65.5948 15.0641C64.1948 15.0641 63.5378 16.3101 63.2008 17.5171H63.1608V16.4091C63.1752 16.2322 63.1515 16.0542 63.0915 15.8872C63.0315 15.7201 62.9365 15.5678 62.8128 15.4405C62.6892 15.3131 62.5397 15.2137 62.3745 15.1488C62.2093 15.0839 62.0321 15.055 61.8548 15.0641C61.6776 15.055 61.5004 15.0839 61.3352 15.1488C61.1699 15.2137 61.0205 15.3131 60.8968 15.4405C60.7732 15.5678 60.6782 15.7201 60.6181 15.8872C60.5581 16.0542 60.5345 16.2322 60.5488 16.4091L60.5518 24.4711ZM70.6608 20.4711C70.6608 18.5921 71.4328 17.1871 73.1138 17.1871C74.7948 17.1871 75.5668 18.5871 75.5668 20.4711C75.5668 22.2321 74.8348 23.7711 73.1138 23.7711C71.3928 23.7711 70.6618 22.2361 70.6618 20.4751L70.6608 20.4711ZM67.7728 20.4711C67.7728 23.3591 69.1728 25.9111 73.1138 25.9111C77.0548 25.9111 78.4548 23.3591 78.4548 20.4711C78.4548 17.4241 76.5948 15.0501 73.1138 15.0501C69.6328 15.0501 67.7738 17.4281 67.7738 20.4751L67.7728 20.4711ZM90.1078 16.4951C90.1347 16.2992 90.1158 16.0997 90.0527 15.9123C89.9896 15.7249 89.884 15.5546 89.7442 15.4148C89.6044 15.2749 89.4341 15.1694 89.2467 15.1063C89.0592 15.0432 88.8598 15.0243 88.6638 15.0511C88.4679 15.0243 88.2684 15.0432 88.081 15.1063C87.8936 15.1694 87.7233 15.2749 87.5835 15.4148C87.4436 15.5546 87.3381 15.7249 87.275 15.9123C87.2119 16.0997 87.193 16.2992 87.2198 16.4951V21.2631C87.2284 21.8562 87.0018 22.4284 86.5895 22.8548C86.1772 23.2811 85.6128 23.5268 85.0198 23.5381C83.7738 23.5381 83.1998 22.7071 83.1998 21.5381V16.4931C83.2266 16.2972 83.2078 16.0977 83.1447 15.9103C83.0816 15.7229 82.976 15.5526 82.8362 15.4128C82.6964 15.2729 82.5261 15.1674 82.3386 15.1043C82.1512 15.0412 81.9518 15.0223 81.7558 15.0491C81.5599 15.0223 81.3604 15.0412 81.173 15.1043C80.9856 15.1674 80.8153 15.2729 80.6755 15.4128C80.5356 15.5526 80.4301 15.7229 80.367 15.9103C80.3039 16.0977 80.285 16.2972 80.3118 16.4931V22.1111C80.3118 25.0391 82.2118 25.9111 83.9518 25.9111C84.6406 25.9227 85.3213 25.7624 85.9324 25.4446C86.5435 25.1268 87.0658 24.6616 87.4518 24.0911H87.4918V24.4671C87.4918 25.3371 87.8918 25.9111 88.7978 25.9111C89.7038 25.9111 90.1038 25.3371 90.1038 24.4671L90.1078 16.4951ZM92.4038 28.3091C92.3847 28.5035 92.4089 28.6997 92.4747 28.8836C92.5405 29.0675 92.6463 29.2345 92.7844 29.3726C92.9225 29.5107 93.0895 29.6164 93.2734 29.6822C93.4573 29.748 93.6535 29.7722 93.8478 29.7531C94.0422 29.7722 94.2384 29.748 94.4223 29.6822C94.6062 29.6164 94.7732 29.5107 94.9113 29.3726C95.0494 29.2345 95.1551 29.0675 95.2209 28.8836C95.2867 28.6997 95.311 28.5035 95.2918 28.3091V24.4511H95.3318C95.6275 24.9323 96.0494 25.3231 96.5517 25.5813C97.054 25.8394 97.6175 25.9548 98.1808 25.9151C101.228 25.9151 102.632 23.3231 102.632 20.5541C102.632 16.8151 100.515 15.0541 98.1018 15.0541C97.467 14.9983 96.8308 15.1441 96.2837 15.4709C95.7366 15.7977 95.3066 16.2887 95.0548 16.8741H95.0148V16.4191C95.0407 16.239 95.0253 16.0553 94.9698 15.882C94.9142 15.7086 94.8199 15.5502 94.6941 15.4187C94.5683 15.2872 94.4142 15.186 94.2435 15.1229C94.0728 15.0597 93.89 15.0362 93.7088 15.0541C92.8188 15.0541 92.4028 15.5291 92.4028 16.4191L92.4038 28.3091ZM99.7438 20.4551C99.7438 21.8001 99.2888 23.6551 97.4488 23.6551C95.6878 23.6751 95.1338 21.9341 95.1338 20.4551C95.1338 18.8131 95.7668 17.3091 97.4488 17.3091C98.9908 17.3491 99.7428 18.7541 99.7428 20.4551H99.7438Z" fill="#0E2071"/>
<path d="M107.892 26.0129C107.878 26.2296 107.91 26.4467 107.986 26.6499C108.063 26.8531 108.182 27.0377 108.335 27.1912C108.489 27.3447 108.673 27.4637 108.877 27.5402C109.08 27.6167 109.297 27.649 109.514 27.6349C109.73 27.649 109.948 27.6167 110.151 27.5402C110.354 27.4637 110.538 27.3447 110.692 27.1912C110.846 27.0377 110.965 26.8531 111.041 26.6499C111.118 26.4467 111.15 26.2296 111.136 26.0129V21.8389H114.336C116.116 21.8389 116.572 22.8479 116.572 25.3389C116.572 25.9129 116.71 27.6339 118.491 27.6339C118.859 27.6595 119.222 27.5422 119.506 27.3063C119.79 27.0705 119.972 26.7344 120.014 26.3679C119.794 25.4045 119.649 24.4256 119.579 23.4399C119.579 21.9959 119.279 20.7889 117.62 20.5519V20.5119C118.354 20.2999 118.995 19.8469 119.44 19.2259C119.885 18.6049 120.108 17.8521 120.073 17.0889C120.073 15.2489 119.044 13.1319 115.187 13.1319H109.787C108.64 13.1319 107.887 13.5869 107.887 15.0319L107.892 26.0129ZM111.136 15.6269H114.479C115.903 15.6269 116.833 16.0269 116.833 17.5459C116.833 19.1459 115.606 19.4649 114.38 19.4649H111.136V15.6269ZM122.492 26.0529C122.465 26.2553 122.483 26.4611 122.544 26.6558C122.605 26.8506 122.708 27.0297 122.845 27.1805C122.983 27.3313 123.152 27.4503 123.34 27.5289C123.528 27.6076 123.732 27.6441 123.936 27.6359C124.14 27.6441 124.343 27.6076 124.531 27.5289C124.72 27.4503 124.889 27.3313 125.026 27.1805C125.164 27.0297 125.267 26.8506 125.328 26.6558C125.389 26.4611 125.407 26.2553 125.38 26.0529V17.2299H125.42L128.447 26.6859C128.53 26.9814 128.714 27.2384 128.967 27.4121C129.22 27.5857 129.526 27.6649 129.832 27.6359C130.137 27.6649 130.443 27.5857 130.696 27.4121C130.95 27.2384 131.134 26.9814 131.217 26.6859L134.244 17.2299H134.284V26.0529C134.257 26.2551 134.275 26.4607 134.336 26.6553C134.397 26.8499 134.5 27.0288 134.637 27.1795C134.775 27.3301 134.944 27.449 135.132 27.5276C135.32 27.6063 135.523 27.6429 135.727 27.6349C135.931 27.6431 136.134 27.6066 136.322 27.528C136.51 27.4494 136.679 27.3306 136.817 27.1799C136.954 27.0291 137.057 26.8502 137.118 26.6555C137.18 26.4609 137.197 26.2552 137.171 26.0529V14.4789C137.171 13.1729 136.281 12.8789 135.41 12.8789H134.5C133.491 12.8789 133.016 13.2789 132.68 14.3629L129.891 23.5029H129.851L127.022 14.3629C126.686 13.2749 126.211 12.8789 125.202 12.8789H124.252C123.382 12.8789 122.491 13.1789 122.491 14.4789L122.492 26.0529Z" fill="#FD9646"/>
<path d="M9.47768 15.1957C9.34968 15.1957 9.25068 15.1107 9.18368 14.9437C9.19768 14.7527 9.22268 14.5217 9.24968 14.2777C9.39068 13.0077 9.60468 11.0887 8.68668 9.91272C7.49468 8.47672 6.46168 7.16172 6.45168 7.14672C6.35028 7.0644 6.28441 6.94625 6.26768 6.81672C6.26614 6.73684 6.28176 6.65755 6.31351 6.58423C6.34525 6.51091 6.39237 6.44526 6.45168 6.39172C6.50709 6.35828 6.571 6.34161 6.63568 6.34372C6.74453 6.35356 6.85029 6.38518 6.94666 6.43672C7.04304 6.48826 7.12806 6.55865 7.19668 6.64372C7.60368 7.07672 8.18368 7.64372 8.18968 7.64972C8.29101 7.73275 8.41769 7.77862 8.54868 7.77972C8.68739 7.7756 8.82175 7.73036 8.93468 7.64972C9.04659 7.50593 9.10735 7.32892 9.10735 7.14672C9.10735 6.96451 9.04659 6.78751 8.93468 6.64372L7.69368 5.38572C7.63071 5.3177 7.59573 5.22842 7.59573 5.13572C7.59573 5.04302 7.63071 4.95374 7.69368 4.88572C7.78336 4.80564 7.89945 4.76148 8.01968 4.76172C8.15047 4.7745 8.27722 4.81413 8.39199 4.87814C8.50676 4.94215 8.60708 5.02916 8.68668 5.13372C8.70968 5.16172 11.0107 7.61372 11.9157 8.40472C11.9157 8.40472 12.2267 8.66972 13.7577 8.66972C13.9577 8.66972 14.1737 8.66972 14.3987 8.65672C14.6277 8.66772 14.8237 8.67072 14.9807 8.67372C15.7247 8.68572 15.8197 8.68772 15.8887 9.41072C15.9337 9.53326 15.9291 9.66857 15.8757 9.78772C15.8488 9.82555 15.8135 9.85662 15.7725 9.87848C15.7316 9.90035 15.6861 9.91241 15.6397 9.91372C15.4951 9.89998 15.3499 9.89364 15.2047 9.89472C13.9069 9.85836 12.6434 10.3142 11.6677 11.1707C11.6577 11.1797 10.6857 12.0847 9.92868 14.9437C9.81154 15.0768 9.65239 15.1657 9.47768 15.1957ZM13.9487 13.9267C13.7318 13.9091 13.524 13.8324 13.3476 13.705C13.1713 13.5775 13.0333 13.4041 12.9487 13.2037C12.8043 12.9646 12.758 12.6788 12.8196 12.4063C12.8811 12.1338 13.0456 11.8957 13.2787 11.7417C13.3815 11.6901 13.4947 11.6628 13.6097 11.6617C13.8266 11.6792 14.0345 11.7559 14.2108 11.8833C14.3871 12.0108 14.5251 12.1842 14.6097 12.3847C14.7539 12.624 14.8003 12.9097 14.739 13.1823C14.6777 13.4549 14.5135 13.6933 14.2807 13.8477C14.1775 13.8991 14.0639 13.9261 13.9487 13.9267Z" fill="#0E2071"/>
<path d="M29.0701 12.3006C29.2447 12.4785 29.3595 12.7062 29.3987 12.9523C29.4379 13.1984 29.3996 13.4506 29.2889 13.6739C29.1783 13.8971 29.0009 14.0804 28.7814 14.1983C28.5619 14.3162 28.3111 14.3628 28.0638 14.3317C27.8166 14.3006 27.5852 14.1933 27.4017 14.0247C27.2182 13.8561 27.0918 13.6346 27.0399 13.3908C26.9881 13.1471 27.0134 12.8933 27.1123 12.6646C27.2113 12.4359 27.379 12.2437 27.5922 12.1146C27.8143 11.9472 28.0929 11.8731 28.3689 11.9078C28.6448 11.9425 28.8964 12.0834 29.0701 12.3006Z" fill="#0E2071"/>
<path d="M32.7551 6.91345C32.7551 6.91345 33.265 6.28045 33.6641 5.82545C34.081 5.32545 33.847 5.05845 33.847 5.05845C33.7972 5.00586 33.736 4.96537 33.6682 4.94007C33.6003 4.91477 33.5275 4.90533 33.4554 4.91247C33.3833 4.91961 33.3138 4.94315 33.2522 4.98127C33.1907 5.0194 33.1386 5.07111 33.1 5.13245C33.1 5.13245 31.883 6.29245 30.556 7.63245C29.262 8.86245 26.7871 8.58645 25.6161 8.61845C25.0751 8.90045 25.682 9.36145 25.682 9.36145C28.615 9.84245 29.573 10.7264 29.573 10.7264C30.0807 11.2285 30.4835 11.8264 30.7582 12.4854C31.0328 13.1445 31.1739 13.8515 31.1731 14.5655C31.2511 14.9745 31.693 14.7654 31.693 14.7654C32.558 14.5974 32.36 14.4914 32.309 13.2064C32.04 11.1064 32.3391 10.7064 32.3391 10.7064C33.0481 9.72145 35.293 7.16945 35.293 7.16945C35.884 6.50745 35.4551 6.15445 35.4551 6.15445C35.3814 6.0968 35.2883 6.06974 35.1952 6.07886C35.1021 6.08798 35.0161 6.1326 34.9551 6.20345L33.819 7.56445C33.6881 7.69143 33.518 7.77041 33.3365 7.78856C33.1549 7.80671 32.9726 7.76298 32.819 7.66445C32.7272 7.56377 32.6711 7.4356 32.6596 7.29981C32.648 7.16403 32.6816 7.02822 32.7551 6.91345Z" fill="#0E2071"/>
<path d="M28.3528 28.2509C28.1037 28.3741 27.816 28.394 27.5522 28.3064C27.2884 28.2187 27.0698 28.0307 26.9438 27.7829C26.7697 27.5642 26.6869 27.2866 26.7126 27.0082C26.7383 26.7298 26.8706 26.4721 27.0818 26.2889C27.331 26.1658 27.6187 26.1459 27.8825 26.2335C28.1462 26.3211 28.3648 26.5092 28.4908 26.7569C28.6649 26.9757 28.7478 27.2533 28.7221 27.5317C28.6964 27.8101 28.5641 28.0678 28.3528 28.2509Z" fill="#0E2071"/>
<path d="M33.8179 31.7723C33.8179 31.7723 34.4649 32.2593 34.9319 32.6423C35.4429 33.0423 35.7029 32.7953 35.7029 32.7953C35.7541 32.7434 35.7928 32.6804 35.8159 32.6112C35.8391 32.5421 35.8461 32.4685 35.8364 32.3963C35.8268 32.324 35.8007 32.2548 35.7602 32.1942C35.7198 32.1335 35.6659 32.0829 35.6029 32.0463C35.6029 32.0463 34.4029 30.8703 33.0309 29.5903C31.7629 28.3383 31.9599 25.8383 31.8909 24.6623C31.5909 24.1303 31.1519 24.7623 31.1519 24.7623C30.7649 27.7323 29.9129 28.7313 29.9129 28.7313C29.4313 29.2609 28.8492 29.6896 28.2004 29.9923C27.5517 30.2949 26.8492 30.4656 26.1339 30.4943C25.7289 30.5943 25.9519 31.0253 25.9519 31.0253C26.1519 31.8883 26.2459 31.6853 27.5269 31.5813C29.6099 31.2243 30.0269 31.5093 30.0269 31.5093C31.0329 32.1813 33.6489 34.3363 33.6489 34.3363C34.3279 34.9033 34.6659 34.4573 34.6659 34.4573C34.721 34.3814 34.7449 34.2873 34.7328 34.1943C34.7207 34.1014 34.6735 34.0165 34.6009 33.9573L33.2079 32.8703C33.0773 32.7422 32.9936 32.574 32.9702 32.3926C32.9468 32.2112 32.9851 32.0272 33.0789 31.8703C33.1745 31.7756 33.2985 31.7147 33.4319 31.697C33.5653 31.6793 33.7009 31.7058 33.8179 31.7723Z" fill="#0E2071"/>
<path d="M12.4888 27.069C12.3938 26.8081 12.4049 26.5202 12.5199 26.2673C12.635 26.0145 12.8446 25.8169 13.1038 25.7171C13.3377 25.5655 13.6212 25.5106 13.8948 25.5637C14.1684 25.6169 14.4107 25.774 14.5708 26.0021C14.6659 26.2631 14.6547 26.5509 14.5397 26.8038C14.4247 27.0566 14.215 27.2542 13.9558 27.3541C13.7219 27.5056 13.4384 27.5605 13.1649 27.5074C12.8913 27.4542 12.649 27.2971 12.4888 27.069Z" fill="#0E2071"/>
<path d="M8.49999 32.2351C8.49999 32.2351 7.94799 32.8291 7.51799 33.2551C7.06799 33.7231 7.28399 34.0051 7.28399 34.0051C7.33035 34.061 7.38883 34.1056 7.455 34.1355C7.52116 34.1654 7.59327 34.1798 7.66586 34.1777C7.73844 34.1756 7.80958 34.1569 7.87389 34.1232C7.9382 34.0895 7.99398 34.0416 8.03699 33.9831C8.03699 33.9831 9.33099 32.9131 10.747 31.6731C12.124 30.5381 14.582 30.9821 15.755 31.0301C16.315 30.7861 15.738 30.2871 15.738 30.2871C12.838 29.6091 11.938 28.6651 11.938 28.6651C11.4642 28.1333 11.1012 27.5123 10.8703 26.8385C10.6393 26.1648 10.5451 25.4517 10.593 24.7411C10.542 24.3301 10.085 24.5081 10.085 24.5081C9.20799 24.6161 9.39899 24.7351 9.36599 26.0161C9.49699 28.1161 9.16599 28.4991 9.16599 28.4991C8.39199 29.4301 5.97599 31.8141 5.97599 31.8141C5.34099 32.4311 5.74699 32.8141 5.74699 32.8141C5.81678 32.8753 5.90717 32.9077 5.99994 32.905C6.09272 32.9022 6.18099 32.8643 6.24699 32.7991L7.47699 31.5221C7.61663 31.4066 7.79075 31.341 7.97185 31.3356C8.15294 31.3301 8.33069 31.3852 8.47699 31.4921C8.56153 31.5964 8.60956 31.7255 8.61371 31.8597C8.61786 31.9939 8.57792 32.1257 8.49999 32.2351Z" fill="#0E2071"/>
<path d="M20.7141 10.793C20.6534 10.793 20.5929 10.7856 20.5341 10.771C20.4292 10.7444 20.3309 10.6969 20.2449 10.6312C20.159 10.5656 20.0873 10.4832 20.0341 10.389C19.8682 10.0924 19.8262 9.7424 19.9171 9.415C19.9612 9.17129 20.0832 8.94849 20.2648 8.78007C20.4464 8.61164 20.6777 8.5067 20.9241 8.481C20.9846 8.48002 21.0451 8.4864 21.1041 8.5C21.2089 8.52657 21.3073 8.57412 21.3932 8.63978C21.4791 8.70544 21.5509 8.78784 21.6041 8.882C21.7699 9.17856 21.812 9.5286 21.7211 9.856C21.6775 10.1003 21.5558 10.3237 21.3741 10.4927C21.1925 10.6618 20.9608 10.7671 20.7141 10.793ZM16.4811 9.177C16.4034 9.18499 16.3249 9.17568 16.2512 9.14975C16.1776 9.12381 16.1106 9.08189 16.0551 9.027C16.0249 8.97694 16.0073 8.92037 16.0036 8.86207C16 8.80376 16.0104 8.74543 16.0341 8.692C16.1671 8.553 16.3341 8.392 16.5121 8.221C17.4301 7.335 18.8181 6 18.8631 4.506C18.8631 2.638 18.9131 0.959 18.9131 0.943C18.8882 0.814932 18.9132 0.682197 18.9831 0.572C19.0326 0.509483 19.0951 0.458371 19.1662 0.422135C19.2373 0.3859 19.3153 0.36539 19.3951 0.362C19.3951 0.362 19.7521 0.398 19.8061 1.035C19.8431 1.635 19.9261 2.435 19.9271 2.447C19.9581 2.57796 20.0307 2.69536 20.134 2.78169C20.2373 2.86801 20.3657 2.91864 20.5001 2.926C20.6777 2.88677 20.8373 2.7895 20.9535 2.64953C21.0698 2.50955 21.1361 2.33486 21.1421 2.153L20.9901 0.388C20.9843 0.294489 21.0143 0.202286 21.0742 0.130189C21.134 0.0580922 21.2191 0.0115314 21.3121 0L21.3301 0C21.4201 0 21.8731 0.04 21.9141 0.833C21.9141 0.867 22.1141 4.233 22.3061 5.422C22.3061 5.422 22.3971 5.934 24.0521 7.213C24.2201 7.369 24.3691 7.497 24.4881 7.6C25.0521 8.089 25.1251 8.151 24.7151 8.75C24.7151 8.762 24.6041 9.043 24.3911 9.043C24.3235 9.04025 24.2584 9.01726 24.2041 8.977C23.2447 8.02477 21.9705 7.45578 20.6211 7.377C20.5301 7.377 20.4391 7.377 20.3491 7.386C20.3361 7.389 19.0111 7.46 16.6041 9.17C16.5632 9.17468 16.5222 9.17702 16.4811 9.177Z" fill="#FD9646"/>
<path d="M31.9797 19.4855C31.9755 19.7336 31.8942 19.9743 31.747 20.1742C31.5999 20.374 31.3941 20.5231 31.1583 20.6006C30.9226 20.6782 30.6685 20.6805 30.4314 20.607C30.1943 20.5336 29.9859 20.3882 29.8353 20.191C29.6846 19.9938 29.5991 19.7545 29.5905 19.5065C29.582 19.2584 29.651 19.0139 29.7878 18.8068C29.9246 18.5997 30.1225 18.4404 30.354 18.3509C30.5855 18.2614 30.8391 18.2462 31.0797 18.3075C31.3529 18.3494 31.5992 18.4955 31.767 18.7151C31.9348 18.9347 32.0111 19.2108 31.9797 19.4855Z" fill="#FD9646"/>
<path d="M38.0255 19.1589C38.0255 19.1589 38.8315 19.0719 39.4335 19.0329C40.0785 18.9749 40.1055 18.6199 40.1055 18.6199C40.1082 18.5476 40.0943 18.4757 40.0648 18.4097C40.0353 18.3436 39.9909 18.2853 39.9352 18.2392C39.8795 18.1931 39.814 18.1604 39.7436 18.1437C39.6732 18.127 39.6 18.1267 39.5295 18.1429C39.5295 18.1429 37.8545 18.1019 35.9765 18.1089C34.1975 18.0629 32.6595 16.1149 31.8175 15.3089C31.2385 15.1259 31.3375 15.8809 31.3375 15.8809C33.0515 18.2969 33.0965 19.5999 33.0965 19.5999C33.0956 20.3143 32.9538 21.0216 32.6793 21.6812C32.4047 22.3408 32.0028 22.9398 31.4965 23.4439C31.2615 23.7879 31.7205 23.9529 31.7205 23.9529C32.4455 24.4459 32.3815 24.2319 33.2575 23.2869C34.5575 21.6139 35.0505 21.5399 35.0505 21.5399C36.2455 21.3399 39.6275 21.1299 39.6275 21.1299C40.5105 21.0799 40.4595 20.5299 40.4595 20.5299C40.4487 20.4377 40.4027 20.3532 40.3312 20.2939C40.2597 20.2347 40.1681 20.2053 40.0755 20.2119L38.3155 20.3699C38.1344 20.3665 37.9598 20.3017 37.8203 20.1862C37.6808 20.0706 37.5846 19.9112 37.5475 19.7339C37.5542 19.5992 37.6044 19.4704 37.6906 19.3667C37.7768 19.263 37.8943 19.1901 38.0255 19.1589Z" fill="#FD9646"/>
<path d="M20.2055 31.1896C19.9547 31.1986 19.7073 31.1292 19.4978 30.9911C19.2882 30.853 19.127 30.653 19.0364 30.4189C18.9458 30.1849 18.9305 29.9284 18.9925 29.6852C19.0545 29.442 19.1907 29.2242 19.3823 29.0621C19.5739 28.8999 19.8112 28.8015 20.0613 28.7806C20.3114 28.7596 20.5618 28.8172 20.7777 28.9452C20.9936 29.0732 21.1642 29.2653 21.2658 29.4948C21.3674 29.7243 21.3949 29.9797 21.3445 30.2256C21.3181 30.5031 21.1841 30.7594 20.9713 30.9395C20.7585 31.1196 20.4836 31.2094 20.2055 31.1896Z" fill="#FD9646"/>
<path d="M21.5935 37.2034C21.5935 37.2034 21.7105 38.0084 21.7725 38.6124C21.8545 39.2584 22.2095 39.2684 22.2095 39.2684C22.282 39.2672 22.3532 39.2495 22.4179 39.2167C22.4825 39.1838 22.5388 39.1367 22.5825 39.0789C22.6263 39.0211 22.6563 38.9541 22.6703 38.883C22.6844 38.8119 22.682 38.7385 22.6635 38.6684C22.6635 38.6684 22.6415 36.9834 22.5635 35.0974C22.5425 33.3084 24.4255 31.6714 25.1965 30.7874C25.3575 30.1974 24.6085 30.3314 24.6085 30.3314C22.2655 32.1664 20.9685 32.2724 20.9685 32.2724C20.2574 32.3051 19.547 32.1954 18.8788 31.9499C18.2106 31.7043 17.5982 31.3278 17.0775 30.8424C16.7255 30.6224 16.5775 31.0914 16.5775 31.0914C16.1135 31.8434 16.3245 31.7684 17.2995 32.6044C19.0155 33.8294 19.1075 34.3244 19.1075 34.3244C19.3475 35.5154 19.6885 38.9034 19.6885 38.9034C19.7715 39.7884 20.3215 39.7114 20.3215 39.7114C20.4128 39.695 20.4945 39.6446 20.5502 39.5704C20.6058 39.4962 20.6313 39.4037 20.6215 39.3114L20.3975 37.5504C20.3943 37.3693 20.4515 37.1923 20.5602 37.0474C20.6689 36.9025 20.8228 36.798 20.9975 36.7504C21.1329 36.7498 21.2646 36.7939 21.3724 36.8758C21.4801 36.9577 21.5579 37.0729 21.5935 37.2034Z" fill="#FD9646"/>
<path d="M9.45945 19.4149C9.57369 19.1625 9.78305 18.9655 10.0419 18.8668C10.3008 18.7681 10.5882 18.7756 10.8415 18.8879C11.1146 18.9459 11.355 19.1069 11.5127 19.3374C11.6704 19.5679 11.7333 19.8502 11.6885 20.1259C11.5742 20.3783 11.3649 20.5753 11.106 20.674C10.8471 20.7727 10.5597 20.7651 10.3065 20.6529C10.0333 20.5949 9.79289 20.4339 9.63519 20.2034C9.47749 19.9729 9.41456 19.6906 9.45945 19.4149Z" fill="#FD9646"/>
<path d="M3.3642 20.2675C3.3642 20.2675 2.5562 20.3005 1.9522 20.2995C1.3052 20.3145 1.2612 20.6675 1.2612 20.6675C1.3022 21.2675 1.8142 21.1835 1.8142 21.1835C1.8142 21.1835 3.4842 21.3355 5.3602 21.4545C7.1342 21.6195 8.5782 23.6705 9.3812 24.5325C9.9502 24.7545 9.88821 23.9925 9.88821 23.9925C8.28821 21.4605 8.3072 20.1545 8.3072 20.1545C8.33875 19.4444 8.51204 18.7478 8.81688 18.1057C9.12171 17.4635 9.55193 16.8889 10.0822 16.4155C10.3332 16.0865 9.88221 15.8915 9.88221 15.8915C9.18221 15.3495 9.2352 15.5685 8.3162 16.4555C6.9422 18.0425 6.4432 18.0835 6.4432 18.0835C5.2432 18.1995 1.8542 18.1885 1.8542 18.1885C0.970205 18.1795 0.994204 18.7365 0.994204 18.7365C1.00054 18.8298 1.04206 18.9172 1.11037 18.9811C1.17868 19.0449 1.26869 19.0805 1.3622 19.0805L3.1272 19.0395C3.30907 19.0559 3.48027 19.1325 3.61375 19.2571C3.74723 19.3817 3.83536 19.5472 3.8642 19.7275C3.85118 19.8597 3.79527 19.9841 3.705 20.0816C3.61472 20.1791 3.49504 20.2444 3.3642 20.2675Z" fill="#FD9646"/>
<path d="M20.9811 25.6905C19.7017 25.7389 18.4303 25.4688 17.2811 24.9045C16.8264 24.6902 16.4413 24.3521 16.1698 23.9291C15.8983 23.5061 15.7515 23.0151 15.7461 22.5125C15.7994 21.493 16.1879 20.5196 16.8511 19.7435C17.5813 18.8182 18.5412 18.1004 19.6351 17.6615C19.5166 17.5983 19.4171 17.5046 19.3468 17.3902C19.2765 17.2758 19.2379 17.1447 19.2351 17.0105C19.249 16.7923 19.3485 16.5884 19.5121 16.4433C19.6756 16.2981 19.8898 16.2234 20.1081 16.2355C19.5225 15.9327 19.0425 15.4596 18.7312 14.8785C18.4198 14.2975 18.2919 13.6357 18.3641 12.9805C18.9299 13.3533 19.57 13.5986 20.2401 13.6995C20.4322 13.409 20.685 13.1637 20.9811 12.9805C21.2781 13.1629 21.5314 13.4083 21.7231 13.6995C22.3931 13.5985 23.0332 13.3532 23.5991 12.9805C23.6716 13.636 23.5436 14.2981 23.2321 14.8794C22.9206 15.4607 22.4401 15.9339 21.8541 16.2365C22.0723 16.2247 22.2864 16.2995 22.4499 16.4446C22.6133 16.5897 22.7129 16.7934 22.7271 17.0115C22.7244 17.1458 22.6858 17.2769 22.6155 17.3913C22.5452 17.5057 22.4456 17.5993 22.3271 17.6625C23.4213 18.1009 24.3815 18.8184 25.1121 19.7435C25.7753 20.5196 26.1638 21.493 26.2171 22.5125C26.2119 23.0149 26.0654 23.5057 25.7942 23.9287C25.5231 24.3517 25.1384 24.6899 24.6841 24.9045C23.5339 25.4692 22.2615 25.7393 20.9811 25.6905ZM20.0761 22.3075C20.0052 22.306 19.9356 22.3259 19.8761 22.3645C19.8463 22.3829 19.8211 22.4079 19.8024 22.4375C19.7837 22.4671 19.7719 22.5006 19.7681 22.5355C19.7667 22.5687 19.773 22.6018 19.7865 22.6321C19.8001 22.6625 19.8204 22.6893 19.8461 22.7105C20.0812 22.9439 20.3782 23.1053 20.7021 23.1755V23.7125C20.7109 23.7841 20.747 23.8496 20.8029 23.8952C20.8588 23.9409 20.9302 23.9632 21.0021 23.9575C21.074 23.9632 21.1454 23.9409 21.2013 23.8952C21.2572 23.8496 21.2933 23.7841 21.3021 23.7125V23.1805C21.5432 23.1539 21.7676 23.0443 21.9367 22.8704C22.1058 22.6965 22.2092 22.4692 22.2291 22.2275C22.1944 21.9374 22.0477 21.6724 21.8203 21.4889C21.593 21.3055 21.303 21.2181 21.0121 21.2455C20.8667 21.2593 20.7217 21.2158 20.608 21.1243C20.4942 21.0328 20.4207 20.9004 20.4031 20.7555C20.4097 20.6506 20.4493 20.5505 20.516 20.4693C20.5828 20.3882 20.6735 20.3302 20.7751 20.3035C20.8511 20.278 20.9309 20.2651 21.0111 20.2655C21.2307 20.2716 21.442 20.3511 21.6111 20.4915C21.6741 20.5385 21.7509 20.5635 21.8296 20.5624C21.9083 20.5613 21.9844 20.5343 22.0461 20.4855C22.0724 20.4649 22.0937 20.4387 22.1084 20.4087C22.1232 20.3788 22.1309 20.3459 22.1311 20.3125C22.1298 20.2785 22.1207 20.2452 22.1046 20.2152C22.0885 20.1853 22.0657 20.1593 22.0381 20.1395C21.8239 19.9704 21.5727 19.8546 21.3051 19.8015V19.3015C21.2963 19.2298 21.2602 19.1644 21.2043 19.1187C21.1484 19.0731 21.077 19.0508 21.0051 19.0565C20.9332 19.0508 20.8618 19.0731 20.8059 19.1187C20.75 19.1644 20.7139 19.2298 20.7051 19.3015V19.8115C20.6526 19.823 20.6008 19.8377 20.5501 19.8555C20.3476 19.9088 20.167 20.0244 20.0337 20.1858C19.9004 20.3473 19.8211 20.5466 19.8071 20.7555C19.842 21.0454 19.9888 21.3101 20.2162 21.4934C20.4435 21.6766 20.7334 21.7639 21.0241 21.7365C21.1696 21.7226 21.3148 21.7663 21.4285 21.858C21.5423 21.9497 21.6157 22.0823 21.6331 22.2275C21.6157 22.3721 21.5426 22.5043 21.4292 22.5959C21.3158 22.6874 21.1712 22.731 21.0261 22.7175H21.0081C20.7422 22.7044 20.4915 22.5894 20.3081 22.3965C20.2449 22.3383 20.1619 22.3065 20.0761 22.3075Z" fill="#122474"/>
</svg>
