<svg width="390" height="251" viewBox="0 0 390 251" fill="none" xmlns="http://www.w3.org/2000/svg">
<path d="M382.483 250.27H25.9038C22.0966 250.27 19.0508 247.225 19.0508 243.417C19.0508 239.61 22.0966 236.52 25.9038 236.52H382.483C386.29 236.52 389.381 239.61 389.381 243.417C389.381 247.225 386.29 250.27 382.483 250.27Z" fill="#E5E5E5"/>
<path d="M325.239 236.52H233.91L241.121 133.188C241.525 127.052 246.899 122.035 253.036 122.035H322.058C328.24 122.035 332.898 127.052 332.45 133.188L325.239 236.52Z" fill="#E5E5E5"/>
<path d="M311.801 236.52H220.473L227.684 133.188C228.087 127.052 233.462 122.035 239.598 122.035H308.621C314.802 122.035 319.46 127.052 319.012 133.188L311.801 236.52Z" fill="#E5E5E5"/>
<path d="M274.761 122.035C278.21 125.215 279.554 128.216 280.092 130.545C281.256 135.204 280.271 141.474 280.271 141.564C282.018 143.624 284.257 146.446 286.676 149.94C286.676 149.94 292.051 157.689 295.858 165.751C300.606 175.784 308.31 192.043 304.726 209.332C301.949 222.59 292.588 236.52 292.588 236.52H240.631L246.991 122.035H274.761Z" fill="#D6D6D6"/>
<path d="M177.519 57.2242C177.787 56.418 181.953 43.563 191.807 39.1735C196.51 37.1131 201.795 36.8892 201.795 36.8892C202.333 36.8892 204.617 36.7996 207.663 37.2923C207.663 37.2923 214.695 38.1433 219.801 41.7714C228.804 48.1765 234.045 64.2116 233.104 78.1415C232.746 83.0685 231.581 88.1746 234.806 91.9819C236.508 93.9974 239.419 94.7141 243.495 95.9682C251.961 98.5661 265.936 101.836 271.579 113.213C277.178 124.59 277.85 140.58 274.177 144.969C270.459 149.359 182.222 148.956 179.086 145.507C175.996 142.103 170.218 125.53 169.546 112.362C168.919 100.716 177.115 95.8787 179.086 81.456C180.475 71.4229 178.997 62.8678 177.519 57.2242Z" fill="#262626"/>
<path d="M227.865 55.9688C229.567 59.2833 231.986 64.5686 233.778 71.4664C236.555 82.3505 234.36 84.0974 236.913 88.2629C242.601 97.5794 254.964 91.891 266.788 102.506C273.417 108.464 275.702 115.809 276.463 118.407C279.823 129.65 276.687 139.28 275.388 142.773" stroke="#262626" stroke-width="0.895816" stroke-linecap="round" stroke-linejoin="round"/>
<path d="M180.786 77.7383C179.129 81.4559 176.442 87.3683 172.948 94.5796C166.588 107.748 164.841 110.167 165.289 114.825C166.14 122.977 173.082 131.487 173.082 131.487" stroke="#262626" stroke-width="0.895816" stroke-linecap="round" stroke-linejoin="round"/>
<path d="M194.27 106.316C194.27 106.316 216.934 106.316 217.024 106.316C234.985 106.316 254.693 119.171 266.518 131.758C275.968 141.836 282.911 154.063 288.152 166.829C295.005 183.446 301.723 206.513 293.347 223.713C292.093 226.266 289.271 231.91 283.225 234.956C276.64 238.315 269.743 236.299 267.593 236.299C253.618 236.299 129.816 236.344 129.816 236.344C126.502 204.184 132.907 179.952 137.52 166.739C141.775 154.466 146.792 140.581 159.826 127.458C172.323 114.827 186.118 109.004 194.27 106.316Z" fill="#EAA418"/>
<path d="M193.242 106.316L177.341 236.926L167.084 236.837L182.985 110.392L193.242 106.316Z" fill="#EAA418"/>
<path d="M205.601 115.901C211.961 115.946 217.157 110.795 217.157 104.435L217.247 79.6208L194.179 79.5312L194.09 104.345C194.09 110.706 199.241 115.901 205.601 115.901Z" fill="#F7A99C"/>
<path opacity="0.2" d="M194.135 97.4011L209.14 89.6523C209.005 90.9961 208.154 97.0876 202.779 101.298C199.375 103.985 195.792 104.568 194.09 104.747L194.135 97.4011Z" fill="#FF7769"/>
<path d="M217.829 71.9177C217.918 71.5593 218.904 70.9771 219.172 70.7979C219.71 70.4694 220.262 70.2007 220.83 69.9917C221.949 69.6333 223.204 69.5438 224.368 69.8125C226.653 70.35 228.713 72.276 229.071 74.6499C229.295 76.0384 228.982 77.4269 228.399 78.7259C227.504 80.6071 226.025 82.2196 224.189 83.2497C222.711 84.1008 220.964 84.5935 219.262 84.7278C218.904 84.7278 215.365 84.6383 215.365 84.5039C216.201 80.3234 217.022 76.128 217.829 71.9177Z" fill="#F7A99C"/>
<path d="M221.012 72.142C220.743 74.0232 219.086 83.7876 210.307 90.6853C208.65 91.9395 197.9 100.405 188.001 96.2842C175.325 90.9989 176.714 70.1712 176.804 69.0066C177.117 65.1994 178.013 54.0017 187.285 47.9997C194.899 43.1175 203.096 44.9092 204.26 45.1779C205.514 45.4466 213.353 47.4622 218.145 55.1214C222.49 62.064 221.46 69.141 221.012 72.142Z" fill="#F7A99C"/>
<path d="M184.014 69.0498C183.79 70.6623 182.536 71.8268 181.193 71.6925C179.849 71.5133 178.953 70.0352 179.132 68.4227C179.356 66.8103 180.61 65.6457 181.954 65.7801C183.298 65.9592 184.194 67.4373 184.014 69.0498Z" fill="#262626"/>
<path d="M198.659 70.8858C198.435 72.4982 197.181 73.7076 195.837 73.5284C194.493 73.3492 193.598 71.9159 193.777 70.2587C194.001 68.6462 195.255 67.4816 196.599 67.616C197.942 67.7952 198.838 69.2733 198.659 70.8858Z" fill="#262626"/>
<path d="M188.449 71.4688L186.165 74.5145C185.762 75.052 185.941 75.8583 186.523 76.2166L188.583 77.4707" stroke="#262626" stroke-width="1.20935" stroke-linecap="round" stroke-linejoin="round"/>
<path d="M219.398 80.2457C219.353 79.8874 219.353 77.4239 221.324 75.6323C222.891 74.2438 224.683 74.1542 225.176 74.1094" stroke="#262626" stroke-width="1.20935" stroke-linecap="round" stroke-linejoin="round"/>
<path d="M221.145 76.1263C221.234 76.0815 222.578 75.9024 223.518 76.9325C224.28 77.7388 224.19 78.769 224.19 78.9481" stroke="#262626" stroke-width="1.20935" stroke-linecap="round" stroke-linejoin="round"/>
<path d="M185.357 83.5599C185.761 83.0672 186.97 81.7683 189.03 81.2308C191.359 80.6485 193.241 81.4995 193.733 81.7682" stroke="#262626" stroke-width="1.20935" stroke-linecap="round" stroke-linejoin="round"/>
<path d="M175.771 63.271H190.284C190.284 63.271 190.821 58.5679 192.254 56.2388C193.733 53.9097 195.883 52.4764 195.883 52.4764C195.569 53.3274 195.211 54.4024 194.897 55.7461C194.718 56.6867 194.449 57.9409 194.449 59.5981C194.449 59.5981 194.449 60.2252 194.808 63.271H207.394C207.125 62.5095 206.498 60.5835 207.035 58.1648C207.483 56.0596 208.603 54.6711 209.141 54.0441C208.737 57.8065 209.23 60.8523 209.678 62.7335C210.44 66.048 211.783 68.5115 212.769 70.3031C213.754 72.0947 214.65 73.4833 215.367 74.4687C215.367 74.4687 217.113 72.3187 218.502 71.4677C219.846 70.6166 221.279 69.9 221.279 69.9C221.592 68.2427 221.906 65.7344 221.458 62.7335C220.517 56.5971 217.113 52.6108 215.725 51.1327C210.887 46.0713 205.109 44.9067 203.004 44.5484C198.525 43.6974 194.942 44.414 193.733 44.6828C192.747 44.8619 190.508 45.4442 187.865 46.7879C186.073 47.7733 180.922 50.5056 177.877 56.5523C177.16 57.9856 176.175 60.27 175.771 63.271Z" fill="#262626"/>
<path d="M191.181 107.391C191.181 107.391 177.161 164.947 175.504 184.296C173.847 203.601 173.219 236.926 173.219 236.926L129.817 236.343C128.966 230.117 128.16 221.652 128.473 211.619C129.19 188.148 135.461 170.68 137.924 164.365C143.702 149.449 150.734 131.488 168.92 118.32C177.34 112.273 185.537 109.093 191.181 107.391Z" fill="#FEC02D"/>
<path d="M162.558 143.758L144.463 236.52H155.302L162.558 143.758Z" fill="#EAA418"/>
<path d="M165.694 127.188C164.709 132.742 163.186 142.103 161.797 153.748C160.095 168.037 160.319 171.441 157.542 207.945C156.691 218.874 155.303 236.522 155.303 236.522" stroke="#262626" stroke-width="0.895816" stroke-linecap="round" stroke-linejoin="round"/>
<path d="M205.112 215.828C206.769 217.53 207.71 219.143 208.247 220.262C209.994 223.846 210.039 227.205 210.084 229.624C210.084 231.012 210.039 232.222 209.949 233.028C209.949 233.028 188.719 226.175 185.583 226.444C182.806 226.712 168.966 230.251 165.696 231.057C165.248 231.191 164.8 231.191 164.352 231.057L159.694 229.624L155.305 229.803C153.737 229.848 152.617 228.235 153.289 226.802C153.438 226.444 153.647 226.055 153.916 225.637C155.842 222.771 157.768 220.71 157.768 220.71L150.736 221.965C150.064 221.965 148.944 221.875 148.541 221.203C147.959 220.173 149.392 218.471 150.333 217.306C152.572 214.619 154.991 213.186 155.797 212.738C158.53 211.125 161.083 209.647 165.293 208.393C168.608 207.363 177.745 204.496 188.943 207.318C196.333 209.199 201.708 212.872 205.112 215.828Z" fill="#F7A99C"/>
<path opacity="0.2" d="M203.991 214.887C204.081 215.603 204.573 219.993 201.438 223.711C197.944 227.876 192.838 227.786 192.256 227.742L209.948 233.027C209.948 233.027 210.083 226.711 209.769 225.144C209.456 223.576 208.336 219.993 207.216 218.425C206.096 216.902 203.991 214.887 203.991 214.887Z" fill="#FF7769"/>
<path d="M159.691 229.624C161.707 227.384 165.245 224.07 170.441 221.472C175.368 219.008 179.847 218.157 182.759 217.844" stroke="#262626" stroke-width="0.895816" stroke-linecap="round" stroke-linejoin="round"/>
<path d="M155.305 229.802C158.485 224.293 162.068 221.471 164.666 219.859C164.666 219.859 166.637 218.694 176.804 214.887" stroke="#262626" stroke-width="0.895816" stroke-linecap="round" stroke-linejoin="round"/>
<path d="M157.453 220.755C160.051 216.948 162.738 215.156 164.664 214.26C168.158 212.648 173.443 211.797 173.443 211.797" stroke="#262626" stroke-width="0.895816" stroke-linecap="round" stroke-linejoin="round"/>
<path d="M219.396 106.316C219.396 106.316 214.917 139.282 214.334 158.99C213.707 178.743 213.08 212.426 213.08 212.426L205.107 215.83C205.107 215.83 208.915 226.983 209.139 230.476C209.407 233.97 209.139 236.926 209.139 236.926C220.784 236.702 230.235 236.971 236.73 237.285C242.239 237.553 250.436 237.598 266.919 237.688C272.742 237.733 277.713 237.688 283.223 234.956C283.894 234.642 289.493 231.82 293.614 226.177C296.301 222.504 300.467 214.755 298.138 195.584C297.152 187.477 293.704 162.215 274.085 138.252C262.888 124.591 251.824 117.917 248.778 116.17C239.462 110.795 231.265 108.646 229.563 108.198C225.487 107.123 221.994 106.585 219.396 106.316Z" fill="#FEC02D"/>
<path d="M246.049 169.336C246.273 174.532 245.915 183.759 241.167 193.792C238.614 199.167 235.524 203.243 232.926 206.109C238.599 204.646 244.273 203.183 249.946 201.72L246.049 169.336Z" fill="#EAA418"/>
<path d="M269.248 197.418C269.248 197.418 219.664 209.601 213.08 212.423C206.496 215.245 205.107 215.827 205.107 215.827" stroke="#262626" stroke-width="0.895816" stroke-linecap="round" stroke-linejoin="round"/>
<path d="M273.058 146.09C273.058 146.09 297.424 191.956 290.168 210.723C289.093 213.59 286.629 219.771 280.493 224.295C274.76 228.505 268.534 229.177 257.874 229.445C248.512 229.714 236.105 229.669 221.324 228.505" stroke="white" stroke-width="0.895816" stroke-linecap="round" stroke-linejoin="round"/>
<path d="M265.935 129.383C255.902 133.369 251.199 138.744 248.825 142.372C248.825 142.372 241.569 153.57 250.527 202.123" stroke="#262626" stroke-width="0.895816" stroke-linecap="round" stroke-linejoin="round"/>
<path d="M207.391 237.684H140.832V229.711H210.84V234.235C210.84 236.161 209.272 237.684 207.391 237.684Z" fill="#133769"/>
<path d="M148.134 237.684H56.3131C54.2079 237.684 52.3267 235.982 52.0579 233.877L43.7269 165.706C43.4581 163.6 44.9362 161.898 47.0414 161.898H138.863C140.968 161.898 142.894 163.6 143.118 165.706L151.449 233.877C151.717 235.982 150.239 237.684 148.134 237.684Z" fill="#133769"/>
<path d="M142.761 237.684H50.94C48.8348 237.684 46.9536 235.982 46.6849 233.877L38.3538 165.706C38.0851 163.6 39.5632 161.898 41.6683 161.898H133.489C135.595 161.898 137.521 163.6 137.745 165.706L146.076 233.877C146.344 235.982 144.866 237.684 142.761 237.684Z" fill="#133769"/>
<path opacity="0.1" d="M38.3526 165.708C39.0244 165.529 41.4431 186.76 55.3283 205.93C57.747 209.245 62.0917 215.112 69.4374 220.846C69.4374 220.846 76.9174 226.668 104.822 237.687C103.329 237.687 101.836 237.687 100.343 237.687C96.6403 237.687 92.9376 237.687 89.2349 237.687C84.5468 237.687 79.8587 237.687 75.1706 237.687C70.7214 237.687 66.2722 237.687 61.8229 237.687C59.4341 237.687 57.0453 237.687 54.6564 237.687C52.7304 237.687 50.3565 238.135 48.6544 237.06C47.2659 236.164 46.6389 234.417 46.4597 232.805C46.2805 231.64 46.3253 230.431 46.191 229.266C46.0566 228.147 45.8326 226.982 45.6983 225.817C45.3996 223.309 45.0861 220.786 44.7576 218.248C44.25 214.127 43.7424 210.006 43.2348 205.886C42.6973 201.436 42.1598 196.987 41.6223 192.538C41.1147 188.387 40.607 184.252 40.0994 180.131C39.6963 176.951 39.3828 173.771 38.9348 170.59C38.4421 166.962 38.1734 165.753 38.3526 165.708Z" fill="#F5F5F5"/>
<path d="M41.668 161.898H133.489C135.594 161.898 137.52 163.6 137.744 165.706L146.075 233.877" stroke="#262626" stroke-width="0.895816" stroke-linecap="round" stroke-linejoin="round"/>
<path d="M94.8773 197.912C94.8773 200.824 92.5034 203.197 89.592 203.197C86.6806 203.197 84.3066 200.824 84.3066 197.912C84.3066 194.956 86.6806 192.582 89.592 192.582C92.5034 192.582 94.8773 194.956 94.8773 197.912Z" fill="#FEC02D"/>
<path d="M290.885 128.262H301.052C305.531 128.262 309.07 132.069 308.756 136.548L305.621 177.979" stroke="white" stroke-width="0.895816" stroke-linecap="round" stroke-linejoin="round"/>
<path d="M116.426 176.279H10.4061C5.21033 176.279 1 172.069 1 166.873V96.1035C1 90.9525 5.21033 86.7422 10.4061 86.7422H116.426C121.577 86.7422 125.787 90.9525 125.787 96.1035V166.873C125.787 172.069 121.577 176.279 116.426 176.279Z" fill="#F5F5F5"/>
<path opacity="0.5" d="M125.787 100.359H1V96.1035C1 90.9525 5.21033 86.7422 10.4061 86.7422H116.426C121.577 86.7422 125.787 90.9525 125.787 96.1035V100.359Z" fill="#D6D6D6"/>
<path d="M104.915 95.609H31.0994C29.9797 95.609 29.0391 94.6684 29.0391 93.5487C29.0391 92.4289 29.9797 91.4883 31.0994 91.4883H104.915C106.034 91.4883 106.975 92.4289 106.975 93.5487C106.975 94.6684 106.034 95.609 104.915 95.609Z" fill="#F5F5F5"/>
<path d="M9.95697 93.5479C9.95697 94.4885 9.24031 95.2499 8.2997 95.2499C7.3591 95.2499 6.59766 94.4885 6.59766 93.5479C6.59766 92.6073 7.3591 91.8906 8.2997 91.8906C9.24031 91.8906 9.95697 92.6073 9.95697 93.5479Z" fill="#F5F5F5"/>
<path d="M16.2304 93.5479C16.2304 94.4885 15.469 95.2499 14.5731 95.2499C13.6325 95.2499 12.8711 94.4885 12.8711 93.5479C12.8711 92.6073 13.6325 91.8906 14.5731 91.8906C15.469 91.8906 16.2304 92.6073 16.2304 93.5479Z" fill="#F5F5F5"/>
<path d="M22.4101 93.5479C22.4101 94.4885 21.6486 95.2499 20.708 95.2499C19.8122 95.2499 19.0508 94.4885 19.0508 93.5479C19.0508 92.6073 19.8122 91.8906 20.708 91.8906C21.6486 91.8906 22.4101 92.6073 22.4101 93.5479Z" fill="#F5F5F5"/>
<path d="M72.3064 119.93L61.7357 130.5L51.2099 119.93L44.8496 126.335L55.3754 136.861L44.8496 147.431L51.2099 153.792L61.7357 143.221L72.3064 153.792L78.6667 147.431L68.1408 136.861L78.6667 126.335L72.3064 119.93Z" fill="#D6D6D6"/>
<path d="M116.426 176.279H10.4061C5.21033 176.279 1 172.069 1 166.873V96.1035C1 90.9525 5.21033 86.7422 10.4061 86.7422H116.426C121.577 86.7422 125.787 90.9525 125.787 96.1035V166.873C125.787 172.069 121.577 176.279 116.426 176.279Z" stroke="#262626" stroke-width="0.895816" stroke-linecap="round" stroke-linejoin="round"/>
<path d="M160.141 38.1406L173.981 43.9186" stroke="#FF7129" stroke-width="0.895816" stroke-linecap="round" stroke-linejoin="round"/>
<path d="M159.557 23.0039L177.07 39.6213" stroke="#FF7129" stroke-width="0.895816" stroke-linecap="round" stroke-linejoin="round"/>
<path d="M174.785 22.7344L181.235 36.2612" stroke="#FF7129" stroke-width="0.895816" stroke-linecap="round" stroke-linejoin="round"/>
<path d="M327.945 79.2744C329.557 76.1499 331.103 73.7541 332.582 72.087C334.031 70.4165 335.856 69.1488 338.056 68.2837C339.349 67.7376 340.682 67.3761 342.054 67.1994C343.426 67.0227 344.732 66.7635 345.972 66.4218C347.209 66.1097 348.375 65.6245 349.471 64.966C350.536 64.3043 351.471 63.2071 352.274 61.6745C353.618 59.0609 353.833 56.8765 352.918 55.1213C352.006 53.3364 350.572 51.9286 348.614 50.8979C345.799 49.4706 343.465 49.2539 341.611 50.248C339.723 51.2683 337.962 53.039 336.328 55.5601L326.059 50.2624C327.401 47.6784 329.038 45.5333 330.972 43.8271C332.933 42.1539 335.077 40.982 337.406 40.3116C339.738 39.6115 342.207 39.4375 344.811 39.7896C347.449 40.1154 350.088 40.9671 352.728 42.3448C358.466 45.3017 362.4 48.8076 364.529 52.8624C366.629 56.9138 366.333 61.568 363.64 66.8249C362.758 68.5289 361.82 69.9261 360.826 71.0167C359.803 72.1038 358.681 72.9997 357.46 73.7041C356.243 74.3789 354.892 74.9036 353.408 75.278C351.923 75.6525 350.307 75.9971 348.559 76.312C346.904 76.6071 345.528 76.9487 344.433 77.3368C343.305 77.7512 342.343 78.2894 341.548 78.9514C340.723 79.6101 340.021 80.3728 339.443 81.2395C338.865 82.1062 338.271 83.1212 337.66 84.2846L327.945 79.2744ZM319.699 94.5306L325.062 84.0893L335.844 89.6249L330.437 100.061L319.699 94.5306Z" fill="#D6D6D6"/>
<path d="M115.908 28.3636C115.132 26.3032 114.654 24.5863 114.475 23.2127C114.296 21.8391 114.445 20.4655 114.923 19.0919C115.221 18.2558 115.61 17.4795 116.087 16.7628C116.565 16.0462 116.983 15.3295 117.342 14.6128C117.7 13.8962 117.954 13.1497 118.103 12.3733C118.222 11.5969 118.088 10.7011 117.7 9.68585C117.043 7.9838 116.102 6.98348 114.878 6.68488C113.684 6.38627 112.444 6.47584 111.16 6.95361C109.309 7.70012 108.249 8.71539 107.98 9.99939C107.682 11.2834 107.786 12.8361 108.294 14.6576L101.575 17.2555C100.888 15.5534 100.56 13.9111 100.59 12.3285C100.59 10.716 100.918 9.22301 101.575 7.84943C102.202 6.47584 103.143 5.25157 104.397 4.17659C105.621 3.07175 107.099 2.19087 108.831 1.53394C112.594 0.0409091 115.863 -0.362214 118.64 0.324579C121.388 1.01137 123.433 3.07174 124.777 6.5057C125.225 7.61054 125.493 8.62581 125.583 9.55149C125.702 10.4772 125.658 11.373 125.449 12.2389C125.269 13.075 124.971 13.926 124.553 14.792C124.105 15.6281 123.597 16.5239 123.03 17.4794C122.492 18.3753 122.089 19.1666 121.821 19.8534C121.552 20.5402 121.403 21.1971 121.373 21.8242C121.343 22.4811 121.417 23.1231 121.597 23.7502C121.746 24.4071 121.97 25.1088 122.268 25.8553L115.908 28.3636ZM119.626 38.4863L116.983 31.6781L124.015 28.9459L126.658 35.7541L119.626 38.4863Z" fill="#D6D6D6"/>
<path d="M365.059 236.518H336.483L334.602 206.105H366.985L365.059 236.518Z" fill="#FEC02D"/>
<path d="M363.09 206.111H338.455V180.177C338.455 173.369 343.964 167.859 350.773 167.859C357.581 167.859 363.09 173.369 363.09 180.177V206.111Z" fill="#94E261"/>
<mask id="mask0_3836_23360" style="mask-type:luminance" maskUnits="userSpaceOnUse" x="338" y="167" width="26" height="40">
<path d="M363.104 206.112H338.465V180.169C338.465 173.365 343.979 167.852 350.782 167.852C357.586 167.852 363.104 173.365 363.104 180.169V206.112Z" fill="white"/>
</mask>
<g mask="url(#mask0_3836_23360)">
<path d="M342.98 171.617C342.98 175.066 340.875 175.066 340.875 178.515C340.875 181.964 342.98 181.964 342.98 185.413C342.98 188.862 340.875 188.862 340.875 192.311C340.875 195.759 342.98 195.759 342.98 199.208C342.98 202.657 340.875 202.657 340.875 206.106" stroke="#262626" stroke-width="0.447908" stroke-linecap="round" stroke-linejoin="round"/>
<path d="M348.402 168.348C348.402 172.155 346.117 172.155 346.117 175.917C346.117 179.68 348.402 179.68 348.402 183.442C348.402 187.249 346.117 187.249 346.117 191.012C346.117 194.774 348.402 194.774 348.402 198.537C348.402 202.344 346.117 202.344 346.117 206.106" stroke="#262626" stroke-width="0.447908" stroke-linecap="round" stroke-linejoin="round"/>
<path d="M356.372 168.66C356.372 172.423 354.088 172.423 354.088 176.14C354.088 179.903 356.372 179.903 356.372 183.665C356.372 187.383 354.088 187.383 354.088 191.145C354.088 194.863 356.372 194.863 356.372 198.625C356.372 202.343 354.088 202.343 354.088 206.105" stroke="#262626" stroke-width="0.447908" stroke-linecap="round" stroke-linejoin="round"/>
<path d="M361.924 173.184C361.924 176.498 359.953 176.498 359.953 179.768C359.953 183.082 361.924 183.082 361.924 186.352C361.924 189.667 359.953 189.667 359.953 192.936C359.953 196.251 361.924 196.251 361.924 199.521C361.924 202.835 359.953 202.835 359.953 206.105" stroke="#262626" stroke-width="0.447908" stroke-linecap="round" stroke-linejoin="round"/>
</g>
<path d="M366.985 206.105L365.059 236.518H336.482C340.29 235.488 347.814 232.89 354.847 226.261C362.999 218.647 365.91 209.957 366.985 206.105Z" fill="#EAA418"/>
<path d="M365.331 210.945C364.166 213.812 362.24 217.798 358.926 221.919C355.611 225.995 352.162 228.772 349.609 230.519" stroke="#262626" stroke-width="0.447908" stroke-linecap="round" stroke-linejoin="round"/>
</svg>
