<svg width="477" height="325" viewBox="0 0 477 325" fill="none" xmlns="http://www.w3.org/2000/svg">
<path d="M74.8481 310.946C89.8903 298.638 91.8374 277.936 89.7072 259.648C89.3518 256.594 89.4274 253.338 87.7325 250.774C86.0365 248.21 82.4449 246.658 79.7722 248.177C77.5571 249.436 76.7689 252.164 75.6588 254.459C74.1826 257.509 71.8257 260.128 68.9456 261.917C67.0528 263.091 64.6603 263.911 62.6231 263.009C59.8279 261.773 59.2143 258.152 58.9842 255.103C58.5556 249.426 58.1272 243.748 57.699 238.07C57.4689 235.024 57.2247 231.914 56.0284 229.103C54.8325 226.292 52.4935 223.783 49.4923 223.212C46.4908 222.644 42.9974 224.613 42.6221 227.645C42.4653 228.906 42.8275 230.173 42.845 231.444C42.8624 232.714 42.3799 234.162 41.1926 234.616C39.9908 235.074 38.6858 234.311 37.69 233.496C34.2543 230.684 31.7697 226.902 29.428 223.129C27.086 219.358 24.7965 215.488 21.6331 212.373C18.4703 209.256 14.255 206.93 9.81759 207.046C5.37895 207.163 0.891891 210.243 0.125362 214.617C-0.64329 219.001 2.25125 223.148 5.29699 226.394C9.81419 231.213 15.0334 235.373 20.7371 238.701C21.7657 239.303 22.8796 239.953 23.3445 241.05C24.1799 243.024 22.3963 245.202 20.4207 246.037C18.1819 246.981 15.6678 246.951 13.2859 247.429C10.9026 247.907 8.38221 249.169 7.65518 251.488C6.64743 254.705 9.55133 257.749 12.321 259.673C17.8664 263.522 24.0772 266.413 30.5937 268.18C32.9306 268.813 35.3767 269.335 37.3353 270.758C39.2947 272.181 40.6231 274.826 39.6935 277.062C38.7631 279.3 35.9806 280.22 33.5681 279.981C31.1555 279.741 28.9235 278.644 26.5886 277.987C22.2201 276.756 16.7686 277.497 14.3492 281.336C12.7588 283.861 12.8722 287.184 14.0074 289.943C15.1412 292.703 17.1711 294.992 19.2992 297.083C26.7377 304.392 35.9552 310.009 46.0653 312.564C56.1758 315.119 65.3627 315.279 74.8481 310.946Z" fill="#DDE2F9" fillOpacity="0.5"/>
<path d="M76.1669 324.53C74.8951 317.323 72.5755 308.879 69.0652 299.861C65.5711 290.834 60.9099 281.254 55.6872 271.397C54.3721 268.939 53.0726 266.509 51.7918 264.114C50.5085 261.726 49.2366 259.359 47.8466 257.121C45.0867 252.63 42.0868 248.521 39.1154 244.707C36.1436 240.891 33.182 237.378 30.3889 234.111C27.5887 230.85 24.9208 227.857 22.3707 225.233C17.2857 219.966 12.6849 216.203 9.41956 213.745C7.78841 212.512 6.49233 211.595 5.60561 210.983C5.17458 210.69 4.83908 210.461 4.59447 210.295C4.36515 210.141 4.24072 210.073 4.24072 210.073C4.24072 210.073 4.34647 210.167 4.56687 210.334C4.80468 210.509 5.13253 210.75 5.55253 211.059C6.42013 211.695 7.69881 212.634 9.31043 213.888C12.5379 216.387 17.0942 220.176 22.1354 225.461C24.6648 228.092 27.3138 231.09 30.0984 234.359C32.8762 237.635 35.8226 241.153 38.7786 244.968C41.736 248.781 44.7198 252.883 47.4614 257.358C48.8425 259.587 50.1029 261.938 51.3876 264.333C52.6675 266.727 53.9653 269.155 55.2796 271.613C60.4983 281.463 65.1617 291.019 68.6686 300.016C72.1921 309.003 74.5371 317.41 75.8472 324.587" fill="#DADBD8"/>
<path d="M47.7277 257.084C47.7595 257.087 47.8198 256.615 47.9022 255.759C47.988 254.905 48.0763 253.663 48.1642 252.129C48.3435 249.062 48.4504 244.817 48.5571 240.137C48.6641 235.453 48.845 231.221 49.09 228.165C49.2076 226.636 49.3181 225.399 49.4072 224.547C49.4908 223.693 49.5231 223.217 49.4908 223.213C49.4603 223.207 49.3681 223.675 49.2293 224.523C49.0849 225.372 48.9243 226.606 48.7652 228.136C48.4351 231.192 48.2025 235.438 48.0954 240.124C47.996 244.766 47.9064 248.964 47.8385 252.115C47.7922 253.583 47.7523 254.806 47.7226 255.748C47.6958 256.606 47.6958 257.082 47.7277 257.084Z" fill="#DADBD8"/>
<path d="M7.46582 253.038C7.46625 253.054 7.60936 253.064 7.87945 253.071C8.20432 253.071 8.59332 253.073 9.06216 253.074C10.0877 253.073 11.5707 253.066 13.4044 253.121C17.0689 253.198 22.1293 253.488 27.6945 254.055C33.2615 254.634 38.2751 255.373 41.8849 256.018C43.6919 256.328 45.1467 256.619 46.1536 256.817C46.6136 256.904 46.9966 256.977 47.3151 257.039C47.5818 257.084 47.7237 257.099 47.7279 257.084C47.7313 257.069 47.5967 257.023 47.3363 256.947C47.0229 256.864 46.6459 256.763 46.1931 256.641C45.1977 256.391 43.7492 256.049 41.9451 255.697C38.3431 254.969 33.3218 254.176 27.7413 253.597C22.1627 253.027 17.0845 252.788 13.4082 252.795C11.5707 252.784 10.0835 252.837 9.05748 252.894C8.58907 252.927 8.2005 252.954 7.87605 252.977C7.60724 253.002 7.46498 253.022 7.46582 253.038Z" fill="#DADBD8"/>
<path d="M68.5642 299.163C68.5795 299.169 68.6556 298.994 68.7859 298.661C68.9303 298.276 69.1133 297.788 69.3401 297.184C69.817 295.903 70.4608 294.03 71.2273 291.706C72.765 287.062 74.6909 280.582 76.7255 273.404C78.7614 266.226 80.6359 259.738 82.092 255.073C82.8162 252.786 83.4086 250.914 83.8379 249.554C84.0311 248.94 84.187 248.442 84.3093 248.053C84.412 247.707 84.4587 247.523 84.4439 247.518C84.429 247.512 84.3525 247.686 84.2209 248.022C84.0778 248.404 83.8947 248.893 83.6679 249.497C83.1911 250.779 82.5486 252.651 81.7821 254.974C80.2434 259.619 78.3172 266.098 76.2826 273.279C74.2467 280.456 72.3726 286.942 70.9168 291.607C70.1919 293.895 69.6004 295.767 69.1702 297.127C68.977 297.741 68.8216 298.239 68.6993 298.629C68.5961 298.974 68.5493 299.157 68.5642 299.163Z" fill="#DADBD8"/>
<path d="M14.4854 286.742C14.4829 286.757 14.6698 286.811 15.0281 286.902C15.4358 286.997 15.9581 287.12 16.6024 287.271C18.0284 287.597 19.9938 288.045 22.3987 288.594C27.2904 289.717 34.0287 291.352 41.4689 293.177C48.9116 295 55.6673 296.587 60.5807 297.63C63.0383 298.151 65.0291 298.555 66.4101 298.809C67.0633 298.925 67.5915 299.021 68.0023 299.094C68.3679 299.155 68.5607 299.178 68.5641 299.162C68.5675 299.147 68.3801 299.093 68.021 299.003C67.6141 298.907 67.0931 298.784 66.4471 298.633C65.0224 298.308 63.0566 297.859 60.6517 297.311C55.7595 296.187 49.0208 294.552 41.5784 292.728C34.1383 290.905 27.3826 289.318 22.4697 288.276C20.0125 287.755 18.0208 287.349 16.6389 287.096C15.9871 286.979 15.4591 286.884 15.0472 286.809C14.682 286.751 14.4892 286.725 14.4854 286.742Z" fill="#DADBD8"/>
<path d="M233.62 53.2633L155.017 76.9121L139.078 23.9318L217.68 0.28299L233.62 53.2633Z" fill="white"/>
<path d="M233.619 53.2626C233.619 53.2626 233.502 52.9278 233.302 52.294C233.101 51.6428 232.811 50.71 232.433 49.4957C231.678 47.03 230.577 43.4359 229.168 38.8426C226.369 29.6388 222.354 16.4342 217.462 0.347603L217.745 0.499794C196.055 7.0412 168.751 15.2764 139.165 24.1997L139.159 24.2019L139.348 23.8486C145.022 42.7357 150.415 60.6912 155.265 76.8365L154.943 76.6625C178.079 69.7569 197.709 63.8961 211.574 59.7573C218.51 57.7026 224.003 56.074 227.783 54.9543C229.658 54.4031 231.105 53.9801 232.105 53.6855C232.586 53.5475 232.956 53.442 233.227 53.3648C233.48 53.2942 233.619 53.2626 233.619 53.2626C233.619 53.2626 233.505 53.3072 233.264 53.3855C233.003 53.467 232.645 53.5801 232.179 53.7279C231.195 54.0313 229.771 54.4705 227.924 55.0401C224.168 56.1871 218.707 57.8548 211.812 59.9606C197.926 64.1711 178.265 70.132 155.092 77.1594L154.844 77.2344L154.769 76.9854C149.905 60.8455 144.496 42.8944 138.807 24.0117L138.725 23.741L138.996 23.6594L139.002 23.6573C168.601 14.7741 195.916 6.57698 217.614 0.0649261L217.832 -0.000282288L217.896 0.217148C222.71 16.3886 226.661 29.6638 229.414 38.9155C230.769 43.5022 231.829 47.0908 232.555 49.5533C232.905 50.7556 233.175 51.6808 233.363 52.3255C233.542 52.9495 233.619 53.2626 233.619 53.2626Z" fill="#DADBD8"/>
<path d="M217.68 0.282272C217.688 0.286621 217.651 0.367088 217.57 0.520378C217.472 0.701931 217.351 0.922619 217.203 1.1955C216.846 1.82061 216.358 2.67836 215.739 3.76334C214.424 6.02462 212.557 9.23063 210.255 13.1868C205.548 21.1698 199.063 32.1685 191.834 44.4272L191.712 44.6338L191.488 44.5468C190.726 44.2511 189.907 43.9337 189.082 43.6151C175.275 38.2283 162.778 33.3524 153.679 29.8039C149.193 28.0254 145.546 26.5794 142.975 25.5597C141.749 25.0596 140.78 24.665 140.075 24.378C139.771 24.2486 139.525 24.1431 139.326 24.0573C139.158 23.9822 139.074 23.9398 139.078 23.9311C139.081 23.9213 139.172 23.9464 139.346 24.0029C139.552 24.0757 139.804 24.1638 140.116 24.2714C140.83 24.5356 141.812 24.8965 143.055 25.3531C145.642 26.3337 149.31 27.722 153.825 29.431C162.937 32.9404 175.456 37.7608 189.288 43.0868C190.112 43.4064 190.931 43.7239 191.693 44.0196L191.348 44.1392C198.634 31.9163 205.173 20.948 209.919 12.9878C212.286 9.06975 214.203 5.89416 215.555 3.65462C216.211 2.59139 216.73 1.75212 217.107 1.13896C217.275 0.878044 217.41 0.664967 217.522 0.492111C217.618 0.348606 217.671 0.276836 217.68 0.282272Z" fill="#DADBD8"/>
<path d="M446.362 211.9C446.362 211.9 441.269 206.853 431.322 219.458C421.376 232.063 417.055 239.614 417.055 239.614C417.055 239.614 414.579 242.178 412.943 239.854C411.307 237.529 409.627 231.528 405.999 231.825C402.238 232.134 400.273 235.873 399.789 241.845C399.304 247.818 397.763 260.865 397.619 262.045C397.478 263.203 396.49 264.752 395.121 263.347C393.752 261.944 386.658 249.97 381.177 253.677C375.697 257.384 377.081 274.246 377.197 276.092C377.314 277.937 376.821 278.617 375.901 278.886C374.982 279.153 372.977 274.905 370.818 271.582C368.661 268.259 365.577 264.784 362.595 267.188C359.611 269.593 356.455 281.408 363.972 303.117L368.114 312.95L378.724 314.459C401.624 316.303 412.275 310.293 413.856 306.803C415.437 303.314 411.301 301.198 407.544 299.94C403.788 298.682 399.171 297.804 399.2 296.847C399.229 295.889 399.765 295.242 401.582 294.892C403.398 294.543 420.069 291.664 422.287 285.43C424.505 279.197 411.136 275.323 409.435 274.35C407.732 273.376 408.987 272.032 410.072 271.605C411.176 271.171 423.423 266.414 429.085 264.45C434.746 262.486 437.874 259.65 437.232 255.929C436.612 252.343 430.381 252.219 427.722 251.216C425.062 250.213 426.925 247.175 426.925 247.175C426.925 247.175 433.154 241.102 442.87 228.318C452.585 215.534 446.251 211.804 446.251 211.804" fill="#DDE2F9" fillOpacity="0.5"/>
<path d="M437.434 223.172C437.442 223.178 437.383 223.272 437.261 223.448C437.117 223.649 436.935 223.905 436.706 224.224C436.185 224.93 435.455 225.918 434.53 227.173C432.633 229.73 429.855 233.402 426.402 237.928C419.501 246.977 409.844 259.385 399.12 273.041C388.423 286.703 378.739 299.069 371.703 308.056C368.23 312.526 365.413 316.154 363.434 318.698C362.473 319.927 361.716 320.892 361.174 321.583C360.927 321.888 360.731 322.132 360.575 322.324C360.438 322.489 360.363 322.571 360.356 322.565C360.348 322.558 360.407 322.465 360.529 322.289C360.672 322.089 360.855 321.833 361.084 321.514C361.605 320.807 362.334 319.821 363.259 318.564C365.157 316.01 367.933 312.336 371.386 307.813C378.288 298.763 387.945 286.353 398.673 272.692C409.367 259.035 419.049 246.671 426.086 237.682C429.558 233.213 432.376 229.585 434.355 227.04C435.316 225.812 436.074 224.846 436.615 224.156C436.862 223.849 437.06 223.606 437.215 223.413C437.352 223.249 437.426 223.167 437.434 223.172Z" fill="#DADBD8"/>
<path d="M408.01 240.317C408.086 240.311 408.25 241.397 408.411 243.164C408.574 244.931 408.719 247.377 408.817 250.078C408.886 252.678 408.952 255.028 409.004 256.996C409.043 258.765 409.082 259.857 409 259.866C408.927 259.874 408.747 258.787 408.604 257.017C408.46 255.247 408.347 252.8 408.25 250.1C408.161 247.503 408.081 245.154 408.012 243.188C407.954 241.419 407.93 240.323 408.01 240.317Z" fill="#DADBD8"/>
<path d="M409.925 260.243C409.911 260.086 414.937 259.54 421.149 259.023C427.363 258.503 432.41 258.211 432.422 258.365C432.435 258.522 427.41 259.068 421.196 259.586C414.985 260.104 409.938 260.398 409.925 260.243Z" fill="#DADBD8"/>
<path d="M391.885 281.211C391.905 281.133 393.007 281.334 394.781 281.675C396.556 282.01 399.005 282.48 401.723 282.911C404.442 283.352 406.914 283.677 408.706 283.908C410.496 284.141 411.608 284.293 411.601 284.373C411.594 284.449 410.473 284.439 408.666 284.307C406.859 284.176 404.366 283.911 401.634 283.471C398.901 283.036 396.453 282.502 394.695 282.065C392.937 281.624 391.868 281.284 391.885 281.211Z" fill="#DADBD8"/>
<path d="M386.186 263.569C386.26 263.544 386.658 264.5 387.24 266.067C387.822 267.635 388.59 269.812 389.405 272.228C390.219 274.645 390.927 276.842 391.413 278.442C391.898 280.042 392.161 281.044 392.087 281.069C392.013 281.094 391.615 280.137 391.034 278.569C390.451 277.003 389.684 274.825 388.868 272.409C388.054 269.993 387.345 267.795 386.86 266.197C386.375 264.596 386.112 263.594 386.186 263.569Z" fill="#DADBD8"/>
<path d="M367.909 280.056C367.983 280.03 368.485 281.259 369.236 283.266C369.989 285.27 370.991 288.055 372.065 291.141C373.138 294.228 374.081 297.035 374.736 299.074C375.391 301.114 375.759 302.388 375.687 302.413C375.613 302.438 375.11 301.211 374.358 299.206C373.607 297.199 372.604 294.416 371.53 291.328C370.456 288.242 369.514 285.437 368.859 283.396C368.204 281.357 367.834 280.083 367.909 280.056Z" fill="#DADBD8"/>
<path d="M375.651 301.825C375.666 301.746 377.071 301.958 379.335 302.313C381.601 302.663 384.729 303.152 388.195 303.609C391.66 304.07 394.808 304.419 397.086 304.667C399.365 304.916 400.776 305.077 400.771 305.157C400.765 305.233 399.344 305.213 397.052 305.065C394.76 304.92 391.597 304.633 388.12 304.17C384.644 303.713 381.517 303.159 379.266 302.706C377.015 302.251 375.637 301.898 375.651 301.825Z" fill="#DADBD8"/>
<path d="M107.696 137.874C107.705 137.826 108.115 138.162 108.987 138.088C109.409 138.035 109.939 137.847 110.374 137.396C110.789 136.945 111.089 136.23 111.522 135.521C113.206 132.582 115.609 128.386 118.572 123.216C119.32 121.919 120.102 120.56 120.918 119.144C121.327 118.437 121.743 117.715 122.168 116.98C122.37 116.606 122.627 116.244 122.741 115.886C122.861 115.515 122.875 115.109 122.775 114.727C122.67 114.347 122.455 113.996 122.149 113.741C121.856 113.505 121.409 113.3 121.027 113.073C120.233 112.629 119.426 112.178 118.608 111.72C116.971 110.805 115.286 109.862 113.561 108.896C106.653 105.019 99.0663 100.761 91.1016 96.2902C90.2255 95.776 89.0101 96.1119 88.4602 96.9501C87.8941 97.9188 87.3319 98.8788 86.7734 99.8322C85.6544 101.755 84.5511 103.65 83.4669 105.511C81.2973 109.233 79.2036 112.823 77.2089 116.243C76.9593 116.67 76.7117 117.095 76.4654 117.517C76.2153 117.909 76.1023 118.325 76.1155 118.758C76.1346 119.186 76.2857 119.605 76.5575 119.927C76.8081 120.261 77.2154 120.437 77.6337 120.683C79.2652 121.606 80.8501 122.503 82.3823 123.369C85.4421 125.104 88.2945 126.722 90.9021 128.199C96.077 131.154 100.276 133.55 103.218 135.23C104.64 136.055 105.757 136.704 106.552 137.165C106.909 137.379 107.192 137.55 107.412 137.681C107.605 137.8 107.701 137.866 107.696 137.874C107.691 137.883 107.586 137.835 107.384 137.731C107.157 137.613 106.864 137.459 106.496 137.265C105.688 136.825 104.554 136.208 103.11 135.421C100.147 133.78 95.9178 131.437 90.7054 128.549C88.0878 127.089 85.2246 125.492 82.1521 123.779C80.6152 122.919 79.0261 122.031 77.3895 121.116C77.0068 120.891 76.5104 120.682 76.1694 120.248C75.8246 119.842 75.6309 119.315 75.6054 118.78C75.5786 118.25 75.7426 117.69 76.0186 117.257C76.2637 116.834 76.51 116.409 76.7584 115.981C78.7438 112.555 80.8276 108.96 82.9875 105.233C84.0695 103.37 85.1698 101.474 86.2867 99.5495C86.852 98.5841 87.421 97.61 87.9943 96.6305C88.6895 95.5683 90.2344 95.1302 91.3785 95.7977C99.3364 100.281 106.916 104.553 113.817 108.44C115.539 109.414 117.219 110.363 118.852 111.286C119.668 111.748 120.472 112.203 121.264 112.651C121.659 112.891 122.048 113.054 122.457 113.377C122.838 113.698 123.104 114.138 123.228 114.608C123.35 115.08 123.329 115.577 123.18 116.03C123.02 116.496 122.761 116.836 122.559 117.207C122.13 117.94 121.709 118.66 121.296 119.364C120.47 120.773 119.676 122.125 118.919 123.417C115.891 128.549 113.434 132.714 111.712 135.632C111.258 136.338 110.966 137.02 110.493 137.514C110.013 137.986 109.443 138.164 108.997 138.201C108.545 138.229 108.206 138.132 107.996 138.042C107.786 137.953 107.696 137.874 107.696 137.874Z" fill="#DADBD8"/>
<path d="M101.95 115.587L104.691 120.453L99.0375 120.556L93.3843 120.659L96.2971 115.691L99.2096 110.722L101.95 115.587Z" fill="#DADBD8"/>
<path d="M470.64 322.864C470.64 323.031 366.657 323.166 238.417 323.166C110.133 323.166 6.17236 323.031 6.17236 322.864C6.17236 322.698 110.133 322.565 238.417 322.565C366.657 322.565 470.64 322.698 470.64 322.864Z" fill="#C4C7C8"/>
<path d="M121.133 253.795L88.3052 220.828L104.81 190.512C121.315 169.387 156.25 170.748 156.25 170.748C156.25 170.748 180.025 168.457 207.776 173.857C235.526 179.257 233.29 197.622 233.29 197.622L237.008 265.649L240.993 321.038L138.641 323.102L121.133 253.795Z" fill="#385AA4"/>
<path d="M176.269 319.912L84.5938 321.036C62.5641 321.305 47.8681 298.402 57.2923 278.488L96.4906 205.793L132.195 229.93L107.84 280.476L182.055 281.801L176.269 319.912Z" fill="#385AA4"/>
<path d="M230.013 186.579L303.582 300.164L260.661 302.971C260.661 302.971 235.03 262.579 235.61 263.415C236.658 264.927 230.013 186.579 230.013 186.579Z" fill="#385AA4"/>
<path d="M130.354 236.455C130.336 236.45 130.371 236.249 130.456 235.871C130.561 235.434 130.689 234.89 130.847 234.225C131.186 232.798 131.681 230.731 132.199 228.161C132.714 225.591 133.263 222.514 133.638 219.074C133.985 215.637 134.204 211.811 133.678 207.872C133.093 203.945 131.617 200.385 129.88 197.415C128.145 194.432 126.19 191.986 124.419 190.064C122.646 188.142 121.081 186.705 119.965 185.756C118.853 184.801 118.217 184.294 118.247 184.255C118.257 184.241 118.429 184.35 118.747 184.573C119.058 184.802 119.537 185.117 120.106 185.586C121.269 186.487 122.885 187.887 124.712 189.791C126.536 191.694 128.544 194.14 130.33 197.152C132.116 200.149 133.64 203.771 134.239 207.792C134.775 211.812 134.534 215.672 134.157 219.131C133.75 222.593 133.158 225.675 132.59 228.244C132.02 230.813 131.465 232.868 131.06 234.282C130.856 234.988 130.688 235.534 130.566 235.902C130.446 236.27 130.373 236.461 130.354 236.455Z" fill="#17282F"/>
<path d="M127.406 240.373C127.442 240.39 127.215 240.973 126.774 242.016C126.336 243.058 125.678 244.558 124.847 246.401C123.186 250.091 120.821 255.156 118.102 260.698C115.381 266.241 112.822 271.212 110.919 274.783C109.969 276.569 109.187 278.006 108.63 278.991C108.075 279.977 107.751 280.513 107.717 280.496C107.682 280.477 107.94 279.906 108.435 278.889C108.982 277.788 109.699 276.342 110.564 274.599C112.406 270.893 114.87 265.932 117.595 260.448C120.264 254.941 122.679 249.957 124.484 246.233C125.334 244.482 126.037 243.031 126.574 241.923C127.077 240.91 127.37 240.357 127.406 240.373Z" fill="#17282F"/>
<path d="M176.269 319.912C176.262 319.911 176.262 319.846 176.27 319.721C176.282 319.569 176.297 319.387 176.315 319.162C176.368 318.635 176.44 317.914 176.532 316.995C176.745 315.065 177.049 312.308 177.43 308.84C178.241 301.812 179.385 291.912 180.732 280.248L180.99 280.538C172.742 280.545 163.565 280.554 153.91 280.562C135.422 280.529 118.688 280.501 106.531 280.479C100.498 280.441 95.6031 280.411 92.1744 280.389C90.5083 280.366 89.2012 280.349 88.2704 280.335C87.8495 280.325 87.5153 280.315 87.2554 280.307C87.0269 280.298 86.9102 280.288 86.9102 280.279C86.9102 280.269 87.0269 280.259 87.2554 280.25C87.5153 280.242 87.8495 280.234 88.2704 280.221C89.2012 280.208 90.5083 280.191 92.1744 280.168C95.6031 280.147 100.498 280.116 106.531 280.078C118.688 280.056 135.422 280.028 153.91 279.995C163.565 280.004 172.742 280.011 180.99 280.019H181.282L181.246 280.31C179.817 291.964 178.602 301.855 177.74 308.875C177.298 312.337 176.944 315.087 176.698 317.015C176.571 317.929 176.472 318.648 176.4 319.172C176.365 319.396 176.337 319.576 176.313 319.727C176.291 319.849 176.276 319.912 176.269 319.912Z" fill="#17282F"/>
<path d="M108.486 281.251C108.409 281.3 107.784 280.367 106.657 278.96C105.532 277.553 103.86 275.702 101.765 273.928C99.6649 272.159 97.5599 270.82 95.9839 269.948C94.4083 269.072 93.3844 268.612 93.4193 268.527C93.4427 268.466 94.5252 268.796 96.1699 269.592C97.8121 270.385 99.9928 271.695 102.131 273.495C104.263 275.3 105.919 277.232 106.976 278.718C108.036 280.205 108.542 281.218 108.486 281.251Z" fill="#17282F"/>
<path d="M238.528 288.444C238.51 288.446 238.46 288.122 238.384 287.505C238.307 286.837 238.205 285.936 238.077 284.8C237.826 282.45 237.489 279.045 237.126 274.833C236.382 266.411 235.524 254.762 234.76 241.886C233.998 229.005 233.466 217.337 233.16 208.888C233.003 204.664 232.903 201.245 232.851 198.882C232.833 197.74 232.816 196.832 232.805 196.16C232.801 195.537 232.809 195.211 232.828 195.21C232.848 195.209 232.879 195.534 232.92 196.156C232.957 196.826 233.008 197.733 233.071 198.874C233.189 201.287 233.356 204.69 233.56 208.871C233.969 217.314 234.563 228.975 235.325 241.852C236.09 254.725 236.884 266.373 237.525 274.801C237.848 278.973 238.111 282.369 238.297 284.779C238.38 285.919 238.448 286.824 238.498 287.494C238.537 288.116 238.548 288.442 238.528 288.444Z" fill="#17282F"/>
<path d="M179.341 294.11C179.341 294.11 197.634 288.842 203.687 287.298C206.046 286.696 216.15 292.025 223.128 296.456C223.128 296.456 232.739 302.155 231.961 303.91C231.105 305.842 227.56 305.446 221.91 302.789C221.91 302.789 223.882 308.515 220.011 308.391C220.011 308.391 221.932 314.579 218.304 315.22C214.676 315.86 213.823 307.964 210.622 307.538C207.422 307.111 200.806 306.684 200.806 306.684C200.806 306.684 195.298 315.807 191.029 316.447C186.762 317.087 176.873 315.934 176.873 315.934L179.341 294.11Z" fill="#FF8B7B"/>
<path d="M210.561 295.371C210.645 295.239 212.932 296.533 215.67 298.26C218.408 299.987 220.561 301.493 220.477 301.626C220.395 301.757 218.107 300.465 215.369 298.738C212.631 297.012 210.479 295.504 210.561 295.371Z" fill="#F68260"/>
<path d="M209.479 298.89C209.544 298.747 212.26 299.861 215.544 301.377C218.829 302.893 221.438 304.236 221.373 304.379C221.306 304.52 218.592 303.407 215.306 301.89C212.023 300.375 209.414 299.031 209.479 298.89Z" fill="#F68260"/>
<path d="M211.438 307.418C211.458 307.264 213.308 307.389 215.567 307.699C217.826 308.008 219.639 308.385 219.617 308.54C219.597 308.695 217.749 308.569 215.49 308.26C213.23 307.95 211.416 307.574 211.438 307.418Z" fill="#F68260"/>
<path d="M155.549 105.431C155.974 106.831 155.489 108.463 154.369 109.403C153.248 110.344 151.558 110.538 150.253 109.876C147.775 108.621 147.46 105.2 147.948 102.465C148.436 99.7298 149.365 96.8097 148.218 94.2788C147.34 92.3426 145.439 91.1163 143.957 89.5921C141.374 86.9372 139.997 83.0681 140.626 79.4174C141.254 75.7678 143.99 72.4857 147.558 71.4888C151.199 70.4701 155.687 71.5899 158.397 68.9536C160.363 67.0434 160.484 63.9124 162.003 61.6327C164.364 58.0918 169.353 57.5308 173.568 58.1059C177.783 58.6832 182.075 60.0345 186.204 59.0083C189.652 58.1494 192.483 55.7414 195.714 54.2628C202.718 51.0601 211.671 52.7941 216.972 58.3832C222.273 63.9722 223.532 73.0054 219.962 79.8294C218.679 82.282 216.749 84.5096 214.183 85.5457" fill="#17282F"/>
<path d="M176.526 195.229C188.206 195.217 197.622 185.659 197.46 173.981L197.184 153.994C197.184 153.994 213.973 152.313 215.086 135.679C216.198 119.045 215.395 80.6643 215.395 80.6643C196.578 71.3343 174.185 72.9172 156.867 84.8041L154.297 86.5697L155.548 174.568C155.711 186.034 165.059 195.242 176.526 195.229Z" fill="#FF8B7B"/>
<path d="M210.984 110.795C208.029 110.211 208.051 106.395 211.012 105.844C211.141 105.82 211.287 105.82 211.417 105.846C214.371 106.43 214.35 110.247 211.388 110.797C211.259 110.821 211.114 110.82 210.984 110.795Z" fill="#17282F"/>
<path d="M214.249 105.484C213.971 105.757 212.406 104.41 210.115 104.274C207.825 104.106 206.094 105.232 205.857 104.924C205.739 104.786 206.028 104.281 206.784 103.769C207.527 103.259 208.779 102.797 210.207 102.891C211.635 102.987 212.814 103.611 213.482 104.214C214.164 104.823 214.381 105.362 214.249 105.484Z" fill="#17282F"/>
<path d="M187.726 106.043C188.825 106.805 189.099 108.313 188.338 109.412C187.577 110.51 186.068 110.784 184.969 110.023C183.87 109.262 183.596 107.754 184.358 106.655C185.119 105.556 186.627 105.282 187.726 106.043Z" fill="#17282F"/>
<path d="M189.237 106.146C188.961 106.42 187.395 105.072 185.103 104.937C182.813 104.767 181.083 105.895 180.846 105.586C180.729 105.449 181.017 104.944 181.773 104.43C182.515 103.921 183.767 103.459 185.196 103.554C186.623 103.649 187.803 104.273 188.47 104.877C189.153 105.485 189.37 106.024 189.237 106.146Z" fill="#17282F"/>
<path d="M197.4 125.561C197.393 125.381 198.827 125.171 201.149 124.978C201.754 124.945 202.231 124.834 202.292 124.514C202.419 124.158 202.222 123.504 201.956 122.774C201.448 121.226 200.935 119.658 200.397 118.017C198.254 111.244 196.796 105.665 197.14 105.558C197.484 105.448 199.499 110.849 201.643 117.623C202.146 119.275 202.628 120.853 203.103 122.411C203.286 123.116 203.659 123.949 203.295 124.921C203.103 125.408 202.612 125.741 202.21 125.822C201.806 125.921 201.468 125.903 201.18 125.901C198.85 125.858 197.405 125.742 197.4 125.561Z" fill="#17282F"/>
<path d="M189.814 127.687C192.75 129.046 196.255 130.741 200.878 131.566C200.878 131.566 197.969 135.698 193.265 133.68C188.382 131.585 189.814 127.687 189.814 127.687Z" fill="white"/>
<path d="M197.225 153.756C197.225 153.756 186.657 154.039 175.86 146.407C175.86 146.407 180.337 158.666 197.028 158.071L197.225 153.756Z" fill="#CC6F62"/>
<path d="M215.51 84.8718C215.51 84.8718 205.464 89.9782 192.138 83.6477C183.393 79.4926 173.256 77.577 171.065 79.361C168.873 81.1461 168.577 90.0793 160.048 92.8515C160.048 92.8515 160.968 109.868 154.167 109.393C147.367 108.917 151.097 82.4627 151.097 82.4627L167.547 74.0296L185.604 70.2529L202.727 72.3282L216.011 75.6897L215.51 84.8718Z" fill="#17282F"/>
<path d="M155.41 103.922C155.133 103.783 144.157 99.9161 143.9 111.316C143.644 122.716 155.141 120.622 155.169 120.295C155.196 119.969 155.41 103.922 155.41 103.922Z" fill="#F8A58D"/>
<path d="M151.783 115.898C151.734 115.861 151.582 116.033 151.243 116.18C150.912 116.322 150.347 116.413 149.758 116.177C148.563 115.708 147.592 113.773 147.583 111.717C147.577 110.679 147.817 109.696 148.203 108.886C148.569 108.06 149.123 107.489 149.731 107.395C150.337 107.269 150.758 107.642 150.891 107.966C151.036 108.289 150.959 108.514 151.019 108.535C151.049 108.565 151.268 108.35 151.186 107.877C151.144 107.65 151.017 107.378 150.755 107.152C150.485 106.923 150.086 106.802 149.662 106.838C148.783 106.879 147.973 107.669 147.548 108.559C147.076 109.45 146.782 110.555 146.789 111.72C146.809 114.018 147.937 116.195 149.574 116.709C150.371 116.935 151.046 116.709 151.397 116.447C151.757 116.174 151.822 115.92 151.783 115.898Z" fill="#F68260"/>
<path d="M149.606 68.2335C149.542 68.1009 151.415 67.5649 153.56 68.3803C155.715 69.1685 156.779 70.7992 156.644 70.859C156.52 70.9764 155.35 69.6305 153.362 68.9097C151.388 68.1531 149.623 68.4042 149.606 68.2335Z" fill="#17282F"/>
<path d="M156.463 61.406C156.663 61.419 156.349 63.8097 156.748 66.6624C157.135 69.5379 158.492 71.5393 158.34 71.6296C158.285 71.6676 157.869 71.223 157.384 70.3707C156.91 69.5173 156.396 68.2322 156.188 66.7461C155.776 63.7608 156.355 61.381 156.463 61.406Z" fill="#17282F"/>
<path d="M203.304 100.009C203.244 99.8754 203.733 99.4819 204.658 99.1046C205.576 98.7263 206.946 98.4045 208.479 98.4176C210.012 98.435 211.374 98.7828 212.286 99.1797C213.204 99.5765 213.684 99.9787 213.621 100.11C213.481 100.412 211.285 99.5558 208.467 99.5504C205.651 99.5004 203.438 100.314 203.304 100.009Z" fill="#17282F"/>
<path d="M177.884 97.611C177.824 97.4773 178.313 97.0849 179.237 96.7065C180.157 96.3282 181.526 96.0075 183.058 96.0194C184.592 96.0368 185.954 96.3847 186.867 96.7826C187.784 97.1783 188.264 97.5806 188.2 97.7132C188.061 98.0143 185.865 97.1577 183.047 97.1522C180.231 97.1011 178.018 97.9154 177.884 97.611Z" fill="#17282F"/>
<path d="M201.342 101.801C201.356 101.815 201.369 102.048 201.386 102.475C201.4 102.958 201.418 103.566 201.441 104.314C201.457 105.123 201.477 106.076 201.5 107.168C201.504 108.269 201.57 109.552 202.042 110.866C202.496 112.176 203.283 113.521 204.446 114.665C205.619 115.787 207.153 116.723 208.939 117.133C209.825 117.343 210.767 117.445 211.72 117.377C212.672 117.331 213.641 117.138 214.564 116.776C216.426 116.094 218.113 114.75 219.252 112.983C220.343 111.296 220.834 109.329 220.78 107.418C220.786 105.473 220.79 103.595 220.796 101.801L221.058 102.064C215.362 102.012 210.487 101.968 206.95 101.936C205.253 101.906 203.88 101.882 202.853 101.864C202.414 101.852 202.05 101.841 201.745 101.832C201.49 101.822 201.353 101.811 201.342 101.801C201.321 101.78 201.81 101.76 202.739 101.737C203.75 101.719 205.104 101.695 206.776 101.666C210.358 101.635 215.291 101.59 221.058 101.538L221.321 101.536L221.322 101.801C221.326 103.595 221.331 105.473 221.336 107.418C221.4 109.392 220.885 111.512 219.728 113.29C218.521 115.161 216.732 116.58 214.759 117.296C213.78 117.674 212.754 117.874 211.748 117.916C210.742 117.982 209.75 117.869 208.816 117.64C206.937 117.193 205.331 116.192 204.117 114.999C202.911 113.786 202.11 112.365 201.663 110.993C201.196 109.613 201.155 108.287 201.184 107.143C201.207 106.022 201.227 105.044 201.243 104.215C201.266 103.477 201.285 102.877 201.299 102.401C201.315 101.993 201.329 101.787 201.342 101.801Z" fill="#17282F"/>
<path d="M174.689 101.237C174.702 101.252 174.717 101.485 174.732 101.913C174.747 102.395 174.764 103.004 174.787 103.752C174.805 104.56 174.824 105.513 174.847 106.606C174.851 107.707 174.917 108.989 175.389 110.303C175.843 111.613 176.629 112.958 177.792 114.103C178.965 115.225 180.5 116.161 182.285 116.571C183.172 116.78 184.113 116.883 185.066 116.813C186.019 116.768 186.987 116.576 187.91 116.214C189.773 115.531 191.459 114.186 192.599 112.421C193.691 110.733 194.18 108.767 194.128 106.856C194.132 104.911 194.137 103.031 194.143 101.237L194.405 101.5C188.709 101.449 183.835 101.405 180.297 101.373C178.6 101.343 177.226 101.32 176.201 101.302C175.76 101.288 175.396 101.279 175.093 101.269C174.837 101.259 174.699 101.248 174.689 101.237C174.668 101.217 175.157 101.197 176.086 101.174C177.096 101.157 178.451 101.133 180.123 101.104C183.704 101.071 188.639 101.026 194.405 100.975L194.668 100.972V101.237C194.672 103.031 194.678 104.911 194.683 106.856C194.747 108.83 194.232 110.95 193.075 112.726C191.869 114.597 190.079 116.017 188.106 116.734C187.127 117.112 186.101 117.311 185.095 117.353C184.089 117.42 183.096 117.306 182.164 117.077C180.283 116.63 178.678 115.629 177.463 114.437C176.257 113.223 175.457 111.802 175.009 110.429C174.543 109.05 174.502 107.723 174.532 106.581C174.555 105.459 174.574 104.481 174.59 103.652C174.613 102.915 174.631 102.315 174.646 101.838C174.661 101.43 174.675 101.224 174.689 101.237Z" fill="#17282F"/>
<path d="M201.582 102.593C201.582 102.75 199.902 102.876 197.829 102.876C195.756 102.876 194.076 102.75 194.076 102.593C194.076 102.437 195.756 102.31 197.829 102.31C199.902 102.31 201.582 102.437 201.582 102.593Z" fill="#17282F"/>
<path d="M153.902 102.742C153.901 102.586 158.554 102.445 164.294 102.427C170.036 102.411 174.689 102.523 174.69 102.679C174.69 102.836 170.037 102.976 164.296 102.993C158.556 103.011 153.902 102.898 153.902 102.742Z" fill="#17282F"/>
<path d="M293.607 118.433C295.05 117.485 296.812 116.773 298.37 116.092C296.607 116.925 294.937 117.613 293.607 118.433Z" fill="#8F9192"/>
<path d="M334.172 204.473C335.093 204.071 335.995 203.636 336.879 203.169C335.996 203.642 335.097 204.074 334.172 204.473ZM349.226 193.809C351.976 191.029 354.414 188.05 356.526 185.095C354.794 187.583 352.843 190.083 350.548 192.469C350.123 192.912 349.682 193.359 349.226 193.809ZM361.806 176.615C367.414 166.071 370.149 154.437 370.149 142.71V125.645C370.149 125.346 370.14 125.057 370.123 124.776C370.152 125.191 370.168 125.63 370.169 126.095L370.149 141.763C370.434 154.036 367.625 165.915 361.806 176.615ZM370.044 123.927C369.663 121.001 368.28 119.035 366.175 117.713C368.031 118.716 369.6 120.295 370.044 123.927Z" fill="#8C8F8F"/>
<path d="M270.628 229.595L234.54 318.836H169.47V322.865H363.282L402.926 229.595H270.628Z" fill="#9BACD1"/>
<path d="M325.788 282.282C324.482 286.773 320.673 289.615 317.285 288.627C313.895 287.641 312.208 283.201 313.514 278.708C314.823 274.217 318.63 271.376 322.02 272.362C325.409 273.35 327.097 277.791 325.788 282.282Z" fill="#2A4457"/>
<rect x="358.347" y="51.999" width="118.315" height="134.495" rx="2" transform="rotate(6.55211 358.347 51.999)" fill="#E3E6F3"/>
<g filter="url(#filter0_d)">
<rect x="340.449" y="59" width="121.911" height="134.495" rx="2" transform="rotate(7.02494 340.449 59)" fill="white"/>
</g>
<path d="M423.942 81.1758L356.963 72.9223C355.237 72.7095 353.665 73.9365 353.453 75.6627C353.24 77.3889 354.467 78.9607 356.193 79.1734L423.172 87.427C424.898 87.6397 426.47 86.4127 426.682 84.6865C426.895 82.9603 425.668 81.3885 423.942 81.1758Z" fill="#FD9646"/>
<path d="M439.72 103.309L352.525 92.5647C352.029 92.5036 351.541 93.1531 351.435 94.0153C351.329 94.8776 351.645 95.6261 352.14 95.6872L439.336 106.432C439.831 106.493 440.319 105.844 440.426 104.981C440.532 104.119 440.216 103.371 439.72 103.309Z" fill="#DDE2F9"/>
<path d="M435.199 139.999L348.004 129.254C347.508 129.193 347.02 129.843 346.914 130.705C346.808 131.567 347.124 132.316 347.619 132.377L434.815 143.121C435.31 143.182 435.798 142.533 435.905 141.671C436.011 140.808 435.695 140.06 435.199 139.999Z" fill="#DDE2F9"/>
<path d="M438.181 115.8L350.986 105.055C350.49 104.994 350.002 105.643 349.896 106.506C349.79 107.368 350.105 108.116 350.601 108.177L437.796 118.922C438.292 118.983 438.78 118.334 438.886 117.472C438.993 116.609 438.677 115.861 438.181 115.8Z" fill="#DDE2F9"/>
<path d="M433.66 152.488L346.465 141.743C345.969 141.682 345.481 142.332 345.375 143.194C345.269 144.056 345.584 144.805 346.08 144.866L433.275 155.611C433.771 155.672 434.259 155.022 434.365 154.16C434.472 153.298 434.156 152.549 433.66 152.488Z" fill="#DDE2F9"/>
<path d="M430.678 176.687L343.483 165.943C342.987 165.882 342.499 166.531 342.393 167.393C342.287 168.256 342.602 169.004 343.098 169.065L430.293 179.81C430.789 179.871 431.277 179.221 431.383 178.359C431.489 177.497 431.174 176.748 430.678 176.687Z" fill="#DDE2F9"/>
<path d="M435.198 127.319L351.084 116.954C349.737 116.788 348.559 117.352 348.453 118.215C348.347 119.077 349.352 119.91 350.699 120.076L434.813 130.441C436.159 130.607 437.337 130.043 437.443 129.181C437.55 128.318 436.544 127.485 435.198 127.319Z" fill="#DDE2F9"/>
<path d="M430.677 164.007L346.563 153.642C345.216 153.476 344.038 154.041 343.932 154.903C343.826 155.765 344.831 156.599 346.178 156.765L430.292 167.13C431.639 167.296 432.816 166.731 432.922 165.869C433.029 165.007 432.023 164.173 430.677 164.007Z" fill="#DDE2F9"/>
<path d="M427.695 188.207L343.58 177.841C342.234 177.676 341.056 178.24 340.95 179.102C340.844 179.964 341.849 180.798 343.196 180.964L427.31 191.329C428.656 191.495 429.834 190.93 429.94 190.068C430.047 189.206 429.041 188.372 427.695 188.207Z" fill="#DDE2F9"/>
<path d="M345.092 119.623L312.729 108L280.68 119.466C276.589 121.398 273 122.555 273 126.367V145.344C273 158.523 276.453 171.582 283.557 183.112C289.536 192.814 298.793 202.804 313.043 209.153C326.143 204.898 335.922 193.555 341.901 183.853C349.004 172.323 352.458 159.264 352.458 146.084V129.019C352.458 123.583 349.578 120.93 345.092 119.623Z" fill="#1886D9"/>
<path d="M313.043 209.153C298.793 202.804 289.536 192.814 283.557 183.112C276.453 171.582 273 158.523 273 145.344V126.367C273 124.321 274.244 122.906 275.917 121.807C277.246 120.987 278.916 120.299 280.68 119.466L312.729 108L312.734 116.95L286.794 126.65C283.181 128.335 281.362 131.161 281.362 134.176V147.488C281.362 157.914 284.093 168.247 289.715 177.369C294.445 185.046 301.768 193.117 313.043 198.14V209.153Z" fill="#115F9A"/>
<path d="M313.043 209.153V198.14C324.318 193.117 331.328 185.201 336.057 177.526C341.677 168.404 344.41 158.071 344.41 147.644V134.332C344.41 131.317 342.592 128.492 338.979 126.807L312.734 116.95L312.729 108L345.092 119.623C346.208 120.11 347.396 120.499 348.484 121.087C350.589 122.409 351.972 124.375 352.352 127.3C352.385 127.572 352.412 127.855 352.431 128.149C352.449 128.431 352.457 128.72 352.457 129.019V146.084C352.457 157.811 349.722 169.445 344.115 179.989C343.513 181.096 342.881 182.189 342.214 183.269C341.168 184.967 340.056 186.716 338.834 188.469C336.722 191.424 334.285 194.403 331.534 197.183C328.234 200.441 324.122 203.856 319.401 206.427C319.33 206.466 319.258 206.505 319.187 206.543C318.303 207.009 317.401 207.445 316.48 207.847C315.376 208.324 314.234 208.754 313.043 209.153Z" fill="#115F9A"/>
<path d="M320.885 171.123H305.201C302.605 171.123 300.5 169.017 300.5 166.422V151.315C300.5 148.954 302.241 147.005 304.509 146.67L304.546 144.061C304.546 139.44 308.315 135.671 312.947 135.671C317.581 135.671 321.35 139.44 321.35 144.072L321.315 146.634C323.71 146.851 325.587 148.862 325.587 151.315V166.422C325.587 169.017 323.482 171.123 320.885 171.123ZM313.043 155.074C311.662 155.074 310.543 156.194 310.543 157.576C310.543 158.473 311.017 159.258 311.727 159.699L311.086 162.662H315.189C315.189 162.662 314.727 160.801 314.438 159.651C315.105 159.204 315.545 158.44 315.545 157.576C315.545 156.194 314.425 155.074 313.043 155.074ZM312.947 137.481C309.313 137.481 306.356 140.438 306.356 144.072L306.32 146.612H319.505L319.54 144.061C319.54 140.438 316.583 137.481 312.947 137.481Z" fill="#FFB900"/>
<defs>
<filter id="filter0_d" x="320.229" y="59.2295" width="144.986" height="155.937" filterUnits="userSpaceOnUse" color-interpolation-filters="sRGB">
<feFlood flood-opacity="0" result="BackgroundImageFix"/>
<feColorMatrix in="SourceAlpha" type="matrix" values="0 0 0 0 0 0 0 0 0 0 0 0 0 0 0 0 0 0 127 0" result="hardAlpha"/>
<feOffset dy="4"/>
<feGaussianBlur stdDeviation="2"/>
<feComposite in2="hardAlpha" operator="out"/>
<feColorMatrix type="matrix" values="0 0 0 0 0.835833 0 0 0 0 0.838383 0 0 0 0 0.85 0 0 0 1 0"/>
<feBlend mode="normal" in2="BackgroundImageFix" result="effect1_dropShadow"/>
<feBlend mode="normal" in="SourceGraphic" in2="effect1_dropShadow" result="shape"/>
</filter>
</defs>
</svg>
