<svg width="26" height="26" viewBox="0 0 26 26" fill="none" xmlns="http://www.w3.org/2000/svg">
<path d="M0.878906 8.70479H25.0969C23.3343 3.72015 18.5845 0.147347 12.9974 0.143066H12.978C7.39095 0.147347 2.64091 3.72015 0.878906 8.70479Z" fill="#FF671F"/>
<path d="M25.0966 17.2666H0.878906C2.64233 22.2541 7.39637 25.8283 12.9877 25.8283C18.5791 25.8283 23.3332 22.2541 25.0966 17.2666Z" fill="#046A38"/>
<path d="M25.0959 17.2663C25.5694 15.927 25.8297 14.4869 25.8297 12.9854C25.8297 11.484 25.5697 10.0439 25.0959 8.70459H0.878271C0.404522 10.0439 0.144531 11.484 0.144531 12.9854C0.144531 14.4869 0.404808 15.9273 0.878271 17.2663H25.0959Z" fill="#F3F4F5"/>
<path d="M12.9854 9.41846C11.015 9.41846 9.41797 11.0155 9.41797 12.9858C9.41797 14.9562 11.015 16.5532 12.9854 16.5532C14.9557 16.5532 16.5527 14.9562 16.5527 12.9858C16.5527 11.0155 14.9557 9.41846 12.9854 9.41846ZM15.8064 11.6488C15.7291 11.683 15.6926 11.7724 15.7251 11.8511C15.7576 11.9296 15.8467 11.9673 15.9254 11.9367C15.9537 12.0158 15.9785 12.0963 16.0005 12.1782L14.1637 12.5595L13.5792 12.7938C13.569 12.7621 13.5561 12.7316 13.541 12.7022L14.1204 12.4544L15.6886 11.4256C15.7305 11.4981 15.7702 11.5726 15.8064 11.6488ZM14.7596 10.4182C14.7103 10.4864 14.7234 10.5817 14.7907 10.6334C14.8578 10.685 14.9534 10.673 15.0065 10.608C15.0707 10.6625 15.1332 10.7193 15.1928 10.7789C15.2525 10.8386 15.309 10.9011 15.3638 10.9653C15.2987 11.0184 15.2867 11.1137 15.3384 11.181C15.3901 11.2484 15.4854 11.2615 15.5536 11.2121C15.6015 11.2812 15.6463 11.3525 15.6886 11.4256L14.0133 12.2692L13.509 12.6471C13.4911 12.6191 13.4705 12.5931 13.4483 12.5686L13.944 12.179L15.1928 10.7789L13.7924 12.0275L13.4029 12.5232C13.3783 12.501 13.3521 12.4807 13.3244 12.4624L13.7023 11.9581L14.5459 10.2829C14.6189 10.3251 14.6903 10.3702 14.7596 10.4182ZM14.1201 10.2461C14.1985 10.2786 14.2882 10.2421 14.3224 10.1648C14.3989 10.201 14.4731 10.2407 14.5459 10.2829L13.517 11.8511L13.2693 12.4305C13.2399 12.4153 13.2094 12.4025 13.1777 12.3922L13.412 11.8077L13.7933 9.97097C13.8752 9.99266 13.9557 10.0178 14.0347 10.046C14.0042 10.1245 14.0416 10.2136 14.1201 10.2461ZM12.5984 10.0457C12.6823 10.0346 12.7413 9.95899 12.7328 9.87537C12.8161 9.8688 12.9003 9.86424 12.9854 9.86424C13.0704 9.86424 13.1546 9.86852 13.2379 9.87537C13.2294 9.95899 13.2884 10.0346 13.3723 10.0457C13.4562 10.0569 13.533 9.99866 13.5464 9.91561C13.6298 9.93073 13.7122 9.94928 13.793 9.97069L13.2048 11.7521L13.1155 12.3754C13.0835 12.3685 13.0504 12.3648 13.017 12.3631L13.0921 11.7373L12.9854 9.86424L12.8783 11.7375L12.9534 12.3634C12.9197 12.3651 12.8869 12.3688 12.8549 12.3757L12.7656 11.7524L12.1774 9.97097C12.2585 9.94957 12.3407 9.93102 12.424 9.91589C12.4374 9.99866 12.5142 10.0569 12.5984 10.0457ZM11.6483 10.1648C11.6825 10.2421 11.7722 10.2786 11.8506 10.2461C11.9291 10.2136 11.9668 10.1245 11.9363 10.0457C12.0153 10.0175 12.0958 9.99266 12.1777 9.97069L12.559 11.8075L12.7933 12.3919C12.7616 12.4022 12.7311 12.4151 12.7017 12.4302L12.454 11.8508L11.4251 10.2826C11.4976 10.2407 11.5721 10.201 11.6483 10.1648ZM10.4177 11.2116C10.4859 11.2609 10.5812 11.2478 10.6329 11.1805C10.6845 11.1134 10.6725 11.0178 10.6075 10.9647C10.662 10.9005 10.7188 10.838 10.7784 10.7783C10.8381 10.7187 10.9006 10.6622 10.9648 10.6074C11.0179 10.6725 11.1132 10.6845 11.1805 10.6328C11.2479 10.5811 11.261 10.4858 11.2116 10.4176C11.2807 10.3697 11.3521 10.3249 11.4251 10.2826L12.2687 11.9579L12.6466 12.4621C12.6186 12.4801 12.5927 12.5007 12.5681 12.5229L12.1786 12.0272L10.7784 10.7783L12.027 12.1788L12.5227 12.5683C12.5005 12.5929 12.4802 12.6191 12.4619 12.6468L11.9577 12.2689L10.2824 11.4253C10.3247 11.3523 10.3697 11.2809 10.4177 11.2116ZM10.1651 14.3226C10.2419 14.2884 10.2781 14.199 10.2456 14.1208C10.2131 14.0424 10.1243 14.005 10.0455 14.0352C9.98932 13.878 9.94537 13.715 9.91483 13.5472C9.99817 13.5341 10.0564 13.457 10.0453 13.3731C10.0341 13.2892 9.95821 13.2298 9.87431 13.2387C9.86746 13.1554 9.86375 13.0712 9.86375 12.9861C9.86375 12.9011 9.86746 12.8169 9.87431 12.7336C9.95821 12.7424 10.0341 12.683 10.0453 12.5991C10.0564 12.5149 9.99817 12.4382 9.91483 12.425C9.94537 12.2572 9.98932 12.0943 10.0455 11.937C10.1243 11.9673 10.2131 11.9296 10.2456 11.8514C10.2781 11.7732 10.2419 11.6839 10.1651 11.6496C10.2014 11.5734 10.2405 11.4984 10.2824 11.4259L11.8506 12.4547L12.43 12.7024C12.4149 12.7318 12.402 12.7624 12.3917 12.7941L11.8073 12.5598L9.97049 12.1785L11.7519 12.7667L12.3752 12.856C12.3683 12.888 12.3646 12.9211 12.3629 12.9544L11.7371 12.8794L9.86403 12.9858L11.7371 13.0929L12.3629 13.0178C12.3646 13.0515 12.3683 13.0843 12.3752 13.1163L11.7519 13.2056L9.97049 13.7938L11.8073 13.4125L12.3917 13.1782C12.402 13.2099 12.4149 13.2404 12.43 13.2698L11.8506 13.5175L10.2824 14.5464C10.2402 14.4736 10.2014 14.3988 10.1651 14.3226ZM11.2111 15.5535C11.2605 15.4853 11.2473 15.39 11.18 15.3383C11.1129 15.2867 11.0173 15.2986 10.9642 15.3637C10.9 15.3092 10.8375 15.2524 10.7779 15.1928C10.7182 15.1331 10.6617 15.0706 10.6069 15.0064C10.672 14.9533 10.684 14.858 10.6323 14.7907C10.5807 14.7233 10.4853 14.7102 10.4171 14.7595C10.3692 14.6905 10.3244 14.6191 10.2821 14.5461L11.9574 13.7025L12.4617 13.3246C12.4796 13.3526 12.5002 13.3785 12.5224 13.4031L12.0267 13.7926L10.7779 15.1928L12.1783 13.9442L12.5678 13.4485C12.5924 13.4707 12.6186 13.491 12.6463 13.5092L12.2684 14.0135L11.4248 15.6888C11.3518 15.6465 11.2804 15.6014 11.2111 15.5535ZM13.3723 15.9259C13.2884 15.9371 13.2294 16.0127 13.2379 16.0963C13.1546 16.1029 13.0704 16.1074 12.9854 16.1074C12.9003 16.1074 12.8161 16.1032 12.7328 16.0963C12.7413 16.0127 12.6823 15.9371 12.5984 15.9259C12.5145 15.9148 12.4377 15.973 12.4243 16.0561C12.2565 16.0255 12.0935 15.9822 11.9363 15.9259C11.9668 15.8472 11.9291 15.7578 11.8506 15.7256C11.7722 15.6931 11.6825 15.7296 11.6483 15.8069C11.5718 15.7707 11.4976 15.731 11.4248 15.6888L12.4537 14.1206L12.7014 13.5412C12.7308 13.5563 12.7613 13.5692 12.793 13.5795L12.5587 14.1639L12.1774 16.0007L12.7656 14.2193L12.8549 13.596C12.8869 13.6029 12.92 13.6066 12.9534 13.6083L12.8783 14.2341L12.9854 16.1074L13.0924 14.2347L13.0173 13.6088C13.051 13.6071 13.0838 13.6034 13.1158 13.5966L13.2051 14.2199L13.7933 16.0013C13.7122 16.0227 13.63 16.0412 13.5467 16.0564C13.5333 15.973 13.4565 15.9148 13.3723 15.9259ZM14.3224 15.8069C14.2882 15.7296 14.1985 15.6931 14.1201 15.7256C14.0416 15.7581 14.0039 15.8472 14.0344 15.9259C13.9554 15.9542 13.8749 15.979 13.793 16.001L13.4117 14.1642L13.1774 13.5797C13.2091 13.5695 13.2396 13.5566 13.269 13.5415L13.5167 14.1208L14.5456 15.6891C14.4731 15.731 14.3986 15.7707 14.3224 15.8069ZM15.553 14.7601C15.4848 14.7107 15.3895 14.7239 15.3378 14.7912C15.2862 14.8583 15.2982 14.9539 15.3632 15.007C15.3087 15.0712 15.2519 15.1337 15.1923 15.1933C15.1326 15.253 15.0701 15.3095 15.0059 15.3643C14.9528 15.2992 14.8575 15.2872 14.7902 15.3389C14.7228 15.3905 14.7097 15.4859 14.7591 15.5541C14.69 15.602 14.6186 15.6468 14.5456 15.6891L13.702 14.0138L13.3241 13.5095C13.3521 13.4916 13.378 13.471 13.4026 13.4487L13.7922 13.9445L15.1923 15.1933L13.9437 13.7929L13.448 13.4034C13.4702 13.3788 13.4905 13.3526 13.5088 13.3249L14.013 13.7027L15.6883 14.5464C15.646 14.6194 15.601 14.6908 15.553 14.7601ZM15.7251 14.1206C15.6926 14.199 15.7291 14.2886 15.8064 14.3229C15.7702 14.3994 15.7305 14.4736 15.6883 14.5464L14.1201 13.5175L13.5407 13.2698C13.5558 13.2404 13.5687 13.2099 13.579 13.1782L14.1634 13.4125L16.0002 13.7938C15.9785 13.8757 15.9534 13.9562 15.9252 14.0352C15.8467 14.0047 15.7576 14.0421 15.7251 14.1206ZM15.9254 13.3728C15.9143 13.4567 15.9725 13.5335 16.0556 13.5469C16.0405 13.6303 16.0219 13.7127 16.0005 13.7935L14.2191 13.2053L13.5958 13.116C13.6027 13.084 13.6064 13.0509 13.6081 13.0175L14.2339 13.0926L16.107 12.9858L14.2342 12.8788L13.6084 12.9539C13.6066 12.9202 13.6029 12.8874 13.5961 12.8554L14.2194 12.7661L16.0008 12.1779C16.0222 12.2589 16.0407 12.3411 16.0559 12.4245C15.9728 12.4379 15.9146 12.5147 15.9257 12.5986C15.9369 12.6825 16.0125 12.7415 16.0961 12.733C16.1027 12.8163 16.1072 12.9005 16.1072 12.9856C16.1072 13.0706 16.103 13.1548 16.0961 13.2381C16.0122 13.2298 15.9363 13.2889 15.9254 13.3728Z" fill="#000088"/>
</svg>
