<svg width="26" height="26" viewBox="0 0 26 26" fill="none" xmlns="http://www.w3.org/2000/svg">
<path d="M25.5233 16.4736C25.5332 16.4381 25.5453 16.4034 25.5548 16.3676L25.5537 16.367C25.8431 15.2906 26 14.1599 26 12.9919C26 11.8268 25.844 10.6987 25.5557 9.62433L25.5568 9.62375C25.5456 9.58158 25.5314 9.54027 25.5199 9.49838C25.4803 9.35624 25.439 9.21469 25.3945 9.07429C25.3711 9.00004 25.3462 8.92638 25.3214 8.85242C25.3003 8.78973 25.2812 8.72618 25.2593 8.66378H25.255C24.7797 7.31958 24.0933 6.07533 23.2298 4.97524L17.3325 7.92422V0.734355C16.0706 0.288311 14.7192 0.0332222 13.3126 0H12.6874C11.2811 0.0332222 9.92998 0.288311 8.66811 0.734067V7.92422L2.77016 4.97496C1.90667 6.07533 1.21998 7.31958 0.745044 8.66378H0.740711C0.718756 8.72618 0.6994 8.78973 0.678311 8.85242C0.653467 8.92609 0.628622 8.99947 0.605222 9.07342C0.560733 9.21382 0.519422 9.35567 0.479844 9.49809C0.468289 9.53998 0.454133 9.581 0.442867 9.62289L0.444022 9.62347C0.156 10.6984 0 11.8265 0 12.9919C0 14.1599 0.156867 15.2906 0.446333 16.3673L0.445178 16.3679C0.454711 16.4034 0.466556 16.4378 0.476378 16.4733C0.518556 16.6247 0.562467 16.7755 0.609844 16.9246C0.631511 16.9927 0.654333 17.0603 0.677156 17.1282C0.6994 17.195 0.719911 17.2623 0.743311 17.3284H0.748222C1.22402 18.672 1.911 19.9154 2.77507 21.0149L8.6684 18.0683V25.25C10.0236 25.7287 11.4807 25.9919 13 25.9919C14.5196 25.9919 15.977 25.7287 17.3325 25.2495V18.0683L23.2252 21.0146C24.0893 19.9151 24.776 18.6718 25.2518 17.3284H25.2561C25.2795 17.2623 25.3 17.1947 25.3226 17.1279C25.3454 17.0603 25.3682 16.9927 25.3899 16.9246C25.4372 16.7752 25.4814 16.6247 25.5233 16.4736Z" fill="#F3F4F5"/>
<path d="M15.5997 0.252489C14.8587 0.101978 14.0937 0.0184889 13.3126 0H12.6874C11.9066 0.0184889 11.1419 0.102267 10.4012 0.252489V10.3971H0.259711C0.0898444 11.2355 0 12.1033 0 12.9919C0 13.8837 0.0901333 14.7541 0.261156 15.5954H10.4012V25.7316C11.241 25.9021 12.1099 25.9919 13 25.9919C13.8904 25.9919 14.7596 25.9021 15.5997 25.7313V15.5954H25.7388C25.9099 14.7541 26 13.8837 26 12.9919C26 12.1033 25.9102 11.2355 25.7403 10.3968H15.5997V0.252489Z" fill="#CC0000"/>
<path d="M24.6249 18.8087C24.8644 18.3311 25.0756 17.8371 25.2558 17.3281H21.6641L24.6249 18.8087Z" fill="#CC0000"/>
<path d="M23.7503 5.68311L17.7891 8.66386H21.6636L24.6279 7.18157C24.3676 6.66157 24.0753 6.16064 23.7503 5.68311Z" fill="#CC0000"/>
<path d="M1.37254 7.18164C1.13305 7.65975 0.922165 8.15462 0.742188 8.66422H4.33741L1.37254 7.18164Z" fill="#CC0000"/>
<path d="M2.2538 20.3069L8.21127 17.3281H4.33669L1.375 18.809C1.63587 19.329 1.92851 19.8299 2.2538 20.3069Z" fill="#CC0000"/>
<path d="M2.76953 4.97484L8.66749 7.92382V6.77115V0.738281C6.31853 1.56855 4.27869 3.05199 2.76953 4.97484Z" fill="#000066"/>
<path d="M17.332 0.73877V7.18157V7.92401L23.2294 4.97533C21.7205 3.05248 19.681 1.56904 17.332 0.73877Z" fill="#000066"/>
<path d="M8.66677 21.0144V18.0684L2.77344 21.015C4.28202 22.935 6.31984 24.4164 8.66677 25.2461V21.0144Z" fill="#000066"/>
<path d="M17.332 18.0684V20.7539V25.2455C19.6787 24.4158 21.7162 22.9344 23.2248 21.0144L17.332 18.0684Z" fill="#000066"/>
</svg>
