<?xml version="1.0" encoding="utf-8"?>
<!-- Generator: Adobe Illustrator 27.2.0, SVG Export Plug-In . SVG Version: 6.00 Build 0)  -->
<svg version="1.1" id="Layer_1" xmlns="http://www.w3.org/2000/svg" xmlns:xlink="http://www.w3.org/1999/xlink" x="0px" y="0px"
	 viewBox="0 0 158 58" style="enable-background:new 0 0 158 58;" xml:space="preserve">
<style type="text/css">
	.st0{clip-path:url(#SVGID_00000117657665129383119720000013144387751277988225_);}
	.st1{fill:#FFFFFF;}
</style>
<g>
	<defs>
		<rect id="SVGID_1_" width="158" height="58"/>
	</defs>
	<clipPath id="SVGID_00000072968053425451519920000001284077011884025482_">
		<use xlink:href="#SVGID_1_"  style="overflow:visible;"/>
	</clipPath>
	<g style="clip-path:url(#SVGID_00000072968053425451519920000001284077011884025482_);">
		<path class="st1" d="M89.1,51.4l0.4-0.6c0.3-0.4,0.3-0.6,0.3-1.2V38.9h-4.1l0.3,0.6v13.8h12.3V51l-0.5,0.3L89.1,51.4L89.1,51.4z"
			/>
		<path class="st1" d="M157.5,52.2c-1-1.6-2.3-3.5-3.1-4.6c2-0.8,3-2.1,3-3.9c0-3.1-2.3-4.8-6.1-4.8h-7.7l0.3,0.6v13.8h3.8v-5h3.1
			c0.8,1.3,1.8,3,2.5,4.2c0.9,1.6,1.6,1.7,4.8,0L157.5,52.2L157.5,52.2z M149.9,46.2h-2.3v-3.5c0-0.6-0.1-0.9-0.3-1.2l-0.4-0.6h2.6
			c2.8,0,3.9,0.8,3.9,2.7C153.4,45.2,152.5,46.2,149.9,46.2"/>
		<path class="st1" d="M100.5,39.5v13.8h3.8v-5.8h3.9c1.1,0,1.1-0.3,1.4-2l-0.5,0.1l-4.8,0.1v-3.1c0-0.6-0.1-0.9-0.3-1.2l-0.4-0.6
			h8.4l0.5,0.3v-2.3h-12.3L100.5,39.5L100.5,39.5z"/>
		<path class="st1" d="M80.8,39.5v8c0,2.8-1.1,4-4.1,4c-3.2,0-4.2-1.3-4.2-4.2v-8.4h-4.1l0.3,0.6v8.6c0,3.7,2.8,5.4,7.4,5.4
			c5.3,0,6.7-2.6,6.7-6l0-8.6h-2.4L80.8,39.5L80.8,39.5z"/>
		<path class="st1" d="M136.8,39.5v13.8h3.8V38.9h-4.1L136.8,39.5z"/>
		<path class="st1" d="M128.5,39.5c-0.7-1.5-1.4-1.6-4.5-0.2l0.4,0.3l0.3,0.7l-6,13.1h2.3l1.7-3.8h6.2l1.2,2.6
			c0.8,1.7,1.5,2,4.9,0.4l-0.5-0.4L128.5,39.5L128.5,39.5z M123.5,47.6l2.2-4.9l2.2,4.9H123.5z"/>
		<path class="st1" d="M61.9,47v2.1c0,0.6,0.1,0.9,0.3,1.2l0.2,0.3c-1,0.4-2,0.6-3.1,0.6c-3.1,0-5.6-2.1-5.6-6.2
			c0-2.8,1.2-4.3,4.1-4.3c2.6,0,4.7,0.5,7.3,1.3l0.1-2.6c-1.1-0.4-4.6-0.9-6.3-0.9c-5.6,0-9.6,2.1-9.6,7.5c0,5.3,4.3,7.3,9.3,7.3
			c2.7,0,6-1,7-1.5v-5.7l-4.2,0L61.9,47L61.9,47z"/>
		<path class="st1" d="M129.6,20.2c0.2-0.5,0.4-0.9,0.6-1.3c-0.3-0.2-0.7-0.4-1.5-0.8l0,0.3c-0.2,0.5-0.4,0.9-0.6,1.3
			c0.4,0.3,0.9,0.6,1.5,0.8L129.6,20.2L129.6,20.2z"/>
		<path class="st1" d="M109.7,20.5c0.2-0.5,0.4-0.9,0.6-1.3c-0.3-0.2-0.7-0.4-1.5-0.8l0,0.3c-0.2,0.5-0.4,0.9-0.6,1.3
			c0.4,0.3,0.9,0.6,1.5,0.8L109.7,20.5L109.7,20.5z"/>
		<path class="st1" d="M144.4,27.3c0.8,0,1.2-0.4,1.6-1.1c0.4,0.9,0.7,1.1,1.6,1.1h6.7c2,0,3.2-1.9,3.2-3.6c0-1.7-1.3-2.9-2.6-2.9
			c-1.3,0-2.2,0.7-3.2,1.8c0.1-0.2,0.1-0.4,0.1-0.8l0.3-4.7l0.2-0.4l-1.8,0.8c-0.5,0.2-0.5,0.4-0.5,0.9l0.5,5.5l-0.9,1.3
			c-0.5,0-1.4,0-1.9,0h0c-1.2,0-1-0.8-0.9-1.3l0.2-1l-0.7-0.2c-0.7,1.6-1.1,2.5-2.3,2.5h-0.9c-0.9,0-1.3-0.6-2.3-2.2l-0.1-0.3
			l-1.4,1.1c0.7,0.8,1.6,1.9,2,2.5c-1.2,2.2-4.2,3.6-5.7,3.6l1.5,1.4c0.3,0.3,0.6,0.4,0.9,0.4c1.1,0,3.7-2.2,4.2-4.9
			c0.4,0.4,0.8,0.4,1.4,0.4L144.4,27.3L144.4,27.3z M154.4,23c0.7,0,1.6,0.5,1.8,1.5c-0.2,0.6-1.1,0.8-2,0.9c-0.9,0-1.6,0.1-3.5,0.1
			C151.9,24.1,153.2,23,154.4,23z"/>
		<path class="st1" d="M146.7,28.7L146.7,28.7l0,0.3c-0.2,0.5-0.4,0.9-0.6,1.3c0.4,0.3,0.9,0.6,1.5,0.8h0l0-0.3
			c0.2-0.5,0.4-0.9,0.6-1.3C147.9,29.3,147.5,29.1,146.7,28.7L146.7,28.7z"/>
		<path class="st1" d="M115.4,18.5c0,0.3,0.8,4.8,1,6.5c-0.3,0.3-0.6,0.3-1.1,0.3l-1.8,0c-0.9,0-1.4,0.1-1.8-0.9
			c0.2-0.1,0.3-0.1,0.5-0.1h0.5l0.8-1.8h-1.3c-1.5,0-2.6-1.1-4.5-1.1c-0.4,0-0.6,0-1,0.1l-1.2,2.1l0.8-0.4c0.2,0,0.3,0,0.6,0
			c1.8,0,2.8,0.6,3.4,0.8c-0.5,0.4-0.9,0.7-1.4,1c-0.7,0.4-2,0.3-3.8,0.3c-0.7,0-1,0-1.3-0.2c0-0.2,0.1-0.4,0.1-0.6l0.2-7.3l0.2-0.4
			l-1.7,0.8c-0.5,0.2-0.5,0.4-0.5,0.8c0,0.3,0.7,4.9,0.9,6.6c-0.3,0.3-0.5,0.3-1.1,0.3l-1.6,0c-1.1,0-1.2-0.5-0.6-2.3l-0.7-0.2
			c-1,2.1-1.2,2.5-2.4,2.5h-2.2c-0.6,0-1.1-0.1-1.4-0.8h0.8l0.8-1.8h-1.4c-1.4,0-3.8-1.1-5.3-1.1c-0.2,0-0.4,0-0.7,0.1L86,23.8
			l0.8-0.4c0.2,0,0.3,0,0.6,0c0.9,0,1.7,0.1,2.3,0.3c-2.4,1.1-3.9,3.4-3.9,5.9c0,3,2.5,4.5,4.8,4.5c1.2,0,2.4-0.4,2.7-0.8
			c0.2-0.3,0.5-0.7,1.1-1.7c-0.7,0.4-2.4,0.6-3.2,0.6c-2.1,0-4.3-0.8-4.4-3.4c0.3-2.1,2.9-3.9,5.5-4.2c0.8,2.7,1.4,2.8,2.5,2.8H97
			c0.8,0,1.2-0.5,1.6-1.3c0.4,0.9,0.7,1.3,1.5,1.3h1.9c0.4,0,0.6-0.1,0.8-0.2c0.2-0.2,0.4-0.5,0.6-0.9c0.6,1,1.1,1.1,2,1.1h2
			c0.8,0,1.4-0.2,2.3-1.1c0.6-0.6,1-1.1,1.4-1.3c0.6,1.8,0.9,2.5,1.9,2.5h2.5c0.4,0,0.6-0.1,0.8-0.2c0.4-0.4,1.1-1.4,1.1-2.5
			l0.1-7.3l0.2-0.4l-1.7,0.8C115.5,18,115.4,18.2,115.4,18.5"/>
		<path class="st1" d="M89.2,29.1c0.4,0.3,0.9,0.6,1.5,0.8l0-0.3c0.2-0.5,0.4-0.9,0.6-1.3c-0.3-0.2-0.7-0.4-1.5-0.8l0,0.3
			C89.6,28.2,89.4,28.7,89.2,29.1z"/>
		<path class="st1" d="M128.9,28.7c3,0,4.3-1.7,4.5-3.6c0.1-1-0.2-2.8-0.6-4.2l0.1-0.4l-1.4,0.9c-0.5,0.3-0.5,0.4-0.5,0.5
			c0,0.4,0.8,1.6,1.4,3.4c-0.6,0.7-2,1.3-3.5,1.3c-1.3,0-2.5-0.5-2.5-1.7c0-0.6,0.1-1.4,0.5-2.3l-0.7-0.3c-0.7,1.2-1,2.2-1,3
			C125.3,27.3,126.4,28.7,128.9,28.7"/>
		<path class="st1" d="M98.7,29c-0.2,0.5-0.4,0.9-0.6,1.3c0.4,0.3,0.9,0.6,1.5,0.8l0-0.3c0.2-0.5,0.4-0.9,0.6-1.3
			c-0.3-0.2-0.7-0.4-1.5-0.8L98.7,29L98.7,29z"/>
		<path class="st1" d="M144.4,28.4L144.4,28.4l0,0.3c-0.2,0.5-0.4,0.9-0.6,1.3c0.4,0.3,0.9,0.6,1.5,0.8h0l0-0.3
			c0.2-0.5,0.4-0.9,0.6-1.3C145.6,29.1,145.2,28.8,144.4,28.4L144.4,28.4z"/>
		<path class="st1" d="M120,26.9l-0.1,0.7c0.8-0.9,1-1.1,1.1-2.1l0.2-8.1l0.2-0.4l-1.8,0.8c-0.5,0.2-0.6,0.4-0.5,0.9L120,26.9
			L120,26.9z"/>
		<path class="st1" d="M135.9,27.6c0.8-0.9,1-1.1,1.1-2.1l0.2-8.1l0.2-0.4l-1.8,0.8c-0.5,0.2-0.6,0.4-0.5,0.9l0.9,8.2L135.9,27.6
			L135.9,27.6z"/>
		<path class="st1" d="M97.9,29.3c-0.3-0.2-0.7-0.4-1.5-0.8l0,0.3c-0.2,0.5-0.4,0.9-0.6,1.3c0.4,0.3,0.9,0.6,1.5,0.8l0-0.3
			C97.5,30.1,97.7,29.7,97.9,29.3z"/>
		<path class="st1" d="M39.1,24.6c7.4-3,11.4-6.4,11.5-11.8c0-1.1-0.2-2.3-0.6-3.6c-0.1,1.7-2.4,3.8-5.6,5.9c-4,2.6-9.7,5.9-13.6,8
			c-6.3,3.5-7.7,7.2-8.2,9.7C24.1,31.1,32.7,27.2,39.1,24.6 M49.7,10.8l0.3,0.3c0,0.1,0,0.2,0,0.2L49.6,11
			C49.6,10.9,49.7,10.8,49.7,10.8 M49.2,11.5l0.7,0.7c0,0.1,0,0.1-0.1,0.2l-0.7-0.7C49.1,11.6,49.2,11.6,49.2,11.5 M48.6,12.2
			l0.9,0.9c0,0.1,0,0.1-0.1,0.2l-1-1C48.5,12.2,48.6,12.2,48.6,12.2z M48,12.8l1.1,1.1c0,0.1-0.1,0.1-0.1,0.2l-1.2-1.2
			C47.9,12.8,48,12.8,48,12.8 M47.4,13.3l1.3,1.3c0,0-0.1,0.1-0.1,0.1l-1.3-1.3C47.3,13.4,47.3,13.4,47.4,13.3 M46.7,13.9l1.4,1.4
			c0,0-0.1,0.1-0.1,0.1L46.5,14C46.6,14,46.6,13.9,46.7,13.9z M46,14.4l1.6,1.6c0,0-0.1,0.1-0.1,0.1l-1.6-1.6
			C45.9,14.5,45.9,14.4,46,14.4 M45.3,14.9l1.7,1.7c0,0-0.1,0.1-0.1,0.1L45.1,15C45.2,15,45.2,15,45.3,14.9z M44.5,15.4l1.8,1.8
			c0,0-0.1,0.1-0.1,0.1l-1.8-1.8C44.4,15.5,44.5,15.4,44.5,15.4 M43.8,15.9l1.8,1.9c0,0-0.1,0.1-0.1,0.1L43.6,16
			C43.7,16,43.8,15.9,43.8,15.9 M43.1,16.4l1.9,1.9c0,0-0.1,0.1-0.1,0.1l-1.9-1.9C43,16.4,43,16.4,43.1,16.4 M42.3,16.8l1.9,2
			c0,0-0.1,0.1-0.1,0.1l-2-2C42.2,16.9,42.2,16.9,42.3,16.8 M41.5,17.3l2,2c0,0-0.1,0.1-0.2,0.1l-2-2C41.4,17.3,41.5,17.3,41.5,17.3
			z M40.8,17.8l2,2l-0.2,0.1l-2-2C40.7,17.8,40.7,17.8,40.8,17.8 M40,18.2l2,2c-0.1,0-0.1,0.1-0.2,0.1l-2-2
			C39.9,18.3,40,18.2,40,18.2z M39.3,18.7l2,2c-0.1,0-0.1,0.1-0.2,0.1l-2-2C39.2,18.7,39.2,18.7,39.3,18.7 M38.5,19.1l2,2
			c-0.1,0-0.1,0.1-0.2,0.1l-2-2C38.4,19.2,38.4,19.1,38.5,19.1 M37.7,19.6l1.9,2c-0.1,0-0.1,0.1-0.2,0.1l-1.9-2
			C37.6,19.6,37.7,19.6,37.7,19.6 M37,20l1.9,1.9c-0.1,0-0.1,0.1-0.2,0.1l-1.9-1.9C36.8,20.1,36.9,20,37,20 M36.2,20.5l1.9,1.9
			c-0.1,0-0.1,0.1-0.2,0.1L36,20.6C36.1,20.5,36.1,20.5,36.2,20.5 M35.4,20.9l1.8,1.8c-0.1,0-0.1,0.1-0.2,0.1L35.2,21
			C35.3,21,35.3,20.9,35.4,20.9 M34.6,21.3l1.8,1.8c-0.1,0-0.1,0.1-0.2,0.1l-1.7-1.8C34.5,21.4,34.6,21.4,34.6,21.3z M33.8,21.8
			l1.7,1.7c-0.1,0-0.1,0.1-0.2,0.1l-1.7-1.7C33.7,21.8,33.8,21.8,33.8,21.8 M33.1,22.2l1.6,1.6c-0.1,0-0.1,0.1-0.2,0.1l-1.6-1.6
			C32.9,22.3,33,22.3,33.1,22.2z M32.3,22.7l1.6,1.6c-0.1,0-0.1,0.1-0.2,0.1l-1.6-1.6C32.2,22.7,32.2,22.7,32.3,22.7z M31.5,23.1
			l1.5,1.6c-0.1,0-0.1,0.1-0.2,0.1l-1.5-1.6C31.4,23.2,31.4,23.1,31.5,23.1z M30.7,23.5l1.5,1.5c-0.1,0-0.1,0.1-0.2,0.1l-1.5-1.5
			C30.6,23.6,30.7,23.6,30.7,23.5 M29.9,24l1.5,1.5c-0.1,0-0.1,0.1-0.2,0.1l-1.5-1.5C29.8,24,29.9,24,29.9,24 M29.2,24.5l1.5,1.5
			c-0.1,0-0.1,0.1-0.2,0.1L29,24.6C29.1,24.5,29.1,24.5,29.2,24.5 M28.5,25l1.4,1.4c-0.1,0-0.1,0.1-0.2,0.1l-1.4-1.4
			C28.4,25,28.4,25,28.5,25 M27.8,25.5l1.4,1.4C29.1,26.9,29,27,29,27l-1.4-1.4C27.7,25.6,27.7,25.5,27.8,25.5z M27.1,26l1.3,1.3
			c0,0-0.1,0.1-0.2,0.1L27,26.2C27,26.1,27,26.1,27.1,26 M26.4,26.6l1.2,1.3c0,0-0.1,0.1-0.1,0.1l-1.2-1.2
			C26.4,26.7,26.4,26.7,26.4,26.6z M25.8,27.2l1.1,1.2c0,0-0.1,0.1-0.1,0.1l-1.1-1.1C25.8,27.3,25.8,27.3,25.8,27.2 M25.3,27.9l1,1
			c0,0-0.1,0.1-0.1,0.1l-1-1C25.2,28,25.2,27.9,25.3,27.9z M24.7,28.6l0.9,0.9c0,0-0.1,0.1-0.1,0.1l-0.8-0.9
			C24.7,28.7,24.7,28.6,24.7,28.6 M24.3,29.3L25,30c0,0-0.1,0.1-0.1,0.1l-0.7-0.7C24.2,29.4,24.2,29.4,24.3,29.3 M23.8,30.1l0.5,0.5
			c0,0-0.1,0.1-0.1,0.1l-0.5-0.5C23.8,30.2,23.8,30.2,23.8,30.1z M23.5,31l0.3,0.3c0,0-0.1,0.1-0.1,0.1l-0.2-0.2
			C23.4,31.1,23.4,31,23.5,31"/>
		<path class="st1" d="M36.3,52c-0.9-0.5-4.1-2.3-4.1-2.3l3.3,0.7c1.5,0.3,2.4,0.8,2.3,1.2c0.1-0.2,0.1-0.5,0.1-0.6
			c0-3.7-5.7-3.5-5.7-3.5l1.3-0.3c1.5-0.3,2.4-0.2,2.5,0.1c0-0.2,0-0.5-0.1-0.6c-0.4-1.4-1.3-1.9-4.1-2.6l-3.9-0.9
			c1.2,1.3,1.7,4.8,0.3,6.4c0-0.4-0.2-0.7-0.4-0.9c-0.2,0.9-0.8,2.1-2,1.9c0-0.1,0.1-0.3-0.2-0.6c-0.7-0.7-3-2.7-3.8-3.5
			c0,0.3-0.1,0.4-0.2,0.8c-0.2,0.9-0.9,1.3-1.5,1.3c-0.6,0-1.1-0.6-1.3-0.8c0.4,0.3,1.1,0.4,1.2,0.4c0-0.2,0.2-0.4,0.3-0.5
			c0.2-0.2,0.5-0.3,0.6-0.7c0.1-0.5-0.3-0.7-0.6-0.7c-0.6,0.1-1.4,0.3-1.5,0.3c-0.2,0-0.3,0-0.4-0.1c-0.1-0.1-0.2-0.1-0.3-0.1
			c-0.4,0-0.5,0.4-0.5,0.4c-0.1-0.6,0.2-1,0.7-1.1c0.1,0,2.3-0.1,2.9-0.1c0.4,0,0.7,0,1,0.2c0.5,0.4,1.7,1.2,1.9,1.4
			c0.5-1,0.3-3-0.2-3.4c-3.6-0.7-7.6-0.1-10-1.4c-0.3,0.2-1.3,0.7-1.6,0.8c-0.2,0.1-0.4,0.2-0.5,0.2c-0.1,0-0.2,0.1-0.2,0.1
			c0.1,0,0.8,0.5,1.7-0.5c0,0,1.7,0.9,2.8,1.2c-0.3,0.9-2.6,2.7-4.1,4.1c-2.4,2.3-5,8.7-7.3,9.5c0.4,0.1,0.8,0.1,1,0.1
			c3.1,0,4.7-2.9,5.2-3.7c-0.9,2.2-1.7,3.4-2.2,3.3c0.5,0.2,1.1,0.2,1.6,0.2c2.1,0,3.6-1.3,3.6-1.3l-1.8-1c0,0,2.3,1,4.3,1
			c2,0,2.4-0.8,2.4-0.8l-2.3-1.3c0.4,0.2,1.7,0.7,2.8,0.8c2.9,0,4.3-2.7,4.5-4.2c-0.2,0.3-1,1.6-2.2,1.5c0.1-0.2,0.2-0.5,0-0.7
			c0,0,0,0-0.1,0c-0.2-0.1-1.6-1.6-2.6-2.4c-0.1,0.3-0.1,0.4-0.2,0.8c-0.2,0.8-0.8,1.1-1.3,1c-0.7,0-1.1-0.6-1.2-0.8
			c0.3,0.3,0.6,0.5,0.8,0.5c0.2-0.2,0.3-0.3,0.5-0.4c0.1,0,0.3-0.1,0.4-0.2c0,0,0.5-0.5,0.5-1c0-0.3-0.1-0.4-0.3-0.5
			c-0.3-0.2-0.6-0.2-1-0.2c-0.6,0-0.8,0-1-0.2c-0.1-0.1-0.2-0.2-0.3-0.2c-0.3,0-0.4,0.2-0.4,0.2c0-0.5,0.3-0.7,0.7-0.7
			c0.1,0,0.1,0,0.2,0c0.2,0.1,2.2,0.6,2.6,0.8c0.2,0.1,2.4,1.9,2.4,1.9c0.4-0.3,0.8-1.5,0.8-2.1c0.2-0.1,0.5,0,0.9,0.3
			c0.4,0.3,1.8,1.6,1.9,1.7c-0.3,2.1,1,6.3,3.1,6.3c0.3,0,0.5-0.1,0.6-0.1c-0.2-0.1-0.3-0.3-0.4-0.6l-0.3-1.5c0,0,0.4,0.6,2.1,2.4
			c0.9,1,1.7,1.2,2.2,1.2c0.6,0,0.9-0.2,1-0.3c-0.3,0-0.5-0.2-0.9-0.8l-1.6-2.1c2.5,2.3,4.2,2.8,5.3,2.8c0.9,0,1.3-0.3,1.3-0.3
			l-5.2-4.7l6.2,3.5C38.8,53.9,37.2,52.5,36.3,52 M37.7,50.6l-0.2,0.2c-0.1,0-0.1-0.1-0.2-0.1l0.3-0.3
			C37.6,50.4,37.7,50.5,37.7,50.6z M37.3,49.6c0,0.1,0.1,0.1,0.1,0.2l-0.7,0.7c0,0,0,0,0,0c0,0,0-0.1,0-0.1L37.3,49.6z M35.9,51.5
			C35.9,51.5,35.9,51.6,35.9,51.5l-0.6,0.7c0,0-0.1-0.1-0.1-0.1L35.9,51.5C35.8,51.5,35.9,51.5,35.9,51.5 M35.2,51
			c0.1,0,0.1,0.1,0.2,0.1l-0.5,0.5c0,0-0.1-0.1-0.1-0.1L35.2,51L35.2,51z M35.2,51.2c0.1,0,0.1,0,0.2,0.1l-0.4,0.4
			c0,0-0.1-0.1-0.2-0.1L35.2,51.2L35.2,51.2z M34.4,50.9c0.1,0,0.1,0,0.2,0l-0.3,0.3c-0.1,0-0.1-0.1-0.2-0.1L34.4,50.9L34.4,50.9z
			 M33.5,50.8c0.1,0,0.1,0,0.2,0L33.6,51c-0.1,0-0.1,0-0.2-0.1L33.5,50.8L33.5,50.8z M35.2,49.1c0,0.1,0.1,0.1,0.1,0.2l-0.4,0.4
			c-0.1,0-0.2,0-0.3,0L35.2,49.1z M34.8,48.6l-0.7,0.7c0-0.1-0.1-0.1-0.1-0.2l0.7-0.7C34.8,48.5,34.8,48.6,34.8,48.6 M34.1,48.1
			c0.1,0,0.1,0.1,0.2,0.1l-0.6,0.6c0,0-0.1-0.1-0.1-0.1L34.1,48.1z M34.1,48.3c0.1,0,0.1,0,0.2,0.1l-0.4,0.4c0,0-0.1-0.1-0.1-0.1
			L34.1,48.3L34.1,48.3z M33.3,48c0.1,0,0.1,0,0.2,0.1l-0.2,0.2c0,0-0.1-0.1-0.1-0.1L33.3,48z M19.4,47.9c0.1,0,1.7,0.6,2.6,1
			c-0.4,0-0.8,0-1.2,0c-0.2,0-0.4,0-0.6,0c-0.3,0-0.6-0.1-0.6-0.1c-0.4-0.1-0.3-0.3-0.7-0.3c-0.4-0.1-0.6,0.3-0.6,0.3
			C18.4,48.2,18.9,47.8,19.4,47.9 M6.4,60.9L6.4,60.9c0-0.1,0-0.2,0.1-0.2l0.1,0.1C6.6,60.9,6.5,60.9,6.4,60.9z M7.3,60.5L7,60.2
			c0,0,0.1-0.1,0.1-0.1l0.3,0.3C7.4,60.5,7.3,60.5,7.3,60.5 M8,60l-0.4-0.4c0,0,0.1-0.1,0.1-0.1l0.5,0.5C8,59.9,8,60,8,60z
			 M8.6,59.4L8,58.8c0,0,0.1-0.1,0.1-0.1l0.6,0.6C8.7,59.3,8.6,59.4,8.6,59.4 M9.1,58.7l-0.6-0.6c0,0,0.1-0.1,0.1-0.2l0.6,0.6
			C9.2,58.6,9.2,58.7,9.1,58.7 M9.6,58L9,57.4c0,0,0.1-0.1,0.1-0.2l0.7,0.7C9.7,57.9,9.7,58,9.6,58 M10.1,57.3l-0.7-0.7
			c0-0.1,0.1-0.1,0.1-0.2l0.7,0.7C10.2,57.2,10.2,57.2,10.1,57.3 M10.6,56.5l-0.7-0.7c0,0,0.1-0.1,0.1-0.2l0.7,0.7
			C10.7,56.4,10.6,56.5,10.6,56.5 M11.2,55.6c0,0.1-0.1,0.1-0.1,0.2l-0.7-0.7c0-0.1,0.1-0.1,0.1-0.2L11.2,55.6L11.2,55.6 M11.5,55
			l-0.6-0.6c0,0,0.1-0.1,0.1-0.2l0.6,0.6C11.6,54.9,11.6,54.9,11.5,55 M12,54.2l-0.6-0.6c0,0,0.1-0.1,0.1-0.1l0.6,0.6
			C12,54.1,12,54.2,12,54.2 M12.4,53.4l-0.5-0.5c0,0,0.1-0.1,0.1-0.1l0.5,0.5C12.5,53.3,12.4,53.4,12.4,53.4z M12.8,52.6l-0.4-0.4
			c0,0,0.1-0.1,0.1-0.1l0.3,0.3C12.9,52.5,12.9,52.6,12.8,52.6 M13.2,51.8l-0.2-0.2c0,0,0.1-0.1,0.1-0.1l0.1,0.1
			C13.3,51.7,13.3,51.7,13.2,51.8z M16.3,52.2c0.1,0,0.9,0,1.3,0c0.3,0,1,0,1,0.5c0,0.1,0,0.2,0,0.3c-0.1-0.2-0.3-0.3-0.5-0.3
			c-0.2,0-1.1,0.3-1.4,0.3c-0.2,0-0.3-0.1-0.5-0.1c-0.4,0-0.5,0.3-0.5,0.3C15.5,52.6,15.9,52.2,16.3,52.2 M26.2,57.6
			c0-0.1,0-0.1-0.1-0.2l0.1-0.1c0,0.1,0.1,0.1,0.1,0.2L26.2,57.6L26.2,57.6z M19.7,48.6c0-0.1-0.1-0.1-0.1-0.2l0.2-0.2
			c0,0,0.1,0.1,0.1,0.1L19.7,48.6L19.7,48.6z M20.2,49.2c0,0-0.1-0.1-0.1-0.1l0.3-0.3c0,0,0.1,0.1,0.1,0.1L20.2,49.2L20.2,49.2z
			 M20.7,49.8c0,0-0.1-0.1-0.1-0.1l0.5-0.5c0.1,0,0.1,0.1,0.2,0.1L20.7,49.8L20.7,49.8z M21.5,49.8c0,0.1,0,0.1,0.1,0.2L21.5,50
			c-0.1,0-0.1,0-0.2,0L21.5,49.8L21.5,49.8z M23.5,50.1c0,0-0.1-0.1-0.1-0.1l0.1-0.1c0,0,0.1,0.1,0.1,0.1l0,0L23.5,50.1z M25.5,51
			c0,0,0.1,0.1,0.1,0.1l-0.3,0.3c-0.1,0-0.1,0-0.2,0L25.5,51z M24.8,50.6c0.1,0,0.1,0,0.2,0l-0.5,0.5c0,0-0.1-0.1-0.2-0.1L24.8,50.6
			L24.8,50.6z M24.1,50.3c0.1,0,0.1,0.1,0.2,0.1L24,50.7c0,0-0.1-0.1-0.1-0.1L24.1,50.3z M29.9,50.8l0.1,0.1l-0.2,0.2
			c-0.1,0-0.2,0-0.3,0L29.9,50.8L29.9,50.8z M29.3,50.3l0.1,0.1l-0.7,0.7c-0.1,0-0.1,0-0.2,0L29.3,50.3z M28.3,50.3
			c0.1,0,0.2,0,0.2,0L28,50.9c-0.1,0-0.1,0-0.2-0.1L28.3,50.3L28.3,50.3z M27.4,50.2c0.1,0,0.1,0,0.2,0l-0.3,0.3
			c-0.1,0-0.1-0.1-0.2-0.1L27.4,50.2z M26.5,49.9c0.1,0,0.1,0,0.2,0.1l-0.2,0.2c0,0-0.1-0.1-0.2-0.1L26.5,49.9L26.5,49.9z
			 M28.2,45.4c0,0-0.1-0.1-0.1-0.1l0.1-0.1c0.1,0,0.1,0.1,0.2,0.1L28.2,45.4z M28.8,45.8c0,0-0.1-0.1-0.1-0.1l0.2-0.2
			c0.1,0,0.1,0.1,0.2,0.1L28.8,45.8z M29.4,46.3C29.3,46.3,29.3,46.2,29.4,46.3c-0.1-0.1-0.1-0.1-0.1-0.1l0.3-0.3
			c0.1,0,0.1,0.1,0.2,0.1L29.4,46.3z M29.8,46.7l0.4-0.4c0,0,0.1,0.1,0.1,0.1l-0.4,0.4C29.8,46.8,29.8,46.7,29.8,46.7 M30.2,47.3
			l0.5-0.5c0,0,0.1,0.1,0.1,0.1l-0.5,0.6C30.3,47.4,30.2,47.4,30.2,47.3 M31.5,49.4L31.5,49.4l-0.2-0.1l0.2-0.2
			C31.5,49.2,31.5,49.3,31.5,49.4 M31.5,48.3l-0.7,0.7l-0.1,0l-0.1,0c0,0,0,0,0-0.1l0.8-0.8C31.5,48.2,31.5,48.3,31.5,48.3
			 M31.3,47.5l-0.7,0.7c0-0.1,0-0.1-0.1-0.2l0.6-0.7C31.2,47.4,31.2,47.5,31.3,47.5z"/>
		<path class="st1" d="M10.9,42.9l0.1-0.6c0,0,0.6-0.2,1.1-0.2c0.5-0.1,0.8,0.6,0.8,0.6s1.1-0.1,1.4-0.8c0-0.2-1.8-0.1-2.2-0.1
			S11.6,41.5,11,41c0,0-0.8,0.3-0.8,1.1C10.2,42.7,10.8,42.9,10.9,42.9z"/>
		<path class="st1" d="M28.6,23.6c2.3-1.6,7.5-4.6,13.2-8c4.4-2.6,8.9-6.8,9-11.6c0-1.3-0.3-2.7-1.1-4.1c0,0-0.1,1-0.2,1.1
			s-1.4,1.7-3.4,3.6c-1.9,1.8-11.8,9.8-13.2,11.2c-4.7,4.4-7,10-7,10C25.9,25.8,26.3,25.2,28.6,23.6 M49.8,1l0.1,0.1
			c0,0.1,0,0.2,0,0.3l-0.2-0.2C49.7,1.2,49.7,1.1,49.8,1 M49.2,1.7L50,2.5c0,0.1,0,0.2,0,0.2l-0.8-0.8C49.2,1.8,49.2,1.8,49.2,1.7
			 M48.7,2.4l1.1,1.1c0,0.1,0,0.1-0.1,0.2l-1.2-1.2C48.6,2.5,48.6,2.4,48.7,2.4z M48.1,3l1.4,1.4c0,0.1-0.1,0.1-0.1,0.2L48,3.2
			C48,3.1,48.1,3.1,48.1,3z M47.5,3.7L49,5.2C49,5.3,49,5.3,49,5.4l-1.6-1.6C47.4,3.7,47.4,3.7,47.5,3.7z M46.9,4.3L48.6,6
			c0,0-0.1,0.1-0.1,0.1l-1.7-1.7C46.8,4.3,46.8,4.3,46.9,4.3z M46.2,4.9L48,6.7c0,0-0.1,0.1-0.1,0.1L46.1,5
			C46.2,4.9,46.2,4.9,46.2,4.9 M45.6,5.4l1.9,1.9c0,0-0.1,0.1-0.1,0.1l-1.9-1.9C45.5,5.5,45.6,5.5,45.6,5.4z M44.9,6l1.9,2
			c0,0-0.1,0.1-0.1,0.1l-2-2C44.8,6.1,44.9,6,44.9,6 M44.3,6.6l2,2c0,0-0.1,0.1-0.1,0.1l-2-2C44.2,6.6,44.2,6.6,44.3,6.6 M43.6,7.1
			l2,2c0,0-0.1,0.1-0.1,0.1l-2-2.1C43.5,7.2,43.6,7.2,43.6,7.1z M42.9,7.7l2,2.1c0,0-0.1,0.1-0.1,0.1l-2-2.1
			C42.9,7.7,42.9,7.7,42.9,7.7 M42.3,8.2l2,2.1c0,0-0.1,0.1-0.1,0.1l-2-2.1C42.2,8.3,42.2,8.3,42.3,8.2z M41.6,8.8l2,2.1
			c0,0-0.1,0.1-0.1,0.1l-2-2.1C41.5,8.9,41.6,8.8,41.6,8.8z M40.9,9.3l2,2c0,0-0.1,0.1-0.1,0.1l-2-2C40.9,9.4,40.9,9.4,40.9,9.3
			 M40.3,9.9l2,2c0,0-0.1,0.1-0.1,0.1l-2-2C40.2,10,40.2,9.9,40.3,9.9 M39.6,10.4l2,2c0,0-0.1,0.1-0.1,0.1l-2-2
			C39.5,10.5,39.6,10.5,39.6,10.4z M38.9,11l1.9,1.9c0,0-0.1,0.1-0.1,0.1l-1.9-1.9C38.9,11.1,38.9,11,38.9,11 M38.3,11.5l1.9,1.9
			c0,0-0.1,0.1-0.2,0.1l-1.9-1.9C38.2,11.6,38.2,11.6,38.3,11.5z M37.6,12.1l1.8,1.8c0,0-0.1,0.1-0.2,0.1l-1.8-1.8
			C37.5,12.2,37.6,12.1,37.6,12.1z M36.9,12.6l1.8,1.8c0,0-0.1,0.1-0.1,0.1l-1.7-1.8C36.9,12.7,36.9,12.7,36.9,12.6 M36.3,13.2
			l1.7,1.7c0,0-0.1,0.1-0.1,0.1l-1.7-1.7C36.2,13.3,36.2,13.2,36.3,13.2 M35.6,13.8l1.7,1.7c0,0-0.1,0.1-0.1,0.1l-1.7-1.7
			C35.5,13.8,35.6,13.8,35.6,13.8 M35,14.3l1.6,1.6c0,0-0.1,0.1-0.1,0.1l-1.6-1.6C34.9,14.4,34.9,14.4,35,14.3z M34.3,14.9l1.6,1.6
			c0,0-0.1,0.1-0.1,0.1L34.2,15C34.2,15,34.3,14.9,34.3,14.9 M33.6,15.5l1.5,1.6c0,0-0.1,0.1-0.1,0.1l-1.5-1.5
			C33.5,15.5,33.6,15.5,33.6,15.5z M33,16l1.5,1.5c0,0-0.1,0.1-0.1,0.1l-1.5-1.5C32.9,16.1,33,16.1,33,16 M32.4,16.6l1.4,1.4
			c0,0-0.1,0.1-0.1,0.1l-1.4-1.4C32.3,16.7,32.3,16.7,32.4,16.6z M31.8,17.3l1.4,1.4c0,0-0.1,0.1-0.1,0.1l-1.3-1.3
			C31.7,17.3,31.7,17.3,31.8,17.3z M31.2,17.9l1.3,1.3c0,0-0.1,0.1-0.1,0.1L31.1,18C31.1,18,31.2,17.9,31.2,17.9z M30.6,18.6
			l1.2,1.2c0,0-0.1,0.1-0.1,0.1l-1.1-1.1C30.6,18.7,30.6,18.6,30.6,18.6z M30.1,19.2l1,1c0,0-0.1,0.1-0.1,0.1l-1-1
			C30,19.3,30.1,19.3,30.1,19.2z M29.6,19.9l0.9,0.9c0,0-0.1,0.1-0.1,0.1l-0.9-0.9C29.5,20,29.5,20,29.6,19.9 M29.1,20.7l0.8,0.8
			c0,0-0.1,0.1-0.1,0.1L29,20.8C29,20.8,29,20.7,29.1,20.7 M28.6,21.4l0.6,0.6l-0.1,0.1l-0.6-0.6C28.5,21.5,28.5,21.4,28.6,21.4
			 M28.1,22.2l0.5,0.5c0,0-0.1,0.1-0.1,0.1L28,22.3C28,22.3,28.1,22.2,28.1,22.2 M27.6,22.9l0.3,0.3c0,0-0.1,0.1-0.1,0.1l-0.3-0.3
			C27.6,23,27.6,23,27.6,22.9z M27.2,23.7l0.2,0.2c0,0-0.1,0.1-0.1,0.1l-0.2-0.2C27.1,23.8,27.2,23.7,27.2,23.7"/>
		<path class="st1" d="M6.6,55.2c1.1-1.7,3-4.7,3.2-5c-1.1,1.3-6.4,4.8-9.1,5.6c-0.2,0-0.6,0-0.7-0.1c0,0,0.2,2,2.7,2
			C4.2,57.7,5.5,56.7,6.6,55.2 M6.6,53l0.1,0.1c0,0-0.1,0.1-0.1,0.1l-0.1-0.1C6.5,53,6.6,53,6.6,53z M1.2,56.3L0.9,56
			c0.1,0,0.1,0,0.2-0.1l0.4,0.4C1.4,56.3,1.3,56.3,1.2,56.3z M2.4,56.3l-0.6-0.6c0.1,0,0.1,0,0.2-0.1l0.6,0.6
			C2.5,56.2,2.4,56.2,2.4,56.3 M3.3,55.9l-0.7-0.7c0.1,0,0.1-0.1,0.2-0.1l0.7,0.7C3.4,55.9,3.3,55.9,3.3,55.9 M4,55.5l-0.6-0.6
			c0.1,0,0.1-0.1,0.2-0.1l0.6,0.6C4.1,55.4,4.1,55.5,4,55.5 M4.7,54.9l-0.5-0.5c0.1,0,0.1-0.1,0.2-0.1l0.5,0.5
			C4.8,54.9,4.7,54.9,4.7,54.9z M5.3,54.4L5,54c0.1,0,0.1-0.1,0.2-0.1l0.3,0.3C5.4,54.3,5.4,54.3,5.3,54.4z M5.9,53.4l0.2,0.2
			c0,0-0.1,0.1-0.1,0.1l-0.2-0.2C5.8,53.5,5.8,53.5,5.9,53.4"/>
		<path class="st1" d="M22.7,34c0,0-1,2.5-1.4,3.2c-0.4,0.7-1.1,1.2-1.7,1.2c-0.6-0.1-1.4-0.2-2.2-0.2c-1.5-0.1-3.3,0.1-4.1,0.6
			c-0.6,0.3-1.6,1.6-1.6,1.6c0.6,0.4,1.3,0,1.3,0s-0.3-0.3-0.3-0.5c0-0.1,0.1-0.2,0.3-0.3c0.1,0.4,0.5,0.7,0.9,0.7
			c0.4,0,0.8-0.4,0.9-0.8c0.1-0.3,0-0.5-0.1-0.7c0.5,0,0.9,0.3,0.9,0.5c0,0.2-0.7,1.3-1.6,1.4c0.1,0.5,1.2,0.6,1.1,0.9
			c0,0.1-0.1,0.2-0.2,0.4c-0.2,0.1,0.7,0.4,1.3,0.4c2,0.1,2.6-0.7,3.3-1.6c0.2-0.2,0.4-0.3,0.7-0.3c0.5,0,4.1,2.2,7.9,2.3
			c3.5,0.1,6.2-1.7,6.7-3.7c-0.5,0.2-1.8,0.6-3.1,0.6c-3.6-0.1-5-1.8-5-1.8s1.9,0.8,4.3,0.8c5.8,0.1,6.8-4.6,7.2-6.2
			c-0.8,0.5-3.5,2.3-8.8,2.2c-1.6,0-2.6-0.3-3.5-0.7c1.9,0,4-0.1,5.7-0.5c6.3-1.3,10.4-4.2,11.3-8.9c-4.5,2-11,4.1-14.5,5.9
			C24.7,32.2,23.1,33,22.7,34 M21.2,38.8l-0.5-0.5c0,0,0.1-0.1,0.1-0.1l0.5,0.5C21.4,38.7,21.3,38.8,21.2,38.8 M22,38.4l-0.7-0.7
			c0,0,0.1-0.1,0.1-0.2l0.7,0.7C22.1,38.3,22.1,38.3,22,38.4 M22.5,37.6l-0.7-0.8c0-0.1,0.1-0.1,0.1-0.2l0.7,0.7
			C22.6,37.5,22.5,37.6,22.5,37.6 M22.9,36.7L22.1,36c0-0.1,0-0.1,0.1-0.2l0.7,0.7C22.9,36.6,22.9,36.7,22.9,36.7 M23.1,35.8
			l-0.6-0.6c0-0.1,0-0.1,0.1-0.2l0.6,0.6C23.1,35.6,23.1,35.7,23.1,35.8 M23.3,34.7l-0.4-0.4c0-0.1,0-0.1,0-0.1c0,0,0,0,0,0l0.3,0.3
			C23.3,34.5,23.3,34.6,23.3,34.7 M23.5,33.7l-0.2-0.2c0,0,0.1-0.1,0.1-0.1l0.2,0.2C23.6,33.7,23.6,33.7,23.5,33.7z M24.6,33.5
			c0,0-0.1,0-0.1,0L24,33c0,0,0.1-0.1,0.2-0.1L24.6,33.5C24.7,33.5,24.6,33.5,24.6,33.5z M25.5,33.3l-0.8-0.8c0.1,0,0.1-0.1,0.2-0.1
			l0.8,0.8C25.6,33.3,25.6,33.3,25.5,33.3 M26.5,33.1l-1-1c0.1,0,0.1-0.1,0.2-0.1l1,1C26.6,33,26.6,33,26.5,33.1 M27.5,32.8
			l-1.2-1.2c0.1,0,0.1-0.1,0.2-0.1l1.2,1.2C27.6,32.8,27.5,32.8,27.5,32.8 M28.4,32.5l-1.3-1.3c0.1,0,0.1-0.1,0.2-0.1l1.3,1.4
			C28.6,32.5,28.5,32.5,28.4,32.5z M29.4,32.3l-1.5-1.5c0.1,0,0.1-0.1,0.2-0.1l1.5,1.5C29.5,32.2,29.4,32.3,29.4,32.3 M41.9,25.1
			L41.9,25.1c0,0.1,0,0.1-0.1,0.2l-0.1-0.1C41.8,25.1,41.9,25.1,41.9,25.1z M41.1,25.4l0.3,0.3c0,0-0.1,0.1-0.1,0.1l-0.4-0.4
			C41,25.5,41,25.4,41.1,25.4z M40.2,25.8l0.6,0.6c0,0-0.1,0.1-0.1,0.1L40,25.8C40.1,25.8,40.2,25.8,40.2,25.8 M39.3,26.1l0.9,0.9
			c0,0-0.1,0.1-0.1,0.1l-1-1C39.2,26.2,39.3,26.1,39.3,26.1 M38.5,26.5l1.1,1.2c0,0-0.1,0.1-0.1,0.1l-1.2-1.2
			C38.3,26.5,38.4,26.5,38.5,26.5z M37.6,26.8l1.3,1.4c0,0-0.1,0.1-0.1,0.1l-1.4-1.4C37.4,26.8,37.5,26.8,37.6,26.8z M36.6,27.2
			C36.6,27.1,36.7,27.1,36.6,27.2l1.6,1.5c-0.1,0-0.1,0.1-0.2,0.1l-1.5-1.5C36.5,27.2,36.6,27.2,36.6,27.2z M35.8,27.5l1.6,1.6
			c-0.1,0-0.1,0.1-0.2,0.1l-1.6-1.6C35.7,27.5,35.7,27.5,35.8,27.5z M34.9,27.8l1.7,1.7c-0.1,0-0.1,0.1-0.2,0.1l-1.7-1.7
			C34.8,27.8,34.9,27.8,34.9,27.8 M34,28.1l1.7,1.8c-0.1,0-0.1,0.1-0.2,0.1l-1.8-1.8C33.9,28.2,34,28.2,34,28.1z M33.2,28.5l1.8,1.8
			c-0.1,0-0.1,0-0.2,0.1L33,28.5C33,28.5,33.1,28.5,33.2,28.5 M32.3,28.8l1.8,1.8c-0.1,0-0.1,0-0.2,0.1l-1.8-1.8
			C32.2,28.9,32.2,28.8,32.3,28.8 M31.4,29.2l1.8,1.8c-0.1,0-0.1,0-0.2,0.1l-1.8-1.8C31.3,29.2,31.4,29.2,31.4,29.2 M30.6,29.5
			l1.7,1.8c-0.1,0-0.1,0-0.2,0.1l-1.7-1.7C30.5,29.6,30.5,29.6,30.6,29.5z M29.7,29.9l1.7,1.7c-0.1,0-0.1,0-0.2,0.1L29.6,30
			C29.6,30,29.7,29.9,29.7,29.9 M28.9,30.3l1.6,1.6c-0.1,0-0.1,0-0.2,0.1l-1.6-1.6C28.8,30.4,28.8,30.3,28.9,30.3z"/>
	</g>
</g>
</svg>
