<svg width="160" height="36" viewBox="0 0 160 36" fill="none" xmlns="http://www.w3.org/2000/svg">
<g clip-path="url(#clip0_3531_8630)">
<path fill-rule="evenodd" clip-rule="evenodd" d="M104.75 9.54305C105.04 7.99328 106.321 6.69009 107.831 6.3907C108.402 6.27623 132.616 6.27623 133.205 6.38189C134.785 6.68128 136.058 7.95806 136.357 9.54305C136.479 10.1858 136.479 26.1765 136.357 26.8194C136.058 28.4042 134.785 29.6811 133.205 29.9805C132.915 30.0334 130.29 30.0685 126.242 30.0685C120.746 30.0685 119.71 30.0861 119.447 30.2005C119.28 30.271 117.533 31.4069 115.566 32.7278C113.6 34.0486 111.879 35.1845 111.747 35.2462C111.159 35.5014 110.404 35.2284 110.105 34.6473C109.948 34.3304 109.93 34.1367 109.93 32.1818V30.0685H109.149C108.727 30.0685 108.165 30.0244 107.902 29.9805C106.321 29.6811 105.048 28.4042 104.75 26.8194C104.627 26.1765 104.627 10.1858 104.75 9.54305ZM149.2 14.648H140.077C139.286 14.648 138.645 14.0068 138.645 13.216C138.645 12.4252 139.286 11.784 140.077 11.784H149.2C149.991 11.784 150.632 12.4252 150.632 13.216C150.632 14.0068 149.991 14.648 149.2 14.648ZM138.644 18.1474C138.644 17.3566 139.285 16.7154 140.076 16.7154H153.758C154.549 16.7154 155.19 17.3566 155.19 18.1474C155.19 18.9383 154.549 19.5794 153.758 19.5794H140.076C139.285 19.5793 138.644 18.9381 138.644 18.1474ZM159.462 17.1348C159.196 16.8682 158.827 16.7154 158.45 16.7154C158.073 16.7154 157.704 16.8682 157.437 17.1348C157.171 17.4015 157.018 17.7704 157.018 18.1474C157.018 18.5247 157.171 18.8934 157.437 19.16C157.704 19.4267 158.073 19.5794 158.45 19.5794C158.827 19.5794 159.196 19.4267 159.462 19.16C159.729 18.8932 159.882 18.5245 159.882 18.1474C159.882 17.7702 159.729 17.4015 159.462 17.1348ZM147.279 24.5136H140.075C139.284 24.5136 138.643 23.8725 138.643 23.0817C138.643 22.2909 139.284 21.6497 140.075 21.6497H147.279C148.07 21.6497 148.711 22.2909 148.711 23.0817C148.711 23.8725 148.07 24.5136 147.279 24.5136Z" fill="url(#paint0_linear_3531_8630)"/>
<path d="M7.40158 26.1123L0.134766 8.20117H4.15199L9.62767 22.2998L15.2313 8.20117H19.0694L11.7002 26.1123H7.40158ZM25.0096 26.3682C23.6791 26.3682 22.4765 26.061 21.4018 25.4472C20.3272 24.833 19.4743 24.0057 18.8431 22.9651C18.212 21.9245 17.8964 20.756 17.8964 19.4596C17.8964 18.1632 18.2034 16.9947 18.8175 15.9541C19.4487 14.8965 20.3016 14.0607 21.3762 13.4466C22.468 12.8325 23.6791 12.5254 25.0096 12.5254C26.3401 12.5254 27.5428 12.8325 28.6174 13.4466C29.7092 14.0607 30.5621 14.8965 31.1762 15.9541C31.8074 16.9947 32.1229 18.1632 32.1229 19.4596C32.1229 20.756 31.8074 21.9245 31.1762 22.9651C30.5621 24.0057 29.7177 24.833 28.643 25.4472C27.5684 26.061 26.3572 26.3682 25.0096 26.3682ZM25.0096 23.3233C25.7092 23.3233 26.3316 23.1527 26.8776 22.8115C27.4404 22.4704 27.8839 22.0098 28.2082 21.4298C28.5493 20.8328 28.7197 20.1761 28.7197 19.4596C28.7197 18.7261 28.5493 18.0694 28.2082 17.4894C27.8839 16.9094 27.4404 16.4488 26.8776 16.1077C26.3316 15.7494 25.7092 15.5703 25.0096 15.5703C24.3273 15.5703 23.7047 15.7494 23.1418 16.1077C22.5789 16.4488 22.1353 16.9094 21.8112 17.4894C21.4871 18.0694 21.3251 18.7261 21.3251 19.4596C21.3251 20.1761 21.4871 20.8328 21.8112 21.4298C22.1353 22.0098 22.5789 22.4704 23.1418 22.8115C23.7047 23.1527 24.3273 23.3233 25.0096 23.3233ZM35.2078 31.6136C34.9009 31.6136 34.6022 31.5965 34.3124 31.5625C34.0394 31.5454 33.8091 31.5198 33.6213 31.4856V28.4663C33.9625 28.5346 34.3719 28.5688 34.8496 28.5688C36.1289 28.5688 37.016 27.9632 37.5107 26.7521L37.7153 26.2403L32.521 12.7813H36.3848L39.7113 21.8648L43.4725 12.7813H47.2595L41.1185 27.187C40.658 28.2616 40.1547 29.1231 39.6087 29.7712C39.063 30.4195 38.4318 30.8886 37.7153 31.1787C37.016 31.4685 36.1801 31.6136 35.2078 31.6136ZM52.5433 26.3426C51.5879 26.3426 50.7437 26.1721 50.0102 25.8308C49.2766 25.4726 48.7052 24.9864 48.2957 24.3725C47.8863 23.7584 47.6816 23.0504 47.6816 22.2486C47.6816 20.9693 48.1592 19.9799 49.1145 19.2805C50.0868 18.564 51.4174 18.2058 53.1062 18.2058C54.2661 18.2058 55.3578 18.3849 56.3814 18.7432V17.7708C56.3814 17.0032 56.1426 16.4232 55.665 16.0309C55.1871 15.6386 54.4878 15.4424 53.5667 15.4424C53.0039 15.4424 52.3983 15.5362 51.75 15.7239C51.1019 15.8944 50.3513 16.1674 49.4984 16.5427L48.2191 13.9583C49.2766 13.4807 50.2829 13.1225 51.2382 12.8837C52.2105 12.6449 53.1829 12.5254 54.1552 12.5254C55.9463 12.5254 57.3367 12.9604 58.3259 13.8304C59.3324 14.6833 59.8357 15.8944 59.8357 17.4638V26.1123H56.3814V25.1656C55.8355 25.5749 55.247 25.8735 54.6157 26.061C53.9848 26.2488 53.2937 26.3426 52.5433 26.3426ZM51.0079 22.1719C51.0079 22.6836 51.2296 23.093 51.6733 23.4001C52.1168 23.6901 52.7052 23.835 53.4388 23.835C54.0187 23.835 54.5562 23.7669 55.0509 23.6303C55.5456 23.4768 55.989 23.2551 56.3814 22.9651V21.0204C55.9549 20.8499 55.5114 20.7219 55.0509 20.6366C54.5901 20.5513 54.0956 20.5087 53.5667 20.5087C52.7651 20.5087 52.1339 20.6622 51.6733 20.9693C51.2296 21.2593 51.0079 21.6601 51.0079 22.1719ZM69.1926 31.5879C68.169 31.5879 67.1798 31.4771 66.2245 31.2553C65.2693 31.0507 64.4078 30.7521 63.6401 30.3599L64.8683 27.6475C65.6019 28.0057 66.3183 28.2702 67.0176 28.4409C67.717 28.6113 68.4163 28.6965 69.1159 28.6965C70.1564 28.6965 70.941 28.4748 71.4699 28.0314C72.0156 27.5879 72.2886 26.9225 72.2886 26.0356V24.9864C71.1969 25.7883 69.9772 26.189 68.6298 26.189C67.3673 26.189 66.2245 25.8906 65.2009 25.2936C64.1946 24.6794 63.3842 23.8521 62.7703 22.8115C62.173 21.771 61.8746 20.6196 61.8746 19.3573C61.8746 18.0949 62.173 16.9521 62.7703 15.9286C63.3842 14.9051 64.2115 14.0948 65.2522 13.4978C66.2927 12.8837 67.4525 12.5766 68.7321 12.5766C69.3801 12.5766 70.0114 12.6704 70.6255 12.8581C71.2396 13.0457 71.811 13.3101 72.3399 13.6513V12.7813H75.7941V26.0867C75.7941 27.8438 75.2228 29.1998 74.0797 30.155C72.954 31.1103 71.3248 31.5879 69.1926 31.5879ZM69.167 23.2209C69.8153 23.2209 70.4038 23.1186 70.9324 22.9139C71.4613 22.6921 71.9133 22.3851 72.2886 21.9927V16.7729C71.9133 16.3977 71.4528 16.1077 70.907 15.903C70.3781 15.6812 69.8067 15.5703 69.1926 15.5703C68.4591 15.5703 67.8025 15.7409 67.2223 16.0821C66.6423 16.4062 66.1818 16.8582 65.8407 17.4382C65.4995 18.0011 65.3289 18.6408 65.3289 19.3573C65.3289 20.0908 65.491 20.7475 65.815 21.3275C66.1562 21.9075 66.6167 22.368 67.1969 22.7092C67.7939 23.0504 68.4505 23.2209 69.167 23.2209ZM85.0556 26.3682C83.7251 26.3682 82.5139 26.061 81.4222 25.4472C80.3475 24.833 79.4946 24.0057 78.8633 22.9651C78.2324 21.9245 77.9166 20.756 77.9166 19.4596C77.9166 18.1632 78.2153 16.9947 78.8123 15.9541C79.4264 14.9136 80.2537 14.0863 81.2942 13.4722C82.3347 12.8581 83.4948 12.551 84.7741 12.551C86.0534 12.551 87.1879 12.8666 88.1773 13.4978C89.1665 14.1289 89.9428 14.9818 90.5056 16.0565C91.0855 17.1312 91.3756 18.3508 91.3756 19.7155V20.6366H81.4988C81.6524 21.1654 81.8998 21.6431 82.2409 22.0695C82.5991 22.496 83.0343 22.8286 83.5458 23.0674C84.0747 23.3062 84.6376 23.4256 85.2346 23.4256C85.8317 23.4256 86.3776 23.3318 86.8724 23.1442C87.3839 22.9565 87.8191 22.6921 88.1773 22.351L90.48 24.4492C89.6612 25.1143 88.8168 25.6005 87.947 25.9077C87.0941 26.2146 86.1303 26.3682 85.0556 26.3682ZM81.4478 18.1291H87.9214C87.802 17.6003 87.5803 17.1397 87.256 16.7474C86.949 16.338 86.5737 16.0224 86.1303 15.8006C85.7037 15.5618 85.2261 15.4424 84.6974 15.4424C84.1514 15.4424 83.6567 15.5533 83.2132 15.775C82.7698 15.9968 82.3945 16.3124 82.0873 16.7218C81.7975 17.1141 81.5843 17.5832 81.4478 18.1291ZM93.5233 26.1123V12.7813H97.0288V14.2654C97.4554 13.6854 97.967 13.2419 98.564 12.9348C99.161 12.6278 99.835 12.4743 100.585 12.4743C101.234 12.4913 101.72 12.5937 102.044 12.7813V15.8518C101.788 15.7324 101.507 15.6471 101.199 15.5959C100.893 15.5277 100.577 15.4936 100.253 15.4936C99.5705 15.4936 98.9479 15.6642 98.385 16.0053C97.8219 16.3465 97.3699 16.8326 97.0288 17.4638V26.1123H93.5233Z" fill="#133769"/>
<path d="M107.233 23.4924L112.019 11.8604H114.794L119.53 23.4924H116.921L115.741 20.4348H110.939L109.743 23.4924H107.233ZM111.687 18.5072H115.01L113.349 14.22L111.687 18.5072Z" fill="white"/>
<path d="M120.368 23.493V14.8354H122.644V23.493H120.368ZM121.498 13.8052C121.143 13.8052 120.839 13.6778 120.584 13.423C120.329 13.1682 120.202 12.8635 120.202 12.509C120.202 12.1435 120.329 11.8388 120.584 11.5951C120.839 11.3403 121.143 11.2129 121.498 11.2129C121.863 11.2129 122.168 11.3403 122.412 11.5951C122.666 11.8388 122.794 12.1435 122.794 12.509C122.794 12.8635 122.666 13.1682 122.412 13.423C122.168 13.6778 121.863 13.8052 121.498 13.8052Z" fill="white"/>
<path d="M128.429 23.6091C127.61 23.6091 126.867 23.4097 126.203 23.0109C125.538 22.612 125.006 22.0803 124.607 21.4156C124.22 20.7398 124.026 19.9865 124.026 19.1557C124.026 18.3248 124.22 17.577 124.607 16.9123C125.006 16.2366 125.544 15.7048 126.219 15.3171C126.895 14.9183 127.654 14.7189 128.496 14.7189C128.928 14.7189 129.343 14.7798 129.742 14.9017C130.141 15.0124 130.512 15.1786 130.856 15.4002V11.8607L133.132 11.4785V23.4928H130.889V22.7782C130.18 23.3321 129.36 23.6091 128.429 23.6091ZM128.795 21.6649C129.216 21.6649 129.598 21.5984 129.942 21.4655C130.296 21.3214 130.601 21.1109 130.856 20.834V17.4607C130.601 17.2059 130.296 17.0065 129.942 16.8625C129.587 16.7185 129.205 16.6465 128.795 16.6465C128.319 16.6465 127.887 16.7572 127.499 16.9788C127.122 17.1893 126.823 17.4884 126.602 17.8761C126.38 18.2528 126.269 18.6793 126.269 19.1557C126.269 19.632 126.38 20.0585 126.602 20.4352C126.823 20.8118 127.122 21.1109 127.499 21.3325C127.887 21.5541 128.319 21.6649 128.795 21.6649Z" fill="white"/>
</g>
<defs>
<linearGradient id="paint0_linear_3531_8630" x1="85.0623" y1="17.4034" x2="164.815" y2="18.3626" gradientUnits="userSpaceOnUse">
<stop stop-color="#F8B133"/>
<stop offset="1" stop-color="#D22635"/>
</linearGradient>
<clipPath id="clip0_3531_8630">
<rect width="160" height="35.3709" fill="white"/>
</clipPath>
</defs>
</svg>
