<svg width="32" height="32" viewBox="0 0 32 32" fill="none" xmlns="http://www.w3.org/2000/svg">
<path d="M28.0708 0.935492C26.6939 1.30463 25.9731 2.85151 26.5708 4.15229L26.729 4.49799L23.2427 7.98431L19.7622 11.4648L19.3872 11.2949C19.0591 11.1425 18.9536 11.1249 18.4321 11.1249C17.9106 11.1249 17.8052 11.1425 17.477 11.2949L17.102 11.4648L15.5728 9.93548L14.0435 8.40619L14.1665 8.12494C14.3892 7.63275 14.436 7.40424 14.4067 6.94135C14.3657 6.19721 14.0024 5.55268 13.4048 5.1601C12.9829 4.88471 12.5962 4.76752 12.104 4.76752C10.856 4.76752 9.87158 5.6933 9.80126 6.94135C9.77197 7.40424 9.81884 7.63275 10.0415 8.12494L10.1645 8.40619L7.41064 11.1601L4.65087 13.9199L4.36376 13.7734C2.99267 13.0644 1.34032 13.9199 1.04736 15.4902C0.766105 16.9843 2.19579 18.3964 3.70751 18.1269C5.21923 17.8515 6.06298 16.2577 5.43017 14.8749L5.27197 14.5292L8.03759 11.7636L10.8032 8.99798L11.0786 9.14447C11.688 9.46087 12.5259 9.46087 13.1353 9.13861L13.4048 8.99798L14.9517 10.5449L16.4927 12.0859L16.3872 12.3085C15.6431 13.8495 16.5923 15.5663 18.2622 15.707C19.2114 15.789 20.1196 15.2558 20.5356 14.3769C20.6997 14.0312 20.7173 13.9433 20.7173 13.4101C20.7173 12.8886 20.6997 12.7831 20.5474 12.455L20.3774 12.08L23.8579 8.59955L27.3442 5.11322L27.6782 5.27143C29.0903 5.91596 30.6958 5.06049 30.9595 3.51361C31.1177 2.57026 30.5962 1.55073 29.729 1.11713C29.1899 0.847601 28.6333 0.783148 28.0708 0.935492ZM29.1314 1.79096C29.6821 1.95502 30.1216 2.57612 30.1216 3.19135C30.1216 4.48627 28.5161 5.11908 27.6255 4.16986C27.3267 3.85346 27.2271 3.60736 27.2212 3.18549C27.2212 2.16596 28.147 1.49213 29.1314 1.79096ZM12.6958 5.73431C13.6099 6.11517 13.8384 7.38666 13.1235 8.1015C12.8423 8.38275 12.52 8.51752 12.104 8.51752C10.7095 8.51752 10.1177 6.75385 11.2251 5.90424C11.6235 5.60541 12.2153 5.5351 12.6958 5.73431ZM19.0884 12.1034C19.8091 12.4374 20.1021 13.3691 19.7153 14.0839C19.4399 14.5878 19.0005 14.8456 18.4204 14.8456C17.5591 14.8398 16.9497 14.1718 17.0083 13.2988C17.0728 12.2617 18.1274 11.6523 19.0884 12.1034ZM3.76025 14.4472C4.64501 14.746 5.04931 15.7363 4.604 16.5331C4.22314 17.2304 3.35595 17.4999 2.66454 17.1425C1.81493 16.7031 1.61572 15.5312 2.27782 14.8222C2.62939 14.4472 3.27978 14.2831 3.76025 14.4472Z" fill="url(#paint0_linear_3585_23948)"/>
<path d="M25.7266 20.2676V30.8438H28.3633H31V20.2676V9.69143H28.3633H25.7266V20.2676ZM30.1211 20.2676V29.9648H28.334H26.5469V20.2676V10.5703H28.334H30.1211V20.2676Z" fill="#133769"/>
<path fill-rule="evenodd" clip-rule="evenodd" d="M25.4258 31.1445H31.2992V9.39221H25.4258V31.1445ZM30.1203 29.9656V10.5711H26.5461V29.9656H30.1203ZM26.8461 29.6656V10.8711H29.8203V29.6656H26.8461ZM25.7258 9.69221H30.9992V30.8445H25.7258V9.69221Z" fill="#133769"/>
<path d="M9.26172 24.3984V30.8438H11.8984H14.5352V24.3984V17.9531H11.8984H9.26172V24.3984ZM13.6563 24.3984V29.9648H11.8691H10.082V24.3984V18.832H11.8691H13.6563V24.3984Z" fill="#133769"/>
<path fill-rule="evenodd" clip-rule="evenodd" d="M8.96094 31.1445H14.8344V17.6539H8.96094V31.1445ZM13.6555 29.9656V18.8328H10.0813V29.9656H13.6555ZM10.3813 29.6656V19.1328H13.3555V29.6656H10.3813ZM9.26094 17.9539H14.5344V30.8445H9.26094V17.9539Z" fill="#133769"/>
<path d="M17.4648 24.7207V30.8438H20.1016H22.7383V24.7207V18.5977H20.1016H17.4648V24.7207ZM21.9063 24.7031L21.918 29.9648H20.1309H18.3438V24.6914V19.418L20.1191 19.4297L21.8887 19.4473L21.9063 24.7031Z" fill="#133769"/>
<path fill-rule="evenodd" clip-rule="evenodd" d="M17.1641 31.1445H23.0375V18.2984H17.1641V31.1445ZM21.9172 29.9656H18.343V19.4188L20.1184 19.4305L21.8879 19.4481L21.9055 24.7039L21.9172 29.9656ZM21.6165 29.6656H18.643V19.7207L20.1154 19.7305L21.5889 19.7451L21.6165 29.6656ZM17.4641 18.5984H22.7375V30.8445H17.4641V18.5984Z" fill="#133769"/>
<path d="M1 25.9805V30.8438H3.63672H6.27344V25.9805V21.1172H3.63672H1V25.9805ZM5.45313 25.9805V29.9648H3.66602H1.87891V25.9805V21.9961H3.66602H5.45313V25.9805Z" fill="#133769"/>
<path fill-rule="evenodd" clip-rule="evenodd" d="M0.699219 31.1445H6.57266V20.818H0.699219V31.1445ZM5.45235 29.9656V21.9969H1.87813V29.9656H5.45235ZM2.17813 29.6656V22.2969H5.15235V29.6656H2.17813ZM0.999219 21.118H6.27266V30.8445H0.999219V21.118Z" fill="#133769"/>
<defs>
<linearGradient id="paint0_linear_3585_23948" x1="1.00098" y1="13.8418" x2="31.0278" y2="1.90935" gradientUnits="userSpaceOnUse">
<stop stop-color="#F8B133"/>
<stop offset="1" stop-color="#D22635"/>
</linearGradient>
</defs>
</svg>
