<svg width="73" height="74" viewBox="0 0 73 74" fill="none" xmlns="http://www.w3.org/2000/svg">
<path opacity="0.11" fill-rule="evenodd" clip-rule="evenodd" d="M29.417 11.641C35.8903 12.1676 40.9975 15.8572 46.5721 19.1896C53.4834 23.3211 62.5773 25.4423 65.225 33.0465C68.1947 41.5754 65.8188 51.4854 60.3088 58.6408C54.7813 65.8188 45.8213 69.8026 36.764 70.0062C28.4634 70.1928 20.822 65.7237 15.1546 59.6559C10.3052 54.4639 10.4493 47.0673 8.86932 40.1407C6.97341 31.8291 0.169961 22.7359 5.15566 15.8207C10.1448 8.90079 20.9141 10.9494 29.417 11.641Z" fill="#FF725E"/>
<path d="M59.8538 42.5749C63.4941 29.6445 55.9628 16.2112 43.0322 12.5708C30.1016 8.93048 16.6682 16.4616 13.0279 29.392C9.38757 42.3225 16.9189 55.7558 29.8495 59.3961C42.7801 63.0365 56.2135 55.5054 59.8538 42.5749Z" fill="#FF725E"/>
<path d="M53.3313 53.4922C63.9179 43.3441 64.9644 27.2562 55.6687 17.5589C46.3731 7.86163 30.2553 8.22709 19.6687 18.3752C9.08214 28.5233 8.03562 44.6112 17.3313 54.3085C26.6269 64.0058 42.7447 63.6404 53.3313 53.4922Z" stroke="#FF725E" stroke-width="0.362809" stroke-miterlimit="10"/>
<g filter="url(#filter0_d_5577_24390)">
<path d="M46.9051 48.6974C48.3797 47.2115 48.3706 44.8115 46.8847 43.3368L40.2081 36.7109L46.8332 30.0345C48.3078 28.5485 48.2986 26.1485 46.8127 24.6739C45.3267 23.1993 42.9267 23.2085 41.4521 24.6944L34.8261 31.3709L28.1501 24.7454C26.664 23.2706 24.2636 23.2799 22.7889 24.7661C21.3144 26.2522 21.3237 28.6523 22.8097 30.1268L29.4861 36.7519L22.861 43.4283C21.3864 44.9144 21.3955 47.3144 22.8814 48.7891C24.3674 50.2641 26.7678 50.2551 28.2427 48.7689L34.8681 42.0929L41.5446 48.718C43.0305 50.1926 45.4305 50.1834 46.9051 48.6974Z" fill="white"/>
</g>
<defs>
<filter id="filter0_d_5577_24390" x="21.6892" y="23.5742" width="27.3159" height="26.3164" filterUnits="userSpaceOnUse" color-interpolation-filters="sRGB">
<feFlood flood-opacity="0" result="BackgroundImageFix"/>
<feColorMatrix in="SourceAlpha" type="matrix" values="0 0 0 0 0 0 0 0 0 0 0 0 0 0 0 0 0 0 127 0" result="hardAlpha"/>
<feOffset dx="1"/>
<feComposite in2="hardAlpha" operator="out"/>
<feColorMatrix type="matrix" values="0 0 0 0 0 0 0 0 0 0 0 0 0 0 0 0 0 0 0.25 0"/>
<feBlend mode="normal" in2="BackgroundImageFix" result="effect1_dropShadow_5577_24390"/>
<feBlend mode="normal" in="SourceGraphic" in2="effect1_dropShadow_5577_24390" result="shape"/>
</filter>
</defs>
</svg>
