<svg width="27" height="28" viewBox="0 0 27 28" fill="none" xmlns="http://www.w3.org/2000/svg">
<g clip-path="url(#clip0_1811_22585)">
<path d="M7.71699 12.4146C7.74862 12.4145 7.78024 12.4145 7.81186 12.4144C7.89868 12.4142 7.9855 12.4143 8.07233 12.4145C8.16681 12.4146 8.2613 12.4144 8.35578 12.4143C8.52135 12.4142 8.68693 12.4142 8.8525 12.4143C9.09871 12.4144 9.34492 12.4144 9.59114 12.4142C10.0309 12.414 10.4706 12.414 10.9103 12.4142C11.2951 12.4143 11.6799 12.4143 12.0647 12.4142C12.0902 12.4142 12.1157 12.4142 12.142 12.4142C12.2456 12.4142 12.3492 12.4142 12.4527 12.4142C13.4245 12.4141 14.3962 12.4142 15.368 12.4144C16.2315 12.4146 17.0951 12.4146 17.9586 12.4144C18.9286 12.4142 19.8985 12.4141 20.8685 12.4142C20.9719 12.4142 21.0753 12.4142 21.1786 12.4142C21.2168 12.4142 21.2168 12.4142 21.2558 12.4142C21.6404 12.4143 22.0249 12.4142 22.4095 12.4141C22.8468 12.414 23.284 12.414 23.7213 12.4143C23.966 12.4144 24.2108 12.4144 24.4556 12.4142C24.619 12.4141 24.7825 12.4142 24.9459 12.4144C25.0391 12.4145 25.1322 12.4145 25.2254 12.4144C25.3102 12.4142 25.3949 12.4143 25.4797 12.4145C25.5102 12.4146 25.5406 12.4145 25.5711 12.4144C25.7887 12.4137 25.9862 12.4194 26.18 12.5254C26.2241 12.55 26.2241 12.55 26.2932 12.5754C26.3705 12.6114 26.4311 12.6543 26.4978 12.7067C26.5304 12.7321 26.5646 12.7555 26.599 12.7785C26.599 12.7924 26.599 12.8063 26.599 12.8207C26.6129 12.8207 26.6269 12.8207 26.6412 12.8207C26.6822 12.8646 26.6822 12.8646 26.7282 12.9222C26.7435 12.941 26.7588 12.9599 26.7745 12.9793C26.81 13.0316 26.81 13.0316 26.81 13.0949C26.8239 13.0949 26.8378 13.0949 26.8521 13.0949C26.8689 13.1309 26.8856 13.1669 26.9022 13.203C26.9115 13.2231 26.9208 13.2431 26.9304 13.2638C27.0003 13.4259 27.007 13.5693 27.0065 13.7433C27.0064 13.7895 27.0069 13.8356 27.0074 13.8817C27.0075 13.9114 27.0075 13.9411 27.0075 13.9708C27.0076 14.0109 27.0076 14.0109 27.0077 14.0518C26.9986 14.1406 26.9751 14.1961 26.9365 14.2761C26.921 14.3143 26.9056 14.3525 26.8904 14.3908C26.8831 14.4091 26.8759 14.4273 26.8684 14.4461C26.863 14.4596 26.8577 14.4731 26.8521 14.4871C26.8382 14.4871 26.8243 14.4871 26.81 14.4871C26.808 14.4989 26.806 14.5108 26.8039 14.523C26.7852 14.5834 26.7554 14.622 26.7164 14.6716C26.7033 14.6885 26.6903 14.7054 26.6769 14.7227C26.6651 14.7355 26.6533 14.7482 26.6412 14.7613C26.6273 14.7613 26.6134 14.7613 26.599 14.7613C26.599 14.7752 26.599 14.7891 26.599 14.8035C26.4657 14.9183 26.3167 15.007 26.156 15.0777C26.1335 15.0882 26.1335 15.0882 26.1104 15.099C25.9186 15.166 25.7276 15.1681 25.5264 15.1674C25.4947 15.1674 25.4631 15.1675 25.4315 15.1676C25.3447 15.1677 25.2578 15.1676 25.171 15.1675C25.0765 15.1674 24.9821 15.1675 24.8876 15.1676C24.722 15.1678 24.5564 15.1678 24.3908 15.1677C24.1446 15.1675 23.8984 15.1676 23.6522 15.1677C23.2125 15.1679 22.7728 15.1679 22.333 15.1678C21.9482 15.1677 21.5634 15.1677 21.1786 15.1677C21.1531 15.1677 21.1276 15.1677 21.1013 15.1677C20.9978 15.1677 20.8942 15.1678 20.7906 15.1678C19.8189 15.1679 18.8471 15.1678 17.8754 15.1676C17.0118 15.1673 16.1483 15.1674 15.2847 15.1676C14.3148 15.1678 13.3448 15.1679 12.3748 15.1678C12.2715 15.1677 12.1681 15.1677 12.0647 15.1677C12.0265 15.1677 12.0265 15.1677 11.9876 15.1677C11.603 15.1677 11.2184 15.1677 10.8338 15.1678C10.3966 15.1679 9.95934 15.1679 9.5221 15.1677C9.27731 15.1676 9.03253 15.1675 8.78775 15.1677C8.62432 15.1678 8.46089 15.1677 8.29746 15.1676C8.2043 15.1675 8.11113 15.1674 8.01797 15.1676C7.93319 15.1677 7.84841 15.1677 7.76362 15.1674C7.73317 15.1674 7.70272 15.1674 7.67226 15.1675C7.43657 15.1683 7.23319 15.1525 7.0227 15.0421C7.00818 15.0346 6.99366 15.0272 6.9787 15.0195C6.64521 14.8436 6.42213 14.5824 6.28178 14.2353C6.17776 13.8432 6.20709 13.4607 6.40093 13.101C6.56736 12.822 6.79608 12.6377 7.0873 12.5043C7.10247 12.4972 7.11764 12.4901 7.13328 12.4828C7.32506 12.4161 7.51581 12.4139 7.71699 12.4146Z" fill="#133769"/>
<path d="M7.55859 3.95861C7.5852 3.95854 7.61181 3.95848 7.63923 3.95841C7.66866 3.95845 7.69808 3.95849 7.72751 3.95853C7.75898 3.95849 7.79045 3.95845 7.82192 3.9584C7.90871 3.95828 7.9955 3.95829 8.08229 3.95833C8.17659 3.95834 8.2709 3.95824 8.3652 3.95815C8.55238 3.95799 8.73956 3.95794 8.92674 3.95793C9.15089 3.95791 9.37504 3.95777 9.59919 3.95763C10.141 3.95729 10.6828 3.95716 11.2246 3.95706C11.4808 3.95701 11.7371 3.95694 11.9933 3.95686C12.8703 3.95659 13.7473 3.95636 14.6243 3.95629C14.6794 3.95628 14.7344 3.95628 14.7895 3.95627C14.8447 3.95627 14.8999 3.95626 14.9551 3.95626C15.0658 3.95625 15.1765 3.95624 15.2873 3.95623C15.3285 3.95623 15.3285 3.95623 15.3705 3.95622C16.2609 3.95615 17.1512 3.95581 18.0416 3.95532C18.9828 3.9548 19.9239 3.95451 20.8651 3.95449C20.9684 3.95448 21.0717 3.95448 21.175 3.95447C21.2004 3.95447 21.2258 3.95447 21.252 3.95447C21.6616 3.95445 22.0711 3.95421 22.4806 3.95391C22.8921 3.9536 23.3036 3.95353 23.7151 3.9537C23.9597 3.9538 24.2042 3.95372 24.4487 3.95338C24.6121 3.95318 24.7754 3.9532 24.9388 3.95341C25.0319 3.95353 25.1249 3.95354 25.218 3.95328C25.3028 3.95304 25.3875 3.95309 25.4723 3.95337C25.5027 3.95343 25.533 3.95337 25.5634 3.9532C25.8202 3.95182 26.061 3.97871 26.2856 4.11027C26.2989 4.11768 26.3122 4.12509 26.3259 4.13273C26.3835 4.16498 26.439 4.19891 26.4939 4.23552C26.4939 4.24944 26.4939 4.26336 26.4939 4.27771C26.5062 4.28322 26.5184 4.28874 26.5311 4.29443C26.7242 4.39876 26.8648 4.62688 26.9396 4.82664C26.9502 4.86261 26.9602 4.8988 26.969 4.93524C26.9756 4.97392 26.9756 4.97392 27.0001 4.99489C27.0053 5.08838 27.0049 5.18199 27.0052 5.27561C27.0054 5.32246 27.006 5.3693 27.0067 5.41615C27.0079 5.56881 27.006 5.69921 26.9368 5.83864C26.9271 5.8604 26.9174 5.88215 26.9074 5.90456C26.781 6.16089 26.781 6.16089 26.6837 6.26052C26.6698 6.26052 26.6559 6.26052 26.6415 6.26052C26.6346 6.2814 26.6276 6.30228 26.6204 6.3238C26.6065 6.3238 26.5926 6.3238 26.5782 6.3238C26.5782 6.33772 26.5782 6.35164 26.5782 6.36599C26.4393 6.48776 26.2849 6.57225 26.1142 6.64021C26.0937 6.64891 26.0733 6.65761 26.0522 6.66657C25.8474 6.71672 25.6288 6.70652 25.4194 6.70614C25.3881 6.70616 25.3568 6.70619 25.3254 6.70623C25.2397 6.70632 25.154 6.70627 25.0682 6.7062C24.9748 6.70614 24.8814 6.70621 24.788 6.70626C24.6244 6.70634 24.4609 6.70634 24.2973 6.70628C24.054 6.7062 23.8107 6.70625 23.5675 6.70631C23.133 6.70642 22.6985 6.70641 22.2641 6.70635C21.8839 6.7063 21.5037 6.70628 21.1235 6.70631C21.0857 6.70631 21.0857 6.70631 21.0471 6.70631C20.9447 6.70632 20.8424 6.70633 20.74 6.70633C19.7798 6.7064 18.8196 6.70634 17.8593 6.70623C17.0061 6.70613 16.1529 6.70614 15.2996 6.70624C14.3411 6.70635 13.3826 6.70639 12.4241 6.70633C12.322 6.70632 12.2198 6.70632 12.1177 6.70631C12.0925 6.70631 12.0674 6.70631 12.0414 6.7063C11.6614 6.70628 11.2815 6.70631 10.9015 6.70636C10.4695 6.70642 10.0375 6.70641 9.60544 6.70629C9.36361 6.70623 9.12179 6.70623 8.87996 6.70631C8.71848 6.70635 8.55699 6.70632 8.39551 6.70623C8.30348 6.70618 8.21144 6.70616 8.1194 6.70624C8.03562 6.70631 7.95184 6.70628 7.86806 6.70617C7.83799 6.70615 7.80793 6.70617 7.77786 6.70622C7.38449 6.70687 7.04303 6.6687 6.72902 6.40817C6.72902 6.39425 6.72902 6.38033 6.72902 6.36599C6.71686 6.36093 6.70471 6.35587 6.69219 6.35066C6.6352 6.31847 6.60162 6.28101 6.55895 6.23151C6.54478 6.21525 6.53062 6.19899 6.51602 6.18224C6.41261 6.05781 6.41261 6.05781 6.41261 5.9863C6.39869 5.9863 6.38477 5.9863 6.37042 5.9863C6.20311 5.58461 6.1727 5.2188 6.32165 4.80373C6.37602 4.6753 6.45258 4.55554 6.53917 4.44646C6.5531 4.44646 6.56702 4.44646 6.58136 4.44646C6.58702 4.43297 6.59267 4.41948 6.5985 4.40559C6.62355 4.36208 6.62355 4.36208 6.68683 4.34099C6.69379 4.3201 6.70075 4.29922 6.70792 4.27771C6.72185 4.27771 6.73577 4.27771 6.75011 4.27771C6.75011 4.26378 6.75011 4.24986 6.75011 4.23552C7.00602 4.07955 7.25155 3.95875 7.55859 3.95861Z" fill="#133769"/>
<path d="M7.82148 20.8753C7.85275 20.8752 7.88403 20.8752 7.9153 20.8752C8.00106 20.8751 8.08682 20.8751 8.17257 20.8752C8.26594 20.8753 8.35931 20.8752 8.45268 20.8751C8.61626 20.8751 8.77984 20.8751 8.94343 20.8751C9.18668 20.8752 9.42993 20.8752 9.67319 20.8751C10.1076 20.875 10.5421 20.875 10.9766 20.875C11.3568 20.8751 11.737 20.8751 12.1172 20.8751C12.155 20.8751 12.155 20.8751 12.1936 20.8751C12.2959 20.8751 12.3983 20.8751 12.5006 20.8751C13.4609 20.875 14.4212 20.8751 15.3814 20.8752C16.2346 20.8753 17.0879 20.8753 17.9411 20.8752C18.8996 20.875 19.858 20.875 20.8165 20.8751C20.9187 20.8751 21.0208 20.8751 21.123 20.8751C21.1482 20.8751 21.1733 20.8751 21.1992 20.8751C21.5792 20.8751 21.9592 20.8751 22.3391 20.875C22.7712 20.875 23.2032 20.875 23.6352 20.8751C23.8771 20.8752 24.1189 20.8752 24.3607 20.8751C24.5222 20.875 24.6837 20.8751 24.8452 20.8752C24.9373 20.8752 25.0293 20.8752 25.1213 20.8752C25.2051 20.8751 25.2889 20.8751 25.3727 20.8752C25.4028 20.8752 25.4328 20.8752 25.4629 20.8752C25.9691 20.8743 25.9691 20.8743 26.1981 20.9834C26.2123 20.9897 26.2266 20.996 26.2412 21.0025C26.3831 21.0683 26.5385 21.1589 26.641 21.2787C26.641 21.2926 26.641 21.3065 26.641 21.3209C26.655 21.3209 26.6689 21.3209 26.6832 21.3209C26.912 21.582 27.0073 21.8601 27.0063 22.2013C27.0062 22.2475 27.0067 22.2936 27.0073 22.3398C27.0073 22.3695 27.0073 22.3992 27.0073 22.4289C27.0074 22.4689 27.0074 22.4689 27.0075 22.5098C26.9984 22.5987 26.9749 22.654 26.9363 22.7342C26.9233 22.7681 26.9233 22.7681 26.91 22.8027C26.8256 22.9968 26.6989 23.1689 26.5356 23.3037C26.5216 23.3037 26.5077 23.3037 26.4934 23.3037C26.4934 23.3176 26.4934 23.3315 26.4934 23.3459C26.4459 23.3732 26.3985 23.4004 26.351 23.4276C26.3376 23.4353 26.3242 23.443 26.3105 23.4509C26.0539 23.5979 25.8131 23.6296 25.5189 23.6281C25.4873 23.6281 25.4556 23.6282 25.424 23.6283C25.3374 23.6286 25.2508 23.6284 25.1642 23.6282C25.0699 23.6281 24.9756 23.6283 24.8812 23.6284C24.716 23.6287 24.5508 23.6287 24.3856 23.6285C24.1399 23.6283 23.8943 23.6284 23.6486 23.6286C23.2098 23.6289 22.771 23.6289 22.3322 23.6287C21.9482 23.6285 21.5642 23.6285 21.1802 23.6286C21.1548 23.6286 21.1293 23.6286 21.1031 23.6286C20.9997 23.6286 20.8963 23.6286 20.7929 23.6286C19.823 23.6288 18.853 23.6287 17.8831 23.6283C17.0214 23.628 16.1597 23.628 15.2979 23.6283C14.3298 23.6287 13.3616 23.6288 12.3935 23.6286C12.2903 23.6286 12.1871 23.6286 12.0839 23.6286C12.0585 23.6286 12.033 23.6286 12.0069 23.6286C11.6231 23.6285 11.2394 23.6286 10.8556 23.6287C10.4193 23.6289 9.98291 23.6289 9.54657 23.6285C9.30236 23.6283 9.05815 23.6283 8.81395 23.6286C8.65082 23.6287 8.4877 23.6286 8.32458 23.6283C8.23164 23.6282 8.1387 23.6281 8.04576 23.6284C7.96111 23.6286 7.87647 23.6285 7.79182 23.6282C7.76148 23.6281 7.73115 23.6281 7.70082 23.6283C7.43923 23.6296 7.20039 23.5969 6.96848 23.4711C6.95415 23.4637 6.93982 23.4563 6.92506 23.4487C6.86435 23.417 6.80663 23.3839 6.74963 23.3459C6.74963 23.332 6.74963 23.318 6.74963 23.3037C6.71831 23.2932 6.71831 23.2932 6.68635 23.2826C6.68635 23.2687 6.68635 23.2548 6.68635 23.2404C6.67286 23.2348 6.65938 23.2291 6.64548 23.2233C6.60197 23.1982 6.60197 23.1982 6.58088 23.1349C6.56696 23.1349 6.55304 23.1349 6.53869 23.1349C6.29365 22.8299 6.19459 22.4887 6.22229 22.1013C6.25 21.9256 6.30476 21.7602 6.36994 21.5951C6.38387 21.5951 6.39779 21.5951 6.41213 21.5951C6.4142 21.5831 6.41626 21.5711 6.41839 21.5588C6.45894 21.4274 6.5846 21.3055 6.68635 21.2154C6.70027 21.2154 6.71419 21.2154 6.72854 21.2154C6.7355 21.1945 6.74246 21.1736 6.74963 21.1521C7.06728 20.8918 7.43061 20.8746 7.82148 20.8753Z" fill="#133769"/>
<path d="M2.53125 20.4543C2.55434 20.4638 2.57742 20.4733 2.60121 20.4832C2.68053 20.5169 2.75173 20.5582 2.82525 20.6032C2.83766 20.6106 2.85007 20.6181 2.86286 20.6257C2.89374 20.6447 2.92355 20.6653 2.95313 20.6863C2.95313 20.7002 2.95313 20.7141 2.95313 20.7285C2.97401 20.7354 2.99489 20.7424 3.01641 20.7496C3.01641 20.7635 3.01641 20.7774 3.01641 20.7918C3.02845 20.7968 3.0405 20.8018 3.05291 20.807C3.31963 20.9571 3.49142 21.3358 3.57935 21.6157C3.58884 21.6504 3.59808 21.6851 3.60703 21.7199C3.61138 21.7351 3.61573 21.7502 3.62022 21.7659C3.68949 22.0439 3.66504 22.3547 3.58594 22.6269C3.57554 22.6629 3.57554 22.6629 3.56493 22.6996C3.41595 23.1604 3.09911 23.5274 2.67891 23.766C2.66488 23.7746 2.65085 23.7832 2.63639 23.7921C2.25936 24.005 1.76721 24.0396 1.35231 23.9344C1.24251 23.8996 1.13789 23.8569 1.03359 23.8082C1.01823 23.8012 1.00287 23.7942 0.98704 23.7871C0.877499 23.7352 0.769297 23.6736 0.675001 23.5972C0.675001 23.5833 0.675001 23.5694 0.675001 23.555C0.66282 23.5494 0.650638 23.5437 0.638087 23.5379C0.589455 23.5122 0.548005 23.4854 0.506251 23.4496C0.506251 23.4356 0.506251 23.4217 0.506251 23.4074C0.492329 23.4074 0.478407 23.4074 0.464064 23.4074C0.429214 23.3696 0.397772 23.332 0.366505 23.2914C0.357192 23.2793 0.347879 23.2672 0.338284 23.2547C0.184272 23.0475 0.0555901 22.7988 0.021095 22.5425C0.014134 22.5356 0.00717309 22.5286 1.21607e-06 22.5214C-0.00212832 22.4654 -0.00294579 22.41 -0.0028003 22.354C-0.00282048 22.3372 -0.00284066 22.3205 -0.00286145 22.3032C-0.00287583 22.2676 -0.00283673 22.2321 -0.0027488 22.1966C-0.00263598 22.142 -0.00274764 22.0874 -0.0028827 22.0328C-0.00286876 21.9984 -0.00284173 21.9639 -0.0028003 21.9295C-0.002843 21.9131 -0.0028857 21.8966 -0.00292969 21.8797C-0.00242353 21.7645 -0.00242353 21.7645 0.021095 21.741C0.0228352 21.7214 0.0245754 21.7018 0.0263684 21.6816C0.0473878 21.5176 0.134349 21.3587 0.210939 21.2136C0.224861 21.2136 0.238782 21.2136 0.253126 21.2136C0.255111 21.2017 0.257096 21.1898 0.259141 21.1775C0.277814 21.1178 0.307333 21.0814 0.34673 21.033C0.388364 20.9815 0.427258 20.9313 0.464064 20.8761C0.477986 20.8761 0.491907 20.8761 0.506251 20.8761C0.506251 20.8622 0.506251 20.8483 0.506251 20.8339C0.68831 20.6638 0.887911 20.5274 1.11797 20.4332C1.14135 20.4227 1.16474 20.4122 1.18883 20.4014C1.6002 20.2327 2.1366 20.2569 2.53125 20.4543Z" fill="url(#paint0_linear_1811_22585)"/>
<path d="M2.91885 3.9702C3.26151 4.24002 3.5005 4.59018 3.60703 5.01566C3.61138 5.03239 3.61573 5.04911 3.62022 5.06634C3.67602 5.31786 3.67755 5.61104 3.60703 5.85941C3.60342 5.8751 3.5998 5.89079 3.59607 5.90696C3.51226 6.23519 3.31249 6.56461 3.05859 6.78754C3.04467 6.78754 3.03075 6.78754 3.01641 6.78754C3.00945 6.80842 3.00249 6.8293 2.99531 6.85082C2.98139 6.85082 2.96747 6.85082 2.95313 6.85082C2.95313 6.86474 2.95313 6.87866 2.95313 6.89301C2.90284 6.92964 2.85296 6.96311 2.8002 6.99584C2.78489 7.00537 2.76958 7.0149 2.75381 7.02472C2.62849 7.1005 2.50438 7.15121 2.3625 7.18832C2.33683 7.19615 2.31116 7.20398 2.28472 7.21205C2.12532 7.25416 1.97824 7.28091 1.81275 7.2806C1.7935 7.28057 1.77425 7.28054 1.75442 7.2805C1.57465 7.2773 1.41499 7.24305 1.24453 7.18832C1.21349 7.17918 1.21349 7.17918 1.18183 7.16986C0.930877 7.08898 0.69537 6.92803 0.506251 6.74535C0.506251 6.73143 0.506251 6.71751 0.506251 6.70316C0.492329 6.70316 0.478407 6.70316 0.464064 6.70316C0.426108 6.65954 0.390838 6.61598 0.355958 6.57001C0.346088 6.55746 0.336217 6.54491 0.326048 6.53198C0.253126 6.43684 0.253126 6.43684 0.253126 6.36566C0.239204 6.36566 0.225282 6.36566 0.210939 6.36566C0.19069 6.32217 0.170483 6.27866 0.150294 6.23515C0.139037 6.21092 0.12778 6.18669 0.116182 6.16173C0.0659788 6.05079 0.0374001 5.95944 0.021095 5.83832C0.014134 5.83136 0.00717309 5.8244 1.21607e-06 5.81723C-0.00212832 5.76123 -0.00294579 5.7058 -0.0028003 5.64979C-0.00282048 5.63302 -0.00284066 5.61624 -0.00286145 5.59896C-0.00287583 5.56342 -0.00283673 5.52789 -0.0027488 5.49235C-0.00263598 5.43777 -0.00274764 5.38319 -0.0028827 5.32861C-0.00286876 5.29417 -0.00284173 5.25972 -0.0028003 5.22528C-0.002843 5.20885 -0.0028857 5.19241 -0.00292969 5.17548C-0.00242353 5.06027 -0.00242353 5.06027 0.021095 5.03676C0.0228352 5.01718 0.0245754 4.9976 0.0263684 4.97743C0.0652027 4.68912 0.265841 4.37788 0.464064 4.17191C0.477986 4.17191 0.491907 4.17191 0.506251 4.17191C0.506251 4.15799 0.506251 4.14407 0.506251 4.12973C0.621765 4.02426 0.621765 4.02426 0.675001 4.02426C0.675001 4.01033 0.675001 3.99641 0.675001 3.98207C1.35363 3.46374 2.23854 3.47925 2.91885 3.9702Z" fill="url(#paint1_linear_1811_22585)"/>
<path d="M2.76305 12.2088C2.76305 12.2227 2.76305 12.2366 2.76305 12.251C2.78001 12.2536 2.78001 12.2536 2.79732 12.2563C2.86585 12.2779 2.91677 12.3135 2.97398 12.3564C2.97398 12.3704 2.97398 12.3843 2.97398 12.3986C2.99095 12.4052 2.99095 12.4052 3.00826 12.4118C3.07776 12.4521 3.13416 12.5051 3.18492 12.5674C3.18492 12.5813 3.18492 12.5952 3.18492 12.6096C3.19884 12.6096 3.21277 12.6096 3.22711 12.6096C3.2631 12.6568 3.29617 12.7037 3.32862 12.7533C3.33811 12.7677 3.34761 12.7821 3.35738 12.797C3.47332 12.9764 3.55495 13.1616 3.6068 13.3689C3.61115 13.3859 3.6155 13.4029 3.61998 13.4204C3.72777 13.9114 3.59696 14.4019 3.33439 14.8206C3.26045 14.9333 3.26045 14.9333 3.22711 14.9721C3.21319 14.9721 3.19927 14.9721 3.18492 14.9721C3.18057 14.9834 3.17622 14.9947 3.17174 15.0064C3.1315 15.0759 3.07844 15.1323 3.01617 15.183C3.00225 15.183 2.98833 15.183 2.97398 15.183C2.97398 15.1969 2.97398 15.2109 2.97398 15.2252C2.94391 15.2524 2.94391 15.2524 2.90411 15.2806C2.89114 15.29 2.87817 15.2994 2.86481 15.3091C2.82633 15.3307 2.82633 15.3307 2.76305 15.3307C2.76305 15.3446 2.76305 15.3585 2.76305 15.3729C2.72308 15.3931 2.68309 15.4133 2.64308 15.4335C2.62081 15.4448 2.59854 15.456 2.57559 15.4676C2.3674 15.5684 2.14973 15.615 1.9193 15.626C1.90295 15.6269 1.88661 15.6277 1.86978 15.6286C1.37998 15.6417 0.942991 15.4746 0.569297 15.1619C0.569297 15.148 0.569297 15.1341 0.569297 15.1197C0.555375 15.1197 0.541453 15.1197 0.527109 15.1197C0.473338 15.0676 0.427057 15.0087 0.379453 14.951C0.36893 14.9388 0.358407 14.9266 0.347565 14.9141C0.144571 14.6649 -0.00630477 14.3195 -0.00732071 13.9976C-0.00746113 13.9816 -0.00760155 13.9656 -0.00774622 13.9492C-0.00795838 13.9156 -0.00805881 13.882 -0.00805199 13.8484C-0.00814381 13.7979 -0.00891023 13.7474 -0.00971024 13.6969C-0.0116989 13.4306 0.039753 13.2036 0.163242 12.9655C0.170383 12.9515 0.177524 12.9375 0.184882 12.9231C0.251031 12.7967 0.325741 12.6736 0.42164 12.5674C0.435562 12.5674 0.449484 12.5674 0.463828 12.5674C0.463828 12.5535 0.463828 12.5395 0.463828 12.5252C0.492832 12.4909 0.492832 12.4909 0.527109 12.4619C0.541031 12.4619 0.554953 12.4619 0.569297 12.4619C0.569297 12.448 0.569297 12.4341 0.569297 12.4197C0.620406 12.3804 0.671436 12.3437 0.724863 12.3077C0.740416 12.2972 0.75597 12.2866 0.771994 12.2758C1.40084 11.8562 2.10304 11.8788 2.76305 12.2088Z" fill="url(#paint2_linear_1811_22585)"/>
</g>
<defs>
<linearGradient id="paint0_linear_1811_22585" x1="-0.00424265" y1="21.2131" x2="4.03709" y2="22.1304" gradientUnits="userSpaceOnUse">
<stop stop-color="#F8B133"/>
<stop offset="1" stop-color="#D22635"/>
</linearGradient>
<linearGradient id="paint1_linear_1811_22585" x1="-0.00424273" y1="4.51669" x2="4.03519" y2="5.43865" gradientUnits="userSpaceOnUse">
<stop stop-color="#F8B133"/>
<stop offset="1" stop-color="#D22635"/>
</linearGradient>
<linearGradient id="paint2_linear_1811_22585" x1="-0.01108" y1="12.8763" x2="4.03031" y2="13.8033" gradientUnits="userSpaceOnUse">
<stop stop-color="#F8B133"/>
<stop offset="1" stop-color="#D22635"/>
</linearGradient>
<clipPath id="clip0_1811_22585">
<rect width="27" height="27" fill="white" transform="translate(0 0.289062)"/>
</clipPath>
</defs>
</svg>
