<svg width="34" height="20" viewBox="0 0 34 20" fill="none" xmlns="http://www.w3.org/2000/svg">
<path d="M6.97438 0.369434C6.45141 0.541372 6.17201 0.720472 5.76366 1.14315C5.10456 1.8309 4.91113 2.39686 4.91113 3.62192C4.91113 4.6822 5.06874 4.9616 5.6562 4.9616C5.8353 4.9616 5.97858 4.89712 6.14335 4.75384L6.3726 4.55325L6.40842 3.63625L6.45141 2.71925L10.5492 6.22247C12.7988 8.14961 14.6471 9.74003 14.6471 9.76152C14.6471 9.78301 12.7988 11.3734 10.5492 13.3006L6.45141 16.8038L6.40842 15.8868L6.3726 14.9698L6.14335 14.7692C5.97858 14.6259 5.8353 14.5614 5.6562 14.5614C5.06874 14.5614 4.91113 14.8408 4.91113 15.9011C4.91113 16.7751 5.03292 17.3483 5.31232 17.8211C5.58455 18.2868 6.2723 18.8957 6.7523 19.0891L7.16781 19.2539H19.2393H31.3107L31.7764 19.0318C32.4569 18.7023 32.8725 18.3082 33.1877 17.6563L33.4599 17.1119V9.76869V2.41836L33.2307 1.93836C32.9154 1.27211 32.5143 0.85659 31.8623 0.534208L31.3179 0.269136L19.3539 0.254808C7.95586 0.24048 7.36124 0.247644 6.97438 0.369434ZM30.7949 1.71628C30.8522 1.80941 19.6333 11.3663 19.3897 11.4379C19.2178 11.4881 19.1031 11.4737 18.9312 11.3878C18.8022 11.3305 17.4124 10.1699 15.8363 8.81587C14.2531 7.46186 11.7671 5.33413 10.2985 4.07325C8.82987 2.81954 7.63348 1.76643 7.63348 1.73061C7.63348 1.6518 30.7519 1.64464 30.7949 1.71628ZM32.0629 9.76152C32.0629 13.5227 32.0343 16.639 32.0056 16.6892C31.9483 16.7751 23.8601 9.9048 23.8601 9.76152C23.8601 9.6254 31.9483 2.7479 32.0056 2.83387C32.0343 2.88402 32.0629 6.00039 32.0629 9.76152ZM16.9109 11.6743C18.2363 12.8349 18.444 12.9495 19.2034 12.9495C19.9915 12.9495 20.2136 12.8277 21.4601 11.7388C22.0332 11.2373 22.5419 10.8075 22.5849 10.786C22.6852 10.743 30.8522 17.7208 30.7949 17.7996C30.7519 17.8784 7.63348 17.8712 7.63348 17.7924C7.63348 17.7208 15.7217 10.7645 15.8077 10.7645C15.8435 10.7645 16.3378 11.1728 16.9109 11.6743Z" fill="#133769"/>
<path d="M8.26059 8.74847L8.21633 8.79884L8.14928 8.79945L5.78541 8.82093C5.78536 8.82094 5.78532 8.82094 5.78527 8.82094C4.79392 8.83167 4.18873 8.83353 3.80425 8.82086C3.42617 8.80841 3.23994 8.78202 3.10329 8.72312C2.44919 8.45174 2.39614 7.55869 2.99696 7.18931C3.05842 7.15118 3.12134 7.11878 3.21952 7.09553C3.31198 7.07363 3.43231 7.06064 3.60883 7.05247C3.96217 7.03612 4.57621 7.038 5.72024 7.04515L5.72063 7.04515L8.14925 7.06664L8.21632 7.06724L8.26059 7.11762L8.46793 7.35356C8.468 7.35363 8.46806 7.35371 8.46813 7.35378C8.62473 7.53054 8.71523 7.7256 8.71523 7.93305C8.71523 8.14049 8.62473 8.33556 8.46812 8.51232C8.46806 8.51239 8.46799 8.51246 8.46793 8.51253L8.26059 8.74847Z" fill="url(#paint0_linear_1811_5068)" stroke="url(#paint1_linear_1811_5068)" stroke-width="0.3"/>
<path d="M4.68261 12.4793L4.68225 12.4793L1.02147 12.4537C0.702012 12.3771 0.49421 12.1146 0.4208 11.8335C0.347464 11.5528 0.400297 11.2228 0.639344 11.0016C0.697406 10.9474 0.762664 10.8937 0.821654 10.8501C0.875782 10.8102 0.939229 10.7678 0.989673 10.7489C1.00832 10.7419 1.02646 10.7395 1.03141 10.7388C1.03163 10.7388 1.03182 10.7388 1.03199 10.7388C1.04054 10.7376 1.04979 10.7367 1.0588 10.7359C1.07706 10.7344 1.10055 10.7331 1.12809 10.7318C1.18352 10.7293 1.26059 10.727 1.35623 10.7249C1.54778 10.7206 1.81724 10.717 2.14437 10.7143C2.79882 10.7089 3.68598 10.7071 4.64642 10.7107L4.64648 10.7107L8.1497 10.725L8.2172 10.7253L8.26176 10.776L8.4691 11.012C8.46916 11.012 8.46922 11.0121 8.46929 11.0122C8.6259 11.1889 8.7164 11.384 8.7164 11.5914C8.7164 11.7989 8.6259 11.994 8.46929 12.1707C8.46923 12.1708 8.46916 12.1709 8.4691 12.1709L8.26176 12.4069L8.21733 12.4574L8.15002 12.4578L4.68261 12.4793Z" fill="url(#paint2_linear_1811_5068)" stroke="url(#paint3_linear_1811_5068)" stroke-width="0.3"/>
<defs>
<linearGradient id="paint0_linear_1811_5068" x1="2.72545" y1="8.30792" x2="6.47023" y2="4.94151" gradientUnits="userSpaceOnUse">
<stop stop-color="#F8B133"/>
<stop offset="1" stop-color="#D22635"/>
</linearGradient>
<linearGradient id="paint1_linear_1811_5068" x1="3.01757" y1="8.65228" x2="5.52202" y2="5.15" gradientUnits="userSpaceOnUse">
<stop stop-color="#F5A533"/>
<stop offset="1" stop-color="#D83A35"/>
</linearGradient>
<linearGradient id="paint2_linear_1811_5068" x1="0.537163" y1="11.9644" x2="4.17039" y2="7.42307" gradientUnits="userSpaceOnUse">
<stop stop-color="#F8B133"/>
<stop offset="1" stop-color="#D22635"/>
</linearGradient>
<linearGradient id="paint3_linear_1811_5068" x1="0.938803" y1="12.3049" x2="3.06762" y2="8.16563" gradientUnits="userSpaceOnUse">
<stop stop-color="#F5A533"/>
<stop offset="1" stop-color="#D83A35"/>
</linearGradient>
</defs>
</svg>
