<svg width="1425" height="368" viewBox="0 0 1425 368" fill="none" xmlns="http://www.w3.org/2000/svg">
<path d="M1424.39 330.805C1424.39 339.326 1421.29 347.556 1415.65 353.949C1410.02 360.343 1402.25 364.46 1393.79 365.531L1393.79 366.074L286.983 366.075C286.983 366.075 192.798 378.287 124.392 325.752C124.497 324.842 39.2899 266.465 10.1279 216.168C10.4459 216.762 7.88908 214.252 5.32908 209.496C0.503082 200.541 -4.32209 183.621 10.1279 164.453C10.4869 164.228 62.9296 97.6914 124.392 54.4534C125.115 55.1804 176.229 10.1596 286.983 1.61455C287.957 1.4431 288.945 1.37154 289.933 1.40068C292.061 1.00392 294.222 0.80501 296.388 0.805956L352.419 0.805954C468.219 0.312937 718.483 0.49295 944.62 0.805928L1389.38 0.805909C1393.98 0.805908 1398.53 1.71106 1402.78 3.46997C1407.02 5.22888 1410.88 7.80682 1414.13 11.0569C1417.38 14.3069 1419.96 18.166 1421.72 22.4124C1423.48 26.6588 1424.38 31.2106 1424.38 35.8069L1424.39 330.805Z" fill="white"/>
<path d="M180.997 292.165C180.997 292.165 109.32 189.035 180.997 74.7012" stroke="#D6D5D5" stroke-linecap="round"/>
<path fill-rule="evenodd" clip-rule="evenodd" d="M78.2664 177.285H66.6914L77.3934 147.601L87.2204 147.819L78.2664 177.285ZM78.4902 186.025H66.9102L77.6161 215.74L87.4482 215.525L78.4902 186.025ZM80.623 141.708L90.669 141.926L95.91 137.126L93.51 120.32C93.51 120.32 86.37 123.098 80.623 141.708ZM98.9677 134.723L97.2207 117.917C107.182 110.181 109.922 111.671 108.795 117.48C107.668 123.289 98.9677 134.723 98.9677 134.723ZM80.8477 221.64L90.8987 221.422L96.1427 226.229L93.7386 243.053C93.7386 243.053 86.5977 240.27 80.8477 221.64ZM99.2031 228.631L97.4551 245.455C107.421 253.198 110.167 251.707 109.035 245.892C107.903 240.077 99.2031 228.631 99.2031 228.631Z" fill="#D6D5D5"/>
<path fill-rule="evenodd" clip-rule="evenodd" d="M10.5045 164.785C-3.766 183.739 1.00812 200.425 5.76924 209.259C7.03426 211.609 8.29661 213.401 9.19797 214.526C9.65036 215.091 10.0052 215.479 10.2189 215.685C10.2719 215.736 10.3118 215.771 10.3393 215.794C10.3557 215.807 10.3632 215.812 10.3632 215.812C10.3632 215.812 10.352 215.805 10.3321 215.795C10.3232 215.791 10.2274 215.743 10.0942 215.757C10.0089 215.765 9.89389 215.801 9.79671 215.898C9.70241 215.993 9.66984 216.101 9.65965 216.172C9.64256 216.291 9.6766 216.378 9.67777 216.381C9.68507 216.402 9.69071 216.411 9.68711 216.404L10.5605 215.917C25.0939 240.984 53.6252 268.105 78.5569 289.098C91.0149 299.588 102.56 308.537 110.985 314.92C114.119 317.295 116.821 319.314 118.978 320.927C119.721 321.482 120.399 321.989 121.008 322.445C122.196 323.336 123.124 324.037 123.754 324.531C124.068 324.777 124.315 324.976 124.484 325.124C124.568 325.196 124.642 325.265 124.699 325.325C124.721 325.349 124.75 325.381 124.776 325.417C158.863 351.562 199.371 361.611 231.394 365.117C247.415 366.871 261.301 366.986 271.182 366.662C276.121 366.5 280.059 366.229 282.76 365.998C284.111 365.883 285.152 365.778 285.855 365.702C286.207 365.664 286.473 365.633 286.652 365.611C286.741 365.601 286.808 365.593 286.853 365.587L286.903 365.581L286.915 365.579L286.918 365.579C286.919 365.579 286.919 365.579 286.983 366.075L286.918 365.579L286.951 365.575L1393.29 365.574L1393.29 365.091L1393.73 365.035C1402.06 363.98 1409.72 359.921 1415.28 353.619C1420.83 347.317 1423.89 339.205 1423.89 330.805L1423.88 35.8069C1423.88 31.2762 1422.99 26.7894 1421.26 22.6037C1419.52 18.418 1416.98 14.6141 1413.78 11.4104C1410.57 8.20679 1406.77 5.66568 1402.59 3.93192C1398.4 2.19812 1393.91 1.30591 1389.38 1.30591L944.619 1.30593C718.482 0.99295 468.219 0.812937 352.421 1.30595L296.387 1.30596C294.253 1.30501 292.123 1.50112 290.024 1.89223L289.971 1.90206L289.918 1.90047C288.964 1.8723 288.01 1.94142 287.07 2.10695L287.046 2.11119L287.022 2.11306C231.708 6.38073 191.298 19.7558 164.634 31.9656C151.302 38.0706 141.404 43.8853 134.797 48.1265C131.493 50.2471 129.011 51.975 127.33 53.1518L127.048 53.3491C126.345 53.8411 125.792 54.2283 125.396 54.4907C125.174 54.6376 124.986 54.7556 124.841 54.8321C124.772 54.8686 124.689 54.9087 124.605 54.9336C124.593 54.9372 124.578 54.9412 124.562 54.945C93.9146 76.5239 65.5106 103.899 44.7096 125.927C34.2974 136.953 25.7934 146.636 19.8703 153.576C16.9088 157.046 14.5926 159.83 13.0055 161.754C12.3798 162.512 11.8675 163.137 11.4733 163.618C11.3675 163.747 11.2702 163.865 11.1815 163.973C10.9723 164.228 10.8099 164.426 10.6968 164.561C10.6405 164.629 10.5945 164.683 10.5602 164.723C10.5435 164.742 10.5267 164.761 10.5116 164.777C10.5095 164.779 10.5071 164.782 10.5045 164.785ZM287.015 366.575L286.977 366.579C286.93 366.585 286.861 366.594 286.77 366.604C286.588 366.626 286.318 366.657 285.963 366.696C285.253 366.773 284.204 366.879 282.845 366.995C280.128 367.227 276.173 367.499 271.214 367.662C261.297 367.986 247.362 367.871 231.285 366.111C199.139 362.592 158.39 352.493 124.087 326.149L123.862 325.976L123.87 325.915C123.857 325.903 123.843 325.891 123.827 325.877C123.679 325.748 123.449 325.562 123.138 325.318C122.517 324.832 121.597 324.136 120.408 323.245C119.8 322.79 119.123 322.284 118.381 321.729C116.224 320.116 113.518 318.094 110.381 315.717C101.948 309.328 90.3886 300.368 77.9128 289.863C53.0571 268.933 24.5082 241.825 9.83695 216.663C9.78419 216.63 9.73849 216.594 9.70571 216.568C9.65082 216.523 9.59015 216.468 9.52559 216.406C9.26932 216.159 8.88459 215.734 8.41753 215.151C7.47997 213.981 6.1838 212.139 4.88881 209.733C0.000496711 200.663 -4.87299 183.522 9.72865 164.152L9.7842 164.079L9.80751 164.064C9.83497 164.032 9.87508 163.985 9.9289 163.921C10.0391 163.788 10.199 163.594 10.4086 163.339C10.497 163.231 10.5941 163.113 10.6997 162.984C11.094 162.503 11.6074 161.877 12.2342 161.118C13.8239 159.191 16.1438 156.402 19.1096 152.927C25.0412 145.977 33.5566 136.281 43.9826 125.24C64.8316 103.161 93.3339 75.6909 124.104 54.0445L124.449 53.8019L124.514 53.8675C124.601 53.8149 124.71 53.7452 124.844 53.6567C125.229 53.402 125.77 53.0229 126.478 52.5276L126.756 52.3326C128.441 51.1531 130.936 49.4163 134.257 47.2849C140.898 43.0221 150.837 37.1838 164.218 31.0564C190.977 18.803 231.493 5.39727 286.921 1.11791C287.902 0.946704 288.898 0.873584 289.893 0.899401C292.036 0.503466 294.21 0.30501 296.388 0.305956L352.417 0.305954C468.219 -0.187063 718.484 -0.00705045 944.621 0.305928L1389.38 0.305909C1394.05 0.305908 1398.66 1.22397 1402.97 3.00803C1407.28 4.79208 1411.19 7.40689 1414.49 10.7033C1417.78 13.9998 1420.4 17.9139 1422.18 22.221C1423.97 26.5281 1424.88 31.145 1424.88 35.8069L1424.89 330.805C1424.89 339.448 1421.74 347.795 1416.03 354.28C1410.41 360.654 1402.7 364.798 1394.29 365.969L1394.29 366.574L287.015 366.575Z" fill="#D6D5D5"/>
</svg>
