<svg width="47" height="48" viewBox="0 0 47 48" fill="none" xmlns="http://www.w3.org/2000/svg">
<g clip-path="url(#clip0_68_14463)">
<path d="M13.3844 1.11073C13.4917 1.10809 13.599 1.10545 13.7095 1.10273C13.8252 1.10203 13.9409 1.10134 14.0601 1.10062C14.1797 1.09918 14.2992 1.09774 14.4224 1.09625C14.6757 1.09364 14.9289 1.09259 15.1822 1.09244C15.5045 1.09196 15.8265 1.08602 16.1488 1.07864C16.4585 1.07268 16.7682 1.0727 17.078 1.07193C17.1925 1.06882 17.3071 1.06571 17.4252 1.0625C18.0461 1.06889 18.3998 1.13791 18.8699 1.55864C19.0073 1.70153 19.1432 1.84588 19.2775 1.99169C19.4292 2.13082 19.582 2.26871 19.7365 2.40478C20.9604 3.50634 22.1844 4.6079 23.4084 5.70947C23.5214 5.81117 23.5214 5.81117 23.6368 5.91493C23.7935 6.05606 23.9501 6.19734 24.1065 6.33878C24.1847 6.40942 24.2629 6.48006 24.3435 6.55285C24.413 6.61568 24.4825 6.67852 24.554 6.74326C24.6303 6.81106 24.7067 6.87886 24.7853 6.94872C24.8272 6.99437 24.8691 7.04001 24.9122 7.08703C25.3085 7.48762 25.6139 7.56333 26.17 7.56876C26.2654 7.56692 26.3608 7.56507 26.4591 7.56318C26.5611 7.56341 26.6632 7.56365 26.7683 7.5639C26.9894 7.56406 27.2105 7.56295 27.4316 7.56071C27.783 7.55719 28.1344 7.55705 28.4858 7.55775C29.1703 7.55853 29.8548 7.55572 30.5393 7.55212C31.4659 7.54733 32.3925 7.54466 33.3192 7.54605C33.6626 7.54577 34.006 7.54269 34.3495 7.53943C36.6018 7.53165 38.5813 7.99432 40.299 9.51904C40.3605 9.56755 40.422 9.61607 40.4854 9.66605C41.9525 10.8478 42.8695 12.7272 43.1447 14.5679C43.2635 15.6809 43.3085 16.7656 42.5939 17.689C42.1658 18.1864 41.554 18.5393 40.9025 18.642C40.6667 18.6565 40.4334 18.6603 40.1971 18.6589C40.1118 18.6595 40.0264 18.6601 39.9385 18.6606C39.7595 18.6613 39.5805 18.661 39.4016 18.6598C39.128 18.6586 38.8546 18.6617 38.581 18.6652C38.4064 18.6653 38.2318 18.6651 38.0571 18.6647C37.9757 18.6659 37.8944 18.6671 37.8105 18.6683C37.4005 18.6622 37.2305 18.6479 36.8972 18.3882C36.7038 18.1276 36.6565 18.0094 36.6615 17.689C36.6603 17.6132 36.6592 17.5375 36.6579 17.4595C36.7478 17.1213 36.9073 16.9894 37.1779 16.771C37.4379 16.7265 37.6438 16.7089 37.9029 16.7125C37.9721 16.7116 38.0412 16.7106 38.1124 16.7097C38.3326 16.7069 38.5527 16.7072 38.7729 16.7079C38.9923 16.7071 39.2118 16.7056 39.4313 16.7032C39.5675 16.7018 39.7037 16.7014 39.8399 16.7022C40.2753 16.6998 40.6296 16.6507 41.0334 16.4956C41.1417 16.1704 41.1373 15.909 41.1366 15.5662C41.137 15.3926 41.137 15.3926 41.1373 15.2155C41.1326 14.9434 41.1098 14.6772 41.0785 14.4069C41.0659 14.2969 41.0659 14.2969 41.053 14.1847C41.0465 14.1294 41.04 14.0741 41.0334 14.0171C40.9587 14.0179 40.8841 14.0187 40.8073 14.0196C40.0997 14.027 39.3922 14.0325 38.6847 14.0361C38.321 14.038 37.9574 14.0406 37.5938 14.0448C37.242 14.0488 36.8903 14.051 36.5385 14.0519C36.4051 14.0526 36.2718 14.0539 36.1385 14.0559C34.6921 14.0767 33.5098 13.7031 32.4274 12.7147C31.7077 11.9431 31.1899 10.9234 31.205 9.85825C31.2063 9.73651 31.2063 9.73651 31.2077 9.61231C31.2088 9.55124 31.2099 9.49016 31.2111 9.42724C31.1578 9.42741 31.1046 9.42759 31.0497 9.42777C27.8954 9.43804 24.741 9.44591 21.5867 9.45068C21.2081 9.45125 20.8294 9.45185 20.4508 9.45245C20.3755 9.45257 20.3001 9.45269 20.2224 9.45282C19.0014 9.45481 17.7804 9.45843 16.5593 9.46265C15.3068 9.46694 14.0542 9.46949 12.8016 9.47042C12.0285 9.47106 11.2554 9.47305 10.4823 9.47677C9.95238 9.47919 9.42249 9.47993 8.89259 9.47933C8.58667 9.47904 8.28085 9.47975 7.97494 9.48195C7.64342 9.48423 7.31203 9.48369 6.98051 9.48243C6.88362 9.48377 6.78673 9.48511 6.68691 9.48649C6.03424 9.47977 6.03424 9.47977 5.68143 9.20433C5.39412 8.81333 5.39412 8.81333 5.30595 8.66106C5.27314 8.60525 5.24033 8.54944 5.20652 8.49193C5.15587 8.40342 5.15587 8.40342 5.1042 8.31313C5.06766 8.25075 5.03112 8.18838 4.99347 8.12411C4.87743 7.92586 4.76233 7.72707 4.64737 7.52819C3.89752 5.95299 3.89752 5.95299 2.66226 4.92919C2.38752 4.88905 2.11277 4.8603 1.83609 4.8374C1.84389 5.65145 1.85262 6.46548 1.86248 7.27951C1.86703 7.65764 1.87129 8.03577 1.87481 8.41391C1.87824 8.77997 1.88251 9.14602 1.88732 9.51207C1.889 9.65056 1.89039 9.78906 1.89147 9.92756C1.90783 11.9515 2.17599 13.6412 3.60892 15.1875C4.92845 16.427 6.52663 16.6878 8.2664 16.698C8.36323 16.6989 8.46006 16.6999 8.55982 16.7008C8.8767 16.7037 9.19357 16.706 9.51045 16.7082C9.73141 16.7101 9.95238 16.7121 10.1733 16.714C10.7525 16.7191 11.3317 16.7236 11.9109 16.728C12.5029 16.7327 13.0949 16.7378 13.6868 16.7428C14.8466 16.7527 16.0064 16.762 17.1662 16.771C17.193 16.7014 17.2198 16.6319 17.2474 16.5602C17.3735 16.2544 17.538 15.9788 17.7112 15.6981C17.7431 15.6448 17.775 15.5915 17.8078 15.5366C17.9744 15.2652 18.0901 15.1146 18.3595 14.9351C18.8121 14.8622 19.1681 14.8694 19.5644 15.1072C19.8141 15.5234 19.828 15.8366 19.7365 16.312C19.5197 16.7932 19.243 17.2316 18.9619 17.6775C18.8821 17.8075 18.8024 17.9377 18.7229 18.068C18.5601 18.3341 18.3962 18.5995 18.2314 18.8643C18.0109 19.2189 17.7934 19.5752 17.5775 19.9326C17.5449 19.9865 17.5123 20.0404 17.4787 20.096C17.414 20.2029 17.3494 20.3099 17.2847 20.4169C17.1268 20.6777 16.968 20.938 16.8094 21.1984C16.315 22.0108 15.8262 22.8266 15.3376 23.6425C15.2846 23.731 15.2316 23.8196 15.177 23.9108C15.1367 23.9781 15.0964 24.0454 15.0548 24.1147C16.0808 24.2399 17.1302 24.3046 17.9987 23.6703C18.5261 23.2229 19.0017 22.7272 19.4725 22.2216C19.7106 21.9687 19.9554 21.7225 20.1995 21.4754C20.659 21.0084 21.1124 20.5358 21.5637 20.0609C22.0777 19.5206 22.598 18.9866 23.119 18.4531C23.7544 17.8026 24.3891 17.1513 25.0183 16.4947C25.0625 16.4485 25.1068 16.4024 25.1525 16.3548C25.3597 16.1387 25.5666 15.9223 25.773 15.7055C25.8449 15.6305 25.9167 15.5555 25.9908 15.4781C26.0531 15.4128 26.1154 15.3474 26.1796 15.28C26.4712 14.9969 26.6698 14.9052 27.0688 14.8949C27.4055 14.9042 27.5288 14.9288 27.8261 15.1072C28.0627 15.5015 28.086 15.8618 27.9982 16.312C27.9095 16.4367 27.818 16.5594 27.7228 16.6792C27.7844 16.6796 27.8459 16.6799 27.9093 16.6803C28.1896 16.6834 28.4696 16.6898 28.7498 16.6964C28.8951 16.6972 28.8951 16.6972 29.0433 16.698C29.7589 16.7183 29.7589 16.7183 30.1278 16.9765C30.3017 17.2431 30.3554 17.3741 30.3505 17.689C30.3517 17.7647 30.3529 17.8404 30.3541 17.9185C30.2628 18.262 30.1154 18.392 29.8341 18.6069C29.556 18.6378 29.2938 18.5898 29.0184 18.5478C27.4441 18.3837 25.9912 18.3231 24.706 19.3642C23.7844 20.1583 22.9674 21.0644 22.1591 21.9709C21.7704 22.4022 21.3698 22.822 20.97 23.2428C20.3289 23.92 19.6948 24.6028 19.0719 25.2967C19.018 25.3563 18.9641 25.4159 18.9086 25.4773C18.8621 25.5291 18.8156 25.581 18.7677 25.6344C18.4602 25.9418 18.2487 25.9745 17.8299 25.9788C17.7212 25.9803 17.6124 25.9817 17.5003 25.9832C17.3827 25.9837 17.2651 25.9842 17.1439 25.9847C17.0232 25.9856 16.9024 25.9864 16.778 25.9873C16.5222 25.9888 16.2665 25.9895 16.0108 25.9897C15.6836 25.9902 15.3566 25.9937 15.0295 25.9979C14.7169 26.0013 14.4043 26.0014 14.0917 26.002C13.9158 26.0046 13.9158 26.0046 13.7364 26.0074C12.8323 26.0028 12.8323 26.0028 12.5505 25.7345C12.3639 25.4474 12.3009 25.2843 12.3009 24.9409C12.4647 24.5186 12.6598 24.1345 12.8897 23.7436C12.9198 23.6924 12.9498 23.6411 12.9808 23.5883C13.0789 23.4212 13.1775 23.2545 13.2763 23.0878C13.3452 22.9708 13.4141 22.8537 13.483 22.7367C14.1605 21.5885 14.8523 20.4491 15.5477 19.3117C15.6904 19.0774 15.8318 18.8423 15.9728 18.6069C15.8528 18.6077 15.7328 18.6086 15.6092 18.6094C14.4735 18.6169 13.3378 18.6224 12.2022 18.626C11.6184 18.6279 11.0347 18.6304 10.4509 18.6346C9.88669 18.6386 9.32245 18.6408 8.75818 18.6418C8.54384 18.6424 8.3295 18.6438 8.11517 18.6458C6.64274 18.6589 5.33169 18.5975 4.00479 17.8898C3.94341 17.8579 3.88203 17.8259 3.8188 17.7931C3.32779 17.5312 2.88997 17.2396 2.47867 16.8628C2.39572 16.7872 2.31276 16.7116 2.2273 16.6337C0.873044 15.3417 0.0229108 13.6234 -0.0438274 11.7402C-0.0526454 11.2835 -0.0532005 10.8271 -0.0518437 10.3703C-0.0523252 10.1717 -0.0529017 9.97305 -0.053568 9.77443C-0.0545171 9.36105 -0.0541122 8.9477 -0.0527626 8.53433C-0.0511748 8.00473 -0.0533569 7.47522 -0.0565711 6.94563C-0.0585848 6.53676 -0.0584572 6.1279 -0.0576945 5.71903C-0.0576193 5.52366 -0.0582485 5.32829 -0.0596008 5.13292C-0.0611984 4.86073 -0.0598713 4.5887 -0.0577827 4.31651C-0.058856 4.2362 -0.0599293 4.1559 -0.0610352 4.07316C-0.0547763 3.67262 -0.0369786 3.50892 0.214064 3.18116C0.530457 2.94916 0.724081 2.94226 1.11426 2.9405C1.20782 2.93984 1.20782 2.93984 1.30328 2.93917C1.43498 2.93886 1.56668 2.9397 1.69837 2.94162C1.89714 2.94406 2.09542 2.94165 2.29418 2.93871C3.22739 2.93594 3.9317 3.09534 4.64378 3.73045C5.09466 4.21871 5.41382 4.81224 5.74893 5.38244C5.81721 5.49718 5.88558 5.61187 5.95404 5.7265C6.05319 5.89257 6.15221 6.05871 6.25066 6.2252C6.42712 6.52351 6.60816 6.818 6.79527 7.10973C6.97671 7.40771 6.97671 7.40771 6.97671 7.5913C11.2026 7.54586 11.2026 7.54586 15.5138 7.49951C14.5861 5.99724 14.5861 5.99724 13.6435 4.50463C13.3372 4.02485 13.3372 4.02485 13.1892 3.79204C13.0801 3.62198 12.9694 3.45288 12.8577 3.28447C12.7996 3.19605 12.7416 3.10762 12.6817 3.01652C12.6021 2.89682 12.6021 2.89682 12.5209 2.7747C12.3293 2.42751 12.2771 2.18965 12.364 1.80236C12.5921 1.29205 12.8272 1.12064 13.3844 1.11073ZM15.0548 3.00146C15.3832 3.61166 15.7413 4.19751 16.1162 4.78002C16.2197 4.94136 16.3231 5.10272 16.4264 5.26411C16.4851 5.35107 16.5438 5.43804 16.6042 5.52764C16.7642 5.77516 16.8839 6.0299 17.0041 6.29882C17.4024 7.15583 17.4024 7.15583 18.1458 7.68168C18.8502 7.80898 19.5547 7.75041 20.2643 7.70031C20.4804 7.69155 20.6965 7.68359 20.9126 7.67647C21.4393 7.65735 21.9647 7.62828 22.4904 7.5913C22.4024 7.4876 22.3142 7.38403 22.226 7.2805C22.1769 7.22281 22.1278 7.16512 22.0772 7.10568C21.9306 6.93851 21.7778 6.79246 21.6068 6.65038C21.2825 6.37453 20.9673 6.08999 20.6544 5.80126C20.3515 5.52226 20.0477 5.24483 19.7365 4.97509C19.3347 4.62691 18.945 4.26582 18.5546 3.90508C18.5084 3.86421 18.4623 3.82333 18.4147 3.78122C18.2677 3.64404 18.2677 3.64404 18.115 3.47082C17.7381 3.07477 17.4694 2.95862 16.9195 2.93871C16.6956 2.94294 16.4718 2.95055 16.2482 2.9613C16.1333 2.9642 16.0184 2.9671 15.9 2.97008C15.6181 2.97762 15.3366 2.98815 15.0548 3.00146ZM33.1388 9.42724C33.1138 10.2192 33.3565 10.8122 33.8958 11.3948C34.7258 12.1361 35.7468 12.2106 36.8143 12.1991C36.9067 12.1988 36.9991 12.1986 37.0944 12.1983C37.3861 12.1973 37.6779 12.195 37.9696 12.1926C38.1689 12.1917 38.3681 12.1909 38.5674 12.1901C39.0528 12.1881 39.5382 12.185 40.0236 12.1811C39.2604 10.8722 37.9256 10.0611 36.498 9.63701C36.2967 9.58846 36.0973 9.55074 35.8927 9.51904C35.7985 9.50377 35.7985 9.50377 35.7023 9.4882C34.8556 9.37885 33.9908 9.41918 33.1388 9.42724Z" fill="#133769"/>
<path d="M40.0032 20.0662C40.0532 20.08 40.1031 20.0938 40.1546 20.108C41.6036 20.5207 42.7878 21.2233 43.8815 22.2556C43.9277 22.2976 43.9738 22.3397 44.0213 22.3831C45.1241 23.4272 45.7965 24.8118 46.196 26.259C46.214 26.3229 46.214 26.3229 46.2324 26.3881C46.5534 27.5903 46.533 29.1925 46.196 30.3875C46.1822 30.4374 46.1684 30.4874 46.1542 30.5388C45.7416 31.9879 45.0389 33.172 44.0066 34.2658C43.9646 34.3119 43.9225 34.3581 43.8791 34.4056C42.835 35.5084 41.4505 36.1807 40.0032 36.5803C39.9393 36.5983 39.9393 36.5983 39.8741 36.6167C38.6719 36.9377 37.0697 36.9173 35.8747 36.5803C35.8248 36.5665 35.7748 36.5527 35.7234 36.5385C34.2743 36.1258 33.0902 35.4231 31.9964 34.3909C31.9503 34.3488 31.9041 34.3067 31.8566 34.2634C30.7539 33.2193 30.0815 31.8347 29.6819 30.3875C29.6699 30.3449 29.6579 30.3023 29.6455 30.2584C29.3245 29.0562 29.3449 27.454 29.6819 26.259C29.7026 26.1841 29.7026 26.1841 29.7237 26.1076C30.1364 24.6586 30.8391 23.4744 31.8713 22.3807C31.9134 22.3345 31.9555 22.2884 31.9988 22.2409C33.0429 21.1381 34.4275 20.4657 35.8747 20.0662C35.9386 20.0482 35.9386 20.0482 36.0038 20.0298C37.206 19.7088 38.8082 19.7292 40.0032 20.0662ZM32.8999 23.2277C32.8701 23.2578 32.8403 23.2879 32.8096 23.319C32.7551 23.3721 32.7006 23.4252 32.6444 23.48C31.2397 24.9223 30.7652 26.829 30.7905 28.786C30.8044 29.3468 30.8855 29.8551 31.0581 30.3875C31.0715 30.4301 31.0849 30.4728 31.0987 30.5167C31.6646 32.2738 32.9217 33.7875 34.5512 34.6605C35.3089 35.0463 36.1522 35.3608 37.0007 35.4543C37.0733 35.4626 37.146 35.4709 37.2208 35.4795C39.1551 35.6511 40.9831 35.0618 42.4936 33.8592C43.8739 32.6865 44.8439 31.0801 45.0701 29.2615C45.0897 28.9577 45.0939 28.6551 45.0935 28.3506C45.0935 28.3094 45.0934 28.2681 45.0934 28.2257C45.0908 27.5388 45.0316 26.9122 44.8198 26.259C44.8064 26.2163 44.793 26.1737 44.7792 26.1298C44.2128 24.3711 42.9617 22.8632 41.3312 21.9905C40.572 21.6021 39.7286 21.2859 38.8773 21.1921C38.8046 21.1838 38.732 21.1755 38.6571 21.167C36.5277 20.978 34.4081 21.7073 32.8999 23.2277Z" fill="#133769"/>
<path d="M34.9231 24.3892C35.0562 24.4826 35.0562 24.4826 35.1916 24.6104C35.2446 24.6602 35.2975 24.7101 35.3521 24.7614C35.4133 24.8208 35.4743 24.8804 35.5352 24.9401C35.5697 24.974 35.6043 25.0078 35.6399 25.0427C35.9156 25.3138 36.1884 25.5877 36.4609 25.862C36.5436 25.9451 36.6264 26.0281 36.7091 26.1111C36.9096 26.3123 37.11 26.5136 37.3102 26.7151C37.4984 26.6313 37.6264 26.536 37.7709 26.3897C37.812 26.3485 37.853 26.3072 37.8953 26.2647C37.9609 26.1979 37.9609 26.1979 38.0277 26.1298C38.0731 26.0841 38.1185 26.0384 38.1653 25.9913C38.3103 25.8452 38.4549 25.6987 38.5994 25.5522C38.7442 25.4057 38.889 25.2593 39.0341 25.1131C39.1243 25.0221 39.2144 24.931 39.3043 24.8397C39.3451 24.7984 39.386 24.7571 39.4281 24.7146C39.4639 24.6783 39.4997 24.642 39.5366 24.6046C39.782 24.3753 39.9595 24.358 40.2816 24.367C40.4318 24.3892 40.4318 24.3892 40.6231 24.504C40.7918 24.7852 40.8157 24.9893 40.7378 25.3073C40.6445 25.4405 40.6445 25.4405 40.5167 25.5759C40.4419 25.6553 40.4419 25.6553 40.3656 25.7364C40.3062 25.7976 40.2466 25.8586 40.1869 25.9194C40.1531 25.954 40.1192 25.9886 40.0844 26.0242C39.8132 26.2999 39.5393 26.5727 39.265 26.8452C39.182 26.9279 39.099 27.0106 39.016 27.0934C38.8148 27.2939 38.6134 27.4942 38.4119 27.6945C38.4958 27.8827 38.591 28.0107 38.7373 28.1552C38.7992 28.2168 38.7992 28.2168 38.8624 28.2796C38.9291 28.3451 38.9291 28.3451 38.9972 28.412C39.0429 28.4574 39.0887 28.5028 39.1358 28.5496C39.2819 28.6946 39.4283 28.8391 39.5749 28.9836C39.7213 29.1284 39.8677 29.2733 40.0139 29.4184C40.1049 29.5086 40.1961 29.5987 40.2874 29.6885C40.3493 29.7498 40.3493 29.7498 40.4124 29.8124C40.4487 29.8482 40.4851 29.884 40.5225 29.9209C40.7517 30.1663 40.769 30.3437 40.7601 30.6659C40.7378 30.8161 40.7378 30.8161 40.6231 31.0073C40.3418 31.1761 40.1378 31.2 39.8197 31.1221C39.6866 31.0288 39.6866 31.0288 39.5512 30.9009C39.4982 30.8511 39.4452 30.8012 39.3906 30.7499C39.3295 30.6905 39.2685 30.6309 39.2076 30.5712C39.1731 30.5374 39.1385 30.5035 39.1029 30.4686C38.8272 30.1975 38.5544 29.9236 38.2819 29.6493C38.1991 29.5663 38.1164 29.4833 38.0337 29.4003C37.8331 29.1991 37.6328 28.9977 37.4326 28.7962C37.2443 28.8801 37.1163 28.9753 36.9718 29.1216C36.9103 29.1835 36.9103 29.1835 36.8474 29.2466C36.8038 29.2911 36.7601 29.3356 36.7151 29.3815C36.6697 29.4272 36.6243 29.473 36.5775 29.5201C36.4325 29.6661 36.2879 29.8126 36.1434 29.9591C35.9986 30.1056 35.8537 30.252 35.7087 30.3982C35.6185 30.4892 35.5284 30.5803 35.4385 30.6717C35.3772 30.7336 35.3772 30.7336 35.3147 30.7967C35.261 30.8512 35.261 30.8512 35.2061 30.9068C34.9608 31.136 34.7833 31.1533 34.4611 31.1443C34.311 31.1221 34.311 31.1221 34.1197 31.0073C33.951 30.7261 33.927 30.522 34.005 30.204C34.0983 30.0709 34.0983 30.0709 34.2261 29.9355C34.276 29.8825 34.3258 29.8295 34.3772 29.7749C34.4366 29.7138 34.4961 29.6528 34.5558 29.5919C34.5897 29.5573 34.6235 29.5228 34.6584 29.4872C34.9295 29.2115 35.2035 28.9387 35.4778 28.6661C35.5608 28.5834 35.6438 28.5007 35.7268 28.418C35.928 28.2174 36.1294 28.0171 36.3309 27.8169C36.247 27.6286 36.1518 27.5006 36.0054 27.3561C35.9642 27.3151 35.9229 27.274 35.8804 27.2317C35.8359 27.188 35.7914 27.1444 35.7456 27.0994C35.6998 27.0539 35.6541 27.0085 35.607 26.9617C35.4609 26.8168 35.3144 26.6722 35.1679 26.5277C35.0214 26.3829 34.875 26.238 34.7288 26.093C34.6378 26.0027 34.5467 25.9127 34.4554 25.8228C34.4141 25.7819 34.3729 25.7411 34.3304 25.699C34.294 25.6631 34.2577 25.6273 34.2203 25.5904C33.991 25.3451 33.9738 25.1676 33.9827 24.8454C34.005 24.6953 34.005 24.6953 34.1197 24.504C34.4009 24.3353 34.605 24.3113 34.9231 24.3892Z" fill="#133769"/>
<path d="M33.965 16.7706C34.2518 16.9427 34.2518 16.9427 34.4239 17.2296C34.5147 17.691 34.4953 18.0287 34.2518 18.4344C33.8461 18.6779 33.5084 18.6973 33.047 18.6066C32.7601 18.4344 32.7601 18.4344 32.588 18.1476C32.4972 17.6862 32.5167 17.3485 32.7601 16.9427C33.1659 16.6993 33.5036 16.6799 33.965 16.7706Z" fill="#133769"/>
<path d="M27.5392 11.2628C27.826 11.4349 27.826 11.4349 27.9982 11.7218C28.0889 12.1832 28.0695 12.5209 27.826 12.9266C27.4203 13.1701 27.0826 13.1895 26.6212 13.0988C26.3343 12.9266 26.3343 12.9266 26.1622 12.6398C26.0715 12.1784 26.0909 11.8407 26.3343 11.4349C26.7401 11.1915 27.0778 11.172 27.5392 11.2628Z" fill="#133769"/>
<path d="M23.4083 11.2628C23.6952 11.4349 23.6952 11.4349 23.8673 11.7218C23.9581 12.1832 23.9386 12.5209 23.6952 12.9266C23.2895 13.1701 22.9517 13.1895 22.4904 13.0988C22.2035 12.9266 22.2035 12.9266 22.0314 12.6398C21.9406 12.1784 21.96 11.8407 22.2035 11.4349C22.6092 11.1915 22.9469 11.172 23.4083 11.2628Z" fill="#133769"/>
<path d="M19.2775 11.2628C19.5643 11.4349 19.5643 11.4349 19.7364 11.7218C19.8272 12.1832 19.8078 12.5209 19.5643 12.9266C19.1586 13.1701 18.8209 13.1895 18.3595 13.0988C18.0726 12.9266 18.0726 12.9266 17.9005 12.6398C17.8097 12.1784 17.8292 11.8407 18.0726 11.4349C18.4784 11.1915 18.8161 11.172 19.2775 11.2628Z" fill="#133769"/>
<path d="M15.1466 11.2628C15.4335 11.4349 15.4335 11.4349 15.6056 11.7218C15.6964 12.1832 15.6769 12.5209 15.4335 12.9266C15.0277 13.1701 14.69 13.1895 14.2286 13.0988C13.9418 12.9266 13.9418 12.9266 13.7696 12.6398C13.6789 12.1784 13.6983 11.8407 13.9418 11.4349C14.3475 11.1915 14.6852 11.172 15.1466 11.2628Z" fill="#133769"/>
<path d="M11.0157 11.2628C11.3026 11.4349 11.3026 11.4349 11.4747 11.7218C11.5655 12.1832 11.546 12.5209 11.3026 12.9266C10.8969 13.1701 10.5592 13.1895 10.0978 13.0988C9.81091 12.9266 9.81091 12.9266 9.63879 12.6398C9.54802 12.1784 9.56747 11.8407 9.81091 11.4349C10.2166 11.1915 10.5544 11.172 11.0157 11.2628Z" fill="#133769"/>
</g>
<defs>
<clipPath id="clip0_68_14463">
<rect width="47" height="47" fill="white" transform="translate(0 0.155273)"/>
</clipPath>
</defs>
</svg>
