<svg width="47" height="48" viewBox="0 0 47 48" fill="none" xmlns="http://www.w3.org/2000/svg">
<path d="M33.3447 1.62071C33.4808 1.69791 33.4808 1.69791 33.6197 1.77666C34.305 2.30797 34.7954 2.90686 34.9845 3.77177C35.1156 5.85643 34.4128 7.65553 33.038 9.2287C32.66 9.63982 32.2386 10.0099 31.8268 10.3868C31.4585 10.7261 31.0968 11.0725 30.7339 11.4175C30.4167 11.7183 30.0975 12.0164 29.7731 12.3097C28.2592 13.5373 28.2592 13.5373 27.4635 15.2011C27.5188 15.6615 27.6956 16.0747 27.8695 16.5018C28.1199 17.1608 28.2279 17.8699 28.3699 18.558C28.4666 19.0204 28.57 19.4813 28.6728 19.9424C28.7151 20.1328 28.7573 20.3233 28.7995 20.5138C28.8206 20.6085 28.8416 20.7033 28.8632 20.801C28.9682 21.2743 29.073 21.7477 29.1779 22.2212C29.1984 22.3139 29.2189 22.4066 29.2401 22.5022C29.3422 22.9634 29.4442 23.4246 29.5458 23.8859C29.5853 24.0653 29.6248 24.2447 29.6644 24.4241C29.6836 24.5113 29.7028 24.5984 29.7226 24.6882C29.8317 25.1825 29.9424 25.6764 30.0549 26.17C30.1213 26.462 30.1868 26.7542 30.2522 27.0464C30.2821 27.1788 30.3124 27.3111 30.3431 27.4432C30.8138 29.4685 30.8138 29.4685 30.3509 30.3571C29.9368 30.9929 29.3454 31.5271 28.8136 32.0636C28.7432 32.1363 28.6727 32.209 28.6002 32.2839C28.051 32.8371 27.643 33.1474 26.8339 33.1553C26.2959 33.1405 25.9753 33.0384 25.5771 32.682C25.1345 32.1829 24.8425 31.6089 24.5489 31.0151C24.5008 30.9194 24.4528 30.8236 24.4033 30.7249C24.2728 30.4646 24.143 30.204 24.0134 29.9432C23.8774 29.6699 23.7406 29.397 23.6039 29.124C23.3457 28.6081 23.0882 28.0918 22.8309 27.5754C22.5378 26.9871 22.2439 26.3992 21.9499 25.8113C21.3457 24.6029 20.7424 23.3941 20.1398 22.1849C20.1004 22.2187 20.061 22.2526 20.0204 22.2875C19.7412 22.527 19.4609 22.764 19.1729 22.993C16.9333 24.7951 16.9333 24.7951 15.9182 27.3803C15.8461 28.0926 15.8202 28.8144 15.8457 29.53C15.861 30.1445 15.7525 30.7438 15.3282 31.2152C14.8217 31.6788 14.3441 31.7762 13.6672 31.7621C13.0533 31.6993 12.7168 31.4152 12.3341 30.9578C12.1157 30.6837 11.9141 30.3992 11.7142 30.1115C11.6236 29.9825 11.5331 29.8534 11.4425 29.7243C11.3966 29.6587 11.3506 29.593 11.3033 29.5254C11.0781 29.2037 10.8514 28.8832 10.6246 28.5628C10.5818 28.5021 10.539 28.4414 10.4948 28.3789C10.1873 27.9441 9.87304 27.515 9.55251 27.0896C9.43789 26.9172 9.43789 26.9172 9.43789 26.7451C9.3797 26.7264 9.32152 26.7076 9.26157 26.6883C8.92764 26.5375 8.6635 26.3288 8.37525 26.1052C7.90169 25.7441 7.42298 25.3956 6.92962 25.0619C6.46324 24.7445 5.99763 24.4263 5.53794 24.0993C5.45874 24.0446 5.45874 24.0446 5.37795 23.9889C4.91752 23.6578 4.54582 23.27 4.43214 22.7011C4.35061 22.0393 4.47678 21.5273 4.86367 20.9803C5.24055 20.5992 5.72117 20.3887 6.26001 20.3722C6.39838 20.3769 6.53672 20.3828 6.67501 20.3895C8.3528 20.4675 9.90344 20.3531 11.1967 19.2019C12.2139 18.2682 13.1342 17.225 14.0121 16.1619C13.773 15.9738 13.5359 15.8282 13.263 15.6938C13.1822 15.6538 13.1014 15.6138 13.0182 15.5726C12.9301 15.5294 12.842 15.4862 12.7513 15.4417C12.6581 15.3956 12.5649 15.3496 12.4688 15.3021C12.2664 15.2021 12.0639 15.1022 11.8613 15.0025C11.5404 14.8445 11.2198 14.6859 10.8992 14.5271C9.98778 14.0756 9.07606 13.6247 8.16361 13.1753C7.65938 12.9269 7.15553 12.6778 6.65208 12.4279C6.38607 12.2958 6.11988 12.1642 5.85321 12.0335C5.55527 11.8873 5.258 11.7398 4.96085 11.592C4.87349 11.5495 4.78612 11.507 4.69612 11.4632C4.01608 11.1223 3.3116 10.72 3.05124 9.96683C3.01079 9.67711 3.01079 9.67711 3.00809 9.37529C3.00542 9.27613 3.00275 9.17697 3 9.07481C3.12799 8.29413 3.74129 7.773 4.28389 7.23685C4.41019 7.11166 4.5348 6.98495 4.65937 6.85804C5.32001 6.1944 5.95643 5.66788 6.92311 5.63454C7.78419 5.64337 8.62007 5.87316 9.45576 6.06131C9.64472 6.10302 9.8337 6.14463 10.0227 6.18616C10.422 6.27409 10.8212 6.36269 11.2203 6.45182C11.8391 6.59003 12.4583 6.72659 13.0776 6.8629C14.6142 7.20142 16.1503 7.54234 17.6857 7.8862C18.1986 8.00104 18.7116 8.11502 19.2248 8.22866C19.5133 8.293 19.8015 8.35871 20.0897 8.42454C20.258 8.46199 20.4263 8.49939 20.5946 8.53671C20.6679 8.5539 20.7412 8.57109 20.8167 8.5888C21.1633 8.67162 21.1633 8.67162 21.509 8.62436C21.7765 8.44984 21.9903 8.22754 22.2125 8.00063C22.2892 7.92336 22.2892 7.92336 22.3675 7.84452C22.4784 7.73264 22.5892 7.62057 22.6999 7.50833C22.876 7.32978 23.0526 7.15186 23.2295 6.9741C23.7324 6.46858 24.2343 5.96214 24.7354 5.45485C25.0422 5.14427 25.35 4.83457 25.6582 4.52536C25.7746 4.40825 25.8907 4.29082 26.0065 4.17303C27.7207 2.4286 30.8057 0.16643 33.3447 1.62071ZM26.925 6.38474C26.7547 6.55648 26.584 6.72785 26.4132 6.89913C25.9284 7.38528 25.444 7.87182 24.9605 8.35921C24.6627 8.65932 24.3643 8.95881 24.0655 9.25789C23.9524 9.37127 23.8396 9.48489 23.7271 9.59875C23.5702 9.75744 23.4125 9.91532 23.2546 10.073C23.2089 10.1197 23.1632 10.1664 23.116 10.2144C22.6505 10.6761 22.1841 10.9144 21.5207 10.9133C21.1997 10.8763 20.8875 10.8103 20.5721 10.7413C20.4786 10.7217 20.3852 10.7022 20.289 10.682C19.98 10.617 19.6716 10.5502 19.3631 10.4831C19.1483 10.4369 18.9335 10.3908 18.7187 10.3447C18.0719 10.2051 17.4256 10.0633 16.7794 9.92106C16.456 9.84995 16.1326 9.77913 15.8091 9.70829C14.8533 9.49892 13.8976 9.28917 12.9419 9.07922C12.1938 8.91487 11.4456 8.75065 10.6974 8.58686C10.3145 8.50303 9.93163 8.41891 9.54884 8.33458C9.31122 8.2823 9.07355 8.23028 8.83586 8.17832C8.67435 8.14294 8.5129 8.10725 8.35146 8.07155C7.48196 7.8177 7.48196 7.8177 6.64356 7.92965C6.58933 7.98668 6.53509 8.04371 6.47921 8.10247C6.41913 8.16408 6.35906 8.22569 6.29716 8.28917C6.20704 8.38758 6.20704 8.38758 6.11511 8.48798C6.05236 8.55258 5.98961 8.61719 5.92496 8.68376C5.59672 8.97838 5.59672 8.97838 5.46781 9.36453C5.55716 9.40897 5.6465 9.45342 5.73856 9.4992C6.58783 9.92166 7.43701 10.3443 8.2861 10.7671C8.72244 10.9844 9.15882 11.2016 9.59527 11.4187C10.0178 11.6289 10.4403 11.8392 10.8628 12.0497C11.0225 12.1293 11.1823 12.2088 11.3422 12.2882C12.2886 12.7586 13.2292 13.2381 14.1634 13.7323C14.6245 13.9757 15.0904 14.2094 15.5568 14.4424C15.9876 14.7171 16.2838 15.0603 16.4287 15.5596C16.5092 16.1844 16.4433 16.6765 16.0835 17.1944C15.5783 17.7909 15.028 18.3464 14.475 18.8984C14.3988 18.9747 14.3226 19.051 14.244 19.1296C14.0844 19.2892 13.9246 19.4487 13.7647 19.608C13.6017 19.7707 13.4389 19.9335 13.2764 20.0967C13.0398 20.334 12.8027 20.5708 12.5655 20.8075C12.4932 20.8802 12.4209 20.9529 12.3464 21.0278C11.5664 21.8024 10.9198 22.0911 9.832 22.1909C9.71834 22.202 9.71834 22.202 9.60239 22.2133C9.3624 22.2366 9.12235 22.2592 8.88229 22.2817C8.71872 22.2974 8.55516 22.3132 8.3916 22.3291C7.99243 22.3676 7.5932 22.4055 7.19393 22.443C7.315 22.8051 7.57749 22.9247 7.88438 23.1259C8.01041 23.2104 8.13639 23.295 8.26231 23.3797C8.32785 23.4236 8.39339 23.4674 8.46092 23.5126C8.97078 23.8563 9.47239 24.2121 9.97283 24.5693C10.1045 24.6631 10.2367 24.756 10.369 24.8488C11.348 25.5632 11.9734 26.6716 12.6559 27.6516C12.871 27.9599 13.0876 28.2672 13.3055 28.5735C13.3412 28.6243 13.377 28.6751 13.4138 28.7274C13.496 28.8426 13.5811 28.9557 13.6669 29.0683C13.6954 29.0683 13.7238 29.0683 13.7532 29.0683C13.7645 28.9572 13.7757 28.8461 13.7873 28.7316C13.8297 28.3171 13.8739 27.9028 13.9186 27.4886C13.9376 27.3097 13.9562 27.1308 13.9743 26.9518C14.0005 26.6936 14.0284 26.4357 14.0566 26.1778C14.0643 26.0985 14.0719 26.0193 14.0798 25.9376C14.2012 24.8702 14.7613 24.3124 15.5053 23.579C15.6021 23.4825 15.6988 23.3859 15.7955 23.2893C15.9976 23.0877 16.2002 22.8867 16.4034 22.6862C16.6627 22.4301 16.9206 22.1728 17.1781 21.9149C17.3775 21.7156 17.5775 21.5169 17.7777 21.3184C17.873 21.2237 17.9681 21.1289 18.0631 21.0339C18.1962 20.9009 18.3302 20.7688 18.4644 20.6369C18.5402 20.5617 18.616 20.4866 18.6941 20.4092C19.2225 19.9567 19.745 19.7337 20.4416 19.7474C20.8594 19.802 21.1825 19.9596 21.5207 20.2059C21.6569 20.3858 21.6569 20.3858 21.7742 20.5915C21.818 20.6681 21.8618 20.7447 21.9069 20.8237C22.1264 21.2281 22.3359 21.6367 22.541 22.0486C22.5882 22.1427 22.6355 22.2369 22.6841 22.3338C22.812 22.5889 22.9396 22.8442 23.067 23.0995C23.2008 23.3674 23.3351 23.6351 23.4692 23.9029C23.7226 24.4085 23.9756 24.9144 24.2285 25.4203C24.5166 25.9969 24.8052 26.5732 25.0938 27.1495C25.6869 28.3338 26.2795 29.5184 26.8717 30.7031C27.2565 30.5166 27.5397 30.2758 27.8534 29.9878C27.9109 29.9405 27.9685 29.8932 28.0277 29.8445C28.2068 29.6773 28.3147 29.5455 28.4252 29.3264C28.4245 29.0769 28.4245 29.0769 28.3677 28.8105C28.3497 28.7112 28.3317 28.6118 28.3132 28.5095C28.2932 28.4099 28.2732 28.3104 28.2526 28.2078C28.2352 28.1206 28.2179 28.0335 28.2 27.9436C28.1448 27.6773 28.0865 27.4117 28.0273 27.1462C28.0054 27.0466 27.9835 26.9469 27.9609 26.8442C27.889 26.5178 27.8166 26.1915 27.7442 25.8652C27.6934 25.6351 27.6427 25.405 27.5919 25.1748C27.4721 24.6315 27.3519 24.0883 27.2316 23.545C27.0966 22.9356 26.9621 22.326 26.8275 21.7164C26.6391 20.8624 26.4504 20.0085 26.2615 19.1546C26.2158 18.9484 26.1702 18.7421 26.1247 18.5358C26.0099 18.0167 25.8938 17.4979 25.7757 16.9796C25.752 16.8747 25.7282 16.7699 25.7038 16.6618C25.6589 16.4639 25.6136 16.2659 25.568 16.0681C25.1793 14.3501 25.1793 14.3501 25.6326 13.606C25.8533 13.2808 26.1236 13.0155 26.4044 12.7418C26.4607 12.6862 26.517 12.6306 26.575 12.5733C26.6968 12.4531 26.8188 12.3331 26.9409 12.2133C27.1348 12.023 27.3281 11.8321 27.5212 11.6409C28.0702 11.0979 28.6201 10.5557 29.1708 10.0144C29.5083 9.68261 29.8449 9.34996 30.181 9.01678C30.3085 8.89067 30.4364 8.76489 30.5646 8.63945C31.3925 7.82953 32.121 7.07092 32.5571 5.97661C32.5907 5.89431 32.6243 5.81201 32.6589 5.72722C32.8631 5.14023 32.9578 4.4458 32.7243 3.85782C32.4168 3.51955 32.1709 3.4095 31.7156 3.38458C29.6552 3.44557 28.2691 5.02884 26.925 6.38474Z" fill="#133769"/>
<circle cx="39" cy="18.1553" r="7" stroke="#133769" stroke-width="2"/>
<path d="M42.2 15.7549L37.25 20.7049L35 18.4549" stroke="#133769" stroke-width="2" stroke-linecap="round" stroke-linejoin="round"/>
</svg>
