<svg width="26" height="26" viewBox="0 0 26 26" fill="none" xmlns="http://www.w3.org/2000/svg">
<circle cx="13" cy="13" r="12.3214" fill="white" stroke="#CBCBCB" stroke-width="0.357143"/>
<path d="M17.0176 11.3455C19.2077 10.4576 20.3916 9.45136 20.4212 7.85318C20.4212 7.52762 20.362 7.17247 20.2436 6.78772C20.214 7.29085 19.5333 7.91237 18.5862 8.53388C17.4024 9.30338 15.7154 10.28 14.5612 10.9016C12.6966 11.9374 12.2823 13.0325 12.1343 13.7724C12.5782 13.2692 15.1235 12.115 17.0176 11.3455ZM20.1548 7.26126L20.2436 7.35004C20.2436 7.37964 20.2436 7.40924 20.2436 7.40924L20.1252 7.32045C20.1252 7.29085 20.1548 7.26126 20.1548 7.26126ZM20.0068 7.46843L20.214 7.6756C20.214 7.7052 20.214 7.7052 20.1844 7.73479L19.9772 7.52762C19.9772 7.49802 20.0068 7.49802 20.0068 7.46843ZM19.8292 7.6756L20.0956 7.94196C20.0956 7.97156 20.0956 7.97156 20.066 8.00116L19.7701 7.7052C19.7997 7.6756 19.8292 7.6756 19.8292 7.6756ZM19.6517 7.85318L19.9772 8.17873C19.9772 8.20833 19.9476 8.20833 19.9476 8.23792L19.5925 7.88277C19.6221 7.85318 19.6517 7.85318 19.6517 7.85318ZM19.4741 8.00116L19.8588 8.3859L19.8292 8.4155L19.4445 8.03075C19.4445 8.03075 19.4445 8.03075 19.4741 8.00116ZM19.2669 8.17873L19.6813 8.59308L19.6517 8.62267L19.2077 8.20833C19.2373 8.20833 19.2373 8.17873 19.2669 8.17873ZM19.0597 8.32671L19.5333 8.80025L19.5037 8.82984L19.0302 8.35631C19.0302 8.35631 19.0302 8.32671 19.0597 8.32671ZM18.8526 8.47469L19.3557 8.97782L19.3261 9.00742L18.7934 8.50429C18.823 8.50429 18.823 8.50429 18.8526 8.47469ZM18.6158 8.62267L19.1485 9.1554L19.1189 9.185L18.5862 8.65227L18.6158 8.62267ZM18.4086 8.77065L18.9414 9.33298L18.9118 9.36257L18.3494 8.80025C18.379 8.80025 18.4086 8.77065 18.4086 8.77065ZM18.2015 8.91863L18.7638 9.48096L18.7342 9.51055L18.1719 8.94823C18.1719 8.91863 18.1719 8.91863 18.2015 8.91863ZM17.9647 9.03702L18.527 9.62894L18.4974 9.65853L17.9055 9.06661C17.9351 9.06661 17.9351 9.06661 17.9647 9.03702ZM17.7279 9.185L18.3198 9.77692C18.3198 9.77692 18.2903 9.80651 18.2607 9.80651L17.6687 9.21459C17.6983 9.185 17.7279 9.185 17.7279 9.185ZM17.5208 9.33298L18.1127 9.9249L18.0535 9.95449L17.4616 9.36257C17.4912 9.33298 17.4912 9.33298 17.5208 9.33298ZM17.284 9.45136L17.8759 10.0433C17.8463 10.0433 17.8463 10.0729 17.8167 10.0729L17.2248 9.48096C17.2544 9.48096 17.284 9.45136 17.284 9.45136ZM17.0768 9.59934L17.6687 10.1913C17.6391 10.1913 17.6391 10.2209 17.6095 10.2209L17.0176 9.62894C17.0472 9.59934 17.0472 9.59934 17.0768 9.59934ZM16.84 9.71772L17.432 10.3096C17.4024 10.3096 17.4024 10.3392 17.3728 10.3392L16.7809 9.74732C16.8105 9.74732 16.8105 9.71772 16.84 9.71772ZM16.6033 9.8657L17.1656 10.4576C17.136 10.4576 17.136 10.4872 17.1064 10.4872L16.5441 9.8953C16.5737 9.8657 16.6033 9.8657 16.6033 9.8657ZM16.3961 9.98409L16.9584 10.5464C16.9288 10.5464 16.9288 10.576 16.8992 10.576L16.3369 10.0137C16.3369 10.0137 16.3665 9.98409 16.3961 9.98409ZM16.1593 10.1321L16.7217 10.6944C16.6921 10.6944 16.6921 10.724 16.6625 10.724L16.1001 10.1617C16.1297 10.1321 16.1297 10.1321 16.1593 10.1321ZM15.9226 10.2505L16.4553 10.7832C16.4257 10.7832 16.4257 10.8128 16.3961 10.8128L15.8634 10.28C15.893 10.28 15.893 10.2505 15.9226 10.2505ZM15.6858 10.3688L16.2185 10.9016C16.1889 10.9016 16.1889 10.9312 16.1593 10.9312L15.6562 10.3984C15.6562 10.3984 15.6858 10.3984 15.6858 10.3688ZM15.449 10.5168L15.9522 11.0199C15.9226 11.0199 15.9226 11.0495 15.893 11.0495L15.3898 10.5464C15.4194 10.5168 15.449 10.5168 15.449 10.5168ZM15.2419 10.6352L15.7154 11.1087C15.6858 11.1087 15.6858 11.1383 15.6562 11.1383L15.1827 10.6648C15.1827 10.6648 15.2123 10.6648 15.2419 10.6352ZM15.0051 10.7832L15.4786 11.2567C15.449 11.2567 15.449 11.2863 15.4194 11.2863L14.9459 10.8128C14.9755 10.7832 14.9755 10.7832 15.0051 10.7832ZM14.7683 10.9016L15.2123 11.3751C15.1827 11.3751 15.1827 11.4047 15.1531 11.4047L14.7091 10.9312C14.7387 10.9312 14.7387 10.9016 14.7683 10.9016ZM14.5316 11.0199L14.9755 11.4639C14.9459 11.4639 14.9459 11.4935 14.9163 11.4935L14.4724 11.0495C14.502 11.0495 14.5316 11.0495 14.5316 11.0199ZM14.2948 11.1679L14.7387 11.6119C14.7091 11.6119 14.7091 11.6415 14.6795 11.6415L14.2356 11.1975C14.2652 11.1679 14.2948 11.1679 14.2948 11.1679ZM14.0876 11.3159L14.5316 11.7598C14.502 11.7598 14.502 11.7894 14.4724 11.7894L14.0284 11.3455C14.058 11.3159 14.058 11.3159 14.0876 11.3159ZM13.8804 11.4639L14.2948 11.8782C14.2652 11.8782 14.2652 11.9078 14.2356 11.9078L13.8213 11.4935C13.8508 11.4639 13.8508 11.4639 13.8804 11.4639ZM13.6733 11.6119L14.0876 12.0262C14.058 12.0262 14.0284 12.0558 14.0284 12.0558L13.6141 11.6415C13.6437 11.6415 13.6437 11.6119 13.6733 11.6119ZM13.4661 11.7598L13.8508 12.1446C13.8508 12.1446 13.8213 12.1742 13.7917 12.1742L13.4365 11.819C13.4365 11.7894 13.4365 11.7894 13.4661 11.7598ZM13.2589 11.9374L13.6141 12.3222L13.5845 12.3518L13.2293 11.9966C13.2589 11.967 13.2589 11.967 13.2589 11.9374ZM13.0814 12.115L13.4069 12.4702L13.3773 12.4997L13.0518 12.1742C13.0814 12.1446 13.0814 12.1446 13.0814 12.115ZM12.9334 12.3222L13.2293 12.6181L13.1997 12.6477L12.9038 12.3518C12.9038 12.3518 12.9038 12.3222 12.9334 12.3222ZM12.7558 12.5293L13.0222 12.7957L12.9926 12.8253L12.7558 12.5589V12.5293ZM12.6374 12.7365L12.8446 12.9437L12.815 12.9733L12.6078 12.7661C12.6078 12.7661 12.6078 12.7661 12.6374 12.7365ZM12.4894 12.9733L12.6374 13.1213L12.6078 13.1509L12.4598 13.0029C12.4894 13.0029 12.4894 13.0029 12.4894 12.9733ZM12.4006 13.2396L12.4894 13.3284L12.4598 13.358L12.4006 13.2988C12.371 13.2692 12.371 13.2396 12.4006 13.2396Z" fill="#A18F63"/>
<path d="M16.1893 19.4548C15.9229 19.3068 14.9758 18.7741 14.9758 18.7741L15.9525 18.9813C16.3964 19.0701 16.6628 19.218 16.6332 19.3364C16.6628 19.2772 16.6628 19.1884 16.6628 19.1588C16.6628 18.0638 14.9758 18.123 14.9758 18.123L15.3606 18.0342C15.8045 17.9454 16.0709 17.975 16.1005 18.0638C16.1005 18.0046 16.1005 17.9158 16.0709 17.8862C15.9525 17.4719 15.6861 17.3239 14.8574 17.1167L13.7032 16.8504C14.0583 17.2351 14.2063 18.271 13.792 18.7445C13.792 18.6261 13.7328 18.5373 13.6736 18.4781C13.6144 18.7445 13.4368 19.0996 13.0817 19.0405C13.0817 19.0109 13.1113 18.9517 13.0225 18.8629C12.8153 18.6557 12.1346 18.0638 11.8978 17.827C11.8978 17.9158 11.8682 17.9454 11.8386 18.0638C11.7795 18.3302 11.5723 18.4485 11.3947 18.4485C11.2171 18.4485 11.0691 18.271 11.01 18.2118C11.1283 18.3006 11.3355 18.3302 11.3651 18.3302C11.3651 18.271 11.4243 18.2118 11.4539 18.1822C11.5131 18.123 11.6019 18.0934 11.6315 17.975C11.6611 17.827 11.5427 17.7678 11.4539 17.7678C11.2763 17.7974 11.0396 17.8566 11.01 17.8566C10.9508 17.8566 10.9212 17.8566 10.8916 17.827C10.862 17.7974 10.8324 17.7974 10.8028 17.7974C10.6844 17.7974 10.6548 17.9158 10.6548 17.9158C10.6252 17.7382 10.714 17.6199 10.862 17.5903C10.8916 17.5903 11.5427 17.5607 11.7203 17.5607C11.8386 17.5607 11.9274 17.5607 12.0162 17.6198C12.1642 17.7382 12.5194 17.975 12.5785 18.0342C12.7265 17.7382 12.6673 17.1463 12.5194 17.0279C11.4539 16.8208 10.2701 16.9983 9.55975 16.6136C9.47096 16.6728 9.175 16.8208 9.08621 16.8504C9.02702 16.88 8.96783 16.9095 8.93823 16.9095C8.90864 16.9095 8.87904 16.9391 8.87904 16.9391C8.90864 16.9391 9.11581 17.0871 9.38217 16.7912C9.38217 16.7912 9.88531 17.0575 10.2109 17.1463C10.1221 17.4127 9.44137 17.9454 8.99742 18.3597C8.28712 19.0405 7.51762 20.9346 6.83691 21.1714C6.9553 21.201 7.07368 21.201 7.13287 21.201C8.05035 21.201 8.52389 20.3427 8.67187 20.1059C8.4055 20.757 8.16874 21.1122 8.02076 21.0826C8.16874 21.1418 8.34631 21.1418 8.49429 21.1418C9.11581 21.1418 9.55975 20.757 9.55975 20.757L9.02702 20.4611C9.02702 20.4611 9.70773 20.757 10.2997 20.757C10.8916 20.757 11.01 20.5203 11.01 20.5203L10.3292 20.1355C10.4476 20.1947 10.8324 20.3427 11.1579 20.3723C12.0162 20.3723 12.4306 19.5732 12.4898 19.1292C12.4306 19.218 12.1938 19.6028 11.8386 19.5732C11.8682 19.514 11.8978 19.4252 11.8386 19.366C11.8386 19.366 11.8386 19.366 11.809 19.366C11.7499 19.3364 11.3355 18.8925 11.0396 18.6557C11.01 18.7445 11.01 18.7741 10.9804 18.8925C10.9212 19.1292 10.7436 19.218 10.5956 19.1884C10.3884 19.1884 10.2701 19.0109 10.2405 18.9517C10.3292 19.0405 10.418 19.0996 10.4772 19.0996C10.5364 19.0405 10.566 19.0109 10.6252 18.9813C10.6548 18.9813 10.714 18.9517 10.7436 18.9221C10.7436 18.9221 10.8916 18.7741 10.8916 18.6261C10.8916 18.5373 10.862 18.5077 10.8028 18.4781C10.714 18.4189 10.6252 18.4189 10.5068 18.4189C10.3292 18.4189 10.2701 18.4189 10.2109 18.3597C10.1813 18.3302 10.1517 18.3006 10.1221 18.3006C10.0333 18.3006 10.0037 18.3597 10.0037 18.3597C10.0037 18.2118 10.0925 18.1526 10.2109 18.1526C10.2405 18.1526 10.2405 18.1526 10.2701 18.1526C10.3292 18.1822 10.9212 18.3302 11.0396 18.3893C11.0987 18.4189 11.7499 18.9517 11.7499 18.9517C11.8682 18.8629 11.9866 18.5077 11.9866 18.3302C12.0458 18.3006 12.1346 18.3302 12.253 18.4189C12.3714 18.5077 12.7857 18.8925 12.8153 18.9221C12.7265 19.5436 13.1113 20.7866 13.7328 20.7866C13.8216 20.7866 13.8808 20.757 13.9104 20.757C13.8512 20.7274 13.8216 20.6682 13.792 20.5794L13.7032 20.1355C13.7032 20.1355 13.8216 20.3131 14.3247 20.8458C14.5911 21.1418 14.8278 21.201 14.9758 21.201C15.1534 21.201 15.2422 21.1418 15.2718 21.1122C15.183 21.1122 15.1238 21.053 15.0054 20.8754L14.5319 20.2539C15.2718 20.9346 15.7749 21.0826 16.1005 21.0826C16.3668 21.0826 16.4852 20.9938 16.4852 20.9938L14.9462 19.6028L16.7812 20.6386C16.9292 20.0171 16.4556 19.6028 16.1893 19.4548ZM16.6036 19.0405L16.5444 19.0996C16.5148 19.0996 16.5148 19.0701 16.4852 19.0701L16.574 18.9813C16.574 18.9813 16.6036 19.0109 16.6036 19.0405ZM16.4852 18.7445C16.4852 18.7741 16.5148 18.7741 16.5148 18.8037L16.3076 19.0109V18.9813L16.4852 18.7445ZM16.0709 19.3068L15.8933 19.514L15.8637 19.4844L16.0709 19.3068ZM15.8637 19.1588C15.8933 19.1588 15.8933 19.1884 15.9229 19.1884L15.7749 19.3364L15.7453 19.3068L15.8637 19.1588ZM15.8637 19.218C15.8933 19.218 15.8933 19.218 15.9229 19.2476L15.8045 19.366C15.8045 19.366 15.7749 19.3364 15.7453 19.3364L15.8637 19.218ZM15.6269 19.1292C15.6565 19.1292 15.6565 19.1292 15.6861 19.1292L15.5973 19.218C15.5677 19.218 15.5677 19.1884 15.5381 19.1884L15.6269 19.1292ZM15.3606 19.0996C15.3902 19.0996 15.3902 19.0996 15.4198 19.0996L15.3902 19.1588C15.3606 19.1588 15.3606 19.1588 15.331 19.1292L15.3606 19.0996ZM15.8637 18.5965C15.8637 18.6261 15.8933 18.6261 15.8933 18.6557L15.7749 18.7741C15.7453 18.7741 15.7157 18.7741 15.6861 18.7741L15.8637 18.5965ZM15.7453 18.4485L15.5381 18.6557C15.5381 18.6261 15.5086 18.6261 15.5086 18.5965L15.7157 18.3893C15.7453 18.4189 15.7453 18.4485 15.7453 18.4485ZM15.5381 18.3006C15.5677 18.3006 15.5677 18.3302 15.5973 18.3302L15.4198 18.5077L15.3902 18.4781L15.5381 18.3006ZM15.5381 18.3597C15.5677 18.3597 15.5677 18.3598 15.5973 18.3893L15.479 18.5077L15.4494 18.4781L15.5381 18.3597ZM15.3014 18.271C15.331 18.271 15.331 18.271 15.3606 18.3006L15.3014 18.3597L15.2718 18.3302L15.3014 18.271ZM11.1875 18.2414C11.2171 18.2414 11.6907 18.4189 11.957 18.5373C11.8386 18.5373 11.7203 18.5373 11.6019 18.5373C11.5427 18.5373 11.4835 18.5373 11.4243 18.5373C11.3355 18.5373 11.2467 18.5077 11.2467 18.5077C11.1283 18.4781 11.1579 18.4189 11.0396 18.4189C10.9212 18.3893 10.862 18.5077 10.862 18.5077C10.8916 18.3302 11.0396 18.2118 11.1875 18.2414ZM7.34005 22.0888C7.34005 22.0592 7.34005 22.0297 7.36964 22.0297L7.39924 22.0592C7.39924 22.0888 7.36964 22.0888 7.34005 22.0888ZM7.60641 21.9705L7.51762 21.8817L7.54722 21.8521L7.63601 21.9409C7.63601 21.9705 7.60641 21.9705 7.60641 21.9705ZM7.81358 21.8225L7.6952 21.7041L7.7248 21.6745L7.87278 21.8225C7.81358 21.7929 7.81358 21.8225 7.81358 21.8225ZM7.99116 21.6449L7.81358 21.4673L7.84318 21.4377L8.02076 21.6153L7.99116 21.6449ZM8.13914 21.4377L7.96156 21.2602C7.96156 21.2602 7.99116 21.2306 7.99116 21.201L8.16874 21.3785C8.16874 21.4081 8.16874 21.4377 8.13914 21.4377ZM8.28712 21.2306L8.10954 21.053C8.10954 21.053 8.13914 21.0234 8.13914 20.9938L8.34631 21.201C8.31672 21.201 8.31672 21.2306 8.28712 21.2306ZM8.4351 21.0234L8.22793 20.8162C8.22793 20.7866 8.25752 20.7866 8.25752 20.757L8.4647 20.9642C8.4647 20.9938 8.4647 20.9938 8.4351 21.0234ZM8.58308 20.7866L8.37591 20.5794C8.37591 20.5794 8.4055 20.5499 8.4055 20.5203L8.61268 20.7274C8.61268 20.757 8.58308 20.7866 8.58308 20.7866ZM8.76066 20.5203C8.76066 20.5499 8.73106 20.5499 8.73106 20.5794L8.52389 20.3723C8.52389 20.3427 8.55348 20.3427 8.55348 20.3131L8.76066 20.5203ZM8.84944 20.3427L8.67187 20.1651C8.67187 20.1651 8.70146 20.1355 8.70146 20.1059L8.87904 20.2835C8.87904 20.3131 8.87904 20.3131 8.84944 20.3427ZM8.99742 20.1059L8.81985 19.9283L8.84944 19.8987L9.02702 20.0763C8.99742 20.0763 8.99742 20.1059 8.99742 20.1059ZM9.11581 19.8691L8.96783 19.7212L8.99742 19.6916L9.1454 19.8395L9.11581 19.8691ZM9.23419 19.6324L9.11581 19.514L9.1454 19.4844L9.23419 19.5732C9.26379 19.6028 9.26379 19.6324 9.23419 19.6324ZM9.35258 19.3956L9.29339 19.3364L9.32298 19.3068L9.35258 19.3364C9.38217 19.366 9.38217 19.366 9.35258 19.3956ZM10.2701 19.514C10.2997 19.514 10.5364 19.514 10.6548 19.514C10.7436 19.514 10.9508 19.514 10.9508 19.662C10.9508 19.6916 10.9508 19.7212 10.9508 19.7508C10.9212 19.6916 10.862 19.662 10.8028 19.662C10.7436 19.662 10.4772 19.7508 10.3884 19.7508C10.3292 19.7508 10.2997 19.7212 10.2405 19.7212C10.1221 19.7212 10.0925 19.81 10.0925 19.81C10.0333 19.6324 10.1517 19.514 10.2701 19.514ZM13.2001 21.1122C13.2001 21.0826 13.2001 21.0826 13.1705 21.053L13.2001 21.0234C13.2001 21.053 13.2297 21.053 13.2297 21.0826L13.2001 21.1122ZM11.2763 18.4485C11.2763 18.4189 11.2467 18.4189 11.2467 18.3893L11.3059 18.3302L11.3355 18.3597L11.2763 18.4485ZM11.4243 18.6261L11.3947 18.5965L11.4835 18.5077L11.5131 18.5373L11.4243 18.6261ZM11.5723 18.8037L11.5427 18.7741L11.6907 18.6261C11.7203 18.6261 11.7203 18.6557 11.7499 18.6557L11.5723 18.8037ZM11.809 18.8037C11.809 18.8333 11.809 18.8333 11.8386 18.8629H11.809C11.7795 18.8629 11.7795 18.8629 11.7499 18.8629L11.809 18.8037ZM12.401 18.8925L12.3714 18.8629L12.401 18.8333L12.4306 18.8629L12.401 18.8925ZM12.9929 19.1588L13.0225 19.1884L12.9337 19.2772C12.9041 19.2772 12.9041 19.2772 12.8745 19.2772L12.9929 19.1588ZM12.7857 19.0405C12.8153 19.0405 12.8153 19.0405 12.8449 19.0405L12.6969 19.1884C12.6969 19.1884 12.6673 19.1588 12.6377 19.1588L12.7857 19.0405ZM12.5785 18.9517C12.6081 18.9517 12.6081 18.9813 12.6377 18.9813L12.5489 19.0701L12.5194 19.0405L12.5785 18.9517ZM14.2951 19.0996L14.3247 19.1292L14.2655 19.1884C14.2359 19.1884 14.2063 19.1884 14.1767 19.1884L14.2951 19.0996ZM14.1175 18.9517L14.1471 18.9813L13.94 19.1884C13.9104 19.1884 13.9104 19.1884 13.8808 19.1884L14.1175 18.9517ZM13.8216 18.9517C13.8512 18.9517 13.8808 18.9517 13.8808 18.9517L13.7328 19.1292C13.7032 19.1292 13.7032 19.1292 13.6736 19.0996L13.8216 18.9517ZM13.5552 18.9221C13.5848 18.9221 13.5848 18.9221 13.6144 18.9221L13.5256 19.0109C13.496 19.0109 13.496 18.9813 13.4664 18.9813L13.5552 18.9221ZM13.2888 18.8333C13.3184 18.8333 13.3184 18.8333 13.348 18.8629L13.2888 18.9221C13.2888 18.9221 13.2593 18.8925 13.2297 18.8925L13.2888 18.8333ZM13.792 17.5015L13.7624 17.4719L13.792 17.4423C13.8216 17.4423 13.8216 17.4719 13.8512 17.4719L13.792 17.5015ZM13.9696 17.6198L13.94 17.5903L13.9992 17.5311C14.0288 17.5311 14.0288 17.5607 14.0583 17.5607L13.9696 17.6198ZM14.1471 17.7678C14.1175 17.7678 14.1175 17.7382 14.1471 17.7678C14.1175 17.7382 14.1175 17.7382 14.1175 17.7382L14.2063 17.6494C14.2359 17.6494 14.2359 17.679 14.2655 17.679L14.1471 17.7678ZM14.2655 17.8862L14.3839 17.7678L14.4135 17.7974L14.2951 17.9158C14.2655 17.9158 14.2655 17.8862 14.2655 17.8862ZM14.3839 18.0638L14.5319 17.9158L14.5615 17.9454L14.4135 18.123C14.4135 18.0934 14.3839 18.0934 14.3839 18.0638ZM14.7687 18.6853L14.7095 18.6557L14.7687 18.5965C14.7687 18.6261 14.7687 18.6557 14.7687 18.6853ZM14.7687 18.3597L14.5615 18.5669H14.5319H14.5023C14.5023 18.5669 14.5023 18.5669 14.5023 18.5373L14.7391 18.3006C14.7687 18.3302 14.7687 18.3597 14.7687 18.3597ZM14.7095 18.123L14.5023 18.3302C14.5023 18.3006 14.5023 18.3006 14.4727 18.271L14.6503 18.0638C14.6799 18.0934 14.6799 18.123 14.7095 18.123Z" fill="#A18F63"/>
<path d="M8.67153 16.7615L8.70112 16.584C8.70112 16.584 8.8787 16.5248 9.02668 16.5248C9.17466 16.4952 9.26345 16.7024 9.26345 16.7024C9.26345 16.7024 9.589 16.6728 9.67779 16.4656C9.67779 16.4064 9.14506 16.436 9.02668 16.436C8.9083 16.436 8.8787 16.3472 8.70112 16.1992C8.70112 16.1992 8.46436 16.288 8.46436 16.5248C8.46436 16.7024 8.64193 16.7615 8.67153 16.7615Z" fill="#A18F63"/>
<path d="M13.9099 11.0495C14.5906 10.576 16.1296 9.68812 17.8166 8.68185C19.1188 7.91236 20.4507 6.66932 20.4803 5.24871C20.4803 4.86397 20.3915 4.44962 20.1547 4.03528C20.1547 4.03528 20.1251 4.33124 20.0955 4.36083C20.0659 4.39043 19.6812 4.86397 19.0892 5.42629C18.5269 5.95902 15.5969 8.3267 15.1826 8.74104C13.7915 10.0433 13.1108 11.7006 13.1108 11.7006C13.1108 11.7006 13.2292 11.5231 13.9099 11.0495ZM20.1843 4.36083L20.2139 4.39043C20.2139 4.42003 20.2139 4.44962 20.2139 4.47922L20.1547 4.42003C20.1547 4.42003 20.1547 4.39043 20.1843 4.36083ZM20.0067 4.56801L20.2435 4.80477C20.2435 4.83437 20.2435 4.86397 20.2435 4.86397L20.0067 4.6272C20.0067 4.5976 20.0067 4.5976 20.0067 4.56801ZM19.8587 4.77518L20.1843 5.10073C20.1843 5.13033 20.1843 5.13033 20.1547 5.15993L19.7995 4.80477C19.8291 4.80477 19.8291 4.77518 19.8587 4.77518ZM19.6812 4.95275L20.0955 5.3671C20.0955 5.39669 20.0659 5.39669 20.0659 5.42629L19.6516 5.01195C19.6516 4.98235 19.6812 4.98235 19.6812 4.95275ZM19.5036 5.15993L19.9475 5.60387C19.9475 5.63346 19.9475 5.63346 19.9475 5.66306L19.474 5.18952C19.474 5.15993 19.474 5.15993 19.5036 5.15993ZM19.326 5.3375L19.8291 5.84063L19.7995 5.87023L19.2964 5.3671C19.2964 5.3375 19.2964 5.3375 19.326 5.3375ZM19.1188 5.51508L19.6516 6.04781L19.622 6.0774L19.0892 5.54467C19.1188 5.51508 19.1188 5.51508 19.1188 5.51508ZM18.9413 5.66306L19.5036 6.22538L19.474 6.25498L18.9117 5.69265C18.9117 5.69265 18.9413 5.69265 18.9413 5.66306ZM18.7341 5.84063L19.2964 6.43255L19.2668 6.46215L18.6749 5.87023C18.7045 5.87023 18.7341 5.84063 18.7341 5.84063ZM18.5565 6.01821L19.1484 6.61013L19.1188 6.63973L18.5269 6.04781C18.5269 6.01821 18.5269 6.01821 18.5565 6.01821ZM18.3493 6.16619L18.9413 6.75811L18.9117 6.78771L18.3197 6.16619C18.3197 6.19579 18.3493 6.19579 18.3493 6.16619ZM18.1422 6.34377L18.7341 6.96528L18.7045 6.99488L18.1126 6.37336C18.1422 6.34377 18.1422 6.34377 18.1422 6.34377ZM17.9646 6.49175L18.5565 7.11326L18.5269 7.14286L17.935 6.52134C17.935 6.52134 17.935 6.52134 17.9646 6.49175ZM17.7574 6.66932L18.3493 7.29084L18.3197 7.32043L17.7278 6.69892L17.7574 6.66932ZM17.5502 6.8173L18.1422 7.40922L18.1126 7.43882L17.5206 6.8469C17.5502 6.8469 17.5502 6.8469 17.5502 6.8173ZM17.3727 6.99488L17.9646 7.5868L17.935 7.61639L17.3431 7.02447C17.3431 7.02447 17.3431 6.99488 17.3727 6.99488ZM17.1655 7.14286L17.7574 7.73478L17.7278 7.76437L17.1359 7.17245C17.1359 7.17245 17.1655 7.17245 17.1655 7.14286ZM16.9583 7.32043L17.5206 7.88276L17.4911 7.91235L16.9287 7.35003C16.9583 7.35003 16.9583 7.32043 16.9583 7.32043ZM16.7807 7.46841L17.3431 8.03074C17.3431 8.03074 17.3135 8.06033 17.2839 8.06033L16.7216 7.49801C16.7512 7.49801 16.7512 7.49801 16.7807 7.46841ZM16.5736 7.64599L17.1063 8.17872C17.1063 8.17872 17.0767 8.20831 17.0471 8.20831L16.5144 7.67559C16.544 7.67559 16.5736 7.64599 16.5736 7.64599ZM16.3664 7.79397L16.8991 8.3267L16.8695 8.3563L16.3664 7.82357C16.3664 7.82357 16.3664 7.82357 16.3664 7.79397ZM16.1888 7.97155L16.692 8.47468L16.6624 8.50428L16.1592 8.00114C16.1592 8.00114 16.1592 7.97155 16.1888 7.97155ZM15.9817 8.14912L16.4848 8.65226L16.4552 8.68185L15.9521 8.17872C15.9521 8.14912 15.9817 8.14912 15.9817 8.14912ZM15.8041 8.2971L16.2776 8.77064L16.248 8.80024L15.7745 8.3267C15.7745 8.3267 15.7745 8.3267 15.8041 8.2971ZM15.5969 8.47468L16.0704 8.94822L16.0408 8.97781L15.5673 8.50428L15.5969 8.47468ZM15.3897 8.65226L15.8337 9.12579L15.8041 9.15539L15.3601 8.71145C15.3601 8.65225 15.3897 8.65226 15.3897 8.65226ZM15.2122 8.80024L15.6561 9.24418L15.6265 9.27377L15.1826 8.82983C15.1826 8.82983 15.2122 8.82983 15.2122 8.80024ZM15.0346 8.97781L15.4489 9.39216L15.4193 9.42175L15.005 9.00741C15.005 9.00741 15.005 9.00741 15.0346 8.97781ZM14.857 9.18498L15.2714 9.59933L15.2418 9.62892L14.857 9.24418C14.8274 9.18498 14.8274 9.18498 14.857 9.18498ZM14.6794 9.36256L15.0642 9.74731L15.0346 9.7769L14.6498 9.39216L14.6794 9.36256ZM14.5019 9.56973L14.857 9.92488L14.8274 9.95448L14.5019 9.62892C14.5019 9.59933 14.5019 9.56973 14.5019 9.56973ZM14.3539 9.74731L14.6498 10.0433L14.6202 10.0729L14.3243 9.7769C14.3243 9.7769 14.3539 9.7769 14.3539 9.74731ZM14.2059 9.95448L14.4723 10.2208L14.4427 10.2504L14.1763 9.98408C14.1763 9.98408 14.1763 9.98408 14.2059 9.95448ZM14.0579 10.1912L14.2947 10.428L14.2651 10.4576L14.0283 10.2208C14.0283 10.2208 14.0283 10.1912 14.0579 10.1912ZM13.9099 10.3984L14.0875 10.576L14.0579 10.6056L13.8803 10.428C13.8803 10.428 13.8803 10.3984 13.9099 10.3984ZM13.762 10.6352L13.9099 10.7832L13.8803 10.8128L13.7324 10.6648L13.762 10.6352ZM13.614 10.8424L13.7028 10.9311L13.6732 10.9607L13.5844 10.872C13.614 10.872 13.614 10.872 13.614 10.8424ZM13.4956 11.0791L13.5548 11.1383L13.5252 11.1679L13.466 11.1087L13.4956 11.0791Z" fill="#A18F63"/>
<path d="M7.39914 20.4019C7.7247 19.8987 8.28702 19.0108 8.34621 18.9221C8.02066 19.3068 6.45207 20.3427 5.65297 20.5794C5.59378 20.5794 5.4754 20.5794 5.4458 20.5498C5.4458 20.5498 5.50499 21.1418 6.24489 21.1418C6.68883 21.1418 7.07358 20.8458 7.39914 20.4019ZM7.39914 19.7507L7.42873 19.7803L7.39914 19.8099L7.36954 19.7803C7.36954 19.7507 7.39914 19.7507 7.39914 19.7507ZM5.80095 20.7274L5.71217 20.6386C5.74176 20.6386 5.74176 20.6386 5.77136 20.609L5.88974 20.7274C5.86015 20.7274 5.83055 20.7274 5.80095 20.7274ZM6.15611 20.7274L5.97853 20.5498C6.00813 20.5498 6.00813 20.5498 6.03772 20.5202L6.2153 20.6978C6.1857 20.6978 6.15611 20.6978 6.15611 20.7274ZM6.42247 20.609L6.2153 20.4019C6.24489 20.4019 6.24489 20.3723 6.27449 20.3723L6.48166 20.5794C6.45207 20.609 6.42247 20.609 6.42247 20.609ZM6.62964 20.4906L6.45207 20.3131C6.48166 20.3131 6.48166 20.2835 6.51126 20.2835L6.68883 20.4611C6.65924 20.4611 6.65924 20.4906 6.62964 20.4906ZM6.83681 20.3131L6.68883 20.1651C6.71843 20.1651 6.71843 20.1355 6.74803 20.1355L6.89601 20.2835C6.86641 20.3131 6.83681 20.3131 6.83681 20.3131ZM7.01439 20.1651L6.9256 20.0467C6.9552 20.0467 6.9552 20.0171 6.98479 20.0171L7.07358 20.1059C7.04399 20.1355 7.04399 20.1355 7.01439 20.1651ZM7.19197 19.8691L7.25116 19.9283L7.22156 19.9579L7.16237 19.8987C7.16237 19.8987 7.16237 19.8987 7.19197 19.8691Z" fill="#A18F63"/>
<path d="M12.1638 14.1275C12.1638 14.1275 11.8678 14.8674 11.7494 15.0746C11.631 15.2818 11.4239 15.4298 11.2463 15.4298C11.0687 15.4002 10.8319 15.3706 10.5952 15.3706C10.1512 15.341 9.61851 15.4002 9.38174 15.5482C9.20416 15.6369 8.9082 16.0217 8.9082 16.0217C9.08578 16.1401 9.29295 16.0217 9.29295 16.0217C9.29295 16.0217 9.20416 15.9329 9.20416 15.8737C9.20416 15.8441 9.23376 15.8145 9.29295 15.7849C9.32255 15.9033 9.44093 15.9921 9.55932 15.9921C9.6777 15.9921 9.79608 15.8737 9.82568 15.7553C9.85528 15.6665 9.82568 15.6073 9.79608 15.5482C9.94406 15.5482 10.0624 15.6369 10.0624 15.6961C10.0624 15.7553 9.85528 16.0809 9.58891 16.1105C9.61851 16.2585 9.94406 16.2881 9.91447 16.3768C9.91447 16.4064 9.88487 16.436 9.85528 16.4952C9.79608 16.5248 10.0624 16.6136 10.24 16.6136C10.8319 16.6432 11.0095 16.4064 11.2167 16.1401C11.2759 16.0809 11.3351 16.0513 11.4239 16.0513C11.5718 16.0513 12.6373 16.7024 13.762 16.732C14.7978 16.7616 15.5969 16.2289 15.7449 15.6369C15.5969 15.6961 15.2122 15.8145 14.8274 15.8145C13.762 15.7849 13.3476 15.2818 13.3476 15.2818C13.3476 15.2818 13.9099 15.5186 14.6202 15.5186C16.3368 15.5482 16.6328 14.1571 16.7512 13.6836C16.5144 13.8316 15.7153 14.3643 14.1467 14.3347C13.6732 14.3347 13.3772 14.2459 13.1108 14.1275C13.6732 14.1275 14.2947 14.0979 14.7978 13.9796C16.6624 13.5948 17.8758 12.7365 18.1422 11.3455C16.8103 11.9374 14.8866 12.559 13.8507 13.0917C12.7557 13.5948 12.2822 13.8316 12.1638 14.1275ZM11.7198 15.5482L11.5718 15.4002L11.6014 15.3706L11.7494 15.5186C11.779 15.5186 11.7494 15.5482 11.7198 15.5482ZM11.9566 15.4298L11.7494 15.2226C11.7494 15.2226 11.779 15.193 11.779 15.1634L11.9862 15.3706C11.9862 15.4002 11.9862 15.4002 11.9566 15.4298ZM12.1046 15.193L11.8974 14.9562C11.8974 14.9266 11.927 14.9266 11.927 14.897L12.1342 15.1042C12.1342 15.1634 12.1046 15.193 12.1046 15.193ZM12.223 14.9266L11.9862 14.7195C11.9862 14.6899 11.9862 14.6899 12.0158 14.6603L12.223 14.8674C12.223 14.897 12.223 14.9266 12.223 14.9266ZM12.2822 14.6603L12.1046 14.4827C12.1046 14.4531 12.1046 14.4531 12.1342 14.4235L12.3117 14.6011C12.2822 14.6011 12.2822 14.6307 12.2822 14.6603ZM12.3413 14.3347L12.223 14.2163C12.223 14.1867 12.223 14.1867 12.223 14.1867L12.3117 14.2755C12.3413 14.2755 12.3413 14.3051 12.3413 14.3347ZM12.4005 14.0388L12.3413 13.9796L12.3709 13.95L12.4301 14.0092C12.4301 14.0388 12.4301 14.0388 12.4005 14.0388ZM12.7261 13.9796H12.6965L12.5485 13.8316C12.5485 13.8316 12.5781 13.802 12.6077 13.802L12.7261 13.9796ZM12.9925 13.9204L12.7557 13.6836C12.7853 13.6836 12.7853 13.654 12.8149 13.654L13.0516 13.8908C13.0221 13.9204 13.0221 13.9204 12.9925 13.9204ZM13.2884 13.8612L12.9925 13.5652C13.0221 13.5652 13.0221 13.5356 13.0516 13.5356L13.3476 13.8316C13.318 13.8316 13.318 13.8316 13.2884 13.8612ZM13.5844 13.7724L13.2292 13.4172C13.2588 13.4172 13.2588 13.3876 13.2884 13.3876L13.6436 13.7428C13.614 13.7724 13.5844 13.7724 13.5844 13.7724ZM13.8507 13.6836L13.466 13.2989C13.4956 13.2989 13.4956 13.2693 13.5252 13.2693L13.9099 13.6836C13.9099 13.6836 13.8803 13.6836 13.8507 13.6836ZM14.1467 13.6244L13.7028 13.1805C13.7324 13.1805 13.7324 13.1509 13.762 13.1509L14.2059 13.5948C14.1763 13.5948 14.1467 13.6244 14.1467 13.6244ZM17.8462 11.4935C17.8462 11.5231 17.8462 11.5231 17.8166 11.5527L17.787 11.5231C17.8166 11.4935 17.8462 11.4935 17.8462 11.4935ZM17.6094 11.5823L17.6982 11.6711L17.6686 11.7007L17.5502 11.5823C17.5798 11.6119 17.5798 11.5823 17.6094 11.5823ZM17.3431 11.7007L17.5206 11.8782L17.4911 11.9078L17.2839 11.7007C17.3135 11.7007 17.3431 11.7007 17.3431 11.7007ZM17.0767 11.7895L17.3431 12.0558L17.3135 12.0854L17.0175 11.7895C17.0471 11.8191 17.0767 11.7895 17.0767 11.7895ZM16.8399 11.9078L17.1655 12.263L17.1359 12.2926L16.7807 11.9374C16.7807 11.9078 16.8103 11.9078 16.8399 11.9078ZM16.5736 11.9966L16.9583 12.411L16.9287 12.4406L16.5144 12.0262C16.5144 11.9966 16.544 11.9966 16.5736 11.9966ZM16.2776 12.115C16.3072 12.0854 16.2776 12.0854 16.2776 12.115L16.7512 12.559C16.7216 12.559 16.7216 12.5886 16.692 12.5886L16.248 12.1446C16.248 12.115 16.2776 12.115 16.2776 12.115ZM16.0408 12.2038L16.5144 12.6773C16.4848 12.6773 16.4848 12.7069 16.4552 12.7069L15.9817 12.2334C16.0113 12.2038 16.0113 12.2038 16.0408 12.2038ZM15.7745 12.2926L16.2776 12.7957C16.248 12.7957 16.248 12.8253 16.2184 12.8253L15.7153 12.3222C15.7449 12.2926 15.7745 12.2926 15.7745 12.2926ZM15.5081 12.3814L16.0113 12.9141C15.9817 12.9141 15.9817 12.9437 15.9521 12.9437L15.4193 12.411C15.4785 12.411 15.5081 12.411 15.5081 12.3814ZM15.2714 12.4998L15.8041 13.0325C15.7745 13.0325 15.7745 13.0325 15.7449 13.0621L15.2122 12.4998C15.2122 12.4998 15.2418 12.4998 15.2714 12.4998ZM15.005 12.5886L15.5377 13.1213C15.5081 13.1213 15.5081 13.1213 15.4785 13.1509L14.9458 12.6181C14.9754 12.6181 14.9754 12.5886 15.005 12.5886ZM14.7386 12.7069L15.2714 13.2397C15.2418 13.2397 15.2418 13.2397 15.2122 13.2693L14.6794 12.7365C14.709 12.7069 14.7386 12.7069 14.7386 12.7069ZM14.5019 12.7957L15.005 13.3285C14.9754 13.3285 14.9754 13.3285 14.9458 13.358L14.4427 12.8549C14.4723 12.8253 14.4723 12.8253 14.5019 12.7957ZM14.2355 12.9141L14.7386 13.4172C14.709 13.4172 14.709 13.4172 14.6794 13.4468L14.2059 12.9437L14.2355 12.9141ZM13.9987 13.0325L14.4723 13.506C14.4427 13.506 14.4427 13.506 14.4131 13.5356L13.9395 13.0621C13.9691 13.0621 13.9691 13.0325 13.9987 13.0325Z" fill="#A18F63"/>
</svg>
