<svg width="27" height="26" viewBox="0 0 27 26" fill="none" xmlns="http://www.w3.org/2000/svg">
    <mask id="path-1-outside-1_3560_8579" maskUnits="userSpaceOnUse" x="0" y="0.366211" width="27" height="26" fill="black">
    <rect fill="white" y="0.366211" width="27" height="26"/>
    <path d="M12.2054 1.07252C9.75607 1.37619 7.49098 2.48135 5.75856 4.20879C3.91662 6.05073 2.78159 8.51495 2.57251 11.1136L2.53766 11.5467L2.24892 11.7209C1.67145 12.0794 1.21843 12.7215 1.07406 13.3886C0.974498 13.8616 0.974498 16.8634 1.07904 17.3413C1.27817 18.2971 2.09958 19.1285 3.0305 19.3227C3.9216 19.5069 4.69323 19.1783 5.07655 18.4465L5.21096 18.1976V15.36V12.5224L5.07655 12.2735C4.93716 12.0047 4.59864 11.6612 4.35471 11.5317C4.27008 11.4919 4.10082 11.4322 3.97139 11.3973L3.73741 11.3376L3.76728 11.1086C3.97139 9.54046 4.20038 8.74395 4.79279 7.55913C6.18171 4.78626 8.83012 2.83978 11.9365 2.31209C12.5737 2.20755 13.8183 2.16772 14.4704 2.23742C17.4673 2.561 20.051 4.13412 21.6739 6.62323C22.4555 7.818 22.9832 9.22186 23.1574 10.556C23.2719 11.4421 23.2869 11.3326 23.023 11.3973C22.8986 11.4322 22.7293 11.4919 22.6447 11.5317C22.4007 11.6612 22.0622 12.0047 21.9228 12.2735L21.7884 12.5224V15.36V18.1976L21.9228 18.4465C22.0622 18.7153 22.4007 19.0588 22.6447 19.1882C22.7293 19.2281 22.8986 19.2878 23.023 19.3227L23.257 19.3774V20.1341C23.257 20.9704 23.1973 21.304 22.9683 21.7271C22.7741 22.0856 22.336 22.5137 21.9726 22.6979C21.4698 22.9518 21.1612 23.0016 20.046 23.0016H19.0504L18.906 22.7228C18.7268 22.3843 18.3435 22.0408 17.9801 21.8964C17.7212 21.7919 17.6266 21.7869 16.412 21.7869C15.1674 21.7869 15.1077 21.7919 14.8189 21.9014C14.4008 22.0706 13.9527 22.5187 13.8034 22.9269C13.6391 23.355 13.669 24.0022 13.8681 24.3855C14.0473 24.739 14.3609 25.0426 14.7243 25.2218L15.018 25.3662H16.412H17.8059L18.0896 25.2268C18.4182 25.0675 18.7666 24.734 18.9309 24.4203L19.0454 24.2063L20.2402 24.1814C21.5843 24.1565 21.7735 24.1266 22.4356 23.8031C23.1574 23.4446 23.7349 22.8721 24.0834 22.1553C24.3871 21.5429 24.4169 21.3787 24.4418 20.2287L24.4617 19.1783L24.7455 18.9991C25.3379 18.6357 25.781 18.0084 25.9253 17.3314C26.0249 16.8634 26.0249 13.8566 25.9253 13.3886C25.781 12.7215 25.3279 12.0794 24.7554 11.7259L24.4667 11.5467L24.407 10.9393C24.1829 8.63443 23.3416 6.63816 21.8233 4.83107C20.3199 3.03393 18.0448 1.68981 15.725 1.22186C14.575 0.992865 13.3006 0.938105 12.2054 1.07252ZM3.88676 12.6767L4.04108 12.8062V15.36V17.9088L3.91165 18.0433C3.62789 18.322 2.95583 18.1528 2.55757 17.6998C2.21905 17.3115 2.19914 17.192 2.19914 15.36C2.19914 13.533 2.21905 13.4085 2.55259 13.0252C2.96081 12.5622 3.56317 12.4029 3.88676 12.6767ZM24.0386 12.6867C24.3223 12.836 24.636 13.2094 24.7256 13.5081C24.7853 13.7072 24.8002 14.0856 24.8002 15.36C24.8002 17.192 24.7803 17.3115 24.4418 17.6998C24.0436 18.1528 23.3715 18.322 23.0877 18.0433L22.9583 17.9088V15.36V12.8111L23.0977 12.6718C23.2222 12.5473 23.257 12.5373 23.5308 12.5622C23.6951 12.5722 23.9241 12.6319 24.0386 12.6867ZM17.761 23.1708C17.9004 23.3102 17.9303 23.3799 17.9303 23.5442C17.9303 23.808 17.8208 24.0271 17.6316 24.1217C17.4225 24.2262 15.4064 24.2312 15.1973 24.1266C14.9932 24.0171 14.8936 23.8329 14.8936 23.5691C14.8936 23.3749 14.9185 23.3152 15.0629 23.1708L15.2321 23.0016H16.412H17.5918L17.761 23.1708Z"/>
    </mask>
    <path d="M12.2054 1.07252C9.75607 1.37619 7.49098 2.48135 5.75856 4.20879C3.91662 6.05073 2.78159 8.51495 2.57251 11.1136L2.53766 11.5467L2.24892 11.7209C1.67145 12.0794 1.21843 12.7215 1.07406 13.3886C0.974498 13.8616 0.974498 16.8634 1.07904 17.3413C1.27817 18.2971 2.09958 19.1285 3.0305 19.3227C3.9216 19.5069 4.69323 19.1783 5.07655 18.4465L5.21096 18.1976V15.36V12.5224L5.07655 12.2735C4.93716 12.0047 4.59864 11.6612 4.35471 11.5317C4.27008 11.4919 4.10082 11.4322 3.97139 11.3973L3.73741 11.3376L3.76728 11.1086C3.97139 9.54046 4.20038 8.74395 4.79279 7.55913C6.18171 4.78626 8.83012 2.83978 11.9365 2.31209C12.5737 2.20755 13.8183 2.16772 14.4704 2.23742C17.4673 2.561 20.051 4.13412 21.6739 6.62323C22.4555 7.818 22.9832 9.22186 23.1574 10.556C23.2719 11.4421 23.2869 11.3326 23.023 11.3973C22.8986 11.4322 22.7293 11.4919 22.6447 11.5317C22.4007 11.6612 22.0622 12.0047 21.9228 12.2735L21.7884 12.5224V15.36V18.1976L21.9228 18.4465C22.0622 18.7153 22.4007 19.0588 22.6447 19.1882C22.7293 19.2281 22.8986 19.2878 23.023 19.3227L23.257 19.3774V20.1341C23.257 20.9704 23.1973 21.304 22.9683 21.7271C22.7741 22.0856 22.336 22.5137 21.9726 22.6979C21.4698 22.9518 21.1612 23.0016 20.046 23.0016H19.0504L18.906 22.7228C18.7268 22.3843 18.3435 22.0408 17.9801 21.8964C17.7212 21.7919 17.6266 21.7869 16.412 21.7869C15.1674 21.7869 15.1077 21.7919 14.8189 21.9014C14.4008 22.0706 13.9527 22.5187 13.8034 22.9269C13.6391 23.355 13.669 24.0022 13.8681 24.3855C14.0473 24.739 14.3609 25.0426 14.7243 25.2218L15.018 25.3662H16.412H17.8059L18.0896 25.2268C18.4182 25.0675 18.7666 24.734 18.9309 24.4203L19.0454 24.2063L20.2402 24.1814C21.5843 24.1565 21.7735 24.1266 22.4356 23.8031C23.1574 23.4446 23.7349 22.8721 24.0834 22.1553C24.3871 21.5429 24.4169 21.3787 24.4418 20.2287L24.4617 19.1783L24.7455 18.9991C25.3379 18.6357 25.781 18.0084 25.9253 17.3314C26.0249 16.8634 26.0249 13.8566 25.9253 13.3886C25.781 12.7215 25.3279 12.0794 24.7554 11.7259L24.4667 11.5467L24.407 10.9393C24.1829 8.63443 23.3416 6.63816 21.8233 4.83107C20.3199 3.03393 18.0448 1.68981 15.725 1.22186C14.575 0.992865 13.3006 0.938105 12.2054 1.07252ZM3.88676 12.6767L4.04108 12.8062V15.36V17.9088L3.91165 18.0433C3.62789 18.322 2.95583 18.1528 2.55757 17.6998C2.21905 17.3115 2.19914 17.192 2.19914 15.36C2.19914 13.533 2.21905 13.4085 2.55259 13.0252C2.96081 12.5622 3.56317 12.4029 3.88676 12.6767ZM24.0386 12.6867C24.3223 12.836 24.636 13.2094 24.7256 13.5081C24.7853 13.7072 24.8002 14.0856 24.8002 15.36C24.8002 17.192 24.7803 17.3115 24.4418 17.6998C24.0436 18.1528 23.3715 18.322 23.0877 18.0433L22.9583 17.9088V15.36V12.8111L23.0977 12.6718C23.2222 12.5473 23.257 12.5373 23.5308 12.5622C23.6951 12.5722 23.9241 12.6319 24.0386 12.6867ZM17.761 23.1708C17.9004 23.3102 17.9303 23.3799 17.9303 23.5442C17.9303 23.808 17.8208 24.0271 17.6316 24.1217C17.4225 24.2262 15.4064 24.2312 15.1973 24.1266C14.9932 24.0171 14.8936 23.8329 14.8936 23.5691C14.8936 23.3749 14.9185 23.3152 15.0629 23.1708L15.2321 23.0016H16.412H17.5918L17.761 23.1708Z" fill="#133769"/>
    <path d="M12.2054 1.07252C9.75607 1.37619 7.49098 2.48135 5.75856 4.20879C3.91662 6.05073 2.78159 8.51495 2.57251 11.1136L2.53766 11.5467L2.24892 11.7209C1.67145 12.0794 1.21843 12.7215 1.07406 13.3886C0.974498 13.8616 0.974498 16.8634 1.07904 17.3413C1.27817 18.2971 2.09958 19.1285 3.0305 19.3227C3.9216 19.5069 4.69323 19.1783 5.07655 18.4465L5.21096 18.1976V15.36V12.5224L5.07655 12.2735C4.93716 12.0047 4.59864 11.6612 4.35471 11.5317C4.27008 11.4919 4.10082 11.4322 3.97139 11.3973L3.73741 11.3376L3.76728 11.1086C3.97139 9.54046 4.20038 8.74395 4.79279 7.55913C6.18171 4.78626 8.83012 2.83978 11.9365 2.31209C12.5737 2.20755 13.8183 2.16772 14.4704 2.23742C17.4673 2.561 20.051 4.13412 21.6739 6.62323C22.4555 7.818 22.9832 9.22186 23.1574 10.556C23.2719 11.4421 23.2869 11.3326 23.023 11.3973C22.8986 11.4322 22.7293 11.4919 22.6447 11.5317C22.4007 11.6612 22.0622 12.0047 21.9228 12.2735L21.7884 12.5224V15.36V18.1976L21.9228 18.4465C22.0622 18.7153 22.4007 19.0588 22.6447 19.1882C22.7293 19.2281 22.8986 19.2878 23.023 19.3227L23.257 19.3774V20.1341C23.257 20.9704 23.1973 21.304 22.9683 21.7271C22.7741 22.0856 22.336 22.5137 21.9726 22.6979C21.4698 22.9518 21.1612 23.0016 20.046 23.0016H19.0504L18.906 22.7228C18.7268 22.3843 18.3435 22.0408 17.9801 21.8964C17.7212 21.7919 17.6266 21.7869 16.412 21.7869C15.1674 21.7869 15.1077 21.7919 14.8189 21.9014C14.4008 22.0706 13.9527 22.5187 13.8034 22.9269C13.6391 23.355 13.669 24.0022 13.8681 24.3855C14.0473 24.739 14.3609 25.0426 14.7243 25.2218L15.018 25.3662H16.412H17.8059L18.0896 25.2268C18.4182 25.0675 18.7666 24.734 18.9309 24.4203L19.0454 24.2063L20.2402 24.1814C21.5843 24.1565 21.7735 24.1266 22.4356 23.8031C23.1574 23.4446 23.7349 22.8721 24.0834 22.1553C24.3871 21.5429 24.4169 21.3787 24.4418 20.2287L24.4617 19.1783L24.7455 18.9991C25.3379 18.6357 25.781 18.0084 25.9253 17.3314C26.0249 16.8634 26.0249 13.8566 25.9253 13.3886C25.781 12.7215 25.3279 12.0794 24.7554 11.7259L24.4667 11.5467L24.407 10.9393C24.1829 8.63443 23.3416 6.63816 21.8233 4.83107C20.3199 3.03393 18.0448 1.68981 15.725 1.22186C14.575 0.992865 13.3006 0.938105 12.2054 1.07252ZM3.88676 12.6767L4.04108 12.8062V15.36V17.9088L3.91165 18.0433C3.62789 18.322 2.95583 18.1528 2.55757 17.6998C2.21905 17.3115 2.19914 17.192 2.19914 15.36C2.19914 13.533 2.21905 13.4085 2.55259 13.0252C2.96081 12.5622 3.56317 12.4029 3.88676 12.6767ZM24.0386 12.6867C24.3223 12.836 24.636 13.2094 24.7256 13.5081C24.7853 13.7072 24.8002 14.0856 24.8002 15.36C24.8002 17.192 24.7803 17.3115 24.4418 17.6998C24.0436 18.1528 23.3715 18.322 23.0877 18.0433L22.9583 17.9088V15.36V12.8111L23.0977 12.6718C23.2222 12.5473 23.257 12.5373 23.5308 12.5622C23.6951 12.5722 23.9241 12.6319 24.0386 12.6867ZM17.761 23.1708C17.9004 23.3102 17.9303 23.3799 17.9303 23.5442C17.9303 23.808 17.8208 24.0271 17.6316 24.1217C17.4225 24.2262 15.4064 24.2312 15.1973 24.1266C14.9932 24.0171 14.8936 23.8329 14.8936 23.5691C14.8936 23.3749 14.9185 23.3152 15.0629 23.1708L15.2321 23.0016H16.412H17.5918L17.761 23.1708Z" stroke="#133769" stroke-width="0.4" mask="url(#path-1-outside-1_3560_8579)"/>
    <path fill-rule="evenodd" clip-rule="evenodd" d="M7.19215 8.63955C7.49582 7.65386 8.29731 6.95691 9.29295 6.8225C9.45724 6.80259 11.4386 6.78765 13.6987 6.79263L17.8057 6.79761L18.1343 6.91211C18.9457 7.18093 19.5531 7.81317 19.807 8.63955C19.8916 8.91335 19.8966 9.16724 19.8966 11.9003C19.8966 14.8275 19.8966 14.8673 19.787 15.2158C19.6526 15.6439 19.3539 16.1069 19.0353 16.3807C18.7167 16.6545 18.1691 16.9183 17.7808 16.9781C17.6016 17.003 16.6856 17.0278 15.7397 17.0278H14.0223L12.8275 18.2027C12.016 18.9992 11.563 19.4074 11.4087 19.4771C10.9407 19.6962 10.3583 19.5667 9.99488 19.1685C9.73602 18.8797 9.66632 18.5811 9.66632 17.7447V17.0378L9.283 16.983C8.30727 16.8387 7.51075 16.1567 7.21206 15.2158C7.10254 14.8673 7.10254 14.8275 7.10254 11.9003C7.10254 9.16724 7.10752 8.91335 7.19215 8.63955ZM18.5624 8.75405C18.4081 8.43544 18.2139 8.25125 17.8804 8.09693C17.6617 7.99253 17.6018 7.99238 13.6411 7.98247H13.6411H13.6411L13.624 7.98243C11.4087 7.98243 9.49208 7.99736 9.37261 8.02225C8.91959 8.11186 8.52133 8.46034 8.36203 8.9034C8.31225 9.04777 8.29731 9.71982 8.29731 11.9252V14.7628L8.4367 15.0465C8.58605 15.3502 8.76029 15.5244 9.08885 15.6937C9.25313 15.7783 9.40745 15.8032 9.86545 15.8231C10.8511 15.8629 10.8611 15.8779 10.8611 17.3265C10.8611 17.899 10.881 18.372 10.9059 18.372C10.9308 18.372 11.5282 17.8044 12.2301 17.1125L13.5145 15.858L15.6103 15.8331L17.7061 15.8082L17.96 15.6738C18.2537 15.5194 18.4479 15.3104 18.5972 14.9868C18.7018 14.7677 18.7018 14.698 18.7018 11.9003V9.03781L18.5624 8.75405ZM9.71582 11.9995C9.71582 11.6311 9.9946 11.2627 10.353 11.1532C10.5422 11.0984 10.6119 11.0984 10.821 11.1532C11.04 11.2179 11.284 11.412 11.3835 11.6062C11.4781 11.7854 11.4781 12.2135 11.3835 12.3928C11.2192 12.7114 10.7762 12.9354 10.4476 12.8707C10.0394 12.786 9.71582 12.4027 9.71582 11.9995ZM13.2113 11.1733C12.9674 11.2579 12.7235 11.5218 12.6538 11.7756C12.4795 12.3979 13.1018 13.0302 13.7042 12.8509C14.1871 12.7066 14.4708 12.2237 14.3464 11.7756C14.2468 11.4122 13.8585 11.1135 13.5001 11.1135C13.4304 11.1135 13.3009 11.1384 13.2113 11.1733ZM15.6105 11.6112C15.7101 11.417 15.8993 11.2527 16.1233 11.1731C16.6609 10.974 17.2782 11.412 17.2832 11.9945C17.2832 12.3828 16.9497 12.786 16.5514 12.8707C16.2229 12.9354 15.7798 12.7114 15.6155 12.3928C15.5209 12.2135 15.5209 11.7854 15.6105 11.6112Z" fill="url(#paint0_linear_3560_8579)"/>
    <defs>
    <linearGradient id="paint0_linear_3560_8579" x1="2.56279" y1="14.6936" x2="21.0413" y2="14.5767" gradientUnits="userSpaceOnUse">
    <stop stop-color="#F8B133"/>
    <stop offset="1" stop-color="#D22635"/>
    </linearGradient>
    </defs>
</svg>
