<svg width="25" height="24" viewBox="0 0 25 24" fill="none" xmlns="http://www.w3.org/2000/svg">
<circle cx="12.294" cy="11.7647" r="11.7647" fill="url(#paint0_linear_1811_2143)"/>
<path d="M6.23599 6.03232C5.80125 6.12803 5.38837 6.43978 5.18604 6.8281C4.98917 7.20548 5.00011 6.92928 5.00011 11.0914C5.00011 14.7148 5.00284 14.8406 5.05206 14.9172C5.13682 15.0457 5.24072 15.0977 5.41572 15.0977H5.56884L6.42739 14.4878C6.89769 14.1542 7.45274 13.7577 7.65781 13.61C8.26208 13.1807 7.86015 13.2272 11.0975 13.2108L13.8728 13.1971L14.056 13.126C14.5618 12.9291 14.9364 12.5025 15.0649 11.9802C15.095 11.8571 15.1032 11.3047 15.1032 9.06777C15.1032 6.35501 15.1032 6.30305 15.0485 6.21281C15.0184 6.16085 14.9583 6.09522 14.9173 6.0624L14.8407 6.00497L10.6245 5.9995C7.1301 5.99677 6.37818 6.00224 6.23599 6.03232ZM12.8748 8.31848C13.14 8.46615 13.1482 8.79157 12.8912 8.983C12.8174 9.04043 12.7982 9.04043 10.3182 9.04043C7.83827 9.04043 7.81913 9.04043 7.74531 8.983C7.6168 8.88729 7.56211 8.79157 7.56211 8.66304C7.56211 8.51537 7.63047 8.39232 7.75898 8.31848C7.85741 8.26379 7.87382 8.26105 10.3155 8.26105C12.7572 8.26105 12.7709 8.26105 12.8748 8.31848ZM12.8748 10.2327C13.14 10.3804 13.1482 10.7058 12.8912 10.8972C12.8174 10.9547 12.7982 10.9547 10.3182 10.9547C7.83827 10.9547 7.81913 10.9547 7.74531 10.8972C7.6168 10.8015 7.56211 10.7058 7.56211 10.5773C7.56211 10.4296 7.63047 10.3066 7.75898 10.2327C7.85741 10.178 7.87382 10.1753 10.3155 10.1753C12.7572 10.1753 12.7709 10.1753 12.8748 10.2327Z" fill="white"/>
<path d="M15.902 10.5515C15.8911 11.8696 15.8884 11.9544 15.831 12.1759C15.615 13.0099 15.0216 13.6389 14.1877 13.9178L13.9553 13.9944L11.4151 14.0026L8.875 14.0108L8.89141 14.5359C8.90781 15.1265 8.93789 15.2769 9.09374 15.575C9.27967 15.9251 9.62966 16.2067 10.0589 16.3489C10.1984 16.3954 10.3952 16.4009 12.9709 16.4146C15.6177 16.4282 15.738 16.431 15.8528 16.4802C15.9185 16.5103 16.5173 16.9205 17.1789 17.3936C17.8434 17.8667 18.4121 18.2632 18.4476 18.2769C18.6172 18.3425 18.8304 18.2686 18.9398 18.11L19 18.0198V14.2761C19 10.1413 19.0082 10.3601 18.8277 10.0319C18.6582 9.72836 18.4449 9.51779 18.1523 9.36192C17.8543 9.20331 17.7559 9.18963 16.7934 9.17596L15.9157 9.16229L15.902 10.5515Z" fill="white"/>
<defs>
<linearGradient id="paint0_linear_1811_2143" x1="12.5293" y1="30" x2="12.5293" y2="-8.5" gradientUnits="userSpaceOnUse">
<stop offset="0.333835" stop-color="#158DE3"/>
<stop offset="1" stop-color="#1DACCC"/>
</linearGradient>
</defs>
</svg>
