<svg width="24" height="24" viewBox="0 0 24 24" fill="none" xmlns="http://www.w3.org/2000/svg">
<circle cx="11.7647" cy="11.7647" r="11.7647" fill="url(#paint0_linear_1811_2140)"/>
<path d="M5.47134 7.84375C5.35597 7.84375 5.24717 7.86311 5.14422 7.90277L7.20554 9.96112L9.28975 12.0563L9.32772 12.1007L9.38857 12.1597L9.44942 12.2187L9.57111 12.3441L11.3586 14.122C11.3883 14.1399 11.4747 14.2173 11.5421 14.2502C11.629 14.2922 11.723 14.3311 11.8199 14.3344C11.9245 14.338 12.0314 14.3089 12.1256 14.2645C12.1961 14.2313 12.2275 14.1836 12.3093 14.1222L14.3782 12.0492L16.4699 9.96136L18.4855 7.94739C18.3547 7.87876 18.2083 7.84319 18.0596 7.84398H5.47134V7.84375ZM4.83997 8.09447C4.62018 8.29655 4.48242 8.60014 4.48242 8.94292V15.7006C4.48242 15.978 4.57418 16.2301 4.72582 16.4235L5.01473 16.1579L7.16733 14.129L9.07653 12.3363L9.03856 12.2921L6.94681 10.2043L4.85506 8.10911L4.83997 8.09447ZM18.7593 8.16103L16.7209 10.2045L14.6367 12.2924L14.5987 12.3292L16.5839 14.1956L18.7365 16.2245L18.8657 16.3425C18.9816 16.1621 19.0482 15.94 19.0482 15.7006V8.94292C19.0482 8.63744 18.9392 8.36028 18.7593 8.16103ZM9.31993 12.5799L7.41851 14.3727L5.25837 16.4015L4.98455 16.6598C5.12888 16.75 5.29318 16.8073 5.47134 16.8073H18.0596C18.2738 16.8073 18.468 16.7275 18.6301 16.6008L18.4933 16.4681L16.3332 14.4392L14.348 12.5801L12.5605 14.3654C12.4639 14.4277 12.3991 14.4966 12.3047 14.5389C12.1526 14.6071 11.9861 14.6647 11.8186 14.6623C11.6507 14.6597 11.4859 14.596 11.3353 14.5242C11.2596 14.4881 11.2192 14.4522 11.1306 14.3802L9.31993 12.5799Z" fill="white"/>
<defs>
<linearGradient id="paint0_linear_1811_2140" x1="11.7531" y1="23.4342" x2="11.9058" y2="-130.903" gradientUnits="userSpaceOnUse">
<stop stop-color="#FD9646"/>
<stop offset="1" stop-color="#E38133"/>
</linearGradient>
</defs>
</svg>
