<svg width="361" height="361" viewBox="0 0 361 361" fill="none" xmlns="http://www.w3.org/2000/svg">
<path d="M179.698 284.21C257.011 284.21 319.686 280.55 319.686 276.035C319.686 271.52 257.011 267.859 179.698 267.859C102.385 267.859 39.71 271.52 39.71 276.035C39.71 280.55 102.385 284.21 179.698 284.21Z" fill="#F5F5F5"/>
<path d="M171.124 243.892H31.7061C29.434 243.892 27.585 242.043 27.585 239.771V43.797C27.585 41.5248 29.434 39.6758 31.7061 39.6758H171.124C173.395 39.6758 175.244 41.5248 175.244 43.797V239.771C175.244 242.043 173.395 243.892 171.124 243.892ZM31.7061 39.857C29.5329 39.857 27.7655 41.6245 27.7655 43.7977V239.772C27.7655 241.945 29.5329 243.712 31.7061 243.712H171.124C173.296 243.712 175.064 241.945 175.064 239.772V43.797C175.064 41.6245 173.296 39.8563 171.124 39.8563L31.7061 39.857Z" fill="#EBEBEB"/>
<path d="M327.289 243.892H187.872C185.6 243.892 183.752 242.043 183.752 239.771V43.797C183.752 41.5248 185.601 39.6758 187.872 39.6758H327.289C329.562 39.6758 331.41 41.5248 331.41 43.797V239.771C331.411 242.043 329.562 243.892 327.289 243.892ZM187.872 39.857C185.7 39.857 183.932 41.6245 183.932 43.7977V239.772C183.932 241.945 185.7 243.712 187.872 243.712H327.289C329.462 243.712 331.23 241.945 331.23 239.772V43.797C331.23 41.6245 329.462 39.8563 327.289 39.8563L187.872 39.857Z" fill="#EBEBEB"/>
<path d="M55.7933 282.969H37.0234V283.149H55.7933V282.969Z" fill="#EBEBEB"/>
<path d="M137.31 281.008H104.801V281.188H137.31V281.008Z" fill="#EBEBEB"/>
<path d="M100.407 289.672H56.5156V289.852H100.407V289.672Z" fill="#EBEBEB"/>
<path d="M323.978 288.461H310.09V288.641H323.978V288.461Z" fill="#EBEBEB"/>
<path d="M303.661 288.461H263.74V288.641H303.661V288.461Z" fill="#EBEBEB"/>
<path d="M239.353 285.41H185.588V285.591H239.353V285.41Z" fill="#EBEBEB"/>
<path d="M137.781 155.551L128.645 276.096H216.714L225.85 155.551H137.781ZM193.162 240.754C192.417 250.588 183.842 258.559 174.009 258.559C164.175 258.559 156.808 250.588 157.553 240.754L160.766 198.373C161.511 188.539 170.087 180.561 179.92 180.561C184.837 180.561 189.141 182.554 192.116 185.781C195.092 189.001 196.747 193.456 196.375 198.373L193.162 240.754Z" fill="#E6E6E6"/>
<path d="M244.668 276.096H116.246L116.986 268.188H245.408L244.668 276.096Z" fill="#E6E6E6"/>
<path d="M294.016 231.334H305.387C306.037 231.334 306.542 230.802 306.509 230.152L306.469 229.345C306.436 228.695 305.878 228.164 305.228 228.164H293.857C293.207 228.164 292.702 228.695 292.735 229.345L292.775 230.152C292.808 230.802 293.366 231.334 294.016 231.334Z" fill="#E0E0E0"/>
<path d="M274.999 231.334H286.371C287.02 231.334 287.525 230.802 287.493 230.152L287.452 229.345C287.42 228.695 286.862 228.164 286.212 228.164H274.84C274.19 228.164 273.686 228.695 273.718 229.345L273.759 230.152C273.792 230.802 274.35 231.334 274.999 231.334Z" fill="#E0E0E0"/>
<path d="M314.232 230.442H48.8077C45.7464 230.442 43.1407 227.96 42.9869 224.899L34.9973 65.4686C34.8442 62.4073 37.2008 59.9258 40.2621 59.9258H305.687C308.749 59.9258 311.354 62.4073 311.508 65.4686L319.498 224.899C319.651 227.96 317.293 230.442 314.232 230.442Z" fill="#E0E0E0"/>
<path d="M317.485 230.442H52.0607C48.9994 230.442 46.3937 227.96 46.2399 224.899L38.2503 65.4686C38.0965 62.4073 40.4538 59.9258 43.5151 59.9258H308.94C312.002 59.9258 314.607 62.4073 314.76 65.4686L322.75 224.899C322.904 227.96 320.547 230.442 317.485 230.442Z" fill="#E6E6E6"/>
<path d="M53.6132 219.319L46.1831 71.0556C46.0871 69.1372 47.5643 67.582 49.4827 67.582H303.74C305.658 67.582 307.292 69.1372 307.388 71.0556L314.818 219.318C314.914 221.237 313.436 222.792 311.518 222.792H57.2608C55.3424 222.792 53.7093 221.237 53.6132 219.319Z" fill="#F5F5F5"/>
<path d="M61.8488 75.1666C61.934 76.8633 60.6272 78.2394 58.9298 78.2394C57.2324 78.2394 55.7884 76.864 55.7032 75.1666C55.618 73.4692 56.9248 72.0938 58.6222 72.0938C60.3189 72.0938 61.7636 73.4692 61.8488 75.1666Z" fill="white"/>
<path d="M75.7629 75.1666C75.8481 76.8633 74.5413 78.2394 72.8438 78.2394C71.1464 78.2394 69.7017 76.864 69.6172 75.1666C69.532 73.4692 70.8389 72.0938 72.5363 72.0938C74.2337 72.0938 75.6777 73.4692 75.7629 75.1666Z" fill="white"/>
<path d="M89.6769 75.1666C89.7621 76.8633 88.4553 78.2394 86.7579 78.2394C85.0612 78.2394 83.6165 76.864 83.5313 75.1666C83.4461 73.4692 84.7529 72.0938 86.4503 72.0938C88.147 72.0938 89.5918 73.4692 89.6769 75.1666Z" fill="white"/>
<g opacity="0.6">
<path d="M80.0518 222.788H116.693L150.194 67.5781H113.553L80.0518 222.788Z" fill="white"/>
<path d="M237.743 222.788H247.017L280.518 67.5781H271.244L237.743 222.788Z" fill="white"/>
<path d="M124.84 222.788H176.826L210.327 67.5781H158.341L124.84 222.788Z" fill="white"/>
</g>
<path d="M166.815 113.664L148.274 132.205C147.341 152.758 147.417 174.344 148.274 196.728H209.583C208.369 167.845 208.254 140.043 209.583 113.664H166.815V113.664Z" fill="white"/>
<path d="M209.582 197.047H148.273C148.102 197.047 147.961 196.912 147.955 196.741C147.066 173.501 147.066 151.783 147.955 132.192C147.959 132.113 147.992 132.038 148.048 131.982L166.589 113.441C166.648 113.381 166.729 113.348 166.813 113.348H209.582C209.669 113.348 209.752 113.384 209.812 113.446C209.872 113.51 209.903 113.594 209.899 113.681C208.619 139.088 208.619 166.248 209.899 196.715C209.903 196.802 209.871 196.886 209.811 196.949C209.751 197.011 209.668 197.047 209.582 197.047ZM148.579 196.411H209.25C207.989 166.192 207.988 139.222 209.247 113.983H166.945L148.585 132.344C147.706 151.799 147.704 173.352 148.579 196.411Z" fill="#263238"/>
<path d="M198.588 180.07H191.902C191.771 180.07 191.664 179.963 191.664 179.832C191.664 179.7 191.771 179.594 191.902 179.594H198.588C198.72 179.594 198.826 179.7 198.826 179.832C198.826 179.963 198.72 180.07 198.588 180.07Z" fill="#133769"/>
<path d="M189.133 180.07H159.267C159.136 180.07 159.029 179.963 159.029 179.832C159.029 179.7 159.136 179.594 159.267 179.594H189.133C189.265 179.594 189.371 179.7 189.371 179.832C189.371 179.963 189.265 180.07 189.133 180.07Z" fill="#133769"/>
<path d="M170.399 152.195C170.329 150.644 169.447 149.417 168.429 149.454C167.412 149.491 166.644 150.777 166.714 152.327C166.785 153.877 167.666 155.104 168.684 155.068C169.701 155.031 170.469 153.745 170.399 152.195Z" fill="#E77434"/>
<path d="M191.897 151.71C191.827 150.16 190.946 148.933 189.928 148.97C188.91 149.006 188.142 150.292 188.212 151.843C188.283 153.394 189.164 154.62 190.182 154.584C191.2 154.547 191.968 153.26 191.897 151.71Z" fill="#E77434"/>
<path d="M175.767 158.551C181.404 156.538 185.759 158.903 185.961 159.015C186.181 159.138 186.26 159.415 186.136 159.633C186.013 159.852 185.733 159.929 185.512 159.807C185.462 159.779 180.386 157.044 174.328 160.169C174.103 160.283 173.826 160.198 173.709 159.975C173.591 159.753 173.678 159.478 173.902 159.363C174.537 159.035 175.159 158.768 175.767 158.551Z" fill="#133769"/>
<path d="M167.323 137.653C167.476 137.656 167.629 137.698 167.771 137.781C168.207 138.039 168.353 138.598 168.098 139.03C165.538 143.355 161.317 143.569 161.139 143.576C160.633 143.596 160.205 143.204 160.181 142.702C160.157 142.201 160.544 141.779 161.047 141.756C161.186 141.749 164.474 141.548 166.517 138.096C166.69 137.804 167.003 137.645 167.323 137.653Z" fill="#133769"/>
<path d="M188.836 137.13C189.127 137.074 189.441 137.159 189.666 137.384C192.526 140.244 195.769 139.662 195.905 139.636C196.399 139.541 196.883 139.86 196.985 140.351C197.086 140.843 196.772 141.319 196.279 141.419C196.099 141.451 191.954 142.245 188.37 138.662C188.012 138.304 188.012 137.728 188.37 137.375C188.502 137.245 188.665 137.163 188.836 137.13Z" fill="#133769"/>
<path opacity="0.2" d="M168.525 133.86C166.712 128.911 164.9 120.995 166.814 113.664L148.273 132.205C153.513 133.958 161.867 134.721 168.525 133.86Z" fill="black"/>
<path d="M166.814 132.205C164.782 126.201 165.61 118.039 166.814 113.664L148.273 132.205C153.887 133.227 160.156 133.066 166.814 132.205Z" fill="white"/>
<path d="M156.752 133.231C153.656 133.231 150.826 132.994 148.216 132.519C148.1 132.498 148.005 132.414 147.97 132.301C147.934 132.188 147.965 132.065 148.048 131.982L166.589 113.441C166.691 113.339 166.849 113.318 166.974 113.391C167.098 113.463 167.159 113.611 167.12 113.75C166 117.824 165.073 126.073 167.115 132.105C167.146 132.195 167.134 132.294 167.084 132.375C167.033 132.456 166.949 132.509 166.855 132.522C163.195 132.994 159.841 133.231 156.752 133.231ZM148.931 131.998C153.856 132.814 159.58 132.795 166.393 131.939C164.717 126.622 165.095 119.582 166.224 114.705L148.931 131.998Z" fill="#263238"/>
</svg>
