<svg width="19" height="20" viewBox="0 0 19 20" fill="none" xmlns="http://www.w3.org/2000/svg">
<path d="M13.0132 9.00303C15.2334 9.00303 17.0333 7.20187 17.0333 4.98003C17.0333 2.75819 15.2334 0.957031 13.0132 0.957031C10.793 0.957031 8.99316 2.75819 8.99316 4.98003C8.99316 7.20187 10.793 9.00303 13.0132 9.00303Z" fill="#FD9F27"/>
<path d="M7.81028 19.1716C7.14108 19.1708 6.49951 18.9045 6.02631 18.4309C5.55311 17.9574 5.28693 17.3153 5.28613 16.6456C5.28613 16.5117 5.33929 16.3832 5.43393 16.2885C5.52856 16.1938 5.65693 16.1406 5.79077 16.1406C5.9246 16.1406 6.05296 16.1938 6.14759 16.2885C6.24223 16.3832 6.29539 16.5117 6.29539 16.6456C6.30553 17.0408 6.46954 17.4164 6.75244 17.6924C7.03533 17.9683 7.41474 18.1227 7.80978 18.1227C8.20482 18.1227 8.58423 17.9683 8.86713 17.6924C9.15002 17.4164 9.31403 17.0408 9.32417 16.6456C9.32417 16.5117 9.37733 16.3832 9.47197 16.2885C9.56661 16.1938 9.69497 16.1406 9.82881 16.1406C9.96265 16.1406 10.091 16.1938 10.1856 16.2885C10.2803 16.3832 10.3334 16.5117 10.3334 16.6456C10.3326 17.3152 10.0666 17.957 9.5936 18.4305C9.12062 18.9041 8.47931 19.1706 7.81028 19.1716Z" fill="black"/>
<path d="M13.9673 17.1521H1.82319C1.55777 17.1487 1.29968 17.0645 1.08321 16.9107C0.866736 16.757 0.702132 16.5409 0.611261 16.2913C0.520389 16.0417 0.50755 15.7704 0.574449 15.5133C0.641348 15.2563 0.78482 15.0256 0.985804 14.8521C1.00434 14.8357 1.02404 14.8207 1.04476 14.8071C1.5795 14.3336 2.00751 13.7516 2.30038 13.1C2.59326 12.4483 2.74431 11.7417 2.74352 11.0271V8.94812C2.73792 7.57312 3.27674 6.25187 4.24211 5.27343C5.20747 4.29499 6.52079 3.73901 7.89474 3.72712C8.01605 3.72438 8.13738 3.73175 8.25748 3.74912C8.39431 3.78246 8.5135 3.86629 8.5912 3.98383C8.6689 4.10137 8.69936 4.24395 8.6765 4.38301C8.65363 4.52207 8.57912 4.64736 8.46789 4.73379C8.35665 4.82022 8.2169 4.86141 8.07661 4.84912C8.01627 4.84195 7.95545 4.83961 7.89474 4.84212C6.81518 4.85031 5.78288 5.28646 5.0241 6.05499C4.26531 6.82352 3.84192 7.86174 3.84671 8.94211V11.0271C3.84793 11.9146 3.65769 12.792 3.28897 13.5991C2.92025 14.4063 2.38175 15.1243 1.71027 15.7041C1.69928 15.7131 1.68929 15.7211 1.6773 15.7291C1.65684 15.7567 1.64432 15.7893 1.64109 15.8235C1.63786 15.8577 1.64404 15.8921 1.65897 15.923C1.6739 15.9539 1.69701 15.9802 1.72578 15.9989C1.75456 16.0176 1.7879 16.028 1.82219 16.0291H13.9673C14.0162 16.0283 14.0628 16.0084 14.0971 15.9737C14.1315 15.9389 14.1509 15.892 14.1512 15.8431C14.1518 15.801 14.1377 15.7599 14.1112 15.7271L14.0792 15.7021C13.4079 15.1226 12.8696 14.4049 12.5008 13.5981C12.1321 12.7913 11.9418 11.9143 11.9428 11.0271V10.2141C11.9363 10.1379 11.9457 10.0613 11.9703 9.98891C11.995 9.91655 12.0344 9.85012 12.0861 9.79381C12.1378 9.73751 12.2006 9.69255 12.2705 9.6618C12.3404 9.63105 12.416 9.61517 12.4924 9.61517C12.5688 9.61517 12.6443 9.63105 12.7143 9.6618C12.7842 9.69255 12.847 9.73751 12.8987 9.79381C12.9503 9.85012 12.9897 9.91655 13.0144 9.98891C13.0391 10.0613 13.0485 10.1379 13.042 10.2141V11.0271C13.0407 11.7423 13.1916 12.4496 13.4845 13.102C13.7773 13.7545 14.2056 14.337 14.7407 14.8111C14.7606 14.8242 14.7797 14.8385 14.7977 14.8541C14.9992 15.0274 15.1432 15.258 15.2104 15.5153C15.2776 15.7725 15.2649 16.0441 15.1739 16.294C15.083 16.5438 14.9181 16.7599 14.7013 16.9136C14.4845 17.0673 14.226 17.1512 13.9603 17.1541L13.9673 17.1521Z" fill="#133769"/>
<path d="M13.2348 9.95131C12.2707 9.95131 11.3283 9.66523 10.5267 9.12922C9.72512 8.59322 9.10033 7.83138 8.7314 6.94004C8.36246 6.04871 8.26593 5.0679 8.45401 4.12166C8.6421 3.17542 9.10636 2.30625 9.78806 1.62405C10.4698 0.941847 11.3383 0.477263 12.2838 0.289044C13.2294 0.100825 14.2095 0.197426 15.1001 0.56663C15.9908 0.935835 16.7521 1.56106 17.2877 2.36324C17.8233 3.16543 18.1092 4.10854 18.1092 5.07331C18.1076 6.36655 17.5936 7.60637 16.6798 8.52083C15.766 9.43529 14.5271 9.94973 13.2348 9.95131ZM13.2348 1.65831C12.5599 1.65831 11.9001 1.8586 11.3389 2.23385C10.7777 2.60909 10.3403 3.14244 10.0821 3.76645C9.82378 4.39046 9.7562 5.0771 9.88787 5.73955C10.0195 6.40199 10.3445 7.01049 10.8218 7.48808C11.299 7.96568 11.9071 8.29093 12.569 8.4227C13.231 8.55447 13.9172 8.48684 14.5407 8.22836C15.1643 7.96989 15.6972 7.53218 16.0722 6.97059C16.4472 6.40899 16.6473 5.74874 16.6473 5.07331C16.6465 4.16784 16.2867 3.29969 15.6469 2.65942C15.0071 2.01916 14.1396 1.65911 13.2348 1.65831Z" fill="black"/>
</svg>
