<svg width="76" height="98" viewBox="0 0 76 98" fill="none" xmlns="http://www.w3.org/2000/svg">
<path d="M75.0503 64.8091C75.5905 63.4393 74.8381 62.3203 73.3525 62.3203H19.2159C17.7496 62.3203 16.1097 63.4393 15.5695 64.8091L3.56914 95.2344C3.02893 96.6043 3.80066 97.7233 5.26694 97.7233H59.4035C60.8698 97.7233 62.5097 96.6043 63.05 95.2344L75.0503 64.8091Z" fill="#E2E6FF"/>
<path d="M0.983952 92.6529L12.9843 62.2083C13.5245 60.8385 15.1644 59.7195 16.6307 59.7195H59.1335V57.0377C59.1335 55.5522 57.9181 54.356 56.4518 54.356H37.5059C36.0203 54.356 34.2454 53.2949 33.5508 52.0215L30.9655 47.2561C30.271 45.9635 28.496 44.9023 27.0297 44.9023H2.66246C1.19618 44.9023 0 46.1178 0 47.5841V92.46C0 93.7526 0.926073 94.833 2.14154 95.0839C1.02254 94.833 0.501623 93.8298 0.983952 92.6529Z" fill="#E2E6FF"/>
<path d="M68.7937 20.2923L53.8627 15.7578L44.8799 45.3958L68.0868 52.4303L74.6385 30.844L68.7937 20.2923Z" fill="#E2E6FF"/>
<path d="M67.2932 31.9976L66.2243 29.9976L61.4484 32.5665L58.8794 27.7734L56.8794 28.8424L59.4484 33.6355L54.6553 36.1872L55.7242 38.1872L60.5173 35.6183L63.0691 40.4114L65.0691 39.3424L62.5174 34.5493L67.2932 31.9976Z" fill="#CAD2F9"/>
<path d="M29.1552 0L14 3.68966L21.3276 33.7759L44.8793 28.0345L39.5517 6.12069L29.1552 0Z" fill="#E2E6FF"/>
<path d="M33.8105 10.8615L31.8795 9.67188L29.0691 14.3098L24.4312 11.4995L23.2588 13.4305L27.8795 16.2408L25.0691 20.8788L27.0002 22.0512L29.8278 17.4305L34.4484 20.2408L35.6381 18.3098L31.0002 15.4822L33.8105 10.8615Z" fill="#CAD2F9"/>
</svg>
