<svg width="71" height="18" viewBox="0 0 71 18" fill="none" xmlns="http://www.w3.org/2000/svg">
<path d="M17.0029 9H65.0029" stroke="#999999" stroke-linecap="round" stroke-dasharray="2 4"/>
<path opacity="0.99" d="M4.61153 16.8494C4.59878 16.8904 4.5954 16.9336 4.60163 16.976C4.60787 17.0185 4.62355 17.0589 4.64753 17.0945C4.6723 17.1281 4.7052 17.155 4.74315 17.1725C4.78111 17.19 4.82289 17.1975 4.86457 17.1945H6.16479C6.28025 17.1961 6.39419 17.168 6.49562 17.1128C6.59705 17.0577 6.68255 16.9773 6.74389 16.8794L10.7676 10.3474C10.8246 10.2456 10.9092 10.1621 11.0117 10.1063C11.1141 10.0506 11.2303 10.0249 11.3467 10.0323H15.8734C16.11 10.0333 16.3442 9.98561 16.5615 9.89228C17.237 9.63624 17.611 9.27518 17.6837 8.80911C17.7071 8.74255 17.7192 8.6726 17.7197 8.60207C17.718 8.51921 17.7059 8.43689 17.6837 8.35703C17.6824 8.32725 17.6763 8.29787 17.6657 8.27002C17.6506 8.22811 17.6326 8.18734 17.6117 8.148C17.551 7.96737 17.4374 7.80916 17.2857 7.69392C17.1417 7.57055 16.9836 7.46479 16.8146 7.37887L16.5615 7.27885C16.3388 7.20978 16.1066 7.17603 15.8734 7.17884H11.3467C11.2303 7.1862 11.1141 7.16054 11.0117 7.1048C10.9092 7.04906 10.8246 6.96552 10.7676 6.86379L6.74789 0.31571C6.68655 0.217874 6.60105 0.13749 6.49962 0.0823067C6.39819 0.0271238 6.28425 -0.000996059 6.16879 0.000658369L4.86857 0.000658369C4.82689 -0.00239075 4.78511 0.00518525 4.74716 0.0226773C4.7092 0.0401694 4.6763 0.0670058 4.65154 0.100675C4.62755 0.13621 4.61187 0.176682 4.60564 0.219096C4.5994 0.26151 4.60279 0.304783 4.61553 0.345715L6.78789 6.81278C6.81258 6.84981 6.82421 6.89401 6.82095 6.93839C6.81769 6.98277 6.79972 7.0248 6.76989 7.05782C6.74049 7.09076 6.70417 7.1168 6.66355 7.13409C6.62292 7.15137 6.57897 7.15948 6.53485 7.15783H3.01726C2.8998 7.16384 2.78261 7.14154 2.67557 7.09281C2.56852 7.04407 2.47475 6.97033 2.40216 6.87779L1.75005 6.00364C1.67745 5.91111 1.58368 5.83736 1.47664 5.78863C1.3696 5.73989 1.25241 5.71759 1.13494 5.7236H0.265799C0.224115 5.72055 0.182343 5.72813 0.144384 5.74562C0.106426 5.76311 0.0735264 5.78995 0.0487633 5.82362C0.0247173 5.85912 0.00899124 5.89959 0.00275612 5.94202C-0.0034771 5.98445 -6.10352e-05 6.02773 0.0127563 6.06866L0.664865 8.23601C0.737486 8.46373 0.737486 8.7084 0.664865 8.93613L0.0127563 11.1035C-6.10352e-05 11.1444 -0.0034771 11.1877 0.00275612 11.2301C0.00899124 11.2725 0.0247173 11.313 0.0487633 11.3485C0.0735264 11.3822 0.106426 11.409 0.144384 11.4265C0.182343 11.444 0.224115 11.4516 0.265799 11.4485H1.13494C1.25241 11.4545 1.3696 11.4322 1.47664 11.3835C1.58368 11.3348 1.67745 11.261 1.75005 11.1685L2.40216 10.2943C2.47475 10.2018 2.56852 10.1281 2.67557 10.0793C2.78261 10.0306 2.8998 10.0083 3.01726 10.0143L6.53085 10.0143C6.57802 10.0087 6.62585 10.0148 6.67002 10.0323C6.7142 10.0498 6.75334 10.0779 6.78389 10.1143C6.80769 10.1508 6.82036 10.1933 6.82036 10.2368C6.82036 10.2804 6.80769 10.3229 6.78389 10.3594L4.61153 16.8494Z" fill="#999999"/>
<path d="M66.5029 12.5C68.4359 12.5 70.0029 10.933 70.0029 9C70.0029 7.067 68.4359 5.5 66.5029 5.5C64.5699 5.5 63.0029 7.067 63.0029 9C63.0029 10.933 64.5699 12.5 66.5029 12.5Z" fill="white" stroke="#999999"/>
</svg>
