<svg width="19" height="22" viewBox="0 0 19 22" fill="none" xmlns="http://www.w3.org/2000/svg">
<g opacity="0.5">
<g opacity="0.5">
<path opacity="0.5" d="M14.7222 2.68945H5.7832C3.57406 2.68945 1.7832 4.48031 1.7832 6.68945V15.6285C1.7832 17.8376 3.57406 19.6285 5.7832 19.6285H14.7222C16.9313 19.6285 18.7222 17.8376 18.7222 15.6285V6.68945C18.7222 4.48031 16.9313 2.68945 14.7222 2.68945Z" fill="#E6ECF6"/>
<path opacity="0.5" d="M14.7222 3.18945H5.7832C3.85021 3.18945 2.2832 4.75646 2.2832 6.68945V15.6285C2.2832 17.5615 3.85021 19.1285 5.7832 19.1285H14.7222C16.6552 19.1285 18.2222 17.5615 18.2222 15.6285V6.68945C18.2222 4.75646 16.6552 3.18945 14.7222 3.18945Z" stroke="#094394"/>
</g>
<g opacity="0.5">
<path opacity="0.5" d="M3.75222 0.205523C2.2732 0.205523 1.07422 1.4045 1.07422 2.88352C1.07422 4.36254 2.2732 5.56152 3.75222 5.56152L11.7862 5.56152C13.2652 5.56152 14.4642 4.36254 14.4642 2.88352C14.4642 1.4045 13.2652 0.205523 11.7862 0.205523L3.75222 0.205523Z" fill="#E6ECF6"/>
<path opacity="0.5" d="M3.75222 0.705523C2.54934 0.705523 1.57422 1.68065 1.57422 2.88352C1.57422 4.0864 2.54934 5.06152 3.75222 5.06152L11.7862 5.06152C12.9891 5.06152 13.9642 4.0864 13.9642 2.88352C13.9642 1.68065 12.9891 0.705523 11.7862 0.705523L3.75222 0.705523Z" stroke="#094394"/>
</g>
<g opacity="0.5">
<path opacity="0.5" d="M4.37722 16.4526C2.8982 16.4526 1.69922 17.6516 1.69922 19.1306C1.69922 20.6096 2.8982 21.8086 4.37722 21.8086H12.4112C13.8902 21.8086 15.0892 20.6096 15.0892 19.1306C15.0892 17.6516 13.8902 16.4526 12.4112 16.4526H4.37722Z" fill="#E6ECF6"/>
<path opacity="0.5" d="M4.37722 16.9526C3.17434 16.9526 2.19922 17.9277 2.19922 19.1306C2.19922 20.3335 3.17434 21.3086 4.37722 21.3086H12.4112C13.6141 21.3086 14.5892 20.3335 14.5892 19.1306C14.5892 17.9277 13.6141 16.9526 12.4112 16.9526H4.37722Z" stroke="#094394"/>
</g>
<g opacity="0.5">
<path opacity="0.5" d="M5.349 6.25508C5.349 4.77772 4.15159 3.58008 2.6745 3.58008C1.19741 3.58008 0 4.77772 0 6.25508V16.9521C0 18.4294 1.19741 19.6271 2.6745 19.6271C4.15159 19.6271 5.349 18.4294 5.349 16.9521V6.25508Z" fill="#E6ECF6"/>
<path opacity="0.5" d="M4.849 6.25508C4.849 5.05386 3.87544 4.08008 2.6745 4.08008C1.47356 4.08008 0.5 5.05386 0.5 6.25508V16.9521C0.5 18.1533 1.47356 19.1271 2.6745 19.1271C3.87544 19.1271 4.849 18.1533 4.849 16.9521V6.25508Z" stroke="#094394"/>
</g>
</g>
<g opacity="0.5">
<path opacity="0.5" d="M9.03711 8.4502L13.5771 12.9902" stroke="#094394" stroke-linecap="round"/>
<path opacity="0.5" d="M9.03711 12.9902L13.5771 8.4502" stroke="#094394" stroke-linecap="round"/>
</g>
</svg>
