<svg width="24" height="29" viewBox="0 0 24 29" fill="none" xmlns="http://www.w3.org/2000/svg">
<path fill-rule="evenodd" clip-rule="evenodd" d="M5.34668 20.592C5.34668 20.2811 5.51031 20.0084 5.78302 19.872C5.96301 19.7793 6.3448 19.7739 11.4227 19.7739H16.866L17.0787 19.8939C17.3024 20.0193 17.5096 20.352 17.5096 20.592C17.5096 20.832 17.3024 21.1647 17.0787 21.2902L16.866 21.4102H11.4227C6.3448 21.4102 5.96301 21.4047 5.78302 21.312C5.51031 21.1756 5.34668 20.9029 5.34668 20.592ZM5.78341 16.5985C5.1998 16.8876 5.1998 17.7494 5.78341 18.0384C5.9634 18.1312 6.31792 18.1366 10.8449 18.1366C11.0766 18.1366 11.2978 18.1366 11.5091 18.1367C15.4989 18.1372 15.9277 18.1373 16.1184 17.9242C16.1413 17.8986 16.1608 17.8698 16.1827 17.8376C16.1934 17.8218 16.2048 17.8051 16.2174 17.7875C16.3864 17.553 16.3864 17.0839 16.2174 16.8494C16.2048 16.8318 16.1934 16.8151 16.1827 16.7993C16.1608 16.7671 16.1413 16.7383 16.1184 16.7127C15.9277 16.4997 15.4989 16.4997 11.5091 16.5003C11.2978 16.5003 11.0766 16.5003 10.8449 16.5003C6.31792 16.5003 5.9634 16.5058 5.78341 16.5985ZM5.78341 13.3269C5.1998 13.616 5.1998 14.4777 5.78341 14.7668C5.9634 14.8595 6.36701 14.865 11.9085 14.865C12.2748 14.865 12.6195 14.8651 12.9438 14.8651C17.6272 14.866 18.067 14.8661 18.2512 14.6492C18.2703 14.6267 18.2866 14.6019 18.3046 14.5745C18.3167 14.5562 18.3296 14.5367 18.3445 14.5159C18.5136 14.2814 18.5136 13.8123 18.3445 13.5778C18.3296 13.557 18.3167 13.5375 18.3046 13.5192C18.2866 13.4918 18.2703 13.467 18.2512 13.4445C18.067 13.2276 17.6272 13.2277 12.9438 13.2286C12.6195 13.2286 12.2748 13.2287 11.9085 13.2287C6.36701 13.2287 5.9634 13.2342 5.78341 13.3269Z" fill="url(#paint0_linear_1811_5075)"/>
<path d="M2.4285 0.313858C1.94307 0.401127 1.31583 0.750202 0.912221 1.14837C0.492245 1.56289 0.159536 2.18468 0.0613602 2.72466C-0.0204534 3.17736 -0.0204534 25.2455 0.0613602 25.6982C0.268621 26.8545 1.32129 27.9072 2.47759 28.1144C2.93029 28.1962 21.0711 28.1962 21.5238 28.1144C22.0637 28.0162 22.6855 27.6835 23.1001 27.2635C23.5146 26.849 23.8473 26.2272 23.94 25.6982C23.9836 25.4745 24 22.3983 24 15.9459C24 8.08624 23.9891 6.48812 23.9236 6.34086C23.8364 6.13359 18.0222 0.41749 17.7985 0.319313C17.6076 0.237497 2.86484 0.232044 2.4285 0.313858ZM16.6368 3.72825C16.6368 4.82456 16.6586 5.70271 16.6968 5.89361C16.8168 6.54267 17.204 7.03901 17.8094 7.32263L18.1367 7.47535L20.2529 7.49172L22.3637 7.50808L22.3528 16.5186L22.3365 25.5291L22.2165 25.7473C22.0801 26.0036 21.8129 26.2654 21.5456 26.4072C21.3602 26.5054 21.0165 26.5109 12.0007 26.5109C2.98483 26.5109 2.64121 26.5054 2.45577 26.4072C2.18851 26.2654 1.92125 26.0036 1.7849 25.7473L1.66491 25.5291V14.2114C1.66491 3.27554 1.67036 2.88829 1.76854 2.70284C1.96489 2.33195 2.2976 2.04832 2.67394 1.93378C2.7503 1.91197 5.91921 1.89015 9.72627 1.89015L16.6368 1.8847V3.72825ZM20.7547 5.42454L21.1911 5.86633H19.8384C18.5621 5.86633 18.4858 5.86088 18.3821 5.75725C18.2785 5.65362 18.2731 5.57726 18.2731 4.33368V3.01919L19.2984 4.00097C19.8602 4.54094 20.5147 5.18455 20.7547 5.42454Z" fill="#133769"/>
<defs>
<linearGradient id="paint0_linear_1811_5075" x1="5.341" y1="19.3685" x2="18.749" y2="14.4337" gradientUnits="userSpaceOnUse">
<stop stop-color="#F8B133"/>
<stop offset="1" stop-color="#D22635"/>
</linearGradient>
</defs>
</svg>
