<svg width="47" height="48" viewBox="0 0 47 48" fill="none" xmlns="http://www.w3.org/2000/svg">
<g clip-path="url(#clip0_76_14885)">
<path d="M14.699 3.66088C15.8741 4.46709 16.612 5.44589 16.8907 6.85656C16.901 6.99519 16.901 6.99519 16.9115 7.13662C17.0085 7.50653 17.1734 7.59271 17.4873 7.80322C19.2956 9.07936 20.2447 10.8945 20.6974 13.026C20.8282 13.86 20.7742 14.7395 20.6658 15.5715C20.6271 15.9922 20.6505 16.2005 20.9125 16.5354C20.9623 16.5864 21.0121 16.6374 21.0635 16.6899C21.5359 17.2652 21.4461 18.0932 21.3887 18.7902C21.2595 19.3616 20.9553 19.7648 20.5048 20.1327C20.122 20.3547 19.7128 20.4033 19.2774 20.4425C19.2717 20.541 19.266 20.6394 19.2602 20.7408C19.0823 22.1246 18.1513 23.4524 17.1661 24.3898C17.0127 24.499 16.8578 24.6063 16.7013 24.7111C16.4403 24.899 16.3537 24.9817 16.2682 25.2959C16.245 25.5479 16.2367 25.7894 16.2481 26.0421C16.3172 26.0649 16.3863 26.0877 16.4575 26.1111C16.7345 26.2383 16.8414 26.3527 17.0276 26.5904C18.1895 27.9612 19.4455 28.5448 21.0913 29.1943C21.1651 29.2234 21.2388 29.2526 21.3148 29.2826C21.4229 29.3253 21.4229 29.3253 21.5332 29.3688C22.7416 29.8586 23.6484 30.6587 24.2344 31.8253C24.4614 32.3827 24.6133 32.9408 24.613 33.5455C24.6131 33.6288 24.6132 33.712 24.6133 33.7978C24.6125 33.9313 24.6125 33.9313 24.6118 34.0675C24.6113 34.2077 24.6113 34.2077 24.6108 34.3508C24.6052 35.3212 24.5715 36.2898 24.531 37.2593C24.5234 37.4445 24.5158 37.6297 24.5082 37.8149C24.4924 38.198 24.4763 38.5811 24.4598 38.9641C24.4389 39.4545 24.4196 39.9449 24.4007 40.4354C24.3857 40.8157 24.3696 41.1958 24.3531 41.576C24.3455 41.757 24.3383 41.938 24.3315 42.1191C24.322 42.3705 24.3109 42.6219 24.2994 42.8733C24.2969 42.9473 24.2945 43.0213 24.292 43.0975C24.2711 43.5115 24.2168 43.7963 23.959 44.1261C23.6752 44.268 23.4455 44.2448 23.1328 44.2179C22.9304 44.09 22.9304 44.09 22.7657 43.8507C22.7136 43.5439 22.7252 43.2416 22.7341 42.9313C22.7355 42.8356 22.7369 42.7399 22.7384 42.6413C22.7649 41.2155 22.8372 39.7903 22.9034 38.3658C23.0107 36.2066 23.0107 36.2066 23.0583 34.0457C23.0589 33.9753 23.0595 33.9049 23.0602 33.8324C23.0579 33.315 22.9751 32.8498 22.7657 32.3761C21.7488 33.3706 20.7223 34.4864 20.2871 35.8644C20.2701 35.9167 20.2531 35.9691 20.2356 36.0231C20.1757 36.3332 20.1821 36.6423 20.1823 36.957C20.182 37.0297 20.1817 37.1024 20.1814 37.1774C20.1807 37.335 20.1802 37.4927 20.1799 37.6504C20.1792 37.9 20.1778 38.1497 20.1761 38.3993C20.1713 39.109 20.1668 39.8187 20.1654 40.5284C20.1645 40.9628 20.1618 41.3971 20.158 41.8314C20.1568 41.9968 20.1564 42.1622 20.1566 42.3276C20.1568 42.559 20.1548 42.7903 20.1522 43.0216C20.1528 43.0898 20.1534 43.158 20.154 43.2282C20.146 43.6738 20.0559 43.9064 19.7364 44.2179C19.5528 44.2789 19.5528 44.2789 19.3692 44.2753C19.3086 44.2764 19.248 44.2776 19.1856 44.2789C18.8941 44.1821 18.7995 44.0139 18.6348 43.7589C18.5997 43.5054 18.5854 43.2891 18.5887 43.0362C18.588 42.9291 18.588 42.9291 18.5872 42.8198C18.5861 42.584 18.5876 42.3484 18.5893 42.1127C18.5892 41.9476 18.5891 41.7826 18.5889 41.6176C18.5887 41.2713 18.5899 40.9251 18.592 40.5788C18.5946 40.1384 18.5943 39.6981 18.5932 39.2577C18.5925 38.9164 18.5932 38.5751 18.5944 38.2339C18.5948 38.0717 18.5948 37.9096 18.5945 37.7474C18.5916 35.3545 19.3454 33.8703 20.9149 32.0911C21.1943 31.7723 21.4365 31.4488 21.6641 31.0909C21.5863 31.0664 21.5086 31.0419 21.4285 31.0166C21.1019 30.9034 20.7922 30.7705 20.4772 30.6284C20.4189 30.6021 20.3606 30.5759 20.3005 30.5489C20.1162 30.4659 19.932 30.3826 19.7478 30.2992C19.6221 30.2425 19.4964 30.1859 19.3706 30.1292C19.064 29.9911 18.7576 29.8526 18.4512 29.714C18.2217 29.9928 18.0156 30.2692 17.833 30.5807C17.7882 30.6565 17.7435 30.7322 17.6973 30.8103C17.6508 30.8897 17.6042 30.969 17.5562 31.0508C16.1419 33.4276 16.1419 33.4276 15.4276 33.6555C14.5698 33.673 14.0482 33.1665 13.4357 32.641C13.3779 32.5914 13.3201 32.5418 13.2605 32.4907C13.2164 32.4529 13.1724 32.4151 13.127 32.3761C13.1267 32.4627 13.1267 32.4627 13.1263 32.5511C13.1209 33.957 13.114 35.3629 13.1054 36.7688C13.1012 37.4487 13.0976 38.1286 13.0952 38.8084C13.0931 39.4011 13.09 39.9937 13.0858 40.5863C13.0836 40.9 13.0819 41.2138 13.0813 41.5275C13.0804 41.8779 13.0779 42.2282 13.0749 42.5785C13.075 42.6825 13.0751 42.7864 13.0753 42.8935C13.0741 42.9891 13.073 43.0847 13.0718 43.1833C13.0712 43.3075 13.0712 43.3075 13.0705 43.4343C13.0233 43.7455 12.8919 43.994 12.668 44.2179C12.0011 44.2726 12.0011 44.2726 11.7409 44.0618C11.5313 43.8082 11.5201 43.6958 11.5188 43.3709C11.5175 43.2739 11.5162 43.1768 11.5149 43.0768C11.5154 42.9708 11.5159 42.8649 11.5163 42.7557C11.5154 42.6437 11.5144 42.5317 11.5135 42.4164C11.5112 42.1097 11.5106 41.8031 11.5107 41.4964C11.5104 41.1758 11.508 40.8552 11.5059 40.5346C11.5022 39.9276 11.5003 39.3206 11.4991 38.7137C11.4977 38.0226 11.4941 37.3315 11.4904 36.6404C11.4829 35.219 11.4779 33.7976 11.4746 32.3761C11.3936 32.4465 11.3126 32.517 11.2291 32.5895C11.1213 32.6823 11.0134 32.775 10.9056 32.8677C10.8258 32.9373 10.8258 32.9373 10.7443 33.0083C10.2936 33.3942 9.87473 33.6902 9.25754 33.6476C8.73127 33.5437 8.38651 33.2873 8.07514 32.8459C8.01567 32.7454 7.9562 32.6449 7.89493 32.5414C7.86224 32.4868 7.82956 32.4323 7.79589 32.376C7.69217 32.2025 7.58965 32.0283 7.48722 31.854C7.38489 31.6815 7.2823 31.5091 7.17953 31.3369C7.08581 31.1795 6.99273 31.0218 6.89971 30.8641C6.66064 30.474 6.40423 30.0947 6.15043 29.714C4.60549 30.3956 4.60549 30.3956 3.02933 31.0909C3.11481 31.4329 3.14285 31.5149 3.3621 31.7565C3.4361 31.8394 3.4361 31.8394 3.5116 31.924C3.5645 31.9823 3.61741 32.0406 3.67191 32.1007C5.38782 34.0417 5.98109 35.616 5.98225 38.1894C5.98255 38.3436 5.98286 38.4977 5.98318 38.6518C5.98373 38.9734 5.9839 39.295 5.98384 39.6166C5.98383 40.0282 5.98509 40.4399 5.98667 40.8515C5.98769 41.1692 5.98787 41.4869 5.98783 41.8046C5.98793 41.9564 5.98834 42.1082 5.98905 42.26C5.98995 42.472 5.98969 42.6839 5.98913 42.8959C5.98926 43.0163 5.98939 43.1367 5.98953 43.2608C5.96754 43.5655 5.92819 43.7669 5.78324 44.0343C5.4417 44.262 5.26936 44.2604 4.86527 44.2179C4.66419 44.0748 4.66419 44.0748 4.49808 43.8507C4.46199 43.6102 4.44807 43.408 4.45088 43.1678C4.45023 43.0995 4.44958 43.0312 4.4489 42.9609C4.44713 42.7353 4.44789 42.5097 4.4486 42.2841C4.44769 42.1265 4.44659 41.9689 4.44532 41.8113C4.44234 41.3959 4.44139 40.9806 4.44102 40.5652C4.44022 39.9027 4.43692 39.2402 4.43256 38.5777C4.43141 38.3475 4.43147 38.1174 4.43166 37.8872C4.42715 36.0895 4.03533 34.9393 2.84574 33.5695C2.76186 33.4681 2.67832 33.3665 2.59509 33.2647C2.55364 33.2141 2.5122 33.1635 2.4695 33.1114C2.42894 33.0618 2.38838 33.0123 2.34659 32.9613C2.08505 32.6196 2.08505 32.6196 1.74418 32.3761C1.50479 33.0109 1.53452 33.6471 1.5405 34.3175C1.54078 34.381 1.54107 34.4446 1.54136 34.5101C1.5482 36.043 1.61618 37.5733 1.68824 39.1043C1.7151 39.677 1.74094 40.2498 1.76652 40.8226C1.77539 41.0183 1.78466 41.2141 1.79399 41.4098C1.81016 41.7644 1.82354 42.119 1.83597 42.4738C1.84419 42.6517 1.84419 42.6517 1.85258 42.8332C1.85592 42.9471 1.85925 43.0609 1.86269 43.1781C1.86826 43.3295 1.86826 43.3295 1.87395 43.4839C1.82673 43.8259 1.70804 43.9742 1.46879 44.2179C1.28519 44.2789 1.28519 44.2789 1.1016 44.2753C1.04101 44.2764 0.980427 44.2776 0.918005 44.2789C0.630006 44.1832 0.532928 44.0082 0.367223 43.7589C0.311598 43.4635 0.311598 43.4635 0.297659 43.1228C0.294597 43.0598 0.291535 42.9969 0.28838 42.932C0.278579 42.7219 0.271253 42.5118 0.263952 42.3016C0.257539 42.1515 0.250976 42.0014 0.244275 41.8513C0.230079 41.5272 0.216928 41.2031 0.204427 40.879C0.18363 40.3484 0.15797 39.8181 0.131994 39.2878C0.0548884 37.6895 -0.0172769 36.0899 -0.0323205 34.4896C-0.0336684 34.361 -0.0356012 34.2324 -0.0382034 34.1038C-0.0654146 32.6495 0.317903 31.5463 1.26081 30.4462C1.94122 29.7809 2.92138 29.4064 3.79167 29.0581C5.47088 28.3841 6.64183 27.7078 7.8213 26.2925C8.00053 26.1203 8.11064 26.0766 8.35355 26.0421C8.38709 25.3969 8.38709 25.3969 8.09752 24.848C7.88115 24.6882 7.65918 24.5393 7.43558 24.3898C6.42758 23.552 5.5343 22.1599 5.35294 20.8498C5.2713 20.5254 5.2713 20.5254 5.04349 20.4479C4.88294 20.4051 4.72163 20.3652 4.55976 20.3278C4.08921 20.1957 3.75298 19.9279 3.45318 19.5468C3.18818 19.0742 3.17609 18.5795 3.16703 18.05C3.16445 17.946 3.16445 17.946 3.16183 17.8398C3.16765 17.3248 3.29326 16.9256 3.58011 16.4952C3.65017 16.4365 3.72022 16.3779 3.79239 16.3174C3.98922 16.1222 3.98922 16.1222 3.91288 15.7695C3.90315 15.6955 3.89343 15.6214 3.88341 15.5452C3.73141 14.2197 3.78908 12.8938 4.22269 11.63C4.27097 11.4869 4.27097 11.4869 4.32023 11.341C4.89228 9.82742 5.89617 8.66414 7.16019 7.68273C7.26048 7.60268 7.26048 7.60268 7.36279 7.52101C7.52738 7.40734 7.52738 7.40734 7.71097 7.40734C7.7034 7.30889 7.69583 7.21044 7.68802 7.109C7.69119 6.21573 8.10421 5.44152 8.62894 4.74523C8.68196 4.66572 8.73497 4.5862 8.78959 4.50427C10.2921 2.91825 12.8219 2.59247 14.699 3.66088ZM9.9141 5.47961C9.70185 5.73948 9.50273 5.99953 9.36332 6.30578C9.39361 6.39666 9.4239 6.48754 9.45511 6.58117C9.55179 6.55573 9.64847 6.53029 9.74808 6.50408C11.6316 6.02391 13.3678 6.08545 15.2383 6.58117C15.0417 5.8775 14.5974 5.34933 13.9829 4.95465C12.6225 4.26135 11.032 4.39268 9.9141 5.47961ZM7.38395 9.4613C7.31011 9.54082 7.23627 9.62034 7.16019 9.70227C7.10469 9.75942 7.0492 9.81657 6.99202 9.87546C6.18053 10.7397 5.70252 11.676 5.41605 12.8234C5.39818 12.8919 5.38032 12.9604 5.36191 13.031C5.30416 13.4165 5.30733 13.7996 5.30704 14.1888C5.30592 14.2689 5.30479 14.3491 5.30364 14.4316C5.30256 14.9077 5.31488 15.3215 5.50785 15.7609C5.74257 15.9347 5.74257 15.9347 6.02421 16.0305C6.11627 16.0673 6.20833 16.1041 6.30318 16.142C6.40933 16.1805 6.40933 16.1805 6.51761 16.2198C6.57406 16.1519 6.57406 16.1519 6.63164 16.0825C6.68111 16.0237 6.73057 15.9649 6.78153 15.9043C6.83052 15.8457 6.87951 15.7871 6.92998 15.7268C7.14477 15.4948 7.2442 15.486 7.56754 15.4625C7.89457 15.4855 7.89457 15.4855 8.07242 15.583C8.23522 15.8799 8.21926 16.0693 8.16996 16.4034C7.88705 16.9402 7.42843 17.4158 6.8848 17.6886C6.51845 17.7764 6.21005 17.7769 5.8797 17.5842C5.77151 17.5023 5.66468 17.4186 5.55948 17.3329C5.41033 17.2099 5.41033 17.2099 5.16361 17.1837C4.90899 17.2403 4.83812 17.2974 4.68168 17.505C4.63447 17.7647 4.63447 17.7647 4.64152 18.05C4.63974 18.1455 4.63797 18.241 4.63614 18.3394C4.69278 18.6717 4.7798 18.7752 5.04886 18.9738C5.26902 19.0429 5.26902 19.0429 5.50211 19.0655C5.91301 19.1164 6.13628 19.2226 6.42582 19.5245C6.5427 19.7748 6.61512 20.0336 6.68973 20.2991C7.20884 21.971 8.06714 23.2768 9.63871 24.1144C9.70639 24.1508 9.77408 24.1873 9.84382 24.2248C11.1671 24.872 12.5929 24.9202 13.9894 24.5049C14.9359 24.1757 15.6364 23.7247 16.3399 23.0128C16.4377 22.918 16.4377 22.918 16.5375 22.8213C17.2521 22.0834 17.6554 21.1918 17.9062 20.2073C18.0832 19.5477 18.0832 19.5477 18.3193 19.3237C18.6788 19.1342 19.0189 19.0416 19.4162 18.9619C19.6973 18.8635 19.7798 18.7754 19.92 18.5148C19.9939 18.0992 19.9943 17.7218 19.7765 17.3558C19.3793 17.1318 19.0116 17.2104 18.5774 17.2927C18.2036 17.3273 18.1021 17.2718 17.8086 17.046C17.734 16.9679 17.6593 16.8898 17.5824 16.8094C17.1842 16.4783 16.7439 16.527 16.2481 16.5297C13.1556 16.4703 9.97522 15.8138 7.71097 13.5577C7.65193 13.5008 7.59288 13.4439 7.53204 13.3853C7.25963 13.1014 7.16695 12.9731 7.12003 12.5709C7.16019 12.2726 7.16019 12.2726 7.25199 11.9972C7.62003 11.9435 7.9423 11.913 8.26749 12.1144C8.45702 12.283 8.63546 12.4582 8.81254 12.6398C10.9177 14.6999 13.9018 15.1267 16.7279 15.1497C17.3495 15.1646 17.7643 15.2 18.2676 15.5773C18.3149 15.6322 18.3623 15.6871 18.411 15.7436C18.4546 15.7796 18.4981 15.8156 18.543 15.8527C18.8321 15.8313 18.8321 15.8313 19.0938 15.7609C19.5633 14.1177 19.232 12.485 18.444 11.005C18.1787 10.5643 17.8767 10.1761 17.5332 9.79406C17.4857 9.73797 17.4381 9.68188 17.3891 9.6241C16.1883 8.30267 14.2736 7.59932 12.5289 7.49914C10.594 7.49914 8.80635 8.14298 7.38395 9.4613ZM9.8223 25.7667C9.73768 26.2836 9.65188 26.8426 9.92019 27.3166C10.2378 27.7316 10.628 28.0752 11.0157 28.4231C11.131 28.5315 11.2459 28.6402 11.3606 28.7492C11.64 29.0136 11.9232 29.2731 12.209 29.5304C12.7386 29.3077 13.1366 28.8597 13.5452 28.4673C13.6482 28.3697 13.7525 28.2734 13.8582 28.1787C14.5434 27.5847 14.5434 27.5847 14.8466 26.763C14.8573 26.427 14.8279 26.0995 14.7793 25.7667C14.6618 25.7971 14.6618 25.7971 14.542 25.8281C13.0469 26.2144 11.6808 26.2523 10.1895 25.8585C10.0671 25.8278 9.94474 25.7972 9.8223 25.7667ZM8.13482 28.0789C8.01021 28.2067 8.01021 28.2067 7.88309 28.337C7.79955 28.4222 7.71601 28.5074 7.62993 28.5952C7.5658 28.6615 7.50166 28.7277 7.43558 28.796C7.82935 29.5413 8.25906 30.2581 8.70926 30.9705C8.77245 31.071 8.83564 31.1715 8.90075 31.2751C9.05467 31.5199 9.20886 31.7645 9.36332 32.0089C9.76804 31.8594 10.0166 31.6743 10.3329 31.3778C10.4182 31.2985 10.5036 31.2192 10.5915 31.1376C10.7969 30.941 10.9986 30.7416 11.1993 30.5402C10.8241 30.1604 10.4483 29.7813 10.072 29.4028C9.94393 29.2738 9.81607 29.1447 9.68837 29.0154C9.50515 28.83 9.32134 28.6451 9.13741 28.4604C9.08013 28.4022 9.02285 28.3439 8.96383 28.2839C8.82504 28.1451 8.68151 28.0111 8.53715 27.878C8.3266 27.8574 8.3266 27.8574 8.13482 28.0789ZM15.7993 28.1224C15.6871 28.2346 15.5755 28.3473 15.4642 28.4604C15.4054 28.5195 15.3466 28.5786 15.286 28.6394C15.0975 28.8289 14.9097 29.019 14.722 29.2091C14.5946 29.3374 14.4672 29.4657 14.3397 29.5939C14.0268 29.9088 13.7144 30.2243 13.4024 30.5402C13.6689 30.8821 13.9353 31.1526 14.2745 31.4237C14.3606 31.493 14.4467 31.5624 14.5355 31.6338C14.7373 31.7923 14.941 31.9472 15.1465 32.1007C15.3629 31.7566 15.5789 31.4123 15.7948 31.068C15.8551 30.9721 15.9154 30.8763 15.9775 30.7775C16.3869 30.1242 16.7816 29.4643 17.1661 28.796C17.0174 28.6425 16.8681 28.4896 16.7185 28.337C16.6355 28.2518 16.5524 28.1666 16.4668 28.0789C16.1436 27.7821 16.1255 27.8218 15.7993 28.1224Z" fill="#133769"/>
<path d="M33.5344 3.06405C33.7133 3.06184 33.7133 3.06184 33.8957 3.05957C35.9619 3.05854 37.9915 3.66127 39.4915 5.1259C40.8016 6.46339 41.5025 8.19217 41.5043 10.0732C41.5043 10.1329 41.5044 10.1925 41.5045 10.254C41.5046 10.3795 41.5044 10.505 41.504 10.6305C41.5035 10.8188 41.504 11.0071 41.5046 11.1954C41.5048 11.8531 41.4829 12.4987 41.4031 13.1521C41.3985 13.5088 41.5377 13.6612 41.7675 13.9248C41.9957 14.6095 41.9861 15.6656 41.7101 16.3402C41.3893 16.9153 40.9114 17.1903 40.2987 17.4131C40.1461 17.4455 39.9932 17.4765 39.8397 17.5048C39.8151 17.596 39.7905 17.6871 39.7651 17.781C39.4799 18.7878 39.117 19.844 38.3251 20.5686C38.03 20.8806 38.0397 21.2496 38.0325 21.6587C38.0307 21.7239 38.0289 21.7891 38.0271 21.8564C38.0266 22.069 38.0266 22.069 38.0956 22.3701C38.2462 22.4657 38.3996 22.5571 38.5546 22.6455C38.7304 22.8223 38.7304 22.8223 38.9002 23.0216C39.9221 24.1651 40.866 24.7341 42.314 25.2136C42.7457 25.3587 43.1689 25.5235 43.5919 25.692C43.6671 25.7218 43.7423 25.7517 43.8198 25.7824C45.2395 26.359 46.1676 27.1948 46.7991 28.5951C47.0526 29.2755 47.0193 29.9551 47.0189 30.6723C47.0189 30.742 47.0189 30.8117 47.019 30.8836C47.0166 33.1802 46.9073 35.4753 46.811 37.7696C46.7897 38.2796 46.7699 38.7898 46.7504 39.2999C46.729 39.858 46.7061 40.4161 46.6828 40.9741C46.6731 41.2092 46.6638 41.4443 46.655 41.6794C46.6427 42.005 46.6287 42.3305 46.6143 42.6561C46.611 42.7523 46.6077 42.8484 46.6043 42.9475C46.5649 43.7697 46.5649 43.7697 46.2655 44.1259C45.9817 44.2678 45.752 44.2447 45.4393 44.2177C45.2371 44.0881 45.2371 44.0881 45.0721 43.8506C45.0174 43.5533 45.0297 43.26 45.0377 42.9588C45.039 42.8608 45.0404 42.7629 45.0417 42.662C45.0776 40.7065 45.182 38.7514 45.2691 36.7977C45.2998 36.1097 45.3299 35.4217 45.359 34.7336C45.363 34.639 45.367 34.5444 45.3711 34.4469C45.4381 32.8378 45.4631 31.2323 45.4393 29.622C45.1324 29.9175 44.8272 30.2144 44.5233 30.5129C44.42 30.6139 44.3163 30.7145 44.2121 30.8146C43.19 31.7984 42.6061 32.6908 42.5705 34.1558C42.5695 34.3355 42.5694 34.5152 42.5702 34.6948C42.5699 34.7938 42.5695 34.8927 42.5692 34.9946C42.5686 35.2077 42.5683 35.4209 42.5684 35.634C42.5685 35.9712 42.5673 36.3084 42.5658 36.6456C42.5615 37.6037 42.5593 38.5618 42.5587 39.5199C42.5582 40.1072 42.556 40.6945 42.5527 41.2819C42.5518 41.5055 42.5516 41.7291 42.552 41.9527C42.5527 42.2645 42.5511 42.5763 42.549 42.8881C42.5502 43.0268 42.5502 43.0269 42.5513 43.1684C42.5439 43.7896 42.5439 43.7896 42.3354 44.0918C42.0411 44.2764 41.8321 44.2602 41.4921 44.2177C41.2595 44.0954 41.1522 44.0264 41.0704 43.7748C41.0311 43.5647 41.0213 43.3722 41.0208 43.1586C41.0202 43.0339 41.0202 43.0339 41.0196 42.9067C41.0197 42.8162 41.0197 42.7257 41.0197 42.6325C41.0194 42.5366 41.0191 42.4407 41.0188 42.3419C41.0179 42.0244 41.0178 41.7068 41.0177 41.3892C41.0174 41.1681 41.0171 40.9469 41.0167 40.7257C41.0162 40.2615 41.016 39.7973 41.0161 39.333C41.0161 38.7402 41.0148 38.1474 41.0132 37.5546C41.0122 37.0973 41.012 36.6401 41.0121 36.1828C41.012 35.9644 41.0116 35.746 41.0109 35.5276C41.01 35.2207 41.0102 34.9139 41.0108 34.607C41.0103 34.518 41.0098 34.429 41.0092 34.3373C41.013 33.5118 41.0934 32.6663 41.4175 31.8997C41.451 31.817 41.4845 31.7343 41.519 31.6491C42.0173 30.7494 42.7803 30.0556 43.5059 29.3409C43.6135 29.2342 43.7212 29.1274 43.8288 29.0205C44.0897 28.7615 44.3513 28.5032 44.6132 28.2451C44.3646 27.6386 43.7228 27.4128 43.1499 27.1697C42.8117 27.0311 42.471 26.8997 42.129 26.7707C41.9146 26.6895 41.701 26.6063 41.4874 26.523C41.3506 26.4707 41.2137 26.4185 41.0768 26.3665C41.0133 26.3416 40.9498 26.3168 40.8844 26.2912C40.5594 26.1703 40.349 26.0926 40.0233 26.2256C39.8778 26.3802 39.8778 26.3802 39.7559 26.5812C39.6818 26.6943 39.6818 26.6943 39.6063 26.8097C39.554 26.8918 39.5017 26.9739 39.4478 27.0585C39.3653 27.1847 39.3653 27.1847 39.2811 27.3135C39.1048 27.5832 38.93 27.8538 38.7554 28.1246C38.5264 28.4795 38.2961 28.8335 38.0651 29.1871C38.0133 29.2683 37.9616 29.3495 37.9083 29.4331C37.5208 30.026 37.0694 30.6285 36.3514 30.8154C36.0753 30.8366 36.0753 30.8366 35.7892 30.8326C35.6943 30.832 35.5994 30.8314 35.5016 30.8308C35.2499 30.8154 35.2499 30.8154 34.9745 30.7236C35.0178 32.4137 35.0781 34.1025 35.1556 35.7914C35.1616 35.9233 35.1616 35.9233 35.1677 36.0578C35.2052 36.8761 35.2432 37.6944 35.2816 38.5127C35.3029 38.9668 35.3238 39.4208 35.3444 39.8749C35.3522 40.0443 35.3602 40.2137 35.3683 40.3831C35.3943 40.9268 35.416 41.4705 35.4335 42.0146C35.4365 42.0984 35.4395 42.1821 35.4426 42.2684C35.4509 42.5213 35.4565 42.7741 35.4612 43.0271C35.464 43.1044 35.4668 43.1816 35.4697 43.2612C35.4754 43.7944 35.4754 43.7944 35.2598 44.0828C34.9334 44.3104 34.723 44.2612 34.3319 44.2177C34.0864 44.0514 34.0603 43.9536 33.9647 43.667C33.9468 43.4397 33.9333 43.2141 33.9235 42.9864C33.9202 42.917 33.9169 42.8476 33.9135 42.776C33.9026 42.5446 33.8922 42.3131 33.8819 42.0817C33.8743 41.9184 33.8667 41.7552 33.8591 41.5919C33.8387 41.1554 33.8189 40.7189 33.7991 40.2824C33.7788 39.8344 33.758 39.3864 33.7373 38.9385C33.6251 36.5064 33.5156 34.0741 33.4139 31.6416C32.9898 31.6113 32.5657 31.581 32.1288 31.5498C32.122 31.7833 32.122 31.7833 32.1152 32.0216C32.0541 34.0547 31.9682 36.0866 31.8782 38.1186C31.8573 38.5919 31.8367 39.0652 31.8162 39.5385C31.8001 39.9085 31.7839 40.2786 31.7675 40.6487C31.7599 40.8233 31.7522 40.9979 31.7447 41.1725C31.7248 41.6332 31.7034 42.0938 31.6794 42.5543C31.6705 42.7343 31.6636 42.9144 31.6569 43.0945C31.6493 43.2415 31.6493 43.2415 31.6415 43.3915C31.638 43.4729 31.6345 43.5543 31.6309 43.6382C31.5609 43.9191 31.431 44.0356 31.2108 44.2177C30.9564 44.2898 30.7336 44.2752 30.4764 44.2177C30.2469 44.0571 30.2469 44.0571 30.1093 43.7588C30.0943 43.526 30.0943 43.526 30.098 43.2557C30.0993 43.1573 30.1005 43.0589 30.1018 42.9575C30.1131 42.503 30.1301 42.049 30.1514 41.5948C30.1559 41.4949 30.1603 41.3951 30.165 41.2922C30.1746 41.0773 30.1844 40.8624 30.1943 40.6476C30.2099 40.3062 30.2253 39.9648 30.2405 39.6235C30.2785 38.7757 30.3169 37.9279 30.3555 37.0801C30.3881 36.3627 30.4205 35.6453 30.4525 34.9279C30.4675 34.5939 30.4829 34.26 30.4983 33.926C30.5465 32.8577 30.5842 31.7931 30.5682 30.7236C30.4774 30.7539 30.3865 30.7842 30.2928 30.8154C29.6063 30.8774 29.0166 30.8779 28.4569 30.4482C27.7874 29.7322 27.2657 28.8731 26.7259 28.0592C26.5734 27.8295 26.4201 27.6005 26.2667 27.3716C26.1696 27.2258 26.0725 27.08 25.9755 26.9341C25.9296 26.8657 25.8838 26.7972 25.8365 26.7267C25.5194 26.2467 25.5194 26.2467 25.5194 26.042C23.402 26.7745 23.402 26.7745 21.371 27.7119C21.0813 27.8414 20.8605 27.7742 20.5624 27.6943C20.266 27.4424 20.2018 27.3075 20.1665 26.9198C20.3609 26.3922 20.8347 26.1746 21.3295 25.9389C21.5517 25.8463 21.7753 25.7603 22.001 25.6766C22.0823 25.6454 22.1636 25.6142 22.2473 25.5821C22.5038 25.4839 22.7608 25.3871 23.0179 25.2904C23.2763 25.1925 23.5345 25.0943 23.7925 24.9957C23.9522 24.9347 24.1121 24.8742 24.2722 24.8142C24.8613 24.5904 25.3054 24.3536 25.7493 23.8958C25.8248 23.8189 25.9004 23.7419 25.9782 23.6626C26.0559 23.5825 26.1336 23.5025 26.2136 23.42C26.3682 23.2607 26.5232 23.1019 26.6787 22.9435C26.7469 22.8731 26.8152 22.8027 26.8854 22.7303C27.0672 22.5652 27.2226 22.4656 27.4471 22.3701C27.5278 21.5853 27.583 20.9757 27.0685 20.3276C26.9932 20.2403 26.918 20.1529 26.8404 20.063C26.2504 19.3554 25.7948 18.3442 25.7948 17.4131C25.7437 17.4118 25.6926 17.4104 25.6399 17.4091C25.0748 17.3738 24.6619 17.2424 24.2343 16.8623C23.6244 16.0996 23.6278 15.3279 23.6835 14.3838C23.7797 13.9155 23.9869 13.5295 24.326 13.1904C24.4774 13.1253 24.6303 13.0635 24.785 13.0068C24.7744 12.956 24.7637 12.9052 24.7528 12.8528C24.7038 12.6174 24.6555 12.3818 24.6072 12.1462C24.5821 12.0264 24.5821 12.0264 24.5564 11.9042C24.2021 10.1647 24.0095 8.15556 24.894 6.55234C25.4803 5.7043 26.2566 5.27805 27.2177 4.98605C27.6071 4.86161 27.901 4.66619 28.2346 4.43384C29.8225 3.37867 31.6616 3.05945 33.5344 3.06405ZM28.4626 6.09335C28.1045 6.36375 27.7728 6.41714 27.3403 6.51433C26.7578 6.66356 26.4495 7.01315 26.0974 7.4721C25.7923 8.01155 25.7622 8.55956 25.7661 9.16281C25.7664 9.24171 25.7666 9.3206 25.7669 9.40189C25.7848 10.5385 25.9199 11.7332 26.2538 12.8232C26.5101 13.0071 26.6705 13.1152 26.99 13.0757C27.2048 12.9943 27.2854 12.9019 27.4299 12.7257C27.6614 12.4807 27.7038 12.4586 28.061 12.4101C28.3651 12.456 28.3651 12.456 28.6405 12.6396C28.738 12.9265 28.738 12.9265 28.7323 13.2822C28.4473 13.8404 27.9281 14.3898 27.3543 14.6516C27.0253 14.755 26.8302 14.7603 26.5062 14.6419C26.2538 14.4756 26.2538 14.4756 26.0702 14.3149C25.8821 14.1734 25.8821 14.1734 25.5997 14.2116C25.3085 14.2698 25.3085 14.2698 25.1522 14.5673C25.0956 14.9987 25.0698 15.4235 25.2784 15.8123C25.5841 15.9797 25.8754 16.0192 26.2165 16.0784C26.5301 16.1487 26.6858 16.2527 26.8964 16.4951C27.0071 16.7431 27.0925 16.9716 27.1718 17.2295C27.6902 18.8933 28.5185 20.1698 30.0565 21.053C31.4949 21.806 32.9959 21.95 34.5521 21.4815C35.9535 20.9678 37.1965 20.0109 37.8865 18.6652C38.1102 18.1618 38.2927 17.6673 38.4226 17.1319C38.5273 16.7133 38.6605 16.4866 39.0135 16.2197C39.341 16.0338 39.6535 15.976 40.0212 15.9131C40.2413 15.8625 40.2413 15.8625 40.3905 15.5771C40.4477 15.1412 40.465 14.72 40.27 14.3206C39.929 14.1541 39.6357 14.19 39.2613 14.2055C38.9416 14.1986 38.7323 14.0906 38.4628 13.9248C38.4022 13.9248 38.3416 13.9248 38.2792 13.9248C38.2583 13.8547 38.2375 13.7847 38.2161 13.7125C38.0514 13.2498 37.844 12.8091 37.6366 12.3642C37.5519 12.3764 37.4671 12.3886 37.3799 12.4012C34.3244 12.8148 31.1141 12.8371 28.5487 10.8955C27.6545 10.1048 27.6545 10.1048 27.6021 9.62179C27.6307 9.33493 27.6307 9.33493 27.7799 9.11691C27.9979 8.96774 27.9979 8.96774 28.2504 8.90463C28.7056 9.00094 28.9515 9.29711 29.2831 9.61032C31.1532 11.26 33.5325 11.3021 35.8925 11.1709C36.3628 11.1246 36.8238 11.0501 37.2866 10.9557C38.2191 10.7952 38.2191 10.7952 38.5822 11.035C38.7849 11.3309 38.9078 11.6327 39.0308 11.9684C39.1575 12.3804 39.1575 12.3804 39.3807 12.7314C39.5643 12.7352 39.748 12.7353 39.9315 12.7314C40.2773 10.8167 40.1759 8.62062 39.1053 6.94821C38.1133 5.64735 36.8268 4.88867 35.2115 4.60452C32.9872 4.33435 30.2045 4.49973 28.4626 6.09335ZM29.0077 22.1865C28.9 22.9378 28.9 22.9378 29.1766 23.614C29.4169 23.8277 29.665 24.0178 29.9257 24.206C30.089 24.337 30.2516 24.4689 30.4133 24.6019C30.4966 24.6692 30.5799 24.7366 30.6658 24.8059C31.0242 25.1067 31.3665 25.4233 31.7074 25.7437C32.0223 26.0392 32.3455 26.3191 32.6796 26.5927C33.4926 26.2285 34.1591 25.4951 34.8037 24.8912C35.2062 24.5161 35.6235 24.167 36.0538 23.8241C36.1217 23.7684 36.1897 23.7127 36.2596 23.6552C36.314 23.615 36.3683 23.5748 36.4242 23.5333C36.6009 23.2886 36.561 23.0613 36.5522 22.766C36.5498 22.6577 36.5473 22.5494 36.5447 22.4379C36.5399 22.3134 36.5399 22.3134 36.535 22.1865C36.4737 22.2111 36.4124 22.2357 36.3493 22.2611C36.2591 22.297 36.169 22.333 36.076 22.3701C35.9669 22.4136 35.8578 22.4572 35.7454 22.502C33.8712 23.2368 31.9532 23.3829 30.0576 22.5938C29.9742 22.5559 29.8908 22.5179 29.8048 22.4787C29.5435 22.3635 29.2797 22.2732 29.0077 22.1865ZM27.6307 24.1142C27.4745 24.2581 27.3199 24.4038 27.166 24.5503C27.0798 24.6312 26.9935 24.7121 26.9046 24.7955C26.8413 24.8736 26.778 24.9517 26.7128 25.0322C26.7457 25.3306 26.88 25.5445 27.0407 25.7935C27.0901 25.8704 27.1395 25.9473 27.1904 26.0265C27.271 26.1497 27.271 26.1497 27.3532 26.2754C27.4363 26.4027 27.4363 26.4027 27.5211 26.5325C27.6385 26.7116 27.7563 26.8905 27.8743 27.0693C28.0545 27.3431 28.2318 27.6186 28.4092 27.8942C28.5237 28.0681 28.6383 28.2418 28.7531 28.4154C28.8057 28.4981 28.8583 28.5808 28.9125 28.666C29.222 29.1272 29.222 29.1272 29.7085 29.3752C30.0826 29.3406 30.1863 29.2644 30.4417 28.9942C30.5141 28.9193 30.5866 28.8445 30.6613 28.7674C30.7347 28.6878 30.8081 28.6082 30.8838 28.5262C30.9597 28.447 31.0356 28.3678 31.1138 28.2861C31.3009 28.0904 31.4861 27.8932 31.6698 27.6943C31.4232 27.3668 31.1721 27.1143 30.8494 26.8624C30.4493 26.5422 30.0698 26.209 29.6962 25.8584C29.1791 25.3743 28.6444 24.9223 28.0897 24.4814C27.9367 24.359 27.7837 24.2366 27.6307 24.1142ZM37.1317 24.7511C36.7426 25.1221 36.3532 25.4825 35.9326 25.8182C35.2075 26.3991 34.528 27.0359 33.8729 27.6943C34.1346 27.9719 34.3993 28.2464 34.6647 28.5205C34.7389 28.5993 34.8131 28.6781 34.8895 28.7593C34.9987 28.8711 34.9987 28.8711 35.11 28.9852C35.1764 29.0544 35.2427 29.1236 35.3111 29.195C35.5883 29.3913 35.7432 29.3987 36.076 29.3466C36.2413 29.2293 36.2413 29.2293 36.3604 29.0401C36.4141 28.9646 36.4679 28.8891 36.5232 28.8113C36.5877 28.7153 36.6522 28.6194 36.7186 28.5205C36.8044 28.3945 36.8902 28.2685 36.976 28.1425C37.2739 27.7025 37.5672 27.2596 37.8604 26.8165C37.9635 26.661 38.0667 26.5056 38.17 26.3502C38.4209 25.9723 38.6714 25.5941 38.9218 25.2158C38.8342 25.1133 38.7466 25.0109 38.6589 24.9085C38.6101 24.8514 38.5613 24.7944 38.5111 24.7356C38.3492 24.548 38.1917 24.368 38.0038 24.206C37.5936 24.206 37.4103 24.4794 37.1317 24.7511ZM32.4386 28.8762C32.1236 29.2906 32.1864 29.569 32.2206 30.081C32.6144 30.081 33.0082 30.081 33.4139 30.081C33.4035 29.4272 33.4035 29.4272 33.0984 28.8762C32.7824 28.645 32.7574 28.6485 32.4386 28.8762Z" fill="#133769"/>
<path d="M27.4057 33.2718C27.6118 33.2709 27.8178 33.2681 28.0239 33.2652C28.1555 33.2646 28.287 33.2641 28.4185 33.2637C28.5978 33.2624 28.5978 33.2624 28.7806 33.2611C29.1187 33.2958 29.2906 33.3645 29.5585 33.5692C29.6894 33.8312 29.6788 34.013 29.6503 34.3036C29.51 34.5476 29.51 34.5476 29.2831 34.7626C29.0236 34.8094 28.8198 34.8271 28.5605 34.8236C28.4908 34.824 28.4211 34.8244 28.3493 34.8249C28.2022 34.8252 28.055 34.8244 27.9079 34.8224C27.6833 34.82 27.4592 34.8224 27.2347 34.8253C27.0914 34.825 26.9482 34.8245 26.8049 34.8236C26.7382 34.8245 26.6714 34.8254 26.6026 34.8264C26.243 34.8181 26.0831 34.7728 25.798 34.5469C25.6112 34.3036 25.6112 34.3036 25.5596 34.0225C25.6221 33.6962 25.7214 33.5897 25.9784 33.3856C26.389 33.1803 26.9489 33.273 27.4057 33.2718Z" fill="#133769"/>
<path d="M8.70943 36.3006C8.80942 36.2987 8.90941 36.2968 9.01243 36.2949C9.10911 36.2944 9.20579 36.2939 9.30539 36.2935C9.43761 36.2922 9.43761 36.2922 9.57249 36.2909C9.86864 36.3296 10.0398 36.4267 10.2815 36.599C10.4601 36.8345 10.4658 36.9488 10.4536 37.2473C10.3578 37.5688 10.2927 37.628 10.0061 37.7923C9.57983 37.8505 9.15068 37.8349 8.72091 37.8325C8.60305 37.8343 8.48519 37.8362 8.36376 37.838C8.25063 37.838 8.13751 37.8379 8.02095 37.8379C7.91753 37.838 7.81411 37.8382 7.70755 37.8384C7.37594 37.7822 7.26752 37.6924 7.06856 37.4251C7.02549 37.0806 7.01978 36.8708 7.18905 36.5645C7.57913 36.1889 8.20474 36.303 8.70943 36.3006Z" fill="#133769"/>
</g>
<defs>
<clipPath id="clip0_76_14885">
<rect width="47" height="47" fill="white" transform="translate(0 0.155273)"/>
</clipPath>
</defs>
</svg>
