<svg width="18" height="18" viewBox="0 0 18 18" fill="none" xmlns="http://www.w3.org/2000/svg">
<circle cx="9" cy="9" r="8.5" stroke="url(#paint0_linear_642_194)"/>
<circle cx="9" cy="9" r="8.5" stroke="url(#paint1_linear_642_194)"/>
<mask id="path-2-inside-1_642_194" fill="white">
<path d="M8.65116 5H9.34884C9.41085 5 9.44186 5.02963 9.44186 5.08889V12.9111C9.44186 12.9704 9.41085 13 9.34884 13H8.65116C8.58915 13 8.55814 12.9704 8.55814 12.9111V5.08889C8.55814 5.02963 8.58915 5 8.65116 5Z"/>
<path d="M5.09302 8.57778H12.907C12.969 8.57778 13 8.60741 13 8.66667V9.33333C13 9.39259 12.969 9.42222 12.907 9.42222H5.09302C5.03101 9.42222 5 9.39259 5 9.33333V8.66667C5 8.60741 5.03101 8.57778 5.09302 8.57778Z"/>
</mask>
<path d="M8.65116 6H9.34884V4H8.65116V6ZM9.34884 6C9.23677 6 8.96714 5.97397 8.72774 5.74521C8.47986 5.50834 8.44186 5.22528 8.44186 5.08889H10.4419C10.4419 4.89324 10.3884 4.56573 10.1095 4.29923C9.83906 4.04085 9.52292 4 9.34884 4V6ZM8.44186 5.08889V12.9111H10.4419V5.08889H8.44186ZM8.44186 12.9111C8.44186 12.7747 8.47986 12.4917 8.72775 12.2548C8.96714 12.026 9.23677 12 9.34884 12V14C9.52292 14 9.83906 13.9592 10.1095 13.7008C10.3884 13.4343 10.4419 13.1068 10.4419 12.9111H8.44186ZM9.34884 12H8.65116V14H9.34884V12ZM8.65116 12C8.76323 12 9.03286 12.026 9.27225 12.2548C9.52014 12.4917 9.55814 12.7747 9.55814 12.9111H7.55814C7.55814 13.1068 7.61164 13.4343 7.89054 13.7008C8.16094 13.9592 8.47708 14 8.65116 14V12ZM9.55814 12.9111V5.08889H7.55814V12.9111H9.55814ZM9.55814 5.08889C9.55814 5.22528 9.52014 5.50834 9.27225 5.74521C9.03286 5.97397 8.76323 6 8.65116 6V4C8.47708 4 8.16094 4.04085 7.89054 4.29923C7.61164 4.56573 7.55814 4.89324 7.55814 5.08889H9.55814ZM5.09302 9.57778H12.907V7.57778H5.09302V9.57778ZM12.907 9.57778C12.7949 9.57778 12.5253 9.55174 12.2859 9.32299C12.038 9.08612 12 8.80306 12 8.66667H14C14 8.47102 13.9465 8.14351 13.6676 7.87701C13.3972 7.61863 13.0811 7.57778 12.907 7.57778V9.57778ZM12 8.66667V9.33333H14V8.66667H12ZM12 9.33333C12 9.19694 12.038 8.91388 12.2859 8.67701C12.5253 8.44826 12.7949 8.42222 12.907 8.42222V10.4222C13.0811 10.4222 13.3972 10.3814 13.6676 10.123C13.9465 9.85649 14 9.52898 14 9.33333H12ZM12.907 8.42222H5.09302V10.4222H12.907V8.42222ZM5.09302 8.42222C5.20509 8.42222 5.47472 8.44826 5.71412 8.67701C5.962 8.91388 6 9.19694 6 9.33333H4C4 9.52899 4.0535 9.85649 4.3324 10.123C4.60279 10.3814 4.91894 10.4222 5.09302 10.4222V8.42222ZM6 9.33333V8.66667H4V9.33333H6ZM6 8.66667C6 8.80306 5.962 9.08612 5.71411 9.32299C5.47472 9.55174 5.20509 9.57778 5.09302 9.57778V7.57778C4.91894 7.57778 4.6028 7.61863 4.3324 7.87701C4.0535 8.14351 4 8.47102 4 8.66667H6Z" fill="url(#paint2_linear_642_194)" mask="url(#path-2-inside-1_642_194)"/>
<path d="M8.65116 6H9.34884V4H8.65116V6ZM9.34884 6C9.23677 6 8.96714 5.97397 8.72774 5.74521C8.47986 5.50834 8.44186 5.22528 8.44186 5.08889H10.4419C10.4419 4.89324 10.3884 4.56573 10.1095 4.29923C9.83906 4.04085 9.52292 4 9.34884 4V6ZM8.44186 5.08889V12.9111H10.4419V5.08889H8.44186ZM8.44186 12.9111C8.44186 12.7747 8.47986 12.4917 8.72775 12.2548C8.96714 12.026 9.23677 12 9.34884 12V14C9.52292 14 9.83906 13.9592 10.1095 13.7008C10.3884 13.4343 10.4419 13.1068 10.4419 12.9111H8.44186ZM9.34884 12H8.65116V14H9.34884V12ZM8.65116 12C8.76323 12 9.03286 12.026 9.27225 12.2548C9.52014 12.4917 9.55814 12.7747 9.55814 12.9111H7.55814C7.55814 13.1068 7.61164 13.4343 7.89054 13.7008C8.16094 13.9592 8.47708 14 8.65116 14V12ZM9.55814 12.9111V5.08889H7.55814V12.9111H9.55814ZM9.55814 5.08889C9.55814 5.22528 9.52014 5.50834 9.27225 5.74521C9.03286 5.97397 8.76323 6 8.65116 6V4C8.47708 4 8.16094 4.04085 7.89054 4.29923C7.61164 4.56573 7.55814 4.89324 7.55814 5.08889H9.55814ZM5.09302 9.57778H12.907V7.57778H5.09302V9.57778ZM12.907 9.57778C12.7949 9.57778 12.5253 9.55174 12.2859 9.32299C12.038 9.08612 12 8.80306 12 8.66667H14C14 8.47102 13.9465 8.14351 13.6676 7.87701C13.3972 7.61863 13.0811 7.57778 12.907 7.57778V9.57778ZM12 8.66667V9.33333H14V8.66667H12ZM12 9.33333C12 9.19694 12.038 8.91388 12.2859 8.67701C12.5253 8.44826 12.7949 8.42222 12.907 8.42222V10.4222C13.0811 10.4222 13.3972 10.3814 13.6676 10.123C13.9465 9.85649 14 9.52898 14 9.33333H12ZM12.907 8.42222H5.09302V10.4222H12.907V8.42222ZM5.09302 8.42222C5.20509 8.42222 5.47472 8.44826 5.71412 8.67701C5.962 8.91388 6 9.19694 6 9.33333H4C4 9.52899 4.0535 9.85649 4.3324 10.123C4.60279 10.3814 4.91894 10.4222 5.09302 10.4222V8.42222ZM6 9.33333V8.66667H4V9.33333H6ZM6 8.66667C6 8.80306 5.962 9.08612 5.71411 9.32299C5.47472 9.55174 5.20509 9.57778 5.09302 9.57778V7.57778C4.91894 7.57778 4.6028 7.61863 4.3324 7.87701C4.0535 8.14351 4 8.47102 4 8.66667H6Z" fill="url(#paint3_linear_642_194)" mask="url(#path-2-inside-1_642_194)"/>
<defs>
<linearGradient id="paint0_linear_642_194" x1="17" y1="7.5" x2="3.09613e-07" y2="10" gradientUnits="userSpaceOnUse">
<stop stop-color="#F29C33"/>
<stop offset="1" stop-color="#DA4335"/>
</linearGradient>
<linearGradient id="paint1_linear_642_194" x1="17" y1="7.5" x2="3.09613e-07" y2="10" gradientUnits="userSpaceOnUse">
<stop stop-color="#F29C33"/>
<stop offset="1" stop-color="#DA4335"/>
</linearGradient>
<linearGradient id="paint2_linear_642_194" x1="12.5556" y1="8.33333" x2="5" y2="9.44444" gradientUnits="userSpaceOnUse">
<stop stop-color="#F29C33"/>
<stop offset="1" stop-color="#DA4335"/>
</linearGradient>
<linearGradient id="paint3_linear_642_194" x1="12.5556" y1="8.33333" x2="5" y2="9.44444" gradientUnits="userSpaceOnUse">
<stop stop-color="#F29C33"/>
<stop offset="1" stop-color="#DA4335"/>
</linearGradient>
</defs>
</svg>
