<svg width="47" height="48" viewBox="0 0 47 48" fill="none" xmlns="http://www.w3.org/2000/svg">
<path d="M38.2791 8.32567C39.4295 9.12833 39.7036 10.3586 40.0749 11.6393C40.1225 11.801 40.1701 11.9627 40.2178 12.1243C40.3428 12.5483 40.4666 12.9726 40.5903 13.3969C40.715 13.8242 40.8407 14.2511 40.9663 14.6781C41.1724 15.379 41.3777 16.0801 41.5825 16.7813C41.7962 17.5125 42.0112 18.2434 42.2264 18.9741C42.3067 18.9825 42.387 18.9909 42.4697 18.9996C43.3926 19.1031 44.2334 19.3642 44.8885 20.0527C45.5544 20.9445 45.5844 21.8305 45.5786 22.9013C45.5791 23.0557 45.5797 23.21 45.5805 23.3644C45.5822 23.7812 45.5816 24.1981 45.5804 24.615C45.5795 25.0524 45.5803 25.4899 45.5809 25.9274C45.5816 26.6618 45.5807 27.3961 45.5789 28.1305C45.5769 28.9782 45.5776 29.8258 45.5796 30.6735C45.5813 31.4029 45.5815 32.1323 45.5806 32.8617C45.58 33.2967 45.5799 33.7316 45.5811 34.1665C45.5822 34.5755 45.5814 34.9843 45.5793 35.3933C45.5788 35.5429 45.579 35.6925 45.5798 35.8421C45.5852 36.936 45.4608 37.7215 44.692 38.5462C44.1032 39.1127 43.5473 39.3756 42.7151 39.3766C42.6257 39.3771 42.6257 39.3771 42.5346 39.3776C42.3353 39.3785 42.136 39.378 41.9366 39.3776C41.7922 39.3779 41.6477 39.3783 41.5032 39.3788C41.1064 39.38 40.7097 39.3799 40.3129 39.3797C39.8848 39.3797 39.4568 39.3807 39.0288 39.3816C38.1903 39.3831 37.3517 39.3836 36.5132 39.3837C35.8316 39.3838 35.1499 39.3842 34.4683 39.3847C32.5357 39.3864 30.6032 39.3872 28.6706 39.3871C28.5664 39.3871 28.4622 39.387 28.3548 39.387C28.2505 39.387 28.1462 39.387 28.0387 39.387C26.3482 39.3869 24.6577 39.3887 22.9671 39.3913C21.2313 39.3939 19.4954 39.3952 17.7595 39.395C16.785 39.395 15.8105 39.3955 14.8359 39.3975C14.0061 39.3991 13.1764 39.3995 12.3466 39.3983C11.9233 39.3977 11.5001 39.3977 11.0768 39.3993C10.6891 39.4007 10.3013 39.4004 9.91353 39.3988C9.77355 39.3986 9.63357 39.3989 9.49359 39.3999C8.37428 39.4076 7.53176 39.2485 6.6992 38.4616C6.0917 37.7594 5.95916 37.0338 5.9365 36.1376C5.90117 35.8203 5.7939 35.5543 5.67348 35.2595C5.36938 34.4811 5.13795 33.6848 4.90378 32.8831C4.85517 32.7181 4.80652 32.5531 4.75782 32.3881C4.62838 31.9491 4.49956 31.5098 4.37093 31.0705C4.21066 30.5232 4.05003 29.976 3.88946 29.4288C3.84956 29.2929 3.84956 29.2929 3.80886 29.1542C3.78231 29.0637 3.75575 28.9732 3.7284 28.8799C3.64808 28.6061 3.56785 28.3323 3.48763 28.0585C3.19087 27.0464 2.89003 26.0358 2.58296 25.0268C2.45464 24.6044 2.32766 24.1816 2.20045 23.7589C2.13409 23.5399 2.06705 23.321 1.99926 23.1024C1.16461 20.4087 1.16461 20.4087 1.62348 19.2438C1.69058 19.1212 1.76122 19.0005 1.83576 18.8823C1.86795 18.8253 1.90013 18.7682 1.93329 18.7095C2.46381 17.8585 3.3781 17.5682 4.29491 17.3031C4.46812 17.2512 4.46812 17.2512 4.64483 17.1983C4.95883 17.1043 5.27331 17.012 5.5879 16.92C5.91414 16.8243 6.2399 16.727 6.56572 16.6299C7.34151 16.399 8.11805 16.1708 8.89468 15.9428C9.28593 15.8279 9.6771 15.7127 10.0683 15.5976C10.229 15.5503 10.3897 15.503 10.5504 15.4557C10.6303 15.4322 10.7102 15.4086 10.7925 15.3844C11.0353 15.3129 11.2781 15.2415 11.5209 15.1701C13.0283 14.7267 14.5352 14.2813 16.0418 13.8354C16.3773 13.7361 16.7129 13.6368 17.0484 13.5376C17.5175 13.3988 17.9867 13.2599 18.4558 13.1211C19.6733 12.7608 20.8908 12.4007 22.1084 12.0406C22.5814 11.9007 23.0545 11.7608 23.5275 11.6209C24.7056 11.2724 25.8837 10.9239 27.0618 10.5756C27.425 10.4683 27.7881 10.3609 28.1513 10.2534C28.7861 10.0657 29.4209 9.87799 30.0559 9.69099C30.3887 9.59301 30.7214 9.49492 31.0541 9.39676C31.1177 9.37798 31.1814 9.3592 31.2469 9.33985C32.0358 9.1069 32.8229 8.86874 33.6079 8.62294C33.7662 8.57385 33.9246 8.5248 34.083 8.47579C34.352 8.39251 34.62 8.30688 34.8877 8.21931C35.9769 7.88162 37.2583 7.69613 38.2791 8.32567ZM34.6754 9.93714C34.5262 9.98211 34.3769 10.027 34.2276 10.0717C33.9068 10.1681 33.5861 10.2653 33.2657 10.3632C32.7509 10.5202 32.2356 10.6756 31.7202 10.8306C31.1791 10.9934 30.638 11.1563 30.0971 11.3197C28.3801 11.8384 26.6603 12.3475 24.9398 12.8545C24.4371 13.0026 23.9345 13.151 23.4318 13.2994C23.2629 13.3493 23.094 13.3992 22.925 13.4491C22.8412 13.4738 22.7575 13.4985 22.6712 13.524C22.3327 13.6239 21.9942 13.7239 21.6557 13.8238C19.9361 14.3313 18.2166 14.8393 16.4972 15.3474C16.2435 15.4223 15.9897 15.4973 15.736 15.5723C14.5909 15.9106 13.4457 16.249 12.3006 16.5874C12.2213 16.6108 12.1419 16.6343 12.0602 16.6584C11.0648 16.9526 10.0694 17.2468 9.07409 17.5411C8.79747 17.6229 8.52084 17.7047 8.24422 17.7864C8.1787 17.8058 8.11319 17.8252 8.04569 17.8451C7.91673 17.8832 7.78777 17.9213 7.6588 17.9595C7.35626 18.0489 7.05376 18.1384 6.75136 18.2284C6.24064 18.3801 5.72974 18.5309 5.21736 18.677C5.1323 18.7016 5.04723 18.7262 4.95958 18.7515C4.80728 18.7955 4.65477 18.8388 4.502 18.8811C3.96756 19.0367 3.55805 19.2543 3.17829 19.6741C2.77768 20.5061 3.14113 21.406 3.39523 22.2376C3.4338 22.3671 3.47225 22.4966 3.51061 22.6262C3.61266 22.9699 3.71621 23.3131 3.82007 23.6563C3.92676 24.0097 4.03202 24.3636 4.13741 24.7174C4.30324 25.2736 4.4698 25.8296 4.63704 26.3853C4.83008 27.0269 5.02158 27.6688 5.21181 28.3112C5.23613 28.3933 5.26045 28.4755 5.28551 28.5601C5.33075 28.7128 5.37598 28.8655 5.4212 29.0183C5.5717 29.5259 5.72325 30.0332 5.87482 30.5405C5.90512 30.5405 5.93541 30.5405 5.96662 30.5405C5.96695 30.4287 5.96729 30.3169 5.96763 30.2017C5.97103 29.1456 5.97634 28.0894 5.9835 27.0333C5.98712 26.4904 5.99008 25.9476 5.9915 25.4046C5.99289 24.8803 5.99606 24.3559 6.00043 23.8315C6.00179 23.6319 6.00252 23.4323 6.00259 23.2327C6.00281 22.9521 6.00531 22.6716 6.0083 22.3911C6.00761 22.2686 6.00761 22.2686 6.0069 22.1436C6.02005 21.3437 6.26364 20.6804 6.79279 20.0757C6.79279 20.0151 6.79279 19.9545 6.79279 19.8921C6.84403 19.8666 6.89527 19.8412 6.94806 19.815C7.09278 19.7423 7.23692 19.6683 7.38051 19.5934C7.4957 19.5339 7.4957 19.5339 7.61323 19.4733C7.72807 19.4134 7.72807 19.4134 7.84523 19.3524C8.25762 19.17 8.64641 19.1461 9.09374 19.145C9.20626 19.1445 9.31877 19.144 9.43469 19.1435C9.55925 19.1434 9.68382 19.1433 9.80838 19.1432C9.94092 19.1428 10.0735 19.1423 10.206 19.1418C10.5702 19.1406 10.9345 19.1399 11.2987 19.1393C11.6915 19.1386 12.0843 19.1373 12.477 19.1361C13.1576 19.1341 13.8381 19.1324 14.5186 19.131C15.5025 19.1289 16.4864 19.1263 17.4704 19.1236C19.0667 19.1193 20.663 19.1153 22.2593 19.1116C23.81 19.1079 25.3608 19.1041 26.9115 19.1001C27.0549 19.0997 27.0549 19.0997 27.2011 19.0993C27.6806 19.0981 28.1601 19.0968 28.6395 19.0956C32.6177 19.0851 36.5959 19.0753 40.574 19.0659C40.4719 18.7005 40.3696 18.3352 40.2674 17.9698C40.2244 17.816 40.2244 17.816 40.1805 17.659C39.8552 16.497 39.5221 15.3374 39.1843 14.1789C39.082 13.8278 38.9801 13.4766 38.8792 13.1251C38.7795 12.7775 38.6787 12.4303 38.577 12.0833C38.5391 11.9531 38.5016 11.8228 38.4644 11.6923C38.1532 10.5174 38.1532 10.5174 37.3898 9.61083C36.4537 9.32821 35.5725 9.6605 34.6754 9.93714ZM7.7624 21.2289C7.52277 21.6027 7.51507 21.8923 7.51304 22.3277C7.51264 22.3889 7.51223 22.4501 7.51182 22.5132C7.51059 22.7186 7.51002 22.9241 7.50946 23.1296C7.50874 23.2768 7.50798 23.4239 7.50719 23.5711C7.50478 24.0548 7.50337 24.5386 7.50207 25.0223C7.50157 25.1889 7.50108 25.3555 7.50058 25.5221C7.4986 26.2151 7.49688 26.9082 7.49585 27.6012C7.49436 28.5941 7.49131 29.5869 7.48608 30.5797C7.48252 31.278 7.48073 31.9763 7.48025 32.6746C7.47991 33.0916 7.47881 33.5085 7.47583 33.9254C7.47307 34.3179 7.47249 34.7103 7.47357 35.1028C7.47359 35.2466 7.47283 35.3903 7.47122 35.534C7.45244 36.5064 7.45244 36.5064 7.83384 37.3809C8.22893 37.7341 8.62404 37.8269 9.14221 37.8274C9.2632 37.8282 9.38419 37.8289 9.50884 37.8297C9.6425 37.8292 9.77615 37.8286 9.90981 37.8281C10.0523 37.8284 10.1947 37.8289 10.3372 37.8296C10.7284 37.8309 11.1196 37.8305 11.5108 37.8298C11.9328 37.8294 12.3549 37.8305 12.7769 37.8315C13.6035 37.833 14.4301 37.8331 15.2567 37.8326C15.9285 37.8323 16.6002 37.8324 17.272 37.8329C17.3675 37.833 17.4631 37.833 17.5615 37.8331C17.7557 37.8332 17.9498 37.8334 18.1439 37.8335C19.9647 37.8348 21.7855 37.8343 23.6063 37.8332C25.2728 37.8323 26.9392 37.8335 28.6056 37.8357C30.3162 37.8379 32.0267 37.8388 33.7373 37.8382C34.6979 37.8379 35.6584 37.8381 36.619 37.8397C37.4366 37.8411 38.2542 37.8411 39.0719 37.8395C39.4891 37.8387 39.9064 37.8386 40.3237 37.84C40.7055 37.8412 41.0874 37.8408 41.4692 37.839C41.6075 37.8387 41.7457 37.8389 41.884 37.8399C42.0717 37.8411 42.2595 37.8398 42.4473 37.8384C42.5516 37.8384 42.656 37.8384 42.7635 37.8384C43.2405 37.7626 43.522 37.5286 43.8156 37.1556C44.059 36.714 44.0739 36.321 44.0752 35.8222C44.0757 35.7023 44.0763 35.5824 44.0768 35.4588C44.0769 35.3265 44.077 35.1942 44.0771 35.062C44.0775 34.9222 44.078 34.7823 44.0785 34.6425C44.0797 34.2632 44.0803 33.8838 44.0807 33.5045C44.081 33.2673 44.0813 33.03 44.0818 32.7928C44.083 32.0499 44.0839 31.307 44.0843 30.5641C44.0847 29.7078 44.0863 28.8515 44.0889 27.9951C44.0909 27.3324 44.0918 26.6697 44.092 26.0069C44.0921 25.6115 44.0926 25.216 44.0942 24.8206C44.0958 24.4484 44.096 24.0762 44.0951 23.704C44.0951 23.5678 44.0955 23.4317 44.0964 23.2956C44.1193 22.1134 44.1193 22.1134 43.6292 21.0711C43.5752 21.0304 43.5212 20.9897 43.4656 20.9477C43.4117 20.9051 43.3577 20.8625 43.3021 20.8187C42.9733 20.6094 42.6829 20.6147 42.3038 20.6141C42.1848 20.6137 42.0657 20.6133 41.9431 20.6129C41.8102 20.6129 41.6773 20.6129 41.5444 20.6129C41.4038 20.6126 41.2632 20.6123 41.1227 20.6119C40.7354 20.611 40.3481 20.6107 39.9608 20.6104C39.5434 20.6101 39.1261 20.6092 38.7088 20.6084C37.7005 20.6066 36.6921 20.6056 35.6838 20.6048C35.2091 20.6044 34.7345 20.6039 34.2598 20.6034C32.6823 20.6019 31.1047 20.6006 29.5272 20.5999C29.1177 20.5997 28.7082 20.5995 28.2987 20.5994C28.197 20.5993 28.0952 20.5993 27.9903 20.5992C26.3412 20.5985 24.6921 20.5961 23.043 20.5932C21.3505 20.5901 19.658 20.5885 17.9655 20.5882C17.0149 20.588 16.0644 20.5872 15.1139 20.5848C14.3045 20.5828 13.4951 20.5821 12.6856 20.583C12.2726 20.5834 11.8596 20.5832 11.4466 20.5814C11.0684 20.5798 10.6902 20.5799 10.312 20.5813C10.1753 20.5816 10.0386 20.5812 9.90188 20.5801C9.04574 20.5737 8.3831 20.5763 7.7624 21.2289Z" fill="#133769"/>
<path d="M32.4217 22.1752C32.5371 22.2075 32.6525 22.2398 32.7715 22.2731C32.8826 22.3049 32.9938 22.3367 33.1084 22.3695C33.2593 22.4126 33.2593 22.4126 33.4132 22.4566C33.8996 22.6277 34.1696 22.791 34.4021 23.2567C34.4675 23.385 34.4675 23.385 34.5342 23.5158C34.6017 23.6531 34.6017 23.6531 34.6707 23.7931C34.7671 23.9838 34.8636 24.1744 34.9601 24.365C35.0323 24.5091 35.0323 24.5091 35.106 24.656C35.3615 25.1602 35.6298 25.6577 35.8976 26.1554C36.1681 26.6645 36.1681 26.6645 36.1681 26.8683C36.2778 26.8664 36.3875 26.8644 36.5005 26.8625C36.9106 26.8558 37.3207 26.8516 37.7308 26.8481C37.9077 26.8463 38.0846 26.8438 38.2615 26.8406C38.5169 26.8361 38.7723 26.834 39.0278 26.8324C39.1059 26.8305 39.1839 26.8286 39.2644 26.8267C39.9866 26.8264 40.5594 27.0444 41.1079 27.5166C41.5454 27.9907 41.7771 28.6238 41.8079 29.2665C41.7175 30.0669 41.4638 30.6443 40.8498 31.1827C40.3897 31.4797 39.9283 31.6539 39.3779 31.6522C39.2704 31.6521 39.2704 31.6521 39.1608 31.6521C39.0844 31.6517 39.0079 31.6512 38.9292 31.6507C38.8503 31.6506 38.7713 31.6504 38.69 31.6503C38.4384 31.6498 38.1868 31.6486 37.9352 31.6475C37.7644 31.647 37.5936 31.6466 37.4228 31.6462C37.0046 31.6452 36.5864 31.6436 36.1681 31.6417C36.1426 31.7075 36.1172 31.7733 36.0909 31.8411C34.7279 35.1677 34.7279 35.1677 33.8732 35.8644C33.5938 35.9715 33.5938 35.9715 33.2529 36.072C33.1616 36.0989 33.1616 36.0989 33.0686 36.1264C32.9398 36.1641 32.811 36.2013 32.682 36.2381C32.4869 36.2941 32.2926 36.3521 32.0982 36.4103C31.4604 36.5974 30.8721 36.757 30.2013 36.6906C29.9661 36.5529 29.9661 36.5529 29.8341 36.3234C29.7812 35.7093 29.9216 35.2651 30.1522 34.7004C30.1846 34.6184 30.217 34.5363 30.2503 34.4518C30.3533 34.1916 30.458 33.9322 30.5628 33.6727C30.6329 33.4964 30.7029 33.3199 30.7727 33.1435C31.2701 31.8909 31.2701 31.8909 31.3947 31.6417C30.6677 31.672 29.9406 31.7023 29.1916 31.7335C28.9916 32.2082 28.9916 32.2082 28.7934 32.6837C28.768 32.7429 28.7426 32.8021 28.7164 32.8631C28.691 32.9236 28.6655 32.9842 28.6392 33.0466C28.549 33.2023 28.549 33.2023 28.2736 33.3859C27.9098 33.4308 27.5441 33.4241 27.1778 33.426C27.077 33.4291 26.9763 33.4321 26.8724 33.4352C26.1441 33.4401 26.1441 33.4401 25.8177 33.1998C25.4694 32.369 25.8647 31.3981 26.0583 30.5646C26.3104 29.4455 26.2275 28.6698 25.9787 27.5568C25.6487 26.0807 25.6487 26.0807 25.7033 25.4913C25.9059 25.2188 26.0233 25.1399 26.3459 25.0324C26.6323 25.0093 26.9192 25.0111 27.2065 25.0094C27.2846 25.0075 27.3627 25.0056 27.4431 25.0037C27.8852 25.0009 28.1964 25.01 28.549 25.3077C28.6645 25.4695 28.6645 25.4695 28.7441 25.6462C28.7708 25.7034 28.7975 25.7606 28.8251 25.8194C28.9544 26.1356 29.0716 26.4566 29.1916 26.7765C29.9186 26.8068 30.6456 26.8371 31.3947 26.8683C31.282 26.5919 31.1694 26.3154 31.0533 26.0306C30.9446 25.7613 30.8362 25.4917 30.728 25.2222C30.6527 25.0356 30.577 24.8491 30.5009 24.6629C30.3912 24.3945 30.2832 24.1254 30.1755 23.8562C30.1414 23.7737 30.1072 23.6911 30.0721 23.6061C29.8749 23.1078 29.7862 22.7231 29.8341 22.1867C30.3136 21.2961 31.682 21.9616 32.4217 22.1752ZM31.9455 23.7472C32.1674 24.5695 32.4859 25.3476 32.8143 26.1324C33.3131 27.3281 33.3131 27.3281 33.2306 27.9699C33.089 28.1695 32.9886 28.2286 32.7716 28.337C32.6354 28.3467 32.4987 28.3507 32.362 28.3518C32.2771 28.3527 32.1923 28.3536 32.1048 28.3545C31.9668 28.3551 31.9668 28.3551 31.8261 28.3557C31.6844 28.3565 31.6844 28.3565 31.54 28.3573C31.3399 28.3581 31.1398 28.3587 30.9397 28.3591C30.6338 28.36 30.328 28.3628 30.0222 28.3657C29.8279 28.3663 29.6336 28.3668 29.4393 28.3672C29.3022 28.3689 29.3022 28.3689 29.1623 28.3706C28.3609 28.368 28.3609 28.368 27.9982 28.0617C27.8645 27.823 27.8049 27.5909 27.7228 27.3273C27.6925 27.3273 27.6622 27.3273 27.631 27.3273C27.6722 27.8169 27.732 28.2872 27.8376 28.7673C27.9435 29.3551 27.8304 29.8566 27.6888 30.4254C27.6357 30.6994 27.625 30.8353 27.7228 31.091C27.7472 31.0401 27.7716 30.9892 27.7967 30.9368C27.8453 30.837 27.8453 30.837 27.8949 30.7352C27.9429 30.6362 27.9429 30.6362 27.9918 30.5351C28.09 30.3566 28.09 30.3566 28.2736 30.173C28.4675 30.1484 28.4675 30.1484 28.7099 30.1463C28.846 30.1446 28.846 30.1446 28.9848 30.1428C29.0831 30.1426 29.1814 30.1424 29.2826 30.1421C29.3834 30.1415 29.4841 30.1409 29.5879 30.1403C29.8014 30.1394 30.0148 30.1389 30.2283 30.139C30.5551 30.1386 30.8818 30.1352 31.2086 30.1317C31.4157 30.1312 31.6229 30.1308 31.83 30.1307C31.9279 30.1293 32.0259 30.128 32.1268 30.1267C32.7918 30.1308 32.7918 30.1308 33.1116 30.3191C33.3035 30.6756 33.2889 30.9783 33.1787 31.3651C33.1072 31.5659 33.0283 31.762 32.9463 31.9587C32.9175 32.0305 32.8888 32.1023 32.8592 32.1763C32.7679 32.404 32.6753 32.631 32.5823 32.858C32.4891 33.0864 32.3963 33.3148 32.3045 33.5438C32.2475 33.6858 32.1897 33.8275 32.131 33.9689C31.9647 34.3574 31.9647 34.3574 32.0373 34.7628C32.621 34.6615 32.621 34.6615 33.0978 34.3382C33.2131 34.1439 33.3065 33.9485 33.397 33.7416C33.4723 33.5854 33.5478 33.4293 33.6233 33.2733C33.6628 33.1889 33.7023 33.1045 33.743 33.0175C33.9853 32.5072 34.2456 32.0061 34.5043 31.504C34.5797 31.3537 34.5797 31.3537 34.6566 31.2003C34.7286 31.0595 34.7286 31.0595 34.8019 30.916C34.8442 30.8324 34.8864 30.7488 34.9299 30.6626C35.0791 30.4288 35.2 30.32 35.4338 30.173C35.631 30.1395 35.631 30.1395 35.8459 30.1406C35.9268 30.1402 36.0077 30.1399 36.091 30.1396C36.1778 30.1404 36.2645 30.1413 36.3539 30.1421C36.5384 30.141 36.723 30.1398 36.9075 30.1386C37.1978 30.1382 37.4881 30.1386 37.7783 30.1399C38.059 30.1407 38.3395 30.1387 38.6201 30.1364C38.7065 30.1376 38.7928 30.1389 38.8818 30.1401C39.2857 30.1356 39.5692 30.122 39.8926 29.8651C40.1522 29.582 40.2228 29.4549 40.2072 29.0714C40.0009 28.682 40.0009 28.682 39.6564 28.4288C39.5253 28.419 39.3937 28.4145 39.2622 28.4129C39.1807 28.4117 39.0992 28.4104 39.0152 28.4092C38.927 28.4082 38.8387 28.4072 38.7478 28.4062C38.5618 28.4032 38.3758 28.4002 38.1898 28.3971C37.8959 28.3928 37.602 28.3887 37.3081 28.3851C37.0249 28.3814 36.7417 28.3767 36.4586 28.3718C36.3267 28.3707 36.3267 28.3707 36.1923 28.3695C36.1102 28.368 36.0281 28.3664 35.9435 28.3649C35.8715 28.3639 35.7995 28.363 35.7253 28.362C35.4979 28.3336 35.352 28.2753 35.1584 28.1535C35.0034 27.9115 35.0034 27.9115 34.8503 27.6048C34.8225 27.5499 34.7947 27.495 34.7661 27.4384C34.7068 27.321 34.6479 27.2033 34.5895 27.0855C34.4982 26.902 34.4053 26.7195 34.3118 26.5372C34.0503 26.0266 33.792 25.5148 33.543 24.9979C33.2308 24.334 33.2308 24.334 32.6809 23.8741C32.429 23.8018 32.2052 23.7694 31.9455 23.7472ZM27.5392 27.1437C27.631 27.3273 27.631 27.3273 27.631 27.3273L27.5392 27.1437ZM27.5392 31.091C27.631 31.3663 27.631 31.3663 27.631 31.3663L27.5392 31.091Z" fill="#133769"/>
<path d="M11.0423 22.5875C11.1554 22.5866 11.1554 22.5866 11.2709 22.5855C11.5195 22.584 11.768 22.5858 12.0167 22.5877C12.1899 22.5877 12.3631 22.5874 12.5363 22.5871C12.899 22.5868 13.2616 22.5882 13.6243 22.5907C14.0889 22.5938 14.5534 22.5933 15.0179 22.5915C15.3755 22.5906 15.733 22.5914 16.0905 22.5928C16.2618 22.5932 16.4331 22.5932 16.6044 22.5926C16.8439 22.5921 17.0833 22.594 17.3228 22.5965C17.3934 22.5959 17.464 22.5953 17.5367 22.5947C17.8756 22.6007 18.0686 22.6357 18.3572 22.8194C18.5684 23.0392 18.6054 23.1253 18.6003 23.4257C18.602 23.5294 18.602 23.5294 18.6039 23.6352C18.5111 23.9451 18.3545 24.0339 18.0839 24.206C17.8183 24.2416 17.588 24.2563 17.3228 24.2535C17.2474 24.2542 17.172 24.2548 17.0942 24.2555C16.8456 24.2571 16.597 24.256 16.3484 24.2548C16.1752 24.255 16.002 24.2554 15.8288 24.2559C15.4661 24.2564 15.1035 24.2556 14.7408 24.2539C14.2762 24.2518 13.8117 24.253 13.3471 24.2552C12.9896 24.2565 12.6321 24.2561 12.2746 24.2552C12.1033 24.2549 11.932 24.2552 11.7607 24.2561C11.5212 24.257 11.2818 24.2556 11.0423 24.2535C10.9717 24.2543 10.9011 24.255 10.8284 24.2558C10.4958 24.2505 10.2951 24.2144 10.0077 24.042C9.78617 23.7994 9.76769 23.6218 9.76123 23.297C9.9613 22.665 10.4548 22.5786 11.0423 22.5875Z" fill="#133769"/>
<path d="M11.0859 28.414C11.1963 28.4134 11.1963 28.4134 11.3089 28.4127C11.5531 28.4113 11.7972 28.4107 12.0414 28.4102C12.2108 28.4097 12.3803 28.4091 12.5498 28.4086C12.9054 28.4076 13.2611 28.4071 13.6168 28.4068C14.0724 28.4063 14.528 28.4041 14.9836 28.4015C15.3338 28.3998 15.684 28.3993 16.0342 28.3991C16.2022 28.3989 16.3701 28.3981 16.5381 28.3969C16.7732 28.3953 17.0083 28.3955 17.2434 28.3961C17.3127 28.3953 17.382 28.3944 17.4535 28.3936C17.8628 28.3968 18.1259 28.4504 18.451 28.7042C18.5947 28.9915 18.6068 29.3111 18.5428 29.6222C18.4048 29.8147 18.4048 29.8147 18.1756 29.9894C17.9077 30.0256 17.6745 30.0396 17.4067 30.0369C17.2906 30.0379 17.2906 30.0379 17.1722 30.0388C16.9167 30.0405 16.6612 30.0394 16.4057 30.0382C16.228 30.0384 16.0504 30.0388 15.8727 30.0392C15.5005 30.0398 15.1282 30.039 14.756 30.0373C14.2787 30.0352 13.8016 30.0364 13.3243 30.0386C12.9575 30.0399 12.5907 30.0395 12.2239 30.0385C12.0479 30.0383 11.8719 30.0386 11.6959 30.0394C11.45 30.0404 11.2042 30.0389 10.9583 30.0369C10.8855 30.0376 10.8127 30.0384 10.7377 30.0391C10.409 30.0341 10.2255 30.0171 9.9607 29.8143C9.76864 29.5481 9.77012 29.3811 9.78555 29.0625C9.8413 28.7962 9.97496 28.6782 10.1893 28.5206C10.4735 28.3785 10.7739 28.4145 11.0859 28.414Z" fill="#133769"/>
<path d="M10.9584 34.2558C11.0357 34.2551 11.1131 34.2545 11.1928 34.2538C11.4483 34.2522 11.7038 34.2533 11.9594 34.2545C12.137 34.2543 12.3147 34.2539 12.4923 34.2534C12.8646 34.2529 13.2368 34.2537 13.609 34.2554C14.0863 34.2575 14.5635 34.2563 15.0407 34.2541C15.4075 34.2528 15.7743 34.2532 16.1412 34.2541C16.3171 34.2544 16.4931 34.2541 16.6691 34.2532C16.915 34.2523 17.1608 34.2537 17.4067 34.2558C17.5159 34.2546 17.5159 34.2546 17.6273 34.2535C17.956 34.2586 18.1396 34.2756 18.4043 34.4784C18.5545 34.6865 18.5928 34.7839 18.5888 35.0376C18.5902 35.1285 18.5902 35.1285 18.5917 35.2212C18.5179 35.4991 18.4041 35.5971 18.1757 35.772C17.9078 35.8082 17.6746 35.8223 17.4067 35.8195C17.2907 35.8205 17.2907 35.8205 17.1723 35.8215C16.9168 35.8231 16.6613 35.822 16.4058 35.8208C16.2281 35.821 16.0505 35.8214 15.8728 35.8218C15.5005 35.8224 15.1283 35.8216 14.7561 35.8199C14.2788 35.8178 13.8016 35.819 13.3244 35.8212C12.9576 35.8225 12.5908 35.8221 12.2239 35.8212C12.048 35.8209 11.872 35.8212 11.696 35.8221C11.4501 35.823 11.2043 35.8216 10.9584 35.8195C10.8856 35.8203 10.8128 35.821 10.7378 35.8218C10.4091 35.8167 10.2255 35.7997 9.96079 35.5969C9.8106 35.3888 9.77234 35.2914 9.77631 35.0376C9.77489 34.9468 9.77489 34.9468 9.77344 34.854C9.93324 34.2524 10.4265 34.2503 10.9584 34.2558Z" fill="#133769"/>
<path d="M21.3888 21.9116C21.7775 22.3396 21.7047 22.8829 21.6986 23.4262C21.6997 23.521 21.7008 23.6158 21.7019 23.7134C21.6985 24.5861 21.6985 24.5861 21.3888 24.9409C21.1025 25.1317 21.0641 25.1503 20.7463 25.113C20.6838 25.1071 20.6213 25.1012 20.5569 25.0951C20.3062 25.0071 20.2398 24.8922 20.1037 24.6655C20.0458 24.2545 20.0611 23.8408 20.0635 23.4262C20.0617 23.3127 20.0598 23.1993 20.058 23.0823C20.058 22.9734 20.0581 22.8644 20.0581 22.7521C20.058 22.6525 20.0578 22.5529 20.0576 22.4503C20.1145 22.1253 20.2134 22.02 20.4709 21.8198C20.8424 21.6959 21.0282 21.7699 21.3888 21.9116Z" fill="#133769"/>
<path d="M21.2048 33.3854C21.4219 33.5568 21.5408 33.6902 21.6638 33.9362C21.6861 34.2991 21.6808 34.6628 21.681 35.0263C21.6822 35.1275 21.6833 35.2286 21.6844 35.3329C21.6847 35.479 21.6847 35.479 21.685 35.628C21.6854 35.7172 21.6857 35.8064 21.6861 35.8983C21.6627 36.1512 21.6195 36.2955 21.4802 36.5065C21.136 36.736 20.97 36.7393 20.5623 36.6901C20.3194 36.5383 20.2333 36.4769 20.1033 36.2311C20.0341 35.8153 20.0393 35.4067 20.0459 34.9861C20.0441 34.8731 20.0424 34.76 20.0405 34.6435C20.0411 34.5349 20.0417 34.4264 20.0423 34.3145C20.0428 34.2155 20.0434 34.1165 20.0439 34.0145C20.1033 33.7526 20.1033 33.7526 20.3161 33.5368C20.6389 33.3383 20.8321 33.3312 21.2048 33.3854Z" fill="#133769"/>
<path d="M21.0303 27.5663C21.2965 27.622 21.4145 27.7557 21.5721 27.97C21.7599 28.3455 21.689 28.8252 21.6926 29.238C21.6953 29.3384 21.6979 29.4388 21.7007 29.5422C21.7066 30.2847 21.7066 30.2847 21.49 30.6504C21.26 30.8472 21.1561 30.9018 20.855 30.9419C20.5524 30.9064 20.408 30.8495 20.1989 30.6274C19.9717 30.2021 20.0426 29.6722 20.0517 29.2035C20.0507 29.0905 20.0497 28.9774 20.0487 28.8609C20.0555 28.0289 20.0555 28.0289 20.2787 27.7544C20.5431 27.5455 20.7047 27.5505 21.0303 27.5663Z" fill="#133769"/>
</svg>
