<svg width="73" height="74" viewBox="0 0 73 74" fill="none" xmlns="http://www.w3.org/2000/svg">
<path opacity="0.11" fill-rule="evenodd" clip-rule="evenodd" d="M29.417 11.641C35.8903 12.1676 40.9975 15.8572 46.5721 19.1896C53.4834 23.3211 62.5773 25.4423 65.225 33.0465C68.1947 41.5754 65.8188 51.4854 60.3088 58.6408C54.7813 65.8188 45.8213 69.8026 36.764 70.0062C28.4634 70.1928 20.822 65.7237 15.1546 59.6559C10.3052 54.4639 10.4493 47.0673 8.86932 40.1407C6.97341 31.8291 0.169961 22.7359 5.15566 15.8207C10.1448 8.90079 20.9141 10.9494 29.417 11.641Z" fill="#55A3F3"/>
<path d="M59.8529 42.5749C63.4931 29.6445 55.9618 16.2112 43.0312 12.5708C30.1006 8.93048 16.6672 16.4616 13.0269 29.392C9.38659 42.3225 16.9179 55.7558 29.8485 59.3961C42.7792 63.0365 56.2126 55.5054 59.8529 42.5749Z" fill="#55A3F3"/>
<path d="M53.3313 53.4922C63.9179 43.3441 64.9644 27.2562 55.6687 17.5589C46.3731 7.86163 30.2553 8.22709 19.6687 18.3752C9.08214 28.5233 8.03562 44.6112 17.3313 54.3085C26.6269 64.0058 42.7447 63.6404 53.3313 53.4922Z" stroke="#55A3F3" stroke-width="0.362809" stroke-miterlimit="10"/>
<path d="M34.3496 59.1572L44.3453 67.7954L39.771 55.8672L34.3496 59.1572Z" fill="#55A3F3"/>
<path d="M36.1795 44.282L35.5814 42.0349C35.2053 40.6215 35.0675 39.3945 35.169 38.353C35.2702 37.3121 35.5064 36.379 35.8773 35.5537C36.2479 34.7287 36.6443 33.9724 37.067 33.2845C37.6423 32.3752 38.1344 31.495 38.5437 30.6441C38.9532 29.7935 39.0071 28.8031 38.7063 27.6718C38.5409 27.0505 38.246 26.5684 37.8223 26.2269C37.3982 25.8857 36.9354 25.6533 36.4333 25.5293C35.9309 25.406 35.4681 25.4002 35.044 25.5131C34.2239 25.7313 33.5895 26.1046 33.1399 26.6327C32.6902 27.161 32.3673 27.7691 32.1722 28.4567C31.9764 29.1446 31.8386 29.8474 31.7571 30.5653L30.6023 30.8727L26.2715 29.5732C26.3057 29.0193 26.4296 28.2903 26.6431 27.3855C26.8565 26.4817 27.246 25.53 27.8134 24.5313C28.3801 23.5333 29.1785 22.6092 30.209 21.7596C31.2388 20.9108 32.5738 20.2674 34.2138 19.8309C35.8252 19.402 37.3471 19.2922 38.7802 19.5011C40.213 19.7101 41.4638 20.2854 42.5316 21.2275C43.5997 22.1692 44.3819 23.573 44.8785 25.4388C45.2922 26.9939 45.4151 28.3086 45.2466 29.3822C45.0784 30.4562 44.7714 31.4086 44.3266 32.2381C43.8815 33.0683 43.434 33.8909 42.9857 34.7066C42.6328 35.3158 42.3147 35.9677 42.0309 36.6636C41.7463 37.3598 41.5792 38.1233 41.528 38.9542C41.4766 39.7851 41.594 40.7382 41.8799 41.8122L42.1168 42.7025L36.1795 44.282ZM41.5287 52.4395C40.511 52.7103 39.6035 52.6568 38.8068 52.2786C38.0094 51.9005 37.4911 51.2592 37.2504 50.3544C37.0173 49.4783 37.1533 48.6547 37.6599 47.8842C38.1659 47.1138 38.9139 46.5968 39.9036 46.3337C40.8926 46.0705 41.785 46.151 42.5789 46.5754C43.3728 46.9998 43.8867 47.6504 44.1198 48.5266C44.3608 49.4317 44.2427 50.2418 43.7682 50.9587C43.2927 51.6753 42.5464 52.1688 41.5287 52.4395Z" fill="#2C54AC"/>
<path d="M35.0255 44.5873L34.4274 42.3398C34.0514 40.9264 33.9136 39.6994 34.0151 38.6579C34.1163 37.617 34.3525 36.6839 34.7234 35.8586C35.0939 35.0336 35.4904 34.2773 35.9131 33.5894C36.4884 32.6801 36.9805 31.7998 37.3897 30.9486C37.7993 30.098 37.8531 29.1076 37.5524 27.9766C37.3869 27.355 37.092 26.8733 36.6683 26.5318C36.2442 26.1906 35.7815 25.9582 35.2794 25.8342C34.7769 25.7109 34.3142 25.705 33.8901 25.818C33.0699 26.0362 32.4355 26.4092 31.9859 26.9375C31.5363 27.4659 31.2134 28.074 31.0183 28.7616C30.8225 29.4495 30.6847 30.1523 30.6032 30.8699L25.1172 29.8777C25.1514 29.3238 25.2753 28.5948 25.4888 27.69C25.7022 26.7863 26.0917 25.8349 26.6591 24.8358C27.2258 23.8381 28.0242 22.914 29.0547 22.0642C30.0845 21.2153 31.4196 20.572 33.0596 20.1355C34.6709 19.7066 36.1928 19.5971 37.6263 19.8057C39.0591 20.0146 40.3099 20.5899 41.3776 21.532C42.4458 22.4737 43.2279 23.8775 43.7245 25.7434C44.1382 27.2984 44.2612 28.6131 44.0927 29.6867C43.9245 30.7611 43.6175 31.7135 43.1727 32.5427C42.7276 33.3729 42.28 34.1958 41.8318 35.0111C41.4788 35.6199 41.1608 36.2723 40.8769 36.9681C40.5923 37.6643 40.4252 38.4279 40.3741 39.2587C40.3226 40.0896 40.4401 41.0427 40.726 42.1167L40.9629 43.007L35.0255 44.5873ZM40.3751 52.7448C39.3574 53.0155 38.4499 52.962 37.6532 52.5839C36.8558 52.2057 36.3375 51.5648 36.0968 50.6596C35.8637 49.7835 35.9997 48.9599 36.5063 48.1895C37.0123 47.4194 37.7603 46.902 38.75 46.6389C39.739 46.3758 40.631 46.4562 41.4253 46.8806C42.2192 47.3051 42.7331 47.956 42.9662 48.8318C43.2072 49.7369 43.0891 50.5471 42.6146 51.264C42.1388 51.9805 41.3928 52.474 40.3751 52.7448Z" fill="white"/>
</svg>
