<svg width="30" height="30" viewBox="0 0 30 30" fill="none" xmlns="http://www.w3.org/2000/svg">
<g clip-path="url(#clip0_1811_22605)">
<path d="M20.2675 0.313498C20.0976 0.381467 17.8037 2.65275 17.6847 2.86799C17.5771 3.0719 17.5828 3.32678 17.696 3.55334C17.798 3.75725 19.7181 5.72268 20.0636 5.97756C20.4884 6.29475 21.0662 6.14748 21.2531 5.68303C21.4117 5.28088 21.338 5.11096 20.7603 4.51057L20.2449 3.98947H22.216C24.4929 3.98947 24.7591 4.02346 25.5634 4.41428C26.413 4.82775 26.9738 5.35451 27.4326 6.17014C27.8404 6.90646 27.8744 7.09904 27.9083 9.11545C27.948 11.1942 27.9537 11.2225 28.4011 11.4207C28.8259 11.6076 29.2394 11.4377 29.4093 11.0129C29.483 10.826 29.5 10.5485 29.5 9.48928C29.5 8.7756 29.4716 7.93732 29.4433 7.62014C29.3074 6.28908 28.7919 5.17326 27.8687 4.20471C27.2966 3.60432 26.515 3.08322 25.7957 2.81701C24.9404 2.50549 24.9121 2.49983 22.5218 2.47717C21.2814 2.46018 20.2675 2.43186 20.2675 2.41486C20.2675 2.39221 20.4828 2.15432 20.749 1.89377C21.2701 1.37834 21.3664 1.19143 21.2871 0.84592C21.1851 0.392796 20.7037 0.143577 20.2675 0.313498Z" fill="#133769"/>
<mask id="path-2-outside-1_1811_22605" maskUnits="userSpaceOnUse" x="0.305664" y="0.417969" width="15" height="15" fill="black">
<rect fill="white" x="0.305664" y="0.417969" width="15" height="15"/>
<path fill-rule="evenodd" clip-rule="evenodd" d="M10.766 13.0333C10.2387 13.2754 10.158 13.9425 10.6099 14.2976C10.9327 14.5504 11.5245 14.3836 11.6913 13.9963C11.9334 13.4045 11.3308 12.7751 10.766 13.0333ZM1.31343 13.5386C1.32419 13.3665 1.63623 13.0329 1.81914 12.9952C2.31409 12.893 2.7391 13.232 2.73372 13.7215C2.72834 14.125 2.43245 14.4102 2.02358 14.4102C1.54477 14.4102 1.28653 14.0874 1.31343 13.5386ZM1.54381 11.243C1.18874 10.9095 1.23716 10.3715 1.64603 10.0917C1.72673 10.0379 1.88275 10.0003 2.03338 10.0003C2.25396 10.0003 2.3239 10.0272 2.48529 10.1724C2.71663 10.393 2.79195 10.6566 2.68973 10.9471C2.52295 11.4421 1.92041 11.5927 1.54381 11.243ZM13.6592 7.09321C13.1858 7.37835 13.2181 8.11539 13.713 8.34673C13.9444 8.4597 14.0735 8.4597 14.3102 8.36287C14.6814 8.20685 14.8428 7.81412 14.6922 7.42677C14.5254 7.02328 14.0358 6.86188 13.6592 7.09321ZM1.53935 8.24809C1.15738 7.92529 1.26498 7.24205 1.72765 7.03761C1.78683 7.01071 1.9536 6.99995 2.09886 7.01071C2.32481 7.02685 2.39475 7.05913 2.54539 7.22591C3.15332 7.88763 2.23336 8.82911 1.53935 8.24809ZM1.30713 4.70251C1.30713 4.42814 1.42011 4.22908 1.6622 4.08383C1.75904 4.02465 1.92044 3.97623 2.02265 3.97623C2.24323 3.97623 2.5176 4.12687 2.64134 4.32054C2.68976 4.39586 2.7328 4.56264 2.7328 4.70251C2.7328 4.98765 2.6252 5.17594 2.38311 5.3212C1.91506 5.61171 1.30713 5.26202 1.30713 4.70251ZM10.6785 2.33493C10.1836 2.0767 10.1944 1.29661 10.7001 1.04914C11.0498 0.876984 11.4371 1.00072 11.6523 1.35041C12.0181 1.95296 11.3134 2.66311 10.6785 2.33493ZM4.51392 2.18372C4.19112 1.82327 4.2503 1.35522 4.65379 1.08623C5.11646 0.774193 5.73515 1.11851 5.73515 1.68877C5.73515 2.34512 4.95507 2.66253 4.51392 2.18372ZM1.30713 1.68387C1.30713 1.39874 1.43625 1.1943 1.70524 1.05442C2.18405 0.801569 2.73818 1.1674 2.7328 1.73229C2.72204 2.25952 2.11949 2.58769 1.6622 2.30794C1.42011 2.16268 1.30713 1.96362 1.30713 1.68387ZM7.68297 1.06966C7.33328 1.28485 7.21492 1.65607 7.38169 2.01652C7.61841 2.51147 8.35545 2.54913 8.64059 2.0757C9.02794 1.44625 8.30703 0.693067 7.68297 1.06966ZM13.7128 1.04152C13.2071 1.25671 13.1963 2.07445 13.6912 2.33269C14.3691 2.677 15.0739 1.85388 14.6058 1.26209C14.3799 0.976958 14.0517 0.89626 13.7128 1.04152ZM13.6594 4.07543C13.0407 4.46816 13.3258 5.42578 14.0629 5.42578C14.2781 5.42578 14.5686 5.22135 14.6869 4.97925C14.816 4.71026 14.7676 4.45202 14.5363 4.20455C14.3103 3.95707 13.9337 3.90327 13.6594 4.07543ZM13.5306 10.2096C13.3477 10.3925 13.3208 10.4463 13.3208 10.6722C13.3208 11.0004 13.4499 11.2102 13.7404 11.3501C14.1224 11.5384 14.5367 11.3824 14.6981 10.9897C14.7949 10.7529 14.7949 10.6238 14.6819 10.3925C14.5636 10.1342 14.3268 9.99975 13.9987 9.99975C13.7673 9.99975 13.7135 10.0213 13.5306 10.2096ZM4.79925 13.0114C4.4657 13.1136 4.23974 13.4902 4.31506 13.8291C4.39576 14.2165 4.64861 14.4102 5.06825 14.4102C5.28882 14.4102 5.34262 14.3833 5.52554 14.2003C5.70845 14.0174 5.73535 13.9636 5.73535 13.7377C5.73535 13.4149 5.60623 13.1997 5.33186 13.0652C5.08976 12.9468 5.03597 12.9414 4.79925 13.0114ZM7.48957 13.2266C7.56489 13.1405 7.70477 13.0437 7.79623 13.0168C8.03832 12.9468 8.08674 12.9468 8.28041 13.0329C9.01208 13.3449 8.83454 14.4102 8.04908 14.4102C7.40349 14.4102 7.07532 13.7215 7.48957 13.2266ZM13.558 14.2326C13.1761 13.8829 13.2621 13.2696 13.7248 13.0544C14.3435 12.7693 14.9783 13.3934 14.6878 14.0067C14.5641 14.2703 14.3274 14.4102 14.0046 14.4102C13.7894 14.4102 13.7194 14.3833 13.558 14.2326Z"/>
</mask>
<path fill-rule="evenodd" clip-rule="evenodd" d="M10.766 13.0333C10.2387 13.2754 10.158 13.9425 10.6099 14.2976C10.9327 14.5504 11.5245 14.3836 11.6913 13.9963C11.9334 13.4045 11.3308 12.7751 10.766 13.0333ZM1.31343 13.5386C1.32419 13.3665 1.63623 13.0329 1.81914 12.9952C2.31409 12.893 2.7391 13.232 2.73372 13.7215C2.72834 14.125 2.43245 14.4102 2.02358 14.4102C1.54477 14.4102 1.28653 14.0874 1.31343 13.5386ZM1.54381 11.243C1.18874 10.9095 1.23716 10.3715 1.64603 10.0917C1.72673 10.0379 1.88275 10.0003 2.03338 10.0003C2.25396 10.0003 2.3239 10.0272 2.48529 10.1724C2.71663 10.393 2.79195 10.6566 2.68973 10.9471C2.52295 11.4421 1.92041 11.5927 1.54381 11.243ZM13.6592 7.09321C13.1858 7.37835 13.2181 8.11539 13.713 8.34673C13.9444 8.4597 14.0735 8.4597 14.3102 8.36287C14.6814 8.20685 14.8428 7.81412 14.6922 7.42677C14.5254 7.02328 14.0358 6.86188 13.6592 7.09321ZM1.53935 8.24809C1.15738 7.92529 1.26498 7.24205 1.72765 7.03761C1.78683 7.01071 1.9536 6.99995 2.09886 7.01071C2.32481 7.02685 2.39475 7.05913 2.54539 7.22591C3.15332 7.88763 2.23336 8.82911 1.53935 8.24809ZM1.30713 4.70251C1.30713 4.42814 1.42011 4.22908 1.6622 4.08383C1.75904 4.02465 1.92044 3.97623 2.02265 3.97623C2.24323 3.97623 2.5176 4.12687 2.64134 4.32054C2.68976 4.39586 2.7328 4.56264 2.7328 4.70251C2.7328 4.98765 2.6252 5.17594 2.38311 5.3212C1.91506 5.61171 1.30713 5.26202 1.30713 4.70251ZM10.6785 2.33493C10.1836 2.0767 10.1944 1.29661 10.7001 1.04914C11.0498 0.876984 11.4371 1.00072 11.6523 1.35041C12.0181 1.95296 11.3134 2.66311 10.6785 2.33493ZM4.51392 2.18372C4.19112 1.82327 4.2503 1.35522 4.65379 1.08623C5.11646 0.774193 5.73515 1.11851 5.73515 1.68877C5.73515 2.34512 4.95507 2.66253 4.51392 2.18372ZM1.30713 1.68387C1.30713 1.39874 1.43625 1.1943 1.70524 1.05442C2.18405 0.801569 2.73818 1.1674 2.7328 1.73229C2.72204 2.25952 2.11949 2.58769 1.6622 2.30794C1.42011 2.16268 1.30713 1.96362 1.30713 1.68387ZM7.68297 1.06966C7.33328 1.28485 7.21492 1.65607 7.38169 2.01652C7.61841 2.51147 8.35545 2.54913 8.64059 2.0757C9.02794 1.44625 8.30703 0.693067 7.68297 1.06966ZM13.7128 1.04152C13.2071 1.25671 13.1963 2.07445 13.6912 2.33269C14.3691 2.677 15.0739 1.85388 14.6058 1.26209C14.3799 0.976958 14.0517 0.89626 13.7128 1.04152ZM13.6594 4.07543C13.0407 4.46816 13.3258 5.42578 14.0629 5.42578C14.2781 5.42578 14.5686 5.22135 14.6869 4.97925C14.816 4.71026 14.7676 4.45202 14.5363 4.20455C14.3103 3.95707 13.9337 3.90327 13.6594 4.07543ZM13.5306 10.2096C13.3477 10.3925 13.3208 10.4463 13.3208 10.6722C13.3208 11.0004 13.4499 11.2102 13.7404 11.3501C14.1224 11.5384 14.5367 11.3824 14.6981 10.9897C14.7949 10.7529 14.7949 10.6238 14.6819 10.3925C14.5636 10.1342 14.3268 9.99975 13.9987 9.99975C13.7673 9.99975 13.7135 10.0213 13.5306 10.2096ZM4.79925 13.0114C4.4657 13.1136 4.23974 13.4902 4.31506 13.8291C4.39576 14.2165 4.64861 14.4102 5.06825 14.4102C5.28882 14.4102 5.34262 14.3833 5.52554 14.2003C5.70845 14.0174 5.73535 13.9636 5.73535 13.7377C5.73535 13.4149 5.60623 13.1997 5.33186 13.0652C5.08976 12.9468 5.03597 12.9414 4.79925 13.0114ZM7.48957 13.2266C7.56489 13.1405 7.70477 13.0437 7.79623 13.0168C8.03832 12.9468 8.08674 12.9468 8.28041 13.0329C9.01208 13.3449 8.83454 14.4102 8.04908 14.4102C7.40349 14.4102 7.07532 13.7215 7.48957 13.2266ZM13.558 14.2326C13.1761 13.8829 13.2621 13.2696 13.7248 13.0544C14.3435 12.7693 14.9783 13.3934 14.6878 14.0067C14.5641 14.2703 14.3274 14.4102 14.0046 14.4102C13.7894 14.4102 13.7194 14.3833 13.558 14.2326Z" fill="url(#paint0_linear_1811_22605)"/>
<path d="M10.6099 14.2976L10.4249 14.5337L10.4246 14.5335L10.6099 14.2976ZM10.766 13.0333L10.6408 12.7607L10.6412 12.7605L10.766 13.0333ZM11.6913 13.9963L11.969 14.1099L11.9668 14.1149L11.6913 13.9963ZM1.81914 12.9952L1.87982 13.289L1.87964 13.2891L1.81914 12.9952ZM1.31343 13.5386L1.01377 13.5239L1.01402 13.5199L1.31343 13.5386ZM2.73372 13.7215L3.03371 13.7248L3.0337 13.7255L2.73372 13.7215ZM1.64603 10.0917L1.47661 9.84411L1.47962 9.84211L1.64603 10.0917ZM1.54381 11.243L1.33967 11.4629L1.33841 11.4617L1.54381 11.243ZM2.48529 10.1724L2.68607 9.94934L2.69232 9.9553L2.48529 10.1724ZM2.68973 10.9471L2.40541 10.8513L2.40674 10.8476L2.68973 10.9471ZM13.713 8.34673L13.8401 8.07491L13.8447 8.07716L13.713 8.34673ZM13.6592 7.09321L13.8163 7.34885L13.814 7.3502L13.6592 7.09321ZM14.3102 8.36287L14.4264 8.63944L14.4238 8.64053L14.3102 8.36287ZM14.6922 7.42677L14.9695 7.31215L14.9718 7.31803L14.6922 7.42677ZM1.72765 7.03761L1.85179 7.31074L1.8489 7.31202L1.72765 7.03761ZM1.53935 8.24809L1.34677 8.47812L1.34571 8.47722L1.53935 8.24809ZM2.09886 7.01071L2.07748 7.30995L2.0767 7.30989L2.09886 7.01071ZM2.54539 7.22591L2.32446 7.42888L2.32276 7.42699L2.54539 7.22591ZM1.6622 4.08383L1.81864 4.33982L1.81655 4.34107L1.6622 4.08383ZM2.64134 4.32054L2.38899 4.48277L2.38853 4.48206L2.64134 4.32054ZM2.38311 5.3212L2.22488 5.06628L2.22876 5.06395L2.38311 5.3212ZM10.7001 1.04914L10.8326 1.31829L10.8319 1.31861L10.7001 1.04914ZM10.6785 2.33493L10.5408 2.60143L10.5398 2.60091L10.6785 2.33493ZM11.6523 1.35041L11.9078 1.19318L11.9087 1.19472L11.6523 1.35041ZM4.65379 1.08623L4.82154 1.33495L4.8202 1.33584L4.65379 1.08623ZM4.51392 2.18372L4.29326 2.38702L4.29043 2.38386L4.51392 2.18372ZM1.70524 1.05442L1.84534 1.31971L1.84365 1.32059L1.70524 1.05442ZM2.7328 1.73229L3.0328 1.73515L3.03273 1.73841L2.7328 1.73229ZM1.6622 2.30794L1.81656 2.05068L1.81876 2.05203L1.6622 2.30794ZM7.38169 2.01652L7.11103 2.14596L7.10943 2.14249L7.38169 2.01652ZM7.68297 1.06966L7.52573 0.814151L7.52797 0.812802L7.68297 1.06966ZM8.64059 2.0757L8.38359 1.92091L8.38509 1.91847L8.64059 2.0757ZM13.6912 2.33269L13.5554 2.60018L13.5525 2.59866L13.6912 2.33269ZM13.7128 1.04152L13.8309 1.31726L13.8302 1.31756L13.7128 1.04152ZM14.6058 1.26209L14.8409 1.07577L14.8411 1.07599L14.6058 1.26209ZM13.6594 4.07543L13.4986 3.82215L13.4999 3.82131L13.6594 4.07543ZM14.6869 4.97925L14.9574 5.10907L14.9564 5.11101L14.6869 4.97925ZM14.5363 4.20455L14.3171 4.40943L14.3147 4.40683L14.5363 4.20455ZM13.5306 10.2096L13.7458 10.4186L13.7427 10.4217L13.5306 10.2096ZM13.7404 11.3501L13.8706 11.0798L13.8731 11.081L13.7404 11.3501ZM14.6981 10.9897L14.9757 11.1032L14.9755 11.1037L14.6981 10.9897ZM14.6819 10.3925L14.4123 10.5242L14.4092 10.5175L14.6819 10.3925ZM4.31506 13.8291L4.60794 13.764L4.60876 13.7679L4.31506 13.8291ZM4.79925 13.0114L4.71135 12.7245L4.71425 12.7237L4.79925 13.0114ZM5.52554 14.2003L5.73767 14.4125V14.4125L5.52554 14.2003ZM5.33186 13.0652L5.46362 12.7957L5.46391 12.7958L5.33186 13.0652ZM7.79623 13.0168L7.71157 12.729L7.71296 12.7286L7.79623 13.0168ZM7.48957 13.2266L7.25946 13.034L7.2638 13.029L7.48957 13.2266ZM8.28041 13.0329L8.16272 13.3089L8.15857 13.3071L8.28041 13.0329ZM13.7248 13.0544L13.5983 12.7824L13.5992 12.782L13.7248 13.0544ZM13.558 14.2326L13.7606 14.0113L13.7627 14.0133L13.558 14.2326ZM14.6878 14.0067L14.4162 13.8792L14.4167 13.8782L14.6878 14.0067ZM10.4246 14.5335C9.79369 14.0378 9.91253 13.0951 10.6408 12.7607L10.8911 13.3059C10.5649 13.4557 10.5224 13.8472 10.7953 14.0617L10.4246 14.5335ZM11.9668 14.1149C11.8391 14.4116 11.5633 14.5994 11.2899 14.6759C11.0175 14.7521 10.6822 14.7353 10.4249 14.5337L10.7949 14.0614C10.8605 14.1127 10.9824 14.1389 11.1283 14.0981C11.2732 14.0576 11.3767 13.9683 11.4158 13.8777L11.9668 14.1149ZM10.6412 12.7605C11.0606 12.5687 11.4855 12.715 11.7477 12.9883C12.0092 13.2609 12.141 13.6895 11.969 14.1099L11.4136 13.8827C11.4837 13.7113 11.4353 13.5293 11.3148 13.4037C11.1951 13.279 11.0362 13.2396 10.8907 13.3061L10.6412 12.7605ZM1.87964 13.2891C1.89354 13.2862 1.87979 13.2868 1.83845 13.3162C1.80232 13.3419 1.76081 13.3785 1.72114 13.4211C1.68131 13.4638 1.64925 13.5062 1.62855 13.5407C1.60337 13.5827 1.61105 13.5861 1.61285 13.5573L1.01402 13.5199C1.02119 13.4051 1.07191 13.3022 1.11399 13.2321C1.16053 13.1545 1.21993 13.0788 1.28232 13.0119C1.34486 12.9448 1.41633 12.8802 1.49049 12.8274C1.55943 12.7783 1.65329 12.7231 1.75865 12.7014L1.87964 13.2891ZM2.43374 13.7182C2.4369 13.431 2.19815 13.2233 1.87982 13.289L1.75847 12.7014C2.43003 12.5628 3.04131 13.0329 3.0337 13.7248L2.43374 13.7182ZM2.02358 14.1102C2.27377 14.1102 2.43063 13.9515 2.43375 13.7175L3.0337 13.7255C3.02606 14.2985 2.59113 14.7102 2.02358 14.7102V14.1102ZM1.61307 13.5533C1.60184 13.7826 1.65271 13.9182 1.71189 13.9912C1.76481 14.0565 1.85526 14.1102 2.02358 14.1102V14.7102C1.71309 14.7102 1.43501 14.6024 1.24584 14.3691C1.06293 14.1435 0.998132 13.8434 1.01379 13.5239L1.61307 13.5533ZM1.81544 10.3393C1.55846 10.5151 1.53934 10.8272 1.74922 11.0244L1.33841 11.4617C0.838139 10.9917 0.91586 10.2278 1.47663 9.84413L1.81544 10.3393ZM2.03338 10.3003C1.98171 10.3003 1.92832 10.3069 1.88284 10.3177C1.83322 10.3295 1.8119 10.3417 1.81244 10.3413L1.47962 9.84211C1.62858 9.7428 1.85142 9.70026 2.03338 9.70026V10.3003ZM2.2846 10.3954C2.20898 10.3273 2.18536 10.3163 2.17461 10.3122C2.16342 10.3079 2.13726 10.3003 2.03338 10.3003V9.70026C2.15008 9.70026 2.26917 9.70607 2.38845 9.75157C2.50817 9.79724 2.60021 9.87224 2.68598 9.94943L2.2846 10.3954ZM2.40674 10.8476C2.44 10.753 2.44043 10.6766 2.42292 10.6116C2.40495 10.5449 2.36245 10.4698 2.27827 10.3895L2.69232 9.9553C2.83948 10.0956 2.95029 10.2626 3.00226 10.4555C3.0547 10.6501 3.04167 10.8507 2.97272 11.0467L2.40674 10.8476ZM1.74795 11.0232C1.96424 11.224 2.30788 11.1408 2.40543 10.8513L2.97402 11.0429C2.73803 11.7433 1.87657 11.9614 1.33968 11.4629L1.74795 11.0232ZM13.586 8.61851C12.8665 8.2822 12.8321 7.24117 13.5044 6.83622L13.814 7.3502C13.5395 7.51553 13.5697 7.94858 13.8401 8.07495L13.586 8.61851ZM14.4238 8.64053C14.2905 8.69507 14.1542 8.73676 14.0029 8.7334C13.8504 8.73001 13.7152 8.68164 13.5814 8.6163L13.8447 8.07716C13.9422 8.12479 13.9872 8.13291 14.0163 8.13355C14.0466 8.13423 14.0932 8.1275 14.1966 8.0852L14.4238 8.64053ZM14.9718 7.31803C15.1787 7.85014 14.954 8.41768 14.4264 8.63943L14.194 8.0863C14.4088 7.99602 14.5069 7.7781 14.4126 7.5355L14.9718 7.31803ZM13.5022 6.83759C14.0363 6.50952 14.7322 6.73824 14.9694 7.31217L14.4149 7.54136C14.3186 7.30832 14.0354 7.21424 13.8163 7.34884L13.5022 6.83759ZM1.8489 7.31202C1.7268 7.36597 1.63726 7.49056 1.61316 7.64478C1.58906 7.79902 1.63697 7.93781 1.73299 8.01895L1.34571 8.47722C1.05976 8.23557 0.970482 7.87134 1.02035 7.55215C1.07023 7.23294 1.26583 6.91369 1.6064 6.76321L1.8489 7.31202ZM2.0767 7.30989C2.01832 7.30557 1.95472 7.30561 1.90192 7.30931C1.87559 7.31115 1.85549 7.31366 1.84227 7.31599C1.82463 7.3191 1.83229 7.31959 1.85179 7.31072L1.60351 6.7645C1.68735 6.72639 1.79309 6.71546 1.86002 6.71077C1.94173 6.70505 2.03414 6.7051 2.12102 6.71153L2.0767 7.30989ZM2.32276 7.42699C2.25266 7.34939 2.22993 7.33677 2.22073 7.33237C2.21045 7.32744 2.18502 7.31763 2.07748 7.30995L2.12023 6.71147C2.23866 6.71993 2.36117 6.73434 2.48 6.79128C2.59992 6.84874 2.68748 6.93565 2.76802 7.02482L2.32276 7.42699ZM1.73193 8.01806C1.93955 8.19188 2.16667 8.14563 2.31642 7.99296C2.46558 7.84088 2.50196 7.62207 2.32447 7.42887L2.76631 7.02295C3.19675 7.49147 3.07711 8.07426 2.74477 8.4131C2.41302 8.75134 1.83315 8.88532 1.34677 8.47811L1.73193 8.01806ZM1.81655 4.34107C1.73039 4.39277 1.68244 4.44452 1.65425 4.49378C1.62622 4.54274 1.60713 4.6077 1.60713 4.70251H1.00713C1.00713 4.52295 1.04452 4.3512 1.13351 4.19573C1.22233 4.04055 1.35192 3.92014 1.50785 3.82658L1.81655 4.34107ZM2.02265 4.27623C2.01124 4.27623 1.97608 4.28039 1.92634 4.29527C1.87814 4.30968 1.83905 4.32734 1.81864 4.33981L1.50577 3.82784C1.58219 3.78114 1.67222 3.745 1.75448 3.72041C1.8352 3.69627 1.93185 3.67623 2.02265 3.67623V4.27623ZM2.38853 4.48206C2.35939 4.43644 2.30155 4.38175 2.22289 4.33815C2.14376 4.2943 2.06991 4.27623 2.02265 4.27623V3.67623C2.19597 3.67623 2.3696 3.73348 2.51374 3.81336C2.65834 3.8935 2.79956 4.01097 2.89415 4.15902L2.38853 4.48206ZM2.4328 4.70251C2.4328 4.66065 2.42598 4.6082 2.41385 4.55873C2.40796 4.5347 2.40157 4.51448 2.39578 4.4993C2.38944 4.48271 2.38626 4.47853 2.38899 4.48277L2.89369 4.15831C2.94377 4.23621 2.97637 4.33334 2.9966 4.4159C3.0181 4.50362 3.0328 4.6045 3.0328 4.70251H2.4328ZM2.22876 5.06395C2.317 5.01101 2.36202 4.96179 2.38773 4.91641C2.41344 4.87103 2.4328 4.80666 2.4328 4.70251H3.0328C3.0328 4.8835 2.99835 5.05584 2.90974 5.21221C2.82114 5.36858 2.69131 5.48614 2.53745 5.57845L2.22876 5.06395ZM1.60713 4.70251C1.60713 5.03857 1.96661 5.22662 2.2249 5.06631L2.54131 5.57609C1.8635 5.9968 1.00713 5.48547 1.00713 4.70251H1.60713ZM10.8319 1.31861C10.6982 1.38403 10.6166 1.52605 10.614 1.69269C10.6114 1.8596 10.6887 2.00183 10.8173 2.06896L10.5398 2.60091C10.1735 2.4098 10.0086 2.03287 10.0141 1.68331C10.0196 1.33349 10.1962 0.961725 10.5682 0.779675L10.8319 1.31861ZM11.3968 1.50764C11.2551 1.27742 11.0308 1.2207 10.8326 1.31829L10.5676 0.779989C11.0687 0.533267 11.6191 0.724023 11.9078 1.19318L11.3968 1.50764ZM10.8163 2.06844C10.9999 2.16336 11.1955 2.11384 11.3275 1.98058C11.4584 1.84841 11.4949 1.66913 11.3959 1.50611L11.9087 1.19472C12.1756 1.63424 12.0425 2.11131 11.7538 2.40281C11.4662 2.69321 10.992 2.83468 10.5408 2.60143L10.8163 2.06844ZM4.8202 1.33584C4.68121 1.42851 4.62164 1.53993 4.6091 1.63852C4.59657 1.73711 4.62639 1.85962 4.7374 1.98359L4.29043 2.38386C4.07865 2.14737 3.97667 1.85563 4.0139 1.56284C4.05112 1.27004 4.22289 1.01294 4.48738 0.836612L4.8202 1.33584ZM5.43515 1.68877C5.43515 1.34219 5.07128 1.16651 4.82154 1.33495L4.48605 0.837505C5.16164 0.381872 6.03515 0.894825 6.03515 1.68877H5.43515ZM4.73455 1.98044C4.98064 2.24754 5.43515 2.08661 5.43515 1.68877H6.03515C6.03515 2.60363 4.9295 3.07752 4.29329 2.387L4.73455 1.98044ZM1.84365 1.32059C1.745 1.37188 1.69036 1.42521 1.65888 1.475C1.62812 1.52365 1.60713 1.58833 1.60713 1.68387H1.00713C1.00713 1.49428 1.0507 1.31417 1.15174 1.15435C1.25207 0.995674 1.39649 0.876839 1.56683 0.788258L1.84365 1.32059ZM2.43281 1.72943C2.4363 1.36328 2.09862 1.18595 1.84533 1.31971L1.56515 0.789142C2.26948 0.41719 3.04006 0.971524 3.03278 1.73515L2.43281 1.72943ZM1.81876 2.05203C2.08218 2.21318 2.42691 2.0175 2.43286 1.72617L3.03273 1.73841C3.01716 2.50153 2.1568 2.9622 1.50564 2.56385L1.81876 2.05203ZM1.60713 1.68387C1.60713 1.78231 1.62662 1.84872 1.65467 1.89805C1.68278 1.94749 1.73046 1.99903 1.81655 2.05069L1.50785 2.56518C1.35185 2.47158 1.22199 2.35097 1.13309 2.19463C1.04413 2.03817 1.00713 1.86518 1.00713 1.68387H1.60713ZM7.10943 2.14249C6.99726 1.90008 6.97568 1.63981 7.05279 1.39761C7.12963 1.15626 7.29738 0.954691 7.52574 0.814161L7.8402 1.32516C7.71887 1.39982 7.65259 1.49146 7.62452 1.57963C7.59672 1.66694 7.59935 1.7725 7.65396 1.89054L7.10943 2.14249ZM8.89758 2.23048C8.48899 2.90889 7.45066 2.85603 7.11105 2.14595L7.65234 1.88708C7.78616 2.1669 8.22192 2.18937 8.3836 1.92092L8.89758 2.23048ZM7.52797 0.812802C7.98126 0.539267 8.46917 0.685482 8.75811 0.988317C9.04662 1.29069 9.17225 1.78416 8.89608 2.23293L8.38509 1.91847C8.49628 1.73778 8.45513 1.53994 8.32401 1.40251C8.19332 1.26554 8.00875 1.22346 7.83797 1.32651L7.52797 0.812802ZM13.5525 2.59866C13.182 2.40537 13.0214 2.01566 13.0268 1.66637C13.0321 1.31725 13.2058 0.931224 13.5953 0.76547L13.8302 1.31756C13.714 1.367 13.6294 1.49744 13.6267 1.67555C13.624 1.85349 13.7055 2.00177 13.83 2.06671L13.5525 2.59866ZM14.8411 1.07599C15.1799 1.50429 15.0843 2.01828 14.8063 2.3434C14.5292 2.66744 14.0377 2.84513 13.5554 2.60016L13.8271 2.06521C14.0227 2.16456 14.2225 2.10284 14.3502 1.95346C14.4771 1.80514 14.4998 1.61168 14.3705 1.44819L14.8411 1.07599ZM13.5946 0.765773C13.8158 0.670988 14.0493 0.643827 14.2735 0.699141C14.4981 0.75454 14.6917 0.88737 14.8409 1.07577L14.3707 1.44842C14.294 1.35168 14.2105 1.30159 14.1298 1.28168C14.0487 1.26167 13.9487 1.26679 13.8309 1.31726L13.5946 0.765773ZM14.0629 5.72578C13.0358 5.72578 12.6177 4.38132 13.4986 3.82215L13.8202 4.32871C13.4637 4.55501 13.6159 5.12578 14.0629 5.12578V5.72578ZM14.9564 5.11101C14.8714 5.28499 14.7323 5.43299 14.5852 5.53771C14.4424 5.63936 14.2555 5.72578 14.0629 5.72578V5.12578C14.0854 5.12578 14.1514 5.10999 14.2373 5.04889C14.3188 4.99087 14.3841 4.91561 14.4174 4.84749L14.9564 5.11101ZM14.7555 3.99968C14.8991 4.15332 15.0032 4.32893 15.0414 4.52706C15.0801 4.72817 15.0456 4.92523 14.9574 5.10907L14.4165 4.84943C14.4573 4.76428 14.4632 4.69772 14.4522 4.6406C14.4406 4.5805 14.4049 4.50325 14.3171 4.40941L14.7555 3.99968ZM13.4999 3.82131C13.9014 3.56942 14.4375 3.65145 14.7578 4.00227L14.3147 4.40683C14.1832 4.2627 13.9661 4.23713 13.8188 4.32955L13.4999 3.82131ZM13.0208 10.6722C13.0208 10.5549 13.0257 10.4279 13.0844 10.2998C13.1395 10.1796 13.2304 10.0855 13.3185 9.99744L13.7427 10.4217C13.6479 10.5166 13.6339 10.5408 13.6298 10.5498C13.6294 10.5508 13.6208 10.5636 13.6208 10.6722H13.0208ZM13.6103 11.6204C13.4272 11.5322 13.2723 11.4107 13.1665 11.2395C13.0611 11.069 13.0208 10.8758 13.0208 10.6722H13.6208C13.6208 10.7969 13.6451 10.8726 13.6769 10.924C13.7083 10.9748 13.7632 11.0281 13.8706 11.0798L13.6103 11.6204ZM14.9755 11.1037C14.7478 11.6578 14.1448 11.8839 13.6078 11.6192L13.8731 11.081C14.1 11.1929 14.3255 11.1069 14.4206 10.8756L14.9755 11.1037ZM14.9515 10.2608C15.0168 10.3946 15.0652 10.5298 15.0686 10.6824C15.0719 10.8336 15.0303 10.9699 14.9757 11.1032L14.4204 10.8761C14.4627 10.7727 14.4694 10.7261 14.4687 10.6957C14.4681 10.6667 14.46 10.6217 14.4123 10.5241L14.9515 10.2608ZM13.9987 9.69975C14.4194 9.69975 14.7779 9.88182 14.9546 10.2675L14.4092 10.5175C14.3492 10.3867 14.2343 10.2998 13.9987 10.2998V9.69975ZM13.3154 10.0005C13.4048 9.90849 13.5002 9.81506 13.6249 9.75979C13.7541 9.7025 13.8837 9.69975 13.9987 9.69975V10.2998C13.8823 10.2998 13.8693 10.3078 13.8681 10.3083C13.8623 10.3109 13.8393 10.3223 13.7458 10.4186L13.3154 10.0005ZM4.02221 13.8942C3.91187 13.3977 4.23287 12.8712 4.71135 12.7246L4.88715 13.2982C4.69853 13.356 4.56762 13.5827 4.60792 13.764L4.02221 13.8942ZM5.06825 14.7102C4.81364 14.7102 4.5745 14.6512 4.38152 14.5026C4.18628 14.3522 4.0727 14.1367 4.02137 13.8903L4.60876 13.7679C4.63813 13.9089 4.69132 13.9839 4.74759 14.0272C4.80611 14.0723 4.90322 14.1102 5.06825 14.1102V14.7102ZM5.73767 14.4125C5.64964 14.5005 5.55591 14.591 5.43709 14.6461C5.3095 14.7052 5.18367 14.7102 5.06825 14.7102V14.1102C5.17339 14.1102 5.18475 14.1017 5.18493 14.1016C5.19389 14.0975 5.21851 14.0831 5.3134 13.9882L5.73767 14.4125ZM6.03535 13.7377C6.03535 13.855 6.03046 13.982 5.97176 14.1101C5.91667 14.2303 5.8257 14.3244 5.73767 14.4125L5.3134 13.9882C5.40829 13.8933 5.42223 13.8691 5.42632 13.8601C5.42679 13.8591 5.43535 13.8463 5.43535 13.7377H6.03535ZM5.46391 12.7958C5.64259 12.8834 5.79193 13.0068 5.89374 13.1765C5.99484 13.345 6.03535 13.5362 6.03535 13.7377H5.43535C5.43535 13.6163 5.41131 13.5386 5.37925 13.4852C5.34791 13.4329 5.2955 13.3815 5.19981 13.3346L5.46391 12.7958ZM4.71425 12.7237C4.83096 12.6892 4.95526 12.6552 5.09366 12.6692C5.22767 12.6827 5.34708 12.7387 5.46362 12.7957L5.2001 13.3347C5.07454 13.2733 5.04601 13.2674 5.03342 13.2662C5.02522 13.2653 5.00426 13.2636 4.88426 13.2991L4.71425 12.7237ZM7.88087 13.3046C7.8827 13.304 7.8756 13.3061 7.8594 13.3146C7.84431 13.3225 7.82616 13.3334 7.80668 13.3468C7.76553 13.375 7.73233 13.4047 7.71534 13.4241L7.2638 13.029C7.32213 12.9624 7.39653 12.9006 7.46701 12.8522C7.53466 12.8057 7.62245 12.7552 7.71158 12.729L7.88087 13.3046ZM8.15857 13.3071C8.0635 13.2648 8.0501 13.2663 8.04739 13.2662C8.03526 13.2658 8.00712 13.2681 7.87949 13.305L7.71296 12.7286C7.82742 12.6955 7.94454 12.6628 8.06556 12.6665C8.196 12.6704 8.30365 12.7149 8.40226 12.7588L8.15857 13.3071ZM8.04908 14.1102C8.27809 14.1102 8.40793 13.9674 8.43779 13.789C8.46821 13.6073 8.38933 13.4055 8.16273 13.3089L8.3981 12.757C8.90316 12.9723 9.10134 13.4592 9.02955 13.8881C8.95719 14.3203 8.60553 14.7102 8.04908 14.7102V14.1102ZM7.71963 13.4191C7.58711 13.5775 7.58258 13.7481 7.64296 13.8754C7.70364 14.0034 7.84069 14.1102 8.04908 14.1102V14.7102C7.61188 14.7102 7.26206 14.4726 7.10081 14.1325C6.93927 13.7918 6.97779 13.3706 7.25952 13.034L7.71963 13.4191ZM13.8513 13.3264C13.591 13.4475 13.5297 13.7999 13.7606 14.0113L13.3555 14.4539C12.8225 13.9659 12.9333 13.0917 13.5983 12.7824L13.8513 13.3264ZM14.4167 13.8782C14.5812 13.531 14.2273 13.1532 13.8504 13.3269L13.5992 12.782C14.4597 12.3854 15.3755 13.2557 14.9589 14.1351L14.4167 13.8782ZM14.0046 14.1102C14.2268 14.1102 14.3483 14.0239 14.4162 13.8792L14.9594 14.1341C14.7799 14.5166 14.4279 14.7102 14.0046 14.7102V14.1102ZM13.7627 14.0133C13.8385 14.084 13.8621 14.0952 13.8715 14.0989C13.8805 14.1025 13.9037 14.1102 14.0046 14.1102V14.7102C13.8902 14.7102 13.7709 14.7044 13.6507 14.6568C13.531 14.6094 13.439 14.5319 13.3533 14.4519L13.7627 14.0133Z" fill="url(#paint1_linear_1811_22605)" mask="url(#path-2-outside-1_1811_22605)"/>
<path d="M15.5895 15.1975C15.2043 15.4297 15.227 15.0049 15.227 22.1529C15.227 29.3463 15.1986 28.8422 15.6178 29.1197L15.8104 29.25H22.3014C28.3676 29.25 28.8037 29.2443 28.985 29.148C29.0926 29.0971 29.2342 28.9781 29.2965 28.8932C29.4154 28.7346 29.4154 28.7176 29.4154 22.1812C29.4154 15.8602 29.4098 15.6223 29.3078 15.4523C29.0756 15.0615 29.591 15.0898 22.324 15.0898C16.0086 15.0898 15.7594 15.0955 15.5895 15.1975ZM27.8578 22.1699V27.7207H22.307H16.7563V22.1699V16.6191H22.307H27.8578V22.1699Z" fill="#133769"/>
<path d="M0.964453 18.0906C0.777539 18.1756 0.698242 18.2549 0.613281 18.4418C0.511328 18.6627 0.5 18.8213 0.5 19.9937C0.5 20.7187 0.52832 21.5627 0.556641 21.8799C0.692578 23.1883 1.20234 24.3098 2.08594 25.25C2.86191 26.0713 3.63789 26.5357 4.83301 26.8869C5.19551 26.9945 5.41641 27.0059 7.48379 27.0228C8.71855 27.0398 9.73242 27.0682 9.73242 27.0852C9.73242 27.1078 9.51719 27.3457 9.25098 27.6062C8.70156 28.15 8.59961 28.3652 8.70723 28.6994C8.78652 28.926 9.0414 29.1752 9.25664 29.2262C9.33027 29.2432 9.48887 29.2432 9.60781 29.2205C9.7834 29.1865 9.99863 28.9996 11.0238 27.9857C11.6922 27.323 12.2699 26.717 12.3152 26.632C12.4115 26.4508 12.4172 26.2016 12.3379 25.9863C12.2699 25.8164 10.4461 23.9359 9.99863 23.5791C9.76641 23.3978 9.68144 23.3582 9.46621 23.3582C9.1207 23.3582 8.86582 23.5225 8.74687 23.817C8.58828 24.2191 8.66191 24.3891 9.23965 24.9838L9.75508 25.5105H7.78398C5.54668 25.5105 5.25215 25.4766 4.48184 25.1141C3.40566 24.61 2.64102 23.7547 2.26719 22.6389C2.12559 22.2084 2.11992 22.1404 2.08594 20.3846C2.05195 18.3228 2.04629 18.2832 1.61582 18.085C1.32129 17.9547 1.26465 17.9547 0.964453 18.0906Z" fill="#133769"/>
</g>
<defs>
<linearGradient id="paint0_linear_1811_22605" x1="-0.999999" y1="7.5" x2="14.6122" y2="13.6057" gradientUnits="userSpaceOnUse">
<stop stop-color="#F8B133"/>
<stop offset="1" stop-color="#D22635"/>
</linearGradient>
<linearGradient id="paint1_linear_1811_22605" x1="13.3893" y1="14.3839" x2="15.0079" y2="13.7998" gradientUnits="userSpaceOnUse">
<stop stop-color="#F5A533"/>
<stop offset="1" stop-color="#D83A35"/>
</linearGradient>
<clipPath id="clip0_1811_22605">
<rect width="29" height="29" fill="white" transform="translate(0.5 0.25)"/>
</clipPath>
</defs>
</svg>
