<svg width="73" height="74" viewBox="0 0 73 74" fill="none" xmlns="http://www.w3.org/2000/svg">
<path opacity="0.11" fill-rule="evenodd" clip-rule="evenodd" d="M29.417 11.641C35.8903 12.1676 40.9975 15.8572 46.5721 19.1896C53.4834 23.3211 62.5773 25.4423 65.225 33.0465C68.1947 41.5754 65.8188 51.4854 60.3088 58.6408C54.7813 65.8188 45.8213 69.8026 36.764 70.0062C28.4634 70.1928 20.822 65.7237 15.1546 59.6559C10.3052 54.4639 10.4493 47.0673 8.86932 40.1407C6.97341 31.8291 0.169961 22.7359 5.15566 15.8207C10.1448 8.90079 20.9141 10.9494 29.417 11.641Z" fill="#55A3F3"/>
<path d="M59.8538 42.5749C63.4941 29.6445 55.9628 16.2112 43.0322 12.5708C30.1016 8.93048 16.6682 16.4616 13.0279 29.392C9.38757 42.3225 16.9189 55.7558 29.8495 59.3961C42.7801 63.0365 56.2135 55.5054 59.8538 42.5749Z" fill="#55A3F3"/>
<path d="M53.3313 53.4922C63.9179 43.3441 64.9644 27.2562 55.6687 17.5589C46.3731 7.86163 30.2553 8.22709 19.6687 18.3752C9.08214 28.5233 8.03562 44.6112 17.3313 54.3085C26.6269 64.0058 42.7447 63.6404 53.3313 53.4922Z" stroke="#55A3F3" stroke-width="0.362809" stroke-miterlimit="10"/>
<g filter="url(#filter0_d_6055_24061)">
<path d="M25.1189 23.1177C24.7954 23.2635 24.4783 23.6187 24.3958 23.9295C24.2944 24.291 24.3007 31.1787 24.4022 31.5212C24.5037 31.8573 24.9159 32.2696 25.2521 32.371C25.5945 32.4725 32.4822 32.4789 32.8438 32.3774C33.3638 32.2378 33.7697 31.6734 33.7761 31.0962C33.7761 30.6459 33.6365 30.3922 33.0784 29.8151L32.5647 29.295L33.0023 29.0984C34.0742 28.6228 35.0762 28.4198 36.3764 28.4198C37.8224 28.4261 38.8879 28.6798 40.15 29.3267C42.4967 30.5318 44.1203 32.8213 44.5389 35.5231C44.8877 37.7873 43.9491 40.4257 42.1732 42.1889C39.3256 45.0175 34.924 45.4234 31.626 43.1656C30.0849 42.1128 29.0384 40.7111 28.3915 38.8402C28.2519 38.4342 28.0934 38.0093 28.03 37.8952C27.846 37.5336 27.2752 37.0199 26.8186 36.8043C26.4127 36.614 26.3429 36.6013 25.6833 36.6013C25.0047 36.6013 24.973 36.6077 24.5037 36.8423C23.4889 37.337 22.9308 38.3201 23.0069 39.449C23.0767 40.3813 23.9709 42.5504 24.8144 43.8125C25.9307 45.4742 27.2055 46.749 28.8291 47.8081C30.4147 48.8419 32.0573 49.4888 34.0932 49.8694C34.9494 50.0279 37.6639 50.0279 38.5328 49.8694C41.4248 49.3366 43.7778 48.1506 45.7566 46.2416C48.617 43.4827 50.1138 39.8993 49.9933 36.094C49.8854 32.7072 48.5726 29.6121 46.1752 27.1323C45.0907 26.0034 43.8349 25.0838 42.4333 24.3925C41.0443 23.7075 39.63 23.2826 38.0888 23.0923C36.8584 22.9337 35.0192 22.9845 33.8331 23.2128C32.2286 23.5172 30.421 24.2149 29.0828 25.0457L28.6135 25.3438L27.5289 24.2656C26.8693 23.606 26.3556 23.1557 26.2161 23.0923C25.899 22.9654 25.4296 22.9718 25.1189 23.1177Z" fill="white"/>
</g>
<defs>
<filter id="filter0_d_6055_24061" x="23" y="23" width="28.0795" height="26.9883" filterUnits="userSpaceOnUse" color-interpolation-filters="sRGB">
<feFlood flood-opacity="0" result="BackgroundImageFix"/>
<feColorMatrix in="SourceAlpha" type="matrix" values="0 0 0 0 0 0 0 0 0 0 0 0 0 0 0 0 0 0 127 0" result="hardAlpha"/>
<feOffset dx="1.07948"/>
<feComposite in2="hardAlpha" operator="out"/>
<feColorMatrix type="matrix" values="0 0 0 0 0 0 0 0 0 0 0 0 0 0 0 0 0 0 0.25 0"/>
<feBlend mode="normal" in2="BackgroundImageFix" result="effect1_dropShadow_6055_24061"/>
<feBlend mode="normal" in="SourceGraphic" in2="effect1_dropShadow_6055_24061" result="shape"/>
</filter>
</defs>
</svg>
