<svg width="16" height="20" viewBox="0 0 16 20" fill="none" xmlns="http://www.w3.org/2000/svg">
<path d="M14.923 4.82539L10.2996 0.201953C10.1707 0.0730469 9.99668 0 9.81406 0H0.6875C0.307227 0 0 0.307227 0 0.6875V18.5625C0 18.9428 0.307227 19.25 0.6875 19.25H14.4375C14.8178 19.25 15.125 18.9428 15.125 18.5625V5.31309C15.125 5.13047 15.052 4.9543 14.923 4.82539ZM13.5395 5.62891H9.49609V1.58555L13.5395 5.62891ZM13.5781 17.7031H1.54688V9.625V1.54688H8.03516V6.1875C8.03516 6.42682 8.13022 6.65633 8.29945 6.82555C8.46867 6.99478 8.69818 7.08984 8.9375 7.08984H13.5781V17.7031Z" fill="#133769"/>
<mask id="path-2-inside-1_474_395" fill="var(--t-accessibility-gradient)">
<path d="M2.61595 12.6245L3.87374 13.5018C3.14651 14.6744 3.91099 14.4258 4.38414 14.1549L5.02078 15.5685C5.16858 16.1037 5.40443 15.4715 5.50388 15.0885L5.26034 13.3791L7.21229 11.6171L8.61033 15.2363C9.08836 16.1142 9.2256 15.2027 9.23446 14.6372L8.86412 9.90365L10.4274 8.34321C10.8653 6.8801 9.94337 6.94731 9.42769 7.1638L7.94989 8.63401L3.71623 7.70941C3.19281 7.78511 3.09707 8.20394 3.11463 8.40389L6.40014 10.4781L4.61489 12.7196L3.23113 12.2136C2.8061 12.0425 2.64392 12.4162 2.61595 12.6245Z"/>
</mask>
<path d="M2.61595 12.6245L3.87374 13.5018C3.14651 14.6744 3.91099 14.4258 4.38414 14.1549L5.02078 15.5685C5.16858 16.1037 5.40443 15.4715 5.50388 15.0885L5.26034 13.3791L7.21229 11.6171L8.61033 15.2363C9.08836 16.1142 9.2256 15.2027 9.23446 14.6372L8.86412 9.90365L10.4274 8.34321C10.8653 6.8801 9.94337 6.94731 9.42769 7.1638L7.94989 8.63401L3.71623 7.70941C3.19281 7.78511 3.09707 8.20394 3.11463 8.40389L6.40014 10.4781L4.61489 12.7196L3.23113 12.2136C2.8061 12.0425 2.64392 12.4162 2.61595 12.6245Z" fill="#F5F5F5"/>
<path d="M3.87374 13.5018L8.9728 16.664L11.9689 11.8328L7.30621 8.58058L3.87374 13.5018ZM2.61595 12.6245L-3.33069 11.8261L-3.81755 15.4525L-0.816507 17.5457L2.61595 12.6245ZM3.23113 12.2136L0.990109 17.7794L1.07975 17.8155L1.17051 17.8487L3.23113 12.2136ZM4.61489 12.7196L2.55427 18.3547L6.61476 19.8395L9.30825 16.4576L4.61489 12.7196ZM6.40014 10.4781L11.0935 14.216L15.2647 8.97872L9.60313 5.40452L6.40014 10.4781ZM3.11463 8.40389L-2.86237 8.92873L-2.60231 11.8903L-0.0883531 13.4774L3.11463 8.40389ZM3.71623 7.70941L4.99641 1.84757L3.93386 1.61552L2.85746 1.77119L3.71623 7.70941ZM7.94989 8.63401L6.66971 14.4958L9.86382 15.1934L12.1816 12.8876L7.94989 8.63401ZM9.42769 7.1638L7.10513 1.63156L6.02584 2.08467L5.196 2.91024L9.42769 7.1638ZM10.4274 8.34321L14.6662 12.5897L15.7404 11.5175L16.1756 10.0633L10.4274 8.34321ZM8.86412 9.90365L4.62538 5.65711L2.66652 7.61238L2.8824 10.3717L8.86412 9.90365ZM9.23446 14.6372L15.2337 14.7312L15.2381 14.4498L15.2162 14.1692L9.23446 14.6372ZM8.61033 15.2363L3.01339 17.3983L3.15411 17.7626L3.34088 18.1056L8.61033 15.2363ZM7.21229 11.6171L12.8092 9.4551L9.66632 1.31878L3.19185 7.16333L7.21229 11.6171ZM5.26034 13.3791L1.2399 8.92537L-1.13 11.0647L-0.679671 14.2254L5.26034 13.3791ZM5.50388 15.0885L11.3113 16.5963L11.6135 15.4325L11.4439 14.2422L5.50388 15.0885ZM5.02078 15.5685L10.8043 13.9714L10.6813 13.526L10.4916 13.1047L5.02078 15.5685ZM4.38414 14.1549L9.85494 11.6911L7.14012 5.66288L1.40277 8.948L4.38414 14.1549ZM7.30621 8.58058L6.04842 7.70329L-0.816507 17.5457L0.441283 18.423L7.30621 8.58058ZM8.5626 13.4229C8.47758 14.0561 8.18847 15.3374 7.03697 16.4996C6.36286 17.18 5.36552 17.8283 4.07193 18.0723C2.79887 18.3125 1.71599 18.0717 0.990109 17.7794L5.47216 6.64784C4.53375 6.27 3.27121 6.01171 1.84733 6.28033C0.40292 6.55282 -0.716408 7.27542 -1.48769 8.05392C-2.83353 9.41234 -3.21771 10.9846 -3.33069 11.8261L8.5626 13.4229ZM1.17051 17.8487L2.55427 18.3547L6.67551 7.08457L5.29175 6.57856L1.17051 17.8487ZM9.30825 16.4576L11.0935 14.216L1.70678 6.74011L-0.0784756 8.98166L9.30825 16.4576ZM9.60313 5.40452L6.31762 3.33034L-0.0883531 13.4774L3.19716 15.5516L9.60313 5.40452ZM9.09163 7.87906C9.17792 8.86174 9.01125 10.0554 8.29743 11.195C7.42538 12.5873 6.01396 13.4395 4.57501 13.6476L2.85746 1.77119C0.895088 2.05498 -0.825916 3.15451 -1.8723 4.82506C-2.76045 6.24301 -2.96622 7.74609 -2.86237 8.92873L9.09163 7.87906ZM2.43605 13.5712L6.66971 14.4958L9.23007 2.77217L4.99641 1.84757L2.43605 13.5712ZM12.1816 12.8876L13.6594 11.4174L5.196 2.91024L3.7182 4.38045L12.1816 12.8876ZM11.7503 12.696C11.4461 12.8237 10.9968 12.9725 10.4085 13.0262C9.8861 13.0738 8.63598 13.1016 7.27961 12.3166C5.65435 11.376 4.83451 9.83443 4.61126 8.5046C4.43027 7.42649 4.65918 6.69031 4.6793 6.62307L16.1756 10.0633C16.4146 9.26455 16.6925 7.9881 16.4457 6.51786C16.1566 4.7959 15.1561 3.01037 13.2907 1.93069C11.6941 1.00664 10.1442 1.00039 9.3176 1.07584C8.42507 1.15732 7.66713 1.39562 7.10513 1.63156L11.7503 12.696ZM6.18871 4.09666L4.62538 5.65711L13.1029 14.1502L14.6662 12.5897L6.18871 4.09666ZM2.8824 10.3717L3.25274 15.1052L15.2162 14.1692L14.8458 9.43566L2.8824 10.3717ZM3.2352 14.5432C3.23597 14.4938 3.23881 14.398 3.26058 14.2453C3.26144 14.2394 3.33401 13.5839 3.74042 12.7775C3.93612 12.3893 4.50613 11.356 5.74762 10.5497C7.31285 9.53317 9.2485 9.33208 10.9583 9.95365C12.3123 10.4459 13.0798 11.2886 13.3368 11.5895C13.6541 11.961 13.8264 12.2691 13.8798 12.367L3.34088 18.1056C3.51372 18.423 3.79497 18.8946 4.21125 19.3821C4.56729 19.799 5.42403 20.7101 6.85828 21.2315C8.64828 21.8823 10.6552 21.6711 12.2835 20.6136C13.588 19.7664 14.213 18.6612 14.4563 18.1785C14.9578 17.1834 15.0963 16.2488 15.1403 15.9403C15.2052 15.4852 15.2285 15.0633 15.2337 14.7312L3.2352 14.5432ZM14.2073 13.0743L12.8092 9.4551L1.61535 13.7791L3.01339 17.3983L14.2073 13.0743ZM3.19185 7.16333L1.2399 8.92537L9.28079 17.8329L11.2327 16.0709L3.19185 7.16333ZM-0.679671 14.2254L-0.436135 15.9348L11.4439 14.2422L11.2004 12.5328L-0.679671 14.2254ZM-0.303556 13.5806C-0.289107 13.5249 -0.266804 13.446 -0.226224 13.3353C-0.213426 13.3004 -0.0758156 12.9066 0.241469 12.4157C0.384457 12.1945 0.794135 11.5855 1.5387 11.009C2.30903 10.4124 4.09414 9.38642 6.46259 9.91969C8.67259 10.4173 9.78839 11.9314 10.1647 12.5321C10.5815 13.1975 10.7497 13.7738 10.8043 13.9714L-0.762751 17.1656C-0.671228 17.497 -0.463257 18.1706 -0.00487266 18.9024C0.412971 19.5694 1.57223 21.119 3.82668 21.6266C6.23957 22.1699 8.07013 21.1285 8.88603 20.4967C9.67616 19.8848 10.1315 19.2206 10.3195 18.9299C10.979 17.9096 11.2526 16.8225 11.3113 16.5963L-0.303556 13.5806ZM10.4916 13.1047L9.85494 11.6911L-1.08666 16.6187L-0.450022 18.0323L10.4916 13.1047ZM1.40277 8.948C1.50147 8.89148 1.72556 8.76876 2.07269 8.65084C2.24697 8.59164 2.5883 8.48667 3.04729 8.42683C3.44433 8.37506 4.37154 8.29477 5.49302 8.65052C6.81439 9.06969 8.24232 10.0649 9.03335 11.7694C9.71779 13.2442 9.59473 14.5536 9.49633 15.1361C9.39017 15.7645 9.20199 16.2017 9.12791 16.3643C9.0813 16.4667 9.0418 16.5419 9.01731 16.5867C8.99233 16.6323 8.97606 16.6587 8.9728 16.664L-1.22531 10.3396C-1.48551 10.7591 -2.10864 11.7912 -2.33602 13.1372C-2.45763 13.8571 -2.57121 15.2703 -1.85157 16.821C-1.02533 18.6013 0.463518 19.6444 1.86457 20.0888C3.06573 20.4698 4.09138 20.3923 4.59865 20.3261C5.16787 20.2519 5.63121 20.1155 5.93234 20.0132C6.53315 19.8091 7.03023 19.5537 7.36551 19.3617L1.40277 8.948Z" fill="url(#paint0_linear_474_395)" mask="url(#path-2-inside-1_474_395)"/>
<defs>
<linearGradient id="paint0_linear_474_395" x1="2.82003" y1="10.9649" x2="10.182" y2="11.3153" gradientUnits="userSpaceOnUse">
<stop offset="0.313074" stop-color="#FD8121"/>
<stop offset="1" stop-color="#EB0029"/>
</linearGradient>
</defs>
</svg>
