<svg width="26" height="27" viewBox="0 0 26 27" fill="none" xmlns="http://www.w3.org/2000/svg">
<path fill-rule="evenodd" clip-rule="evenodd" d="M20.6921 20.4803L25.5001 22.4034V20.4803L20.6921 18.0764V15.6725C20.6921 15.4175 20.5908 15.1729 20.4105 14.9926C20.2302 14.8122 19.9856 14.7109 19.7305 14.7109C19.4755 14.7109 19.2309 14.8122 19.0506 14.9926C18.8703 15.1729 18.7689 15.4175 18.7689 15.6725V18.0764L13.9609 20.4803V22.4034L18.7689 20.4803V23.8457L16.8457 25.288V26.2496L19.7305 25.288L22.6153 26.2496V25.288L20.6921 23.8457V20.4803Z" fill="url(#paint0_linear_1811_22597)"/>
<path fill-rule="evenodd" clip-rule="evenodd" d="M21.6552 2.21217H17.8088V0.289062H15.8856V2.21217H8.19281V0.289062H6.26961V2.21217H2.4232C1.91314 2.21217 1.42396 2.41479 1.06329 2.77544C0.702622 3.13609 0.5 3.62524 0.5 4.13528V23.3664C0.5 23.8764 0.702622 24.3656 1.06329 24.7262C1.42396 25.0869 1.91314 25.2895 2.4232 25.2895H12.0392V23.3664H2.4232V4.13528H6.26961V6.05839H8.19281V4.13528H15.8856V6.05839H17.8088V4.13528H21.6552V10.8662H23.5784V4.13528C23.5784 3.62524 23.3758 3.13609 23.0151 2.77544C22.6545 2.41479 22.1653 2.21217 21.6552 2.21217Z" fill="#133769"/>
<defs>
<linearGradient id="paint0_linear_1811_22597" x1="13.9568" y1="17.5903" x2="26.6717" y2="20.5074" gradientUnits="userSpaceOnUse">
<stop stop-color="#F8B133"/>
<stop offset="1" stop-color="#D22635"/>
</linearGradient>
</defs>
</svg>
