<svg width="30" height="20" viewBox="0 0 30 20" fill="none" xmlns="http://www.w3.org/2000/svg">
<path d="M13.9674 0.024292C9.07167 0.37608 4.67431 3.07312 2.13557 7.28286C0.153833 10.5721 -0.479386 14.5004 0.364906 18.2704C0.599431 19.2964 0.751873 19.7244 0.945356 19.8652L1.10952 19.9883H14.9993H28.8891L29.0532 19.8652C29.2467 19.7244 29.3992 19.2964 29.6337 18.2704C30.7536 13.275 29.2702 8.10956 25.6702 4.47441C22.897 1.67183 19.3967 0.141554 15.439 0.00670242C14.9876 -0.0108871 14.325 0.000839233 13.9674 0.024292ZM14.3544 2.14675C14.3544 3.14935 14.4071 3.42491 14.6299 3.60081C14.9641 3.86465 15.4684 3.68289 15.5856 3.26074C15.6149 3.14348 15.6442 2.63925 15.6442 2.14675V1.25555L15.9843 1.29073C17.3797 1.42558 18.6931 1.70701 19.6722 2.07053C20.3172 2.31091 21.3022 2.76824 21.2905 2.82101C21.2846 2.85032 21.0677 3.23729 20.8097 3.68875C20.2585 4.63858 20.2175 4.83793 20.5048 5.13109C20.6455 5.26594 20.7276 5.30112 20.9387 5.30112C21.2905 5.30112 21.3901 5.19558 21.9354 4.22816C22.34 3.51872 22.4044 3.43077 22.5041 3.48354C23.0201 3.75911 24.3569 4.90242 25.0839 5.68222C25.8051 6.45616 26.6376 7.58774 26.5204 7.62878C26.4911 7.64051 26.1041 7.85745 25.6702 8.10956C24.7614 8.63724 24.609 8.81314 24.7028 9.2001C24.738 9.32909 24.8318 9.47567 24.9256 9.54603C25.2129 9.7571 25.4122 9.70433 26.3152 9.18252C26.7725 8.91867 27.1712 8.70174 27.1946 8.70174C27.306 8.70174 27.9099 10.2027 28.1972 11.1818C28.4552 12.0613 28.7191 13.5975 28.7191 14.2248V14.389H27.6989C26.6845 14.389 26.6728 14.389 26.4969 14.5414C26.2741 14.729 26.2096 15.0105 26.3386 15.2626C26.5028 15.5792 26.667 15.6202 27.7516 15.6202H28.7249L28.6897 16.0717C28.6311 16.7636 28.5021 17.6137 28.3614 18.2L28.2383 18.7277H14.9993H1.76033L1.63721 18.2C1.49649 17.6137 1.3675 16.7636 1.30887 16.0717L1.27369 15.6202H2.24697C3.33165 15.6202 3.49582 15.5792 3.65999 15.2626C3.78898 15.0105 3.72448 14.729 3.50169 14.5414C3.32579 14.389 3.31406 14.389 2.29974 14.389H1.27956V14.2248C1.27956 13.5975 1.5434 12.0613 1.80137 11.1818C2.08867 10.2027 2.69257 8.70174 2.80397 8.70174C2.82742 8.70174 3.22612 8.91867 3.68344 9.18252C4.58637 9.70433 4.78571 9.7571 5.07301 9.54603C5.16682 9.47567 5.26063 9.32909 5.29581 9.2001C5.38962 8.81314 5.23717 8.63724 4.32839 8.10956C3.89452 7.85745 3.51341 7.64051 3.47823 7.62878C3.36097 7.58774 4.19354 6.45616 4.9147 5.68222C5.64173 4.90242 6.97853 3.75911 7.49448 3.48354C7.59416 3.43077 7.65865 3.51872 8.06321 4.22816C8.60848 5.19558 8.70815 5.30112 9.05994 5.30112C9.41173 5.30112 9.66385 5.06659 9.66385 4.73239C9.66385 4.52718 9.33551 3.88224 8.77851 2.97931L8.66711 2.79169L9.05994 2.60407C10.6664 1.84187 12.355 1.40799 14.2547 1.26141C14.3426 1.25555 14.3544 1.33177 14.3544 2.14675Z" fill="#133769"/>
<path d="M21.7044 7.54719C21.5461 7.58237 19.2653 9.55825 14.9383 13.3869C13.8419 14.3602 13.7305 14.5243 13.7716 15.1048C13.8361 15.9901 14.8093 16.5237 15.5716 16.0957C15.7474 15.996 16.709 14.9406 18.937 12.4077C22.5956 8.24491 22.4256 8.43839 22.4725 8.2625C22.5252 8.05729 22.4549 7.84035 22.2849 7.68205C22.1148 7.52374 21.9448 7.4827 21.7044 7.54719Z" fill="url(#paint0_linear_3729_22717)"/>
<defs>
<linearGradient id="paint0_linear_3729_22717" x1="24.0105" y1="6.08889" x2="12.4235" y2="17.8298" gradientUnits="userSpaceOnUse">
<stop stop-color="#D53135"/>
<stop offset="1" stop-color="#EE8C33"/>
</linearGradient>
</defs>
</svg>
