<svg width="20" height="24" viewBox="0 0 20 24" fill="none" xmlns="http://www.w3.org/2000/svg">
<path d="M14.002 2.49902H4.00195C1.79281 2.49902 0.00195312 4.28988 0.00195312 6.49902V17.499C0.00195312 19.7082 1.79281 21.499 4.00195 21.499H14.002C16.2111 21.499 18.002 19.7082 18.002 17.499V6.49902C18.002 4.28988 16.2111 2.49902 14.002 2.49902Z" fill="white"/>
<path d="M14.002 2.99902H4.00195C2.06896 2.99902 0.501953 4.56603 0.501953 6.49902V17.499C0.501953 19.432 2.06896 20.999 4.00195 20.999H14.002C15.9349 20.999 17.502 19.432 17.502 17.499V6.49902C17.502 4.56603 15.9349 2.99902 14.002 2.99902Z" stroke="#094394"/>
<path d="M8.41648 0.2735C6.81762 0.2735 5.52148 1.56941 5.52148 3.168C5.52148 4.76659 6.81762 6.0625 8.41648 6.0625L17.0995 6.0625C18.6983 6.0625 19.9945 4.76659 19.9945 3.168C19.9945 1.56941 18.6983 0.2735 17.0995 0.2735L8.41648 0.2735Z" fill="white"/>
<path d="M8.41648 0.7735C7.09376 0.7735 6.02148 1.84555 6.02148 3.168C6.02148 4.49045 7.09376 5.5625 8.41648 5.5625L17.0995 5.5625C18.4222 5.5625 19.4945 4.49045 19.4945 3.168C19.4945 1.84555 18.4222 0.7735 17.0995 0.7735L8.41648 0.7735Z" stroke="#094394"/>
<path d="M7.7407 17.8331C6.14184 17.8331 4.8457 19.129 4.8457 20.7276C4.8457 22.3262 6.14184 23.6221 7.7407 23.6221H16.4237C18.0226 23.6221 19.3187 22.3262 19.3187 20.7276C19.3187 19.129 18.0226 17.8331 16.4237 17.8331H7.7407Z" fill="white"/>
<path d="M7.7407 18.3331C6.41798 18.3331 5.3457 19.4051 5.3457 20.7276C5.3457 22.05 6.41798 23.1221 7.7407 23.1221H16.4237C17.7464 23.1221 18.8187 22.05 18.8187 20.7276C18.8187 19.4051 17.7464 18.3331 16.4237 18.3331H7.7407Z" stroke="#094394"/>
<path d="M20.002 5.99902C20.002 4.61831 18.8827 3.49902 17.502 3.49902C16.1212 3.49902 15.002 4.61831 15.002 5.99902V16.999C15.002 18.3797 16.1212 19.499 17.502 19.499C18.8827 19.499 20.002 18.3797 20.002 16.999V5.99902Z" fill="white"/>
<path d="M19.502 5.99902C19.502 4.89445 18.6065 3.99902 17.502 3.99902C16.3974 3.99902 15.502 4.89445 15.502 5.99902V16.999C15.502 18.1036 16.3974 18.999 17.502 18.999C18.6065 18.999 19.502 18.1036 19.502 16.999V5.99902Z" stroke="#094394"/>
</svg>
