<svg width="19" height="21" viewBox="0 0 19 21" fill="none" xmlns="http://www.w3.org/2000/svg">
<path d="M15.3605 5.20039L10.7371 0.576953C10.6082 0.448047 10.4342 0.375 10.2516 0.375H1.125C0.744727 0.375 0.4375 0.682227 0.4375 1.0625V18.9375C0.4375 19.3178 0.744727 19.625 1.125 19.625H14.875C15.2553 19.625 15.5625 19.3178 15.5625 18.9375V5.68809C15.5625 5.50547 15.4895 5.3293 15.3605 5.20039ZM13.977 6.00391H9.93359V1.96055L13.977 6.00391ZM14.0156 18.0781H1.98438V10V1.92188H8.47266V6.5625C8.47266 6.80182 8.56772 7.03133 8.73695 7.20055C8.90617 7.36978 9.13568 7.46484 9.375 7.46484H14.0156V18.0781ZM7.82812 12.2773H3.875C3.78047 12.2773 3.70312 12.3547 3.70312 12.4492V13.4805C3.70312 13.575 3.78047 13.6523 3.875 13.6523H7.82812C7.92266 13.6523 8 13.575 8 13.4805V12.4492C8 12.3547 7.92266 12.2773 7.82812 12.2773ZM3.70312 9.52734V10.5586C3.70312 10.6531 3.78047 10.7305 3.875 10.7305H12.125C12.2195 10.7305 12.2969 10.6531 12.2969 10.5586V9.52734C12.2969 9.43281 12.2195 9.35547 12.125 9.35547H3.875C3.78047 9.35547 3.70312 9.43281 3.70312 9.52734Z" fill="#133769"/>
<ellipse cx="11.5" cy="15.5" rx="5.5" ry="4.5" fill="white"/>
<path d="M17.494 16.0417L17.4938 16.0421C16.8128 17.4774 15.9736 18.523 14.9902 19.2105C14.011 19.8949 12.86 20.2446 11.5159 20.2446C10.1726 20.2446 9.02161 19.8949 8.04216 19.2106C7.05858 18.5234 6.21917 17.4782 5.53824 16.044C5.51306 15.9905 5.5 15.9321 5.5 15.873C5.5 15.8139 5.51306 15.7555 5.53826 15.702C6.21925 14.267 7.05833 13.2214 8.04168 12.5341C9.02088 11.8496 10.1718 11.5 11.5159 11.5C12.8592 11.5 14.0102 11.8496 14.9897 12.534C15.973 13.221 16.8122 14.2657 17.493 15.6993C17.5456 15.8128 17.5437 15.937 17.494 16.0417ZM5.64503 15.6546L5.53971 15.8723L5.64503 16.09C6.29359 17.4307 7.09527 18.4562 8.08207 19.1454C9.07401 19.8382 10.2207 20.1685 11.5159 20.1685C12.8118 20.1685 13.9589 19.8382 14.9509 19.1454C15.9378 18.4562 16.7391 17.4306 17.3869 16.0898L17.4921 15.8722L17.3868 15.6546C16.7383 14.3138 15.9366 13.2884 14.9498 12.5991C13.9578 11.9064 12.8111 11.5761 11.5159 11.5761C10.2207 11.5761 9.07401 11.9064 8.08207 12.5991C7.09527 13.2884 6.29359 14.3138 5.64503 15.6546Z" fill="#F5F5F5" stroke="url(#paint0_linear_474_403)"/>
<circle cx="11.5" cy="15.5" r="2" fill="#F5F5F5" stroke="url(#paint1_linear_474_403)"/>
<defs>
<linearGradient id="paint0_linear_474_403" x1="5.21191" y1="15.6333" x2="17.7119" y2="15.6333" gradientUnits="userSpaceOnUse">
<stop offset="0.313074" stop-color="#FD8121"/>
<stop offset="1" stop-color="#EB0029"/>
</linearGradient>
<linearGradient id="paint1_linear_474_403" x1="9.08131" y1="15.3774" x2="13.8772" y2="15.3774" gradientUnits="userSpaceOnUse">
<stop offset="0.313074" stop-color="#FD8121"/>
<stop offset="1" stop-color="#EB0029"/>
</linearGradient>
</defs>
</svg>
