<svg width="26" height="25" viewBox="0 0 26 25" fill="none" xmlns="http://www.w3.org/2000/svg">
<g clip-path="url(#clip0_7407_28866)">
<path d="M16.3259 11.491L6.04688 9.677V23.0803C6.04688 23.6924 6.54309 24.1886 7.1552 24.1886H24.892C25.5042 24.1886 26.0004 23.6924 26.0004 23.0803V18.1421L16.3259 11.491Z" fill="#185C37"/>
<path d="M16.3259 0H7.1552C6.54309 0 6.04688 0.496211 6.04688 1.10832V6.04651L16.3259 12.093L21.7678 13.907L26.0004 12.093V6.04651L16.3259 0Z" fill="#21A366"/>
<path d="M6.04688 6.04614H16.3259V12.0927H6.04688V6.04614Z" fill="#107C41"/>
<path opacity="0.1" d="M13.4037 4.8385H6.04688V19.9548H13.4037C14.015 19.9528 14.51 19.4577 14.512 18.8465V5.94682C14.51 5.33554 14.015 4.84049 13.4037 4.8385Z" fill="black"/>
<path opacity="0.2" d="M12.799 5.44153H6.04688V20.5578H12.799C13.4103 20.5558 13.9054 20.0608 13.9073 19.4495V6.54985C13.9054 5.93857 13.4103 5.44352 12.799 5.44153Z" fill="black"/>
<path opacity="0.2" d="M12.799 5.44153H6.04688V19.3485H12.799C13.4103 19.3465 13.9054 18.8515 13.9073 18.2402V6.54985C13.9054 5.93857 13.4103 5.44352 12.799 5.44153Z" fill="black"/>
<path opacity="0.2" d="M12.1944 5.44153H6.04688V19.3485H12.1944C12.8056 19.3465 13.3007 18.8515 13.3027 18.2402V6.54985C13.3007 5.93857 12.8056 5.44352 12.1944 5.44153Z" fill="black"/>
<path d="M1.10832 5.44153H12.194C12.8061 5.44153 13.3023 5.93774 13.3023 6.54985V17.6355C13.3023 18.2476 12.8061 18.7438 12.194 18.7438H1.10832C0.496211 18.7439 0 18.2476 0 17.6355V6.54985C0 5.93774 0.496211 5.44153 1.10832 5.44153Z" fill="url(#paint0_linear_7407_28866)"/>
<path d="M3.43164 15.694L5.76318 12.0812L3.62695 8.4884H5.34536L6.51113 10.7861C6.61876 11.0044 6.69252 11.1664 6.73243 11.2734H6.74755C6.82414 11.0993 6.90476 10.9302 6.98941 10.7661L8.23559 8.48962H9.81312L7.62247 12.0613L9.86876 15.694H8.19025L6.84369 13.172C6.78026 13.0647 6.72644 12.952 6.68286 12.8352H6.66291C6.62346 12.9497 6.57113 13.0592 6.5069 13.1618L5.12044 15.694H3.43164Z" fill="white"/>
<path d="M24.8907 0H16.3246V6.04651H25.999V1.10832C25.999 0.496211 25.5028 0 24.8907 0Z" fill="#33C481"/>
<path d="M16.3246 12.0939H25.999V18.1404H16.3246V12.0939Z" fill="#107C41"/>
</g>
<defs>
<linearGradient id="paint0_linear_7407_28866" x1="2.31088" y1="4.57551" x2="10.9914" y2="19.6099" gradientUnits="userSpaceOnUse">
<stop stop-color="#18884F"/>
<stop offset="0.5" stop-color="#117E43"/>
<stop offset="1" stop-color="#0B6631"/>
</linearGradient>
<clipPath id="clip0_7407_28866">
<rect width="26" height="24.186" fill="white"/>
</clipPath>
</defs>
</svg>
