<svg width="70" height="70" viewBox="0 0 70 70" fill="none" xmlns="http://www.w3.org/2000/svg">
<circle cx="35" cy="35" r="34.5" fill="white" stroke="#CBCBCB"/>
<path d="M46.2495 30.3673C52.3818 27.8813 55.6966 25.0637 55.7795 20.5888C55.7795 19.6773 55.6137 18.6828 55.2823 17.6055C55.1994 19.0143 53.2934 20.7545 50.6416 22.4948C47.3268 24.6494 42.6033 27.384 39.3714 29.1243C34.1507 32.0247 32.9905 35.0908 32.5762 37.1626C33.8192 35.7538 40.9459 32.5219 46.2495 30.3673ZM55.0336 18.9314L55.2823 19.18C55.2823 19.2629 55.2823 19.3458 55.2823 19.3458L54.9508 19.0972C54.9508 19.0143 55.0336 18.9314 55.0336 18.9314ZM54.6193 19.5115L55.1994 20.0916C55.1994 20.1745 55.1994 20.1745 55.1165 20.2573L54.5364 19.6772C54.5364 19.5944 54.6193 19.5944 54.6193 19.5115ZM54.1221 20.0916L54.8679 20.8374C54.8679 20.9203 54.8679 20.9203 54.785 21.0032L53.9564 20.1745C54.0392 20.0916 54.1221 20.0916 54.1221 20.0916ZM53.6249 20.5888L54.5364 21.5004C54.5364 21.5832 54.4536 21.5832 54.4536 21.6661L53.4591 20.6717C53.542 20.5888 53.6249 20.5888 53.6249 20.5888ZM53.1277 21.0032L54.205 22.0804L54.1221 22.1633L53.0448 21.086C53.0448 21.086 53.0448 21.086 53.1277 21.0032ZM52.5476 21.5004L53.7077 22.6605L53.6249 22.7434L52.3818 21.5832C52.4647 21.5832 52.4647 21.5004 52.5476 21.5004ZM51.9675 21.9147L53.2934 23.2406L53.2105 23.3235L51.8846 21.9976C51.8846 21.9976 51.8846 21.9147 51.9675 21.9147ZM51.3874 22.3291L52.7962 23.7378L52.7133 23.8207L51.2217 22.4119C51.3045 22.4119 51.3045 22.4119 51.3874 22.3291ZM50.7245 22.7434L52.2161 24.235L52.1332 24.3179L50.6416 22.8263L50.7245 22.7434ZM50.1444 23.1577L51.636 24.7322L51.5532 24.8151L49.9786 23.2406C50.0615 23.2406 50.1444 23.1577 50.1444 23.1577ZM49.5643 23.5721L51.1388 25.1466L51.0559 25.2295L49.4814 23.655C49.4814 23.5721 49.4814 23.5721 49.5643 23.5721ZM48.9013 23.9036L50.4759 25.5609L50.393 25.6438L48.7356 23.9864C48.8185 23.9864 48.8185 23.9864 48.9013 23.9036ZM48.2384 24.3179L49.8958 25.9753C49.8958 25.9753 49.8129 26.0581 49.73 26.0581L48.0727 24.4008C48.1555 24.3179 48.2384 24.3179 48.2384 24.3179ZM47.6583 24.7322L49.3157 26.3896L49.15 26.4725L47.4926 24.8151C47.5754 24.7322 47.5754 24.7322 47.6583 24.7322ZM46.9954 25.0637L48.6527 26.7211C48.5699 26.7211 48.5699 26.804 48.487 26.804L46.8296 25.1466C46.9125 25.1466 46.9954 25.0637 46.9954 25.0637ZM46.4153 25.4781L48.0727 27.1354C47.9898 27.1354 47.9898 27.2183 47.9069 27.2183L46.2495 25.5609C46.3324 25.4781 46.3324 25.4781 46.4153 25.4781ZM45.7523 25.8095L47.4097 27.4669C47.3268 27.4669 47.3268 27.5498 47.244 27.5498L45.5866 25.8924C45.6695 25.8924 45.6695 25.8095 45.7523 25.8095ZM45.0894 26.2239L46.6639 27.8813C46.581 27.8813 46.581 27.9641 46.4981 27.9641L44.9236 26.3068C45.0065 26.2239 45.0894 26.2239 45.0894 26.2239ZM44.5093 26.5554L46.0838 28.1299C46.0009 28.1299 46.0009 28.2127 45.9181 28.2127L44.3436 26.6382C44.3436 26.6382 44.4264 26.5554 44.5093 26.5554ZM43.8463 26.9697L45.4209 28.5442C45.338 28.5442 45.338 28.6271 45.2551 28.6271L43.6806 27.0526C43.7635 26.9697 43.7635 26.9697 43.8463 26.9697ZM43.1834 27.3012L44.675 28.7928C44.5922 28.7928 44.5922 28.8757 44.5093 28.8757L43.0177 27.384C43.1005 27.384 43.1005 27.3012 43.1834 27.3012ZM42.5204 27.6327L44.0121 29.1243C43.9292 29.1243 43.9292 29.2072 43.8463 29.2072L42.4376 27.7155C42.4376 27.7155 42.5204 27.7155 42.5204 27.6327ZM41.8575 28.047L43.2663 29.4558C43.1834 29.4558 43.1834 29.5386 43.1005 29.5386L41.6917 28.1299C41.7746 28.047 41.8575 28.047 41.8575 28.047ZM41.2774 28.3785L42.6033 29.7044C42.5204 29.7044 42.5204 29.7872 42.4376 29.7872L41.1117 28.4613C41.1117 28.4613 41.1945 28.4613 41.2774 28.3785ZM40.6145 28.7928L41.9404 30.1187C41.8575 30.1187 41.8575 30.2016 41.7746 30.2016L40.4487 28.8757C40.5316 28.7928 40.5316 28.7928 40.6145 28.7928ZM39.9515 29.1243L41.1945 30.4502C41.1117 30.4502 41.1117 30.5331 41.0288 30.5331L39.7858 29.2072C39.8686 29.2072 39.8686 29.1243 39.9515 29.1243ZM39.2886 29.4558L40.5316 30.6988C40.4487 30.6988 40.4487 30.7817 40.3658 30.7817L39.1228 29.5386C39.2057 29.5386 39.2886 29.5386 39.2886 29.4558ZM38.6256 29.8701L39.8686 31.1131C39.7858 31.1131 39.7858 31.196 39.7029 31.196L38.4599 29.953C38.5427 29.8701 38.6256 29.8701 38.6256 29.8701ZM38.0455 30.2845L39.2886 31.5275C39.2057 31.5275 39.2057 31.6104 39.1228 31.6104L37.8798 30.3673C37.9627 30.2845 37.9627 30.2845 38.0455 30.2845ZM37.4654 30.6988L38.6256 31.859C38.5427 31.859 38.5427 31.9418 38.4599 31.9418L37.2997 30.7817C37.3826 30.6988 37.3826 30.6988 37.4654 30.6988ZM36.8854 31.1131L38.0455 32.2733C37.9627 32.2733 37.8798 32.3562 37.8798 32.3562L36.7196 31.196C36.8025 31.196 36.8025 31.1131 36.8854 31.1131ZM36.3053 31.5275L37.3826 32.6048C37.3826 32.6048 37.2997 32.6877 37.2168 32.6877L36.2224 31.6932C36.2224 31.6104 36.2224 31.6104 36.3053 31.5275ZM35.7252 32.0247L36.7196 33.102L36.6367 33.1849L35.6423 32.1904C35.7252 32.1076 35.7252 32.1076 35.7252 32.0247ZM35.228 32.5219L36.1395 33.5163L36.0567 33.5992L35.1451 32.6877C35.228 32.6048 35.228 32.6048 35.228 32.5219ZM34.8136 33.102L35.6423 33.9307L35.5595 34.0136L34.7308 33.1849C34.7308 33.1849 34.7308 33.102 34.8136 33.102ZM34.3164 33.6821L35.0622 34.4279L34.9794 34.5108L34.3164 33.7649V33.6821ZM33.9849 34.2622L34.565 34.8422L34.4822 34.9251L33.9021 34.345C33.9021 34.345 33.9021 34.345 33.9849 34.2622ZM33.5706 34.9251L33.9849 35.3395L33.9021 35.4223L33.4877 35.008C33.5706 35.008 33.5706 35.008 33.5706 34.9251ZM33.322 35.6709L33.5706 35.9195L33.4877 36.0024L33.322 35.8367C33.2391 35.7538 33.2391 35.6709 33.322 35.6709Z" fill="#A18F63"/>
<path d="M43.9297 53.0734C43.1839 52.6591 40.5321 51.1675 40.5321 51.1675L43.2668 51.7475C44.5098 51.9962 45.2556 52.4105 45.1728 52.742C45.2556 52.5762 45.2556 52.3276 45.2556 52.2448C45.2556 49.1786 40.5321 49.3443 40.5321 49.3443L41.6094 49.0957C42.8524 48.8471 43.5983 48.93 43.6811 49.1786C43.6811 49.0129 43.6811 48.7643 43.5983 48.6814C43.2668 47.5212 42.521 47.1069 40.2006 46.5268L36.9688 45.781C37.9632 46.8583 38.3775 49.7587 37.2174 51.0846C37.2174 50.7531 37.0516 50.5045 36.8859 50.3388C36.7201 51.0846 36.2229 52.079 35.2285 51.9133C35.2285 51.8304 35.3114 51.6647 35.0628 51.4161C34.4827 50.836 32.5767 49.1786 31.9137 48.5157C31.9137 48.7643 31.8309 48.8471 31.748 49.1786C31.5823 49.9244 31.0022 50.2559 30.505 50.2559C30.0078 50.2559 29.5934 49.7587 29.4277 49.593C29.7592 49.8416 30.3392 49.9244 30.4221 49.9244C30.4221 49.7587 30.5878 49.593 30.6707 49.5101C30.8365 49.3443 31.0851 49.2615 31.1679 48.93C31.2508 48.5157 30.9193 48.3499 30.6707 48.3499C30.1735 48.4328 29.5105 48.5985 29.4277 48.5985C29.2619 48.5985 29.1791 48.5985 29.0962 48.5157C29.0133 48.4328 28.9305 48.4328 28.8476 48.4328C28.5161 48.4328 28.4333 48.7643 28.4333 48.7643C28.3504 48.2671 28.599 47.9356 29.0133 47.8527C29.0962 47.8527 30.9193 47.7698 31.4165 47.7698C31.748 47.7698 31.9966 47.7698 32.2452 47.9356C32.6596 48.2671 33.654 48.93 33.8197 49.0957C34.2341 48.2671 34.0683 46.6097 33.654 46.2782C30.6707 45.6981 27.356 46.1953 25.3671 45.118C25.1185 45.2838 24.2898 45.6981 24.0412 45.781C23.8755 45.8639 23.7097 45.9467 23.6269 45.9467C23.544 45.9467 23.4611 46.0296 23.4611 46.0296C23.544 46.0296 24.1241 46.4439 24.8699 45.6153C24.8699 45.6153 26.2787 46.3611 27.1902 46.6097C26.9416 47.3555 25.0356 48.8471 23.7926 50.0073C21.8037 51.9133 19.6491 57.2169 17.7432 57.8798C18.0746 57.9627 18.4061 57.9627 18.5719 57.9627C21.1408 57.9627 22.4667 55.5595 22.881 54.8966C22.1352 56.7197 21.4723 57.7141 21.0579 57.6312C21.4723 57.797 21.9695 57.797 22.3838 57.797C24.1241 57.797 25.3671 56.7197 25.3671 56.7197L23.8755 55.891C23.8755 55.891 25.7814 56.7197 27.4388 56.7197C29.0962 56.7197 29.4277 56.0567 29.4277 56.0567L27.5217 54.9794C27.8532 55.1452 28.9305 55.5595 29.842 55.6424C32.2452 55.6424 33.4054 53.4049 33.5711 52.1619C33.4054 52.4105 32.7424 53.4878 31.748 53.4049C31.8309 53.2392 31.9137 52.9906 31.748 52.8248C31.748 52.8248 31.748 52.8248 31.6651 52.8248C31.4994 52.742 30.3392 51.4989 29.5105 50.836C29.4277 51.0846 29.4277 51.1675 29.3448 51.4989C29.1791 52.1619 28.6819 52.4105 28.2675 52.3276C27.6874 52.3276 27.356 51.8304 27.2731 51.6647C27.5217 51.9133 27.7703 52.079 27.936 52.079C28.1018 51.9133 28.1846 51.8304 28.3504 51.7475C28.4333 51.7475 28.599 51.6647 28.6819 51.5818C28.6819 51.5818 29.0962 51.1675 29.0962 50.7531C29.0962 50.5045 29.0133 50.4216 28.8476 50.3388C28.599 50.173 28.3504 50.173 28.0189 50.173C27.5217 50.173 27.356 50.173 27.1902 50.0073C27.1074 49.9244 27.0245 49.8416 26.9416 49.8416C26.693 49.8416 26.6101 50.0073 26.6101 50.0073C26.6101 49.593 26.8587 49.4272 27.1902 49.4272C27.2731 49.4272 27.2731 49.4272 27.356 49.4272C27.5217 49.5101 29.1791 49.9244 29.5105 50.0902C29.6763 50.173 31.4994 51.6647 31.4994 51.6647C31.8309 51.4161 32.1624 50.4216 32.1624 49.9244C32.3281 49.8416 32.5767 49.9244 32.9082 50.173C33.2396 50.4216 34.3998 51.4989 34.4827 51.5818C34.2341 53.3221 35.3114 56.8025 37.0516 56.8025C37.3002 56.8025 37.466 56.7197 37.5488 56.7197C37.3831 56.6368 37.3002 56.4711 37.2174 56.2225L36.9688 54.9794C36.9688 54.9794 37.3002 55.4766 38.709 56.9683C39.4548 57.797 40.1178 57.9627 40.5321 57.9627C41.0293 57.9627 41.2779 57.797 41.3608 57.7141C41.1122 57.7141 40.9465 57.5484 40.615 57.0511L39.2891 55.3109C41.3608 57.2169 42.7696 57.6312 43.6811 57.6312C44.427 57.6312 44.7584 57.3826 44.7584 57.3826L40.4492 53.4878L45.5871 56.3882C46.0015 54.648 44.6756 53.4878 43.9297 53.0734ZM45.0899 51.9133L44.9242 52.079C44.8413 52.079 44.8413 51.9962 44.7584 51.9962L45.007 51.7475C45.007 51.7475 45.0899 51.8304 45.0899 51.9133ZM44.7584 51.0846C44.7584 51.1675 44.8413 51.1675 44.8413 51.2503L44.2612 51.8304V51.7475L44.7584 51.0846ZM43.5983 52.6591L43.101 53.2392L43.0182 53.1563L43.5983 52.6591ZM43.0182 52.2448C43.101 52.2448 43.101 52.3276 43.1839 52.3276L42.7696 52.742L42.6867 52.6591L43.0182 52.2448ZM43.0182 52.4105C43.101 52.4105 43.101 52.4105 43.1839 52.4934L42.8524 52.8248C42.8524 52.8248 42.7696 52.742 42.6867 52.742L43.0182 52.4105ZM42.3552 52.1619C42.4381 52.1619 42.4381 52.1619 42.521 52.1619L42.2724 52.4105C42.1895 52.4105 42.1895 52.3276 42.1066 52.3276L42.3552 52.1619ZM41.6094 52.079C41.6923 52.079 41.6923 52.079 41.7751 52.079L41.6923 52.2448C41.6094 52.2448 41.6094 52.2448 41.5265 52.1619L41.6094 52.079ZM43.0182 50.6702C43.0182 50.7531 43.101 50.7531 43.101 50.836L42.7696 51.1675C42.6867 51.1675 42.6038 51.1675 42.521 51.1675L43.0182 50.6702ZM42.6867 50.2559L42.1066 50.836C42.1066 50.7531 42.0238 50.7531 42.0238 50.6702L42.6038 50.0902C42.6867 50.173 42.6867 50.2559 42.6867 50.2559ZM42.1066 49.8416C42.1895 49.8416 42.1895 49.9244 42.2724 49.9244L41.7751 50.4216L41.6923 50.3388L42.1066 49.8416ZM42.1066 50.0073C42.1895 50.0073 42.1895 50.0073 42.2724 50.0902L41.9409 50.4216L41.858 50.3388L42.1066 50.0073ZM41.4437 49.7587C41.5265 49.7587 41.5265 49.7587 41.6094 49.8416L41.4437 50.0073L41.3608 49.9244L41.4437 49.7587ZM29.9249 49.6758C30.0078 49.6758 31.3337 50.173 32.0795 50.5045C31.748 50.5045 31.4165 50.5045 31.0851 50.5045C30.9193 50.5045 30.7536 50.5045 30.5878 50.5045C30.3392 50.5045 30.0906 50.4216 30.0906 50.4216C29.7592 50.3388 29.842 50.173 29.5105 50.173C29.1791 50.0902 29.0133 50.4216 29.0133 50.4216C29.0962 49.9244 29.5105 49.593 29.9249 49.6758ZM19.1519 60.4488C19.1519 60.3659 19.1519 60.283 19.2348 60.283L19.3177 60.3659C19.3177 60.4488 19.2348 60.4488 19.1519 60.4488ZM19.8978 60.1173L19.6491 59.8687L19.732 59.7858L19.9806 60.0344C19.9806 60.1173 19.8978 60.1173 19.8978 60.1173ZM20.4778 59.7029L20.1464 59.3715L20.2292 59.2886L20.6436 59.7029C20.4778 59.6201 20.4778 59.7029 20.4778 59.7029ZM20.9751 59.2057L20.4778 58.7085L20.5607 58.6257L21.0579 59.1229L20.9751 59.2057ZM21.3894 58.6257L20.8922 58.1284C20.8922 58.1284 20.9751 58.0456 20.9751 57.9627L21.4723 58.4599C21.4723 58.5428 21.4723 58.6257 21.3894 58.6257ZM21.8037 58.0456L21.3065 57.5484C21.3065 57.5484 21.3894 57.4655 21.3894 57.3826L21.9695 57.9627C21.8866 57.9627 21.8866 58.0456 21.8037 58.0456ZM22.2181 57.4655L21.638 56.8854C21.638 56.8025 21.7209 56.8025 21.7209 56.7197L22.301 57.2998C22.301 57.3826 22.301 57.3826 22.2181 57.4655ZM22.6324 56.8025L22.0523 56.2225C22.0523 56.2225 22.1352 56.1396 22.1352 56.0567L22.7153 56.6368C22.7153 56.7197 22.6324 56.8025 22.6324 56.8025ZM23.1296 56.0567C23.1296 56.1396 23.0468 56.1396 23.0468 56.2225L22.4667 55.6424C22.4667 55.5595 22.5496 55.5595 22.5496 55.4766L23.1296 56.0567ZM23.3782 55.5595L22.881 55.0623C22.881 55.0623 22.9639 54.9794 22.9639 54.8966L23.4611 55.3938C23.4611 55.4766 23.4611 55.4766 23.3782 55.5595ZM23.7926 54.8966L23.2954 54.3993L23.3782 54.3165L23.8755 54.8137C23.7926 54.8137 23.7926 54.8966 23.7926 54.8966ZM24.1241 54.2336L23.7097 53.8193L23.7926 53.7364L24.2069 54.1507L24.1241 54.2336ZM24.4555 53.5707L24.1241 53.2392L24.2069 53.1563L24.4555 53.4049C24.5384 53.4878 24.5384 53.5707 24.4555 53.5707ZM24.787 52.9077L24.6213 52.742L24.7042 52.6591L24.787 52.742C24.8699 52.8248 24.8699 52.8248 24.787 52.9077ZM27.356 53.2392C27.4388 53.2392 28.1018 53.2392 28.4333 53.2392C28.6819 53.2392 29.2619 53.2392 29.2619 53.6535C29.2619 53.7364 29.2619 53.8193 29.2619 53.9021C29.1791 53.7364 29.0133 53.6535 28.8476 53.6535C28.6819 53.6535 27.936 53.9021 27.6874 53.9021C27.5217 53.9021 27.4388 53.8193 27.2731 53.8193C26.9416 53.8193 26.8587 54.0679 26.8587 54.0679C26.693 53.5707 27.0245 53.2392 27.356 53.2392ZM35.56 57.7141C35.56 57.6312 35.56 57.6312 35.4771 57.5484L35.56 57.4655C35.56 57.5484 35.6428 57.5484 35.6428 57.6312L35.56 57.7141ZM30.1735 50.2559C30.1735 50.173 30.0906 50.173 30.0906 50.0902L30.2564 49.9244L30.3392 50.0073L30.1735 50.2559ZM30.5878 50.7531L30.505 50.6702L30.7536 50.4216L30.8365 50.5045L30.5878 50.7531ZM31.0022 51.2503L30.9193 51.1675L31.3337 50.7531C31.4165 50.7531 31.4165 50.836 31.4994 50.836L31.0022 51.2503ZM31.6651 51.2503C31.6651 51.3332 31.6651 51.3332 31.748 51.4161H31.6651C31.5823 51.4161 31.5823 51.4161 31.4994 51.4161L31.6651 51.2503ZM33.3225 51.4989L33.2396 51.4161L33.3225 51.3332L33.4054 51.4161L33.3225 51.4989ZM34.9799 52.2448L35.0628 52.3276L34.8142 52.5762C34.7313 52.5762 34.7313 52.5762 34.6484 52.5762L34.9799 52.2448ZM34.3998 51.9133C34.4827 51.9133 34.4827 51.9133 34.5656 51.9133L34.1512 52.3276C34.1512 52.3276 34.0683 52.2448 33.9855 52.2448L34.3998 51.9133ZM33.8197 51.6647C33.9026 51.6647 33.9026 51.7475 33.9855 51.7475L33.7369 51.9962L33.654 51.9133L33.8197 51.6647ZM38.6261 52.079L38.709 52.1619L38.5433 52.3276C38.4604 52.3276 38.3775 52.3276 38.2947 52.3276L38.6261 52.079ZM38.1289 51.6647L38.2118 51.7475L37.6317 52.3276C37.5488 52.3276 37.5488 52.3276 37.466 52.3276L38.1289 51.6647ZM37.3002 51.6647C37.3831 51.6647 37.466 51.6647 37.466 51.6647L37.0516 52.1619C36.9687 52.1619 36.9687 52.1619 36.8859 52.079L37.3002 51.6647ZM36.5544 51.5818C36.6373 51.5818 36.6373 51.5818 36.7201 51.5818L36.4715 51.8304C36.3887 51.8304 36.3887 51.7475 36.3058 51.7475L36.5544 51.5818ZM35.8086 51.3332C35.8915 51.3332 35.8915 51.3332 35.9743 51.4161L35.8086 51.5818C35.8086 51.5818 35.7257 51.4989 35.6428 51.4989L35.8086 51.3332ZM37.2174 47.6041L37.1345 47.5212L37.2174 47.4384C37.3002 47.4384 37.3002 47.5212 37.3831 47.5212L37.2174 47.6041ZM37.7146 47.9356L37.6317 47.8527L37.7974 47.687C37.8803 47.687 37.8803 47.7698 37.9632 47.7698L37.7146 47.9356ZM38.2118 48.3499C38.1289 48.3499 38.1289 48.2671 38.2118 48.3499C38.1289 48.2671 38.1289 48.2671 38.1289 48.2671L38.3775 48.0184C38.4604 48.0184 38.4604 48.1013 38.5433 48.1013L38.2118 48.3499ZM38.5433 48.6814L38.8747 48.3499L38.9576 48.4328L38.6261 48.7643C38.5433 48.7643 38.5433 48.6814 38.5433 48.6814ZM38.8747 49.1786L39.2891 48.7643L39.3719 48.8471L38.9576 49.3443C38.9576 49.2615 38.8747 49.2615 38.8747 49.1786ZM39.952 50.9189L39.7863 50.836L39.952 50.6702C39.952 50.7531 39.952 50.836 39.952 50.9189ZM39.952 50.0073L39.3719 50.5874H39.2891H39.2062C39.2062 50.5874 39.2062 50.5874 39.2062 50.5045L39.8692 49.8416C39.952 49.9244 39.952 50.0073 39.952 50.0073ZM39.7863 49.3443L39.2062 49.9244C39.2062 49.8416 39.2062 49.8416 39.1233 49.7587L39.6206 49.1786C39.7034 49.2615 39.7034 49.3443 39.7863 49.3443Z" fill="#A18F63"/>
<path d="M22.8804 45.5323L22.9632 45.0351C22.9632 45.0351 23.4605 44.8693 23.8748 44.8693C24.2891 44.7865 24.5378 45.3665 24.5378 45.3665C24.5378 45.3665 25.4493 45.2837 25.6979 44.7036C25.6979 44.5378 24.2063 44.6207 23.8748 44.6207C23.5433 44.6207 23.4605 44.3721 22.9632 43.9578C22.9632 43.9578 22.3003 44.2064 22.3003 44.8693C22.3003 45.3665 22.7975 45.5323 22.8804 45.5323Z" fill="#A18F63"/>
<path d="M37.5485 29.5387C39.4545 28.2128 43.7637 25.7267 48.4872 22.9091C52.1334 20.7546 55.8625 17.2741 55.9454 13.2964C55.9454 12.2191 55.6968 11.0589 55.0338 9.89874C55.0338 9.89874 54.951 10.7274 54.8681 10.8103C54.7852 10.8932 53.7079 12.2191 52.0506 13.7936C50.476 15.2852 42.272 21.9147 41.1119 23.0749C37.217 26.7211 35.311 31.3618 35.311 31.3618C35.311 31.3618 35.6425 30.8646 37.5485 29.5387ZM55.1167 10.8103L55.1996 10.8932C55.1996 10.976 55.1996 11.0589 55.1996 11.1418L55.0338 10.976C55.0338 10.976 55.0338 10.8932 55.1167 10.8103ZM54.6195 11.3904L55.2824 12.0533C55.2824 12.1362 55.2824 12.2191 55.2824 12.2191L54.6195 11.5561C54.6195 11.4733 54.6195 11.4733 54.6195 11.3904ZM54.2051 11.9705L55.1167 12.882C55.1167 12.9649 55.1167 12.9649 55.0338 13.0478L54.0394 12.0533C54.1223 12.0533 54.1223 11.9705 54.2051 11.9705ZM53.7079 12.4677L54.8681 13.6278C54.8681 13.7107 54.7852 13.7107 54.7852 13.7936L53.6251 12.6334C53.6251 12.5505 53.7079 12.5505 53.7079 12.4677ZM53.2107 13.0478L54.4538 14.2908C54.4538 14.3737 54.4538 14.3737 54.4538 14.4565L53.1278 13.1306C53.1278 13.0478 53.1278 13.0478 53.2107 13.0478ZM52.7135 13.545L54.1223 14.9537L54.0394 15.0366L52.6306 13.6278C52.6306 13.545 52.6306 13.545 52.7135 13.545ZM52.1334 14.0422L53.6251 15.5338L53.5422 15.6167L52.0506 14.1251C52.1334 14.0422 52.1334 14.0422 52.1334 14.0422ZM51.6362 14.4565L53.2107 16.031L53.1278 16.1139L51.5533 14.5394C51.5533 14.5394 51.6362 14.5394 51.6362 14.4565ZM51.0561 14.9537L52.6306 16.6111L52.5478 16.694L50.8904 15.0366C50.9733 15.0366 51.0561 14.9537 51.0561 14.9537ZM50.5589 15.451L52.2163 17.1083L52.1334 17.1912L50.476 15.5338C50.476 15.451 50.476 15.451 50.5589 15.451ZM49.9788 15.8653L51.6362 17.5227L51.5533 17.6055L49.896 15.8653C49.896 15.9482 49.9788 15.9482 49.9788 15.8653ZM49.3987 16.3625L51.0561 18.1028L50.9733 18.1856L49.3159 16.4454C49.3987 16.3625 49.3987 16.3625 49.3987 16.3625ZM48.9015 16.7769L50.5589 18.5171L50.476 18.6L48.8187 16.8597C48.8187 16.8597 48.8187 16.8597 48.9015 16.7769ZM48.3215 17.2741L49.9788 19.0143L49.896 19.0972L48.2386 17.3569L48.3215 17.2741ZM47.7414 17.6884L49.3987 19.3458L49.3159 19.4287L47.6585 17.7713C47.7414 17.7713 47.7414 17.7713 47.7414 17.6884ZM47.2442 18.1856L48.9015 19.843L48.8187 19.9259L47.1613 18.2685C47.1613 18.2685 47.1613 18.1856 47.2442 18.1856ZM46.6641 18.6L48.3215 20.2573L48.2386 20.3402L46.5812 18.6828C46.5812 18.6828 46.6641 18.6828 46.6641 18.6ZM46.084 19.0972L47.6585 20.6717L47.5756 20.7546L46.0011 19.1801C46.084 19.1801 46.084 19.0972 46.084 19.0972ZM45.5868 19.5115L47.1613 21.086C47.1613 21.086 47.0784 21.1689 46.9956 21.1689L45.421 19.5944C45.5039 19.5944 45.5039 19.5944 45.5868 19.5115ZM45.0067 20.0087L46.4983 21.5004C46.4983 21.5004 46.4155 21.5832 46.3326 21.5832L44.841 20.0916C44.9238 20.0916 45.0067 20.0087 45.0067 20.0087ZM44.4266 20.4231L45.9183 21.9147L45.8354 21.9976L44.4266 20.506C44.4266 20.506 44.4266 20.506 44.4266 20.4231ZM43.9294 20.9203L45.3382 22.3291L45.2553 22.4119L43.8465 21.0032C43.8465 21.0032 43.8465 20.9203 43.9294 20.9203ZM43.3493 21.4175L44.7581 22.8263L44.6752 22.9091L43.2664 21.5004C43.2664 21.4175 43.3493 21.4175 43.3493 21.4175ZM42.8521 21.8319L44.178 23.1578L44.0951 23.2406L42.7692 21.9147C42.7692 21.9147 42.7692 21.9147 42.8521 21.8319ZM42.272 22.3291L43.5979 23.655L43.5151 23.7378L42.1892 22.4119L42.272 22.3291ZM41.6919 22.8263L42.935 24.1522L42.8521 24.235L41.6091 22.992C41.6091 22.8263 41.6919 22.8263 41.6919 22.8263ZM41.1947 23.2406L42.4378 24.4837L42.3549 24.5665L41.1119 23.3235C41.1119 23.3235 41.1947 23.3235 41.1947 23.2406ZM40.6975 23.7378L41.8577 24.898L41.7748 24.9809L40.6146 23.8207C40.6146 23.8207 40.6146 23.8207 40.6975 23.7378ZM40.2003 24.3179L41.3605 25.4781L41.2776 25.5609L40.2003 24.4837C40.1174 24.3179 40.1174 24.3179 40.2003 24.3179ZM39.7031 24.8151L40.7804 25.8924L40.6975 25.9753L39.6202 24.898L39.7031 24.8151ZM39.2059 25.3952L40.2003 26.3896L40.1174 26.4725L39.2059 25.5609C39.2059 25.4781 39.2059 25.3952 39.2059 25.3952ZM38.7915 25.8924L39.6202 26.7211L39.5373 26.804L38.7087 25.9753C38.7087 25.9753 38.7915 25.9753 38.7915 25.8924ZM38.3772 26.4725L39.123 27.2183L39.0401 27.3012L38.2943 26.5554C38.2943 26.5554 38.2943 26.5554 38.3772 26.4725ZM37.9628 27.1355L38.6258 27.7984L38.5429 27.8813L37.88 27.2183C37.88 27.2183 37.88 27.1355 37.9628 27.1355ZM37.5485 27.7155L38.0457 28.2128L37.9628 28.2956L37.4656 27.7984C37.4656 27.7984 37.4656 27.7155 37.5485 27.7155ZM37.1342 28.3785L37.5485 28.7928L37.4656 28.8757L37.0513 28.4614L37.1342 28.3785ZM36.7198 28.9586L36.9684 29.2072L36.8855 29.29L36.6369 29.0414C36.7198 29.0414 36.7198 29.0414 36.7198 28.9586ZM36.3883 29.6215L36.5541 29.7873L36.4712 29.8701L36.3055 29.7044L36.3883 29.6215Z" fill="#A18F63"/>
<path d="M19.3175 55.7252C20.229 54.3165 21.8036 51.8304 21.9693 51.5818C21.0577 52.6591 16.6657 55.5595 14.4282 56.2224C14.2625 56.2224 13.931 56.2224 13.8481 56.1396C13.8481 56.1396 14.0139 57.7969 16.0856 57.7969C17.3286 57.7969 18.4059 56.9683 19.3175 55.7252ZM19.3175 53.9021L19.4004 53.985L19.3175 54.0679L19.2346 53.985C19.2346 53.9021 19.3175 53.9021 19.3175 53.9021ZM14.8426 56.6368L14.594 56.3882C14.6768 56.3882 14.6768 56.3882 14.7597 56.3053L15.0912 56.6368C15.0083 56.6368 14.9254 56.6368 14.8426 56.6368ZM15.837 56.6368L15.3398 56.1396C15.4227 56.1396 15.4227 56.1396 15.5055 56.0567L16.0027 56.5539C15.9199 56.5539 15.837 56.5539 15.837 56.6368ZM16.5828 56.3053L16.0027 55.7252C16.0856 55.7252 16.0856 55.6424 16.1685 55.6424L16.7486 56.2224C16.6657 56.3053 16.5828 56.3053 16.5828 56.3053ZM17.1629 55.9738L16.6657 55.4766C16.7486 55.4766 16.7486 55.3938 16.8314 55.3938L17.3286 55.891C17.2458 55.891 17.2458 55.9738 17.1629 55.9738ZM17.743 55.4766L17.3286 55.0623C17.4115 55.0623 17.4115 54.9794 17.4944 54.9794L17.9087 55.3938C17.8259 55.4766 17.743 55.4766 17.743 55.4766ZM18.2402 55.0623L17.9916 54.7308C18.0745 54.7308 18.0745 54.6479 18.1573 54.6479L18.4059 54.8965C18.3231 54.9794 18.3231 54.9794 18.2402 55.0623ZM18.7374 54.2336L18.9031 54.3993L18.8203 54.4822L18.6545 54.3165C18.6545 54.3165 18.6545 54.3165 18.7374 54.2336Z" fill="#A18F63"/>
<path d="M32.659 38.1571C32.659 38.1571 31.8303 40.2288 31.4989 40.8089C31.1674 41.389 30.5873 41.8033 30.0901 41.8033C29.5929 41.7205 28.9299 41.6376 28.267 41.6376C27.024 41.5547 25.5323 41.7205 24.8694 42.1348C24.3721 42.3834 23.5435 43.4607 23.5435 43.4607C24.0407 43.7922 24.6208 43.4607 24.6208 43.4607C24.6208 43.4607 24.3721 43.2121 24.3721 43.0464C24.3721 42.9635 24.455 42.8806 24.6208 42.7977C24.7036 43.1292 25.0351 43.3778 25.3666 43.3778C25.698 43.3778 26.0295 43.0464 26.1124 42.7149C26.1953 42.4663 26.1124 42.3005 26.0295 42.1348C26.4439 42.1348 26.7753 42.3834 26.7753 42.5491C26.7753 42.7149 26.1953 43.6264 25.4494 43.7093C25.5323 44.1236 26.4439 44.2065 26.361 44.4551C26.361 44.538 26.2781 44.6209 26.1953 44.7866C26.0295 44.8695 26.7753 45.1181 27.2726 45.1181C28.9299 45.2009 29.4271 44.538 30.0072 43.7922C30.173 43.6264 30.3387 43.5436 30.5873 43.5436C31.0017 43.5436 33.9849 45.3667 37.134 45.4495C40.0344 45.5324 42.2718 44.0408 42.6862 42.3834C42.2718 42.5491 41.1945 42.8806 40.1172 42.8806C37.134 42.7977 35.9738 41.389 35.9738 41.389C35.9738 41.389 37.5483 42.0519 39.5372 42.0519C44.3435 42.1348 45.1722 38.24 45.5037 36.9141C44.8408 37.3284 42.6033 38.82 38.2113 38.7372C36.8854 38.7372 36.0567 38.4886 35.3108 38.1571C36.8853 38.1571 38.6256 38.0742 40.0344 37.7428C45.2551 36.6655 48.6527 34.2623 49.3986 30.3674C45.6695 32.0248 40.283 33.7651 37.3826 35.2567C34.3164 36.6655 32.9905 37.3284 32.659 38.1571ZM31.416 42.1348L31.0017 41.7205L31.0845 41.6376L31.4989 42.0519C31.5817 42.0519 31.4989 42.1348 31.416 42.1348ZM32.079 41.8033L31.4989 41.2232C31.4989 41.2232 31.5817 41.1404 31.5817 41.0575L32.1618 41.6376C32.1618 41.7205 32.1618 41.7205 32.079 41.8033ZM32.4933 41.1404L31.9132 40.4774C31.9132 40.3946 31.9961 40.3946 31.9961 40.3117L32.5762 40.8918C32.5762 41.0575 32.4933 41.1404 32.4933 41.1404ZM32.8248 40.3946L32.1618 39.8145C32.1618 39.7316 32.1618 39.7316 32.2447 39.6487L32.8248 40.2288C32.8248 40.3117 32.8248 40.3946 32.8248 40.3946ZM32.9905 39.6487L32.4933 39.1515C32.4933 39.0687 32.4933 39.0687 32.5762 38.9858L33.0734 39.483C32.9905 39.483 32.9905 39.5659 32.9905 39.6487ZM33.1562 38.7372L32.8248 38.4057C32.8248 38.3228 32.8248 38.3228 32.8248 38.3228L33.0734 38.5714C33.1562 38.5714 33.1562 38.6543 33.1562 38.7372ZM33.322 37.9085L33.1562 37.7428L33.2391 37.6599L33.4049 37.8256C33.4049 37.9085 33.4049 37.9085 33.322 37.9085ZM34.2335 37.7428H34.1507L33.7363 37.3284C33.7363 37.3284 33.8192 37.2455 33.9021 37.2455L34.2335 37.7428ZM34.9794 37.577L34.3164 36.9141C34.3993 36.9141 34.3993 36.8312 34.4822 36.8312L35.1451 37.4941C35.0622 37.577 35.0622 37.577 34.9794 37.577ZM35.8081 37.4113L34.9794 36.5826C35.0622 36.5826 35.0622 36.4997 35.1451 36.4997L35.9738 37.3284C35.8909 37.3284 35.8909 37.3284 35.8081 37.4113ZM36.6367 37.1627L35.6423 36.1682C35.7252 36.1682 35.7252 36.0854 35.8081 36.0854L36.8025 37.0798C36.7196 37.1627 36.6367 37.1627 36.6367 37.1627ZM37.3826 36.9141L36.3053 35.8368C36.3881 35.8368 36.3881 35.7539 36.471 35.7539L37.5483 36.9141C37.5483 36.9141 37.4654 36.9141 37.3826 36.9141ZM38.2113 36.7483L36.9682 35.5053C37.0511 35.5053 37.0511 35.4224 37.134 35.4224L38.377 36.6655C38.2941 36.6655 38.2113 36.7483 38.2113 36.7483ZM48.5699 30.7818C48.5699 30.8646 48.5699 30.8646 48.487 30.9475L48.4041 30.8646C48.487 30.7818 48.5699 30.7818 48.5699 30.7818ZM47.9069 31.0304L48.1555 31.279L48.0726 31.3619L47.7412 31.0304C47.824 31.1133 47.824 31.0304 47.9069 31.0304ZM47.1611 31.3619L47.6583 31.8591L47.5754 31.9419L46.9954 31.3619C47.0782 31.3619 47.1611 31.3619 47.1611 31.3619ZM46.4153 31.6105L47.1611 32.3563L47.0782 32.4392L46.2495 31.6105C46.3324 31.6933 46.4153 31.6105 46.4153 31.6105ZM45.7523 31.9419L46.6639 32.9364L46.581 33.0192L45.5866 32.0248C45.5866 31.9419 45.6695 31.9419 45.7523 31.9419ZM45.0065 32.1905L46.0838 33.3507L46.0009 33.4336L44.8408 32.2734C44.8408 32.1905 44.9236 32.1905 45.0065 32.1905ZM44.1778 32.522C44.2607 32.4392 44.1778 32.4392 44.1778 32.522L45.5037 33.7651C45.4208 33.7651 45.4208 33.8479 45.338 33.8479L44.0949 32.6049C44.0949 32.522 44.1778 32.522 44.1778 32.522ZM43.5149 32.7706L44.8408 34.0965C44.7579 34.0965 44.7579 34.1794 44.675 34.1794L43.3491 32.8535C43.432 32.7706 43.432 32.7706 43.5149 32.7706ZM42.769 33.0192L44.1778 34.428C44.0949 34.428 44.0949 34.5109 44.0121 34.5109L42.6033 33.1021C42.6862 33.0192 42.769 33.0192 42.769 33.0192ZM42.0232 33.2678L43.432 34.7595C43.3491 34.7595 43.3491 34.8423 43.2663 34.8423L41.7746 33.3507C41.9404 33.3507 42.0232 33.3507 42.0232 33.2678ZM41.3603 33.5993L42.8519 35.091C42.769 35.091 42.769 35.091 42.6862 35.1738L41.1945 33.5993C41.1945 33.5993 41.2774 33.5993 41.3603 33.5993ZM40.6144 33.8479L42.1061 35.3396C42.0232 35.3396 42.0232 35.3396 41.9404 35.4224L40.4487 33.9308C40.5316 33.9308 40.5316 33.8479 40.6144 33.8479ZM39.8686 34.1794L41.3603 35.671C41.2774 35.671 41.2774 35.671 41.1945 35.7539L39.7029 34.2623C39.7858 34.1794 39.8686 34.1794 39.8686 34.1794ZM39.2057 34.428L40.6144 35.9196C40.5316 35.9196 40.5316 35.9196 40.4487 36.0025L39.0399 34.5937C39.1228 34.5109 39.1228 34.5109 39.2057 34.428ZM38.4599 34.7595L39.8686 36.1682C39.7858 36.1682 39.7858 36.1682 39.7029 36.2511L38.377 34.8423L38.4599 34.7595ZM37.7969 35.091L39.1228 36.4169C39.0399 36.4169 39.0399 36.4169 38.9571 36.4997L37.6312 35.1738C37.714 35.1738 37.714 35.091 37.7969 35.091Z" fill="#A18F63"/>
</svg>
