<svg width="70" height="70" viewBox="0 0 70 70" fill="none" xmlns="http://www.w3.org/2000/svg">
<circle cx="35" cy="35" r="34.5" fill="white" stroke="#CBCBCB"/>
<path d="M32.5539 15.1179C25.8192 15.902 19.8987 20.1539 16.9836 26.2855L16.6218 27.0695H14.8728C13.9178 27.0695 12.8926 27.1198 12.601 27.1801C10.9023 27.5419 9.4649 28.9794 9.11308 30.6681C8.96231 31.3918 8.96231 37.835 9.11308 38.5488C9.29401 39.4232 9.69609 40.1368 10.3495 40.8003C10.6912 41.1321 11.1737 41.504 11.4451 41.6346C12.4302 42.107 12.7619 42.1472 16.3202 42.1472C18.1496 42.1472 19.6574 42.1171 19.6574 42.0869C19.6574 42.0467 19.4363 41.3129 19.1649 40.4486C18.8935 39.5841 18.602 38.5185 18.5115 38.0762C17.3757 32.3768 19.0443 26.8483 23.1353 22.7975C26.372 19.5809 30.8952 17.842 35.4789 18.0531C37.8713 18.1636 39.9117 18.6863 42.0226 19.7317C48.4156 22.888 52.0846 29.673 51.1698 36.649C50.225 43.8561 45.5491 50.2711 38.4114 51.2889C38.0062 52.2655 33.3243 53.4849 39.3936 52.271C44.218 50.493 48.2146 49.5755 50.9386 45.5246C51.3809 44.8613 51.974 43.8359 52.2553 43.2329L52.778 42.1472H54.6377C55.663 42.1472 56.6983 42.097 56.9395 42.0366C58.6082 41.6548 60.0053 40.2274 60.3572 38.5488C60.508 37.8249 60.508 31.3817 60.3572 30.6681C59.9952 28.9794 58.5579 27.5419 56.8692 27.1801C56.5776 27.1198 55.5323 27.0695 54.5573 27.0695L52.778 27.0594L52.2654 25.984C49.7124 20.6766 44.4953 16.5955 38.7459 15.4195C36.8259 15.0274 34.3833 14.9068 32.5539 15.1179Z" fill="#133769"/>
<path fill-rule="evenodd" clip-rule="evenodd" d="M34.7356 48.7329C42.5772 48.7329 48.9341 42.376 48.9341 34.5344C48.9341 26.6927 42.5772 20.3359 34.7356 20.3359C26.894 20.3359 20.5371 26.6927 20.5371 34.5344C20.5371 42.376 26.894 48.7329 34.7356 48.7329ZM29.8549 32.7597C30.0999 32.7597 30.2985 32.9583 30.2985 33.2033V35.8655C30.2985 36.1107 30.0999 36.3093 29.8549 36.3093H27.1926C26.9476 36.3093 26.7489 36.1107 26.7489 35.8655V33.2033C26.7489 32.9583 26.9476 32.7597 27.1926 32.7597H29.8549ZM36.5103 33.2033C36.5103 32.9583 36.3117 32.7597 36.0667 32.7597H33.4045C33.1595 32.7597 32.9607 32.9583 32.9607 33.2033V35.8655C32.9607 36.1107 33.1595 36.3093 33.4045 36.3093H36.0667C36.3117 36.3093 36.5103 36.1107 36.5103 35.8655V33.2033ZM42.2785 32.7597C42.5237 32.7597 42.7223 32.9583 42.7223 33.2033V35.8655C42.7223 36.1107 42.5237 36.3093 42.2785 36.3093H39.6163C39.3713 36.3093 39.1727 36.1107 39.1727 35.8655V33.2033C39.1727 32.9583 39.3713 32.7597 39.6163 32.7597H42.2785Z" fill="url(#paint0_linear_2727_7989)"/>
<path d="M26.5268 50.8622C30.3901 52.9006 34.0698 53.1585 38.2213 52.8447C42.5194 52.0647 46.4316 50.7532 49.3324 47.4873C52.2329 44.2212 53.9547 40.0769 54.2217 35.7168C54.4889 31.3568 53.286 27.0332 50.8058 23.4375C48.3253 19.8418 44.711 17.1818 40.5402 15.883C36.3696 14.5842 31.8839 14.7215 27.8006 16.2732C23.7173 17.8248 20.2723 20.701 18.0167 24.4417C15.7611 28.1824 14.8251 32.5716 15.3586 36.907L18.2535 36.5509C17.7998 32.8632 18.5959 29.1298 20.5145 25.9479C22.4332 22.766 25.3635 20.3195 28.8368 18.9997C32.3099 17.6799 36.1255 17.5631 39.6729 18.6679C43.2205 19.7726 46.295 22.0352 48.4047 25.0936C50.5145 28.1521 51.5377 31.8297 51.3105 35.5384C51.0832 39.247 49.6188 42.7722 47.1514 45.5503C44.6842 48.3284 41.3565 50.1987 37.7005 50.8622C34.0447 51.5257 30.2566 51.5646 26.9705 49.8308L26.5268 50.8622Z" fill="#133769"/>
<path d="M29.4309 49.6641L27.6644 50.0822C27.4642 49.8858 27.2398 49.6817 26.9906 49.4759C26.4368 49.0187 25.5505 48.3863 24.6497 47.7676L25.3598 47.2614L25.7202 47.4983L25.4969 47.1638L25.9068 46.8717L26.2467 47.0952L26.036 46.7794L26.4536 46.4818L26.7732 46.6919L26.5752 46.3952L27.0005 46.0921L27.2996 46.2887L27.1142 46.0108L27.5474 45.7022L27.8262 45.8856L27.6534 45.6266L29.6068 44.2343L29.0705 43.8818L26.3075 44.9801L25.9124 44.7204C25.812 44.6544 25.6771 44.6825 25.6112 44.7832L25.5108 44.9369C25.445 45.0375 25.4731 45.1727 25.5735 45.2389L25.605 45.2594L24.3301 45.7663L23.9166 45.4944C23.8162 45.4283 23.6812 45.4564 23.6154 45.5571L23.515 45.7106C23.4492 45.8113 23.4771 45.9466 23.5777 46.0126L23.6276 46.0457L22.6598 46.4302C22.2362 46.1506 21.8911 45.9248 21.6878 45.7913C20.8605 45.2472 20.4914 45.1437 20.1907 45.1279C19.7578 45.1054 19.4719 45.3433 19.3982 45.4524C19.3979 45.4529 19.3973 45.4535 19.3969 45.454C19.3966 45.4546 19.3959 45.4553 19.3955 45.4559C19.3252 45.5672 19.2218 45.9252 19.415 46.3143C19.5494 46.5847 19.791 46.8829 20.6184 47.4268C20.8218 47.5607 21.1656 47.7881 21.5905 48.0661L21.6246 49.1097L21.5747 49.0768C21.4742 49.0106 21.3393 49.0389 21.2735 49.1395L21.1731 49.293C21.1072 49.3937 21.1353 49.5291 21.2358 49.5951L21.6493 49.8671L21.6942 51.2416L21.6627 51.2209C21.5623 51.1549 21.4274 51.1831 21.3615 51.2838L21.2611 51.4373C21.1953 51.538 21.2234 51.6733 21.3238 51.7394L21.7189 51.9991L21.8161 54.9785L22.3523 55.331L22.8467 52.9793L23.1524 53.0351L22.8736 52.8517L22.9832 52.3301L23.3112 52.3899L23.0121 52.1933L23.1197 51.681L23.47 51.7449L23.1505 51.5347L23.2561 51.032L23.6288 51.0999L23.289 50.8763L23.3927 50.3828L23.7877 50.4549L23.4273 50.2179L23.607 49.3629C24.532 49.9448 25.4636 50.5079 26.1023 50.835C26.3898 50.9823 26.666 51.1072 26.9254 51.213L27.2473 53.0046L27.8187 53.3034L28.0266 51.5877C28.5227 51.721 28.833 51.7518 28.8473 51.7302C28.8649 51.7031 28.8715 51.693 28.8743 51.6887C28.8743 51.6887 28.875 51.6878 28.8767 51.6851C28.8796 51.6809 28.8862 51.6708 28.9038 51.6438C28.9179 51.6222 28.7661 51.3489 28.4462 50.9458L29.9323 50.0705L29.4309 49.6641Z" fill="#133769"/>
<defs>
<linearGradient id="paint0_linear_2727_7989" x1="20.5371" y1="34.5344" x2="48.9341" y2="34.5344" gradientUnits="userSpaceOnUse">
<stop stop-color="#F8B133"/>
<stop offset="1" stop-color="#D22635"/>
</linearGradient>
</defs>
</svg>
