<svg width="834" height="368" viewBox="0 0 834 368" fill="none" xmlns="http://www.w3.org/2000/svg">
<path d="M300.149 367.454C289.235 367.454 278.194 366.966 267.336 366.004C253.92 364.835 240.585 362.873 227.401 360.127C194.615 353.234 166.058 341.717 142.525 325.897C140.432 324.318 138.261 322.846 136.019 321.486L136.01 321.478C124.61 314.019 100.874 298.491 76.1766 279.329C45.5506 255.565 23.9598 234.363 12.0018 216.308C12.0368 216.365 12.0356 216.379 12.0326 216.387C12.0317 216.389 12.0301 216.392 12.0277 216.394C12.0253 216.395 12.0226 216.395 12.0199 216.395C11.7069 216.395 6.49492 211.376 3.37292 203.32C1.20732 197.865 0.51203 191.936 1.3568 186.128C2.4408 178.785 6.02282 171.54 12.0018 164.598C12.0348 164.581 12.4369 164.154 13.1439 163.398C26.7209 148.919 41.3989 134.491 56.7689 120.518C69.9689 108.518 83.2288 97.2907 96.1918 87.1377C111.019 75.4364 126.487 64.5722 142.526 54.5957C142.535 54.6019 142.547 54.6058 142.558 54.6055C143.485 54.1854 144.371 53.6802 145.205 53.0977L145.233 53.082C151.866 49.015 169.482 38.2099 199.701 27.2969C217.556 20.9136 235.824 15.7533 254.38 11.8525C278.737 6.74578 303.426 3.37105 328.261 1.75293V1.74609C328.792 1.01309 439.003 0.640625 655.832 0.640625C756.626 0.640625 880.741 0.721836 1024.73 0.881836V366.221H328.262C318.917 367.105 309.535 367.517 300.149 367.454V367.454Z" stroke="#D6D5D5"/>
</svg>
