<svg width="18" height="16" viewBox="0 0 18 16" fill="none" xmlns="http://www.w3.org/2000/svg">
<path fill-rule="evenodd" clip-rule="evenodd" d="M17.337 0.409813C17.2233 0.160201 16.9743 0 16.7 0H0.700011C0.425719 0 0.176702 0.160201 0.0629931 0.409813C-0.0507154 0.659425 -0.00815864 0.952449 0.171855 1.1594L6.40001 8.31962V14.7C6.40001 14.9412 6.5242 15.1654 6.72868 15.2934C6.93316 15.4213 7.18911 15.435 7.40605 15.3296L10.606 13.774C10.847 13.6568 11 13.4124 11 13.1444V8.31962L17.2282 1.1594C17.4082 0.952449 17.4507 0.659425 17.337 0.409813ZM15.1634 1.4L9.77186 7.59837C9.66104 7.72577 9.60001 7.88893 9.60001 8.05778V12.7064L7.80001 13.5814V8.05778C7.80001 7.88893 7.73898 7.72577 7.62817 7.59837L2.23665 1.4H15.1634ZM14.7 8.2C14.9762 8.2 15.2 8.42386 15.2 8.7V10.2H16.7C16.9762 10.2 17.2 10.4239 17.2 10.7C17.2 10.9761 16.9762 11.2 16.7 11.2H15.2V12.7C15.2 12.9761 14.9762 13.2 14.7 13.2C14.4239 13.2 14.2 12.9761 14.2 12.7V11.2H12.7C12.4239 11.2 12.2 10.9761 12.2 10.7C12.2 10.4239 12.4239 10.2 12.7 10.2H14.2V8.7C14.2 8.42386 14.4239 8.2 14.7 8.2Z" fill="#666666"/>
</svg>
