<svg width="16" height="16" viewBox="0 0 16 16" fill="none" xmlns="http://www.w3.org/2000/svg">
<path d="M1.78833 5.68555V3.68555C1.78833 3.15511 1.99892 2.6464 2.37372 2.27133C2.74852 1.89626 3.25682 1.68555 3.78687 1.68555H5.7854V0.685547H3.78687C2.9918 0.685547 2.22931 1.00163 1.66711 1.56424C1.10491 2.12685 0.789062 2.8899 0.789062 3.68555V5.68555H1.78833Z" fill="#133769"/>
<path d="M10.7812 1.68555H12.7798C13.3098 1.68555 13.8182 1.89626 14.193 2.27133C14.5678 2.6464 14.7783 3.15511 14.7783 3.68555V5.68555H15.7776V3.68555C15.7776 2.8899 15.4618 2.12685 14.8996 1.56424C14.3374 1.00163 13.5749 0.685547 12.7798 0.685547H10.7812V1.68555Z" fill="#133769"/>
<path d="M5.7854 14.6855H3.78687C3.25682 14.6855 2.74852 14.4748 2.37372 14.0998C1.99892 13.7247 1.78833 13.216 1.78833 12.6855V10.6855H0.789062V12.6855C0.789062 13.4812 1.10491 14.2443 1.66711 14.8069C2.22931 15.3695 2.9918 15.6855 3.78687 15.6855H5.7854V14.6855Z" fill="#133769"/>
<path d="M14.7822 10.6855V12.6855C14.7822 13.216 14.5717 13.7247 14.1969 14.0998C13.8221 14.4748 13.3137 14.6855 12.7837 14.6855H10.7852V15.6855H12.7837C13.5788 15.6855 14.3413 15.3695 14.9035 14.8069C15.4657 14.2443 15.7815 13.4812 15.7815 12.6855V10.6855H14.7822Z" fill="#133769"/>
</svg>
