<svg width="16" height="16" viewBox="0 0 16 16" fill="none" xmlns="http://www.w3.org/2000/svg">
<path fill-rule="evenodd" clip-rule="evenodd" d="M8 7.25C8.59674 7.25 9.16903 7.01295 9.59099 6.59099C10.0129 6.16903 10.25 5.59674 10.25 5C10.25 4.40326 10.0129 3.83097 9.59099 3.40901C9.16903 2.98705 8.59674 2.75 8 2.75C7.40326 2.75 6.83097 2.98705 6.40901 3.40901C5.98705 3.83097 5.75 4.40326 5.75 5C5.75 5.59674 5.98705 6.16903 6.40901 6.59099C6.83097 7.01295 7.40326 7.25 8 7.25ZM2.75 14C2.75 13.3106 2.8858 12.6279 3.14963 11.9909C3.41347 11.354 3.80018 10.7752 4.28769 10.2877C4.7752 9.80018 5.35395 9.41347 5.99091 9.14963C6.62787 8.8858 7.31056 8.75 8 8.75C8.68944 8.75 9.37213 8.8858 10.0091 9.14963C10.646 9.41347 11.2248 9.80018 11.7123 10.2877C12.1998 10.7752 12.5865 11.354 12.8504 11.9909C13.1142 12.6279 13.25 13.3106 13.25 14H2.75Z" fill="white"/>
</svg>
