<svg width="14" height="14" viewBox="0 0 14 14" fill="none" xmlns="http://www.w3.org/2000/svg">
<path fill-rule="evenodd" clip-rule="evenodd" d="M5.909 1.5C3.47398 1.5 1.5 3.47398 1.5 5.909C1.5 8.34402 3.47398 10.318 5.909 10.318C8.34402 10.318 10.318 8.34402 10.318 5.909C10.318 3.47398 8.34402 1.5 5.909 1.5ZM0.5 5.909C0.5 2.92169 2.92169 0.5 5.909 0.5C8.89631 0.5 11.318 2.92169 11.318 5.909C11.318 8.89631 8.89631 11.318 5.909 11.318C2.92169 11.318 0.5 8.89631 0.5 5.909Z" fill="black"/>
<path fill-rule="evenodd" clip-rule="evenodd" d="M9.04879 9.04879C9.24405 8.85353 9.56064 8.85353 9.7559 9.04879L13.2759 12.5688C13.4712 12.7641 13.4712 13.0806 13.2759 13.2759C13.0806 13.4712 12.7641 13.4712 12.5688 13.2759L9.04879 9.7559C8.85353 9.56064 8.85353 9.24405 9.04879 9.04879Z" fill="black"/>
</svg>
