<svg width="18" height="14" viewBox="0 0 18 14" fill="none" xmlns="http://www.w3.org/2000/svg">
<path fill-rule="evenodd" clip-rule="evenodd" d="M17.8261 1.00001C17.8261 0.687511 17.68 0.39298 17.4312 0.203879C17.1824 0.0147789 16.8595 -0.0471472 16.5584 0.0364909L0.732356 4.43262C0.299536 4.55285 0 4.94693 0 5.39614V8.03382C0 8.50252 0.325532 8.90833 0.78307 9.01001L2.64196 9.42309C2.63233 9.62795 2.63891 9.83367 2.6618 10.038C2.71299 10.4949 2.8452 10.9397 3.05389 11.3472C3.26263 11.7547 3.54521 12.1195 3.88999 12.4172C4.23503 12.7151 4.6356 12.9398 5.0706 13.0727C5.50593 13.2058 5.96295 13.2431 6.41386 13.181C6.86459 13.119 7.29493 12.9598 7.68047 12.7173C8.06566 12.475 8.39717 12.1554 8.66002 11.7815C8.85808 11.4998 9.01498 11.1905 9.12774 10.8644L16.6091 12.5269C16.9052 12.5927 17.2152 12.5206 17.4518 12.3308C17.6884 12.141 17.8261 11.854 17.8261 11.5507V1.00001ZM7.14755 10.4243L4.65642 9.87075C4.68513 10.0723 4.74602 10.2637 4.834 10.4354C4.92995 10.6228 5.05483 10.7806 5.197 10.9033C5.3389 11.0258 5.49523 11.1112 5.65529 11.1601C5.81502 11.2089 5.97957 11.2219 6.14124 11.1997C6.30309 11.1774 6.46436 11.1195 6.61566 11.0243C6.76732 10.9289 6.90738 10.797 7.02391 10.6313C7.06944 10.5665 7.11083 10.4973 7.14755 10.4243ZM2 7.23165V6.15623L15.8261 2.31565V10.3041L2 7.23165Z" fill="#005AAA"/>
</svg>
