<svg width="17" height="17" viewBox="0 0 17 17" fill="none" xmlns="http://www.w3.org/2000/svg">
<path opacity="0.99" d="M8.83087 14.2535C8.83899 14.281 8.85319 14.3064 8.87242 14.3277C8.89166 14.349 8.91543 14.3657 8.94199 14.3765C8.96829 14.3861 8.99659 14.3888 9.02422 14.3844C9.05186 14.3801 9.07793 14.3688 9.10001 14.3516L9.82396 13.8683C9.88887 13.8263 9.94186 13.7683 9.97782 13.6999C10.0138 13.6315 10.0315 13.5549 10.0293 13.4777L9.84196 8.34521C9.83591 8.26736 9.85198 8.18939 9.88831 8.12028C9.92464 8.05116 9.97976 7.99372 10.0473 7.95456L12.5678 6.27214C12.6998 6.18476 12.8125 6.07118 12.8989 5.93843C13.1798 5.54483 13.2539 5.20477 13.1211 4.91825C13.1094 4.87252 13.0902 4.82904 13.0642 4.78959C13.0325 4.7441 12.9951 4.70276 12.9531 4.66654C12.9413 4.65044 12.927 4.63634 12.9108 4.62478C12.8868 4.60705 12.8616 4.59105 12.8353 4.57691C12.7344 4.49889 12.6124 4.45303 12.485 4.44527C12.359 4.43007 12.2317 4.42996 12.1056 4.44493L11.9276 4.48329C11.7779 4.52761 11.6361 4.59511 11.5073 4.68334L8.98678 6.36576C8.92471 6.41312 8.85052 6.44199 8.77276 6.44903C8.695 6.45608 8.61683 6.44101 8.54725 6.40557L3.87545 4.25359C3.80494 4.22191 3.72746 4.20893 3.65047 4.2159C3.57349 4.22287 3.4996 4.24956 3.43592 4.2934L2.71197 4.77664C2.68763 4.79043 2.66718 4.81018 2.65255 4.83402C2.63791 4.85787 2.62957 4.88504 2.6283 4.91299C2.62815 4.94169 2.63446 4.97005 2.64675 4.99598C2.65905 5.02192 2.67701 5.04475 2.69932 5.06281L6.31243 7.85625C6.33994 7.8677 6.36284 7.88799 6.37752 7.91391C6.3922 7.93983 6.39782 7.96991 6.39348 7.99938C6.38935 8.02865 6.37881 8.05665 6.36262 8.08137C6.34642 8.1061 6.32497 8.12695 6.29979 8.14243L4.34121 9.44978C4.27804 9.49678 4.2045 9.52791 4.12679 9.54056C4.04907 9.55321 3.96945 9.547 3.89464 9.52246L3.20666 9.2781C3.13185 9.25356 3.05223 9.24735 2.97452 9.26C2.8968 9.27265 2.82326 9.30378 2.76009 9.35078L2.27616 9.67381C2.25182 9.68761 2.23137 9.70735 2.21674 9.7312C2.2021 9.75504 2.19376 9.78221 2.19249 9.81016C2.19229 9.83887 2.19858 9.86725 2.21088 9.89319C2.22317 9.91913 2.24116 9.94196 2.26351 9.95998L3.43212 10.9244C3.55719 11.0242 3.64813 11.1604 3.69233 11.3142L4.13476 12.7634C4.14283 12.7909 4.15701 12.8163 4.17625 12.8376C4.19549 12.8589 4.21929 12.8756 4.24588 12.8864C4.27218 12.8959 4.30047 12.8987 4.32811 12.8943C4.35574 12.8899 4.38182 12.8786 4.40389 12.8614L4.88783 12.5384C4.95546 12.4981 5.01243 12.4421 5.05392 12.3752C5.0954 12.3083 5.12021 12.2324 5.12623 12.1539L5.16444 11.4248C5.17047 11.3463 5.19527 11.2704 5.23676 11.2034C5.27825 11.1365 5.33521 11.0806 5.40285 11.0402L7.3592 9.73438C7.38336 9.71371 7.41229 9.69937 7.44338 9.69268C7.47446 9.68598 7.50673 9.68713 7.53726 9.69602C7.56405 9.70746 7.58693 9.72646 7.6031 9.75069C7.61928 9.77492 7.62804 9.80333 7.62833 9.83246L8.83087 14.2535Z" fill="white"/>
</svg>
