<svg width="8" height="6" viewBox="0 0 8 6" fill="none" xmlns="http://www.w3.org/2000/svg">
<path d="M4.20249 5.19703C4.15568 5.25561 4.09631 5.3029 4.02876 5.33539C3.96121 5.36789 3.88722 5.38477 3.81228 5.38477C3.73733 5.38477 3.66334 5.36789 3.59579 5.33539C3.52824 5.3029 3.46887 5.25561 3.42206 5.19703L0.464228 1.49703C0.405509 1.42344 0.36875 1.33476 0.358181 1.24118C0.347613 1.14761 0.363666 1.05295 0.404491 0.968106C0.445317 0.883261 0.509256 0.811677 0.588947 0.761597C0.668638 0.711517 0.760841 0.684977 0.854942 0.685031L6.77061 0.685031C6.86462 0.685165 6.95669 0.711842 7.03624 0.761996C7.11578 0.81215 7.17957 0.883747 7.22028 0.968556C7.26098 1.05337 7.27695 1.14795 7.26634 1.24143C7.25574 1.33492 7.21899 1.42351 7.16032 1.49703L4.20249 5.19703Z" fill="#133769"/>
</svg>
