<svg width="13" height="8" viewBox="0 0 13 8" fill="none" xmlns="http://www.w3.org/2000/svg">
<path d="M12.2928 0.624786C12.2535 0.585239 12.2068 0.553857 12.1553 0.53244C12.1038 0.511024 12.0486 0.5 11.9928 0.5C11.937 0.5 11.8818 0.511024 11.8303 0.53244C11.7788 0.553857 11.7321 0.585239 11.6928 0.624786L6.4198 5.92981L1.13678 0.624786C1.09747 0.585239 1.05075 0.553857 0.999268 0.53244C0.947782 0.511024 0.892554 0.5 0.836792 0.5C0.78103 0.5 0.725802 0.511024 0.674316 0.53244C0.622831 0.553857 0.576116 0.585239 0.536804 0.624786C0.458142 0.704828 0.414062 0.81258 0.414062 0.924805C0.414062 1.03703 0.458142 1.14475 0.536804 1.22479L6.10876 6.8248C6.14772 6.86484 6.19441 6.89657 6.24597 6.91806C6.29754 6.93955 6.35295 6.95034 6.40881 6.9498C6.52132 6.94898 6.629 6.90411 6.7088 6.8248L12.2808 1.22479C12.3217 1.18664 12.3546 1.14067 12.3774 1.08957C12.4003 1.03847 12.4126 0.983296 12.4138 0.927338C12.4149 0.871379 12.4048 0.815763 12.384 0.763794C12.3632 0.711824 12.3322 0.664548 12.2928 0.624786Z" fill="#0C28A8" stroke="#0C28A8" stroke-width="0.5"/>
</svg>
