<svg width="8" height="14" viewBox="0 0 8 14" fill="none" xmlns="http://www.w3.org/2000/svg">
<path d="M0.90382 0.405414C0.387794 0.596187 0.0500312 1.0309 0.0062471 1.56569C-0.059429 2.36006 0.637988 3.05748 1.43236 2.9918C1.98278 2.94489 2.43939 2.57898 2.60514 2.04732C2.69271 1.7721 2.66456 1.38743 2.53947 1.11847C2.40186 0.827617 2.19858 0.618079 1.91085 0.477345C1.69819 0.371012 1.65128 0.358502 1.37606 0.352247C1.13525 0.342865 1.04143 0.355375 0.90382 0.405414Z" fill="#BCBCBC"/>
<path d="M6.26731 0.397336C5.88889 0.534943 5.62618 0.766373 5.46043 1.11977C5.36661 1.3168 5.36035 1.3512 5.36035 1.67333C5.36035 2.00171 5.36661 2.02986 5.46668 2.23627C5.88263 3.08067 6.98349 3.25894 7.62461 2.58028C8.25323 1.91727 8.06245 0.872705 7.23994 0.469267C7.04604 0.372316 6.98974 0.359807 6.72391 0.353552C6.49561 0.344169 6.38615 0.356679 6.26731 0.397336Z" fill="#BCBCBC"/>
<path d="M1.0602 5.70403C0.797495 5.76032 0.594212 5.87291 0.394056 6.06994C-0.131352 6.59222 -0.131352 7.41473 0.394056 7.94014C0.91321 8.45617 1.70758 8.46868 2.23299 7.97141C2.52071 7.69933 2.65519 7.39284 2.65519 7.00504C2.65519 6.62036 2.52071 6.31075 2.23924 6.04179C2.03596 5.85102 1.86708 5.76345 1.59499 5.70403C1.35105 5.65399 1.2885 5.65399 1.0602 5.70403Z" fill="#BCBCBC"/>
<path d="M6.38929 5.70715C6.13284 5.76345 5.96083 5.85414 5.76068 6.04179C5.47921 6.31075 5.34473 6.62036 5.34473 7.00504C5.34473 7.39284 5.47921 7.69933 5.76693 7.97141C6.29234 8.46868 7.08671 8.45617 7.60586 7.94014C8.13127 7.41473 8.13127 6.59534 7.60586 6.06994C7.40258 5.86978 7.17115 5.74468 6.89593 5.69464C6.67076 5.65399 6.63323 5.65399 6.38929 5.70715Z" fill="#BCBCBC"/>
<path d="M0.995147 11.0525C0.644874 11.1526 0.303984 11.4309 0.144485 11.7468C-0.224552 12.4848 0.153867 13.3668 0.951363 13.617C1.08271 13.6608 1.19843 13.6701 1.40484 13.6608C1.64565 13.6482 1.71133 13.6326 1.91461 13.5325C2.36183 13.3105 2.62767 12.9102 2.64956 12.4129C2.6652 12.0814 2.61203 11.8781 2.44002 11.6123C2.29929 11.3934 2.04909 11.1901 1.80515 11.0963C1.59561 11.0181 1.19218 10.9931 0.995147 11.0525Z" fill="#BCBCBC"/>
<path d="M6.31422 11.0597C5.95144 11.1567 5.64495 11.4194 5.46668 11.7759C5.36661 11.9823 5.36035 12.0104 5.36035 12.3388C5.36035 12.6609 5.36661 12.6953 5.46043 12.8924C5.59804 13.1864 5.80132 13.3928 6.09217 13.5366C6.32047 13.6492 6.33611 13.6523 6.67387 13.6523C7.00538 13.6523 7.02727 13.6461 7.23681 13.546C8.06245 13.1394 8.25323 12.098 7.62461 11.4319C7.28372 11.0722 6.78959 10.9315 6.31422 11.0597Z" fill="#BCBCBC"/>
</svg>
