<svg width="18" height="23" viewBox="0 0 18 23" fill="none" xmlns="http://www.w3.org/2000/svg">
<path d="M0.942003 7.13528C0.892251 7.22518 0.867489 7.32677 0.870302 7.42947C0.873116 7.53218 0.903395 7.63225 0.957995 7.71928L6.622 16.7483V19.6273C6.62289 19.7298 6.65117 19.8302 6.70392 19.9181C6.75667 20.006 6.83196 20.0783 6.922 20.1273L10.757 22.2373C10.8443 22.2855 10.9426 22.3102 11.0423 22.3089C11.1421 22.3076 11.2397 22.2805 11.3258 22.23C11.4118 22.1796 11.4833 22.1077 11.5331 22.0213C11.5829 21.9349 11.6094 21.837 11.61 21.7373V16.7483L17.27 7.72229C17.3247 7.63527 17.3551 7.53518 17.358 7.43244C17.3608 7.3297 17.3361 7.22806 17.2864 7.13811C17.2367 7.04815 17.1638 6.97318 17.0752 6.92097C16.9867 6.86877 16.8858 6.84125 16.783 6.84129H13.735C13.6258 6.3079 13.3358 5.82859 12.914 5.48437C12.4922 5.14015 11.9644 4.95215 11.42 4.95215C10.8756 4.95215 10.3478 5.14015 9.926 5.48437C9.50418 5.82859 9.21418 6.3079 9.105 6.84129H1.44499C1.34248 6.84217 1.24206 6.87046 1.15415 6.92321C1.06623 6.97596 0.994023 7.05125 0.944994 7.14129L0.942003 7.13528ZM11.421 6.10229C11.6585 6.10247 11.8907 6.1723 12.0889 6.30312C12.287 6.43394 12.4425 6.62 12.536 6.83829H10.306C10.3995 6.62 10.555 6.43394 10.7531 6.30312C10.9513 6.1723 11.1835 6.10247 11.421 6.10229ZM15.745 7.98929L10.545 16.2783C10.4874 16.37 10.4569 16.476 10.457 16.5843V20.7663L7.773 19.2893V16.5893C7.77305 16.481 7.74255 16.375 7.685 16.2833L2.485 7.99429L15.745 7.98929Z" fill="white"/>
<path opacity="0.578" d="M7.52568 2.84542C7.52568 2.37807 7.3871 1.9212 7.12745 1.53261C6.8678 1.14402 6.49875 0.841145 6.06697 0.662295C5.63519 0.483446 5.16007 0.43665 4.70169 0.527827C4.24331 0.619004 3.82226 0.844058 3.49179 1.17453C3.16132 1.505 2.93627 1.92605 2.84509 2.38443C2.75391 2.8428 2.8007 3.31792 2.97955 3.74971C3.1584 4.18149 3.46127 4.55053 3.84987 4.81018C4.23846 5.06983 4.69533 5.20842 5.16269 5.20842C5.78939 5.20842 6.39044 4.95946 6.83358 4.51631C7.27673 4.07317 7.52568 3.47213 7.52568 2.84542ZM3.94969 2.84542C3.94969 2.60552 4.02082 2.37099 4.15411 2.17152C4.2874 1.97204 4.47684 1.81657 4.69848 1.72476C4.92013 1.63295 5.16404 1.60893 5.39934 1.65573C5.63463 1.70253 5.85076 1.81806 6.0204 1.9877C6.19004 2.15734 6.30558 2.37348 6.35238 2.60878C6.39919 2.84408 6.37516 3.08797 6.28335 3.30962C6.19154 3.53127 6.03607 3.72071 5.83659 3.854C5.63711 3.98728 5.4026 4.05842 5.16269 4.05842C4.84098 4.05842 4.53244 3.93062 4.30496 3.70314C4.07748 3.47566 3.94969 3.16713 3.94969 2.84542Z" fill="white"/>
</svg>
