<svg width="18" height="25" viewBox="0 0 18 25" fill="none" xmlns="http://www.w3.org/2000/svg">
<path d="M8.5499 11.5516V16.0516H9.4499V11.5516H8.5499Z" fill="#565960"/>
<path d="M8.9999 7.95156C8.50285 7.95156 8.0999 8.35451 8.0999 8.85156C8.0999 9.34862 8.50285 9.75156 8.9999 9.75156C9.49696 9.75156 9.8999 9.34862 9.8999 8.85156C9.8999 8.35451 9.49696 7.95156 8.9999 7.95156Z" fill="#565960"/>
<path fill-rule="evenodd" clip-rule="evenodd" d="M17.0999 12.4516C17.0999 16.9251 13.4734 20.5516 8.9999 20.5516C4.5264 20.5516 0.899902 16.9251 0.899902 12.4516C0.899902 7.97806 4.5264 4.35156 8.9999 4.35156C13.4734 4.35156 17.0999 7.97806 17.0999 12.4516ZM16.1999 12.4516C16.1999 16.428 12.9764 19.6516 8.9999 19.6516C5.02345 19.6516 1.7999 16.428 1.7999 12.4516C1.7999 8.47511 5.02345 5.25156 8.9999 5.25156C12.9764 5.25156 16.1999 8.47511 16.1999 12.4516Z" fill="#565960"/>
</svg>
