<svg width="14" height="15" viewBox="0 0 14 15" fill="none" xmlns="http://www.w3.org/2000/svg">
<path d="M5.79408 0.597581C5.29857 0.699076 4.85977 1.03341 4.62993 1.49014C4.3971 1.95283 4.63888 2.42747 5.12544 2.45732C5.40901 2.47523 5.61796 2.34388 5.77617 2.05134C5.80303 1.99761 5.87169 1.92895 5.92542 1.89611C6.02393 1.83641 6.0687 1.83641 9.21788 1.83641C12.2566 1.83641 12.4178 1.83939 12.5133 1.89014C12.57 1.91999 12.6417 1.99164 12.6715 2.04835C12.7223 2.14388 12.7253 2.33791 12.7253 6.29918C12.7253 10.359 12.7253 10.4515 12.6656 10.544C12.5432 10.744 12.5432 10.744 11.5134 10.7619L10.582 10.7769L10.4537 10.8664C10.2626 11.0008 10.182 11.1769 10.194 11.4217C10.2059 11.6515 10.2835 11.7888 10.4686 11.9202L10.585 12.0008L11.5641 12.0097C12.3909 12.0157 12.573 12.0097 12.7312 11.9709C13.2864 11.8247 13.7402 11.4008 13.9223 10.8485L13.9939 10.6276V6.29918C13.9939 2.18268 13.9909 1.96179 13.9402 1.79163C13.767 1.23043 13.3551 0.81251 12.785 0.624447C12.6297 0.570715 12.4297 0.56773 9.30743 0.56176C6.62391 0.558774 5.95527 0.564745 5.79408 0.597581Z" fill="black"/>
<path d="M1.2175 3.17515C0.671249 3.33038 0.241408 3.74531 0.0652925 4.2886L-0.00634766 4.50652V8.83496C-0.00634766 12.9515 -0.00336265 13.1724 0.0473825 13.3425C0.223498 13.9097 0.650354 14.3366 1.2175 14.5127C1.38765 14.5634 1.57869 14.5664 4.76966 14.5664H8.14272L8.36062 14.4948C8.77853 14.3574 9.13971 14.0589 9.33672 13.6858C9.54269 13.2888 9.53075 13.5962 9.53075 8.84093C9.53075 4.09756 9.54269 4.38114 9.34269 3.99905C9.22031 3.76621 8.883 3.42889 8.65017 3.3065C8.27406 3.10948 8.45017 3.11843 4.75175 3.12142C1.66526 3.12142 1.38168 3.12739 1.2175 3.17515ZM8.07705 4.44085C8.12182 4.46771 8.18152 4.52742 8.20839 4.57219C8.25913 4.64981 8.26212 4.88862 8.26212 8.83496C8.26212 12.8141 8.25913 13.0201 8.20839 13.0977C8.17854 13.1455 8.11287 13.2082 8.05914 13.238C7.9666 13.2947 7.88302 13.2977 4.76966 13.2977C1.73093 13.2977 1.56974 13.2947 1.47422 13.244C1.4175 13.2141 1.34586 13.1425 1.31601 13.0858C1.26526 12.9903 1.26228 12.7962 1.26228 8.84093C1.26228 4.40503 1.25631 4.61697 1.40556 4.48264C1.4384 4.45279 1.50407 4.41697 1.54884 4.40204C1.5966 4.38711 3.06522 4.37816 4.81444 4.38114C7.79944 4.38711 8.00242 4.3901 8.07705 4.44085Z" fill="black"/>
</svg>
