<svg width="22" height="22" viewBox="0 0 22 22" fill="none" xmlns="http://www.w3.org/2000/svg">
<path d="M1.9209 4.26518L1.2286 4.26866C1.2305 4.64828 1.53779 4.95557 1.91742 4.95748L1.9209 4.26518ZM4.26716 4.96928C4.6495 4.9712 4.96102 4.66281 4.96294 4.28046C4.96486 3.89812 4.65646 3.58661 4.27412 3.58469L4.26716 4.96928ZM2.60139 1.91196C2.59946 1.52961 2.28796 1.22121 1.90561 1.22313C1.52326 1.22506 1.21486 1.53657 1.21679 1.91891L2.60139 1.91196ZM1.37827 9C1.37827 8.61766 1.06831 8.30769 0.68596 8.30769C0.303612 8.30769 -0.00634766 8.61766 -0.00634766 9H1.37827ZM13.4941 16.7956C13.8251 16.6041 13.9382 16.1806 13.7468 15.8496C13.5553 15.5187 13.1318 15.4055 12.8009 15.597L13.4941 16.7956ZM15.5907 12.8072C15.3992 13.1382 15.5123 13.5617 15.8433 13.7531C16.1743 13.9446 16.5978 13.8315 16.7892 13.5005L15.5907 12.8072ZM2.66165 2.60424C2.38994 2.87325 2.38775 3.31159 2.65678 3.5833C2.92579 3.85501 3.36412 3.85719 3.63583 3.58818L2.66165 2.60424ZM15.3281 2.66572C11.8017 -0.860622 6.10333 -0.896326 2.60033 2.60668L3.5794 3.58575C6.53242 0.632723 11.3541 0.649883 14.3491 3.64479L15.3281 2.66572ZM2.60033 2.60668L1.43136 3.77564L2.41043 4.75471L3.5794 3.58575L2.60033 2.60668ZM1.91742 4.95748L4.26716 4.96928L4.27412 3.58469L1.92438 3.57288L1.91742 4.95748ZM2.6132 4.2617L2.60139 1.91196L1.21679 1.91891L1.2286 4.26866L2.6132 4.2617ZM8.99365 1.38462C13.1995 1.38462 16.609 4.79414 16.609 9H17.9937C17.9937 4.02943 13.9642 0 8.99365 0V1.38462ZM8.99365 16.6154C4.78779 16.6154 1.37827 13.2058 1.37827 9H-0.00634766C-0.00634766 13.9706 4.02309 18 8.99365 18V16.6154ZM12.8009 15.597C11.6815 16.2446 10.3819 16.6154 8.99365 16.6154V18C10.6318 18 12.1697 17.5617 13.4941 16.7956L12.8009 15.597ZM16.609 9C16.609 10.3882 16.2382 11.6878 15.5907 12.8072L16.7892 13.5005C17.5554 12.176 17.9937 10.6382 17.9937 9H16.609ZM3.63583 3.58818C5.01249 2.22516 6.90423 1.38462 8.99365 1.38462V0C6.52481 0 4.287 0.994994 2.66165 2.60424L3.63583 3.58818Z" fill="#1C274C"/>
<path d="M8.55615 5.23047V9.56381L11.2645 12.2721" stroke="#1C274C" stroke-width="1.4" stroke-linecap="round" stroke-linejoin="round"/>
</svg>
