<svg width="23" height="25" viewBox="0 0 23 25" fill="none" xmlns="http://www.w3.org/2000/svg">
<path fill-rule="evenodd" clip-rule="evenodd" d="M17.2 0.0234375C17.5866 0.0234375 17.9 0.336838 17.9 0.723437V2.02344H20.2C21.6912 2.02344 22.9 3.23227 22.9 4.72344V21.7234C22.9 23.2146 21.6912 24.4234 20.2 24.4234H2.7C1.20883 24.4234 0 23.2146 0 21.7234V4.72344C0 3.23227 1.20883 2.02344 2.7 2.02344H4.5V0.723437C4.5 0.336838 4.8134 0.0234375 5.2 0.0234375C5.5866 0.0234375 5.9 0.336838 5.9 0.723437V2.02344H16.5V0.723437C16.5 0.336838 16.8134 0.0234375 17.2 0.0234375ZM4.5 3.42344V4.72344C4.5 5.11004 4.8134 5.42344 5.2 5.42344C5.5866 5.42344 5.9 5.11004 5.9 4.72344V3.42344H16.5V4.72344C16.5 5.11004 16.8134 5.42344 17.2 5.42344C17.5866 5.42344 17.9 5.11004 17.9 4.72344V3.42344H20.2C20.918 3.42344 21.5 4.00547 21.5 4.72344V7.52344H1.4V4.72344C1.4 4.00547 1.98203 3.42344 2.7 3.42344H4.5ZM1.4 8.92344V21.7234C1.4 22.4414 1.98203 23.0234 2.7 23.0234H20.2C20.918 23.0234 21.5 22.4414 21.5 21.7234V8.92344H1.4Z" fill="#999999"/>
<path opacity="0.963" fill-rule="evenodd" clip-rule="evenodd" d="M19 14.1835C19 14.3567 19 14.5299 19 14.703C18.8987 15.0824 18.6709 15.3604 18.3164 15.537C17.0404 16.0018 15.7643 16.4666 14.4883 16.9315C14.0476 17.9436 13.5964 18.9508 13.1348 19.9528C13.049 20.0208 12.9533 20.0709 12.8477 20.1032C12.2142 20.3402 11.5761 20.5635 10.9336 20.7731C10.6693 20.7458 10.5234 20.6 10.4961 20.3356C10.6788 19.6142 10.8565 18.8941 11.0293 18.1756C10.1397 18.5207 9.24192 18.8443 8.33594 19.1462C7.31538 19.3318 6.49963 19.0082 5.88867 18.1756C5.81791 18.0614 5.75411 17.943 5.69727 17.8201C5.47211 17.1854 5.23969 16.5565 5 15.9335C5 15.8332 5 15.733 5 15.6327C5.0587 15.5148 5.14984 15.4282 5.27344 15.3729C5.60365 15.2598 5.93177 15.1413 6.25781 15.0175C6.36719 14.9992 6.47656 14.9992 6.58594 15.0175C6.97335 15.3094 7.35617 15.6056 7.73438 15.9061C8.64673 15.5762 9.55818 15.2435 10.4688 14.9081C9.79858 14.4409 9.1332 13.9669 8.47266 13.4863C8.29684 13.3151 8.26493 13.1191 8.37695 12.8984C8.44693 12.8155 8.53352 12.7563 8.63672 12.7207C9.29786 12.4745 9.96322 12.2421 10.6328 12.0234C10.9029 12.122 11.1672 12.2359 11.4258 12.3652C12.2763 12.7928 13.1285 13.2166 13.9824 13.6367C14.5246 13.4225 15.076 13.2357 15.6367 13.0761C16.5941 12.8797 17.5146 12.9891 18.3984 13.4042C18.7017 13.5881 18.9023 13.8479 19 14.1835ZM10.5508 12.9257C11.3255 13.2721 12.0911 13.6412 12.8477 14.0331C12.3808 14.2161 11.9114 14.3938 11.4395 14.5663C10.8425 14.1334 10.2454 13.7005 9.64844 13.2675C9.95299 13.1555 10.2538 13.0416 10.5508 12.9257ZM16.2383 13.8281C16.8389 13.7915 17.4131 13.8963 17.9609 14.1425C18.1362 14.2334 18.1954 14.3746 18.1387 14.5663C18.0977 14.662 18.0293 14.7304 17.9336 14.7714C16.6008 15.2491 15.27 15.7321 13.9414 16.2206C13.872 16.2808 13.8127 16.3492 13.7637 16.4256C13.3519 17.3858 12.9326 18.3428 12.5059 19.2966C12.1899 19.4389 11.8664 19.5529 11.5352 19.6384C11.7301 18.9317 11.9124 18.2208 12.082 17.5057C12.0138 17.1479 11.8041 17.0203 11.4531 17.1229C10.3797 17.5202 9.30418 17.9121 8.22656 18.2986C7.57144 18.4539 7.03824 18.2671 6.62695 17.7381C6.54873 17.6181 6.48493 17.4905 6.43555 17.3553C6.28128 16.9198 6.12178 16.4869 5.95703 16.0565C6.08408 15.9777 6.2208 15.9321 6.36719 15.9198C6.71354 16.2023 7.0599 16.4849 7.40625 16.7674C7.53137 16.8078 7.65898 16.8169 7.78906 16.7948C10.4029 15.8415 13.0187 14.8936 15.6367 13.9511C15.8392 13.9008 16.0397 13.8598 16.2383 13.8281Z" fill="#999999"/>
</svg>
