<svg width="23" height="25" viewBox="0 0 23 25" fill="none" xmlns="http://www.w3.org/2000/svg">
<path fill-rule="evenodd" clip-rule="evenodd" d="M17.2 0.0390625C17.5866 0.0390625 17.9 0.352463 17.9 0.739062V2.03906H20.2C21.6912 2.03906 22.9 3.24789 22.9 4.73906V21.7391C22.9 23.2302 21.6912 24.4391 20.2 24.4391H2.7C1.20883 24.4391 0 23.2302 0 21.7391V4.73906C0 3.24789 1.20883 2.03906 2.7 2.03906H4.5V0.739062C4.5 0.352463 4.8134 0.0390625 5.2 0.0390625C5.5866 0.0390625 5.9 0.352463 5.9 0.739062V2.03906H16.5V0.739062C16.5 0.352463 16.8134 0.0390625 17.2 0.0390625ZM4.5 3.43906V4.73906C4.5 5.12566 4.8134 5.43906 5.2 5.43906C5.5866 5.43906 5.9 5.12566 5.9 4.73906V3.43906H16.5V4.73906C16.5 5.12566 16.8134 5.43906 17.2 5.43906C17.5866 5.43906 17.9 5.12566 17.9 4.73906V3.43906H20.2C20.918 3.43906 21.5 4.02109 21.5 4.73906V7.53906H1.4V4.73906C1.4 4.02109 1.98203 3.43906 2.7 3.43906H4.5ZM1.4 8.93906V21.7391C1.4 22.457 1.98203 23.0391 2.7 23.0391H20.2C20.918 23.0391 21.5 22.457 21.5 21.7391V8.93906H1.4Z" fill="#989898"/>
<path d="M15.5138 12.7419C15.4897 12.7467 15.4027 12.766 15.3207 12.7853C15.2144 12.8095 14.5384 13.4517 12.6648 15.3253L10.1537 17.8315L9.0431 16.716C8.42983 16.1028 7.86968 15.5716 7.79241 15.5329C7.47371 15.3591 7.02462 15.4847 6.81215 15.8034C6.69143 15.982 6.66245 16.3587 6.7542 16.5422C6.83146 16.6919 9.64188 19.512 9.80123 19.5989C9.97024 19.6858 10.3372 19.6858 10.5062 19.5989C10.5787 19.5602 11.9018 18.2613 13.447 16.7112C15.8808 14.2678 16.2623 13.8718 16.3057 13.698C16.3878 13.3938 16.2526 13.0461 15.9967 12.8771C15.876 12.7998 15.6007 12.7177 15.5138 12.7419Z" fill="#989898"/>
</svg>
