<svg width="15" height="16" viewBox="0 0 15 16" fill="none" xmlns="http://www.w3.org/2000/svg">
<path d="M11.6832 0.0922041C11.1598 0.171618 10.7158 0.373764 10.2646 0.738349C10.1202 0.853862 7.96517 2.99084 5.46722 5.48879L0.933364 10.0335L0.879218 10.2862C0.121169 13.8057 -0.0196115 14.4987 0.00204705 14.6179C0.0345349 14.7839 0.207803 14.9824 0.373852 15.0366C0.442437 15.0583 0.568779 15.0691 0.651803 15.0583C0.760096 15.0438 4.20019 14.311 4.93297 14.1486C5.03044 14.1233 14.0512 5.13864 14.3508 4.76323C15.3579 3.50342 15.1594 1.65884 13.914 0.680593C13.304 0.204105 12.4413 -0.0233088 11.6832 0.0922041ZM12.4882 1.26176C13.3654 1.44586 13.9682 2.32303 13.8202 3.2002C13.7372 3.70196 13.6072 3.89689 12.8275 4.69103L12.1344 5.39854L10.9071 4.16762L9.6798 2.9403L10.4054 2.21835C11.0335 1.59025 11.1598 1.48196 11.3656 1.39172C11.7626 1.21123 12.0767 1.17513 12.4882 1.26176ZM10.0047 7.5283C9.28995 8.24303 7.73775 9.7844 6.55736 10.954L4.40595 13.0765L2.87902 13.405C2.03795 13.5855 1.34488 13.7299 1.33766 13.7226C1.33405 13.719 1.47483 13.0223 1.65532 12.1813L1.98019 10.6471L5.41307 7.20703L8.84956 3.77054L10.0769 4.99786L11.3042 6.22518L10.0047 7.5283Z" fill="black"/>
</svg>
