<svg width="30" height="29" viewBox="0 0 30 29" fill="none" xmlns="http://www.w3.org/2000/svg">
<path d="M22.1719 7.80025L22.8281 7.14405L21.0938 5.40981V3.25373H20.1562V5.78478L22.1719 7.80025ZM20.625 10.2844C19.9766 10.2844 19.3672 10.1614 18.7969 9.91532C18.2266 9.66924 17.7305 9.33529 17.3086 8.91344C16.8867 8.4916 16.5527 7.99555 16.3066 7.42528C16.0605 6.85501 15.9375 6.24568 15.9375 5.59729C15.9375 4.94891 16.0605 4.33958 16.3066 3.76931C16.5527 3.19904 16.8867 2.70299 17.3086 2.28114C17.7305 1.8593 18.2266 1.52534 18.7969 1.27927C19.3672 1.03319 19.9766 0.910156 20.625 0.910156C21.2734 0.910156 21.8828 1.03319 22.4531 1.27927C23.0234 1.52534 23.5195 1.8593 23.9414 2.28114C24.3633 2.70299 24.6973 3.19904 24.9434 3.76931C25.1895 4.33958 25.3125 4.94891 25.3125 5.59729C25.3125 6.24568 25.1895 6.85501 24.9434 7.42528C24.6973 7.99555 24.3633 8.4916 23.9414 8.91344C23.5195 9.33529 23.0234 9.66924 22.4531 9.91532C21.8828 10.1614 21.2734 10.2844 20.625 10.2844ZM20.625 9.347C21.6641 9.347 22.5488 8.9818 23.2793 8.25139C24.0098 7.52097 24.375 6.63628 24.375 5.59729C24.375 4.55831 24.0098 3.67361 23.2793 2.9432C22.5488 2.21279 21.6641 1.84758 20.625 1.84758C19.5859 1.84758 18.7012 2.21279 17.9707 2.9432C17.2402 3.67361 16.875 4.55831 16.875 5.59729C16.875 6.63628 17.2402 7.52097 17.9707 8.25139C18.7012 8.9818 19.5859 9.347 20.625 9.347Z" fill="#999999"/>
<path opacity="0.963" d="M12.8691 22.3292C10.968 23.0668 9.0495 23.7583 7.11349 24.4037C6.04512 24.5964 5.09193 24.5221 4.24907 24.1878C3.40511 23.853 2.66195 23.2538 2.02092 22.3816C1.8746 22.1451 1.74246 21.8998 1.62448 21.6454C1.14521 20.2945 0.650589 18.956 0.14062 17.6297V17.6294V17.6282V17.6269V17.6256V17.6244V17.6231V17.6219V17.6206V17.6193V17.6181V17.6168V17.6156V17.6143V17.613V17.6118V17.6105V17.6093V17.608V17.6068V17.6055V17.6042V17.603V17.6017V17.6005V17.5992V17.5979V17.5967V17.5954V17.5942V17.5929V17.5916V17.5904V17.5891V17.5879V17.5866V17.5854V17.5841V17.5828V17.5816V17.5803V17.5791V17.5778V17.5765V17.5753V17.574V17.5728V17.5715V17.5702V17.569V17.5677V17.5665V17.5652V17.564V17.5627V17.5614V17.5602V17.5589V17.5577V17.5564V17.5551V17.5539V17.5526V17.5514V17.5501V17.5488V17.5476V17.5463V17.5451V17.5438V17.5426V17.5413V17.54V17.5388V17.5375V17.5363V17.535V17.5337V17.5325V17.5312V17.53V17.5287V17.5274V17.5262V17.5249V17.5237V17.5224V17.5212V17.5199V17.5186V17.5174V17.5161V17.5149V17.5136V17.5123V17.5111V17.5098V17.5086V17.5073V17.5061V17.5048V17.5035V17.5023V17.501V17.4998V17.4985V17.4972V17.496V17.4947V17.4935V17.4922V17.4909V17.4897V17.4884V17.4872V17.4859V17.4847V17.4834V17.4821V17.4809V17.4796V17.4784V17.4771V17.4758V17.4746V17.4733V17.4721V17.4708V17.4695V17.4683V17.467V17.4658V17.4645V17.4633V17.462V17.4607V17.4595V17.4582V17.457V17.4557V17.4544V17.4532V17.4519V17.4507V17.4494V17.4481V17.4469V17.4456V17.4444V17.4431V17.4419V17.4406V17.4393V17.4381V17.4368V17.4356V17.4343V17.433V17.4318V17.4305V17.4293V17.428V17.4267V17.4255V17.4242V17.423V17.4217V17.4205V17.4192V17.4179V17.4167V17.4154V17.4142V17.4129V17.4116V17.4104V17.4091V17.4079V17.4066V17.4053V17.4041V17.4028V17.4016V17.4003V17.3991V17.3978V17.3965V17.3953V17.394V17.3928V17.3915V17.3902V17.389V17.3877V17.3865V17.3852V17.384V17.3827V17.3814V17.3802V17.3789V17.3777V17.3764V17.3751V17.3739V17.3726V17.3714V17.3701V17.3688V17.3676V17.3663V17.3651V17.3638V17.3626V17.3613V17.36V17.3588V17.3575V17.3563V17.355V17.3537V17.3525V17.3512V17.35V17.3487V17.3474V17.3462V17.3449V17.3437V17.3424V17.3412V17.3399V17.3386V17.3374V17.3361V17.3349V17.3336V17.3323V17.3311V17.3298V17.3286V17.3273V17.326V17.3248V17.3235V17.3223V17.321V17.3198V17.3185V17.3172V17.316V17.3147V17.3135V17.3122V17.3109V17.3097V17.3084V17.3072V17.3059V17.3047V17.3034V17.3021V17.3009V17.2996V17.2984V17.2971V17.2958V17.2946V17.2933V17.2921V17.2908V17.2895V17.2883V17.287V17.2858V17.2845V17.2833V17.282V17.2807V17.2795V17.2782V17.277V17.2757V17.2744V17.2732V17.2719V17.2707V17.2694V17.2681V17.2669V17.2656V17.2644V17.2631V17.2619V17.2606V17.2593V17.2581V17.2568V17.2556V17.2543V17.253V17.2518V17.2505V17.2493V17.248V17.2467V17.2455V17.2442V17.243V17.2417V17.2405V17.2392V17.2379V17.2367V17.2354V17.2342V17.2329V17.2316V17.2304V17.2291V17.2279V17.2266V17.2253V17.2241V17.2228V17.2216V17.2203V17.2191V17.2178V17.2165V17.2153V17.214V17.2128V17.2115V17.2102V17.209V17.2077V17.2065V17.2052V17.204V17.2027V17.2014V17.2002V17.1989V17.1977V17.1964V17.1951V17.1939V17.1926V17.1914V17.1901V17.1888V17.1876V17.1863V17.1851V17.1838V17.1826V17.1813V17.18V17.1788V17.1775V17.1763V17.175V17.1737V17.1725V17.1712V17.17V17.1687V17.1674V17.1662V17.1649V17.1637V17.1624V17.1612V17.1599V17.1586V17.1574V17.1561V17.1549V17.1536V17.1523V17.1511V17.1498V17.1486V17.1473V17.146V17.1448V17.1435V17.1423V17.141V17.1398V17.1385V17.1372V17.136V17.1347V17.1335V17.1322V17.1309V17.1297V17.1284V17.1272V17.1259V17.1246V17.1234V17.1221V17.1209V17.1196V17.1184V17.1171V17.1158V17.1146V17.1133V17.1121V17.1108V17.1095V17.1083V17.107V17.1058V17.1045V17.1032V17.102V17.1007V17.0995V17.0982V17.097V17.0957V17.0944V17.0932V17.0919V17.0907V17.0894V17.0881V17.0869V17.0856V17.0844V17.0831V17.0818V17.0806V17.0793V17.0781V17.0768V17.0756V17.0743V17.073V17.0718V17.0705V17.0693V17.068V17.0667V17.0655V17.0642V17.063V17.0617V17.0604V17.0592V17.0579V17.0567V17.0554V17.0542V17.0529V17.0516V17.0504V17.0491V17.0479V17.0466V17.0454C0.250683 16.8392 0.414799 16.6867 0.637698 16.5856C1.34019 16.345 2.03829 16.0929 2.73198 15.8295C2.93535 15.797 3.13846 15.796 3.34181 15.8265C4.16148 16.4444 4.9715 17.0713 5.77189 17.7074L5.83336 17.7562L5.9072 17.7295C7.8625 17.0224 9.81586 16.3095 11.7674 15.5906L12.0203 15.4975L11.7992 15.3433C10.3667 14.3446 8.94442 13.3317 7.53248 12.3043C7.36499 12.1391 7.27426 11.9707 7.24635 11.7993C7.21868 11.6293 7.25032 11.4411 7.35435 11.2306C7.4859 11.079 7.64667 10.9706 7.83883 10.9043L7.83884 10.9044L7.84204 10.9032C9.24175 10.382 10.6503 9.88963 12.0677 9.42614C12.6256 9.63161 13.1718 9.86804 13.7065 10.1354C15.5294 11.0517 17.3559 11.96 19.186 12.8604L19.2418 12.8879L19.2997 12.865C20.4555 12.4085 21.6311 12.0101 22.8264 11.6698C24.8438 11.2569 26.7816 11.4869 28.6444 12.3603C29.2554 12.7325 29.6587 13.253 29.8594 13.9263V13.9278V13.9299V13.9321V13.9343V13.9365V13.9386V13.9408V13.943V13.9452V13.9473V13.9495V13.9517V13.9539V13.956V13.9582V13.9604V13.9626V13.9647V13.9669V13.9691V13.9713V13.9734V13.9756V13.9778V13.98V13.9821V13.9843V13.9865V13.9886V13.9908V13.993V13.9952V13.9973V13.9995V14.0017V14.0039V14.006V14.0082V14.0104V14.0126V14.0147V14.0169V14.0191V14.0213V14.0234V14.0256V14.0278V14.03V14.0321V14.0343V14.0365V14.0387V14.0408V14.043V14.0452V14.0474V14.0495V14.0517V14.0539V14.056V14.0582V14.0604V14.0626V14.0647V14.0669V14.0691V14.0713V14.0734V14.0756V14.0778V14.08V14.0821V14.0843V14.0865V14.0887V14.0908V14.093V14.0952V14.0974V14.0995V14.1017V14.1039V14.1061V14.1082V14.1104V14.1126V14.1148V14.1169V14.1191V14.1213V14.1235V14.1256V14.1278V14.13V14.1321V14.1343V14.1365V14.1387V14.1408V14.143V14.1452V14.1474V14.1495V14.1517V14.1539V14.1561V14.1582V14.1604V14.1626V14.1648V14.1669V14.1691V14.1713V14.1735V14.1756V14.1778V14.18V14.1822V14.1843V14.1865V14.1887V14.1909V14.193V14.1952V14.1974V14.1996V14.2017V14.2039V14.2061V14.2082V14.2104V14.2126V14.2148V14.2169V14.2191V14.2213V14.2235V14.2256V14.2278V14.23V14.2322V14.2343V14.2365V14.2387V14.2409V14.243V14.2452V14.2474V14.2496V14.2517V14.2539V14.2561V14.2583V14.2604V14.2626V14.2648V14.267V14.2691V14.2713V14.2735V14.2757V14.2778V14.28V14.2822V14.2843V14.2865V14.2887V14.2909V14.293V14.2952V14.2974V14.2996V14.3017V14.3039V14.3061V14.3083V14.3104V14.3126V14.3148V14.317V14.3191V14.3213V14.3235V14.3257V14.3278V14.33V14.3322V14.3344V14.3365V14.3387V14.3409V14.3431V14.3452V14.3474V14.3496V14.3518V14.3539V14.3561V14.3583V14.3605V14.3626V14.3648V14.367V14.3691V14.3713V14.3735V14.3757V14.3778V14.38V14.3822V14.3844V14.3865V14.3887V14.3909V14.3931V14.3952V14.3974V14.3996V14.4018V14.4039V14.4061V14.4083V14.4105V14.4126V14.4148V14.417V14.4192V14.4213V14.4235V14.4257V14.4279V14.43V14.4322V14.4344V14.4366V14.4387V14.4409V14.4431V14.4452V14.4474V14.4496V14.4518V14.4539V14.4561V14.4583V14.4605V14.4626V14.4648V14.467V14.4692V14.4713V14.4735V14.4757V14.4779V14.48V14.4822V14.4844V14.4866V14.4887V14.4909V14.4931V14.4953V14.4974V14.4996V14.5018V14.504V14.5061V14.5083V14.5105V14.5127V14.5148V14.517V14.5192V14.5214V14.5235V14.5257V14.5279V14.53V14.5322V14.5344V14.5366V14.5387V14.5409V14.5431V14.5453V14.5474V14.5496V14.5518V14.554V14.5561V14.5583V14.5605V14.5627V14.5648V14.567V14.5692V14.5714V14.5735V14.5757V14.5779V14.5801V14.5822V14.5844V14.5866V14.5888V14.5909V14.5931V14.5953V14.5975V14.5996V14.6018V14.604V14.6061V14.6083V14.6105V14.6127V14.6148V14.617V14.6192V14.6214V14.6235V14.6257V14.6279V14.6301V14.6322V14.6344V14.6366V14.6388V14.6409V14.6431V14.6453V14.6475V14.6496V14.6518V14.654V14.6562V14.6583V14.6605V14.6627V14.6649V14.667V14.6692V14.6714V14.6736V14.6757V14.6779V14.6801V14.6823V14.6844V14.6866V14.6888V14.6909V14.6931V14.6953V14.6975V14.6996V14.7018V14.704V14.7062V14.7083V14.7105V14.7127V14.7149V14.717V14.7192V14.7214V14.7236V14.7257V14.7279V14.7301V14.7323V14.7344V14.7366V14.7388V14.741V14.7431V14.7453V14.7475V14.7497V14.7518V14.754V14.7562V14.7584V14.7605V14.7627V14.7649V14.767V14.7692V14.7714V14.7736V14.7757V14.7779V14.7801V14.7823V14.7844V14.7866V14.7888V14.791V14.7931V14.7953V14.7975V14.7997V14.8018V14.804V14.8062V14.8084V14.8105V14.8127V14.8149V14.8171V14.8192V14.8214V14.8236V14.8258V14.8279V14.8301V14.8323V14.8345V14.8366V14.8388V14.841V14.8431V14.8453V14.8475V14.8497V14.8518V14.854V14.8562V14.8584V14.8605V14.8627V14.8649V14.8671V14.8692V14.8714V14.8736V14.8758V14.8779V14.8801V14.8823V14.8845V14.8866V14.8888V14.891V14.8932V14.8953V14.8975V14.8997V14.9019V14.904V14.9062V14.9084V14.9105V14.9127V14.9149V14.9171V14.9192V14.9214V14.9236V14.9258V14.9279V14.9301V14.9323V14.9345V14.9366V14.9388V14.941V14.9432V14.9453V14.9475V14.9497V14.9519V14.954V14.9562V14.9584V14.9606V14.9627V14.9649V14.9671V14.9693V14.9714V14.9736V14.9758V14.9779V14.9801V14.9823V14.9845V14.9866V14.9888V14.991V14.9932V14.9953V14.9975V14.9997V15.0006C29.6513 15.7627 29.1938 16.319 28.4795 16.6769L20.2839 19.6623L20.2272 19.683L20.2031 19.7383C19.2638 21.8958 18.3022 24.0426 17.3183 26.1787C17.1551 26.3031 16.9744 26.3956 16.7753 26.4565L16.7752 26.4562L16.7671 26.4593C15.421 26.9628 14.0654 27.4375 12.7002 27.8833C12.4549 27.8533 12.2778 27.7714 12.1551 27.6487C12.0316 27.5252 11.9494 27.3466 11.9199 27.0988C12.3093 25.5605 12.6882 24.0253 13.0566 22.4932L13.1194 22.2321L12.8691 22.3292ZM11.9519 11.0825L11.8982 11.0585L11.8434 11.0798C11.2079 11.3277 10.5642 11.5715 9.91239 11.8113L9.66493 11.9023L9.87839 12.0571L13.7163 14.8401L13.7768 14.8841L13.8471 14.8584C14.8595 14.4884 15.8664 14.1072 16.8677 13.7147L17.1564 13.6015L16.8811 13.4589C15.2576 12.6178 13.6145 11.8257 11.9519 11.0825ZM24.0735 13.004L24.0734 13.0033L24.0598 13.0055C23.6303 13.0741 23.1967 13.1628 22.7591 13.2715L22.7521 13.2733L22.7453 13.2757C17.1393 15.2939 11.5377 17.3236 5.94062 19.3649C5.697 19.4045 5.45875 19.3885 5.22419 19.3168L4.13186 18.4258L3.01857 17.5176L2.97453 17.4817L2.91788 17.4864C2.58167 17.5148 2.26741 17.6197 1.97666 17.8L1.87791 17.8613L1.91946 17.9698C2.27207 18.8909 2.61345 19.8175 2.94362 20.7495L2.94408 20.7508C3.05356 21.0506 3.19506 21.3336 3.36853 21.5997L3.36812 21.5999L3.37531 21.6092C3.82944 22.1933 4.35653 22.5954 4.95776 22.806C5.55894 23.0167 6.22351 23.0322 6.9465 22.8608L6.95415 22.859L6.96154 22.8563C9.26959 22.0284 11.5731 21.1891 13.8722 20.3382C14.2266 20.2355 14.4796 20.2576 14.6561 20.3649C14.8283 20.4698 14.961 20.6763 15.0319 21.0221C14.6707 22.5428 14.2829 24.0546 13.8683 25.5575L13.8037 25.7918L14.0391 25.7311C14.7567 25.5458 15.4576 25.299 16.1417 24.9908L16.1905 24.9688L16.2123 24.92C17.1256 22.8791 18.0228 20.8314 18.9039 18.7768C18.9958 18.6353 19.1056 18.5078 19.2333 18.394C22.0718 17.3505 24.9148 16.3186 27.7623 15.2981L27.7624 15.2984L27.7702 15.295C28.0085 15.1929 28.1814 15.02 28.2835 14.7817L28.2868 14.7741L28.2891 14.7662C28.3563 14.5393 28.3593 14.3261 28.2799 14.1368C28.2004 13.9472 28.0465 13.8014 27.8382 13.6933L27.8383 13.6931L27.8311 13.6899C26.6364 13.1529 25.3832 12.9242 24.0735 13.004Z" fill="#999999" stroke="white" stroke-width="0.281239"/>
<g opacity="0.963">
<mask id="path-3-inside-1_1811_10974" fill="white">
<path fill-rule="evenodd" clip-rule="evenodd" d="M20.332 19.7944L28.5352 16.8063C29.2948 16.428 29.783 15.8323 30 15.0193V13.906C29.7906 13.1868 29.3609 12.6302 28.7109 12.2362C26.8171 11.3465 24.8444 11.1122 22.793 11.5331C21.5915 11.875 20.4098 12.2753 19.248 12.7342C17.4183 11.834 15.5921 10.9259 13.7695 10.0097C13.2155 9.73265 12.6492 9.48852 12.0703 9.27734C10.6355 9.74584 9.20971 10.2439 7.79297 10.7714C7.57184 10.8477 7.38627 10.9747 7.23633 11.1523C6.99627 11.6251 7.06465 12.0451 7.44141 12.412C8.78647 13.3907 10.1409 14.3564 11.5046 15.3092C11.5759 15.3591 11.6473 15.4089 11.7188 15.4587C11.637 15.4888 11.5553 15.5189 11.4736 15.549C9.60394 16.2371 7.73255 16.9198 5.85938 17.5973C5.04893 16.9532 4.22862 16.3185 3.39844 15.6931C3.16406 15.654 2.92969 15.654 2.69531 15.6931C1.99666 15.9585 1.29353 16.2124 0.585938 16.4547C0.321096 16.5732 0.125783 16.7588 0 17.0114V17.6559C0.513612 18.9909 1.01166 20.3385 1.49414 21.6986C1.61596 21.9619 1.75267 22.2158 1.9043 22.4603C3.21349 24.2446 4.96154 24.9379 7.14844 24.5403C9.00735 23.9207 10.8502 23.2587 12.6769 22.5543C12.7579 22.5231 12.8389 22.4917 12.9199 22.4603C12.8996 22.5448 12.8793 22.6293 12.8589 22.7137C12.5078 24.1694 12.1473 25.6278 11.7773 27.089C11.8359 27.6554 12.1484 27.9679 12.7148 28.0265C14.0917 27.5773 15.4589 27.0988 16.8164 26.591C17.0428 26.5218 17.2478 26.4144 17.4316 26.2687C18.4209 24.1214 19.3877 21.9633 20.332 19.7944ZM17.2591 26.1311C18.2401 24.001 19.1989 21.8603 20.1356 19.7089L20.1723 19.6246L28.4503 16.6092C29.1409 16.262 29.5824 15.7262 29.7857 14.9907V13.9371C29.5897 13.2877 29.2001 12.7861 28.6094 12.4253C26.763 11.5604 24.8435 11.3327 22.8439 11.7414C21.6519 12.0809 20.4795 12.4782 19.3268 12.9335L19.2386 12.9683L19.1534 12.9265C17.3232 12.026 15.4964 11.1176 13.6733 10.2012C13.1488 9.93889 12.6132 9.70654 12.0662 9.50412C10.658 9.96497 9.25851 10.4543 7.86775 10.9722L7.86287 10.974C7.6859 11.0351 7.53805 11.1337 7.41621 11.2718C7.32076 11.4682 7.29474 11.6381 7.31906 11.7874C7.34372 11.9389 7.42392 12.0925 7.58035 12.2481C8.9904 13.274 10.4108 14.2856 11.8413 15.2829L12.1782 15.5178L11.7928 15.6598C9.84119 16.3786 7.88769 17.0916 5.93225 17.7988L5.81973 17.8395L5.72605 17.765C4.93107 17.1333 4.12657 16.5105 3.31254 15.8966C3.12527 15.8704 2.93831 15.8719 2.751 15.9011C2.06002 16.1634 1.36467 16.4144 0.664953 16.6542C0.463861 16.746 0.315809 16.8817 0.214286 17.0642V17.6156C0.722344 18.9372 1.21516 20.2715 1.69275 21.6176C1.80872 21.8673 1.93847 22.1081 2.08202 22.3403C2.71593 23.2021 3.448 23.7908 4.27623 24.1193C5.1028 24.4472 6.04001 24.5217 7.09522 24.3322C9.0284 23.6876 10.9441 22.997 12.8424 22.2605L13.224 22.1125L13.1283 22.5104C12.7608 24.0384 12.3829 25.5694 11.9947 27.1035C12.0241 27.3322 12.1003 27.4898 12.2072 27.5966C12.3129 27.7024 12.4683 27.7781 12.6931 27.8081C14.052 27.3642 15.4014 26.8915 16.7413 26.3903L16.7536 26.3857C16.9386 26.3291 17.1068 26.2447 17.2591 26.1311ZM11.9002 10.9787L11.982 11.0152C13.6459 11.759 15.2902 12.5518 16.915 13.3935L17.3345 13.6109L16.8946 13.7833C15.8927 14.176 14.8853 14.5574 13.8724 14.9276L13.7653 14.9667L9.50987 11.8808L9.88696 11.7421C10.5383 11.5026 11.1815 11.2589 11.8167 11.0112L11.9002 10.9787ZM24.0586 12.9311L24.069 12.9305C25.3906 12.8499 26.6557 13.0808 27.8613 13.6227L27.8722 13.6276C28.0914 13.7413 28.26 13.8987 28.3479 14.1083C28.4356 14.3175 28.4303 14.549 28.3598 14.7871L28.3562 14.7992L28.3513 14.8107C28.2417 15.0664 28.0549 15.2531 27.7993 15.3627L27.7873 15.3678C24.9445 16.3867 22.1059 17.4165 19.272 18.4582C19.1551 18.5639 19.0542 18.6817 18.9691 18.8117C18.0886 20.8646 17.1921 22.9108 16.2796 24.9501L16.2463 25.0244L16.172 25.0579C15.484 25.3678 14.7792 25.616 14.0575 25.8024L13.6989 25.895L13.7973 25.538C14.2101 24.0412 14.5965 22.5355 14.9564 21.0211C14.8871 20.6961 14.7634 20.5165 14.6178 20.4279C14.4664 20.3358 14.2381 20.3093 13.8953 20.4082C11.5968 21.2588 9.29385 22.098 6.98642 22.9257L6.97515 22.9297L6.9635 22.9325C6.22946 23.1065 5.55024 23.0917 4.93339 22.8756C4.31647 22.6594 3.77833 22.2476 3.31715 21.6544L3.31168 21.6473L3.30682 21.6399C3.13028 21.3691 2.98627 21.0811 2.87489 20.7761L2.87417 20.7741C2.54421 19.8426 2.20305 18.9167 1.85066 17.9961L1.78735 17.8308L1.93783 17.7374C2.23827 17.5511 2.56369 17.4424 2.9117 17.413L2.99802 17.4058L5.25942 19.2505C5.47652 19.3147 5.69661 19.329 5.92199 19.2933C11.517 17.2528 17.1165 15.2239 22.7204 13.2064L22.7307 13.2027L22.7413 13.2001C23.1809 13.0908 23.6166 13.0017 24.0482 12.9328L24.0586 12.9311ZM5.97656 19.5015C5.69781 19.5489 5.42437 19.5294 5.15625 19.4429L2.92969 17.6266C2.61599 17.653 2.32303 17.7507 2.05078 17.9195C2.40381 18.8417 2.74561 19.7694 3.07617 20.7026C3.182 20.9924 3.31871 21.2658 3.48633 21.5229C4.36766 22.6565 5.51024 23.0568 6.91406 22.724C9.22324 21.8957 11.5279 21.0559 13.8281 20.2046C14.5803 19.9848 15.0295 20.2582 15.1758 21.0248C14.8313 22.4767 14.4626 23.9204 14.0695 25.356C14.0477 25.4357 14.0259 25.5153 14.0039 25.5949C14.0841 25.5742 14.1641 25.5527 14.2439 25.5305C14.8702 25.3557 15.4835 25.133 16.084 24.8625C16.9985 22.8187 17.897 20.768 18.7793 18.7105C18.8844 18.5467 19.0113 18.4003 19.1602 18.2711C22.0072 17.2244 24.8588 16.1893 27.7148 15.1657C27.9199 15.0778 28.0664 14.9314 28.1543 14.7263C28.2759 14.3155 28.1489 14.0128 27.7734 13.8181C26.5995 13.2905 25.369 13.0659 24.082 13.1443C23.6566 13.2123 23.2269 13.3002 22.793 13.408C17.183 15.4276 11.5775 17.4588 5.97656 19.5015ZM16.5506 13.6876C15.638 14.0432 14.7207 14.3894 13.7988 14.7263L9.96094 11.9432C10.0417 11.9135 10.1223 11.8838 10.2028 11.8539C10.7729 11.6427 11.3368 11.4283 11.8945 11.2108C13.4682 11.9143 15.0243 12.6616 16.5628 13.4529C16.6474 13.4964 16.7319 13.54 16.8164 13.5838C16.7279 13.6185 16.6393 13.6531 16.5506 13.6876Z"/>
</mask>
<path fill-rule="evenodd" clip-rule="evenodd" d="M20.332 19.7944L28.5352 16.8063C29.2948 16.428 29.783 15.8323 30 15.0193V13.906C29.7906 13.1868 29.3609 12.6302 28.7109 12.2362C26.8171 11.3465 24.8444 11.1122 22.793 11.5331C21.5915 11.875 20.4098 12.2753 19.248 12.7342C17.4183 11.834 15.5921 10.9259 13.7695 10.0097C13.2155 9.73265 12.6492 9.48852 12.0703 9.27734C10.6355 9.74584 9.20971 10.2439 7.79297 10.7714C7.57184 10.8477 7.38627 10.9747 7.23633 11.1523C6.99627 11.6251 7.06465 12.0451 7.44141 12.412C8.78647 13.3907 10.1409 14.3564 11.5046 15.3092C11.5759 15.3591 11.6473 15.4089 11.7188 15.4587C11.637 15.4888 11.5553 15.5189 11.4736 15.549C9.60394 16.2371 7.73255 16.9198 5.85938 17.5973C5.04893 16.9532 4.22862 16.3185 3.39844 15.6931C3.16406 15.654 2.92969 15.654 2.69531 15.6931C1.99666 15.9585 1.29353 16.2124 0.585938 16.4547C0.321096 16.5732 0.125783 16.7588 0 17.0114V17.6559C0.513612 18.9909 1.01166 20.3385 1.49414 21.6986C1.61596 21.9619 1.75267 22.2158 1.9043 22.4603C3.21349 24.2446 4.96154 24.9379 7.14844 24.5403C9.00735 23.9207 10.8502 23.2587 12.6769 22.5543C12.7579 22.5231 12.8389 22.4917 12.9199 22.4603C12.8996 22.5448 12.8793 22.6293 12.8589 22.7137C12.5078 24.1694 12.1473 25.6278 11.7773 27.089C11.8359 27.6554 12.1484 27.9679 12.7148 28.0265C14.0917 27.5773 15.4589 27.0988 16.8164 26.591C17.0428 26.5218 17.2478 26.4144 17.4316 26.2687C18.4209 24.1214 19.3877 21.9633 20.332 19.7944ZM17.2591 26.1311C18.2401 24.001 19.1989 21.8603 20.1356 19.7089L20.1723 19.6246L28.4503 16.6092C29.1409 16.262 29.5824 15.7262 29.7857 14.9907V13.9371C29.5897 13.2877 29.2001 12.7861 28.6094 12.4253C26.763 11.5604 24.8435 11.3327 22.8439 11.7414C21.6519 12.0809 20.4795 12.4782 19.3268 12.9335L19.2386 12.9683L19.1534 12.9265C17.3232 12.026 15.4964 11.1176 13.6733 10.2012C13.1488 9.93889 12.6132 9.70654 12.0662 9.50412C10.658 9.96497 9.25851 10.4543 7.86775 10.9722L7.86287 10.974C7.6859 11.0351 7.53805 11.1337 7.41621 11.2718C7.32076 11.4682 7.29474 11.6381 7.31906 11.7874C7.34372 11.9389 7.42392 12.0925 7.58035 12.2481C8.9904 13.274 10.4108 14.2856 11.8413 15.2829L12.1782 15.5178L11.7928 15.6598C9.84119 16.3786 7.88769 17.0916 5.93225 17.7988L5.81973 17.8395L5.72605 17.765C4.93107 17.1333 4.12657 16.5105 3.31254 15.8966C3.12527 15.8704 2.93831 15.8719 2.751 15.9011C2.06002 16.1634 1.36467 16.4144 0.664953 16.6542C0.463861 16.746 0.315809 16.8817 0.214286 17.0642V17.6156C0.722344 18.9372 1.21516 20.2715 1.69275 21.6176C1.80872 21.8673 1.93847 22.1081 2.08202 22.3403C2.71593 23.2021 3.448 23.7908 4.27623 24.1193C5.1028 24.4472 6.04001 24.5217 7.09522 24.3322C9.0284 23.6876 10.9441 22.997 12.8424 22.2605L13.224 22.1125L13.1283 22.5104C12.7608 24.0384 12.3829 25.5694 11.9947 27.1035C12.0241 27.3322 12.1003 27.4898 12.2072 27.5966C12.3129 27.7024 12.4683 27.7781 12.6931 27.8081C14.052 27.3642 15.4014 26.8915 16.7413 26.3903L16.7536 26.3857C16.9386 26.3291 17.1068 26.2447 17.2591 26.1311ZM11.9002 10.9787L11.982 11.0152C13.6459 11.759 15.2902 12.5518 16.915 13.3935L17.3345 13.6109L16.8946 13.7833C15.8927 14.176 14.8853 14.5574 13.8724 14.9276L13.7653 14.9667L9.50987 11.8808L9.88696 11.7421C10.5383 11.5026 11.1815 11.2589 11.8167 11.0112L11.9002 10.9787ZM24.0586 12.9311L24.069 12.9305C25.3906 12.8499 26.6557 13.0808 27.8613 13.6227L27.8722 13.6276C28.0914 13.7413 28.26 13.8987 28.3479 14.1083C28.4356 14.3175 28.4303 14.549 28.3598 14.7871L28.3562 14.7992L28.3513 14.8107C28.2417 15.0664 28.0549 15.2531 27.7993 15.3627L27.7873 15.3678C24.9445 16.3867 22.1059 17.4165 19.272 18.4582C19.1551 18.5639 19.0542 18.6817 18.9691 18.8117C18.0886 20.8646 17.1921 22.9108 16.2796 24.9501L16.2463 25.0244L16.172 25.0579C15.484 25.3678 14.7792 25.616 14.0575 25.8024L13.6989 25.895L13.7973 25.538C14.2101 24.0412 14.5965 22.5355 14.9564 21.0211C14.8871 20.6961 14.7634 20.5165 14.6178 20.4279C14.4664 20.3358 14.2381 20.3093 13.8953 20.4082C11.5968 21.2588 9.29385 22.098 6.98642 22.9257L6.97515 22.9297L6.9635 22.9325C6.22946 23.1065 5.55024 23.0917 4.93339 22.8756C4.31647 22.6594 3.77833 22.2476 3.31715 21.6544L3.31168 21.6473L3.30682 21.6399C3.13028 21.3691 2.98627 21.0811 2.87489 20.7761L2.87417 20.7741C2.54421 19.8426 2.20305 18.9167 1.85066 17.9961L1.78735 17.8308L1.93783 17.7374C2.23827 17.5511 2.56369 17.4424 2.9117 17.413L2.99802 17.4058L5.25942 19.2505C5.47652 19.3147 5.69661 19.329 5.92199 19.2933C11.517 17.2528 17.1165 15.2239 22.7204 13.2064L22.7307 13.2027L22.7413 13.2001C23.1809 13.0908 23.6166 13.0017 24.0482 12.9328L24.0586 12.9311ZM5.97656 19.5015C5.69781 19.5489 5.42437 19.5294 5.15625 19.4429L2.92969 17.6266C2.61599 17.653 2.32303 17.7507 2.05078 17.9195C2.40381 18.8417 2.74561 19.7694 3.07617 20.7026C3.182 20.9924 3.31871 21.2658 3.48633 21.5229C4.36766 22.6565 5.51024 23.0568 6.91406 22.724C9.22324 21.8957 11.5279 21.0559 13.8281 20.2046C14.5803 19.9848 15.0295 20.2582 15.1758 21.0248C14.8313 22.4767 14.4626 23.9204 14.0695 25.356C14.0477 25.4357 14.0259 25.5153 14.0039 25.5949C14.0841 25.5742 14.1641 25.5527 14.2439 25.5305C14.8702 25.3557 15.4835 25.133 16.084 24.8625C16.9985 22.8187 17.897 20.768 18.7793 18.7105C18.8844 18.5467 19.0113 18.4003 19.1602 18.2711C22.0072 17.2244 24.8588 16.1893 27.7148 15.1657C27.9199 15.0778 28.0664 14.9314 28.1543 14.7263C28.2759 14.3155 28.1489 14.0128 27.7734 13.8181C26.5995 13.2905 25.369 13.0659 24.082 13.1443C23.6566 13.2123 23.2269 13.3002 22.793 13.408C17.183 15.4276 11.5775 17.4588 5.97656 19.5015ZM16.5506 13.6876C15.638 14.0432 14.7207 14.3894 13.7988 14.7263L9.96094 11.9432C10.0417 11.9135 10.1223 11.8838 10.2028 11.8539C10.7729 11.6427 11.3368 11.4283 11.8945 11.2108C13.4682 11.9143 15.0243 12.6616 16.5628 13.4529C16.6474 13.4964 16.7319 13.54 16.8164 13.5838C16.7279 13.6185 16.6393 13.6531 16.5506 13.6876Z" fill="#999999" stroke="white" stroke-width="0.562478" mask="url(#path-3-inside-1_1811_10974)"/>
</g>
</svg>
