<svg width="28" height="30" viewBox="0 0 28 30" fill="none" xmlns="http://www.w3.org/2000/svg">
<path d="M12.687 0.610354C11.562 0.879886 10.6655 1.74708 10.3316 2.88966C10.1851 3.3877 10.1909 4.13184 10.355 4.64747C10.7007 5.76661 11.5269 6.56349 12.6284 6.84474C14.2339 7.2549 15.8277 6.42872 16.4487 4.87013C16.5894 4.5127 16.6011 4.39552 16.6011 3.73927C16.6011 3.10645 16.5835 2.95997 16.4663 2.65528C15.8511 1.09082 14.2573 0.229494 12.687 0.610354ZM14.3628 1.64161C15.5054 2.17481 16.0093 3.42286 15.5698 4.60646C15.4058 5.05177 14.8667 5.60841 14.398 5.82521C14.064 5.97755 13.9702 5.99513 13.4136 5.99513C12.8628 5.99513 12.7632 5.97755 12.4702 5.83107C11.9546 5.57911 11.6323 5.25685 11.3804 4.74708C11.1694 4.3252 11.1577 4.27247 11.1577 3.73927C11.1577 3.23536 11.1753 3.14747 11.3452 2.79005C11.6382 2.17481 12.148 1.7295 12.8277 1.50684C12.9097 1.4834 13.2144 1.46582 13.5015 1.47168C13.9351 1.4834 14.0874 1.5127 14.3628 1.64161Z" fill="#999999"/>
<path d="M1.82953 1.56442C1.16156 1.73434 0.628357 2.37887 0.622497 3.03512C0.616638 3.60348 0.493591 3.46872 4.77094 7.60544L8.78461 11.4785L8.79633 19.8984L8.8139 28.3184L8.96625 28.6465C9.66351 30.1231 11.5795 30.2051 12.3002 28.793L12.5053 28.3887L12.5346 24.0762C12.558 20.8594 12.5815 19.7344 12.6342 19.6406C12.8862 19.2012 13.642 19.1953 13.894 19.6289C13.9526 19.7344 13.976 20.7129 13.9995 24.0703C14.0346 28.9102 14.0112 28.6641 14.4799 29.1973C14.9487 29.7246 15.6518 29.9297 16.3139 29.7246C16.7475 29.584 17.2104 29.168 17.4037 28.7461C17.5444 28.4414 17.5444 28.3945 17.562 26.4609L17.5795 24.4863L21.81 24.4688L26.0405 24.4512L26.3745 24.2871C26.7846 24.0879 27.142 23.6953 27.2827 23.291C27.3764 23.0156 27.3881 22.7344 27.3881 20.1445C27.3881 17.5547 27.3764 17.2734 27.2827 16.998C27.142 16.5937 26.7846 16.2012 26.3745 16.0019C26.0463 15.8379 26.0229 15.8379 24.8276 15.8203L23.6147 15.8027L23.5971 14.918C23.5737 13.7578 23.644 13.8164 22.3139 13.8164H21.3237V12.1289C21.3237 10.289 21.2768 9.88474 20.9955 9.31638C20.7846 8.88279 20.228 8.30857 19.812 8.08591C19.1147 7.71677 19.2495 7.72263 14.0873 7.71677H9.39984L6.11859 4.72849C4.3139 3.082 2.77289 1.69918 2.69086 1.65817C2.49164 1.5527 2.05804 1.50582 1.82953 1.56442ZM5.67328 5.55466L9.09515 8.66599L13.935 8.66013C17.0229 8.65427 18.8452 8.67771 18.9682 8.71287C19.4838 8.86521 19.9995 9.32224 20.2338 9.82615C20.351 10.0781 20.3569 10.2012 20.3745 11.9531C20.392 13.7578 20.3862 13.8164 20.2807 13.8164C20.2162 13.8164 20.0991 13.8691 20.0112 13.9394C19.8588 14.0566 19.8588 14.0625 19.8588 14.9062V15.75H19.3608H18.8627V13.2012V10.6465L18.7162 10.5058C18.5815 10.3652 18.5463 10.3594 17.7495 10.3594C16.9526 10.3594 16.9174 10.3652 16.7827 10.5058L16.6362 10.6465V19.4414C16.6362 28.9746 16.6537 28.3828 16.3198 28.6934C16.1264 28.875 15.6752 28.9277 15.4174 28.793C15.3178 28.7402 15.1772 28.6172 15.101 28.5117L14.9662 28.3184L14.937 23.9531L14.9077 19.5879L14.7495 19.2891C14.1049 18.0703 12.394 18.0879 11.7905 19.3125L11.6264 19.6465L11.5971 23.9531C11.5678 28.125 11.562 28.2656 11.4506 28.459C11.2983 28.7168 10.9936 28.875 10.6537 28.875C10.3022 28.875 10.0268 28.6934 9.85687 28.3477L9.72211 28.0899V19.5996V11.1152L9.4057 10.8105C3.91547 5.5195 1.51898 3.16989 1.51898 3.082C1.51898 2.78903 1.84711 2.45504 2.13422 2.44918C2.21625 2.44918 3.44672 3.53317 5.67328 5.55466ZM17.9252 13.5234V15.8086H17.7495H17.5737V13.5234V11.2383H17.7495H17.9252V13.5234ZM22.6713 15.2812V15.8086H21.7045H20.7377V15.2812V14.7539H21.7045H22.6713V15.2812ZM21.2065 20.1445V23.543H19.3901H17.5737V20.1445V16.7461H19.3901H21.2065V20.1445ZM23.7846 20.1445V23.543H22.935H22.0854V20.1445V16.7461H22.935H23.7846V20.1445ZM26.0756 16.8809C26.4858 17.1504 26.4799 17.1094 26.4799 20.1445C26.4799 23.1797 26.4858 23.1387 26.0756 23.4082C25.8998 23.5254 25.8002 23.543 25.3022 23.543H24.7221V20.1445V16.7461H25.3022C25.8002 16.7461 25.8998 16.7637 26.0756 16.8809Z" fill="#999999"/>
</svg>
