<svg width="29" height="18" viewBox="0 0 29 18" fill="none" xmlns="http://www.w3.org/2000/svg">
<path d="M0.207697 0.428801L0.0208156 0.593031L0.00382638 2.72236C-0.00749979 4.5119 0.00382638 4.87434 0.0717834 5.01025C0.128414 5.11785 0.298307 5.2481 0.54182 5.37835C1.73107 6.00696 2.37666 7.17922 2.37666 8.7026C2.37666 10.226 1.73107 11.3982 0.54182 12.0268C0.298307 12.1571 0.128414 12.2873 0.0717834 12.3949C0.00382638 12.5309 -0.00749979 12.8933 0.00382638 14.6828L0.0208156 16.8122L0.207697 16.9764L0.388916 17.1406H14.49H28.5911L28.7723 16.9764L28.9592 16.8122L28.9762 14.6828C28.9875 12.8933 28.9762 12.5309 28.9082 12.3949C28.8516 12.2873 28.6817 12.1571 28.4382 12.0268C27.2489 11.3982 26.6033 10.226 26.6033 8.7026C26.6033 7.17922 27.2489 6.00696 28.4382 5.37835C28.6817 5.2481 28.8516 5.11785 28.9082 5.01025C28.9762 4.87434 28.9875 4.5119 28.9762 2.72236L28.9592 0.593031L28.7723 0.428801L28.5911 0.26457H14.49H0.388916L0.207697 0.428801ZM19.3036 1.71999C19.3036 2.32594 19.5188 2.64307 19.9266 2.64307C20.3343 2.64307 20.5495 2.32594 20.5495 1.71999V1.45382H24.1739H27.7983V2.89225V4.32502L27.5038 4.52323C26.7846 5.00459 26.2919 5.57656 25.8955 6.40904C25.2046 7.83614 25.1989 9.54074 25.8728 10.9565C26.2636 11.7833 26.7449 12.3666 27.4018 12.814L27.7983 13.0858V14.5186V15.9514H24.1739H20.5495V15.6795C20.5495 15.0793 20.3343 14.7621 19.9266 14.7621C19.5188 14.7621 19.3036 15.0793 19.3036 15.6795V15.9514H10.2427H1.18175V14.5186V13.0858L1.57816 12.814C3.48096 11.5115 4.16619 8.66862 3.1072 6.44868C2.71644 5.62187 2.23508 5.03857 1.57816 4.59118L1.18175 4.31935V2.88659V1.45382H10.2427H19.3036V1.71999Z" fill="#999999"/>
<path d="M19.5699 3.99863C19.3717 4.15719 19.3037 4.42902 19.3037 5.07462C19.3037 5.72021 19.3717 5.99204 19.5699 6.15061C19.8927 6.40545 20.3797 6.22989 20.493 5.82215C20.5666 5.55032 20.5666 4.59892 20.493 4.32709C20.4137 4.05526 20.1985 3.88536 19.9267 3.88536C19.8021 3.88536 19.6548 3.93067 19.5699 3.99863Z" fill="#999999"/>
<path d="M19.5699 7.62538C19.3717 7.78395 19.3037 8.05578 19.3037 8.70137C19.3037 8.99585 19.332 9.33564 19.3603 9.4489C19.5246 10.0379 20.3287 10.0379 20.493 9.4489C20.5666 9.17707 20.5666 8.22567 20.493 7.95384C20.4137 7.68201 20.1985 7.51212 19.9267 7.51212C19.8021 7.51212 19.6548 7.55742 19.5699 7.62538Z" fill="#999999"/>
<path d="M6.46565 9.95313C5.89934 10.1174 5.92199 10.9159 6.49396 11.0801C6.62988 11.1141 8.18722 11.1367 10.8659 11.1367C13.5445 11.1367 15.1018 11.1141 15.2378 11.0801C15.8267 10.9159 15.8267 10.1117 15.2378 9.94747C14.9716 9.87385 6.72615 9.87951 6.46565 9.95313Z" fill="#999999"/>
<path d="M19.5699 11.2504C19.3717 11.4089 19.3037 11.6808 19.3037 12.3264C19.3037 12.6209 19.332 12.9606 19.3603 13.0739C19.5246 13.6629 20.3287 13.6629 20.493 13.0739C20.5666 12.8021 20.5666 11.8507 20.493 11.5788C20.4137 11.307 20.1985 11.1371 19.9267 11.1371C19.8021 11.1371 19.6548 11.1824 19.5699 11.2504Z" fill="#999999"/>
<path d="M6.4142 12.383C6.21599 12.4623 6.05176 12.7171 6.05176 12.955C6.05176 13.1192 6.0914 13.2098 6.22731 13.3401L6.40287 13.5156H9.65914H12.9154L13.0796 13.3514C13.3855 13.0456 13.2835 12.5246 12.8928 12.3887C12.6776 12.315 6.59541 12.3094 6.4142 12.383Z" fill="#999999"/>
</svg>
