<svg width="30" height="19" viewBox="0 0 30 19" fill="none" xmlns="http://www.w3.org/2000/svg">
<path opacity="0.963" d="M12.8691 13.2087C10.968 13.9463 9.0495 14.6379 7.11349 15.2833C6.04512 15.4761 5.09193 15.4017 4.24907 15.0674C3.40511 14.7327 2.66195 14.1334 2.02092 13.2611C1.87461 13.0246 1.74246 12.7793 1.62449 12.5249C1.14521 11.174 0.650592 9.83533 0.140623 8.50905V8.50872V8.50746V8.5062V8.50494V8.50368V8.50242V8.50116V8.49991V8.49865V8.49739V8.49613V8.49487V8.49361V8.49235V8.49109V8.48983V8.48857V8.48732V8.48606V8.4848V8.48354V8.48228V8.48102V8.47976V8.4785V8.47725V8.47599V8.47473V8.47347V8.47221V8.47095V8.46969V8.46843V8.46717V8.46591V8.46466V8.4634V8.46214V8.46088V8.45962V8.45836V8.4571V8.45584V8.45459V8.45333V8.45207V8.45081V8.44955V8.44829V8.44703V8.44577V8.44451V8.44325V8.442V8.44074V8.43948V8.43822V8.43696V8.4357V8.43444V8.43318V8.43192V8.43067V8.42941V8.42815V8.42689V8.42563V8.42437V8.42311V8.42185V8.4206V8.41934V8.41808V8.41682V8.41556V8.4143V8.41304V8.41178V8.41052V8.40927V8.40801V8.40675V8.40549V8.40423V8.40297V8.40171V8.40045V8.39919V8.39794V8.39668V8.39542V8.39416V8.3929V8.39164V8.39038V8.38912V8.38787V8.38661V8.38535V8.38409V8.38283V8.38157V8.38031V8.37905V8.37779V8.37654V8.37528V8.37402V8.37276V8.3715V8.37024V8.36898V8.36772V8.36646V8.36521V8.36395V8.36269V8.36143V8.36017V8.35891V8.35765V8.35639V8.35513V8.35388V8.35262V8.35136V8.3501V8.34884V8.34758V8.34632V8.34506V8.34381V8.34255V8.34129V8.34003V8.33877V8.33751V8.33625V8.33499V8.33374V8.33248V8.33122V8.32996V8.3287V8.32744V8.32618V8.32492V8.32366V8.32241V8.32115V8.31989V8.31863V8.31737V8.31611V8.31485V8.31359V8.31234V8.31108V8.30982V8.30856V8.3073V8.30604V8.30478V8.30352V8.30227V8.30101V8.29975V8.29849V8.29723V8.29597V8.29471V8.29345V8.29219V8.29094V8.28968V8.28842V8.28716V8.2859V8.28464V8.28338V8.28212V8.28087V8.27961V8.27835V8.27709V8.27583V8.27457V8.27331V8.27205V8.27079V8.26954V8.26828V8.26702V8.26576V8.2645V8.26324V8.26198V8.26072V8.25947V8.25821V8.25695V8.25569V8.25443V8.25317V8.25191V8.25065V8.2494V8.24814V8.24688V8.24562V8.24436V8.2431V8.24184V8.24058V8.23932V8.23807V8.23681V8.23555V8.23429V8.23303V8.23177V8.23051V8.22925V8.228V8.22674V8.22548V8.22422V8.22296V8.2217V8.22044V8.21918V8.21793V8.21667V8.21541V8.21415V8.21289V8.21163V8.21037V8.20911V8.20786V8.2066V8.20534V8.20408V8.20282V8.20156V8.2003V8.19904V8.19778V8.19653V8.19527V8.19401V8.19275V8.19149V8.19023V8.18897V8.18771V8.18646V8.1852V8.18394V8.18268V8.18142V8.18016V8.1789V8.17764V8.17638V8.17513V8.17387V8.17261V8.17135V8.17009V8.16883V8.16757V8.16632V8.16506V8.1638V8.16254V8.16128V8.16002V8.15876V8.1575V8.15624V8.15499V8.15373V8.15247V8.15121V8.14995V8.14869V8.14743V8.14617V8.14492V8.14366V8.1424V8.14114V8.13988V8.13862V8.13736V8.1361V8.13484V8.13359V8.13233V8.13107V8.12981V8.12855V8.12729V8.12603V8.12477V8.12352V8.12226V8.121V8.11974V8.11848V8.11722V8.11596V8.1147V8.11345V8.11219V8.11093V8.10967V8.10841V8.10715V8.10589V8.10463V8.10337V8.10212V8.10086V8.0996V8.09834V8.09708V8.09582V8.09456V8.0933V8.09205V8.09079V8.08953V8.08827V8.08701V8.08575V8.08449V8.08323V8.08197V8.08072V8.07946V8.0782V8.07694V8.07568V8.07442V8.07316V8.0719V8.07065V8.06939V8.06813V8.06687V8.06561V8.06435V8.06309V8.06183V8.06057V8.05932V8.05806V8.0568V8.05554V8.05428V8.05302V8.05176V8.0505V8.04925V8.04799V8.04673V8.04547V8.04421V8.04295V8.04169V8.04043V8.03917V8.03792V8.03666V8.0354V8.03414V8.03288V8.03162V8.03036V8.0291V8.02784V8.02659V8.02533V8.02407V8.02281V8.02155V8.02029V8.01903V8.01777V8.01652V8.01526V8.014V8.01274V8.01148V8.01022V8.00896V8.0077V8.00644V8.00519V8.00393V8.00267V8.00141V8.00015V7.99889V7.99763V7.99637V7.99511V7.99386V7.9926V7.99134V7.99008V7.98882V7.98756V7.9863V7.98504V7.98378V7.98253V7.98127V7.98001V7.97875V7.97749V7.97623V7.97497V7.97371V7.97245V7.9712V7.96994V7.96868V7.96742V7.96616V7.9649V7.96364V7.96238V7.96112V7.95987V7.95861V7.95735V7.95609V7.95483V7.95357V7.95231V7.95105V7.94979V7.94854V7.94728V7.94602V7.94476V7.9435V7.94224V7.94098V7.93972V7.93846V7.93721V7.93595V7.93469V7.93343V7.93217V7.93091V7.92965V7.92839V7.92713V7.92588V7.92471C0.250687 7.71849 0.414803 7.56592 0.6377 7.4649C1.3402 7.22422 2.03829 6.97214 2.73198 6.70876C2.93535 6.67625 3.13845 6.67522 3.3418 6.70567C4.16147 7.32361 4.9715 7.95059 5.77188 8.58665L5.83336 8.63551L5.9072 8.6088C7.8625 7.90166 9.81586 7.18871 11.7674 6.46985L12.0203 6.37668L11.7992 6.22254C10.3667 5.22379 8.94442 4.21076 7.53248 3.18337C7.365 3.0181 7.27426 2.8497 7.24636 2.67829C7.21868 2.5083 7.25032 2.32015 7.35435 2.10961C7.48591 1.95799 7.64668 1.84962 7.83883 1.78332L7.83884 1.78336L7.84204 1.78217C9.24175 1.26094 10.6503 0.768564 12.0677 0.305055C12.6256 0.51053 13.1718 0.74697 13.7065 1.01439C15.5294 1.93072 17.3559 2.83907 19.186 3.73946L19.2418 3.76694L19.2997 3.74407C20.4556 3.28752 21.6311 2.88912 22.8264 2.54881C24.8438 2.13591 26.7816 2.36592 28.6444 3.23933C29.2554 3.61161 29.6587 4.13205 29.8594 4.80544V4.8069V4.80907V4.81125V4.81342V4.8156V4.81777V4.81994V4.82212V4.82429V4.82647V4.82864V4.83082V4.83299V4.83516V4.83734V4.83951V4.84169V4.84386V4.84604V4.84821V4.85038V4.85256V4.85473V4.85691V4.85908V4.86126V4.86343V4.8656V4.86778V4.86995V4.87213V4.8743V4.87648V4.87865V4.88083V4.883V4.88517V4.88735V4.88952V4.8917V4.89387V4.89605V4.89822V4.90039V4.90257V4.90474V4.90692V4.90909V4.91127V4.91344V4.91561V4.91779V4.91996V4.92214V4.92431V4.92649V4.92866V4.93083V4.93301V4.93518V4.93736V4.93953V4.94171V4.94388V4.94605V4.94823V4.9504V4.95258V4.95475V4.95693V4.9591V4.96128V4.96345V4.96562V4.9678V4.96997V4.97215V4.97432V4.9765V4.97867V4.98084V4.98302V4.98519V4.98737V4.98954V4.99172V4.99389V4.99607V4.99824V5.00041V5.00259V5.00476V5.00694V5.00911V5.01129V5.01346V5.01563V5.01781V5.01998V5.02216V5.02433V5.02651V5.02868V5.03086V5.03303V5.0352V5.03738V5.03955V5.04173V5.0439V5.04608V5.04825V5.05042V5.0526V5.05477V5.05695V5.05912V5.0613V5.06347V5.06565V5.06782V5.06999V5.07217V5.07434V5.07652V5.07869V5.08087V5.08304V5.08522V5.08739V5.08956V5.09174V5.09391V5.09609V5.09826V5.10044V5.10261V5.10478V5.10696V5.10913V5.11131V5.11348V5.11566V5.11783V5.12001V5.12218V5.12435V5.12653V5.1287V5.13088V5.13305V5.13523V5.1374V5.13958V5.14175V5.14392V5.1461V5.14827V5.15045V5.15262V5.1548V5.15697V5.15914V5.16132V5.16349V5.16567V5.16784V5.17002V5.17219V5.17437V5.17654V5.17871V5.18089V5.18306V5.18524V5.18741V5.18959V5.19176V5.19394V5.19611V5.19828V5.20046V5.20263V5.20481V5.20698V5.20916V5.21133V5.21351V5.21568V5.21785V5.22003V5.2222V5.22438V5.22655V5.22873V5.2309V5.23308V5.23525V5.23742V5.2396V5.24177V5.24395V5.24612V5.2483V5.25047V5.25265V5.25482V5.25699V5.25917V5.26134V5.26352V5.26569V5.26787V5.27004V5.27221V5.27439V5.27656V5.27874V5.28091V5.28309V5.28526V5.28744V5.28961V5.29178V5.29396V5.29613V5.29831V5.30048V5.30266V5.30483V5.30701V5.30918V5.31135V5.31353V5.3157V5.31788V5.32005V5.32223V5.3244V5.32658V5.32875V5.33092V5.3331V5.33527V5.33745V5.33962V5.3418V5.34397V5.34615V5.34832V5.35049V5.35267V5.35484V5.35702V5.35919V5.36137V5.36354V5.36572V5.36789V5.37006V5.37224V5.37441V5.37659V5.37876V5.38094V5.38311V5.38529V5.38746V5.38963V5.39181V5.39398V5.39616V5.39833V5.40051V5.40268V5.40486V5.40703V5.4092V5.41138V5.41355V5.41573V5.4179V5.42008V5.42225V5.42443V5.4266V5.42877V5.43095V5.43312V5.4353V5.43747V5.43965V5.44182V5.44399V5.44617V5.44834V5.45052V5.45269V5.45487V5.45704V5.45922V5.46139V5.46356V5.46574V5.46791V5.47009V5.47226V5.47444V5.47661V5.47879V5.48096V5.48313V5.48531V5.48748V5.48966V5.49183V5.49401V5.49618V5.49836V5.50053V5.5027V5.50488V5.50705V5.50923V5.5114V5.51358V5.51575V5.51793V5.5201V5.52227V5.52445V5.52662V5.5288V5.53097V5.53315V5.53532V5.5375V5.53967V5.54184V5.54402V5.54619V5.54837V5.55054V5.55272V5.55489V5.55707V5.55924V5.56141V5.56359V5.56576V5.56794V5.57011V5.57229V5.57446V5.57663V5.57881V5.58098V5.58316V5.58533V5.58751V5.58968V5.59186V5.59403V5.5962V5.59838V5.60055V5.60273V5.6049V5.60708V5.60925V5.61142V5.6136V5.61577V5.61795V5.62012V5.6223V5.62447V5.62665V5.62882V5.63099V5.63317V5.63534V5.63752V5.63969V5.64187V5.64404V5.64622V5.64839V5.65056V5.65274V5.65491V5.65709V5.65926V5.66144V5.66361V5.66578V5.66796V5.67013V5.67231V5.67448V5.67666V5.67883V5.68101V5.68318V5.68535V5.68753V5.6897V5.69188V5.69405V5.69623V5.6984V5.70057V5.70275V5.70492V5.7071V5.70927V5.71145V5.71362V5.7158V5.71797V5.72014V5.72232V5.72449V5.72667V5.72884V5.73102V5.73319V5.73536V5.73754V5.73971V5.74189V5.74406V5.74624V5.74841V5.75058V5.75276V5.75493V5.75711V5.75928V5.76146V5.76363V5.76581V5.76798V5.77015V5.77233V5.7745V5.77668V5.77885V5.78103V5.7832V5.78537V5.78755V5.78972V5.7919V5.79407V5.79625V5.79842V5.80059V5.80277V5.80494V5.80712V5.80929V5.81147V5.81364V5.81581V5.81799V5.82016V5.82234V5.82451V5.82669V5.82886V5.83103V5.83321V5.83538V5.83756V5.83973V5.84191V5.84408V5.84625V5.84843V5.8506V5.85278V5.85495V5.85713V5.8593V5.86147V5.86365V5.86582V5.868V5.87017V5.87235V5.87452V5.87669V5.87887V5.87979C29.6513 6.64193 29.1938 7.19825 28.4795 7.55616L20.2839 10.5417L20.2272 10.5624L20.2031 10.6177C19.2638 12.7753 18.3021 14.9222 17.3183 17.0585C17.1551 17.1829 16.9744 17.2754 16.7753 17.3362L16.7752 17.336L16.7671 17.339C15.421 17.8426 14.0654 18.3173 12.7002 18.7631C12.4549 18.7331 12.2778 18.6512 12.1551 18.5285C12.0316 18.405 11.9494 18.2264 11.9199 17.9786C12.3093 16.4402 12.6882 14.9049 13.0566 13.3727L13.1194 13.1116L12.8691 13.2087ZM11.9519 1.96146L11.8982 1.93746L11.8434 1.95883C11.2078 2.2067 10.5642 2.45054 9.91239 2.69029L9.66493 2.78131L9.87838 2.93611L13.7163 5.71931L13.7768 5.76323L13.8471 5.73755C14.8595 5.36757 15.8664 4.98632 16.8677 4.59381L17.1564 4.48066L16.8811 4.33803C15.2576 3.49691 13.6145 2.70472 11.9519 1.96146ZM24.0735 3.88307L24.0734 3.8824L24.0598 3.88458C23.6303 3.9532 23.1967 4.0419 22.7591 4.15064L22.7521 4.15237L22.7453 4.1548C17.1393 6.17312 11.5377 8.20291 5.94061 10.2443C5.697 10.2839 5.45875 10.2679 5.22419 10.1962L3.01858 8.39689L2.97453 8.36096L2.91788 8.36573C2.58167 8.39406 2.2674 8.49898 1.97666 8.67933L1.87791 8.74058L1.91945 8.8491C2.27206 9.77026 2.61345 10.6969 2.94361 11.629L2.94408 11.6303C3.05355 11.9301 3.19505 12.213 3.36853 12.4791L3.36812 12.4794L3.37531 12.4887C3.82944 13.0728 4.35652 13.4749 4.95776 13.6856C5.55894 13.8963 6.22351 13.9118 6.94651 13.7403L6.95415 13.7385L6.96154 13.7359C9.26959 12.9079 11.5731 12.0685 13.8722 11.2176C14.2266 11.1149 14.4796 11.137 14.6561 11.2444C14.8283 11.3492 14.961 11.5558 15.0319 11.9016C14.6707 13.4224 14.2828 14.9342 13.8683 16.4372L13.8037 16.6715L14.0391 16.6108C14.7567 16.4255 15.4576 16.1786 16.1417 15.8704L16.1905 15.8484L16.2123 15.7996C17.1256 13.7586 18.0228 11.7108 18.9039 9.65617C18.9958 9.51468 19.1056 9.38713 19.2333 9.27332C22.0718 8.22982 24.9148 7.19785 27.7623 6.1773L27.7624 6.17754L27.7702 6.17417C28.0085 6.07206 28.1814 5.89913 28.2836 5.66086L28.2868 5.65328L28.2891 5.64538C28.3563 5.41848 28.3593 5.20528 28.2799 5.01595C28.2004 4.82636 28.0465 4.68049 27.8382 4.57243L27.8383 4.57223L27.8311 4.56901C26.6364 4.03196 25.3832 3.80324 24.0735 3.88307Z" fill="#999999" stroke="white" stroke-width="0.281246"/>
<g opacity="0.963">
<mask id="path-2-inside-1_1811_11129" fill="white">
<path fill-rule="evenodd" clip-rule="evenodd" d="M20.332 10.6738L28.5352 7.68555C29.2948 7.30721 29.783 6.71148 30 5.89844V4.78516C29.7906 4.06586 29.3609 3.50922 28.7109 3.11523C26.8171 2.22555 24.8444 1.99117 22.793 2.41211C21.5915 2.754 20.4098 3.15437 19.248 3.61328C17.4183 2.71305 15.5921 1.80484 13.7695 0.888672C13.2155 0.611582 12.6492 0.367439 12.0703 0.15625C10.6355 0.624766 9.20971 1.12281 7.79297 1.65039C7.57184 1.72668 7.38627 1.85365 7.23633 2.03125C6.99627 2.50416 7.06465 2.9241 7.44141 3.29102C8.78647 4.26981 10.1409 5.23559 11.5046 6.18841C11.5759 6.23827 11.6473 6.2881 11.7188 6.33789C11.637 6.36799 11.5553 6.39808 11.4736 6.42815C9.60394 7.11635 7.73255 7.79912 5.85938 8.47656C5.04893 7.8325 4.22862 7.19775 3.39844 6.57227C3.16406 6.53318 2.92969 6.53318 2.69531 6.57227C1.99666 6.8377 1.29353 7.09164 0.585938 7.33398C0.321096 7.45246 0.125783 7.63803 0 7.89062V8.53516C0.513612 9.87027 1.01166 11.2179 1.49414 12.5781C1.61596 12.8414 1.75267 13.0953 1.9043 13.3398C3.21349 15.1242 4.96154 15.8175 7.14844 15.4199C9.00735 14.8003 10.8502 14.1383 12.6769 13.4339C12.7579 13.4026 12.8389 13.3713 12.9199 13.3398C12.8996 13.4243 12.8793 13.5088 12.8589 13.5933C12.5078 15.049 12.1473 16.5075 11.7773 17.9688C11.8359 18.5352 12.1484 18.8477 12.7148 18.9062C14.0917 18.4571 15.4589 17.9785 16.8164 17.4707C17.0428 17.4015 17.2478 17.2941 17.4316 17.1484C18.4209 15.001 19.3877 12.8429 20.332 10.6738ZM17.2591 17.0108C18.2401 14.8806 19.1989 12.7398 20.1356 10.5883L20.1723 10.504L28.4503 7.48841C29.1409 7.14122 29.5824 6.6054 29.7857 5.86986V4.81624C29.5897 4.16682 29.2001 3.66522 28.6094 3.30431C26.763 2.43944 24.8435 2.21173 22.8439 2.62042C21.6519 2.9599 20.4795 3.35726 19.3268 3.81258L19.2386 3.84743L19.1534 3.80556C17.3232 2.90506 15.4964 1.99659 13.6733 1.08016C13.1488 0.81783 12.6132 0.585465 12.0662 0.383037C10.658 0.843911 9.25851 1.3333 7.86775 1.8512L7.86287 1.85302C7.6859 1.91407 7.53805 2.01271 7.41621 2.15078C7.32076 2.34723 7.29474 2.51707 7.31906 2.66645C7.34372 2.81794 7.42392 2.97154 7.58035 3.1271C8.9904 4.15307 10.4108 5.16472 11.8413 6.16211L12.1782 6.397L11.7928 6.53897C9.84119 7.25788 7.88769 7.97088 5.93225 8.67807L5.81973 8.71877L5.72605 8.64432C4.93107 8.01255 4.12657 7.38975 3.31254 6.77586C3.12527 6.74962 2.93831 6.75111 2.751 6.78033C2.06002 7.0426 1.36467 7.29366 0.664953 7.53343C0.463861 7.62528 0.315809 7.76098 0.214286 7.94347V8.49487C0.722344 9.81652 1.21516 11.1509 1.69275 12.4971C1.80872 12.7468 1.93847 12.9876 2.08202 13.2198C2.71593 14.0817 3.448 14.6704 4.27623 14.9989C5.1028 15.3268 6.04001 15.4014 7.09522 15.2118C9.0284 14.5672 10.9441 13.8766 12.8424 13.1401L13.224 12.992L13.1283 13.3899C12.7608 14.918 12.3829 16.4491 11.9947 17.9832C12.0241 18.2119 12.1003 18.3695 12.2072 18.4764C12.3129 18.5821 12.4683 18.6579 12.6931 18.6879C14.052 18.2439 15.4014 17.7713 16.7413 17.27L16.7536 17.2654C16.9386 17.2089 17.1068 17.1244 17.2591 17.0108ZM11.9002 1.85764L11.982 1.89422C13.6459 2.63805 15.2902 3.43086 16.915 4.27262L17.3345 4.48997L16.8946 4.6624C15.8927 5.05511 14.8853 5.43656 13.8724 5.80674L13.7653 5.84586L9.50987 2.75986L9.88696 2.62115C10.5383 2.38157 11.1815 2.1379 11.8167 1.8902L11.9002 1.85764ZM24.0586 3.81019L24.069 3.80955C25.3906 3.72899 26.6557 3.95987 27.8613 4.50182L27.8722 4.50674C28.0914 4.6204 28.26 4.77784 28.3479 4.98746C28.4356 5.19668 28.4303 5.42812 28.3598 5.66628L28.3562 5.67833L28.3513 5.68988C28.2417 5.94553 28.0549 6.13232 27.7993 6.24188L27.7873 6.24701C24.9445 7.26591 22.1059 8.29581 19.272 9.33758C19.1551 9.4433 19.0542 9.56105 18.9691 9.69106C18.0886 11.7441 17.1921 13.7903 16.2796 15.8297L16.2463 15.9041L16.172 15.9376C15.484 16.2475 14.7792 16.4957 14.0575 16.6821L13.6989 16.7747L13.7973 16.4176C14.2101 14.9208 14.5965 13.4151 14.9564 11.9005C14.8871 11.5756 14.7634 11.396 14.6178 11.3073C14.4664 11.2152 14.2381 11.1887 13.8953 11.2876C11.5968 12.1383 9.29385 12.9775 6.98642 13.8052L6.97515 13.8093L6.9635 13.812C6.22946 13.9861 5.55024 13.9713 4.93339 13.7551C4.31647 13.5389 3.77833 13.1271 3.31715 12.5339L3.31168 12.5268L3.30682 12.5194C3.13028 12.2486 2.98627 11.9606 2.87489 11.6555L2.87417 11.6536C2.54421 10.722 2.20305 9.79602 1.85066 8.87543L1.78735 8.71006L1.93783 8.61673C2.23827 8.43037 2.56369 8.32165 2.9117 8.29233L2.99802 8.28506L5.25942 10.1299C5.47652 10.1941 5.69661 10.2083 5.92199 10.1727C11.517 8.13207 17.1165 6.10305 22.7204 4.08549L22.7307 4.08179L22.7413 4.07915C23.1809 3.96992 23.6166 3.8808 24.0482 3.81183L24.0586 3.81019ZM5.97656 10.3809C5.69781 10.4283 5.42437 10.4087 5.15625 10.3223L2.92969 8.50586C2.61599 8.53228 2.32303 8.62996 2.05078 8.79883C2.40381 9.72109 2.74561 10.6488 3.07617 11.582C3.182 11.8718 3.31871 12.1452 3.48633 12.4023C4.36766 13.536 5.51024 13.9364 6.91406 13.6035C9.22324 12.7752 11.5279 11.9354 13.8281 11.084C14.5803 10.8643 15.0295 11.1377 15.1758 11.9043C14.8313 13.3562 14.4626 14.8 14.0695 16.2357C14.0477 16.3154 14.0259 16.395 14.0039 16.4746C14.0841 16.4539 14.1641 16.4324 14.2439 16.4101C14.8702 16.2354 15.4835 16.0127 16.084 15.7422C16.9985 13.6983 17.897 11.6475 18.7793 9.58984C18.8844 9.42607 19.0113 9.27959 19.1602 9.15039C22.0072 8.10367 24.8588 7.06855 27.7148 6.04492C27.9199 5.95703 28.0664 5.81055 28.1543 5.60547C28.2759 5.19467 28.1489 4.89197 27.7734 4.69727C26.5995 4.16957 25.369 3.94498 24.082 4.02344C23.6566 4.09141 23.2269 4.1793 22.793 4.28711C17.183 6.30684 11.5775 8.33805 5.97656 10.3809ZM16.5506 4.56675C15.638 4.92234 14.7207 5.26858 13.7988 5.60547L9.96094 2.82227C10.0417 2.79256 10.1223 2.7628 10.2028 2.73297C10.7729 2.52172 11.3368 2.30734 11.8945 2.08984C13.4682 2.79332 15.0243 3.5407 16.5628 4.33199C16.6474 4.37549 16.7319 4.41913 16.8164 4.46289C16.7279 4.4976 16.6393 4.53222 16.5506 4.56675Z"/>
</mask>
<path fill-rule="evenodd" clip-rule="evenodd" d="M20.332 10.6738L28.5352 7.68555C29.2948 7.30721 29.783 6.71148 30 5.89844V4.78516C29.7906 4.06586 29.3609 3.50922 28.7109 3.11523C26.8171 2.22555 24.8444 1.99117 22.793 2.41211C21.5915 2.754 20.4098 3.15437 19.248 3.61328C17.4183 2.71305 15.5921 1.80484 13.7695 0.888672C13.2155 0.611582 12.6492 0.367439 12.0703 0.15625C10.6355 0.624766 9.20971 1.12281 7.79297 1.65039C7.57184 1.72668 7.38627 1.85365 7.23633 2.03125C6.99627 2.50416 7.06465 2.9241 7.44141 3.29102C8.78647 4.26981 10.1409 5.23559 11.5046 6.18841C11.5759 6.23827 11.6473 6.2881 11.7188 6.33789C11.637 6.36799 11.5553 6.39808 11.4736 6.42815C9.60394 7.11635 7.73255 7.79912 5.85938 8.47656C5.04893 7.8325 4.22862 7.19775 3.39844 6.57227C3.16406 6.53318 2.92969 6.53318 2.69531 6.57227C1.99666 6.8377 1.29353 7.09164 0.585938 7.33398C0.321096 7.45246 0.125783 7.63803 0 7.89062V8.53516C0.513612 9.87027 1.01166 11.2179 1.49414 12.5781C1.61596 12.8414 1.75267 13.0953 1.9043 13.3398C3.21349 15.1242 4.96154 15.8175 7.14844 15.4199C9.00735 14.8003 10.8502 14.1383 12.6769 13.4339C12.7579 13.4026 12.8389 13.3713 12.9199 13.3398C12.8996 13.4243 12.8793 13.5088 12.8589 13.5933C12.5078 15.049 12.1473 16.5075 11.7773 17.9688C11.8359 18.5352 12.1484 18.8477 12.7148 18.9062C14.0917 18.4571 15.4589 17.9785 16.8164 17.4707C17.0428 17.4015 17.2478 17.2941 17.4316 17.1484C18.4209 15.001 19.3877 12.8429 20.332 10.6738ZM17.2591 17.0108C18.2401 14.8806 19.1989 12.7398 20.1356 10.5883L20.1723 10.504L28.4503 7.48841C29.1409 7.14122 29.5824 6.6054 29.7857 5.86986V4.81624C29.5897 4.16682 29.2001 3.66522 28.6094 3.30431C26.763 2.43944 24.8435 2.21173 22.8439 2.62042C21.6519 2.9599 20.4795 3.35726 19.3268 3.81258L19.2386 3.84743L19.1534 3.80556C17.3232 2.90506 15.4964 1.99659 13.6733 1.08016C13.1488 0.81783 12.6132 0.585465 12.0662 0.383037C10.658 0.843911 9.25851 1.3333 7.86775 1.8512L7.86287 1.85302C7.6859 1.91407 7.53805 2.01271 7.41621 2.15078C7.32076 2.34723 7.29474 2.51707 7.31906 2.66645C7.34372 2.81794 7.42392 2.97154 7.58035 3.1271C8.9904 4.15307 10.4108 5.16472 11.8413 6.16211L12.1782 6.397L11.7928 6.53897C9.84119 7.25788 7.88769 7.97088 5.93225 8.67807L5.81973 8.71877L5.72605 8.64432C4.93107 8.01255 4.12657 7.38975 3.31254 6.77586C3.12527 6.74962 2.93831 6.75111 2.751 6.78033C2.06002 7.0426 1.36467 7.29366 0.664953 7.53343C0.463861 7.62528 0.315809 7.76098 0.214286 7.94347V8.49487C0.722344 9.81652 1.21516 11.1509 1.69275 12.4971C1.80872 12.7468 1.93847 12.9876 2.08202 13.2198C2.71593 14.0817 3.448 14.6704 4.27623 14.9989C5.1028 15.3268 6.04001 15.4014 7.09522 15.2118C9.0284 14.5672 10.9441 13.8766 12.8424 13.1401L13.224 12.992L13.1283 13.3899C12.7608 14.918 12.3829 16.4491 11.9947 17.9832C12.0241 18.2119 12.1003 18.3695 12.2072 18.4764C12.3129 18.5821 12.4683 18.6579 12.6931 18.6879C14.052 18.2439 15.4014 17.7713 16.7413 17.27L16.7536 17.2654C16.9386 17.2089 17.1068 17.1244 17.2591 17.0108ZM11.9002 1.85764L11.982 1.89422C13.6459 2.63805 15.2902 3.43086 16.915 4.27262L17.3345 4.48997L16.8946 4.6624C15.8927 5.05511 14.8853 5.43656 13.8724 5.80674L13.7653 5.84586L9.50987 2.75986L9.88696 2.62115C10.5383 2.38157 11.1815 2.1379 11.8167 1.8902L11.9002 1.85764ZM24.0586 3.81019L24.069 3.80955C25.3906 3.72899 26.6557 3.95987 27.8613 4.50182L27.8722 4.50674C28.0914 4.6204 28.26 4.77784 28.3479 4.98746C28.4356 5.19668 28.4303 5.42812 28.3598 5.66628L28.3562 5.67833L28.3513 5.68988C28.2417 5.94553 28.0549 6.13232 27.7993 6.24188L27.7873 6.24701C24.9445 7.26591 22.1059 8.29581 19.272 9.33758C19.1551 9.4433 19.0542 9.56105 18.9691 9.69106C18.0886 11.7441 17.1921 13.7903 16.2796 15.8297L16.2463 15.9041L16.172 15.9376C15.484 16.2475 14.7792 16.4957 14.0575 16.6821L13.6989 16.7747L13.7973 16.4176C14.2101 14.9208 14.5965 13.4151 14.9564 11.9005C14.8871 11.5756 14.7634 11.396 14.6178 11.3073C14.4664 11.2152 14.2381 11.1887 13.8953 11.2876C11.5968 12.1383 9.29385 12.9775 6.98642 13.8052L6.97515 13.8093L6.9635 13.812C6.22946 13.9861 5.55024 13.9713 4.93339 13.7551C4.31647 13.5389 3.77833 13.1271 3.31715 12.5339L3.31168 12.5268L3.30682 12.5194C3.13028 12.2486 2.98627 11.9606 2.87489 11.6555L2.87417 11.6536C2.54421 10.722 2.20305 9.79602 1.85066 8.87543L1.78735 8.71006L1.93783 8.61673C2.23827 8.43037 2.56369 8.32165 2.9117 8.29233L2.99802 8.28506L5.25942 10.1299C5.47652 10.1941 5.69661 10.2083 5.92199 10.1727C11.517 8.13207 17.1165 6.10305 22.7204 4.08549L22.7307 4.08179L22.7413 4.07915C23.1809 3.96992 23.6166 3.8808 24.0482 3.81183L24.0586 3.81019ZM5.97656 10.3809C5.69781 10.4283 5.42437 10.4087 5.15625 10.3223L2.92969 8.50586C2.61599 8.53228 2.32303 8.62996 2.05078 8.79883C2.40381 9.72109 2.74561 10.6488 3.07617 11.582C3.182 11.8718 3.31871 12.1452 3.48633 12.4023C4.36766 13.536 5.51024 13.9364 6.91406 13.6035C9.22324 12.7752 11.5279 11.9354 13.8281 11.084C14.5803 10.8643 15.0295 11.1377 15.1758 11.9043C14.8313 13.3562 14.4626 14.8 14.0695 16.2357C14.0477 16.3154 14.0259 16.395 14.0039 16.4746C14.0841 16.4539 14.1641 16.4324 14.2439 16.4101C14.8702 16.2354 15.4835 16.0127 16.084 15.7422C16.9985 13.6983 17.897 11.6475 18.7793 9.58984C18.8844 9.42607 19.0113 9.27959 19.1602 9.15039C22.0072 8.10367 24.8588 7.06855 27.7148 6.04492C27.9199 5.95703 28.0664 5.81055 28.1543 5.60547C28.2759 5.19467 28.1489 4.89197 27.7734 4.69727C26.5995 4.16957 25.369 3.94498 24.082 4.02344C23.6566 4.09141 23.2269 4.1793 22.793 4.28711C17.183 6.30684 11.5775 8.33805 5.97656 10.3809ZM16.5506 4.56675C15.638 4.92234 14.7207 5.26858 13.7988 5.60547L9.96094 2.82227C10.0417 2.79256 10.1223 2.7628 10.2028 2.73297C10.7729 2.52172 11.3368 2.30734 11.8945 2.08984C13.4682 2.79332 15.0243 3.5407 16.5628 4.33199C16.6474 4.37549 16.7319 4.41913 16.8164 4.46289C16.7279 4.4976 16.6393 4.53222 16.5506 4.56675Z" fill="#999999" stroke="white" stroke-width="0.562492" mask="url(#path-2-inside-1_1811_11129)"/>
</g>
</svg>
