<svg width="44" height="43" viewBox="0 0 44 43" fill="none" xmlns="http://www.w3.org/2000/svg">
<path d="M0.199219 2.25391V4.30469H2.25H4.30078V2.25391V0.203125H2.25H0.199219V2.25391Z" fill="#D1D4E3"/>
<path d="M8.5 2.25391V4.30469H10.5996H12.6992V2.25391V0.203125H10.5996H8.5V2.25391Z" fill="#D1D4E3"/>
<path d="M16.8008 2.25391V4.30469H18.9004H21V2.25391V0.203125H18.9004H16.8008V2.25391Z" fill="#D1D4E3"/>
<path d="M25.1992 2.25391V4.30469H27.25H29.3008V2.25391V0.203125H27.25H25.1992V2.25391Z" fill="#D1D4E3"/>
<path d="M0.199219 10.6035V12.7031H2.25H4.30078V10.6035V8.50391H2.25H0.199219V10.6035Z" fill="#D1D4E3"/>
<path d="M25.1797 10.5742L25.1504 12.6543L19.584 12.7031L14.0176 12.752L13.6465 12.9863C13.4414 13.1133 13.1582 13.3965 13.0117 13.6113L12.748 14.0117L12.6992 19.5781L12.6504 25.1543L10.5801 25.1836L8.5 25.2031V27.2539V29.3047L10.5801 29.3242L12.6504 29.3535L12.6992 34.9297L12.748 40.5059L13.0117 40.8867C13.1582 41.0918 13.4414 41.375 13.6465 41.5117L14.0078 41.7559L19.6035 41.7852L25.1992 41.8047V39.7539V37.7031L21.0293 37.6836L16.8496 37.6543V27.2539V16.8535H27.25H37.6504L37.6797 19.9492L37.6992 23.0547H39.75H41.8105L41.7812 18.5332L41.752 14.002L41.4883 13.6211C41.3418 13.416 41.0586 13.1328 40.8535 12.9961L40.4922 12.752L34.9258 12.7031L29.3496 12.6543L29.3203 10.5742L29.3008 8.50391H27.25H25.1992L25.1797 10.5742Z" fill="#D1D4E3"/>
<path d="M0.199219 18.9004V21H2.25H4.30078V18.9004V16.8008H2.25H0.199219V18.9004Z" fill="#D1D4E3"/>
<path d="M29.3692 31.422C29.3985 35.9728 29.4181 39.7325 29.4278 39.7716C29.4376 39.8107 30.4728 38.8536 31.7228 37.6329C32.9923 36.4025 34.0372 35.465 34.0763 35.5138C34.1251 35.5626 35.0919 37.2228 36.2345 39.215C37.3771 41.1974 38.3634 42.8771 38.422 42.9357C38.5001 43.0235 38.9786 42.7892 40.3067 42.0177L42.0841 40.9825L41.9083 40.6798C40.5118 38.3849 37.6993 33.3653 37.7872 33.3165C37.8458 33.2775 39.1739 32.8868 40.7462 32.4376C42.3185 31.9884 43.6368 31.5978 43.6759 31.5587C43.7442 31.5001 29.9356 23.3751 29.4864 23.1993C29.3399 23.1407 29.3302 23.8243 29.3692 31.422Z" fill="#D1D4E3"/>
<path d="M0.199219 27.2539V29.3047H2.25H4.30078V27.2539V25.2031H2.25H0.199219V27.2539Z" fill="#D1D4E3"/>
</svg>
