<svg width="29" height="31" viewBox="0 0 29 31" fill="none" xmlns="http://www.w3.org/2000/svg">
<path d="M15.107 0.163155C14.8894 0.205469 14.4844 0.356591 14.2003 0.495625C12.7073 1.23915 11.7946 3.07075 12.1754 4.56989C12.3869 5.40409 13.1123 6.64329 14.1217 7.88854C14.4119 8.25124 14.6899 8.59579 14.7383 8.65624C14.8168 8.76505 14.7987 8.7711 14.3272 8.7711C13.8799 8.7711 13.8195 8.78319 13.6865 8.92222C13.487 9.11566 13.487 9.39372 13.6865 9.58716L13.8316 9.73828H15.9532H18.0749L18.2199 9.58716C18.4194 9.39372 18.4194 9.11566 18.2199 8.92222C18.0869 8.78319 18.0265 8.7711 17.5792 8.7711C17.1077 8.7711 17.0896 8.76505 17.1682 8.65624C17.2165 8.59579 17.4946 8.25124 17.7847 7.88854C19.1024 6.25037 19.8217 4.83586 19.8217 3.86868C19.8157 2.50253 18.9392 1.10616 17.7061 0.495625C16.8659 0.0845709 15.9895 -0.030282 15.107 0.163155ZM16.6483 1.12429C17.9842 1.4749 18.9694 2.80478 18.8365 4.09234C18.7518 4.92049 17.7424 6.53448 16.2373 8.2331L15.9472 8.55953L15.7417 8.31773C15.2218 7.73137 14.3091 6.57075 14.0371 6.16574C13.1425 4.82982 12.9189 4.11048 13.1425 3.2521C13.5475 1.69252 15.1312 0.731376 16.6483 1.12429Z" fill="#999999"/>
<path d="M15.3482 2.0961C13.976 2.59178 13.5771 4.28436 14.5926 5.29385C14.9915 5.69282 15.3482 5.8379 15.9526 5.83185C16.3878 5.83185 16.5148 5.80767 16.7747 5.67468C17.228 5.43893 17.4214 5.25154 17.6511 4.8284C17.8325 4.48384 17.8506 4.39921 17.8566 3.93375C17.8566 3.32926 17.7116 2.97261 17.3126 2.57365C16.817 2.07797 15.9707 1.87244 15.3482 2.0961ZM16.3395 3.05119C16.6054 3.16 16.8593 3.50456 16.9016 3.80076C17.0225 4.71959 15.9345 5.25758 15.2817 4.60474C14.5321 3.85517 15.3602 2.64014 16.3395 3.05119Z" fill="#999999"/>
<path d="M19.489 8.9207C19.3077 9.096 19.2956 9.36802 19.4528 9.56146L19.5676 9.70654L22.9767 9.73676L26.3798 9.76699L26.7485 9.93624C27.214 10.1539 27.625 10.5649 27.8426 11.0364C27.9877 11.3447 28.0118 11.4777 28.0118 11.9129C28.0118 12.3482 27.9877 12.4811 27.8426 12.7894C27.625 13.2609 27.214 13.672 26.7485 13.8896L26.3798 14.0589L14.4418 14.0891C2.58848 14.1193 2.50386 14.1193 2.16536 14.2463C1.36748 14.5364 0.744892 15.0623 0.376174 15.7635C-0.542597 17.4742 0.285506 19.5356 2.16536 20.2186C2.50386 20.3456 2.58848 20.3456 14.4418 20.3758L26.3798 20.406L26.7485 20.5753C27.214 20.7929 27.625 21.2039 27.8426 21.6754C27.9877 21.9837 28.0118 22.1167 28.0118 22.552C28.0118 22.9872 27.9877 23.1202 27.8426 23.4285C27.625 23.9 27.214 24.311 26.7485 24.5286L26.3798 24.6979L20.5589 24.7281L14.732 24.7583L14.6171 24.9034C14.46 25.0969 14.4721 25.3689 14.6534 25.5442L14.7985 25.6953H20.4985C26.7788 25.6953 26.6095 25.7014 27.3409 25.3145C27.8124 25.0727 28.3866 24.4984 28.6284 24.0269C29.5411 22.2981 28.7191 20.2488 26.8392 19.5658C26.5007 19.4388 26.4161 19.4388 14.5627 19.4086L2.62475 19.3784L2.26207 19.2091C1.7906 18.9915 1.37957 18.5805 1.16197 18.115C1.0169 17.8007 0.992718 17.6677 0.992718 17.2324C0.992718 16.7972 1.0169 16.6642 1.16197 16.3499C1.37957 15.8844 1.7906 15.4734 2.26207 15.2558L2.62475 15.0865L14.5627 15.0563C26.4161 15.0261 26.5007 15.0261 26.8392 14.8991C28.4168 14.3248 29.2872 12.7713 28.9185 11.1936C28.6526 10.0632 27.7157 9.12623 26.5853 8.86025C26.265 8.78771 25.6303 8.76958 22.9163 8.76958H19.6341L19.489 8.9207Z" fill="#999999"/>
<path opacity="0.963" fill-rule="evenodd" clip-rule="evenodd" d="M12.9157 25.5519C12.8688 25.6834 12.822 25.815 12.7752 25.9465C12.5956 26.2073 12.3474 26.3569 12.0304 26.3951C10.9355 26.4031 9.84054 26.411 8.74561 26.419C8.13716 27.0687 7.5221 27.7116 6.90042 28.3479C6.81689 28.3764 6.73064 28.3885 6.64168 28.3845C6.09641 28.3932 5.55142 28.3903 5.00668 28.3757C4.81331 28.2834 4.74198 28.1332 4.7927 27.9251C5.12657 27.4265 5.45629 26.9276 5.78189 26.4285C5.01285 26.4501 4.24344 26.4531 3.47364 26.4374C2.6483 26.3024 2.1162 25.836 1.87735 25.0383C1.85447 24.9325 1.83805 24.8252 1.8281 24.7166C1.82875 24.1735 1.8223 23.633 1.80874 23.0949C1.83586 23.0188 1.86297 22.9426 1.89009 22.8665C1.96655 22.7928 2.0592 22.7517 2.16803 22.7431C2.44942 22.7465 2.7307 22.7453 3.01184 22.7393C3.09985 22.7551 3.18292 22.7847 3.26106 22.8281C3.47638 23.1546 3.68704 23.4831 3.89302 23.8137C4.67523 23.8098 5.45748 23.8036 6.23982 23.7951C5.85716 23.2589 5.47994 22.719 5.10823 22.1753C5.02099 21.9977 5.04975 21.8402 5.19452 21.7029C5.27009 21.6588 5.35189 21.6373 5.4399 21.6381C6.00865 21.6299 6.57687 21.6333 7.14459 21.6483C7.32311 21.7963 7.49305 21.9543 7.65445 22.1224C8.18484 22.6772 8.71752 23.2296 9.25247 23.7796C9.72219 23.7635 10.1916 23.7708 10.6606 23.8012C11.4408 23.9109 12.1105 24.2429 12.6695 24.7973C12.8501 25.019 12.9322 25.2705 12.9157 25.5519ZM6.83825 22.3115C7.33303 22.7841 7.81473 23.2715 8.28334 23.7738C7.87929 23.7866 7.47468 23.7946 7.06955 23.798C6.73318 23.3077 6.39681 22.8174 6.06044 22.3271C6.32206 22.3244 6.58134 22.3192 6.83825 22.3115ZM10.9141 24.535C11.3802 24.6697 11.788 24.9045 12.1375 25.2397C12.246 25.3562 12.2528 25.4795 12.1579 25.6097C12.1009 25.6713 12.0305 25.7048 11.9467 25.71C10.8052 25.7124 9.66376 25.7194 8.5225 25.7311C8.45344 25.7581 8.38995 25.794 8.33204 25.8388C7.75962 26.4568 7.18233 27.0703 6.60022 27.6794C6.32176 27.7021 6.04519 27.7011 5.77049 27.6765C6.10965 27.1924 6.44039 26.7017 6.76266 26.2044C6.80758 25.9142 6.68285 25.7606 6.38851 25.7436C5.46574 25.755 4.54285 25.7619 3.61981 25.764C3.08021 25.7049 2.72574 25.4187 2.55643 24.9057C2.52946 24.7934 2.51551 24.6792 2.51457 24.5631C2.51518 24.1906 2.51111 23.8187 2.50238 23.4472C2.62019 23.4217 2.73636 23.4241 2.85088 23.4543C3.03754 23.7626 3.22419 24.0709 3.41086 24.3791C3.49498 24.4436 3.58943 24.4851 3.69422 24.5034C5.93733 24.4862 8.18057 24.4737 10.4239 24.4658C10.5913 24.4823 10.7548 24.5054 10.9141 24.535Z" fill="#999999"/>
</svg>
