<svg width="26" height="30" viewBox="0 0 26 30" fill="none" xmlns="http://www.w3.org/2000/svg">
<mask id="path-1-outside-1_1811_11063" maskUnits="userSpaceOnUse" x="0" y="0.101562" width="26" height="30" fill="black">
<rect fill="white" y="0.101562" width="26" height="30"/>
<path d="M3.7494 1.09259C3.06205 1.37442 2.85584 1.54627 2.85584 1.82123C2.85584 2.0687 2.91083 2.15118 3.8525 3.25789C4.32677 3.82155 4.71169 4.29586 4.71169 4.31648C4.71169 4.3371 4.47111 4.48145 4.17555 4.64643L3.6463 4.94888L3.23389 4.80453C2.65651 4.60518 2.49842 4.61893 1.90043 4.94888C1.25432 5.30633 1 5.54692 1 5.80813C1 6.08996 1.08936 6.17932 1.85919 6.70174L2.54654 7.16917L2.61527 8.04217C2.67713 8.81892 2.70463 8.92891 2.84897 9.08701C3.09642 9.35509 3.35073 9.32072 4.02434 8.93578C4.70481 8.55084 4.88352 8.324 4.95226 7.78783C4.9935 7.41664 5.00725 7.39601 5.35092 7.17605C5.55025 7.05231 5.80457 6.90109 5.92142 6.83922L6.14137 6.72924L6.32696 7.23791C6.43006 7.51974 6.4988 7.78095 6.48505 7.80845C6.47817 7.84282 6.23073 8.05591 5.94892 8.28275C2.98644 10.6611 1.37804 14.3662 1.63236 18.2225C1.97604 23.4055 5.80457 27.7911 10.9253 28.8565C16.7197 30.0663 22.5621 26.6912 24.4317 21.0546C25.4559 17.9613 25.0778 14.3318 23.442 11.5273C20.6101 6.70862 14.8088 4.5227 9.56437 6.30305L8.987 6.5024L8.94576 6.21369C8.92514 6.06246 8.89077 5.76001 8.87015 5.55379L8.82891 5.17572L9.35129 4.8664C9.64685 4.69455 9.96991 4.44708 10.073 4.31648C10.5129 3.75281 10.8566 2.76296 10.7054 2.48113C10.5954 2.28866 9.88055 2.08932 9.23445 2.08932C8.73955 2.08244 8.67082 2.10306 8.05908 2.41239L7.4061 2.74234L6.19636 1.84185C5.00725 0.961987 4.75293 0.803885 4.51923 0.817633C4.45737 0.817633 4.10682 0.941364 3.7494 1.09259ZM5.94892 2.56362C6.68438 3.11354 7.33049 3.56034 7.3786 3.56034C7.43359 3.56034 7.75664 3.40224 8.10719 3.2029C8.76705 2.83171 9.17258 2.73547 9.70184 2.8317C9.94242 2.87982 9.94929 2.89357 9.90805 3.09979C9.81182 3.58784 9.51626 3.91779 8.80141 4.35085C8.42337 4.57769 8.10719 4.81828 8.09345 4.88014C8.0797 4.94201 8.14843 5.66378 8.24466 6.48178C8.34089 7.29978 8.42337 8.04217 8.42337 8.13153C8.42337 8.24151 8.3134 8.37212 8.0522 8.56459L7.68104 8.84642L7.6123 8.66082C6.59502 5.84937 6.58815 5.82875 6.35445 5.82875C6.22386 5.82875 4.78042 6.62613 4.50548 6.8461C4.41613 6.92171 4.34052 7.10731 4.2924 7.37539C4.1893 8.00092 4.18243 8.0078 3.79064 8.23464C3.58443 8.34462 3.40572 8.44086 3.39198 8.44086C3.37136 8.44086 3.33699 8.07654 3.30949 7.6366C3.282 7.18979 3.22701 6.79111 3.18577 6.74299C3.1514 6.69487 2.8421 6.48178 2.5053 6.26868C2.16849 6.05559 1.89355 5.86312 1.89355 5.83562C1.89355 5.75314 2.54654 5.41631 2.69088 5.41631C2.76649 5.41631 2.98644 5.47818 3.18577 5.55379C3.3851 5.6294 3.60505 5.69127 3.68066 5.69127C3.86625 5.69127 5.52963 4.72204 5.61899 4.56394C5.72209 4.37147 5.64648 4.26149 4.62233 3.0448C4.10682 2.43989 3.70816 1.92434 3.73565 1.89684C3.79751 1.84185 4.44362 1.57377 4.53985 1.57377C4.58109 1.56689 5.21345 2.0137 5.94892 2.56362ZM14.0253 6.59176C15.0563 7.07981 16.1011 8.78455 16.6922 10.9636L16.864 11.596L16.6853 11.6304C16.1354 11.7404 14.8776 11.8091 13.3036 11.8091C11.7295 11.8091 10.4717 11.7404 9.92179 11.6304L9.74308 11.596L9.91492 10.9636C10.5129 8.77768 11.5233 7.11418 12.5887 6.58489C12.9599 6.39929 13.6197 6.40616 14.0253 6.59176ZM11.1453 6.80485C10.2998 7.83595 9.59187 9.3276 9.14509 10.998C9.04199 11.3898 9.00075 11.4654 8.87702 11.4654C8.57459 11.4654 6.62939 10.9842 5.74271 10.6955L4.81479 10.3862L5.4334 9.75378C6.01078 9.15575 6.75311 8.52334 6.79435 8.58521C6.8081 8.59896 6.87684 8.76393 6.94557 8.9564C7.15865 9.55444 7.48858 9.7744 7.87349 9.58881C8.22404 9.41008 9.02824 8.71581 9.11072 8.51647C9.16571 8.37211 9.17258 8.1659 9.13134 7.7947C9.07635 7.34102 9.08323 7.25854 9.17258 7.21042C9.44065 7.07294 10.9734 6.61926 11.269 6.59176C11.3034 6.58488 11.2484 6.68799 11.1453 6.80485ZM16.3966 6.85984C18.1975 7.38227 19.5997 8.20714 20.9675 9.56131L21.7923 10.3793L21.5174 10.4824C20.562 10.8399 18.1356 11.4654 17.7095 11.4654C17.6132 11.4654 17.5582 11.3623 17.462 10.998C17.0152 9.3276 16.3073 7.83595 15.4618 6.80485L15.2762 6.58489L15.5099 6.62613C15.6405 6.65363 16.0392 6.75673 16.3966 6.85984ZM5.15846 11.2729C5.78395 11.5066 7.86662 12.0497 8.40963 12.1253C8.60896 12.1459 8.78767 12.194 8.80141 12.2284C8.82204 12.2559 8.77392 12.6615 8.69831 13.1289C8.5471 14.0706 8.45087 15.0124 8.38213 16.2222L8.34089 17.0333H5.31655H2.29909L2.34033 16.6002C2.53279 14.5999 3.0758 12.9845 4.07245 11.4448C4.30615 11.0736 4.40238 10.9842 4.49173 11.0186C4.5536 11.0461 4.85603 11.1629 5.15846 11.2729ZM22.5415 11.4448C23.5313 12.9777 24.0606 14.5724 24.2736 16.6002L24.3149 17.0333H21.2906H18.2662L18.225 16.2222C18.1562 15.0124 18.06 14.0706 17.9019 13.122C17.8332 12.6546 17.7851 12.2559 17.7988 12.2422C17.8194 12.2215 18.1837 12.1322 18.6168 12.0428C19.7028 11.816 21.0156 11.4448 21.6274 11.2042C21.9092 11.0873 22.1566 10.998 22.191 10.9911C22.2185 10.9842 22.3766 11.1904 22.5415 11.4448ZM11.2759 12.4965C12.3344 12.5859 14.3208 12.579 15.4618 12.4827C15.998 12.4346 16.5685 12.4003 16.7403 12.3934H17.0496L17.1321 12.8746C17.2971 13.7613 17.4276 14.9986 17.4758 16.016L17.517 17.0333H13.3036H9.0901L9.13134 16.016C9.18633 14.7443 9.44752 12.6133 9.57812 12.4003C9.59187 12.3659 9.81182 12.3659 10.0661 12.3865C10.3136 12.414 10.8635 12.4621 11.2759 12.4965ZM8.38901 18.5937C8.44399 19.6798 8.61583 21.2745 8.73955 21.9138C8.79454 22.1956 8.83578 22.4637 8.83578 22.505C8.83578 22.5462 8.56772 22.6356 8.23779 22.6974C7.25488 22.8899 6.32008 23.1374 5.30968 23.4742C4.78729 23.6461 4.35426 23.7767 4.34052 23.7629C4.20992 23.5911 3.8525 23.0136 3.62567 22.6012C2.92458 21.3158 2.51217 19.8997 2.34033 18.2156L2.29909 17.7894H5.32343H8.34089L8.38901 18.5937ZM17.4758 18.8068C17.4276 19.8173 17.2902 21.0958 17.1252 21.9757L17.0359 22.4294L16.8022 22.4156C16.6716 22.4087 16.2454 22.3675 15.8536 22.3331C14.9257 22.2369 11.6814 22.2369 10.7535 22.3331C10.3617 22.3675 9.92867 22.4087 9.79807 22.4156L9.56437 22.4294L9.44065 21.742C9.28943 20.8552 9.11072 19.0199 9.11072 18.3256V17.7894H13.3173H17.517L17.4758 18.8068ZM24.3011 17.8376C24.3011 18.0713 24.1431 19.233 24.0537 19.666C23.93 20.2984 23.6207 21.2539 23.332 21.9001C23.0914 22.45 22.3078 23.7698 22.2253 23.7698C22.191 23.7698 21.8061 23.6461 21.3662 23.4948C20.6032 23.2267 18.6786 22.7318 18.0669 22.6356C17.9019 22.6081 17.7713 22.5531 17.7713 22.5119C17.7713 22.4637 17.8126 22.1956 17.8676 21.9138C17.9913 21.2745 18.1631 19.6798 18.225 18.5937L18.2662 17.7894H21.2837C22.9471 17.7894 24.3011 17.8101 24.3011 17.8376ZM16.1767 23.0893C16.7678 23.158 16.8778 23.1855 16.8503 23.2817C16.6784 23.9279 16.266 25.1377 16.0598 25.6189C15.5443 26.8012 14.7539 27.8254 14.0596 28.1829C13.6266 28.4028 12.9805 28.4028 12.5475 28.1829C11.6195 27.6948 10.726 26.3338 10.1074 24.4366C9.94929 23.9348 9.79807 23.4467 9.77058 23.3505L9.72934 23.1649L10.506 23.0893C10.9253 23.048 11.434 22.9999 11.6195 22.9862C12.3 22.9312 15.4825 23.0068 16.1767 23.0893ZM9.10385 23.6461C9.50251 25.2408 10.2517 26.8699 11.0147 27.8048C11.3584 28.2241 11.3377 28.231 10.5542 28.0316C9.37192 27.7292 8.29278 27.2411 7.22051 26.54C6.50567 26.0657 5.55713 25.2546 5.13784 24.7459L4.84228 24.4022L5.20658 24.2647C6.05202 23.9485 8.34776 23.3573 8.94576 23.2955C8.98013 23.2886 9.05573 23.4536 9.10385 23.6461ZM18.8367 23.5361C19.6478 23.7148 20.8094 24.0447 21.4005 24.2647L21.7648 24.4022L21.4005 24.8215C20.1496 26.265 18.0669 27.5161 16.0598 28.0316C15.2694 28.231 15.2488 28.2241 15.5924 27.8048C16.3554 26.8699 17.1046 25.2408 17.5033 23.6461L17.5926 23.2886L17.8332 23.3299C17.9707 23.3505 18.4243 23.4467 18.8367 23.5361Z"/>
</mask>
<path d="M3.7494 1.09259C3.06205 1.37442 2.85584 1.54627 2.85584 1.82123C2.85584 2.0687 2.91083 2.15118 3.8525 3.25789C4.32677 3.82155 4.71169 4.29586 4.71169 4.31648C4.71169 4.3371 4.47111 4.48145 4.17555 4.64643L3.6463 4.94888L3.23389 4.80453C2.65651 4.60518 2.49842 4.61893 1.90043 4.94888C1.25432 5.30633 1 5.54692 1 5.80813C1 6.08996 1.08936 6.17932 1.85919 6.70174L2.54654 7.16917L2.61527 8.04217C2.67713 8.81892 2.70463 8.92891 2.84897 9.08701C3.09642 9.35509 3.35073 9.32072 4.02434 8.93578C4.70481 8.55084 4.88352 8.324 4.95226 7.78783C4.9935 7.41664 5.00725 7.39601 5.35092 7.17605C5.55025 7.05231 5.80457 6.90109 5.92142 6.83922L6.14137 6.72924L6.32696 7.23791C6.43006 7.51974 6.4988 7.78095 6.48505 7.80845C6.47817 7.84282 6.23073 8.05591 5.94892 8.28275C2.98644 10.6611 1.37804 14.3662 1.63236 18.2225C1.97604 23.4055 5.80457 27.7911 10.9253 28.8565C16.7197 30.0663 22.5621 26.6912 24.4317 21.0546C25.4559 17.9613 25.0778 14.3318 23.442 11.5273C20.6101 6.70862 14.8088 4.5227 9.56437 6.30305L8.987 6.5024L8.94576 6.21369C8.92514 6.06246 8.89077 5.76001 8.87015 5.55379L8.82891 5.17572L9.35129 4.8664C9.64685 4.69455 9.96991 4.44708 10.073 4.31648C10.5129 3.75281 10.8566 2.76296 10.7054 2.48113C10.5954 2.28866 9.88055 2.08932 9.23445 2.08932C8.73955 2.08244 8.67082 2.10306 8.05908 2.41239L7.4061 2.74234L6.19636 1.84185C5.00725 0.961987 4.75293 0.803885 4.51923 0.817633C4.45737 0.817633 4.10682 0.941364 3.7494 1.09259ZM5.94892 2.56362C6.68438 3.11354 7.33049 3.56034 7.3786 3.56034C7.43359 3.56034 7.75664 3.40224 8.10719 3.2029C8.76705 2.83171 9.17258 2.73547 9.70184 2.8317C9.94242 2.87982 9.94929 2.89357 9.90805 3.09979C9.81182 3.58784 9.51626 3.91779 8.80141 4.35085C8.42337 4.57769 8.10719 4.81828 8.09345 4.88014C8.0797 4.94201 8.14843 5.66378 8.24466 6.48178C8.34089 7.29978 8.42337 8.04217 8.42337 8.13153C8.42337 8.24151 8.3134 8.37212 8.0522 8.56459L7.68104 8.84642L7.6123 8.66082C6.59502 5.84937 6.58815 5.82875 6.35445 5.82875C6.22386 5.82875 4.78042 6.62613 4.50548 6.8461C4.41613 6.92171 4.34052 7.10731 4.2924 7.37539C4.1893 8.00092 4.18243 8.0078 3.79064 8.23464C3.58443 8.34462 3.40572 8.44086 3.39198 8.44086C3.37136 8.44086 3.33699 8.07654 3.30949 7.6366C3.282 7.18979 3.22701 6.79111 3.18577 6.74299C3.1514 6.69487 2.8421 6.48178 2.5053 6.26868C2.16849 6.05559 1.89355 5.86312 1.89355 5.83562C1.89355 5.75314 2.54654 5.41631 2.69088 5.41631C2.76649 5.41631 2.98644 5.47818 3.18577 5.55379C3.3851 5.6294 3.60505 5.69127 3.68066 5.69127C3.86625 5.69127 5.52963 4.72204 5.61899 4.56394C5.72209 4.37147 5.64648 4.26149 4.62233 3.0448C4.10682 2.43989 3.70816 1.92434 3.73565 1.89684C3.79751 1.84185 4.44362 1.57377 4.53985 1.57377C4.58109 1.56689 5.21345 2.0137 5.94892 2.56362ZM14.0253 6.59176C15.0563 7.07981 16.1011 8.78455 16.6922 10.9636L16.864 11.596L16.6853 11.6304C16.1354 11.7404 14.8776 11.8091 13.3036 11.8091C11.7295 11.8091 10.4717 11.7404 9.92179 11.6304L9.74308 11.596L9.91492 10.9636C10.5129 8.77768 11.5233 7.11418 12.5887 6.58489C12.9599 6.39929 13.6197 6.40616 14.0253 6.59176ZM11.1453 6.80485C10.2998 7.83595 9.59187 9.3276 9.14509 10.998C9.04199 11.3898 9.00075 11.4654 8.87702 11.4654C8.57459 11.4654 6.62939 10.9842 5.74271 10.6955L4.81479 10.3862L5.4334 9.75378C6.01078 9.15575 6.75311 8.52334 6.79435 8.58521C6.8081 8.59896 6.87684 8.76393 6.94557 8.9564C7.15865 9.55444 7.48858 9.7744 7.87349 9.58881C8.22404 9.41008 9.02824 8.71581 9.11072 8.51647C9.16571 8.37211 9.17258 8.1659 9.13134 7.7947C9.07635 7.34102 9.08323 7.25854 9.17258 7.21042C9.44065 7.07294 10.9734 6.61926 11.269 6.59176C11.3034 6.58488 11.2484 6.68799 11.1453 6.80485ZM16.3966 6.85984C18.1975 7.38227 19.5997 8.20714 20.9675 9.56131L21.7923 10.3793L21.5174 10.4824C20.562 10.8399 18.1356 11.4654 17.7095 11.4654C17.6132 11.4654 17.5582 11.3623 17.462 10.998C17.0152 9.3276 16.3073 7.83595 15.4618 6.80485L15.2762 6.58489L15.5099 6.62613C15.6405 6.65363 16.0392 6.75673 16.3966 6.85984ZM5.15846 11.2729C5.78395 11.5066 7.86662 12.0497 8.40963 12.1253C8.60896 12.1459 8.78767 12.194 8.80141 12.2284C8.82204 12.2559 8.77392 12.6615 8.69831 13.1289C8.5471 14.0706 8.45087 15.0124 8.38213 16.2222L8.34089 17.0333H5.31655H2.29909L2.34033 16.6002C2.53279 14.5999 3.0758 12.9845 4.07245 11.4448C4.30615 11.0736 4.40238 10.9842 4.49173 11.0186C4.5536 11.0461 4.85603 11.1629 5.15846 11.2729ZM22.5415 11.4448C23.5313 12.9777 24.0606 14.5724 24.2736 16.6002L24.3149 17.0333H21.2906H18.2662L18.225 16.2222C18.1562 15.0124 18.06 14.0706 17.9019 13.122C17.8332 12.6546 17.7851 12.2559 17.7988 12.2422C17.8194 12.2215 18.1837 12.1322 18.6168 12.0428C19.7028 11.816 21.0156 11.4448 21.6274 11.2042C21.9092 11.0873 22.1566 10.998 22.191 10.9911C22.2185 10.9842 22.3766 11.1904 22.5415 11.4448ZM11.2759 12.4965C12.3344 12.5859 14.3208 12.579 15.4618 12.4827C15.998 12.4346 16.5685 12.4003 16.7403 12.3934H17.0496L17.1321 12.8746C17.2971 13.7613 17.4276 14.9986 17.4758 16.016L17.517 17.0333H13.3036H9.0901L9.13134 16.016C9.18633 14.7443 9.44752 12.6133 9.57812 12.4003C9.59187 12.3659 9.81182 12.3659 10.0661 12.3865C10.3136 12.414 10.8635 12.4621 11.2759 12.4965ZM8.38901 18.5937C8.44399 19.6798 8.61583 21.2745 8.73955 21.9138C8.79454 22.1956 8.83578 22.4637 8.83578 22.505C8.83578 22.5462 8.56772 22.6356 8.23779 22.6974C7.25488 22.8899 6.32008 23.1374 5.30968 23.4742C4.78729 23.6461 4.35426 23.7767 4.34052 23.7629C4.20992 23.5911 3.8525 23.0136 3.62567 22.6012C2.92458 21.3158 2.51217 19.8997 2.34033 18.2156L2.29909 17.7894H5.32343H8.34089L8.38901 18.5937ZM17.4758 18.8068C17.4276 19.8173 17.2902 21.0958 17.1252 21.9757L17.0359 22.4294L16.8022 22.4156C16.6716 22.4087 16.2454 22.3675 15.8536 22.3331C14.9257 22.2369 11.6814 22.2369 10.7535 22.3331C10.3617 22.3675 9.92867 22.4087 9.79807 22.4156L9.56437 22.4294L9.44065 21.742C9.28943 20.8552 9.11072 19.0199 9.11072 18.3256V17.7894H13.3173H17.517L17.4758 18.8068ZM24.3011 17.8376C24.3011 18.0713 24.1431 19.233 24.0537 19.666C23.93 20.2984 23.6207 21.2539 23.332 21.9001C23.0914 22.45 22.3078 23.7698 22.2253 23.7698C22.191 23.7698 21.8061 23.6461 21.3662 23.4948C20.6032 23.2267 18.6786 22.7318 18.0669 22.6356C17.9019 22.6081 17.7713 22.5531 17.7713 22.5119C17.7713 22.4637 17.8126 22.1956 17.8676 21.9138C17.9913 21.2745 18.1631 19.6798 18.225 18.5937L18.2662 17.7894H21.2837C22.9471 17.7894 24.3011 17.8101 24.3011 17.8376ZM16.1767 23.0893C16.7678 23.158 16.8778 23.1855 16.8503 23.2817C16.6784 23.9279 16.266 25.1377 16.0598 25.6189C15.5443 26.8012 14.7539 27.8254 14.0596 28.1829C13.6266 28.4028 12.9805 28.4028 12.5475 28.1829C11.6195 27.6948 10.726 26.3338 10.1074 24.4366C9.94929 23.9348 9.79807 23.4467 9.77058 23.3505L9.72934 23.1649L10.506 23.0893C10.9253 23.048 11.434 22.9999 11.6195 22.9862C12.3 22.9312 15.4825 23.0068 16.1767 23.0893ZM9.10385 23.6461C9.50251 25.2408 10.2517 26.8699 11.0147 27.8048C11.3584 28.2241 11.3377 28.231 10.5542 28.0316C9.37192 27.7292 8.29278 27.2411 7.22051 26.54C6.50567 26.0657 5.55713 25.2546 5.13784 24.7459L4.84228 24.4022L5.20658 24.2647C6.05202 23.9485 8.34776 23.3573 8.94576 23.2955C8.98013 23.2886 9.05573 23.4536 9.10385 23.6461ZM18.8367 23.5361C19.6478 23.7148 20.8094 24.0447 21.4005 24.2647L21.7648 24.4022L21.4005 24.8215C20.1496 26.265 18.0669 27.5161 16.0598 28.0316C15.2694 28.231 15.2488 28.2241 15.5924 27.8048C16.3554 26.8699 17.1046 25.2408 17.5033 23.6461L17.5926 23.2886L17.8332 23.3299C17.9707 23.3505 18.4243 23.4467 18.8367 23.5361Z" fill="#999999"/>
<path d="M3.7494 1.09259C3.06205 1.37442 2.85584 1.54627 2.85584 1.82123C2.85584 2.0687 2.91083 2.15118 3.8525 3.25789C4.32677 3.82155 4.71169 4.29586 4.71169 4.31648C4.71169 4.3371 4.47111 4.48145 4.17555 4.64643L3.6463 4.94888L3.23389 4.80453C2.65651 4.60518 2.49842 4.61893 1.90043 4.94888C1.25432 5.30633 1 5.54692 1 5.80813C1 6.08996 1.08936 6.17932 1.85919 6.70174L2.54654 7.16917L2.61527 8.04217C2.67713 8.81892 2.70463 8.92891 2.84897 9.08701C3.09642 9.35509 3.35073 9.32072 4.02434 8.93578C4.70481 8.55084 4.88352 8.324 4.95226 7.78783C4.9935 7.41664 5.00725 7.39601 5.35092 7.17605C5.55025 7.05231 5.80457 6.90109 5.92142 6.83922L6.14137 6.72924L6.32696 7.23791C6.43006 7.51974 6.4988 7.78095 6.48505 7.80845C6.47817 7.84282 6.23073 8.05591 5.94892 8.28275C2.98644 10.6611 1.37804 14.3662 1.63236 18.2225C1.97604 23.4055 5.80457 27.7911 10.9253 28.8565C16.7197 30.0663 22.5621 26.6912 24.4317 21.0546C25.4559 17.9613 25.0778 14.3318 23.442 11.5273C20.6101 6.70862 14.8088 4.5227 9.56437 6.30305L8.987 6.5024L8.94576 6.21369C8.92514 6.06246 8.89077 5.76001 8.87015 5.55379L8.82891 5.17572L9.35129 4.8664C9.64685 4.69455 9.96991 4.44708 10.073 4.31648C10.5129 3.75281 10.8566 2.76296 10.7054 2.48113C10.5954 2.28866 9.88055 2.08932 9.23445 2.08932C8.73955 2.08244 8.67082 2.10306 8.05908 2.41239L7.4061 2.74234L6.19636 1.84185C5.00725 0.961987 4.75293 0.803885 4.51923 0.817633C4.45737 0.817633 4.10682 0.941364 3.7494 1.09259ZM5.94892 2.56362C6.68438 3.11354 7.33049 3.56034 7.3786 3.56034C7.43359 3.56034 7.75664 3.40224 8.10719 3.2029C8.76705 2.83171 9.17258 2.73547 9.70184 2.8317C9.94242 2.87982 9.94929 2.89357 9.90805 3.09979C9.81182 3.58784 9.51626 3.91779 8.80141 4.35085C8.42337 4.57769 8.10719 4.81828 8.09345 4.88014C8.0797 4.94201 8.14843 5.66378 8.24466 6.48178C8.34089 7.29978 8.42337 8.04217 8.42337 8.13153C8.42337 8.24151 8.3134 8.37212 8.0522 8.56459L7.68104 8.84642L7.6123 8.66082C6.59502 5.84937 6.58815 5.82875 6.35445 5.82875C6.22386 5.82875 4.78042 6.62613 4.50548 6.8461C4.41613 6.92171 4.34052 7.10731 4.2924 7.37539C4.1893 8.00092 4.18243 8.0078 3.79064 8.23464C3.58443 8.34462 3.40572 8.44086 3.39198 8.44086C3.37136 8.44086 3.33699 8.07654 3.30949 7.6366C3.282 7.18979 3.22701 6.79111 3.18577 6.74299C3.1514 6.69487 2.8421 6.48178 2.5053 6.26868C2.16849 6.05559 1.89355 5.86312 1.89355 5.83562C1.89355 5.75314 2.54654 5.41631 2.69088 5.41631C2.76649 5.41631 2.98644 5.47818 3.18577 5.55379C3.3851 5.6294 3.60505 5.69127 3.68066 5.69127C3.86625 5.69127 5.52963 4.72204 5.61899 4.56394C5.72209 4.37147 5.64648 4.26149 4.62233 3.0448C4.10682 2.43989 3.70816 1.92434 3.73565 1.89684C3.79751 1.84185 4.44362 1.57377 4.53985 1.57377C4.58109 1.56689 5.21345 2.0137 5.94892 2.56362ZM14.0253 6.59176C15.0563 7.07981 16.1011 8.78455 16.6922 10.9636L16.864 11.596L16.6853 11.6304C16.1354 11.7404 14.8776 11.8091 13.3036 11.8091C11.7295 11.8091 10.4717 11.7404 9.92179 11.6304L9.74308 11.596L9.91492 10.9636C10.5129 8.77768 11.5233 7.11418 12.5887 6.58489C12.9599 6.39929 13.6197 6.40616 14.0253 6.59176ZM11.1453 6.80485C10.2998 7.83595 9.59187 9.3276 9.14509 10.998C9.04199 11.3898 9.00075 11.4654 8.87702 11.4654C8.57459 11.4654 6.62939 10.9842 5.74271 10.6955L4.81479 10.3862L5.4334 9.75378C6.01078 9.15575 6.75311 8.52334 6.79435 8.58521C6.8081 8.59896 6.87684 8.76393 6.94557 8.9564C7.15865 9.55444 7.48858 9.7744 7.87349 9.58881C8.22404 9.41008 9.02824 8.71581 9.11072 8.51647C9.16571 8.37211 9.17258 8.1659 9.13134 7.7947C9.07635 7.34102 9.08323 7.25854 9.17258 7.21042C9.44065 7.07294 10.9734 6.61926 11.269 6.59176C11.3034 6.58488 11.2484 6.68799 11.1453 6.80485ZM16.3966 6.85984C18.1975 7.38227 19.5997 8.20714 20.9675 9.56131L21.7923 10.3793L21.5174 10.4824C20.562 10.8399 18.1356 11.4654 17.7095 11.4654C17.6132 11.4654 17.5582 11.3623 17.462 10.998C17.0152 9.3276 16.3073 7.83595 15.4618 6.80485L15.2762 6.58489L15.5099 6.62613C15.6405 6.65363 16.0392 6.75673 16.3966 6.85984ZM5.15846 11.2729C5.78395 11.5066 7.86662 12.0497 8.40963 12.1253C8.60896 12.1459 8.78767 12.194 8.80141 12.2284C8.82204 12.2559 8.77392 12.6615 8.69831 13.1289C8.5471 14.0706 8.45087 15.0124 8.38213 16.2222L8.34089 17.0333H5.31655H2.29909L2.34033 16.6002C2.53279 14.5999 3.0758 12.9845 4.07245 11.4448C4.30615 11.0736 4.40238 10.9842 4.49173 11.0186C4.5536 11.0461 4.85603 11.1629 5.15846 11.2729ZM22.5415 11.4448C23.5313 12.9777 24.0606 14.5724 24.2736 16.6002L24.3149 17.0333H21.2906H18.2662L18.225 16.2222C18.1562 15.0124 18.06 14.0706 17.9019 13.122C17.8332 12.6546 17.7851 12.2559 17.7988 12.2422C17.8194 12.2215 18.1837 12.1322 18.6168 12.0428C19.7028 11.816 21.0156 11.4448 21.6274 11.2042C21.9092 11.0873 22.1566 10.998 22.191 10.9911C22.2185 10.9842 22.3766 11.1904 22.5415 11.4448ZM11.2759 12.4965C12.3344 12.5859 14.3208 12.579 15.4618 12.4827C15.998 12.4346 16.5685 12.4003 16.7403 12.3934H17.0496L17.1321 12.8746C17.2971 13.7613 17.4276 14.9986 17.4758 16.016L17.517 17.0333H13.3036H9.0901L9.13134 16.016C9.18633 14.7443 9.44752 12.6133 9.57812 12.4003C9.59187 12.3659 9.81182 12.3659 10.0661 12.3865C10.3136 12.414 10.8635 12.4621 11.2759 12.4965ZM8.38901 18.5937C8.44399 19.6798 8.61583 21.2745 8.73955 21.9138C8.79454 22.1956 8.83578 22.4637 8.83578 22.505C8.83578 22.5462 8.56772 22.6356 8.23779 22.6974C7.25488 22.8899 6.32008 23.1374 5.30968 23.4742C4.78729 23.6461 4.35426 23.7767 4.34052 23.7629C4.20992 23.5911 3.8525 23.0136 3.62567 22.6012C2.92458 21.3158 2.51217 19.8997 2.34033 18.2156L2.29909 17.7894H5.32343H8.34089L8.38901 18.5937ZM17.4758 18.8068C17.4276 19.8173 17.2902 21.0958 17.1252 21.9757L17.0359 22.4294L16.8022 22.4156C16.6716 22.4087 16.2454 22.3675 15.8536 22.3331C14.9257 22.2369 11.6814 22.2369 10.7535 22.3331C10.3617 22.3675 9.92867 22.4087 9.79807 22.4156L9.56437 22.4294L9.44065 21.742C9.28943 20.8552 9.11072 19.0199 9.11072 18.3256V17.7894H13.3173H17.517L17.4758 18.8068ZM24.3011 17.8376C24.3011 18.0713 24.1431 19.233 24.0537 19.666C23.93 20.2984 23.6207 21.2539 23.332 21.9001C23.0914 22.45 22.3078 23.7698 22.2253 23.7698C22.191 23.7698 21.8061 23.6461 21.3662 23.4948C20.6032 23.2267 18.6786 22.7318 18.0669 22.6356C17.9019 22.6081 17.7713 22.5531 17.7713 22.5119C17.7713 22.4637 17.8126 22.1956 17.8676 21.9138C17.9913 21.2745 18.1631 19.6798 18.225 18.5937L18.2662 17.7894H21.2837C22.9471 17.7894 24.3011 17.8101 24.3011 17.8376ZM16.1767 23.0893C16.7678 23.158 16.8778 23.1855 16.8503 23.2817C16.6784 23.9279 16.266 25.1377 16.0598 25.6189C15.5443 26.8012 14.7539 27.8254 14.0596 28.1829C13.6266 28.4028 12.9805 28.4028 12.5475 28.1829C11.6195 27.6948 10.726 26.3338 10.1074 24.4366C9.94929 23.9348 9.79807 23.4467 9.77058 23.3505L9.72934 23.1649L10.506 23.0893C10.9253 23.048 11.434 22.9999 11.6195 22.9862C12.3 22.9312 15.4825 23.0068 16.1767 23.0893ZM9.10385 23.6461C9.50251 25.2408 10.2517 26.8699 11.0147 27.8048C11.3584 28.2241 11.3377 28.231 10.5542 28.0316C9.37192 27.7292 8.29278 27.2411 7.22051 26.54C6.50567 26.0657 5.55713 25.2546 5.13784 24.7459L4.84228 24.4022L5.20658 24.2647C6.05202 23.9485 8.34776 23.3573 8.94576 23.2955C8.98013 23.2886 9.05573 23.4536 9.10385 23.6461ZM18.8367 23.5361C19.6478 23.7148 20.8094 24.0447 21.4005 24.2647L21.7648 24.4022L21.4005 24.8215C20.1496 26.265 18.0669 27.5161 16.0598 28.0316C15.2694 28.231 15.2488 28.2241 15.5924 27.8048C16.3554 26.8699 17.1046 25.2408 17.5033 23.6461L17.5926 23.2886L17.8332 23.3299C17.9707 23.3505 18.4243 23.4467 18.8367 23.5361Z" stroke="#999999" stroke-width="0.20065" mask="url(#path-1-outside-1_1811_11063)"/>
</svg>
