<svg width="29" height="30" viewBox="0 0 29 30" fill="none" xmlns="http://www.w3.org/2000/svg">
<path d="M12.3505 0.124847C11.2504 0.391325 10.3204 1.35518 10.1333 2.43243C10.0879 2.70458 10.0879 3.50401 10.139 5.51677C10.1843 7.62025 10.1843 8.23825 10.1333 8.28928C10.0936 8.3233 7.87075 9.51961 5.18857 10.9427C2.10945 12.5756 0.255176 13.5962 0.158776 13.7039L0 13.8683V15.5749C0 16.981 0.0170117 17.3042 0.0850585 17.4402C0.187129 17.6387 0.328893 17.7237 0.555716 17.7237C0.646445 17.7237 2.21719 17.3552 4.04311 16.9016C5.86904 16.448 7.38875 16.0795 7.42277 16.0795C7.46247 16.0795 7.48515 16.2326 7.48515 16.4707C7.48515 16.8109 7.50216 16.8903 7.63258 17.0377C7.75167 17.1794 7.81971 17.2134 8.00684 17.2134C8.47183 17.2134 8.61926 16.981 8.61926 16.2383V15.762L9.45284 15.5579C9.91215 15.4445 10.3034 15.3651 10.3204 15.3821C10.3374 15.3935 10.3771 16.5501 10.4112 17.9392C10.4565 19.7932 10.4565 20.4906 10.4112 20.5359C10.3771 20.5699 9.87813 21.0065 9.29973 21.5054C8.72133 22.0101 8.1883 22.4863 8.10891 22.5714L7.96715 22.7244V24.2156C7.96715 26.4835 7.78002 26.4098 10.8194 25.3609L13.0423 24.5898L14.1481 24.9753L15.2538 25.3552L15.5544 25.8088C15.9343 26.3871 16.9153 27.3736 17.4937 27.7592C19.7789 29.2957 22.6142 29.4771 24.9959 28.2411C27.0599 27.1695 28.3812 25.4232 28.8972 23.0816C29.0333 22.4693 29.0333 21.0065 28.9029 20.3431C28.591 18.784 27.9162 17.548 26.7594 16.414L26.0846 15.7507V14.8095V13.8683L25.9315 13.7039C25.8294 13.5962 23.9128 12.5416 20.8393 10.8974L15.9059 8.26093V7.93208C15.9059 7.75065 15.9286 6.46929 15.9513 5.0802C15.991 2.85199 15.9853 2.51748 15.9059 2.22265C15.7755 1.72372 15.5544 1.35518 15.1404 0.935621C14.3976 0.181545 13.3542 -0.12462 12.3505 0.124847ZM13.8702 1.39487C14.3068 1.61032 14.6357 1.98452 14.7775 2.44377C14.8682 2.73293 14.8682 3.06744 14.7491 8.57843C14.6811 11.7818 14.6017 15.6032 14.5734 17.0717C14.528 19.1582 14.494 19.8555 14.4146 20.2751C14.2728 21.0689 14.2842 22.4523 14.4486 23.1667C14.511 23.4615 14.5847 23.7563 14.6017 23.8244C14.6357 23.9378 14.5904 23.9264 13.9212 23.694C13.5243 23.5636 13.1274 23.4502 13.0423 23.4502C12.9176 23.4502 11.4149 23.9491 9.45851 24.6351L9.12961 24.7485V23.9434L9.13528 23.1383L10.1673 22.2482C11.4545 21.1426 11.5453 21.0462 11.585 20.8534C11.602 20.7684 11.5793 19.2999 11.5396 17.582C11.4942 15.8697 11.4319 13.1086 11.4035 11.4587C11.3695 9.8031 11.3128 7.16667 11.2788 5.59048C11.2164 2.9257 11.2164 2.70458 11.3071 2.43243C11.6587 1.36652 12.8438 0.890263 13.8702 1.39487ZM10.2864 11.9689L10.3204 14.1858L9.54356 14.3729C9.1126 14.4806 8.727 14.577 8.69298 14.594C8.64761 14.6054 8.61926 14.5657 8.61926 14.4806C8.61926 13.891 8.04086 13.5905 7.64959 13.976C7.50216 14.1291 7.48515 14.1801 7.48515 14.509V14.8775L4.37768 15.6486C2.66517 16.0738 1.23618 16.4197 1.20216 16.4197C1.15113 16.4197 1.13411 16.1645 1.14545 15.3935L1.16247 14.3729L5.67057 11.9689C9.39613 9.98453 10.1843 9.58198 10.2127 9.66135C10.2297 9.71238 10.2637 10.7556 10.2864 11.9689ZM20.4707 11.9859L24.9221 14.3729L24.9392 14.7131C24.9505 14.9059 24.9448 15.0589 24.9278 15.0589C24.9108 15.0589 24.684 14.9739 24.4231 14.8662C22.79 14.2085 21.0662 14.1575 19.331 14.7131C18.5768 14.9569 18.5995 14.9626 18.5995 14.5147C18.5995 14.1801 18.5824 14.1291 18.435 13.976C18.0437 13.5905 17.4653 13.891 17.4653 14.4806C17.4653 14.5657 17.437 14.6054 17.3973 14.594C17.3576 14.577 16.972 14.4806 16.541 14.3729L15.7585 14.1858L15.7925 12.621C15.8379 10.2567 15.8776 9.54796 15.957 9.57631C15.991 9.59332 18.0211 10.6762 20.4707 11.9859ZM16.5864 15.5465C16.9323 15.6316 17.2329 15.7166 17.2555 15.7393C17.2782 15.762 17.1988 15.847 17.0797 15.9321C16.8416 16.0965 16.0364 16.9073 15.8322 17.1851L15.7131 17.3552L15.7075 16.4764C15.7075 15.4898 15.7358 15.3254 15.8719 15.3651C15.923 15.3821 16.2462 15.4615 16.5864 15.5465ZM22.9545 15.5919C25.3531 16.1135 27.2414 18.0129 27.7688 20.4339C27.9049 21.0519 27.9049 22.3049 27.7688 22.9399C27.1166 25.9562 24.4175 28.054 21.378 27.9123C20.2326 27.8556 19.2005 27.521 18.2479 26.8917C17.0117 26.0809 16.0874 24.8336 15.6848 23.4388C15.1744 21.6585 15.4523 19.8215 16.456 18.2794C17.4257 16.8052 19.0134 15.7903 20.7826 15.5125C21.2533 15.4445 22.4554 15.4842 22.9545 15.5919Z" fill="#999999"/>
<path d="M19.5807 19.191C19.4219 19.2137 19.1837 19.4518 19.1554 19.6162C19.1043 19.911 19.1894 20.0301 20.0059 20.8579L20.8338 21.697L20.0059 22.5305C19.2007 23.3526 19.11 23.483 19.1554 23.7778C19.178 23.9366 19.4162 24.1747 19.5807 24.203C19.8755 24.2541 19.9946 24.169 20.8225 23.3526L21.6617 22.5248L22.501 23.3526C23.3176 24.1577 23.448 24.2484 23.7428 24.203C23.9016 24.1804 24.1398 23.9422 24.1681 23.7778C24.2192 23.483 24.1341 23.3639 23.3176 22.5361L22.4897 21.697L23.3176 20.8579C24.1341 20.0301 24.2192 19.911 24.1681 19.6162C24.1398 19.4518 23.9073 19.2193 23.7428 19.191C23.448 19.14 23.3289 19.225 22.501 20.0415L21.6617 20.8692L20.8282 20.0415C20.0059 19.2363 19.8755 19.1456 19.5807 19.191Z" fill="#999999"/>
</svg>
