<svg width="30" height="21" viewBox="0 0 30 21" fill="none" xmlns="http://www.w3.org/2000/svg">
<path d="M13.8152 0.469269C12.0079 0.941666 10.5906 2.37385 10.1256 4.18846C9.72067 5.77811 10.2156 7.57022 11.393 8.79245L11.8879 9.30234L11.333 9.4973L10.7705 9.68476L10.3356 9.27235C10.0656 9.0249 9.63819 8.73996 9.23324 8.545L8.57332 8.22257L8.85828 7.89265C10.1856 6.35548 10.1331 4.18096 8.7458 2.68129C7.80092 1.66151 6.27112 1.20411 4.95878 1.55653C3.60896 1.90895 2.40911 3.13119 2.10915 4.4434C2.01166 4.87831 2.01166 5.8081 2.10915 6.24301C2.22163 6.7454 2.58909 7.44275 2.96404 7.87015L3.294 8.24507L2.86655 8.41753C1.49423 8.97991 0.414364 10.2546 0.114403 11.6943C-0.0205801 12.3167 -0.0430773 14.7237 0.0844065 14.9561C0.309378 15.376 3.33149 16.4408 4.30637 16.4408C4.63632 16.4408 4.87629 16.1783 4.87629 15.8259C4.87629 15.451 4.71132 15.3385 3.89392 15.1736C3.00903 14.9861 2.28163 14.7611 1.65921 14.4837L1.18677 14.2663L1.21676 13.089C1.24676 12.0917 1.27675 11.8368 1.41924 11.4769C1.78669 10.5396 2.53659 9.80473 3.48897 9.45231C3.89392 9.30234 4.11889 9.28734 5.6112 9.25735C6.68356 9.24235 7.46346 9.25735 7.78592 9.31734C8.35585 9.41481 9.06826 9.74474 9.43571 10.0747L9.68318 10.2996L9.12825 10.847C8.10088 11.8668 7.50096 13.0965 7.35098 14.5362C7.30598 14.9411 7.27599 15.8934 7.29099 16.6432C7.32098 18.2554 7.24599 18.1204 8.36335 18.6303C12.6303 20.5949 17.3697 20.6024 21.5992 18.6528C22.7615 18.1129 22.679 18.2554 22.709 16.6432C22.724 15.8934 22.694 14.9411 22.649 14.5362C22.499 13.0965 21.8991 11.8668 20.8643 10.8395L20.3018 10.2846L20.5568 10.0672C20.9467 9.72974 21.6591 9.41481 22.2141 9.31734C22.5365 9.25735 23.3164 9.24235 24.3888 9.25735C25.8811 9.28734 26.1061 9.30234 26.511 9.45231C27.4634 9.80473 28.2133 10.5396 28.5808 11.4769C28.7232 11.8368 28.7532 12.0917 28.7832 13.0815L28.8132 14.2588L28.5283 14.4012C28.0183 14.6637 26.9835 14.9936 26.1811 15.1586C25.2887 15.3385 25.1237 15.4435 25.1237 15.8409C25.1237 16.1933 25.3712 16.4408 25.7311 16.4408C26.0836 16.4333 27.1484 16.1933 27.8684 15.9534C28.7232 15.6684 29.8181 15.1286 29.9156 14.9561C30.0431 14.7237 30.0206 12.3167 29.8856 11.6868C29.5856 10.2696 28.4983 8.97241 27.1334 8.41753L26.706 8.24507L27.036 7.87015C27.6509 7.16531 27.9733 6.30299 27.9733 5.3432C27.9658 4.21845 27.6359 3.42362 26.8185 2.6138C26.0011 1.79648 25.1687 1.44406 24.0363 1.44406C21.9516 1.45155 20.1743 3.24366 20.1743 5.3432C20.1743 6.25051 20.5268 7.1803 21.1417 7.89265L21.4267 8.22257L20.7668 8.545C20.3618 8.73996 19.9344 9.0249 19.6644 9.27235L19.2295 9.68476L18.652 9.4898L18.0746 9.28734L18.3371 9.07739C19.0045 8.52251 19.7094 7.30777 19.9119 6.35548C20.3768 4.15846 19.2445 1.86396 17.1897 0.844187C16.1474 0.326799 14.895 0.191828 13.8152 0.469269ZM15.7649 1.60152C17.1822 1.89396 18.4496 3.16118 18.742 4.57837C19.0045 5.84559 18.6295 7.05283 17.6697 8.01262C16.1174 9.56478 13.8826 9.56478 12.3303 8.01262C10.778 6.46046 10.778 4.21845 12.3303 2.67379C13.2977 1.714 14.4976 1.33908 15.7649 1.60152ZM6.99852 2.85375C7.48596 3.0712 8.13088 3.70106 8.37835 4.21095C8.56582 4.57837 8.58832 4.72084 8.58832 5.3432C8.58832 5.98056 8.56582 6.10054 8.37085 6.49045C8.10838 7.00034 7.48596 7.61521 6.99852 7.84016C6.70606 7.97513 6.50359 8.00512 5.92616 8.00512C5.29624 8.00512 5.16126 7.98263 4.78631 7.79517C3.20401 7.02284 2.73157 5.05827 3.78893 3.67107C4.0589 3.31865 4.58383 2.94373 5.07127 2.75627C5.49871 2.5913 6.53358 2.64379 6.99852 2.85375ZM25.2137 2.89124C25.7836 3.16868 26.2861 3.67107 26.5335 4.20345C26.706 4.57087 26.736 4.72834 26.736 5.3432C26.736 5.97307 26.7135 6.10804 26.526 6.48295C26.2561 7.03783 25.7686 7.52523 25.2137 7.79517C24.8387 7.98263 24.7038 8.00512 24.0738 8.00512C23.4964 8.00512 23.2939 7.97513 23.0015 7.84016C22.5065 7.60771 21.8616 6.97785 21.6217 6.47546C21.4342 6.10804 21.4117 5.97307 21.4117 5.3432C21.4192 4.48839 21.5617 4.11347 22.0941 3.5436C22.739 2.85375 23.2564 2.6363 24.1863 2.66629C24.6663 2.68129 24.8687 2.71878 25.2137 2.89124ZM17.7372 10.4796C19.4469 10.8395 20.9092 12.2342 21.3367 13.9288C21.5017 14.5887 21.5842 17.2731 21.4417 17.3856C21.2242 17.558 19.7994 18.1129 18.9745 18.3529C17.5647 18.7578 16.6648 18.8777 15 18.8777C13.3352 18.8777 12.4353 18.7578 11.0255 18.3529C10.2006 18.1129 8.77579 17.558 8.55832 17.3856C8.41584 17.2731 8.49833 14.5887 8.66331 13.9288C9.09076 12.2567 10.5456 10.847 12.2254 10.4871C12.9378 10.3296 17.0097 10.3296 17.7372 10.4796Z" fill="#999999"/>
</svg>
