<svg width="26" height="27" viewBox="0 0 26 27" fill="none" xmlns="http://www.w3.org/2000/svg">
<path d="M11.6949 0.194736C11.3547 0.275991 10.9027 0.550224 10.6793 0.809223C10.3797 1.14948 10.2223 1.55067 10.0801 2.35813C10.009 2.7644 9.93789 3.1402 9.92773 3.19607C9.9125 3.26716 9.81094 3.33318 9.56211 3.41952C9.37422 3.48553 8.99336 3.63789 8.72422 3.75977L8.22656 3.98322L7.57148 3.52616C7.21602 3.27732 6.79453 3.01324 6.63711 2.94723C6.09375 2.70346 5.46406 2.72378 4.89023 3.00309C4.46875 3.20622 3.08242 4.59262 2.8793 5.01413C2.6 5.58799 2.57969 6.21771 2.82344 6.7611C2.88945 6.91853 3.15352 7.34003 3.40234 7.69552L3.85937 8.35063L3.63594 8.84831C3.51406 9.11747 3.36172 9.49835 3.2957 9.68625C3.20937 9.93509 3.14336 10.0367 3.07227 10.0519C3.01641 10.062 2.64062 10.1331 2.23438 10.2042C1.14766 10.3972 0.675391 10.6562 0.319922 11.2504C0.0507812 11.7024 0 12.002 0 13.1243C0 14.2466 0.0507812 14.5463 0.319922 14.9982C0.675391 15.5924 1.14766 15.8514 2.23438 16.0444C2.64062 16.1155 3.01641 16.1866 3.07227 16.1967C3.14336 16.212 3.20937 16.3135 3.2957 16.5624C3.36172 16.7503 3.51406 17.1312 3.63594 17.4003L3.85937 17.898L3.40234 18.5531C3.15352 18.9086 2.88945 19.3301 2.82344 19.4875C2.57969 20.0309 2.6 20.6607 2.8793 21.2345C3.08242 21.656 4.46875 23.0424 4.89023 23.2456C5.46406 23.5249 6.09375 23.5452 6.63711 23.3014C6.79453 23.2354 7.21602 22.9713 7.57148 22.7225L8.22656 22.2654L8.72422 22.4889C8.99336 22.6108 9.37422 22.7631 9.56211 22.8291C9.81094 22.9155 9.9125 22.9815 9.92773 23.0526C9.93789 23.1084 10.009 23.4842 10.0801 23.8905C10.273 24.9773 10.532 25.4496 11.1262 25.8051C11.5781 26.0742 11.8777 26.125 13 26.125C14.1223 26.125 14.4219 26.0742 14.8738 25.8051C15.209 25.6019 15.4578 25.3226 15.6457 24.9367C15.9199 24.3679 15.8793 23.9514 15.5289 23.7382C15.1277 23.4944 14.7266 23.6772 14.5336 24.1851C14.4473 24.4085 14.3609 24.5405 14.2289 24.6421L14.0512 24.7792H13.0051C11.9895 24.7792 11.9539 24.7741 11.7914 24.6624C11.7 24.5964 11.5934 24.4796 11.5527 24.4034C11.5172 24.3272 11.4004 23.7991 11.2988 23.2252C11.0602 21.8998 11.0957 21.9455 10.2223 21.6611C9.8668 21.5443 9.30312 21.3107 8.97305 21.1431C8.55664 20.9349 8.31289 20.8435 8.18086 20.8435C7.96758 20.8435 7.78477 20.9501 6.80469 21.6509C5.79414 22.367 5.71289 22.3568 4.74297 21.3818C3.76797 20.4118 3.75781 20.3306 4.47383 19.32C5.17461 18.3398 5.28125 18.157 5.28125 17.9437C5.28125 17.8168 5.18984 17.5679 4.98164 17.1515C4.81406 16.8214 4.58047 16.2577 4.45859 15.8971C4.16914 15.0287 4.20977 15.0541 2.93516 14.8307C1.79766 14.6275 1.63516 14.5717 1.46758 14.3381C1.35078 14.1705 1.3457 14.14 1.3457 13.1243C1.3457 12.1137 1.35078 12.0782 1.4625 11.9157C1.52852 11.8243 1.64531 11.7176 1.72148 11.677C1.80273 11.6364 2.33086 11.5246 2.89961 11.4231C4.21484 11.1895 4.16406 11.225 4.45859 10.3515C4.58047 9.99095 4.81406 9.42725 4.98164 9.09716C5.18984 8.68073 5.28125 8.43189 5.28125 8.30493C5.28125 8.09163 5.17461 7.90881 4.47383 6.92868C3.75781 5.91808 3.76797 5.83683 4.74297 4.86686C5.71289 3.89181 5.79414 3.88165 6.80469 4.5977C7.78477 5.29852 7.96758 5.40517 8.18086 5.40517C8.31289 5.40517 8.55664 5.31376 8.97305 5.10554C9.30312 4.93795 9.85664 4.70943 10.207 4.59262C10.8164 4.39457 10.9789 4.30823 11.0754 4.13049C11.1008 4.07971 11.1973 3.59726 11.2937 3.05387C11.4969 1.92647 11.5527 1.75888 11.7863 1.5913C11.9539 1.47449 11.9844 1.46941 13 1.46941C14.0105 1.46941 14.0461 1.47449 14.2086 1.58622C14.3 1.65224 14.4066 1.76904 14.4473 1.84521C14.4828 1.92139 14.5996 2.44954 14.7012 3.0234C14.9398 4.34886 14.9043 4.30316 15.7777 4.58755C16.1332 4.70435 16.6969 4.93795 17.027 5.10554C17.4434 5.31376 17.6871 5.40517 17.8191 5.40517C18.0324 5.40517 18.2152 5.29852 19.1953 4.5977C20.2059 3.88165 20.2871 3.89181 21.257 4.86686C22.232 5.83683 22.2422 5.91808 21.5262 6.92868C20.8254 7.90881 20.7188 8.09163 20.7188 8.30493C20.7188 8.43697 20.8102 8.68073 21.0184 9.09716C21.1859 9.42725 21.4145 9.9808 21.5312 10.3312C21.7293 10.9406 21.8156 11.1031 21.9934 11.1996C22.0441 11.225 22.5266 11.3215 23.0699 11.418C24.1973 11.6211 24.3648 11.677 24.5324 11.9106C24.6492 12.0782 24.6543 12.1086 24.6543 13.1294V14.1755L24.5172 14.3533C24.4156 14.4853 24.2836 14.5717 24.0602 14.658C23.5523 14.851 23.3695 15.2522 23.6133 15.6534C23.8266 16.0038 24.243 16.0444 24.8117 15.7702C25.2027 15.5823 25.477 15.3334 25.6902 14.983C25.9492 14.5513 26 14.2517 26 13.1243C26 12.002 25.9492 11.7024 25.6801 11.2504C25.3145 10.641 24.8625 10.4023 23.6691 10.1839C23.2121 10.0976 22.8312 10.0214 22.8262 10.0163C22.8211 10.0062 22.7652 9.85384 22.6992 9.67101C22.6383 9.48819 22.4859 9.11747 22.359 8.84831L22.1406 8.35063L22.5977 7.69552C22.8465 7.34003 23.1105 6.91853 23.1766 6.7611C23.4203 6.21771 23.4 5.58799 23.1207 5.01413C22.9176 4.59262 21.5312 3.20622 21.1098 3.00309C20.5359 2.72378 19.9062 2.70346 19.3629 2.94723C19.2055 3.01324 18.784 3.27732 18.4285 3.52616L17.7734 3.98322L17.2758 3.75977C17.0066 3.63789 16.6258 3.48553 16.4379 3.41952C16.1891 3.33318 16.0875 3.26716 16.0723 3.19607C16.0621 3.1402 15.991 2.7644 15.9199 2.35813C15.727 1.27136 15.468 0.799065 14.8738 0.443579C14.4168 0.174423 14.1223 0.12364 12.9746 0.128717C12.3449 0.128717 11.8574 0.159189 11.6949 0.194736Z" fill="#999999"/>
<path d="M12.1261 6.72722C11.5675 6.85925 11.1715 7.38233 11.1715 7.99174C11.1715 8.4234 11.334 8.65193 12.4308 9.77425C13.0402 10.3989 13.4871 10.9017 13.5328 11.0083C13.6343 11.247 13.6293 11.5263 13.5125 11.7751C13.416 11.9884 11.9636 13.4561 11.73 13.578C11.5168 13.6897 11.2882 13.7202 11.0343 13.6694C10.8058 13.6237 10.7144 13.5424 9.67341 12.5064C8.46989 11.313 8.30231 11.1962 7.84528 11.1911C7.53552 11.1911 7.14958 11.3638 6.92106 11.6025C6.66208 11.8767 6.59099 12.1103 6.56559 12.7908C6.44372 15.782 8.54098 18.4685 11.5218 19.149C11.7199 19.1896 12.314 19.2404 12.9488 19.2607C13.9543 19.3013 14.066 19.3115 14.391 19.4384C14.5789 19.5095 14.8632 19.6568 15.0156 19.7685C15.1679 19.8752 16.275 20.9772 17.4734 22.2163C18.6769 23.4554 19.7078 24.4965 19.7687 24.5321C19.9211 24.6184 20.2359 24.6133 20.4136 24.5219C20.4949 24.4762 20.6015 24.3695 20.6472 24.2832C20.7336 24.1156 20.7539 23.7906 20.6828 23.6586C20.6574 23.6179 20.048 22.973 19.3269 22.2265C16.0566 18.8443 15.7519 18.5649 15.0308 18.2704C14.4367 18.0317 14.1828 17.986 13.0504 17.9454C12.1718 17.9149 11.8773 17.8844 11.5523 17.793C9.83083 17.3207 8.46481 15.9343 8.02302 14.2077C7.91638 13.8014 7.82497 12.6131 7.89099 12.6131C7.91638 12.6131 8.31247 13.0041 8.77458 13.4866C9.24177 13.9639 9.75466 14.4565 9.91208 14.5733C10.6027 15.0812 11.5472 15.1523 12.3343 14.7511C12.5629 14.6343 13.9492 13.3494 14.325 12.9127C15.0257 12.09 15.1222 11.0235 14.5687 10.1501C14.4824 10.0079 14 9.48478 13.5023 8.97694C12.9996 8.47418 12.5933 8.04252 12.5933 8.01713C12.5933 7.94603 13.6039 8.03236 14.066 8.14409C14.5789 8.27105 15.3304 8.61638 15.7621 8.92616C16.1582 9.21563 16.7371 9.8098 17.0062 10.2059C17.3261 10.6833 17.514 11.12 17.7476 11.9529C17.7679 12.024 17.8035 12.6283 17.8238 13.2987C17.8543 14.3042 17.8797 14.5784 17.9711 14.8679C18.098 15.2995 18.3621 15.8277 18.6261 16.1781C18.88 16.5133 23.1761 20.9467 23.3234 21.0229C23.8464 21.3022 24.4304 20.8401 24.273 20.2814C24.2324 20.1443 23.6789 19.54 21.9777 17.793C20.7437 16.5234 19.6621 15.3656 19.5757 15.2284C19.2203 14.6749 19.1797 14.487 19.139 13.1717C19.1035 11.9224 19.0578 11.6329 18.814 10.9067C18.1843 9.05312 16.5543 7.48898 14.6855 6.94559C13.8273 6.69675 12.6644 6.60026 12.1261 6.72722Z" fill="#999999"/>
</svg>
