<svg width="24" height="30" viewBox="0 0 24 30" fill="none" xmlns="http://www.w3.org/2000/svg">
<path d="M18.7475 0.536253C17.9564 0.829543 17.3495 1.45705 17.0972 2.24825C16.9608 2.67113 16.954 2.80755 16.9745 4.84012L16.9949 6.98864L17.1927 7.39788C17.4518 7.92308 17.9701 8.44145 18.4952 8.70064L18.9043 8.89844H20.2341H21.5639L21.9526 8.70064C22.4027 8.47555 22.8937 8.01857 23.1324 7.60932C23.4733 7.02274 23.5211 6.6476 23.4938 4.47862C23.4733 2.58246 23.4597 2.46651 23.3097 2.09137C23.0914 1.5389 22.5254 0.945495 21.9526 0.665846L21.5025 0.440763L20.3023 0.4203C19.2589 0.406659 19.0612 0.4203 18.7475 0.536253ZM21.3184 1.53208C21.4752 1.58664 21.7071 1.70941 21.8367 1.8049C22.1231 2.02999 22.4163 2.59611 22.4163 2.94396V3.20315H20.2H17.9837V3.01217C17.9905 2.74616 18.1474 2.35056 18.352 2.07773C18.7407 1.56618 19.1226 1.43659 20.2068 1.42977C20.766 1.42977 21.1275 1.46387 21.3184 1.53208ZM22.4027 5.50855L22.3822 6.79766L22.1776 7.13187C22.0481 7.3365 21.8435 7.54112 21.6389 7.67071C21.3116 7.86851 21.2707 7.87533 20.35 7.89579C19.2862 7.92308 18.9794 7.85487 18.5497 7.47973C18.0792 7.06367 18.0178 6.86587 17.9974 5.46762L17.9701 4.22625H20.2H22.4231L22.4027 5.50855Z" fill="#999999"/>
<path d="M2.04656 3.26551C1.41236 3.4906 0.98274 3.89302 0.682687 4.52735C0.341718 5.25716 0.334899 5.19577 1.94427 12.5758C2.74214 16.2112 3.44454 19.3556 3.49909 19.5602C3.64912 20.0786 4.0651 20.8834 4.44698 21.3881C4.83569 21.9133 5.31986 22.343 5.96089 22.7455L6.45188 23.0524L6.28822 23.4753C6.19956 23.7072 5.74267 24.8735 5.27213 26.0603C4.80159 27.2471 4.41289 28.3112 4.41289 28.4135C4.41289 28.7272 4.69248 29.191 4.95844 29.3343C5.18348 29.4502 5.56536 29.457 12.6302 29.457C19.927 29.457 20.0702 29.457 20.2884 29.3206C20.5953 29.1365 20.7794 28.8022 20.7794 28.4476C20.7794 28.2088 20.5816 27.7246 19.7565 25.9512C19.1973 24.7371 18.7336 23.714 18.7336 23.6731C18.7336 23.6117 18.9654 23.5912 19.5042 23.5912C20.3702 23.5912 20.7794 23.4957 21.4272 23.1615C22.2524 22.725 22.9616 21.7633 23.1594 20.8084C23.5958 18.694 21.9319 16.6341 19.7838 16.6341C19.5519 16.6341 17.4652 16.866 15.1466 17.1457C12.8212 17.4253 10.8163 17.6572 10.6867 17.6572C10.4003 17.6572 10.0252 17.4662 9.84793 17.2343C9.74564 17.0979 9.36376 15.9452 9.41149 15.9111C9.41831 15.9043 11.0072 15.6656 12.9371 15.3791C17.1378 14.7516 17.1106 14.7584 17.5334 14.5333C18.1062 14.2264 18.529 13.4898 18.529 12.8145C18.529 11.8869 17.7993 11.0548 16.8173 10.8706C16.6605 10.8433 15.1943 11.0343 12.4325 11.4504C10.1548 11.7914 8.27948 12.0642 8.27266 12.0506C8.26584 12.0369 8.10899 11.6004 7.93169 11.0752C7.03153 8.46289 5.72903 5.55727 4.9107 4.36365C4.47426 3.7225 4.0651 3.39511 3.50591 3.23141C3.04219 3.095 2.47618 3.10864 2.04656 3.26551ZM3.44454 4.33636C3.73777 4.4796 4.01054 4.84792 4.60383 5.92559C5.89269 8.25827 7.27703 12.0233 8.43632 16.3613C8.79775 17.7254 9.05007 18.121 9.78656 18.503C10.3185 18.7758 10.3867 18.7758 15.1875 18.196C20.1111 17.5958 20.1247 17.5958 20.8067 17.93C21.7477 18.3802 22.3069 19.4647 22.1433 20.4946C22.0137 21.2926 21.4682 22.002 20.7248 22.3499L20.3361 22.534L14.4715 22.5545C7.7953 22.5749 7.97942 22.5886 6.87468 22.0497C5.7904 21.5177 4.89024 20.4878 4.54927 19.376C4.33787 18.6871 1.54875 5.76189 1.54875 5.46178C1.54875 4.48642 2.53074 3.89984 3.44454 4.33636ZM17.1242 12.1393C17.4174 12.3916 17.5197 12.719 17.4243 13.0669C17.3424 13.3602 17.0356 13.6739 16.7696 13.7285C16.2718 13.8308 9.22737 14.8607 9.16599 14.8403C9.1319 14.8334 8.98869 14.431 8.84548 13.9536L8.59317 13.0942L8.87276 13.0532C9.02279 13.0259 10.7208 12.7668 12.6302 12.4735C14.5465 12.187 16.2854 11.9415 16.4968 11.9346C16.8446 11.9278 16.9128 11.9551 17.1242 12.1393ZM12.7189 23.5912L17.5129 23.6253L18.604 25.9785C19.1973 27.2676 19.6883 28.3521 19.6883 28.3794C19.6883 28.4066 16.4968 28.4339 12.5961 28.4339C8.69546 28.4339 5.50399 28.4066 5.50399 28.3794C5.50399 28.318 7.37932 23.5639 7.44751 23.4548C7.46797 23.4207 7.5839 23.4343 7.70665 23.4753C7.85667 23.5298 9.36376 23.5639 12.7189 23.5912Z" fill="#999999"/>
</svg>
