<svg width="29" height="17" viewBox="0 0 29 17" fill="none" xmlns="http://www.w3.org/2000/svg">
<path d="M0.207697 0.170988L0.0208156 0.335218L0.00382638 2.46455C-0.00749979 4.25409 0.00382638 4.61653 0.0717834 4.75244C0.128414 4.86004 0.298307 4.99029 0.54182 5.12054C1.73107 5.74915 2.37666 6.92141 2.37666 8.44479C2.37666 9.96816 1.73107 11.1404 0.54182 11.769C0.298307 11.8993 0.128414 12.0295 0.0717834 12.1371C0.00382638 12.273 -0.00749979 12.6355 0.00382638 14.425L0.0208156 16.5544L0.207697 16.7186L0.388916 16.8828H14.49H28.5911L28.7723 16.7186L28.9592 16.5544L28.9762 14.425C28.9875 12.6355 28.9762 12.273 28.9082 12.1371C28.8516 12.0295 28.6817 11.8993 28.4382 11.769C27.2489 11.1404 26.6033 9.96816 26.6033 8.44479C26.6033 6.92141 27.2489 5.74915 28.4382 5.12054C28.6817 4.99029 28.8516 4.86004 28.9082 4.75244C28.9762 4.61653 28.9875 4.25409 28.9762 2.46455L28.9592 0.335218L28.7723 0.170988L28.5911 0.00675774H14.49H0.388916L0.207697 0.170988ZM19.3036 1.46218C19.3036 2.06813 19.5188 2.38526 19.9266 2.38526C20.3343 2.38526 20.5495 2.06813 20.5495 1.46218V1.19601H24.1739H27.7983V2.63444V4.0672L27.5038 4.26541C26.7846 4.74678 26.2919 5.31875 25.8955 6.15123C25.2046 7.57833 25.1989 9.28292 25.8728 10.6987C26.2636 11.5255 26.7449 12.1088 27.4018 12.5562L27.7983 12.828V14.2608V15.6936H24.1739H20.5495V15.4217C20.5495 14.8214 20.3343 14.5043 19.9266 14.5043C19.5188 14.5043 19.3036 14.8214 19.3036 15.4217V15.6936H10.2427H1.18175V14.2608V12.828L1.57816 12.5562C3.48096 11.2537 4.16619 8.41081 3.1072 6.19087C2.71644 5.36406 2.23508 4.78076 1.57816 4.33337L1.18175 4.06154V2.62878V1.19601H10.2427H19.3036V1.46218Z" fill="#999999"/>
<path d="M19.5699 3.74081C19.3717 3.89938 19.3037 4.17121 19.3037 4.8168C19.3037 5.4624 19.3717 5.73423 19.5699 5.8928C19.8927 6.14763 20.3797 5.97208 20.493 5.56433C20.5666 5.29251 20.5666 4.3411 20.493 4.06927C20.4137 3.79745 20.1985 3.62755 19.9267 3.62755C19.8021 3.62755 19.6548 3.67286 19.5699 3.74081Z" fill="#999999"/>
<path d="M19.5699 7.36757C19.3717 7.52614 19.3037 7.79797 19.3037 8.44356C19.3037 8.73804 19.332 9.07783 19.3603 9.19109C19.5246 9.78005 20.3287 9.78005 20.493 9.19109C20.5666 8.91926 20.5666 7.96786 20.493 7.69603C20.4137 7.4242 20.1985 7.25431 19.9267 7.25431C19.8021 7.25431 19.6548 7.29961 19.5699 7.36757Z" fill="#999999"/>
<path d="M19.5699 10.9926C19.3717 11.1511 19.3037 11.423 19.3037 12.0686C19.3037 12.363 19.332 12.7028 19.3603 12.8161C19.5246 13.4051 20.3287 13.4051 20.493 12.8161C20.5666 12.5443 20.5666 11.5929 20.493 11.321C20.4137 11.0492 20.1985 10.8793 19.9267 10.8793C19.8021 10.8793 19.6548 10.9246 19.5699 10.9926Z" fill="#999999"/>
<path d="M14.3258 3.91815C14.2375 3.96451 14.1426 4.05502 14.0984 4.1345C14.0675 4.18969 14.0587 4.29786 14.0498 4.81222L14.0388 5.42372L13.8843 5.30009C13.2772 4.81001 12.5488 4.49874 11.7696 4.3972C11.4495 4.35525 10.8072 4.36629 10.529 4.41707C10.114 4.49433 9.73877 4.61575 9.40324 4.77469C7.83819 5.52527 6.889 7.15445 7.01041 8.87415C7.14506 10.7638 8.47392 12.3069 10.3215 12.7197C12.0941 13.1149 13.9218 12.3224 14.8622 10.7506C14.9968 10.5232 15.0277 10.3819 14.977 10.2274C14.9174 10.0486 14.7275 9.9095 14.5399 9.9073C14.3456 9.9073 14.211 10.0022 14.0697 10.2406C13.5046 11.2053 12.54 11.7948 11.3789 11.8831C10.8977 11.9206 10.2156 11.7771 9.74539 11.5409C8.82711 11.0773 8.19579 10.2473 7.97726 9.21633C7.91324 8.9183 7.90662 8.32226 7.96401 8.01541C8.08983 7.33547 8.39666 6.75047 8.8845 6.2626C9.35027 5.79459 9.88225 5.50319 10.5423 5.35528C10.7409 5.31113 10.8314 5.30451 11.2133 5.30451C11.7056 5.30451 11.8579 5.32658 12.2618 5.46125C12.6702 5.59812 13.1051 5.84536 13.3788 6.09923L13.509 6.21844L12.8291 6.22065C12.4053 6.22065 12.1117 6.22948 12.0521 6.24493C11.9925 6.26039 11.9131 6.30675 11.8535 6.35752C11.6062 6.57607 11.6592 6.96681 11.9572 7.11251L12.0764 7.17211L13.3678 7.16549C14.7937 7.15887 14.7121 7.1677 14.8622 7.01096C14.999 6.87188 15.0012 6.84981 14.9946 5.46787C14.988 4.24046 14.988 4.22059 14.9394 4.1345C14.8798 4.02412 14.8114 3.95789 14.7077 3.91374C14.6017 3.87179 14.4119 3.87179 14.3258 3.91815Z" fill="#999999"/>
</svg>
