<svg width="26" height="26" viewBox="0 0 26 26" fill="none" xmlns="http://www.w3.org/2000/svg">
<path d="M1.40983 0.564425C1.0761 0.696928 0.820904 0.917767 0.654042 1.21712L0.511719 1.47722V13.0344V24.5916L0.654042 24.8517C0.825812 25.156 1.08101 25.3768 1.41964 25.5044C1.66012 25.5927 1.93495 25.5977 9.56642 25.5977C17.3157 25.5977 17.4678 25.5977 17.723 25.4995C17.8653 25.4455 18.0666 25.3376 18.1647 25.2541C18.3856 25.0726 18.6457 24.5671 18.6457 24.3168V24.1352L18.9794 24.2481C19.5683 24.4493 19.8677 24.4935 20.6087 24.4886C21.2124 24.4837 21.394 24.464 21.7915 24.3561C22.6847 24.1205 23.416 23.7083 24.0392 23.0899C24.5006 22.6286 24.7754 22.2409 25.0502 21.6618C25.6784 20.3368 25.6637 18.6732 25.0159 17.3776C24.4662 16.2881 23.4258 15.341 22.3363 14.9483C21.6737 14.7079 21.2909 14.6441 20.5842 14.6441C19.9217 14.6441 19.4898 14.7079 18.9549 14.8993C18.8027 14.9533 18.6653 14.9974 18.6604 14.9974C18.6506 14.9974 18.6457 12.9804 18.6457 10.5169V6.04121L18.5181 5.7713C18.415 5.54065 18.0273 5.13332 16.0053 3.11143C14.4054 1.51648 13.5417 0.687113 13.3944 0.608593L13.1736 0.49572L7.40704 0.485905C1.89569 0.476089 1.63067 0.480997 1.40983 0.564425ZM12.6583 3.52856V5.60444L12.7957 5.87436C12.884 6.04612 13.0018 6.18844 13.1392 6.28659L13.3552 6.43381L15.5096 6.44853L17.6641 6.46326V11.0125V15.5618L17.35 15.8219C16.6875 16.3617 16.0348 17.3825 15.8041 18.2266C15.3477 19.9098 15.7894 21.6962 16.9721 22.9623C17.1341 23.1292 17.35 23.3304 17.4629 23.4138L17.6641 23.561L17.6592 23.9536C17.6592 24.361 17.6249 24.4591 17.4335 24.5573C17.3549 24.6014 15.3673 24.6162 9.54189 24.6162H1.75337L1.61104 24.4738L1.46872 24.3315V13.0344V1.73732L1.61104 1.595L1.75337 1.45268H7.20582H12.6583V3.52856ZM15.3477 5.46703C14.4741 5.47194 13.738 5.46703 13.7036 5.45231C13.6545 5.43759 13.6398 5.06462 13.6398 3.79848V2.16427L15.2839 3.80829L16.928 5.45231L15.3477 5.46703ZM21.5707 15.7336C22.6749 16.0133 23.6074 16.7739 24.1227 17.8192C24.4466 18.4818 24.5104 18.7713 24.5104 19.6105C24.5055 20.2828 24.5006 20.3466 24.3484 20.7883C24.1178 21.4606 23.8576 21.8679 23.3374 22.3832C22.8319 22.8838 22.2921 23.2028 21.6394 23.3893C19.799 23.8997 17.8457 23.0163 17.0016 21.2889C16.7366 20.749 16.6237 20.2681 16.6188 19.635C16.6139 18.9234 16.7219 18.4523 17.0359 17.7947C17.2617 17.3285 17.3304 17.2353 17.7819 16.7887C18.3169 16.2587 18.7487 15.9887 19.3818 15.7875C20.064 15.5667 20.8394 15.5471 21.5707 15.7336Z" fill="#999999"/>
<path d="M3.77538 7.33019C3.63796 7.37927 3.48583 7.55103 3.45638 7.69335C3.41712 7.87493 3.54472 8.14975 3.70667 8.22336C3.79501 8.26262 4.83054 8.27734 7.38745 8.27734H10.9504L11.0928 8.13503C11.2449 7.98289 11.2842 7.7277 11.186 7.53631C11.0535 7.29093 11.1026 7.29584 7.34818 7.30075C5.42437 7.30075 3.81464 7.31547 3.77538 7.33019Z" fill="#999999"/>
<path d="M3.61849 10.3568C3.47126 10.4402 3.36329 10.7052 3.40746 10.8868C3.42709 10.9555 3.49579 11.0635 3.5645 11.1273L3.68719 11.2401L8.23172 11.2549C11.5837 11.2647 12.8155 11.25 12.9186 11.2107C13.2327 11.0782 13.3014 10.6758 13.056 10.4255L12.9137 10.2832H8.32987C4.42826 10.2881 3.73136 10.2979 3.61849 10.3568Z" fill="#999999"/>
<path d="M14.9111 10.3595C14.5479 10.5558 14.6559 11.1545 15.0681 11.2428C15.2497 11.2821 15.5245 11.1545 15.5982 10.9926C15.8043 10.5312 15.3577 10.119 14.9111 10.3595Z" fill="#999999"/>
<path d="M3.61801 13.3249C3.4855 13.4427 3.45605 13.5015 3.45605 13.6733C3.45605 13.8451 3.4855 13.904 3.61801 14.0217L3.77996 14.1641L9.62012 14.1542L15.4652 14.1395L15.583 14.0021C15.7106 13.8549 15.74 13.5948 15.6517 13.423C15.5143 13.1727 15.7547 13.1826 9.54651 13.1826H3.77506L3.61801 13.3249Z" fill="#999999"/>
<path d="M3.61801 16.2663C3.4855 16.3841 3.45605 16.443 3.45605 16.6147C3.45605 16.7865 3.4855 16.8454 3.61801 16.9632L3.77506 17.1055H8.17235C11.3133 17.1055 12.5991 17.0907 12.6727 17.0515C12.923 16.9239 13.031 16.6049 12.9034 16.3644C12.7709 16.1191 12.8887 16.124 8.17235 16.124H3.77506L3.61801 16.2663Z" fill="#999999"/>
<path d="M3.61819 19.2067C3.40225 19.3981 3.39243 19.6877 3.59365 19.884L3.72616 20.0214L8.13327 20.0361C11.3822 20.0459 12.5698 20.0312 12.6729 19.992C12.9674 19.8693 13.0459 19.4423 12.8103 19.2067L12.668 19.0644H8.22161H3.77523L3.61819 19.2067Z" fill="#999999"/>
<path d="M18.9604 17.7838C18.7886 17.8869 18.6708 18.1568 18.7248 18.3089C18.7445 18.358 19.0144 18.6623 19.3285 18.9763L19.8929 19.5554L19.2892 20.1689L18.6807 20.7823L18.7101 20.9884C18.7494 21.2681 18.9211 21.4203 19.196 21.4203C19.3874 21.4203 19.4266 21.3908 19.9714 20.8559C20.2855 20.5467 20.5603 20.2916 20.5849 20.2916C20.6094 20.2916 20.8842 20.5467 21.1983 20.8559C21.8118 21.4595 21.8854 21.4988 22.1799 21.3467C22.3614 21.2534 22.4252 21.1356 22.4252 20.905C22.4252 20.743 22.3713 20.6694 21.851 20.1394L21.2768 19.5554L21.851 18.9714C22.4007 18.4169 22.4252 18.3825 22.4252 18.1862C22.4252 17.9065 22.224 17.6906 21.9541 17.6906C21.7872 17.6906 21.7234 17.7396 21.1787 18.2795L20.5799 18.8684L20.0695 18.3482C19.3874 17.6611 19.2647 17.5973 18.9604 17.7838Z" fill="#999999"/>
</svg>
