<svg width="29" height="18" viewBox="0 0 29 18" fill="none" xmlns="http://www.w3.org/2000/svg">
<path d="M0.207697 0.374113L0.0208156 0.538343L0.00382638 2.66767C-0.00749979 4.45721 0.00382638 4.81965 0.0717834 4.95557C0.128414 5.06316 0.298307 5.19342 0.54182 5.32367C1.73107 5.95227 2.37666 7.12453 2.37666 8.64791C2.37666 10.1713 1.73107 11.3435 0.54182 11.9722C0.298307 12.1024 0.128414 12.2327 0.0717834 12.3403C0.00382638 12.4762 -0.00749979 12.8386 0.00382638 14.6281L0.0208156 16.7575L0.207697 16.9217L0.388916 17.0859H14.49H28.5911L28.7723 16.9217L28.9592 16.7575L28.9762 14.6281C28.9875 12.8386 28.9762 12.4762 28.9082 12.3403C28.8516 12.2327 28.6817 12.1024 28.4382 11.9722C27.2489 11.3435 26.6033 10.1713 26.6033 8.64791C26.6033 7.12453 27.2489 5.95227 28.4382 5.32367C28.6817 5.19342 28.8516 5.06316 28.9082 4.95557C28.9762 4.81965 28.9875 4.45721 28.9762 2.66767L28.9592 0.538343L28.7723 0.374113L28.5911 0.209883H14.49H0.388916L0.207697 0.374113ZM19.3036 1.6653C19.3036 2.27125 19.5188 2.58839 19.9266 2.58839C20.3343 2.58839 20.5495 2.27125 20.5495 1.6653V1.39913H24.1739H27.7983V2.83756V4.27033L27.5038 4.46854C26.7846 4.9499 26.2919 5.52188 25.8955 6.35435C25.2046 7.78146 25.1989 9.48605 25.8728 10.9018C26.2636 11.7286 26.7449 12.3119 27.4018 12.7593L27.7983 13.0312V14.4639V15.8967H24.1739H20.5495V15.6249C20.5495 15.0246 20.3343 14.7074 19.9266 14.7074C19.5188 14.7074 19.3036 15.0246 19.3036 15.6249V15.8967H10.2427H1.18175V14.4639V13.0312L1.57816 12.7593C3.48096 11.4568 4.16619 8.61393 3.1072 6.39399C2.71644 5.56718 2.23508 4.98388 1.57816 4.5365L1.18175 4.26467V2.8319V1.39913H10.2427H19.3036V1.6653Z" fill="#999999"/>
<path d="M19.5699 3.94394C19.3717 4.10251 19.3037 4.37434 19.3037 5.01993C19.3037 5.66552 19.3717 5.93735 19.5699 6.09592C19.8927 6.35076 20.3797 6.1752 20.493 5.76746C20.5666 5.49563 20.5666 4.54423 20.493 4.2724C20.4137 4.00057 20.1985 3.83068 19.9267 3.83068C19.8021 3.83068 19.6548 3.87598 19.5699 3.94394Z" fill="#999999"/>
<path d="M19.5699 7.57069C19.3717 7.72926 19.3037 8.00109 19.3037 8.64669C19.3037 8.94117 19.332 9.28095 19.3603 9.39422C19.5246 9.98318 20.3287 9.98318 20.493 9.39422C20.5666 9.12239 20.5666 8.17098 20.493 7.89915C20.4137 7.62733 20.1985 7.45743 19.9267 7.45743C19.8021 7.45743 19.6548 7.50274 19.5699 7.57069Z" fill="#999999"/>
<path d="M19.5699 11.1957C19.3717 11.3543 19.3037 11.6261 19.3037 12.2717C19.3037 12.5662 19.332 12.906 19.3603 13.0192C19.5246 13.6082 20.3287 13.6082 20.493 13.0192C20.5666 12.7474 20.5666 11.796 20.493 11.5242C20.4137 11.2523 20.1985 11.0824 19.9267 11.0824C19.8021 11.0824 19.6548 11.1277 19.5699 11.1957Z" fill="#999999"/>
<path fill-rule="evenodd" clip-rule="evenodd" d="M7.80347 3.1185C7.06207 3.26577 6.40192 3.9412 6.11246 4.85531C5.98551 5.24635 5.96012 6.1503 6.06676 6.56673C6.36637 7.76015 7.31597 8.5727 8.30112 8.47621C9.16948 8.39495 9.89057 7.6789 10.1851 6.5972C10.3425 6.03858 10.3121 5.28189 10.1191 4.74358C9.71284 3.60602 8.748 2.92552 7.80347 3.1185ZM8.53472 4.30684C9.3269 4.76898 9.4437 6.37375 8.74292 7.09996C8.10308 7.76523 7.28043 7.26755 7.09254 6.10967C7.00113 5.54089 7.16871 4.85023 7.48355 4.51506C7.82378 4.15449 8.16402 4.08847 8.53472 4.30684ZM13.7956 3.19785C13.7346 3.24356 12.196 5.50344 10.3831 8.22546C7.40732 12.6945 7.0874 13.1921 7.0874 13.375C7.0874 13.6746 7.30068 13.898 7.58506 13.898C7.72216 13.898 7.83896 13.8625 7.91005 13.8015C7.96591 13.7457 9.4995 11.4807 11.3073 8.76377C14.3186 4.25416 14.603 3.80726 14.603 3.61936C14.603 3.21309 14.1307 2.96425 13.7956 3.19785ZM11.7698 9.70357C12.0745 9.13987 12.5721 8.7082 13.0749 8.57109C14.1666 8.27654 15.2889 9.08908 15.6241 10.4298C15.7307 10.8462 15.7053 11.7502 15.5784 12.1412C15.1975 13.3295 14.2581 14.0456 13.2729 13.8882C12.7397 13.8018 12.2624 13.4565 11.8764 12.8877C11.2924 12.0142 11.2467 10.6888 11.7698 9.70357ZM14.1819 12.5018C14.8623 11.7908 14.7252 10.1962 13.9381 9.70865C13.3034 9.31253 12.567 9.99812 12.4858 11.0646C12.4147 11.9635 12.9377 12.8166 13.5573 12.8166C13.7858 12.8166 13.9686 12.7252 14.1819 12.5018Z" fill="#999999"/>
</svg>
