<svg width="30" height="25" viewBox="0 0 30 25" fill="none" xmlns="http://www.w3.org/2000/svg">
<path d="M13.7458 0.262964C11.4724 0.550075 9.32785 1.72195 7.91574 3.45047C7.18331 4.3411 6.46847 5.63016 6.12277 6.67313C5.37863 8.91142 5.52511 11.3548 6.53292 13.4876C6.80245 14.0618 7.27706 14.8353 7.42941 14.9524C7.68136 15.1575 8.14425 14.9114 8.14425 14.5774C8.14425 14.4837 8.04464 14.2669 7.90402 14.0618C7.40597 13.3235 6.99581 12.386 6.7966 11.5481C6.15206 8.82939 7.05441 5.75321 9.11105 3.61453C10.2595 2.41922 11.4021 1.73367 12.9196 1.32937C13.4704 1.18289 13.5818 1.17117 14.8239 1.17117C15.8962 1.17117 16.236 1.19461 16.6345 1.2825C19.6403 1.93875 22.0193 4.04227 22.9685 6.87821C23.1032 7.28251 23.32 8.13212 23.32 8.26103C23.32 8.27274 23.238 8.23759 23.1384 8.19071C22.9743 8.10868 22.9392 8.10868 22.7575 8.19071C22.5466 8.29032 22.4646 8.48368 22.5232 8.71806C22.5407 8.78837 22.8161 9.10478 23.1325 9.42118C23.5896 9.8665 23.7478 9.98954 23.8767 9.98954C24.111 9.98954 25.2536 8.8704 25.2536 8.63603C25.2536 8.39579 25.2009 8.29618 25.0134 8.20243C24.7849 8.07938 24.7028 8.0911 24.5036 8.26103C24.404 8.34306 24.3161 8.40751 24.2985 8.40751C24.2868 8.40751 24.2575 8.26688 24.2341 8.0911C24.1755 7.56962 23.8708 6.48563 23.6189 5.88212C23.1208 4.6868 22.4939 3.77274 21.5446 2.85867C20.2439 1.60476 18.6735 0.78445 16.8513 0.40359C16.0603 0.239527 14.4958 0.169214 13.7458 0.262964Z" fill="#999999"/>
<path d="M13.535 2.77782C12.1522 3.08251 11.1268 3.66259 10.1424 4.68798C8.93536 5.94189 8.24396 7.57666 8.16193 9.37549C8.06818 11.2798 8.79474 13.1314 10.1248 14.4028L10.4822 14.7368L10.1717 15.0298C9.73224 15.4458 9.52716 15.9087 9.52716 16.5064C9.5213 16.7583 9.50958 16.9634 9.49786 16.9634C9.48029 16.9634 8.51935 16.688 7.35919 16.354C5.30841 15.7564 3.6795 15.311 3.29864 15.2349C3.19904 15.2173 2.94708 15.229 2.74786 15.2642C1.91583 15.4165 1.30646 15.9321 1.02521 16.729C0.890442 17.1157 0.90216 17.8071 1.0545 18.2173C1.20685 18.6216 1.69318 19.1665 2.05646 19.3482C2.47247 19.5532 12.2049 23.4556 12.6268 23.5904C13.3651 23.8189 14.0799 23.9419 15.0057 24.0005C16.7401 24.106 17.408 23.9419 20.1268 22.7525C22.8279 21.563 22.9686 21.5337 25.7693 21.5337C28.16 21.5337 28.3006 21.5161 28.6639 21.1411C29.1151 20.6665 29.0916 20.9126 29.1092 17.0513C29.1209 14.6431 29.1092 13.5005 29.0623 13.2896C28.9744 12.8735 28.7283 12.5571 28.3533 12.3696L28.0428 12.2173H24.6912H21.3455L21.5096 11.7134C21.7264 11.0747 21.8553 10.2837 21.8553 9.59814C21.8553 6.38134 19.699 3.62743 16.5584 2.83055C15.8553 2.65477 14.2205 2.62547 13.535 2.77782ZM16.4236 3.76805C18.8026 4.41259 20.5428 6.37548 20.8651 8.79541C20.9998 9.80908 20.8123 11.0864 20.4022 11.9946C20.2381 12.3638 20.2088 12.3872 19.9686 12.4517C19.2889 12.6274 18.6151 12.856 17.5193 13.2837C14.9295 14.2974 14.5486 14.3911 12.8611 14.4263L11.6307 14.4556L11.1619 14.0747C10.1131 13.231 9.48615 12.1763 9.19318 10.7817C9.09357 10.3247 9.09357 9.00635 9.19318 8.55517C9.59747 6.65087 10.6229 5.15673 12.1111 4.30712C12.5858 4.03173 13.3358 3.75634 13.8279 3.66845C14.3846 3.56884 15.9022 3.62743 16.4236 3.76805ZM24.0818 16.8696V20.5845L23.5193 20.6548C22.2068 20.8189 21.1873 21.1587 19.7166 21.9146C18.0408 22.7759 16.9861 23.0572 15.4451 23.0572C14.5604 23.0572 13.8983 22.9693 13.1483 22.7642C12.7322 22.647 10.5174 21.7681 4.45294 19.3247C3.37482 18.8853 2.41974 18.481 2.33185 18.4165C2.2381 18.3521 2.09747 18.1821 2.00958 18.0357C1.54083 17.2329 2.14435 16.1724 3.07599 16.1841C3.39825 16.1841 9.87286 18.0005 10.6756 18.3111L11.1268 18.4868H14.0037H16.8807L17.0213 18.3403C17.2498 18.1177 17.2205 17.9068 16.9158 17.5962C16.91 17.5903 15.6092 17.5669 14.0272 17.5493L11.1561 17.52L10.9393 17.3735C10.3943 16.9985 10.3006 16.231 10.7459 15.7446C11.0213 15.4341 11.1151 15.4165 12.744 15.3755C14.7537 15.3169 15.1404 15.229 18.0174 14.104C20.1268 13.2837 20.701 13.1665 22.6639 13.1607L24.0818 13.1548V16.8696ZM28.0428 13.2778C28.1483 13.395 28.1541 13.5415 28.1541 16.8872V20.3736L28.0135 20.4849C27.8904 20.5904 27.7674 20.5962 26.449 20.5962H25.0193V16.8755V13.1548H26.4725C27.8787 13.1548 27.9373 13.1607 28.0428 13.2778Z" fill="#999999"/>
<path d="M14.8471 5.71469C14.6362 5.79673 14.5307 6.00766 14.5307 6.33579C14.5307 6.62876 14.5249 6.63462 14.2963 6.74009C14.0092 6.86899 13.5756 7.32017 13.4409 7.62485C13.2885 7.97642 13.3002 8.60337 13.4702 8.97837C13.6225 9.31822 14.0151 9.72251 14.3256 9.85142C14.437 9.8983 14.7065 9.95689 14.9233 9.99205C15.269 10.0389 15.3452 10.0741 15.5092 10.2499C15.8549 10.6249 15.8022 11.1522 15.3979 11.3983C15.228 11.4979 15.1049 11.5155 14.4252 11.5155H13.6401L13.4702 11.6854C13.2592 11.8963 13.2534 12.1131 13.4467 12.3065C13.5756 12.4354 13.6342 12.453 14.062 12.453H14.5307V12.7167C14.5307 13.203 14.771 13.4491 15.146 13.3553C15.3452 13.3085 15.4682 13.0506 15.4682 12.6991C15.4682 12.4178 15.4741 12.412 15.7085 12.3065C16.2827 12.0487 16.6577 11.4452 16.6635 10.7831C16.6694 9.869 16.0776 9.21861 15.1049 9.06626C14.6479 8.99595 14.4604 8.88462 14.3315 8.61509C14.2143 8.369 14.2143 8.21665 14.3374 7.95884C14.5073 7.59556 14.6889 7.5311 15.5385 7.5311C16.3413 7.5311 16.5288 7.48423 16.6342 7.25571C16.7338 7.03892 16.7104 6.89243 16.5522 6.74009C16.4233 6.61118 16.3647 6.5936 15.937 6.5936H15.4682V6.30649C15.4682 5.8729 15.1635 5.58579 14.8471 5.71469Z" fill="#999999"/>
</svg>
