<svg width="24" height="26" viewBox="0 0 24 26" fill="none" xmlns="http://www.w3.org/2000/svg">
<path d="M11.6065 0.441065C10.4911 0.635061 9.68286 1.65354 9.68286 2.8714C9.68286 3.05462 9.67209 3.0654 9.37573 3.157C8.8854 3.30789 7.92091 3.80366 7.39286 4.18626C6.41759 4.88141 5.53392 5.88911 5.00588 6.9022C4.397 8.06617 4.33773 8.32483 3.58877 12.8352C3.23315 14.9853 2.92063 16.8175 2.89369 16.9091C2.76437 17.2917 2.5219 17.572 1.88609 18.0516C1.0994 18.6497 0.894652 18.8653 0.700675 19.2748C0.565969 19.5604 0.549805 19.6574 0.549805 20.137C0.549805 20.6274 0.565969 20.7082 0.71684 21.0262C1.0078 21.6405 1.57896 22.0877 2.24171 22.2117C2.41413 22.244 3.64804 22.2656 5.2699 22.2656H8.01251L8.04484 22.4111C8.17955 23.0416 8.38969 23.5265 8.73992 24.0169C9.3919 24.9384 10.3618 25.5042 11.5472 25.6659C12.3447 25.7683 13.3361 25.5581 14.0797 25.1162C14.4999 24.8683 15.2112 24.1516 15.4591 23.7205C15.6423 23.408 15.8686 22.8098 15.9548 22.4111L15.9871 22.2656H18.7297C20.3516 22.2656 21.5855 22.244 21.7579 22.2117C22.426 22.0877 22.9918 21.6459 23.2828 21.0262C23.4336 20.7082 23.4498 20.6274 23.4498 20.137C23.4498 19.6574 23.4336 19.5604 23.2989 19.2748C23.105 18.8653 22.9002 18.6497 22.1135 18.0516C21.4777 17.572 21.2352 17.2917 21.1059 16.9091C21.079 16.8175 20.7611 14.9853 20.4108 12.8352C19.6673 8.32483 19.6026 8.06078 18.9991 6.90759C18.1316 5.24785 16.3697 3.72282 14.7047 3.18395C14.3221 3.06001 14.3167 3.06001 14.3167 2.8714C14.3167 2.28402 14.0958 1.63737 13.751 1.21705C13.2768 0.635061 12.3662 0.306345 11.6065 0.441065ZM12.6141 1.73437C12.8835 1.91759 13.0828 2.22475 13.1152 2.49957L13.1421 2.73129H11.9998H10.8575L10.8844 2.49418C10.9168 2.18703 11.1539 1.85831 11.461 1.69126C11.7897 1.51882 12.3177 1.53498 12.6141 1.73437ZM13.293 3.9761C14.6778 4.2617 15.8416 4.88141 16.8007 5.84061C17.5712 6.60582 18.1747 7.61352 18.4872 8.64277C18.5681 8.90143 18.9075 10.8091 19.3009 13.1586C19.9421 17.06 19.9798 17.2432 20.1576 17.6097C20.4162 18.1216 20.6695 18.3964 21.4346 18.9784C22.0974 19.485 22.2644 19.6736 22.3237 19.9915C22.3991 20.3795 22.1728 20.8106 21.801 21.0046C21.5747 21.1178 2.42491 21.1178 2.1986 21.0046C1.9723 20.886 1.71905 20.5681 1.67595 20.3526C1.58973 19.8676 1.75677 19.5927 2.4734 19.0539C2.78053 18.8275 3.11999 18.5527 3.23853 18.4449C3.5295 18.1755 3.83663 17.6851 3.96595 17.2917C4.02522 17.1085 4.35929 15.2494 4.69875 13.1586C5.04359 11.0677 5.35611 9.21398 5.39922 9.03615C5.75484 7.48418 6.82171 5.93761 8.16338 5.0323C9.0686 4.41798 10.1678 4.01382 11.2401 3.88988C11.7681 3.8306 12.7811 3.87371 13.293 3.9761ZM14.7801 22.4111C14.6939 22.7829 14.3491 23.3703 14.0258 23.6882C12.8943 24.8198 11.1054 24.8198 9.97383 23.6882C9.65053 23.3703 9.30569 22.7829 9.21947 22.4111L9.18715 22.2656H11.9998H14.8125L14.7801 22.4111Z" fill="#999999"/>
</svg>
