<svg width="24" height="24" viewBox="0 0 24 24" fill="none" xmlns="http://www.w3.org/2000/svg">
<g clip-path="url(#clip0_0_3)">
<path fill-rule="evenodd" clip-rule="evenodd" d="M11.9789 1.64922C6.26265 1.64922 1.62871 6.28316 1.62871 11.9994V11.9995C1.62871 17.7158 6.26265 22.3497 11.9789 22.3497H11.979C17.6953 22.3497 22.3292 17.7158 22.3292 11.9995V11.9994C22.3292 6.28316 17.6953 1.64922 11.979 1.64922H11.9789ZM0.42871 11.9994C0.42871 5.62042 5.59991 0.449221 11.9789 0.449221H11.979C18.358 0.449221 23.5292 5.62042 23.5292 11.9994V11.9995C23.5292 18.3785 18.358 23.5497 11.979 23.5497H11.9789C5.59991 23.5497 0.42871 18.3785 0.42871 11.9995V11.9994Z" fill="#1F3CD8"/>
<path d="M11.2163 12.7617V17.3378H12.7417V12.7617H17.3178V11.2363H12.7417V6.66016H11.2163V11.2363H6.64014V12.7617H11.2163Z" fill="#1F3CD8"/>
<path d="M11.2163 12.7617V17.3378H12.7417V12.7617H17.3178V11.2363H12.7417V6.66016H11.2163V11.2363H6.64014V12.7617H11.2163Z" fill="#1F3CD8"/>
</g>
<defs>
<clipPath id="clip0_0_3">
<rect width="24" height="24" fill="white"/>
</clipPath>
</defs>
</svg>
