<svg width="24" height="24" viewBox="0 0 24 24" fill="none" xmlns="http://www.w3.org/2000/svg">
<path fill-rule="evenodd" clip-rule="evenodd" d="M24 12C24 18.6274 18.6274 24 12 24C5.37258 24 0 18.6274 0 12C0 5.37258 5.37258 0 12 0C18.6274 0 24 5.37258 24 12ZM23 12C23 18.0751 18.0751 23 12 23C5.92487 23 1 18.0751 1 12C1 5.92487 5.92487 1 12 1C18.0751 1 23 5.92487 23 12ZM16.3144 8.21392L13.0786 11.4497L16.3144 14.6856L15.2358 15.7642L12 12.5283L8.76415 15.7642L7.68555 14.6855L10.9214 11.4497L7.68558 8.21395L8.76419 7.13535L12 10.3711L15.2358 7.13532L16.3144 8.21392Z" fill="#FA504A"/>
<path fill-rule="evenodd" clip-rule="evenodd" d="M24 12C24 18.6274 18.6274 24 12 24C5.37258 24 0 18.6274 0 12C0 5.37258 5.37258 0 12 0C18.6274 0 24 5.37258 24 12ZM23 12C23 18.0751 18.0751 23 12 23C5.92487 23 1 18.0751 1 12C1 5.92487 5.92487 1 12 1C18.0751 1 23 5.92487 23 12ZM16.3144 8.21392L13.0786 11.4497L16.3144 14.6856L15.2358 15.7642L12 12.5283L8.76415 15.7642L7.68555 14.6855L10.9214 11.4497L7.68558 8.21395L8.76419 7.13535L12 10.3711L15.2358 7.13532L16.3144 8.21392Z" fill="#FA504A"/>
</svg>
