<svg width="28" height="29" viewBox="0 0 28 29" fill="none" xmlns="http://www.w3.org/2000/svg">
<path d="M12.3753 0.13621C12.1129 0.261956 12.0801 0.671997 12.3152 0.890686C12.4191 0.983628 12.5066 1.00003 12.9987 1.00003H13.5619V1.24059V1.48114L13.1135 1.51942C12.1511 1.59596 11.0958 1.84198 10.128 2.20828C9.42261 2.47618 9.02345 2.673 8.39463 3.06664C5.75358 4.71773 3.97101 7.35293 3.44608 10.3708C3.38593 10.7262 3.33672 11.098 3.33672 11.1964C3.33672 11.2948 3.32032 11.4533 3.30391 11.5463L3.2711 11.7158H2.81726C2.11189 11.7158 1.91504 11.8251 1.91504 12.2188C1.91504 12.3664 2.06814 12.6179 2.73524 13.5473C3.18908 14.1815 3.63199 14.761 3.71948 14.8485L3.88352 14.9961H14.0157C19.5822 14.9961 24.1698 14.9742 24.2026 14.9524C24.2409 14.9305 24.6893 14.3236 25.2033 13.6074C26.2094 12.2023 26.2477 12.1149 25.9961 11.8743C25.8704 11.754 25.7993 11.7431 25.2908 11.7267L24.7276 11.7048L24.6893 11.262C24.558 9.64916 23.9566 7.85045 23.0926 6.50551C21.2554 3.63523 18.2534 1.79824 14.9453 1.51942L14.4915 1.48114V1.24059V1.00003H15.0383C15.5522 1.00003 15.6015 0.989096 15.7218 0.86335C15.8147 0.775874 15.8585 0.671997 15.8585 0.535317C15.8585 0.398637 15.8147 0.29476 15.7218 0.207285L15.5905 0.0706043L14.0431 0.0760717C13.0807 0.0760717 12.4519 0.0979404 12.3753 0.13621ZM15.3609 2.50898C16.4818 2.673 17.2528 2.90809 18.2917 3.4056C21.3538 4.88175 23.4699 7.92152 23.7597 11.2675L23.8035 11.7158H14.0048H4.20613L4.23894 11.3987C4.52328 8.86188 5.51845 6.80621 7.27915 5.13324C8.78285 3.70083 10.549 2.83155 12.6214 2.50898C13.2885 2.4051 14.65 2.4051 15.3609 2.50898ZM24.7166 12.6725C24.7166 12.6889 24.5034 13.006 24.2409 13.3833L23.7652 14.0667H13.9993L4.23894 14.0612L3.85618 13.509C3.6484 13.2028 3.42968 12.8857 3.375 12.7983L3.2711 12.6452H13.9939C19.8938 12.6452 24.7166 12.6561 24.7166 12.6725Z" fill="#999999"/>
<path d="M12.7358 3.44133C10.6197 3.77483 8.76607 4.7808 7.33892 6.38269C6.76478 7.03329 6.28906 7.7495 6.28906 7.97912C6.28906 8.23608 6.33281 8.32902 6.51872 8.42196C6.64995 8.48757 6.71557 8.49304 6.86867 8.44383C7.02178 8.39463 7.12567 8.27435 7.42094 7.82604C7.89666 7.0989 8.85356 6.13667 9.56987 5.66102C10.833 4.83 12.0742 4.40903 13.6053 4.29422C14.2669 4.25048 14.3981 4.19034 14.4528 3.91698C14.4856 3.7475 14.409 3.52881 14.2833 3.43586C14.163 3.34292 13.3592 3.34839 12.7358 3.44133Z" fill="#999999"/>
<path d="M6.40401 15.5465C5.6877 15.6941 4.61051 16.137 3.76296 16.629L3.28178 16.9024V16.4158V15.9292H1.64138H0.000976562V21.9978V28.0664H1.64138H3.28178V27.3557V26.6449H6.78677C8.71698 26.6449 10.7128 26.6176 11.2268 26.5848C11.8775 26.5465 13.0804 26.388 15.1474 26.0709C16.7878 25.8194 18.2641 25.6007 18.4282 25.5788C18.8984 25.5187 19.3468 25.3929 19.6858 25.2235C19.9811 25.0758 26.9856 19.5649 27.4941 19.0783C27.937 18.6628 28.0737 18.1926 27.9206 17.6568C27.8058 17.2687 27.3519 16.7602 26.9254 16.5525C26.6575 16.4212 26.5864 16.4103 26.1763 16.4322C25.2905 16.4869 24.6507 16.7875 22.037 18.4004C20.938 19.0783 19.9592 19.6742 19.8608 19.7234C19.5655 19.8765 18.6523 20.0241 17.7884 20.0679C17.0119 20.1007 16.9901 20.1007 17.0338 19.9968C17.2307 19.543 17.0174 18.8924 16.4487 18.2145C16.0004 17.6787 15.1528 17.1593 14.3873 16.957C14.0373 16.8641 13.7147 16.8422 12.304 16.804C10.2152 16.7493 9.93634 16.6837 8.90289 16.0003C8.33422 15.623 8.0116 15.5301 7.27342 15.5137C6.92894 15.5028 6.53524 15.5192 6.40401 15.5465ZM7.68899 16.4923C7.8421 16.5306 8.20845 16.7165 8.50919 16.8969C9.12708 17.2796 9.53171 17.4545 10.1496 17.6295C10.5269 17.7334 10.7894 17.7498 12.2493 17.788C14.0756 17.8373 14.2889 17.8646 14.8958 18.1872C15.2676 18.3785 15.8965 18.969 16.0496 19.2587C16.2956 19.7398 16.2574 19.9257 15.8746 20.0515C15.3715 20.2155 14.8302 20.2483 12.2602 20.2483C10.0621 20.2483 9.6192 20.2592 9.32393 20.3358C8.41624 20.5654 7.8749 21.1996 7.8749 22.0306C7.8749 22.3696 8.02801 22.5445 8.31234 22.5445C8.59121 22.5445 8.73885 22.3914 8.78259 22.0579C8.83181 21.6807 8.97944 21.4675 9.28565 21.3253C9.54265 21.2051 9.57545 21.2051 13.8897 21.1723C16.2792 21.1504 18.3352 21.1176 18.4555 21.1012C18.5758 21.0793 18.8492 21.0356 19.057 21.0082C19.5108 20.9426 19.9592 20.8278 20.2599 20.6966C20.3802 20.6474 21.3754 20.0515 22.4745 19.379C25.7334 17.378 26.4169 17.1375 26.9254 17.8045C27.0184 17.9247 27.0676 18.0614 27.0676 18.1872C27.0676 18.373 27.0348 18.4168 26.5645 18.7885C25.3725 19.7289 19.7077 24.1191 19.4725 24.2831C19.221 24.4526 18.6578 24.6166 18.3024 24.6221C18.2204 24.6221 16.6948 24.8408 14.9122 25.1141C13.1297 25.382 11.4182 25.628 11.1065 25.6608C10.7784 25.6936 9.04506 25.7155 6.91254 25.7155H3.28178V21.8666V18.0122L3.7903 17.7006C4.74174 17.1101 5.98844 16.5798 6.72662 16.4595C7.0219 16.4103 7.42653 16.4267 7.68899 16.4923ZM2.35222 21.9978V27.137H1.64138H0.930537V21.9978V16.8586H1.64138H2.35222V21.9978Z" fill="#999999"/>
</svg>
