<svg width="1025" height="367" viewBox="0 0 1025 367" fill="none" xmlns="http://www.w3.org/2000/svg">
<path fill-rule="evenodd" clip-rule="evenodd" d="M350.618 1.05158C309.881 1.05158 269.212 4.86251 230.381 17.0382C192.312 28.975 141.87 47.8233 97.7369 74.3719C53.5878 100.93 15.8475 135.138 3.03044 177.755C0.0657483 187.613 0.40033 198.24 4.24998 207.774C19.3537 245.183 57.6868 275.582 101.626 299.378C145.544 323.162 194.96 340.296 232.082 351.224C269.87 362.347 309.211 365.948 348.64 365.948H1023.3V1.05158H350.618ZM230.067 16.0348C269.035 3.81586 309.821 0 350.618 0H1024.35V367H348.64C309.151 367 269.702 363.394 231.785 352.232C194.63 341.295 145.136 324.137 101.125 300.302C57.1359 276.479 18.5218 245.931 3.27489 208.168C-0.668492 198.401 -1.00688 187.528 2.02342 177.452C14.9551 134.454 52.9762 100.071 97.1948 73.4708C141.43 46.8609 191.961 27.9832 230.067 16.0348ZM98.2805 136.566L96.5291 119.717C106.516 111.961 109.262 113.455 108.133 119.279C107.003 125.103 98.2805 136.566 98.2805 136.566ZM79.889 143.569L89.9606 143.787L95.215 138.975L92.8089 122.126C92.8089 122.126 85.6506 124.911 79.889 143.569ZM77.5262 179.236H65.9217L76.651 149.476L86.5031 149.695L77.5262 179.236ZM77.7505 187.998H66.1409L76.8743 217.789L86.7314 217.573L77.7505 187.998ZM80.1141 223.702L90.1908 223.484L95.4482 228.303L93.038 245.17C93.038 245.17 85.8788 242.38 80.1141 223.702ZM98.5164 230.713L96.764 247.58C106.755 255.343 109.508 253.848 108.374 248.018C107.239 242.188 98.5164 230.713 98.5164 230.713ZM211.432 73.317C211.56 73.0566 211.453 72.7413 211.192 72.613C210.932 72.4847 210.617 72.5918 210.488 72.8523C187.84 118.819 177.101 153.82 177.412 187.385C177.723 220.953 189.084 253.018 210.496 293.112C210.633 293.368 210.952 293.465 211.208 293.328C211.464 293.191 211.561 292.872 211.424 292.616C190.044 252.583 178.772 220.696 178.463 187.375C178.155 154.051 188.812 119.225 211.432 73.317Z" fill="#D6D5D5"/>
</svg>
