<svg width="30" height="22" viewBox="0 0 30 22" fill="none" xmlns="http://www.w3.org/2000/svg">
<path d="M14.1846 0.863457C14.0674 1.00993 14.0615 1.09782 14.0615 2.08798C14.0615 3.07815 14.0674 3.16604 14.1846 3.31251C14.2783 3.42969 14.3545 3.46484 14.5303 3.46484C14.7061 3.46484 14.7823 3.42969 14.876 3.31251C14.9932 3.16604 14.9991 3.07815 14.9991 2.08798C14.9991 1.09782 14.9932 1.00993 14.876 0.863457C14.7823 0.746278 14.7061 0.711124 14.5303 0.711124C14.3545 0.711124 14.2783 0.746278 14.1846 0.863457Z" fill="#999999"/>
<path d="M10.9268 1.38251C10.8447 1.45868 10.7803 1.57 10.7803 1.62859C10.7803 1.85123 11.3135 3.72611 11.4073 3.82571C11.6416 4.0835 12.1866 3.86086 12.1866 3.50932C12.1866 3.24567 11.6827 1.47626 11.5713 1.35322C11.419 1.18331 11.1026 1.20089 10.9268 1.38251Z" fill="#999999"/>
<path d="M17.501 1.34112C17.4131 1.44072 16.874 3.31559 16.874 3.52652C16.874 3.57925 16.9268 3.69057 16.9971 3.77845C17.1494 3.9718 17.501 3.99523 17.6651 3.81361C17.7764 3.69057 18.2803 1.92116 18.2803 1.65164C18.2803 1.30596 17.7295 1.08332 17.501 1.34112Z" fill="#999999"/>
<path d="M2.46009 3.54667C1.81553 3.68142 1.28231 4.13256 1.05379 4.7419C0.936595 5.05242 0.936595 5.15789 0.948314 9.20058C0.965893 13.3019 0.965893 13.337 1.0948 13.6124C1.28231 14.0225 1.64561 14.3799 2.0675 14.5733C2.42493 14.7315 2.45423 14.7373 3.81366 14.7666L5.19652 14.8018L5.45434 15.124C5.81764 15.5693 5.81178 15.5517 5.71217 15.8271C5.52466 16.3661 5.66529 16.9754 6.07546 17.4149C6.44462 17.8133 7.16535 18.1707 7.58724 18.1707H7.89194L7.93295 18.4168C8.02671 19.0027 8.53063 19.5885 9.13417 19.817C9.39199 19.9167 9.5502 19.9342 9.90764 19.9167L10.353 19.8932L10.4526 20.1803C10.6811 20.8248 11.3198 21.2759 12.0698 21.3228C12.9195 21.3697 13.4 21.1119 13.8629 20.3444L14.1558 19.8522L14.7418 19.7233C16.9392 19.2253 19.0486 18.0242 20.6834 16.3192L21.2401 15.7392L21.5038 15.8095C21.6503 15.8447 21.9784 15.8798 22.2421 15.8798C23.1269 15.8915 24.0058 15.5634 24.6562 14.9775L24.9492 14.7139H26.2852H27.6271L27.9786 14.5498C28.3771 14.3565 28.7228 14.0108 28.9103 13.6065C29.0334 13.337 29.0334 13.3019 29.0334 9.11856C29.0334 4.91767 29.0334 4.90009 28.9044 4.62472C28.5939 3.94508 27.9259 3.51151 27.1934 3.51737C26.9649 3.51737 26.6954 3.55838 26.5548 3.61111C26.4258 3.66385 25.2891 4.2556 24.0293 4.92939L21.7382 6.14805L21.3749 5.95471C20.8416 5.67348 20.2029 5.43326 19.5701 5.27506C19.0779 5.15203 18.8787 5.13445 17.9001 5.14031C16.8864 5.14031 16.7341 5.15789 16.2126 5.2985C15.6149 5.45669 14.6363 5.89612 14.1851 6.20664L13.9273 6.38241L13.5816 6.15977C12.3159 5.33951 10.6284 5.1696 9.18691 5.71449C8.9701 5.79651 8.67712 5.93127 8.53649 6.0133L8.27867 6.15977L5.92311 4.90595C4.62814 4.21459 3.48552 3.62283 3.38005 3.59354C3.05191 3.49394 2.79409 3.47636 2.46009 3.54667ZM5.56568 5.77308C6.87237 6.4703 7.97397 7.08549 8.01499 7.13822C8.1146 7.27884 8.10288 8.21041 7.99741 8.79045C7.8099 9.78062 7.2884 11.011 6.63212 12.0187C6.25125 12.6046 6.13992 12.7453 5.66529 13.2374C5.05589 13.8643 5.10863 13.8526 3.72576 13.8292C2.57142 13.8057 2.53041 13.7999 2.32532 13.6593C2.20227 13.5772 2.05578 13.4073 1.99132 13.2726C1.87999 13.0441 1.87413 12.9093 1.87413 9.09512C1.87413 5.1989 1.87413 5.14617 1.99718 4.92939C2.19055 4.58371 2.60658 4.39036 2.98745 4.46067C3.09879 4.4841 4.25899 5.07586 5.56568 5.77308ZM27.5685 4.52512C27.7501 4.60128 27.8673 4.70675 28.0021 4.92939C28.1251 5.13445 28.1251 5.16374 28.1251 9.0834C28.1251 12.9269 28.1193 13.0441 28.0079 13.2726C27.7794 13.7354 27.7442 13.7471 26.2325 13.7647L24.8906 13.7823L24.3457 13.2374C22.9452 11.8313 21.9139 9.51697 21.9139 7.77099C21.9139 7.33743 21.9374 7.20267 22.0194 7.10893C22.119 6.99761 26.7657 4.50168 26.9825 4.44309C27.1114 4.4138 27.3868 4.44895 27.5685 4.52512ZM19.0486 6.13048C19.6053 6.22422 20.2088 6.41757 20.6893 6.65778L21.0116 6.81598L20.9881 7.58936C20.9706 8.21041 20.9881 8.46821 21.0877 8.94864C21.451 10.7063 22.4062 12.5871 23.5312 13.7764L24.0293 14.292L23.83 14.4444C23.4081 14.7666 22.9804 14.9131 22.3827 14.9365L21.8261 14.96L21.5507 14.292C21.0409 13.0734 20.1912 11.7961 19.1717 10.7239L18.6384 10.1615L19.1131 10.0619C19.5057 9.97397 19.6287 9.92124 19.7869 9.76304C20.0096 9.5404 20.033 9.34706 19.8572 9.12441C19.7107 8.93693 19.5408 8.93107 19.0838 9.08926C18.4216 9.32362 17.654 9.2123 17.1032 8.79631C16.5407 8.37446 16.3122 8.48579 15.7848 9.4115C15.1051 10.6067 14.6773 11.0989 14.0914 11.3801C13.4644 11.6848 12.7027 11.5852 12.3687 11.1633C12.1401 10.8762 12.0933 10.595 12.2105 10.2142C12.9839 7.75927 15.3102 6.06603 17.9353 6.04845C18.281 6.04259 18.7791 6.0836 19.0486 6.13048ZM11.8061 6.42342C12.0347 6.4703 12.439 6.61677 12.7085 6.74567L13.2007 6.98589L12.9722 7.23196C11.5366 8.74358 10.9155 10.3665 11.3901 11.3391C11.6011 11.7668 11.9644 12.1184 12.4214 12.3351C12.7437 12.4875 12.8667 12.5109 13.271 12.5109C14.4605 12.505 15.4274 11.8371 16.2829 10.4134L16.6579 9.79234L16.8688 9.95053C18.5212 11.1751 19.8514 12.7804 20.578 14.4209L20.7596 14.8252L20.6131 15.0185C20.0623 15.7451 18.9959 16.6942 18.0466 17.3094C17.1325 17.9012 15.82 18.4871 14.8824 18.7273C14.6715 18.78 14.4547 18.8327 14.4019 18.8503C14.3258 18.8738 14.2848 18.821 14.2379 18.6277C14.0387 17.8777 13.3941 17.3153 12.6558 17.2508L12.3277 17.2215L12.3511 16.8876C12.398 16.2138 11.9585 15.5166 11.2788 15.1826C11.0327 15.0596 10.8979 15.0361 10.4584 15.0361C10.0072 15.0361 9.8842 15.0596 9.64396 15.1826L9.36269 15.3291L9.03456 15.0068C8.85291 14.8311 8.53063 14.5967 8.32555 14.4912C8.00913 14.333 7.89194 14.3038 7.5345 14.3038C7.10675 14.3038 6.72002 14.4326 6.48563 14.6436C6.38016 14.7373 6.36258 14.7315 6.17507 14.5147L5.97585 14.2862L6.46805 13.7706C7.5931 12.5871 8.54821 10.7063 8.91151 8.94864C9.01112 8.46821 9.0287 8.21041 9.01112 7.5835L8.98182 6.81012L9.28066 6.68122C9.58536 6.55232 10.0014 6.42342 10.2534 6.37655C10.5932 6.31796 11.4253 6.3414 11.8061 6.42342ZM8.09116 15.4521C8.6654 15.7978 8.73572 16.0907 8.40758 16.6884C8.06772 17.2918 7.68685 17.3914 7.08331 17.0223C6.53837 16.6942 6.44462 16.4013 6.71416 15.8681C7.05987 15.1885 7.45833 15.0654 8.09116 15.4521ZM11.0327 16.0907C11.2729 16.2665 11.4487 16.6649 11.4077 16.952C11.3608 17.3035 10.5463 18.6745 10.2827 18.8503C9.87834 19.114 9.17519 18.9441 8.95252 18.5222C8.74158 18.1355 8.81775 17.8309 9.35098 16.9403C9.89592 16.0321 10.0248 15.9267 10.5463 15.956C10.7514 15.9736 10.9331 16.0204 11.0327 16.0907ZM12.937 18.3289C13.1949 18.5222 13.3589 18.8093 13.3589 19.073C13.3589 19.3542 13.1187 19.8581 12.8609 20.1393C12.5269 20.4967 11.9937 20.5143 11.6011 20.1862C11.2026 19.8463 11.1557 19.4831 11.4311 18.9558C11.6479 18.5457 11.7476 18.4285 11.9819 18.2761C12.2105 18.1297 12.7085 18.159 12.937 18.3289Z" fill="#999999"/>
</svg>
