<svg width="26" height="22" viewBox="0 0 26 22" fill="none" xmlns="http://www.w3.org/2000/svg">
<path d="M1.30056 0.779039C0.988995 0.880766 0.454882 1.42755 0.359505 1.7518C0.302279 1.9489 0.283203 3.70369 0.283203 9.03163C0.283203 15.9554 0.289562 16.0571 0.416731 16.3369C0.575694 16.6866 0.810958 16.9409 1.1416 17.1189L1.39594 17.2588L8.20588 17.2779L15.0158 17.2906L15.054 17.5576C15.0921 17.8628 15.2447 18.0917 15.5436 18.2888C15.7534 18.435 15.7788 18.435 17.8708 18.435H19.9818L20.0072 19.6557C20.02 20.6921 20.0454 20.9146 20.1408 21.0926C20.3697 21.5122 20.8338 21.6521 21.3171 21.455C21.6032 21.3342 25.4755 17.494 25.6218 17.1889C25.7426 16.9345 25.7426 16.5721 25.6281 16.3496C25.5773 16.2542 24.9923 15.6375 24.3247 14.9699L23.1102 13.7619V7.81727C23.1102 1.14144 23.142 1.61193 22.6333 1.12237C22.1628 0.664597 22.9449 0.696386 11.6713 0.702745C4.46709 0.709103 1.45952 0.728176 1.30056 0.779039ZM21.9402 1.8726C22.0292 1.96161 22.0928 2.08241 22.0801 2.14599C22.0547 2.28587 12.3007 8.62472 11.9637 8.71373C11.8302 8.75188 11.6013 8.75824 11.4678 8.73916C11.1753 8.6883 1.34507 2.29858 1.31328 2.13964C1.30056 2.08241 1.36415 1.96161 1.45317 1.8726L1.61213 1.71366H11.6967H21.7813L21.9402 1.8726ZM5.95498 6.44395C8.43479 8.03343 10.5649 9.39403 10.6984 9.46397C11.2897 9.76279 12.1736 9.76279 12.7713 9.45761C12.9175 9.38132 15.0667 8.01436 17.5529 6.41216C20.0454 4.80361 22.0992 3.49388 22.1183 3.49388C22.1373 3.49388 22.1564 5.57292 22.1564 8.10973V12.7319L21.813 12.4077C21.3616 11.9753 21.05 11.8863 20.6431 12.0516C20.4015 12.147 20.3124 12.2297 20.198 12.4586C20.0708 12.7192 20.0581 12.821 20.0581 13.9018V15.0589L17.9153 15.078C15.8297 15.0971 15.7598 15.1035 15.5436 15.237C15.2765 15.4023 15.0349 15.7965 15.0349 16.0762V16.2733H8.39028C3.65956 16.2733 1.7075 16.2542 1.59941 16.2034C1.51039 16.1652 1.40866 16.0635 1.3705 15.9745C1.26241 15.7392 1.26877 3.46844 1.38322 3.51295C1.42137 3.52567 3.48152 4.84811 5.95498 6.44395ZM22.9067 15.0208L24.7125 16.8264L22.8749 18.6194L21.0437 20.4187L21.0119 19.2107C20.9801 18.1107 20.9674 17.9836 20.8466 17.8183C20.5604 17.4305 20.4905 17.4177 18.1696 17.4177H16.0523V16.7502V16.0826H18.2332C21.1454 16.0826 21.0119 16.1652 21.0119 14.3341C21.0119 13.7238 21.031 13.2215 21.0627 13.2215C21.0882 13.2215 21.9211 14.029 22.9067 15.0208Z" fill="#999999"/>
</svg>
