<svg width="23" height="40" viewBox="0 0 23 40" fill="none" xmlns="http://www.w3.org/2000/svg">
<path d="M5.56077 0.194813C5.36596 0.381832 5.36596 0.405209 5.36596 1.67538V2.96893L5.56856 3.15595C5.76337 3.33518 5.8413 3.35076 6.54262 3.35076H7.31407V6.96647V10.5822L4.99971 10.6211C2.56067 10.6523 2.44378 10.6679 1.72688 11.0497C1.23595 11.3069 0.620345 11.9692 0.370986 12.5069C0.238514 12.7874 0.113834 13.2316 0.0670795 13.5979C0.0125322 14.0187 -0.0108452 17.6733 0.00473977 24.7021L0.0281172 35.183L0.191759 35.635C0.643722 36.8584 1.5944 37.661 2.86458 37.8792L3.33992 37.9649V38.6663C3.33992 39.391 3.44901 39.7572 3.69058 39.8507C3.76071 39.8741 4.53996 39.8975 5.41271 39.8975C7.00238 39.8975 7.01017 39.8975 7.19719 39.7026C7.37641 39.5312 7.392 39.4611 7.392 38.7286V37.9493H11.3662H15.3403V38.7286C15.3403 39.4611 15.3559 39.5312 15.5351 39.7026C15.7221 39.8975 15.7299 39.8975 17.3196 39.8975C18.1924 39.8975 18.9716 39.8741 19.0417 39.8507C19.2833 39.7572 19.3924 39.391 19.3924 38.6663V37.9649L19.8677 37.8792C21.1379 37.661 22.0886 36.8584 22.5406 35.635L22.7042 35.183L22.7276 24.7021C22.7432 17.6733 22.7198 14.0187 22.6652 13.5979C22.486 12.2342 21.6756 11.229 20.3665 10.7614C20.1327 10.6757 19.4859 10.6445 17.7404 10.6211L15.4182 10.5822V6.96647V3.35076H16.1897C16.891 3.35076 16.9689 3.33518 17.1638 3.15595L17.3664 2.96893V1.67538C17.3664 0.405209 17.3664 0.381832 17.1715 0.194813L16.9845 0H11.3662H5.74779L5.56077 0.194813ZM15.9637 1.67538V1.94812H11.3662H6.7686V1.67538V1.40265H11.3662H15.9637V1.67538ZM14.0156 6.97426V10.5978H11.3662H8.71672V6.97426V3.35076H11.3662H14.0156V6.97426ZM19.9067 12.1173C20.4288 12.2731 20.8184 12.616 21.0834 13.1537L21.3016 13.5979V24.2736V34.9492L21.0756 35.4012C20.8262 35.9233 20.3353 36.3285 19.8054 36.461C19.3534 36.5779 3.37888 36.5779 2.92692 36.461C2.39703 36.3285 1.9061 35.9233 1.65674 35.4012L1.43076 34.9492V24.2736V13.5979L1.64895 13.1537C1.9061 12.6316 2.30352 12.2731 2.79444 12.1173C3.33212 11.9537 19.3456 11.9459 19.9067 12.1173Z" fill="#133769"/>
<path d="M11.0858 13.325C10.9923 13.3639 10.8599 13.473 10.7897 13.5743C10.6806 13.7302 10.665 14.7354 10.665 24.289V34.8244L10.8521 35.0426C11.117 35.3465 11.6157 35.3465 11.8807 35.0426L12.0677 34.8244V24.2734V13.7224L11.8962 13.5276C11.7014 13.3016 11.3352 13.2159 11.0858 13.325Z" fill="#133769"/>
<path d="M5.83376 14.6266C5.77142 14.65 5.63895 14.7435 5.54544 14.8292L5.36621 14.9851V24.2737V33.5623L5.54544 33.7182C5.7948 33.9442 5.98182 33.9909 6.27793 33.8896C6.79223 33.7182 6.76886 34.2325 6.76886 24.2893C6.76886 17.7826 6.74548 15.2267 6.68314 15.0396C6.56625 14.7201 6.14546 14.5098 5.83376 14.6266Z" fill="#133769"/>
<path d="M16.3843 14.6812C16.2285 14.7513 16.1116 14.8838 16.0493 15.0396C15.9869 15.2267 15.9635 17.7826 15.9635 24.2893C15.9635 34.2325 15.9402 33.7182 16.4545 33.8896C16.7506 33.9909 16.9376 33.9442 17.1948 33.7182L17.3662 33.5623V24.2737V14.9851L17.1948 14.8214C16.9532 14.6033 16.6727 14.5565 16.3843 14.6812Z" fill="#133769"/>
</svg>
