<svg width="16" height="17" viewBox="0 0 16 17" fill="none" xmlns="http://www.w3.org/2000/svg">
<path opacity="0.99" d="M4.15612 15.7129C4.14463 15.7492 4.14158 15.7876 4.1472 15.8252C4.15282 15.8628 4.16695 15.8987 4.18857 15.9302C4.21088 15.9601 4.24053 15.9839 4.27474 15.9994C4.30895 16.0149 4.3466 16.0217 4.38417 16.0189H5.55597C5.66003 16.0204 5.76272 15.9955 5.85413 15.9465C5.94554 15.8976 6.0226 15.8263 6.07788 15.7395L9.70417 9.94638C9.75558 9.85616 9.83185 9.78206 9.92418 9.73263C10.0165 9.68319 10.1212 9.66043 10.2261 9.66697H14.3058C14.5189 9.66782 14.73 9.62555 14.9259 9.54278C15.5347 9.31571 15.8718 8.99549 15.9373 8.58214C15.9583 8.52311 15.9693 8.46107 15.9697 8.39852C15.9682 8.32503 15.9573 8.25203 15.9373 8.1812C15.9361 8.15479 15.9306 8.12874 15.9211 8.10403C15.9075 8.06687 15.8912 8.0307 15.8724 7.99581C15.8177 7.83562 15.7153 7.69531 15.5785 7.5931C15.4488 7.48369 15.3063 7.38989 15.154 7.31369L14.9259 7.22499C14.7252 7.16373 14.5159 7.1338 14.3058 7.13629H10.2261C10.1212 7.14282 10.0165 7.12006 9.92418 7.07063C9.83185 7.02119 9.75558 6.9471 9.70417 6.85687L6.08148 1.04953C6.02621 0.962759 5.94915 0.891468 5.85774 0.842527C5.76632 0.793587 5.66364 0.768648 5.55958 0.770115H4.38777C4.35021 0.767411 4.31256 0.77413 4.27835 0.789643C4.24414 0.805157 4.21449 0.828957 4.19217 0.858818C4.17056 0.890333 4.15642 0.926226 4.15081 0.963843C4.14519 1.00146 4.14824 1.03984 4.15972 1.07614L6.11754 6.81164C6.13978 6.84448 6.15027 6.88368 6.14733 6.92304C6.14439 6.9624 6.1282 6.99967 6.10131 7.02896C6.07481 7.05817 6.04209 7.08127 6.00547 7.0966C5.96886 7.11193 5.92925 7.11912 5.88949 7.11766L2.7193 7.11766C2.61344 7.12299 2.50783 7.10321 2.41135 7.05999C2.31488 7.01676 2.23037 6.95136 2.16495 6.86929L1.57724 6.09403C1.51182 6.01196 1.42731 5.94656 1.33084 5.90334C1.23436 5.86012 1.12875 5.84034 1.02289 5.84567H0.239578C0.202012 5.84296 0.164364 5.84968 0.130155 5.8652C0.0959454 5.88071 0.0662947 5.90451 0.0439777 5.93437C0.0223055 5.96586 0.00813293 6.00175 0.00251484 6.03938C-0.00310326 6.07701 -2.38419e-05 6.1154 0.0115271 6.15169L0.599233 8.07387C0.66468 8.27583 0.66468 8.49283 0.599233 8.69479L0.0115271 10.617C-2.38419e-05 10.6533 -0.00310326 10.6917 0.00251484 10.7293C0.00813293 10.7669 0.0223055 10.8028 0.0439777 10.8343C0.0662947 10.8642 0.0959454 10.888 0.130155 10.9035C0.164364 10.919 0.202012 10.9257 0.239578 10.923H1.02289C1.12875 10.9283 1.23436 10.9085 1.33084 10.8653C1.42731 10.8221 1.51182 10.7567 1.57724 10.6746L2.16495 9.89937C2.23037 9.8173 2.31488 9.7519 2.41135 9.70867C2.50783 9.66545 2.61344 9.64567 2.7193 9.651H5.88588C5.92839 9.64599 5.9715 9.65147 6.01131 9.66696C6.05113 9.68245 6.0864 9.70745 6.11393 9.7397C6.13538 9.77201 6.1468 9.80977 6.1468 9.84836C6.1468 9.88696 6.13538 9.92471 6.11393 9.95702L4.15612 15.7129Z" fill="#999999"/>
</svg>
