<svg width="16" height="11" viewBox="0 0 16 11" fill="none" xmlns="http://www.w3.org/2000/svg">
<path d="M13.1056 5.87793C12.6073 5.87793 12.1201 6.02573 11.7058 6.30263C11.2915 6.57953 10.9685 6.9731 10.7778 7.43356C10.5872 7.89403 10.5373 8.40072 10.6345 8.88955C10.7317 9.37838 10.9717 9.82739 11.324 10.1798C11.6764 10.5322 12.1253 10.7723 12.6141 10.8695C13.1028 10.9667 13.6094 10.9168 14.0698 10.7261C14.5302 10.5354 14.9237 10.2124 15.2005 9.79795C15.4774 9.38354 15.6251 8.89632 15.6251 8.39792C15.6243 7.72982 15.3586 7.08931 14.8863 6.61689C14.414 6.14448 13.7736 5.87872 13.1056 5.87793ZM13.1056 9.90991C12.8066 9.90991 12.5143 9.82123 12.2657 9.65509C12.0171 9.48895 11.8234 9.25281 11.7089 8.97653C11.5945 8.70025 11.5646 8.39624 11.6229 8.10294C11.6813 7.80965 11.8252 7.54023 12.0366 7.32878C12.2481 7.11732 12.5174 6.97332 12.8107 6.91498C13.1039 6.85664 13.4079 6.88658 13.6841 7.00102C13.9603 7.11546 14.1964 7.30926 14.3625 7.5579C14.5286 7.80655 14.6173 8.09887 14.6173 8.39792C14.6168 8.79876 14.4573 9.18303 14.174 9.46647C13.8906 9.74991 13.5064 9.90938 13.1056 9.90991Z" fill="black"/>
<path d="M7.31521 0.154609C7.22239 0.0582037 7.09506 0.00262213 6.96125 9.04144e-05C6.82744 -0.0024413 6.69811 0.048284 6.6017 0.141109C6.50529 0.233934 6.44971 0.361254 6.44718 0.49506C6.44465 0.628866 6.49537 0.758198 6.5882 0.854603L7.92322 2.24859C6.50453 2.03774 5.0588 2.3753 3.88017 3.19258C3.01098 3.8781 2.40117 4.83918 2.15114 5.91755C1.53387 6.00886 0.972371 6.32575 0.575161 6.80697C0.177951 7.28819 -0.0267596 7.89957 0.000595495 8.52294C0.0279506 9.14631 0.285429 9.73741 0.723265 10.182C1.1611 10.6266 1.74821 10.8931 2.3711 10.9299C2.994 10.9668 3.60845 10.7715 4.0957 10.3817C4.58295 9.99192 4.9084 9.43534 5.00915 8.81956C5.10989 8.20377 4.97878 7.5725 4.64114 7.04777C4.30351 6.52303 3.78334 6.14208 3.18116 5.97855C3.39718 5.19171 3.85897 4.49448 4.49917 3.98857C5.55497 3.29217 6.8414 3.03662 8.08322 3.27658L6.1332 4.64857C6.02379 4.72548 5.94942 4.8427 5.92645 4.97444C5.90348 5.10618 5.93378 5.24166 6.01069 5.35106C6.08761 5.46046 6.20483 5.53483 6.33658 5.5578C6.46832 5.58077 6.6038 5.55047 6.7132 5.47356L9.63624 3.41758C9.69789 3.37676 9.74972 3.32278 9.788 3.25953C9.82628 3.19627 9.85005 3.12531 9.85761 3.05176C9.86517 2.97821 9.85632 2.90391 9.8317 2.83419C9.80708 2.76447 9.76731 2.70108 9.71524 2.64858L7.31521 0.154609ZM4.03417 8.39853C4.03417 8.69757 3.94549 8.9899 3.77935 9.23854C3.6132 9.48719 3.37706 9.68098 3.10078 9.79542C2.82449 9.90986 2.52047 9.9398 2.22717 9.88146C1.93386 9.82312 1.66445 9.67912 1.45299 9.46767C1.24153 9.25621 1.09752 8.9868 1.03918 8.6935C0.980842 8.40021 1.01078 8.0962 1.12522 7.81992C1.23967 7.54364 1.43347 7.3075 1.68212 7.14136C1.93077 6.97522 2.2231 6.88654 2.52215 6.88654C2.92248 6.8876 3.30609 7.04716 3.58908 7.33033C3.87206 7.61349 4.03138 7.99721 4.03217 8.39753L4.03417 8.39853Z" fill="black"/>
</svg>
