<svg width="26" height="26" viewBox="0 0 26 26" fill="none" xmlns="http://www.w3.org/2000/svg">
<path d="M13 0C5.8204 0 0 5.8204 0 13C0 20.1796 5.8204 26 13 26C20.1796 26 26 20.1796 26 13C26 5.8204 20.1796 0 13 0ZM20.6577 9.68399L12.0605 18.2812C11.7881 18.5536 11.4323 18.687 11.0765 18.687C10.7208 18.687 10.365 18.5508 10.0926 18.2812L5.34231 13.5309C4.8003 12.9889 4.8003 12.1078 5.34231 11.5657C5.88433 11.0237 6.76545 11.0237 7.30746 11.5657L11.0765 15.3348L18.6925 7.72162C19.2346 7.1796 20.1157 7.1796 20.6577 7.72162C21.1997 8.26363 21.1997 9.14475 20.6577 9.68677V9.68399Z" fill="#08A362"/>
</svg>
