<svg width="16" height="18" viewBox="0 0 16 18" fill="none" xmlns="http://www.w3.org/2000/svg">
<path d="M4.75718 10.4003C4.83218 10.4 4.90652 10.4144 4.9759 10.4427C5.04528 10.471 5.10834 10.5126 5.16145 10.5652C5.22059 10.6211 5.29943 10.6519 5.3811 10.6509C5.46277 10.6499 5.54082 10.6173 5.59857 10.5599C5.65633 10.5026 5.68922 10.425 5.69022 10.3439C5.69121 10.2628 5.66024 10.1846 5.60391 10.1258C5.49267 10.0154 5.3606 9.92771 5.21525 9.86792C5.06989 9.80812 4.9141 9.77734 4.75677 9.77734C4.59943 9.77734 4.44364 9.80812 4.29828 9.86792C4.15293 9.92771 4.02086 10.0154 3.90963 10.1258C3.8794 10.1544 3.85524 10.1887 3.83856 10.2267C3.82188 10.2647 3.81303 10.3056 3.81252 10.3471C3.81201 10.3885 3.81986 10.4297 3.8356 10.4681C3.85133 10.5064 3.87465 10.5413 3.90417 10.5706C3.93368 10.5999 3.9688 10.6231 4.00746 10.6387C4.04612 10.6543 4.08754 10.6621 4.12927 10.6616C4.17101 10.6611 4.21222 10.6523 4.25049 10.6358C4.28875 10.6192 4.32329 10.5952 4.35208 10.5652C4.40526 10.5125 4.46845 10.4707 4.53799 10.4424C4.60753 10.4141 4.68203 10.3998 4.75718 10.4003Z" fill="black" stroke="black" stroke-width="0.439606"/>
<path d="M10.391 10.1252C10.3347 10.1839 10.3037 10.2622 10.3047 10.3433C10.3057 10.4244 10.3386 10.5019 10.3963 10.5592C10.4541 10.6166 10.5322 10.6492 10.6138 10.6502C10.6955 10.6512 10.7743 10.6204 10.8335 10.5645C10.9409 10.458 11.0864 10.3983 11.2382 10.3983C11.3899 10.3983 11.5355 10.458 11.6428 10.5645C11.702 10.6204 11.7808 10.6512 11.8625 10.6502C11.9442 10.6492 12.0222 10.6166 12.08 10.5592C12.1377 10.5019 12.1706 10.4244 12.1716 10.3433C12.1726 10.2622 12.1416 10.1839 12.0853 10.1252C11.8604 9.90243 11.5558 9.77734 11.2382 9.77734C10.9205 9.77734 10.6159 9.90243 10.391 10.1252Z" fill="black" stroke="black" stroke-width="0.439606"/>
<path d="M10.2898 12.3182C9.07695 14.0921 7.10291 14.0921 5.8901 12.3182C5.8767 12.2899 5.85545 12.266 5.82884 12.2492C5.80224 12.2324 5.77137 12.2235 5.73985 12.2235C5.70834 12.2235 5.67747 12.2324 5.65086 12.2492C5.62426 12.266 5.60301 12.2899 5.5896 12.3182C5.54889 12.3844 5.52734 12.4604 5.52734 12.5379C5.52734 12.6154 5.54889 12.6915 5.5896 12.7576C5.82668 13.2131 6.18538 13.5951 6.62645 13.8618C7.06752 14.1284 7.57395 14.2695 8.09034 14.2695C8.60673 14.2695 9.11317 14.1284 9.55424 13.8618C9.99531 13.5951 10.354 13.2131 10.5911 12.7576C10.6318 12.6915 10.6533 12.6154 10.6533 12.5379C10.6533 12.4604 10.6318 12.3844 10.5911 12.3182C10.5778 12.2897 10.5565 12.2655 10.5298 12.2486C10.5031 12.2317 10.4721 12.2227 10.4404 12.2227C10.4087 12.2227 10.3777 12.2317 10.351 12.2486C10.3243 12.2655 10.3031 12.2897 10.2898 12.3182Z" fill="black" stroke="black" stroke-width="0.439606"/>
<path d="M15.3844 10.7347C15.384 10.3316 15.2415 9.94133 14.9816 9.63162C14.7217 9.32192 14.3609 9.11231 13.9616 9.03915V3.83949C13.9621 3.51835 13.8849 3.20179 13.7366 2.9164C13.5883 2.63101 13.3732 2.38512 13.1094 2.19938C12.8456 2.01364 12.5407 1.89347 12.2204 1.84897C11.9001 1.80446 11.5737 1.83692 11.2687 1.94361L9.3038 1.28418C7.82169 0.775519 6.21957 0.722375 4.70658 1.13168C2.74666 1.6683 1.62268 2.80418 1.44918 4.41815C1.29402 4.62086 1.17292 4.84717 1.09057 5.0883L0.937825 5.53672C0.898929 5.65138 0.899945 5.77569 0.94071 5.88971C0.981476 6.00373 1.05963 6.10084 1.16263 6.16548C1.26563 6.23012 1.38751 6.25853 1.50872 6.24615C1.62993 6.23378 1.74344 6.18134 1.83104 6.09724C1.89256 6.03841 1.96082 5.98696 2.03442 5.94392V9.03915C1.62698 9.11372 1.25985 9.33054 0.999344 9.65043C0.738843 9.97033 0.60216 10.3722 0.613989 10.7834C0.625819 11.1946 0.78538 11.5881 1.06385 11.8927C1.34231 12.1973 1.72131 12.393 2.13237 12.4443C2.34947 13.6292 2.92244 14.7211 3.77601 15.5766C4.32516 16.1366 4.9818 16.5816 5.70711 16.8853C6.43242 17.189 7.21169 17.3452 7.99885 17.3447C9.40181 17.3443 10.7597 16.853 11.8341 15.9571C12.9085 15.0612 13.6306 13.818 13.8736 12.446C14.2916 12.3912 14.6753 12.1874 14.9533 11.8726C15.2312 11.5578 15.3844 11.1534 15.3844 10.7347ZM12.7115 2.68466C12.9046 2.80961 13.063 2.98079 13.1721 3.18245C13.2812 3.38411 13.3374 3.60977 13.3357 3.83867V7.90739C12.8575 7.83263 12.4218 7.59093 12.1069 7.22573C11.7921 6.86053 11.6188 6.3958 11.6182 5.91507L11.5924 2.49754C11.7816 2.44757 11.9793 2.43842 12.1724 2.4707C12.3654 2.50297 12.5492 2.57593 12.7115 2.68466ZM1.62351 5.46665L1.68411 5.28778C1.76295 5.05582 1.89018 4.84299 2.05748 4.66317C2.22478 4.48335 2.42839 4.34059 2.65503 4.24421C2.88166 4.14783 3.12622 4.1 3.37273 4.10383C3.61924 4.10767 3.86217 4.16309 4.08565 4.26648C4.55116 4.47923 5.07314 4.53799 5.5748 4.43412C6.07645 4.33025 6.53129 4.06923 6.87237 3.68947L6.94957 3.6021C6.97682 3.57152 6.99775 3.53591 7.01114 3.4973C7.02453 3.45869 7.03014 3.41784 7.02763 3.37708C7.02513 3.33632 7.01456 3.29645 6.99654 3.25975C6.97852 3.22304 6.95339 3.19022 6.92259 3.16316C6.8918 3.1361 6.85593 3.11532 6.81705 3.10202C6.77817 3.08872 6.73703 3.08316 6.69598 3.08565C6.65494 3.08813 6.61479 3.09863 6.57782 3.11652C6.54086 3.13442 6.50781 3.15937 6.48055 3.18995L6.40335 3.27732C6.15187 3.55704 5.81663 3.74924 5.44694 3.82565C5.07725 3.90207 4.69263 3.85867 4.34963 3.70184C4.0464 3.56177 3.71687 3.48667 3.38249 3.48142C3.0481 3.47616 2.71634 3.54087 2.4088 3.67134C2.35235 3.69524 2.29756 3.72244 2.24278 3.75377C2.48187 3.22912 2.84658 2.77052 3.30511 2.41794C3.76364 2.06536 4.30206 1.82951 4.87344 1.73095C6.26538 1.35435 7.73934 1.40318 9.10291 1.87108L10.9665 2.49919L10.9906 4.10492C10.1663 5.22418 8.94425 5.99034 7.57216 6.24808C6.16744 6.51641 4.7127 6.23111 3.51619 5.45264C3.23503 5.26791 2.90481 5.17058 2.56769 5.17308C2.23058 5.17558 1.90186 5.27778 1.62351 5.46665ZM1.23833 10.7339C1.23855 10.4959 1.31627 10.2643 1.45989 10.0737C1.6035 9.88309 1.80533 9.74371 2.03525 9.67633V11.3612C2.03525 11.5068 2.0405 11.6516 2.05102 11.7956C1.81762 11.7309 1.6119 11.5922 1.46519 11.4007C1.31848 11.2092 1.23882 10.9753 1.23833 10.7347V10.7339ZM11.7718 15.1686C11.2774 15.6621 10.6895 16.0534 10.0418 16.3199C9.39423 16.5863 8.69984 16.7225 7.99885 16.7208C7.29546 16.7216 6.59901 16.5826 5.95059 16.312C5.30218 16.0413 4.71491 15.6444 4.22345 15.1447C3.22015 14.1385 2.65876 12.7788 2.66199 11.3628V5.79802C2.84447 5.81173 3.02043 5.8713 3.17334 5.97112C4.50552 6.83788 6.12526 7.15542 7.68921 6.85641C8.95131 6.61996 10.1066 5.99535 10.9914 5.07099V5.91424C10.9916 6.5599 11.2302 7.18309 11.6621 7.66573C12.094 8.14838 12.6892 8.45697 13.3349 8.53303V11.4181C13.3372 12.1148 13.2003 12.8051 12.932 13.4489C12.6636 14.0927 12.2693 14.6773 11.7718 15.1686ZM13.9492 11.7956C13.9566 11.6711 13.9616 11.5483 13.9616 11.4214V9.6788C14.1924 9.74644 14.3949 9.88673 14.5384 10.0785C14.6819 10.2704 14.7588 10.5033 14.7574 10.7423C14.7559 10.9812 14.6764 11.2133 14.5306 11.4034C14.3848 11.5935 14.1808 11.7315 13.9492 11.7964V11.7956Z" fill="black" stroke="black" stroke-width="0.439606"/>
</svg>
