<svg width="32" height="30" viewBox="0 0 32 30" fill="none" xmlns="http://www.w3.org/2000/svg">
<path d="M15.1951 0.130938C15.0028 0.223518 13.8064 1.37722 11.5489 3.63476C8.60052 6.59735 8.18747 7.04601 8.14474 7.2739C8.07352 7.65846 8.15898 8.0003 8.37263 8.2638C8.72871 8.68397 9.25571 8.7908 9.73286 8.54866C9.87529 8.47033 11.0076 7.39496 12.2397 6.16293L14.483 3.9125L14.5186 12.5581C14.5542 21.1539 14.5542 21.2109 14.7037 21.4031C14.9815 21.7806 15.2094 21.8945 15.658 21.8945C16.1067 21.8945 16.3346 21.7806 16.6123 21.4031C16.7619 21.2109 16.7619 21.1681 16.7832 12.5439L16.7975 3.88402L19.2046 6.27687C20.8141 7.88635 21.6686 8.69109 21.804 8.7267C22.1173 8.79792 22.6016 8.71958 22.8366 8.55578C23.2354 8.2638 23.4063 7.56588 23.1784 7.13147C23.0218 6.83236 16.2918 0.152304 16.064 0.0739651C15.772 -0.0399799 15.5227 -0.0186157 15.1951 0.130938Z" fill="#133769"/>
<path d="M0.660421 18.3964C0.389801 18.5174 0.154788 18.8023 0.055086 19.1441C0.00523483 19.3222 -0.00900836 20.1981 0.00523483 21.8219C0.0337212 24.2147 0.0408428 24.2503 0.233126 24.8841C0.724516 26.5007 1.76427 27.7328 3.23132 28.4449C4.50608 29.0645 3.40936 29.0147 15.6585 29.0147C27.9076 29.0147 26.8109 29.0645 28.0857 28.4449C29.5883 27.7185 30.6851 26.3726 31.1266 24.7417C31.2619 24.2218 31.2833 23.9583 31.3046 21.715C31.3331 19.2652 31.3331 19.2581 31.1693 18.9447C30.9557 18.5317 30.7064 18.3536 30.272 18.3109C29.8234 18.2682 29.4174 18.4818 29.1966 18.8664C29.0542 19.1228 29.0471 19.2296 29.0471 21.3305C29.0471 23.7945 28.9972 24.2005 28.6056 24.9411C28.3136 25.4966 27.7011 26.1091 27.1955 26.3583C26.3195 26.7927 26.9177 26.7714 15.6585 26.7714C4.40638 26.7714 5.02596 26.7927 4.13576 26.3583C3.59452 26.1019 2.98206 25.4824 2.70432 24.9269C2.31975 24.172 2.2699 23.7803 2.2699 21.3305C2.2699 19.2296 2.26278 19.1228 2.12035 18.8664C1.84261 18.375 1.19454 18.1685 0.660421 18.3964Z" fill="#133769"/>
</svg>
