<svg width="17" height="19" viewBox="0 0 17 19" fill="none" xmlns="http://www.w3.org/2000/svg">
<path fill-rule="evenodd" clip-rule="evenodd" d="M3.95717 2.89551C4.18662 2.67314 4.55289 2.67889 4.77526 2.90834C5.4442 3.59861 6.24503 4.1474 7.13019 4.52212C8.01535 4.89684 8.96679 5.08986 9.928 5.0897L9.92963 5.0897C10.8996 5.09227 11.8599 4.89817 12.7528 4.51913C13.0469 4.39426 13.3865 4.53147 13.5114 4.82558C13.6362 5.11969 13.499 5.45934 13.2049 5.58421C12.1684 6.02427 11.0534 6.24967 9.92733 6.24679C8.81138 6.24686 7.70678 6.02272 6.67911 5.58766C5.65117 5.1525 4.72117 4.51519 3.94434 3.71359C3.72197 3.48414 3.72772 3.11787 3.95717 2.89551ZM9.92733 6.24679C9.92708 6.24679 9.92682 6.24679 9.92656 6.24679L9.9281 5.66824L9.92819 6.24679C9.92791 6.24679 9.92762 6.24679 9.92733 6.24679Z" fill="black"/>
<path fill-rule="evenodd" clip-rule="evenodd" d="M8.37012 1.57897C6.11022 1.57897 4.27819 3.41102 4.27819 5.671C4.27819 7.93097 6.11022 9.76303 8.37012 9.76303C10.63 9.76303 12.4621 7.93097 12.4621 5.671C12.4621 3.41102 10.63 1.57897 8.37012 1.57897ZM3.12109 5.671C3.12109 2.772 5.47115 0.421875 8.37012 0.421875C11.2691 0.421875 13.6192 2.772 13.6192 5.671C13.6192 8.56999 11.2691 10.9201 8.37012 10.9201C5.47115 10.9201 3.12109 8.56999 3.12109 5.671Z" fill="black"/>
<path fill-rule="evenodd" clip-rule="evenodd" d="M8.79263 11.4467C9.10443 11.3769 9.41379 11.5731 9.48362 11.8849L10.5207 16.516C10.5618 16.7011 10.5559 16.8945 10.5029 17.0766C10.45 17.2587 10.3521 17.4245 10.2182 17.5587L9.17172 18.6051C9.17164 18.6052 9.17179 18.6051 9.17172 18.6051C9.06699 18.7099 8.94241 18.7933 8.80554 18.85C8.66857 18.9068 8.52175 18.936 8.37349 18.936C8.22523 18.936 8.07842 18.9068 7.94144 18.85C7.80457 18.7933 7.68022 18.7101 7.57549 18.6054L6.52926 17.5591C6.39533 17.4249 6.29695 17.2587 6.24404 17.0766C6.19113 16.8945 6.18496 16.7021 6.22608 16.517C6.22608 16.517 6.22609 16.517 6.22608 16.517L7.25491 11.8858C7.3242 11.5739 7.63323 11.3772 7.94515 11.4465C8.15162 11.4924 8.3076 11.6433 8.36937 11.8306C8.43103 11.6436 8.58658 11.4929 8.79263 11.4467ZM8.36943 12.2044L7.35906 16.7525L8.37349 17.767L9.3879 16.7526L8.36943 12.2044ZM8.35307 17.7874C8.35299 17.7875 8.35314 17.7873 8.35307 17.7874V17.7874Z" fill="black"/>
<path fill-rule="evenodd" clip-rule="evenodd" d="M3.43309 13.0653C4.8604 12.0039 6.59176 11.4307 8.37046 11.4307C10.1492 11.4307 11.8805 12.0039 13.3078 13.0653C14.7352 14.1267 15.7824 15.6198 16.2944 17.3233C16.3864 17.6293 16.2129 17.9519 15.9069 18.0439C15.6009 18.1358 15.2783 17.9623 15.1863 17.6563C14.7459 16.1911 13.8451 14.9068 12.6174 13.9938C11.3897 13.0808 9.90042 12.5878 8.37046 12.5878C6.84051 12.5878 5.35127 13.0808 4.12356 13.9938C2.89585 14.9068 1.99502 16.1911 1.55464 17.6563C1.46267 17.9623 1.14005 18.1358 0.834048 18.0439C0.528048 17.9519 0.354542 17.6293 0.446511 17.3233C0.958492 15.6198 2.00577 14.1267 3.43309 13.0653Z" fill="black"/>
</svg>
