<svg width="19" height="16" viewBox="0 0 19 16" fill="none" xmlns="http://www.w3.org/2000/svg">
<path fill-rule="evenodd" clip-rule="evenodd" d="M18 9.35378C17.9986 8.8872 17.8339 8.43582 17.5344 8.078C17.235 7.72018 16.8197 7.47851 16.3606 7.39493V7.09971C16.3606 6.19891 16.1832 5.30693 15.8385 4.4747C15.4938 3.64247 14.9885 2.88629 14.3516 2.24933C13.7146 1.61237 12.9584 1.1071 12.1262 0.76238C11.2939 0.417659 10.402 0.240234 9.50117 0.240234C8.60037 0.240234 7.70839 0.417659 6.87616 0.76238C6.04393 1.1071 5.28775 1.61237 4.65079 2.24933C4.01383 2.88629 3.50856 3.64247 3.16384 4.4747C2.81912 5.30693 2.64169 6.19891 2.64169 7.09971V7.39493C2.17944 7.47713 1.76113 7.72011 1.46072 8.08092C1.1603 8.44174 0.997129 8.89714 1.00004 9.36664C1.00295 9.83614 1.17176 10.2895 1.47662 10.6465C1.78148 11.0036 2.20277 11.2414 2.66601 11.3179C2.69443 12.0024 2.89921 12.6681 3.26051 13.2503C3.62181 13.8324 4.12736 14.3114 4.72819 14.6408C6.21828 15.3412 7.86016 15.6571 9.50377 15.5594C11.1474 15.657 12.7893 15.3412 14.2794 14.6408C14.8802 14.3114 15.3857 13.8324 15.747 13.2503C16.1083 12.6681 16.3131 12.0024 16.3415 11.3179C16.805 11.2381 17.2254 10.9974 17.5288 10.6381C17.8322 10.2788 17.999 9.82402 18 9.35378ZM1.70134 9.35378C1.70113 9.07319 1.79239 8.80018 1.9613 8.57612C2.1302 8.35206 2.36755 8.18917 2.63735 8.11213V10.5902C2.36824 10.5136 2.13133 10.3515 1.96234 10.1285C1.79336 9.90551 1.70145 9.6336 1.70047 9.35378H1.70134ZM15.6573 10.7639C15.7129 11.4161 15.5796 12.0706 15.2734 12.6492C14.9671 13.2278 14.5009 13.706 13.9303 14.0269C12.5455 14.6652 11.0239 14.9499 9.50204 14.8553C7.98014 14.9499 6.45856 14.6652 5.07377 14.0269C4.50252 13.7067 4.0355 13.2288 3.72849 12.6504C3.42148 12.0719 3.28745 11.4173 3.3424 10.7648V7.09971C3.34394 5.7758 3.77133 4.4875 4.56141 3.42519C5.3515 2.36288 6.46237 1.58292 7.72986 1.20056C8.4411 1.1484 9.14515 1.37172 9.6963 1.82427C10.2475 2.27683 10.6035 2.92398 10.6907 3.63177C10.6905 4.00384 10.5426 4.3606 10.2795 4.62369C10.0164 4.88678 9.65964 5.03469 9.28757 5.03492C9.00884 5.03446 8.74165 4.92353 8.54456 4.72644C8.34746 4.52934 8.23653 4.26216 8.23607 3.98342C8.2363 3.779 8.31761 3.58302 8.46216 3.43847C8.60671 3.29392 8.80269 3.21261 9.00711 3.21238C9.10026 3.21238 9.1896 3.17538 9.25547 3.10951C9.32133 3.04365 9.35834 2.95431 9.35834 2.86116C9.35834 2.76801 9.32133 2.67868 9.25547 2.61281C9.1896 2.54694 9.10026 2.50994 9.00711 2.50994C8.61563 2.50994 8.24018 2.66545 7.96336 2.94228C7.68654 3.2191 7.53102 3.59454 7.53102 3.98603C7.53148 4.45129 7.71651 4.89737 8.0455 5.22636C8.3745 5.55535 8.82057 5.74038 9.28583 5.74084C9.84406 5.74015 10.3792 5.51809 10.774 5.12336C11.1687 4.72863 11.3907 4.19347 11.3914 3.63524C11.3748 3.23788 11.2796 2.84775 11.1114 2.48738C10.9431 2.12702 10.7051 1.80357 10.4111 1.53572C10.1639 1.30121 9.88435 1.10326 9.58105 0.947888C11.1996 0.970686 12.7443 1.62918 13.8815 2.78116C15.0187 3.93315 15.6572 5.48619 15.6591 7.10492L15.6573 10.7639ZM16.3598 10.5902V8.11213C16.6296 8.18846 16.8671 8.35077 17.0363 8.57441C17.2054 8.79804 17.2969 9.07078 17.2969 9.35118C17.2969 9.63158 17.2054 9.90432 17.0363 10.128C16.8671 10.3516 16.6296 10.5139 16.3598 10.5902ZM6.63057 8.202C6.63057 8.57461 6.32851 8.87666 5.95591 8.87666C5.58331 8.87666 5.28125 8.57461 5.28125 8.202C5.28125 7.8294 5.58331 7.52734 5.95591 7.52734C6.32851 7.52734 6.63057 7.8294 6.63057 8.202ZM13.7165 8.202C13.7165 8.57461 13.4145 8.87666 13.0418 8.87666C12.6692 8.87666 12.3672 8.57461 12.3672 8.202C12.3672 7.8294 12.6692 7.52734 13.0418 7.52734C13.4145 7.52734 13.7165 7.8294 13.7165 8.202ZM9.49789 11.8908C10.0076 11.8908 10.4965 11.6885 10.8572 11.3285C10.9231 11.2626 11.0124 11.2256 11.1055 11.2256C11.1987 11.2256 11.288 11.2626 11.3539 11.3285C11.4197 11.3943 11.4567 11.4836 11.4567 11.5768C11.4567 11.6699 11.4197 11.7592 11.3539 11.8251C10.8612 12.3165 10.1937 12.5924 9.49789 12.5924C8.80206 12.5924 8.13462 12.3165 7.64193 11.8251C7.57607 11.7592 7.53906 11.6699 7.53906 11.5768C7.53906 11.4836 7.57607 11.3943 7.64193 11.3285C7.70779 11.2626 7.79711 11.2256 7.89025 11.2256C7.9834 11.2256 8.07273 11.2626 8.13859 11.3285C8.49934 11.6885 8.9882 11.8908 9.49789 11.8908Z" fill="black"/>
<path d="M17.5344 8.078L17.652 7.97957V7.97957L17.5344 8.078ZM18 9.35378L18.1533 9.3541L18.1533 9.35333L18 9.35378ZM16.3606 7.39493H16.2073V7.52289L16.3332 7.54581L16.3606 7.39493ZM15.8385 4.4747L15.6968 4.53339L15.8385 4.4747ZM14.3516 2.24933L14.46 2.14088L14.3516 2.24933ZM12.1262 0.76238L12.0675 0.904071L12.1262 0.76238ZM6.87616 0.76238L6.93485 0.904071L6.87616 0.76238ZM4.65079 2.24933L4.54234 2.14088L4.65079 2.24933ZM3.16384 4.4747L3.30553 4.53339L3.16384 4.4747ZM2.64169 7.39493L2.66855 7.54592L2.79506 7.52343V7.39493H2.64169ZM1.46072 8.08092L1.57858 8.17905L1.46072 8.08092ZM1.00004 9.36664L0.846676 9.36759L1.00004 9.36664ZM1.47662 10.6465L1.35998 10.7461H1.35998L1.47662 10.6465ZM2.66601 11.3179L2.81924 11.3115L2.81407 11.1869L2.69098 11.1665L2.66601 11.3179ZM3.26051 13.2503L3.39082 13.1694L3.26051 13.2503ZM4.72819 14.6408L4.65433 14.7755L4.66295 14.7796L4.72819 14.6408ZM9.50377 15.5594L9.51287 15.4063L9.50377 15.4058L9.49468 15.4063L9.50377 15.5594ZM14.2794 14.6408L14.3447 14.7799L14.3531 14.7753L14.2794 14.6408ZM15.747 13.2503L15.6167 13.1694L15.747 13.2503ZM16.3415 11.3179L16.3155 11.1667L16.1934 11.1877L16.1883 11.3115L16.3415 11.3179ZM17.5288 10.6381L17.646 10.7371H17.646L17.5288 10.6381ZM1.9613 8.57612L2.08376 8.66844H2.08376L1.9613 8.57612ZM1.70134 9.35378V9.50715H1.85482L1.8547 9.35367L1.70134 9.35378ZM2.63735 8.11213H2.79072V7.90885L2.59524 7.96466L2.63735 8.11213ZM2.63735 10.5902L2.59535 10.7377L2.79072 10.7934V10.5902H2.63735ZM1.96234 10.1285L1.84011 10.2212H1.84011L1.96234 10.1285ZM1.70047 9.35378V9.20042H1.54657L1.54711 9.35432L1.70047 9.35378ZM15.6573 10.7639L15.5034 10.7638L15.5045 10.7769L15.6573 10.7639ZM13.9303 14.0269L13.9947 14.1666L14.0055 14.1606L13.9303 14.0269ZM9.50204 14.8553L9.51155 14.7022L9.50204 14.7016L9.49252 14.7022L9.50204 14.8553ZM5.07377 14.0269L4.99854 14.1611L5.00957 14.1662L5.07377 14.0269ZM3.3424 10.7648L3.49577 10.7777V10.7648H3.3424ZM3.3424 7.09971L3.18904 7.09953V7.09971H3.3424ZM4.56141 3.42519L4.68447 3.51672L4.56141 3.42519ZM7.72986 1.20056L7.71865 1.04761L7.70177 1.04884L7.68557 1.05373L7.72986 1.20056ZM10.6907 3.63177L10.8441 3.63186L10.8441 3.6224L10.8429 3.61301L10.6907 3.63177ZM10.2795 4.62369L10.1711 4.51525L10.2795 4.62369ZM9.28757 5.03492L9.28732 5.18829H9.28767L9.28757 5.03492ZM8.23607 3.98342L8.08271 3.98325L8.08271 3.98368L8.23607 3.98342ZM8.46216 3.43847L8.57061 3.54691L8.46216 3.43847ZM9.00711 3.21238V3.05902L9.00694 3.05902L9.00711 3.21238ZM9.25547 3.10951L9.36391 3.21796L9.36391 3.21796L9.25547 3.10951ZM9.25547 2.61281L9.36391 2.50436L9.36391 2.50436L9.25547 2.61281ZM7.96336 2.94228L7.85492 2.83383V2.83383L7.96336 2.94228ZM7.53102 3.98603H7.37766L7.37766 3.98618L7.53102 3.98603ZM9.28583 5.74084L9.28568 5.8942L9.28602 5.8942L9.28583 5.74084ZM10.774 5.12336L10.6655 5.01492L10.774 5.12336ZM11.3914 3.63524L11.5449 3.63543L11.5447 3.62883L11.3914 3.63524ZM10.4111 1.53572L10.3056 1.64702L10.3078 1.64909L10.4111 1.53572ZM9.58105 0.947888L9.58321 0.794538L9.51113 1.08438L9.58105 0.947888ZM15.6591 7.10492L15.8124 7.10499L15.8124 7.10474L15.6591 7.10492ZM16.3598 8.11213L16.4015 7.96456L16.2064 7.90936V8.11213H16.3598ZM16.3598 10.5902H16.2064V10.793L16.4015 10.7378L16.3598 10.5902ZM17.0363 8.57441L17.1586 8.48189L17.0363 8.57441ZM17.0363 10.128L16.9139 10.0354L17.0363 10.128ZM10.8572 11.3285L10.9655 11.437L10.9656 11.4369L10.8572 11.3285ZM11.3539 11.3285L11.4623 11.22H11.4623L11.3539 11.3285ZM11.3539 11.8251L11.4622 11.9337L11.4623 11.9335L11.3539 11.8251ZM7.64193 11.8251L7.53348 11.9335L7.53363 11.9337L7.64193 11.8251ZM7.64193 11.3285L7.53348 11.22L7.53348 11.22L7.64193 11.3285ZM8.13859 11.3285L8.03015 11.4369L8.03025 11.437L8.13859 11.3285ZM17.4168 8.17643C17.6933 8.50677 17.8453 8.92348 17.8466 9.35424L18.1533 9.35333C18.1519 8.85091 17.9745 8.36487 17.652 7.97957L17.4168 8.17643ZM16.3332 7.54581C16.757 7.62297 17.1404 7.84609 17.4168 8.17643L17.652 7.97957C17.3296 7.59427 16.8824 7.33404 16.3881 7.24404L16.3332 7.54581ZM16.2073 7.09971V7.39493H16.514V7.09971H16.2073ZM15.6968 4.53339C16.0338 5.34702 16.2073 6.21905 16.2073 7.09971H16.514C16.514 6.17877 16.3326 5.26685 15.9802 4.41601L15.6968 4.53339ZM14.2431 2.35777C14.8658 2.98049 15.3598 3.71977 15.6968 4.53339L15.9802 4.41601C15.6278 3.56517 15.1112 2.79208 14.46 2.14088L14.2431 2.35777ZM12.0675 0.904071C12.8811 1.24108 13.6204 1.73505 14.2431 2.35777L14.46 2.14088C13.8088 1.48968 13.0357 0.973117 12.1849 0.620689L12.0675 0.904071ZM9.50117 0.3936C10.3818 0.3936 11.2539 0.567058 12.0675 0.904071L12.1849 0.620689C11.334 0.268261 10.4221 0.0868689 9.50117 0.0868689V0.3936ZM6.93485 0.904071C7.74848 0.567058 8.62051 0.3936 9.50117 0.3936V0.0868689C8.58023 0.0868689 7.66831 0.268261 6.81747 0.620689L6.93485 0.904071ZM4.75923 2.35777C5.38195 1.73505 6.12123 1.24108 6.93485 0.904071L6.81747 0.620689C5.96663 0.973117 5.19355 1.48968 4.54234 2.14088L4.75923 2.35777ZM3.30553 4.53339C3.64255 3.71977 4.13651 2.98049 4.75923 2.35777L4.54234 2.14088C3.89114 2.79208 3.37458 3.56517 3.02215 4.41601L3.30553 4.53339ZM2.79506 7.09971C2.79506 6.21905 2.96852 5.34702 3.30553 4.53339L3.02215 4.41601C2.66972 5.26685 2.48833 6.17877 2.48833 7.09971H2.79506ZM2.79506 7.39493V7.09971H2.48833V7.39493H2.79506ZM1.57858 8.17905C1.85584 7.84605 2.24191 7.62179 2.66855 7.54592L2.61484 7.24393C2.11697 7.33246 1.66642 7.59417 1.34286 7.98279L1.57858 8.17905ZM1.1534 9.36569C1.15072 8.93237 1.30132 8.51206 1.57858 8.17905L1.34286 7.98279C1.01929 8.37141 0.843542 8.86191 0.846676 9.36759L1.1534 9.36569ZM1.59325 10.547C1.31188 10.2174 1.15609 9.799 1.1534 9.36569L0.846676 9.36759C0.84981 9.87327 1.03163 10.3616 1.35998 10.7461L1.59325 10.547ZM2.69098 11.1665C2.26345 11.096 1.87462 10.8765 1.59325 10.547L1.35998 10.7461C1.68834 11.1307 2.14209 11.3868 2.64103 11.4692L2.69098 11.1665ZM3.39082 13.1694C3.04345 12.6097 2.84657 11.9697 2.81924 11.3115L2.51277 11.3242C2.54229 12.0352 2.75497 12.7265 3.1302 13.3311L3.39082 13.1694ZM4.80191 14.5063C4.22425 14.1896 3.73819 13.7291 3.39082 13.1694L3.1302 13.3311C3.50542 13.9358 4.03048 14.4332 4.65447 14.7753L4.80191 14.5063ZM9.49468 15.4063C7.87665 15.5025 6.26033 15.1915 4.79343 14.502L4.66295 14.7796C6.17624 15.4909 7.84367 15.8117 9.51287 15.7125L9.49468 15.4063ZM14.2141 14.502C12.7472 15.1915 11.1309 15.5024 9.51287 15.4063L9.49468 15.7125C11.1639 15.8117 12.8313 15.4909 14.3446 14.7796L14.2141 14.502ZM15.6167 13.1694C15.2694 13.7291 14.7833 14.1896 14.2056 14.5063L14.3531 14.7753C14.9771 14.4332 15.5021 13.9358 15.8774 13.3311L15.6167 13.1694ZM16.1883 11.3115C16.161 11.9697 15.9641 12.6097 15.6167 13.1694L15.8774 13.3311C16.2526 12.7265 16.4653 12.0352 16.4948 11.3242L16.1883 11.3115ZM17.4116 10.5392C17.1315 10.8709 16.7434 11.0931 16.3155 11.1667L16.3675 11.469C16.8666 11.3831 17.3193 11.1239 17.646 10.7371L17.4116 10.5392ZM17.8466 9.35347C17.8457 9.7876 17.6917 10.2075 17.4116 10.5392L17.646 10.7371C17.9726 10.3502 18.1523 9.86045 18.1533 9.3541L17.8466 9.35347ZM1.83883 8.4838C1.64985 8.73449 1.54774 9.03996 1.54797 9.3539L1.8547 9.35367C1.85452 9.10643 1.93494 8.86587 2.08376 8.66844L1.83883 8.4838ZM2.59524 7.96466C2.29337 8.05086 2.02782 8.23311 1.83883 8.4838L2.08376 8.66844C2.23259 8.47102 2.44172 8.32749 2.67946 8.25961L2.59524 7.96466ZM2.79072 10.5902V8.11213H2.48399V10.5902H2.79072ZM1.84011 10.2212C2.02918 10.4707 2.29425 10.652 2.59535 10.7377L2.67936 10.4427C2.44223 10.3752 2.23348 10.2324 2.08458 10.0359L1.84011 10.2212ZM1.54711 9.35432C1.5482 9.66739 1.65103 9.97162 1.84011 10.2212L2.08458 10.0359C1.93568 9.83939 1.85469 9.5998 1.85383 9.35325L1.54711 9.35432ZM1.70134 9.20042H1.70047V9.50715H1.70134V9.20042ZM15.4089 12.7209C15.7289 12.1164 15.8682 11.4325 15.8101 10.7509L15.5045 10.7769C15.5576 11.3998 15.4303 12.0249 15.1378 12.5775L15.4089 12.7209ZM14.0055 14.1606C14.6017 13.8253 15.0889 13.3255 15.4089 12.7209L15.1378 12.5775C14.8453 13.13 14.4001 13.5868 13.8551 13.8932L14.0055 14.1606ZM9.49252 15.0083C11.0398 15.1045 12.5867 14.8152 13.9945 14.1662L13.8661 13.8876C12.5044 14.5153 11.0081 14.7952 9.51155 14.7022L9.49252 15.0083ZM5.00957 14.1662C6.41741 14.8152 7.96432 15.1045 9.51155 15.0083L9.49252 14.7022C7.99596 14.7952 6.49971 14.5153 5.13797 13.8876L5.00957 14.1662ZM3.59302 12.7223C3.91383 13.3267 4.40184 13.8261 4.99878 14.1607L5.14876 13.8931C4.60319 13.5873 4.15716 13.1309 3.86396 12.5785L3.59302 12.7223ZM3.18958 10.7519C3.13215 11.4338 3.27221 12.1178 3.59302 12.7223L3.86396 12.5785C3.57075 12.026 3.44274 11.4009 3.49523 10.7776L3.18958 10.7519ZM3.18904 7.09971V10.7648H3.49577V7.09971H3.18904ZM4.43835 3.33367C3.62862 4.42238 3.19061 5.74271 3.18904 7.09953L3.49577 7.09989C3.49726 5.80889 3.91403 4.55262 4.68447 3.51672L4.43835 3.33367ZM7.68557 1.05373C6.38657 1.44559 5.24808 2.24495 4.43835 3.33367L4.68447 3.51672C5.45492 2.48082 6.53817 1.72024 7.77416 1.34739L7.68557 1.05373ZM9.79363 1.70575C9.21206 1.22821 8.46914 0.992571 7.71865 1.04761L7.74108 1.35351C8.41305 1.30424 9.07825 1.51523 9.59898 1.9428L9.79363 1.70575ZM10.8429 3.61301C10.7509 2.86615 10.3752 2.18328 9.79363 1.70575L9.59898 1.9428C10.1197 2.37038 10.4561 2.98181 10.5385 3.65053L10.8429 3.61301ZM10.3879 4.73214C10.6798 4.44031 10.8438 4.04457 10.8441 3.63186L10.5374 3.63167C10.5372 3.9631 10.4054 4.28089 10.1711 4.51525L10.3879 4.73214ZM9.28767 5.18829C9.70038 5.18803 10.0961 5.02397 10.3879 4.73214L10.1711 4.51525C9.9367 4.7496 9.6189 4.88135 9.28748 4.88155L9.28767 5.18829ZM8.43611 4.83488C8.66191 5.06068 8.968 5.18776 9.28732 5.18829L9.28782 4.88156C9.04968 4.88116 8.8214 4.78639 8.653 4.61799L8.43611 4.83488ZM8.08271 3.98368C8.08324 4.303 8.21032 4.60909 8.43611 4.83488L8.653 4.61799C8.48461 4.4496 8.38983 4.22132 8.38944 3.98317L8.08271 3.98368ZM8.35371 3.33002C8.18045 3.50329 8.08298 3.73821 8.08271 3.98325L8.38944 3.9836C8.38962 3.81979 8.45478 3.66274 8.57061 3.54691L8.35371 3.33002ZM9.00694 3.05902C8.7619 3.05929 8.52698 3.15676 8.35371 3.33002L8.57061 3.54691C8.68643 3.43109 8.84348 3.36593 9.00729 3.36575L9.00694 3.05902ZM9.14702 3.00107C9.10992 3.03817 9.05959 3.05902 9.00711 3.05902V3.36575C9.14094 3.36575 9.26928 3.31259 9.36391 3.21796L9.14702 3.00107ZM9.20497 2.86116C9.20497 2.91364 9.18413 2.96396 9.14702 3.00107L9.36391 3.21796C9.45854 3.12333 9.5117 2.99499 9.5117 2.86116H9.20497ZM9.14702 2.72126C9.18413 2.75836 9.20497 2.80869 9.20497 2.86116H9.5117C9.5117 2.72734 9.45854 2.59899 9.36391 2.50436L9.14702 2.72126ZM9.00711 2.6633C9.05959 2.6633 9.10991 2.68415 9.14702 2.72126L9.36391 2.50436C9.26928 2.40974 9.14094 2.35657 9.00711 2.35657V2.6633ZM8.07181 3.05072C8.31987 2.80266 8.65631 2.6633 9.00711 2.6633V2.35657C8.57496 2.35657 8.1605 2.52825 7.85492 2.83383L8.07181 3.05072ZM7.68439 3.98603C7.68439 3.63522 7.82375 3.29878 8.07181 3.05072L7.85492 2.83383C7.54933 3.13941 7.37766 3.55387 7.37766 3.98603H7.68439ZM8.15395 5.11791C7.85368 4.81765 7.68481 4.41052 7.68439 3.98588L7.37766 3.98618C7.37816 4.49207 7.57934 4.97709 7.93706 5.3348L8.15395 5.11791ZM9.28599 5.58747C8.86134 5.58705 8.45422 5.41818 8.15395 5.11791L7.93706 5.3348C8.29477 5.69252 8.7798 5.8937 9.28568 5.8942L9.28599 5.58747ZM10.6655 5.01492C10.2995 5.38093 9.80326 5.58683 9.28564 5.58747L9.28602 5.8942C9.88486 5.89346 10.459 5.65525 10.8824 5.23181L10.6655 5.01492ZM11.2381 3.63505C11.2374 4.15267 11.0315 4.6489 10.6655 5.01492L10.8824 5.23181C11.3058 4.80836 11.5441 4.23427 11.5448 3.63543L11.2381 3.63505ZM10.9724 2.55227C11.1321 2.89427 11.2224 3.26453 11.2382 3.64165L11.5447 3.62883C11.5272 3.21123 11.4272 2.80122 11.2503 2.4225L10.9724 2.55227ZM10.3078 1.64909C10.5869 1.90329 10.8127 2.21026 10.9724 2.55227L11.2503 2.4225C11.0735 2.04378 10.8234 1.70385 10.5144 1.42235L10.3078 1.64909ZM9.51113 1.08438C9.80141 1.23309 10.0689 1.42255 10.3056 1.647L10.5167 1.42444C10.2588 1.17987 9.96729 0.973433 9.65098 0.811391L9.51113 1.08438ZM13.9906 2.67342C12.8251 1.49277 11.2421 0.817903 9.58321 0.794538L9.57889 1.10124C11.1572 1.12347 12.6634 1.76558 13.7723 2.8889L13.9906 2.67342ZM15.8124 7.10474C15.8105 5.44574 15.1561 3.85406 13.9906 2.67342L13.7723 2.8889C14.8813 4.01223 15.5039 5.52664 15.5057 7.1051L15.8124 7.10474ZM15.8107 10.764L15.8124 7.10499L15.5057 7.10485L15.504 10.7638L15.8107 10.764ZM16.2064 8.11213V10.5902H16.5131V8.11213H16.2064ZM17.1586 8.48189C16.9693 8.23162 16.7035 8.04998 16.4015 7.96456L16.318 8.25971C16.5557 8.32694 16.7649 8.46992 16.9139 8.66692L17.1586 8.48189ZM17.4503 9.35118C17.4503 9.03738 17.3479 8.73216 17.1586 8.48189L16.9139 8.66692C17.0629 8.86392 17.1436 9.10418 17.1436 9.35118H17.4503ZM17.1586 10.2205C17.3479 9.9702 17.4503 9.66498 17.4503 9.35118H17.1436C17.1436 9.59818 17.0629 9.83844 16.9139 10.0354L17.1586 10.2205ZM16.4015 10.7378C16.7035 10.6524 16.9693 10.4707 17.1586 10.2205L16.9139 10.0354C16.7649 10.2324 16.5557 10.3754 16.318 10.4427L16.4015 10.7378ZM5.95591 9.03003C6.41322 9.03003 6.78394 8.65931 6.78394 8.202H6.4772C6.4772 8.48991 6.24381 8.7233 5.95591 8.7233V9.03003ZM5.12788 8.202C5.12788 8.65931 5.4986 9.03003 5.95591 9.03003V8.7233C5.66801 8.7233 5.43462 8.48991 5.43462 8.202H5.12788ZM5.95591 7.37398C5.4986 7.37398 5.12788 7.7447 5.12788 8.202H5.43462C5.43462 7.9141 5.66801 7.68071 5.95591 7.68071V7.37398ZM6.78394 8.202C6.78394 7.7447 6.41322 7.37398 5.95591 7.37398V7.68071C6.24381 7.68071 6.4772 7.9141 6.4772 8.202H6.78394ZM13.0418 9.03003C13.4992 9.03003 13.8699 8.65931 13.8699 8.202H13.5631C13.5631 8.48991 13.3298 8.7233 13.0418 8.7233V9.03003ZM12.2138 8.202C12.2138 8.65931 12.5845 9.03003 13.0418 9.03003V8.7233C12.7539 8.7233 12.5206 8.48991 12.5206 8.202H12.2138ZM13.0418 7.37398C12.5845 7.37398 12.2138 7.7447 12.2138 8.202H12.5206C12.5206 7.9141 12.7539 7.68071 13.0418 7.68071V7.37398ZM13.8699 8.202C13.8699 7.7447 13.4992 7.37398 13.0418 7.37398V7.68071C13.3298 7.68071 13.5631 7.9141 13.5631 8.202H13.8699ZM10.7489 11.2199C10.4169 11.5513 9.96696 11.7374 9.49789 11.7374V12.0441C10.0482 12.0441 10.5761 11.8258 10.9655 11.437L10.7489 11.2199ZM11.1055 11.0722C10.9717 11.0722 10.8434 11.1254 10.7488 11.22L10.9656 11.4369C11.0028 11.3998 11.0531 11.379 11.1055 11.379V11.0722ZM11.4623 11.22C11.3677 11.1254 11.2394 11.0722 11.1055 11.0722V11.379C11.158 11.379 11.2083 11.3998 11.2454 11.4369L11.4623 11.22ZM11.6101 11.5768C11.6101 11.443 11.5569 11.3146 11.4623 11.22L11.2454 11.4369C11.2825 11.474 11.3034 11.5243 11.3034 11.5768H11.6101ZM11.4623 11.9335C11.5569 11.8389 11.6101 11.7106 11.6101 11.5768H11.3034C11.3034 11.6292 11.2825 11.6796 11.2454 11.7167L11.4623 11.9335ZM9.49789 12.7458C10.2343 12.7458 10.9407 12.4537 11.4622 11.9337L11.2456 11.7165C10.7816 12.1792 10.1531 12.439 9.49789 12.439V12.7458ZM7.53363 11.9337C8.05508 12.4537 8.76146 12.7458 9.49789 12.7458V12.439C8.84266 12.439 8.21417 12.1792 7.75023 11.7165L7.53363 11.9337ZM7.3857 11.5768C7.3857 11.7106 7.43886 11.8389 7.53348 11.9335L7.75037 11.7167C7.71327 11.6796 7.69243 11.6292 7.69243 11.5768H7.3857ZM7.53348 11.22C7.43886 11.3146 7.3857 11.443 7.3857 11.5768H7.69243C7.69243 11.5243 7.71327 11.474 7.75037 11.4369L7.53348 11.22ZM7.89025 11.0722C7.75643 11.0722 7.6281 11.1254 7.53348 11.22L7.75037 11.4369C7.78748 11.3998 7.83779 11.379 7.89025 11.379V11.0722ZM8.24704 11.22C8.15242 11.1254 8.02407 11.0722 7.89025 11.0722V11.379C7.94272 11.379 7.99305 11.3998 8.03015 11.4369L8.24704 11.22ZM9.49789 11.7374C9.02882 11.7374 8.57893 11.5513 8.24694 11.2199L8.03025 11.437C8.41974 11.8258 8.94757 12.0441 9.49789 12.0441V11.7374Z" fill="black"/>
</svg>
