<svg width="16" height="15" viewBox="0 0 16 15" fill="none" xmlns="http://www.w3.org/2000/svg">
<path d="M15.2873 14.1515H13.0795L13.352 11.8877C13.6089 11.8783 13.8522 11.7715 14.031 11.5896C14.2097 11.4077 14.31 11.1648 14.3108 10.9118V10.083C14.3091 9.45953 14.0567 8.86207 13.6088 8.42121C13.1608 7.98034 12.5537 7.73194 11.9201 7.73028H8.83187C8.47745 7.72922 8.1273 7.80636 7.80718 7.95606C7.48706 8.10575 7.20512 8.32417 6.9821 8.59525L4.08561 1.33968L4.07202 1.30429C3.86339 0.792713 3.4568 0.383663 2.9417 0.167106C2.4266 -0.0494497 1.84518 -0.0557656 1.32535 0.149552C0.805514 0.354871 0.389862 0.755 0.16981 1.26192C-0.0502415 1.76884 -0.0566716 2.34103 0.151961 2.8526L3.22905 10.5682C3.34495 10.8582 3.52582 11.1188 3.75824 11.3305C3.99066 11.5422 4.26863 11.6996 4.57142 11.7909L4.87506 14.15H1.91862C1.72987 14.1502 1.54892 14.224 1.41545 14.3554C1.28198 14.4867 1.2069 14.6648 1.20669 14.8506V15H16V14.8506C15.9992 14.665 15.9237 14.4874 15.7902 14.3564C15.6566 14.2254 15.4758 14.1517 15.2873 14.1515ZM6.89741 11.0353C7.12147 10.7336 7.25942 10.3785 7.29693 10.0067C7.30635 9.98116 7.31355 9.95486 7.31849 9.9281C7.35544 9.5584 7.53103 9.21551 7.81098 8.96632C8.09094 8.71712 8.45519 8.5795 8.83267 8.58031H11.9161C12.3213 8.58114 12.7096 8.7399 12.996 9.02182C13.2825 9.30375 13.4438 9.68587 13.4447 10.0846V10.9126C13.4443 10.9454 13.4308 10.9768 13.4072 11C13.3837 11.0232 13.3518 11.0364 13.3184 11.0368L6.89741 11.0353ZM6.33808 10.3008C6.23948 10.5236 6.07595 10.7126 5.86819 10.8438C5.66043 10.9751 5.41777 11.0428 5.17091 11.0384C4.92406 11.0339 4.68411 10.9575 4.48139 10.8188C4.27867 10.6801 4.12231 10.4853 4.03208 10.2591L0.950994 2.54278C0.887566 2.39193 0.855308 2.23015 0.856114 2.0669C0.856919 1.90364 0.890787 1.74218 0.9557 1.59194C1.02061 1.4417 1.11528 1.30569 1.2342 1.19186C1.35311 1.07803 1.49387 0.98865 1.64827 0.928947C1.80267 0.869243 1.96763 0.840407 2.13347 0.844128C2.29932 0.84785 2.46274 0.884049 2.61422 0.950616C2.76569 1.01718 2.90219 1.11279 3.01571 1.23184C3.12923 1.35089 3.21749 1.491 3.27538 1.64399L6.35566 9.36036C6.41659 9.51024 6.44675 9.67052 6.44442 9.83193C6.44209 9.99335 6.40731 10.1527 6.34208 10.3008H6.33808ZM12.4315 11.8884L12.1598 14.1515H5.78516L5.51347 11.8884H12.4315Z" fill="white"/>
</svg>
