<svg width="20" height="21" viewBox="0 0 20 21" fill="none" xmlns="http://www.w3.org/2000/svg">
<path d="M6.14435 7.13993C6.22308 7.05435 6.26666 6.94222 6.26636 6.82593C6.26642 6.70704 6.22181 6.59249 6.14136 6.50495L2.59335 2.95792C2.55028 2.91429 2.49898 2.87967 2.44241 2.85602C2.38585 2.83238 2.32516 2.8202 2.26385 2.8202C2.20255 2.8202 2.14186 2.83238 2.0853 2.85602C2.02873 2.87967 1.97743 2.91429 1.93436 2.95792C1.84987 3.04662 1.80273 3.16443 1.80273 3.28693C1.80273 3.40943 1.84987 3.52724 1.93436 3.61594L5.48535 7.16694C5.5764 7.25059 5.6969 7.29471 5.82043 7.28965C5.94397 7.28459 6.06045 7.23075 6.14435 7.13993Z" fill="black"/>
<path d="M7.09329 6.17649C7.17203 6.09091 7.21559 5.97878 7.21529 5.86249C7.21535 5.7436 7.17074 5.62902 7.09029 5.54148L3.54228 1.99348C3.49888 1.9502 3.44739 1.91592 3.39073 1.89255C3.33408 1.86919 3.27337 1.85718 3.21208 1.85728C3.1508 1.85737 3.09013 1.86953 3.03354 1.89307C2.97695 1.91661 2.92556 1.95108 2.88229 1.99448C2.83902 2.03788 2.80472 2.08938 2.78136 2.14603C2.75799 2.20269 2.746 2.2634 2.74609 2.32468C2.74619 2.38597 2.75835 2.44665 2.78189 2.50324C2.80543 2.55983 2.83988 2.61122 2.88329 2.65449L6.4343 6.20447C6.52547 6.288 6.64604 6.33198 6.76958 6.32673C6.89312 6.32148 7.00953 6.26745 7.09329 6.17649Z" fill="black"/>
<path d="M9.05001 5.3414L4.642 0.933411C4.55409 0.84642 4.43521 0.797928 4.31153 0.798584C4.18785 0.79924 4.0695 0.849001 3.9825 0.93692C3.89551 1.02484 3.84701 1.14371 3.84766 1.2674C3.84832 1.39108 3.89808 1.50941 3.986 1.59641L8.38601 5.9964C8.63221 6.24443 8.79598 6.56234 8.85503 6.9068C8.91408 7.25126 8.86554 7.60554 8.71601 7.92142C8.67154 8.01264 8.65841 8.11598 8.67866 8.21542C8.69891 8.31487 8.75141 8.40484 8.82801 8.47141L17.816 16.4484C17.836 16.4654 17.854 16.4814 17.873 16.5004C17.9656 16.5884 18.0398 16.6939 18.0913 16.8108C18.1428 16.9277 18.1706 17.0537 18.173 17.1814V17.2004C18.1732 17.391 18.1173 17.5775 18.0122 17.7366C17.9072 17.8956 17.7576 18.0203 17.5822 18.0949C17.4068 18.1696 17.2133 18.1909 17.0258 18.1563C16.8384 18.1217 16.6652 18.0327 16.528 17.9004L16.502 17.8734C16.484 17.8554 16.465 17.8344 16.44 17.8054L12.85 13.7614C12.8093 13.7155 12.76 13.678 12.7049 13.6512C12.6497 13.6244 12.5898 13.6087 12.5286 13.6051C12.4674 13.6015 12.406 13.61 12.3481 13.6301C12.2902 13.6502 12.2368 13.6816 12.191 13.7224C12.1453 13.7631 12.108 13.8123 12.0814 13.8674C12.0548 13.9225 12.0394 13.9823 12.036 14.0434C12.0297 14.1667 12.0717 14.2875 12.153 14.3804L15.738 18.4214C15.774 18.4614 15.807 18.4994 15.838 18.5344C16.1951 18.8914 16.6794 19.0919 17.1844 19.0918C17.6893 19.0917 18.1735 18.891 18.5305 18.5339C18.8875 18.1768 19.088 17.6925 19.0879 17.1876C19.0878 16.6826 18.8871 16.1984 18.53 15.8414C18.494 15.8064 18.458 15.7734 18.418 15.7414L12.969 10.9054L18.419 6.07141C18.459 6.03741 18.496 6.00241 18.533 5.97141C18.89 5.61429 19.0905 5.13 19.0904 4.62506C19.0903 4.12012 18.8896 3.63588 18.5325 3.2789C18.1754 2.92192 17.6911 2.72143 17.1861 2.72153C16.6812 2.72162 16.197 2.9223 15.84 3.27942C15.804 3.31542 15.771 3.35142 15.74 3.39142L10.788 8.9704L9.68801 7.99741C9.83374 7.53858 9.85133 7.04867 9.73888 6.58057C9.62644 6.11247 9.38824 5.68397 9.05001 5.3414ZM17.187 3.63641C17.3786 3.63328 17.5669 3.68688 17.7282 3.79047C17.8895 3.89405 18.0165 4.043 18.0934 4.2186C18.1702 4.39419 18.1934 4.58859 18.1601 4.77734C18.1267 4.96609 18.0383 5.14077 17.906 5.27942L17.879 5.3064C17.86 5.3254 17.839 5.34442 17.81 5.37042L12.271 10.2824L11.483 9.5824L16.442 4.0004L16.449 3.99341C16.4669 3.97176 16.4859 3.95106 16.506 3.9314C16.5944 3.83967 16.7001 3.76639 16.817 3.71576C16.9339 3.66512 17.0596 3.63815 17.187 3.63641Z" fill="black"/>
<path d="M9.75681 13.7656L11.1388 12.5376C11.2309 12.4556 11.2867 12.3404 11.2942 12.2174C11.3017 12.0943 11.2602 11.9732 11.1788 11.8806L8.47879 8.83464C8.41186 8.75858 8.32198 8.70638 8.22273 8.68599C8.12349 8.6656 8.0203 8.67812 7.9288 8.72164C7.61283 8.87104 7.25848 8.91942 6.91402 8.86019C6.56955 8.80096 6.25172 8.63701 6.0038 8.39064L1.5988 3.99062C1.51128 3.90463 1.39349 3.85646 1.2708 3.85646C1.1481 3.85646 1.03031 3.90463 0.942795 3.99062C0.855593 4.07831 0.806641 4.19697 0.806641 4.32063C0.806641 4.4443 0.855593 4.56293 0.942795 4.65062L5.3428 9.05065C5.68406 9.38902 6.11121 9.62783 6.5782 9.74132C7.04519 9.85481 7.5343 9.83865 7.9928 9.69463L9.0688 10.9076L8.0488 12.0576C7.3836 11.7394 6.6359 11.6357 5.90923 11.7612C5.18255 11.8866 4.51283 12.2348 3.9928 12.7576C2.98433 13.7199 2.24785 14.9314 1.8578 16.2696C1.64289 16.7849 1.58581 17.3523 1.69379 17.9001C1.80177 18.4478 2.06994 18.9511 2.46432 19.3463C2.85871 19.7414 3.36153 20.0105 3.90906 20.1196C4.45658 20.2286 5.02414 20.1726 5.53979 19.9586C6.87808 19.5693 8.08968 18.8331 9.0518 17.8246C9.57648 17.3052 9.9263 16.6352 10.0526 15.9077C10.179 15.1803 10.0756 14.4316 9.75681 13.7656ZM7.90981 13.0416C8.0033 13.0994 8.11417 13.1222 8.22285 13.1061C8.33154 13.09 8.43105 13.036 8.5038 12.9536L9.69479 11.6106L10.1718 12.1506L8.8588 13.3136C8.80924 13.3575 8.7696 13.4113 8.74252 13.4717C8.71545 13.5321 8.70157 13.5975 8.7018 13.6636C8.70193 13.7501 8.7258 13.8348 8.7708 13.9086C9.08697 14.4146 9.22131 15.0133 9.15169 15.6059C9.08207 16.1985 8.81264 16.7497 8.3878 17.1686C7.5407 18.0605 6.47353 18.7134 5.29379 19.0616C4.93752 19.2356 4.53576 19.2937 4.14479 19.2279C3.75382 19.1621 3.39324 18.9756 3.11356 18.6946C2.83387 18.4136 2.6491 18.0521 2.58513 17.6608C2.52115 17.2696 2.58119 16.8681 2.75681 16.5126C3.10491 15.3345 3.75751 14.269 4.6488 13.4236C5.06811 12.9986 5.61972 12.7292 6.21271 12.6597C6.80569 12.5903 7.40464 12.725 7.9108 13.0416H7.90981Z" fill="black"/>
</svg>
