<svg width="9" height="15" viewBox="0 0 9 15" fill="none" xmlns="http://www.w3.org/2000/svg">
<path d="M7.49092 2.99673H6.36764V0.74945H6.74182C6.79239 0.75166 6.84288 0.74361 6.89024 0.725784C6.93761 0.707958 6.98088 0.680725 7.01744 0.645728C7.05401 0.61073 7.0831 0.568692 7.10298 0.522148C7.12286 0.475603 7.13311 0.425515 7.13311 0.374904C7.13311 0.324292 7.12286 0.274205 7.10298 0.22766C7.0831 0.181115 7.05401 0.139077 7.01744 0.10408C6.98088 0.069082 6.93761 0.0418496 6.89024 0.0240236C6.84288 0.00619767 6.79239 -0.0018527 6.74182 0.000357751H2.24727C2.19671 -0.0018527 2.14622 0.00619767 2.09886 0.0240236C2.05149 0.0418496 2.00822 0.069082 1.97166 0.10408C1.93509 0.139077 1.906 0.181115 1.88613 0.22766C1.86625 0.274205 1.856 0.324292 1.856 0.374904C1.856 0.425515 1.86625 0.475603 1.88613 0.522148C1.906 0.568692 1.93509 0.61073 1.97166 0.645728C2.00822 0.680725 2.05149 0.707958 2.09886 0.725784C2.14622 0.74361 2.19671 0.75166 2.24727 0.74945H2.62218V2.99673H1.49819C1.10084 2.99673 0.719773 3.15457 0.438809 3.43553C0.157845 3.7165 0 4.09757 0 4.49491V12.7356C0 13.133 0.157845 13.514 0.438809 13.795C0.719773 14.076 1.10084 14.2338 1.49819 14.2338V14.6087C1.49597 14.6593 1.50402 14.7098 1.52185 14.7571C1.53967 14.8045 1.56691 14.8478 1.6019 14.8843C1.6369 14.9209 1.67894 14.95 1.72549 14.9699C1.77203 14.9898 1.82212 15 1.87273 15C1.92334 15 1.97343 14.9898 2.01997 14.9699C2.06652 14.95 2.10855 14.9209 2.14355 14.8843C2.17855 14.8478 2.20578 14.8045 2.22361 14.7571C2.24143 14.7098 2.24949 14.6593 2.24727 14.6087V14.2338H6.74182V14.6087C6.73961 14.6593 6.74767 14.7098 6.76549 14.7571C6.78332 14.8045 6.81055 14.8478 6.84555 14.8843C6.88055 14.9209 6.92259 14.95 6.96913 14.9699C7.01568 14.9898 7.06576 15 7.11637 15C7.16698 15 7.21707 14.9898 7.26361 14.9699C7.31016 14.95 7.3522 14.9209 7.3872 14.8843C7.42219 14.8478 7.44943 14.8045 7.46725 14.7571C7.48508 14.7098 7.49313 14.6593 7.49092 14.6087V14.2338C7.88826 14.2338 8.26933 14.076 8.5503 13.795C8.83126 13.514 8.9891 13.133 8.9891 12.7356V4.49491C8.9891 4.09757 8.83126 3.7165 8.5503 3.43553C8.26933 3.15457 7.88826 2.99673 7.49092 2.99673ZM3.37055 0.74945H5.61783V2.99673H3.37055V0.74945ZM5.99273 13.4847H2.99636V11.2375C2.99655 11.0388 3.07554 10.8484 3.21598 10.708C3.35642 10.5675 3.54685 10.4885 3.74546 10.4884H5.24364C5.44225 10.4885 5.63268 10.5675 5.77312 10.708C5.91356 10.8484 5.99255 11.0388 5.99273 11.2375V13.4847ZM8.24001 12.7356C8.23982 12.9342 8.16084 13.1247 8.0204 13.2651C7.87995 13.4056 7.68953 13.4845 7.49092 13.4847H6.74182V11.2375C6.74182 10.8401 6.58398 10.459 6.30302 10.1781C6.02205 9.89711 5.64098 9.73927 5.24364 9.73927H3.74546C3.34812 9.73927 2.96705 9.89711 2.68608 10.1781C2.40512 10.459 2.24727 10.8401 2.24727 11.2375V13.4847H1.49819C1.29957 13.4845 1.10915 13.4056 0.968704 13.2651C0.828263 13.1247 0.749279 12.9342 0.74909 12.7356V4.49491C0.749279 4.2963 0.828263 4.10587 0.968704 3.96543C1.10915 3.82499 1.29957 3.74601 1.49819 3.74582H7.49092C7.68953 3.74601 7.87995 3.82499 8.0204 3.96543C8.16084 4.10587 8.23982 4.2963 8.24001 4.49491V12.7356Z" fill="#666666"/>
</svg>
