<svg width="20" height="23" viewBox="0 0 20 23" fill="none" xmlns="http://www.w3.org/2000/svg">
<path d="M5.19447 18.9517C5.19526 18.4606 5.05036 17.9804 4.77812 17.5717C4.50588 17.163 4.11852 16.8442 3.66506 16.6558C3.21161 16.4673 2.71243 16.4176 2.23071 16.5129C1.74899 16.6082 1.30636 16.8443 0.958848 17.1912C0.611333 17.5382 0.374547 17.9804 0.278454 18.462C0.182361 18.9436 0.231279 19.4428 0.419017 19.8966C0.606756 20.3503 0.924878 20.7382 1.33313 21.0111C1.74138 21.284 2.2214 21.4297 2.71247 21.4297C3.3698 21.4289 4.00004 21.1677 4.46522 20.7033C4.9304 20.2388 5.19262 19.609 5.19447 18.9517ZM1.65247 18.9517C1.65247 18.7423 1.71455 18.5376 1.83087 18.3634C1.94719 18.1893 2.11253 18.0536 2.30597 17.9734C2.49942 17.8932 2.7123 17.8722 2.9177 17.913C3.1231 17.9537 3.3118 18.0545 3.45994 18.2025C3.60808 18.3505 3.70902 18.5391 3.75 18.7445C3.79097 18.9498 3.77014 19.1627 3.69014 19.3563C3.61014 19.5498 3.47456 19.7152 3.30054 19.8317C3.12652 19.9482 2.92187 20.0105 2.71247 20.0107C2.43176 20.0102 2.16271 19.8984 1.96422 19.6999C1.76574 19.5014 1.654 19.2324 1.65347 18.9517H1.65247Z" fill="#333333"/>
<path d="M6.05664 18.0456V19.8456C6.05823 20.4881 6.31446 21.1039 6.7692 21.5578C7.22393 22.0118 7.84007 22.267 8.48264 22.2676H12.0526C12.4177 22.2685 12.7782 22.1868 13.1072 22.0287C13.4362 21.8706 13.7253 21.6401 13.9526 21.3546H18.9786C19.1673 21.3546 19.3483 21.2796 19.4817 21.1462C19.6152 21.0127 19.6901 20.8318 19.6901 20.6431C19.6901 20.4544 19.6152 20.2734 19.4817 20.14C19.3483 20.0065 19.1673 19.9316 18.9786 19.9316H13.5666C13.4372 19.9312 13.3101 19.9663 13.199 20.0329C13.088 20.0995 12.9973 20.1952 12.9366 20.3096C12.8519 20.4714 12.7244 20.6069 12.568 20.7014C12.4116 20.7959 12.2323 20.8458 12.0496 20.8456H8.47964C8.21442 20.8456 7.96007 20.7402 7.77253 20.5527C7.58499 20.3651 7.47964 20.1108 7.47964 19.8456V18.0456C7.47964 17.7804 7.58499 17.526 7.77253 17.3385C7.96007 17.1509 8.21442 17.0456 8.47964 17.0456H12.0496C12.2321 17.0452 12.4113 17.0947 12.5676 17.1888C12.724 17.283 12.8516 17.4181 12.9366 17.5796C12.9973 17.6935 13.0877 17.7887 13.1984 17.8552C13.309 17.9216 13.4356 17.9566 13.5646 17.9566H18.9706C19.1593 17.9566 19.3403 17.8816 19.4737 17.7482C19.6072 17.6147 19.6821 17.4338 19.6821 17.2451C19.6821 17.0564 19.6072 16.8754 19.4737 16.742C19.3403 16.6085 19.1593 16.5336 18.9706 16.5336H13.9466C13.7192 16.248 13.4302 16.0176 13.1012 15.8595C12.7722 15.7014 12.4117 15.6197 12.0466 15.6206H8.47664C7.8346 15.6227 7.21953 15.879 6.76601 16.3335C6.31248 16.7879 6.05743 17.4035 6.05664 18.0456Z" fill="#333333"/>
<path d="M5.19642 4.84808C5.19642 4.35719 5.05086 3.87732 4.77813 3.46916C4.50541 3.061 4.11777 2.74286 3.66424 2.55501C3.21072 2.36715 2.71167 2.318 2.23021 2.41377C1.74875 2.50954 1.3065 2.74593 0.959384 3.09305C0.61227 3.44016 0.375882 3.88242 0.280114 4.36388C0.184345 4.84534 0.233497 5.34437 0.421354 5.7979C0.609211 6.25142 0.927335 6.63906 1.3355 6.91179C1.74366 7.18451 2.22353 7.33008 2.71442 7.33008C3.37245 7.32928 4.00329 7.06754 4.46858 6.60225C4.93388 6.13696 5.19563 5.50611 5.19642 4.84808ZM1.65442 4.84808C1.65422 4.63839 1.71622 4.43336 1.83258 4.25891C1.94893 4.08446 2.11441 3.94844 2.30809 3.86806C2.50176 3.78767 2.71492 3.76654 2.9206 3.80733C3.12629 3.84811 3.31526 3.94899 3.4636 4.0972C3.61195 4.2454 3.713 4.43428 3.75398 4.63992C3.79496 4.84557 3.77403 5.05875 3.69383 5.2525C3.61363 5.44625 3.47777 5.61186 3.30343 5.72838C3.12909 5.8449 2.92411 5.90709 2.71442 5.90709C2.43355 5.90682 2.16424 5.79519 1.96553 5.59668C1.76683 5.39816 1.65495 5.12896 1.65442 4.84808Z" fill="#333333"/>
<path d="M13.2491 0.671432L9.71514 2.43843H8.46714C7.82784 2.43843 7.21472 2.6924 6.76266 3.14445C6.31061 3.59651 6.05664 4.20963 6.05664 4.84894C6.05664 5.48824 6.31061 6.10136 6.76266 6.55342C7.21472 7.00548 7.82784 7.25943 8.46714 7.25943H9.71514L13.2491 9.02844C13.3576 9.08265 13.478 9.10824 13.5991 9.1028C13.7202 9.09735 13.8379 9.06104 13.941 8.99731C14.0441 8.93359 14.1292 8.84457 14.1882 8.73871C14.2472 8.63284 14.2782 8.51364 14.2781 8.39244V6.98544L18.9721 6.98544C19.1608 6.98544 19.3418 6.91047 19.4753 6.77704C19.6087 6.6436 19.6836 6.46264 19.6836 6.27394C19.6836 6.08524 19.6087 5.90426 19.4753 5.77083C19.3418 5.63739 19.1608 5.56244 18.9721 5.56244L13.5671 5.56244C13.4738 5.56244 13.3813 5.58083 13.2951 5.61656C13.2088 5.65229 13.1304 5.70467 13.0644 5.77069C12.9984 5.83671 12.946 5.91508 12.9103 6.00134C12.8745 6.0876 12.8561 6.18007 12.8561 6.27344V7.24043L10.2011 5.91344C10.1024 5.86412 9.99352 5.83845 9.88314 5.83844H8.46714C8.21068 5.83028 7.96745 5.72266 7.78893 5.53836C7.6104 5.35406 7.51057 5.10753 7.51057 4.85094C7.51057 4.59434 7.6104 4.34781 7.78893 4.16351C7.96745 3.97921 8.21068 3.87159 8.46714 3.86343H9.88314C9.99353 3.86346 10.1024 3.83778 10.2011 3.78844L12.8561 2.46144V3.41443C12.8561 3.5078 12.8745 3.60026 12.9103 3.68652C12.946 3.77278 12.9984 3.85117 13.0644 3.91719C13.1304 3.98321 13.2088 4.03559 13.2951 4.07132C13.3813 4.10705 13.4738 4.12544 13.5671 4.12544H18.9731C19.1618 4.12544 19.3428 4.05047 19.4762 3.91704C19.6097 3.7836 19.6846 3.60264 19.6846 3.41394C19.6846 3.22524 19.6097 3.04426 19.4762 2.91083C19.3428 2.77739 19.1618 2.70244 18.9731 2.70244H14.2791V1.30943C14.2792 1.18823 14.2482 1.06903 14.1892 0.963164C14.1302 0.857298 14.0451 0.768282 13.942 0.704558C13.8389 0.640835 13.7212 0.604521 13.6001 0.599074C13.479 0.593628 13.3586 0.619221 13.2501 0.67343L13.2491 0.671432Z" fill="#333333"/>
<path d="M0.230469 12.1718C0.230469 12.2652 0.248859 12.3576 0.28459 12.4439C0.320322 12.5302 0.372693 12.6085 0.438716 12.6746C0.504738 12.7406 0.583118 12.793 0.669381 12.8287C0.755643 12.8644 0.848099 12.8828 0.941469 12.8828L18.9725 12.8828C19.1612 12.8828 19.3421 12.8078 19.4756 12.6744C19.609 12.541 19.684 12.36 19.684 12.1713C19.684 11.9826 19.609 11.8016 19.4756 11.6682C19.3421 11.5348 19.1612 11.4598 18.9725 11.4598L0.938469 11.4598C0.750247 11.4606 0.57002 11.536 0.437301 11.6695C0.304583 11.8029 0.230203 11.9836 0.230469 12.1718Z" fill="#333333"/>
</svg>
