<svg width="40" height="40" viewBox="0 0 40 40" fill="none" xmlns="http://www.w3.org/2000/svg">
<path fill-rule="evenodd" clip-rule="evenodd" d="M39.1838 34.497H15.5558C15.4313 33.4398 14.9624 32.4529 14.2215 31.6886C13.4805 30.9243 12.5086 30.4251 11.4558 30.268V4.683C11.4544 3.44261 10.9616 2.25329 10.0852 1.37555C9.20872 0.497802 8.02014 0.00317437 6.77976 0H1.56676C1.40912 0.00638132 1.26006 0.0734925 1.15078 0.187285C1.0415 0.301078 0.980469 0.452732 0.980469 0.6105C0.980469 0.768269 1.0415 0.919922 1.15078 1.03371C1.26006 1.14751 1.40912 1.21462 1.56676 1.221H6.77976C7.69761 1.22206 8.57757 1.58714 9.22659 2.23617C9.87561 2.88519 10.2407 3.76515 10.2418 4.683V30.247C9.33954 30.342 8.48219 30.6887 7.76754 31.2475C7.05289 31.8063 6.50972 32.5548 6.20003 33.4075C5.89033 34.2602 5.82657 35.1828 6.01603 36.07C6.2055 36.9572 6.64054 37.7733 7.27153 38.4251C7.90252 39.0769 8.70403 39.5382 9.58461 39.7564C10.4652 39.9746 11.3894 39.9408 12.2517 39.659C13.114 39.3771 13.8797 38.8586 14.4614 38.1624C15.0432 37.4663 15.4175 36.6207 15.5418 35.722H39.1838C39.266 35.7253 39.3481 35.712 39.4251 35.6828C39.502 35.6536 39.5723 35.6092 39.6317 35.5522C39.6911 35.4952 39.7383 35.4267 39.7706 35.351C39.8028 35.2753 39.8195 35.1938 39.8195 35.1115C39.8195 35.0292 39.8028 34.9477 39.7706 34.872C39.7383 34.7963 39.6911 34.7278 39.6317 34.6708C39.5723 34.6138 39.502 34.5694 39.4251 34.5402C39.3481 34.511 39.266 34.4977 39.1838 34.501V34.497ZM10.7558 38.673C10.0402 38.673 9.34068 38.4608 8.7457 38.0633C8.15073 37.6657 7.687 37.1007 7.41316 36.4395C7.13932 35.7784 7.06767 35.051 7.20727 34.3492C7.34688 33.6473 7.69146 33.0027 8.19744 32.4967C8.70343 31.9907 9.34809 31.6461 10.0499 31.5065C10.7517 31.3669 11.4792 31.4386 12.1403 31.7124C12.8014 31.9862 13.3665 32.45 13.764 33.0449C14.1616 33.6399 14.3738 34.3394 14.3738 35.055C14.3738 36.0146 13.9926 36.9348 13.3141 37.6133C12.6356 38.2918 11.7153 38.673 10.7558 38.673ZM16.9531 21.0801C16.9531 20.5278 17.4008 20.0801 17.9531 20.0801H26.9531C27.1353 20.0801 27.306 20.1288 27.4531 20.2139C27.6002 20.1288 27.771 20.0801 27.9531 20.0801H36.9531C37.5054 20.0801 37.9531 20.5278 37.9531 21.0801V28.0801C37.9531 28.6324 37.5054 29.0801 36.9531 29.0801H27.9531C27.771 29.0801 27.6002 29.0314 27.4531 28.9463C27.306 29.0314 27.1353 29.0801 26.9531 29.0801H17.9531C17.4008 29.0801 16.9531 28.6324 16.9531 28.0801V21.0801ZM27.9531 21.0801V28.0801H36.9531V21.0801H27.9531ZM26.9531 21.0801H17.9531V28.0801H26.9531V21.0801Z" fill="#707070"/>
</svg>
