<svg width="30" height="41" viewBox="0 0 30 41" fill="none" xmlns="http://www.w3.org/2000/svg">
<path d="M2.78303 0.101181C1.22453 0.490803 0.119273 1.92208 0.119273 3.55214C0.119273 3.97356 0.381672 4.99931 3.66565 17.2526L5.84436 25.4188L5.72509 25.7527C5.40703 26.6592 5.66943 27.7406 6.39301 28.4642C7.06094 29.1242 7.45851 29.2514 8.90569 29.2514H10.0587V30.3169C10.0587 31.4699 10.1143 31.7084 10.4403 32.0662C10.7266 32.3684 11.0844 32.5115 11.5694 32.5115H11.967V34.5392V36.5668L6.61565 36.5827L1.25634 36.6065L0.866714 36.8451C0.628169 36.9962 0.389624 37.2347 0.238545 37.4733C0.0238545 37.8231 0 37.9344 0 38.4672C0 39.1351 0.111321 39.4055 0.5248 39.819C0.659975 39.9541 0.882617 40.1291 1.02574 40.2086C1.25634 40.3358 2.16281 40.3438 14.9886 40.3438C27.9098 40.3438 28.7208 40.3358 28.9594 40.2006C30.2793 39.485 30.3589 37.6243 29.1105 36.8451L28.7208 36.6065L24.1964 36.5827L19.68 36.5668V34.5392V32.5115H20.0776C20.5069 32.5115 20.9681 32.3207 21.2146 32.0503C21.4929 31.7402 21.5804 31.3188 21.5883 30.2612V29.2514H22.129H22.6618L24.1328 31.2552C24.9439 32.3604 25.7072 33.3862 25.8344 33.5293C26.3672 34.1336 27.2339 34.396 28.0052 34.1734C28.53 34.0303 29.1502 33.41 29.2934 32.8852C29.4285 32.4002 29.3649 31.7641 29.1343 31.3108C29.0389 31.12 28.3074 30.0784 27.5122 28.997L26.065 27.025L26.1684 26.6115C26.4626 25.4824 26.1605 24.234 25.3812 23.3911C24.6815 22.6357 23.8386 22.2541 22.8526 22.2541C22.5425 22.2541 19.9901 22.5244 17.1832 22.8504C14.3843 23.1685 11.8637 23.4627 11.6013 23.4945C11.1639 23.5422 11.1003 23.5263 11.0685 23.3991C11.0208 23.248 9.7406 16.5687 9.7406 16.4892C9.7406 16.4654 11.7285 16.4495 14.1537 16.4495H18.5747L19.5051 17.0776C20.9045 18.0159 21.0476 18.0795 21.7474 18.0795C22.2086 18.0795 22.4153 18.0398 22.6698 17.9046C23.3218 17.5547 23.7353 16.863 23.7353 16.0917C23.7353 15.5191 23.5524 15.0739 23.1468 14.6842C22.7175 14.2628 20.5228 12.8713 19.9265 12.6407L19.4017 12.434L14.1775 12.4101L8.9534 12.3863L8.87388 11.9728C8.82617 11.7422 8.4127 9.58733 7.95151 7.18597C7.49032 4.77666 7.06094 2.62976 6.99733 2.41507C6.51229 0.721397 4.57212 -0.344105 2.78303 0.101181ZM4.69139 1.45294C5.18438 1.69943 5.62172 2.16857 5.8046 2.64566C5.86821 2.82855 6.3294 5.07882 6.82239 7.66306L7.72091 12.3545L7.33129 12.4101C5.74894 12.6566 5.06511 14.4218 6.05905 15.7179C6.36916 16.1314 6.99733 16.3859 7.82428 16.4336L8.50811 16.4654L9.19194 20.0595C9.57362 22.0314 9.87577 23.6535 9.85987 23.6694C9.85192 23.6774 9.41459 23.741 8.88979 23.8046C7.76862 23.9318 7.56984 23.9796 7.17226 24.1783C6.99733 24.2658 6.84625 24.3135 6.82239 24.2897C6.78264 24.2499 5.16848 18.2704 2.57629 8.49797C1.16092 3.18636 1.18477 3.32154 1.5903 2.47868C2.15486 1.34161 3.52252 0.888378 4.69139 1.45294ZM19.4414 13.7698C20.006 13.9686 22.3199 15.4635 22.463 15.7259C22.5028 15.8134 22.5425 15.9962 22.5425 16.1314C22.5425 16.4733 22.0972 16.9266 21.7633 16.9266C21.5486 16.9266 20.8409 16.5131 19.3699 15.5351L19.0121 15.2965L13.2075 15.2568C8.74666 15.2249 7.35514 15.1931 7.21997 15.1136C6.65541 14.7956 6.66336 13.9925 7.22792 13.7142C7.44261 13.6028 8.20596 13.5869 13.1995 13.5869L18.9246 13.5949L19.4414 13.7698ZM23.7989 23.6933C24.5861 24.0829 25.0075 24.719 25.0632 25.5937C25.1347 26.5956 24.5304 27.5498 23.6001 27.8996C23.1866 28.0587 22.9878 28.0587 15.5691 28.0587C7.98331 28.0587 7.95946 28.0587 7.60959 27.8917C6.98938 27.5895 6.65541 26.7944 6.8701 26.1265C7.00528 25.7289 7.50622 25.3075 8.00717 25.1643C8.23776 25.1007 10.0587 24.8622 12.0465 24.6395C14.0344 24.4169 17.1116 24.0591 18.8848 23.8444C22.8685 23.3752 23.1468 23.3673 23.7989 23.6933ZM26.7012 29.9432C28.0132 31.7243 28.1881 32.0026 28.1881 32.273C28.1881 32.5354 27.9814 32.8693 27.7508 32.9727C27.377 33.1397 27.1624 33.084 26.8045 32.7262C26.3354 32.265 24.0056 29.0685 24.1169 29.0288C24.2839 28.9731 25.1268 28.4006 25.2381 28.2654C25.3017 28.1938 25.3733 28.162 25.4051 28.1938C25.4369 28.2257 26.0253 29.0129 26.7012 29.9432ZM20.3956 30.1897C20.3956 30.8099 20.3638 31.1598 20.3002 31.2234C20.165 31.3585 11.482 31.3585 11.3468 31.2234C11.2832 31.1598 11.2514 30.8099 11.2514 30.1897V29.2514H15.8235H20.3956V30.1897ZM18.4873 34.5392V36.5668H15.8235H13.1597V34.5392V32.5115H15.8235H18.4873V34.5392ZM28.5936 37.9901C28.9037 38.3082 28.9037 38.6421 28.5936 38.9602L28.363 39.1908H14.9886H1.61416L1.38356 38.9602C1.22453 38.8012 1.15297 38.6501 1.15297 38.4751C1.15297 38.3002 1.22453 38.1491 1.38356 37.9901L1.61416 37.7595H14.9886H28.363L28.5936 37.9901Z" fill="#133769"/>
</svg>
