<svg width="17" height="16" viewBox="0 0 17 16" fill="none" xmlns="http://www.w3.org/2000/svg">
<path fill-rule="evenodd" clip-rule="evenodd" d="M12.3344 0L12.518 0.0935325C13.6165 0.652897 14.5255 1.5318 15.1289 2.61811C15.7107 3.66546 15.9828 4.85965 15.9144 6.05797C16.5413 6.23778 17 6.81532 17 7.5C17 8.15311 16.5826 8.70873 16 8.91465V13C16 14.6569 14.6569 16 13 16H4C2.34315 16 1 14.6569 1 13V8.91465C0.417404 8.70873 0 8.15311 0 7.5C0 6.67157 0.671573 6 1.5 6H5.49982C5.64208 5.81061 5.81061 5.64208 6 5.49982V2.5C6 1.67163 6.67188 1 7.5 1C8.32812 1 9 1.67163 9 2.5V4.98043C9.32054 4.45858 9.73929 3.77755 10.1598 3.09574C10.5949 2.39021 11.0323 1.68322 11.3647 1.1508C11.5307 0.8848 11.6714 0.661157 11.7727 0.502714C11.8231 0.423877 11.8652 0.358964 11.8963 0.312388C11.9115 0.289705 11.9266 0.267567 11.9399 0.249184C11.946 0.240734 11.9559 0.22733 11.9675 0.213283C11.9729 0.206791 11.984 0.193581 11.9989 0.178591C12.0063 0.17112 12.0194 0.158428 12.0369 0.144317C12.0501 0.133769 12.0882 0.103744 12.1446 0.0799787L12.3344 0ZM9.6154 5.70031H15.0272C15.0281 4.77951 14.7949 3.8714 14.347 3.06511C13.896 2.25311 13.2451 1.57668 12.4609 1.09993C12.3698 1.24354 12.255 1.42645 12.1229 1.638C11.7918 2.16822 11.3555 2.87348 10.9206 3.57868C10.4858 4.28371 10.0528 4.98804 9.72844 5.51616L9.6154 5.70031ZM8 5.05001V2.5C8 2.22388 7.77637 2 7.5 2C7.22363 2 7 2.22388 7 2.5V5.05001C7.16155 5.01722 7.32877 5 7.5 5C7.67123 5 7.83845 5.01722 8 5.05001ZM5.05001 7H1.5C1.22386 7 1 7.22386 1 7.5C1 7.77614 1.22386 8 1.5 8H5.05001C5.01722 7.83845 5 7.67123 5 7.5C5 7.32877 5.01722 7.16155 5.05001 7ZM9.08927 8H9.09037C9.13994 7.84216 9.16667 7.6742 9.16667 7.5C9.16667 7.3258 9.13994 7.15784 9.09037 7H9.08886C8.92606 6.4824 8.51751 6.0737 8 5.91069V5.90963C7.84216 5.86006 7.6742 5.83333 7.5 5.83333C7.3258 5.83333 7.15784 5.86006 7 5.90963V5.90988C6.32314 6.12185 5.83203 6.7539 5.83203 7.50065C5.83203 8.42113 6.57822 9.16732 7.4987 9.16732C8.24521 9.16732 8.87709 8.67652 9.08927 8ZM5.49982 9H2V13C2 14.1046 2.89543 15 4 15H13C14.1046 15 15 14.1046 15 13V9H9.50018C9.04408 9.60722 8.31791 10 7.5 10C6.68209 10 5.95592 9.60722 5.49982 9ZM9.94999 8H15.5C15.7761 8 16 7.77614 16 7.5C16 7.22386 15.7761 7 15.5 7H9.94999C9.98279 7.16155 10 7.32877 10 7.5C10 7.67123 9.98279 7.83845 9.94999 8Z" fill="black"/>
</svg>
