<svg width="15" height="16" viewBox="0 0 15 16" fill="none" xmlns="http://www.w3.org/2000/svg">
<path fill-rule="evenodd" clip-rule="evenodd" d="M2.4 2.90039C1.90294 2.90039 1.5 3.30333 1.5 3.80039V13.6004C1.5 14.0974 1.90294 14.5004 2.4 14.5004H12.2C12.6971 14.5004 13.1 14.0974 13.1 13.6004V3.80039C13.1 3.30333 12.6971 2.90039 12.2 2.90039H2.4ZM0.5 3.80039C0.5 2.75105 1.35066 1.90039 2.4 1.90039H12.2C13.2493 1.90039 14.1 2.75105 14.1 3.80039V13.6004C14.1 14.6497 13.2493 15.5004 12.2 15.5004H2.4C1.35066 15.5004 0.5 14.6497 0.5 13.6004V3.80039Z" fill="#133769"/>
<path fill-rule="evenodd" clip-rule="evenodd" d="M10.0996 0.5C10.3758 0.5 10.5996 0.723858 10.5996 1V3.8C10.5996 4.07614 10.3758 4.3 10.0996 4.3C9.82347 4.3 9.59961 4.07614 9.59961 3.8V1C9.59961 0.723858 9.82347 0.5 10.0996 0.5Z" fill="#133769"/>
<path fill-rule="evenodd" clip-rule="evenodd" d="M4.5 0.5C4.77614 0.5 5 0.723858 5 1V3.8C5 4.07614 4.77614 4.3 4.5 4.3C4.22386 4.3 4 4.07614 4 3.8V1C4 0.723858 4.22386 0.5 4.5 0.5Z" fill="#133769"/>
<path fill-rule="evenodd" clip-rule="evenodd" d="M0.5 8C0.5 7.72386 0.723858 7.5 1 7.5H13.6C13.8761 7.5 14.1 7.72386 14.1 8C14.1 8.27614 13.8761 8.5 13.6 8.5H1C0.723858 8.5 0.5 8.27614 0.5 8Z" fill="#133769"/>
</svg>
