<svg width="31" height="34" viewBox="0 0 31 34" fill="none" xmlns="http://www.w3.org/2000/svg">
<path d="M9.00449 0.115311C8.53592 0.254665 8.1435 0.520103 7.6925 0.99789C7.23565 1.48895 6.88422 2.21226 6.7788 2.88913C6.7378 3.12802 6.71437 4.33576 6.71437 5.8952V8.50312H4.91624C3.5984 8.50312 3.03026 8.52966 2.81941 8.59602C1.75342 8.91455 0.868997 9.91657 0.587856 11.1243C0.470715 11.6087 0.470715 22.3855 0.587856 22.8699C0.868997 24.0776 1.75342 25.0797 2.81941 25.3982C3.03612 25.4645 3.59254 25.4911 4.91624 25.4911H6.71437V28.099C6.71437 29.6584 6.7378 30.8662 6.7788 31.1051C6.88422 31.7819 7.23565 32.5053 7.6925 32.9963C8.14936 33.4807 8.53592 33.7395 9.02792 33.8855C9.5492 34.0382 21.4508 34.0382 21.9721 33.8855C22.4934 33.7329 22.8624 33.4741 23.3368 32.9499C23.8112 32.4124 24.1099 31.7952 24.2212 31.1051C24.2622 30.8595 24.2856 29.6983 24.2856 28.099V25.4911H26.1072C27.8995 25.4911 27.9346 25.4911 28.368 25.3252C29.3872 24.9337 30.1427 24.0312 30.4121 22.8699C30.5293 22.3855 30.5293 11.6087 30.4121 11.1243C30.131 9.91657 29.2466 8.91455 28.1806 8.59602C27.9697 8.52966 27.4016 8.50312 26.0896 8.50312H24.2856V5.8952C24.2856 4.33576 24.2622 3.12802 24.2212 2.88913C24.1158 2.21226 23.7644 1.48895 23.3075 0.99789C22.8506 0.513466 22.4641 0.254665 21.9721 0.108677C21.4684 -0.0373154 9.49063 -0.0373154 9.00449 0.115311ZM21.9194 1.68139C22.0834 1.78093 22.3411 2.01319 22.4875 2.19899C22.9561 2.78959 22.9561 2.79622 22.9854 5.82884L23.0088 8.50312H15.5H7.99121L8.01464 5.82884C8.04393 2.79622 8.04393 2.78959 8.5125 2.19899C8.76435 1.88047 9.08063 1.64821 9.40863 1.52876C9.49063 1.50222 12.2727 1.48231 15.5879 1.48895L21.6207 1.50222L21.9194 1.68139ZM28.0166 10.109C28.4676 10.3015 28.9069 10.7992 29.0767 11.3101C29.2056 11.6884 29.2056 11.7282 29.2056 16.9971C29.2056 22.266 29.2056 22.3058 29.0767 22.6841C28.9069 23.1951 28.4676 23.6928 28.0166 23.8852C27.7003 24.0245 27.5773 24.0312 25.9842 24.0312H24.2856V21.5095C24.2856 18.7954 24.2798 18.7291 23.9811 18.4968C23.8639 18.4039 22.9736 18.3906 15.5 18.3906C8.02636 18.3906 7.13608 18.4039 7.01894 18.4968C6.72023 18.7291 6.71437 18.7954 6.71437 21.5095V24.0312H5.01581C3.42269 24.0312 3.29969 24.0245 2.9834 23.8852C2.53241 23.6928 2.09313 23.1951 1.92327 22.6841C1.79442 22.3058 1.79442 22.266 1.79442 16.9971C1.79442 11.7282 1.79442 11.6884 1.92327 11.3101C2.08727 10.8058 2.53241 10.3015 2.96583 10.109L3.28797 9.96966H15.4824L27.6769 9.96302L28.0166 10.109ZM22.9854 25.3385C22.9678 30.4614 22.9561 30.8529 22.8565 31.1449C22.7159 31.563 22.2942 32.0872 21.9194 32.3128L21.6207 32.492H15.5H9.37934L9.08063 32.3128C8.70578 32.0872 8.28407 31.563 8.1435 31.1449C8.04393 30.8529 8.03221 30.4614 8.01464 25.3385L7.99707 19.8506H15.5H23.0029L22.9854 25.3385Z" fill="#133769"/>
<path d="M10.6975 22.8302C10.5042 23.0492 10.434 23.2881 10.4867 23.5402C10.5101 23.6398 10.6038 23.799 10.6975 23.9052L10.8615 24.0977H12.3668H13.8721L14.0712 23.872C14.2352 23.6862 14.2703 23.5933 14.2703 23.3677C14.2703 23.1421 14.2352 23.0492 14.0712 22.8634L13.8721 22.6378H12.3668H10.8615L10.6975 22.8302Z" fill="#133769"/>
<path d="M10.6737 25.6768C10.4746 25.9224 10.4219 26.2674 10.5449 26.5395C10.744 26.9708 10.58 26.9576 14.9377 26.9377L18.8912 26.9178L19.067 26.7253C19.2192 26.5594 19.2485 26.4798 19.2485 26.2011C19.2485 25.9356 19.2192 25.8494 19.0787 25.6835L18.9088 25.491H14.8733H10.8377L10.6737 25.6768Z" fill="#133769"/>
<path d="M10.7795 28.4045C10.4222 28.65 10.3754 29.1941 10.68 29.5525L10.8381 29.7383H14.8736H18.9092L19.079 29.5458C19.2196 29.3799 19.2489 29.2937 19.2489 29.0282C19.2489 28.7495 19.2196 28.6699 19.0673 28.504L18.8916 28.3116L14.9263 28.2916C11.1251 28.2784 10.9552 28.285 10.7795 28.4045Z" fill="#133769"/>
</svg>
