<svg width="14" height="16" viewBox="0 0 14 16" fill="none" xmlns="http://www.w3.org/2000/svg" >
  <path d="M5.54546 1.48529C5.27793 2.68974 5.24153 3.93845 5.4384 5.15795C5.63527 6.37746 6.06143 7.54313 6.69181 8.58638C7.32219 9.62964 8.14406 10.5294 9.10907 11.2328C10.0741 11.9361 11.1627 12.4289 12.311 12.682C11.7073 13.3406 10.9842 13.8646 10.1848 14.2229C9.38534 14.5812 8.52579 14.7664 7.65714 14.7677C7.57632 14.7677 7.49479 14.7708 7.41333 14.7677C5.90112 14.7113 4.45542 14.0981 3.32732 13.0346C2.19922 11.9711 1.45999 10.5246 1.23803 8.94616C1.01606 7.36775 1.32538 5.75721 2.11225 4.39427C2.89913 3.03133 4.11386 2.00208 5.54546 1.48529ZM6.40767 0C6.37351 5.62293e-05 6.33942 0.00326849 6.30578 0.00959999C4.44758 0.357654 2.77722 1.41847 1.61644 2.98773C0.455665 4.55698 -0.113425 6.52368 0.0187866 8.509C0.150999 10.4943 0.97516 12.3578 2.33253 13.7406C3.6899 15.1234 5.48446 15.9276 7.37055 15.9984C7.46631 16.0021 7.56208 15.9984 7.65702 15.9984C8.88181 15.999 10.0888 15.6887 11.1758 15.0936C12.2628 14.4986 13.198 13.6362 13.9023 12.5795C13.9594 12.4885 13.9927 12.3831 13.9989 12.2742C14.0051 12.1652 13.984 12.0564 13.9377 11.9588C13.8913 11.8612 13.8214 11.7782 13.7349 11.7182C13.6485 11.6581 13.5486 11.6232 13.4452 11.6168C12.2794 11.509 11.1526 11.1199 10.1521 10.4796C9.15165 9.83926 8.30417 8.96494 7.67522 7.92416C7.04626 6.88338 6.65268 5.70403 6.52489 4.47726C6.39711 3.25049 6.53854 2.00917 6.93825 0.849232C6.97225 0.756428 6.98474 0.6564 6.97467 0.557477C6.9646 0.458554 6.93227 0.363599 6.88036 0.280519C6.82846 0.197438 6.75848 0.128637 6.67626 0.0798429C6.59404 0.031049 6.50196 0.00367494 6.40767 0Z" fill="red" />
</svg>