<svg width="15" height="15" viewBox="0 0 15 15" fill="none" xmlns="http://www.w3.org/2000/svg" >
  <path d="M14.1728 0.0124416L9.31275 0.105847C9.14278 0.109114 8.98107 0.179767 8.86319 0.302266C8.74531 0.424764 8.68093 0.589065 8.68419 0.759037C8.68746 0.929009 8.75811 1.09071 8.88061 1.20859C9.00311 1.32647 9.16741 1.39086 9.33738 1.38759L13.5566 1.3065L13.6377 5.52374C13.6409 5.69372 13.7116 5.85542 13.8341 5.9733C13.9566 6.09118 14.1209 6.15557 14.2908 6.1523C14.4608 6.14903 14.6225 6.07838 14.7404 5.95588C14.8583 5.83338 14.9227 5.66908 14.9194 5.49911L14.826 0.637031C14.8216 0.467773 14.7506 0.307083 14.6282 0.190065C14.5058 0.0730479 14.3421 0.00918489 14.1728 0.0124416Z" fill="#001662" />
  <path d="M14.6299 0.191586C14.5693 0.133175 14.4978 0.0873101 14.4195 0.0565667C14.3412 0.0258233 14.2575 0.0108423 14.1734 0.0124593C14.0893 0.0140764 14.0063 0.0322596 13.9292 0.0659902C13.8521 0.0997209 13.7824 0.148299 13.7241 0.208995L8.16312 5.98995C8.10425 6.05048 8.05793 6.12201 8.02679 6.2005C7.99566 6.27899 7.98032 6.36289 7.98169 6.44732C7.98306 6.53175 8.00108 6.61506 8.03475 6.6925C8.06842 6.76994 8.11709 6.83995 8.1779 6.89853C8.23871 6.95711 8.31049 7.00308 8.38913 7.03384C8.46777 7.06459 8.55172 7.07953 8.63614 7.07774C8.72056 7.07596 8.80378 7.05751 8.88105 7.02347C8.95832 6.98942 9.0281 6.94046 9.08639 6.87936L14.6474 1.0984C14.7058 1.03774 14.7517 0.966179 14.7825 0.887758C14.8132 0.809338 14.8282 0.725601 14.8266 0.641381C14.825 0.557161 14.8068 0.474124 14.773 0.396943C14.7393 0.319763 14.6907 0.249961 14.6299 0.191586Z" fill="#001662" />
  <path d="M5.57478 13.6177L1.35513 13.6719L1.30088 9.45027C1.2987 9.28028 1.22908 9.11813 1.10733 8.99948C0.985587 8.88082 0.821701 8.81539 0.651711 8.81757C0.481721 8.81975 0.319539 8.88938 0.200883 9.01112C0.0822263 9.13287 0.0167931 9.29675 0.0189772 9.46674L0.0815055 14.3333C0.0836896 14.5033 0.153312 14.6655 0.275057 14.7841C0.396802 14.9028 0.56072 14.9682 0.730709 14.966L5.5913 14.9036C5.76129 14.9014 5.92344 14.8318 6.0421 14.71C6.16075 14.5883 6.22619 14.4244 6.224 14.2544C6.22182 14.0844 6.1522 13.9223 6.03045 13.8036C5.90871 13.685 5.74482 13.6195 5.57483 13.6217L5.57478 13.6177Z" fill="#001662" />
  <path d="M6.76824 8.11597C6.70804 8.05717 6.63682 8.01079 6.55868 7.97955C6.48054 7.94831 6.39701 7.93279 6.31286 7.93387C6.22872 7.93495 6.14561 7.95261 6.0683 7.98585C5.99099 8.01909 5.92099 8.06728 5.86231 8.12761L0.264674 13.873C0.15268 13.9959 0.0928249 14.1575 0.0977518 14.3237C0.102679 14.4899 0.171997 14.6477 0.291074 14.7638C0.410151 14.8798 0.569646 14.9451 0.735923 14.9457C0.9022 14.9464 1.06223 14.8824 1.18221 14.7673L6.77888 9.02191C6.89751 8.90032 6.96303 8.73658 6.96103 8.56671C6.95904 8.39684 6.8897 8.23474 6.76824 8.11597Z" fill="#001662" />
</svg>