<svg width="18" height="18" viewBox="0 0 18 18" fill="none" xmlns="http://www.w3.org/2000/svg">
    <path d="M9.5625 1.125H8.4375V3.9375H9.5625V1.125Z" fill="red" />
    <path d="M14.1713 3.03383L12.1992 5.00586L12.9946 5.80128L14.9667 3.82924L14.1713 3.03383Z" fill="red" />
    <path d="M16.875 8.4375H14.0625V9.5625H16.875V8.4375Z" fill="red" />
    <path d="M12.9946 12.1987L12.1992 12.9941L14.1713 14.9662L14.9667 14.1708L12.9946 12.1987Z" fill="red" />
    <path d="M9.5625 14.0625H8.4375V16.875H9.5625V14.0625Z" fill="red" />
    <path d="M5.00621 12.1979L3.03418 14.1699L3.8296 14.9653L5.80163 12.9933L5.00621 12.1979Z" fill="red" />
    <path d="M3.9375 8.4375H1.125V9.5625H3.9375V8.4375Z" fill="red" />
    <path d="M3.8296 3.03466L3.03418 3.83008L5.00621 5.80211L5.80163 5.0067L3.8296 3.03466Z" fill="red" />
    <path d="M9 6.75C9.44501 6.75 9.88002 6.88196 10.25 7.12919C10.62 7.37643 10.9084 7.72783 11.0787 8.13896C11.249 8.5501 11.2936 9.0025 11.2068 9.43895C11.12 9.87541 10.9057 10.2763 10.591 10.591C10.2763 10.9057 9.87541 11.12 9.43895 11.2068C9.0025 11.2936 8.5501 11.249 8.13896 11.0787C7.72783 10.9084 7.37643 10.62 7.12919 10.25C6.88196 9.88002 6.75 9.44501 6.75 9C6.75067 8.40347 6.98794 7.83156 7.40975 7.40975C7.83156 6.98794 8.40347 6.75067 9 6.75ZM9 5.625C8.33249 5.625 7.67997 5.82294 7.12495 6.19379C6.56994 6.56464 6.13735 7.09174 5.88191 7.70844C5.62646 8.32514 5.55963 9.00374 5.68985 9.65843C5.82008 10.3131 6.14151 10.9145 6.61352 11.3865C7.08552 11.8585 7.68689 12.1799 8.34157 12.3102C8.99626 12.4404 9.67486 12.3735 10.2916 12.1181C10.9083 11.8626 11.4354 11.4301 11.8062 10.875C12.1771 10.32 12.375 9.66751 12.375 9C12.375 8.10489 12.0194 7.24645 11.3865 6.61351C10.7536 5.98058 9.89511 5.625 9 5.625Z" fill="red"/>
</svg>