<svg width="15" height="15" viewBox="0 0 15 15" fill="none" xmlns="http://www.w3.org/2000/svg" >
  <path fillRule="evenodd" clipRule="evenodd" d="M12.21 4.7L13.501 3.943C13.653 3.867 13.653 3.715 13.577 3.564C13.501 3.413 13.349 3.412 13.198 3.488L11.909 4.246C11.757 4.322 11.757 4.474 11.833 4.625C11.8804 4.67493 11.9421 4.70896 12.0096 4.72239C12.0771 4.73582 12.1471 4.728 12.21 4.7ZM13.501 10.465L12.212 9.707C12.1822 9.68466 12.1482 9.66865 12.1119 9.65995C12.0757 9.65126 12.0381 9.65007 12.0014 9.65645C11.9647 9.66283 11.9297 9.67665 11.8986 9.69706C11.8674 9.71747 11.8408 9.74404 11.8203 9.77513C11.7998 9.80623 11.7859 9.84118 11.7794 9.87786C11.7729 9.91453 11.774 9.95214 11.7826 9.98838C11.7912 10.0246 11.8071 10.0587 11.8293 10.0886C11.8516 10.1184 11.8797 10.1434 11.912 10.162L13.201 10.92C13.2642 10.9483 13.3347 10.9562 13.4027 10.9426C13.4706 10.929 13.5326 10.8945 13.58 10.844C13.651 10.693 13.651 10.541 13.501 10.465ZM7.283 12.365C7.131 12.365 6.983 12.441 6.983 12.593V14.11C6.983 14.262 7.059 14.41 7.211 14.41C7.363 14.41 7.511 14.334 7.511 14.182V12.664C7.584 12.513 7.433 12.361 7.281 12.361L7.283 12.365ZM2.655 4.247L1.366 3.489C1.30277 3.46066 1.23228 3.45276 1.16434 3.46638C1.09641 3.48 1.03441 3.51448 0.987 3.565C0.958664 3.62823 0.950755 3.69872 0.964378 3.76666C0.978001 3.83459 1.01248 3.89658 1.063 3.944L2.352 4.702C2.41523 4.73034 2.48572 4.73824 2.55366 4.72462C2.62159 4.711 2.68359 4.67652 2.731 4.626C2.75934 4.56277 2.76725 4.49228 2.75362 4.42434C2.74 4.35641 2.70552 4.29442 2.655 4.247ZM7.281 2.047C7.34795 2.04294 7.4122 2.01911 7.4656 1.97852C7.519 1.93794 7.55916 1.88242 7.581 1.819V0.3C7.581 0.148 7.505 0 7.353 0C7.201 0 7.053 0.076 7.053 0.228V1.744C7.054 1.9 7.129 2.048 7.281 2.048V2.047ZM4.323 2.654C4.399 2.806 4.551 2.806 4.702 2.73C4.853 2.654 4.854 2.502 4.778 2.351L4.02 1.062C3.944 0.91 3.793 0.91 3.641 0.986C3.489 1.062 3.489 1.214 3.565 1.365L4.323 2.654ZM14.257 6.977H12.741C12.589 6.977 12.441 7.053 12.441 7.205C12.441 7.357 12.517 7.505 12.669 7.505H14.262C14.414 7.505 14.49 7.353 14.49 7.205C14.561 7.053 14.409 6.977 14.258 6.977H14.257ZM2.049 7.2C2.049 7.048 1.973 6.9 1.821 6.9H0.228004C0.0760045 6.9 0 7.052 0 7.2C0.00334644 7.25938 0.0284409 7.31545 0.0704956 7.3575C0.11255 7.39956 0.168624 7.42465 0.228004 7.428H1.745C1.901 7.508 2.049 7.356 2.049 7.2ZM7.281 3.337C6.24951 3.33858 5.25956 3.74358 4.52274 4.46545C3.78593 5.18731 3.36072 6.16876 3.338 7.2C3.34115 8.22439 3.74887 9.20606 4.47239 9.93126C5.1959 10.6565 6.17662 11.0665 7.201 11.072C8.23489 11.0717 9.22743 10.666 9.96557 9.94208C10.7037 9.21816 11.1286 8.23368 11.149 7.2C11.1527 6.69124 11.0552 6.18682 10.8621 5.71613C10.669 5.24543 10.3841 4.81787 10.0241 4.45835C9.66411 4.09882 9.23619 3.81452 8.76524 3.62201C8.2943 3.42949 7.78975 3.33261 7.281 3.337ZM11.001 13.043L10.243 11.754C10.167 11.602 10.015 11.602 9.864 11.678C9.713 11.754 9.712 11.906 9.788 12.057L10.546 13.346C10.622 13.498 10.774 13.498 10.925 13.422C11.076 13.346 11.077 13.194 11.001 13.043ZM9.935 2.73C9.99823 2.75834 10.0687 2.76624 10.1367 2.75262C10.2046 2.739 10.2666 2.70452 10.314 2.654L11.072 1.365C11.1009 1.30227 11.1097 1.23208 11.0969 1.16418C11.0842 1.09627 11.0507 1.034 11.001 0.986C10.9378 0.957664 10.8673 0.949757 10.7993 0.96338C10.7314 0.977003 10.6694 1.01148 10.622 1.062L9.864 2.351C9.784 2.5 9.784 2.654 9.935 2.73ZM4.627 11.678C4.56377 11.6497 4.49328 11.6418 4.42535 11.6554C4.35741 11.669 4.29542 11.7035 4.248 11.754L3.49 13.043C3.46765 13.0728 3.45165 13.1068 3.44296 13.1431C3.43426 13.1793 3.43306 13.2169 3.43945 13.2536C3.44583 13.2903 3.45965 13.3253 3.48006 13.3564C3.50048 13.3876 3.52704 13.4142 3.55814 13.4347C3.58923 13.4552 3.62419 13.4691 3.66086 13.4756C3.69753 13.4821 3.73514 13.481 3.77138 13.4724C3.80762 13.4638 3.84172 13.4479 3.87157 13.4257C3.90143 13.4034 3.92642 13.3753 3.945 13.343L4.703 12.054C4.854 11.906 4.779 11.754 4.627 11.678ZM2.352 9.707L1.063 10.465C0.911004 10.541 0.911 10.693 0.987 10.844C1.063 10.995 1.215 10.996 1.366 10.92L2.655 10.162C2.807 10.086 2.807 9.934 2.731 9.783C2.68359 9.73248 2.62159 9.698 2.55366 9.68438C2.48572 9.67076 2.41523 9.67866 2.352 9.707Z" fill="#A4A4A4" />
</svg>