<svg width="20" height="17" viewBox="0 0 20 17" fill="none" xmlns="http://www.w3.org/2000/svg" >
  <path fillRule="evenodd" clipRule="evenodd" d="M17.501 14.679L16.794 14.148C16.1001 13.5599 15.3608 13.0275 14.583 12.556L13.876 12.202C13.4146 11.9462 12.9024 11.7953 12.376 11.76C11.581 11.8256 10.8179 12.1017 10.165 12.56C9.38201 11.7551 8.35725 11.2283 7.247 11.06C6.274 11.06 5.125 11.86 3.975 12.917L3.268 13.536C3.003 13.801 2.649 14.067 2.384 14.336C1.853 14.867 1.323 15.397 0.884 15.751C0.265 16.193 0.084 16.282 0 16.282H1.318C1.86257 15.8599 2.36492 15.3861 2.818 14.867L3.26 14.425L3.967 13.806C5.117 12.745 6.355 11.772 7.239 11.772C8.389 11.772 10.157 13.452 11.572 14.872C12.191 15.491 12.722 15.933 13.072 16.287H14.398C14.1537 16.1871 13.9174 16.0687 13.691 15.933L13.514 15.756C13.072 15.402 12.541 14.872 12.014 14.341C11.5846 13.8824 11.1106 13.4677 10.599 13.103C11.1123 12.8026 11.6863 12.6212 12.279 12.572C12.8169 12.6146 13.3341 12.7978 13.779 13.103L14.486 13.545C15.193 14.076 15.986 14.695 16.697 15.225L17.404 15.756C17.6484 15.9896 17.9165 16.1971 18.204 16.375H19.619C19.358 16.183 18.385 15.387 17.501 14.679ZM13.876 3.891L14.937 3.272C15.025 3.184 15.114 3.095 15.025 3.007C14.936 2.919 14.848 2.83 14.76 2.919L13.699 3.538C13.611 3.626 13.522 3.715 13.611 3.803C13.6459 3.83644 13.6877 3.86169 13.7336 3.87691C13.7794 3.89213 13.8281 3.89695 13.876 3.891ZM6.006 3.891C6.02808 3.90766 6.05392 3.91865 6.08124 3.923C6.10856 3.92735 6.13652 3.92492 6.16269 3.91594C6.18885 3.90696 6.21241 3.89169 6.2313 3.87147C6.25018 3.85126 6.26381 3.82671 6.271 3.8C6.359 3.712 6.271 3.535 6.183 3.446L5.121 2.918C5.09912 2.90131 5.07349 2.89022 5.04635 2.88569C5.01921 2.88115 4.99137 2.88332 4.96525 2.89199C4.93913 2.90066 4.91553 2.91558 4.89649 2.93545C4.87745 2.95532 4.86355 2.97954 4.856 3.006C4.83931 3.02788 4.82822 3.05351 4.82369 3.08065C4.81915 3.10779 4.82132 3.13563 4.82999 3.16175C4.83866 3.18787 4.85358 3.21147 4.87345 3.23051C4.89332 3.24955 4.91754 3.26345 4.944 3.271L6.006 3.891ZM9.892 1.68C9.93913 1.67783 9.98377 1.6582 10.0172 1.62492C10.0507 1.59165 10.0706 1.54712 10.073 1.5V0.265C10.073 0.177 9.985 0 9.892 0C9.799 0 9.627 0.088 9.627 0.177V1.415C9.71833 1.59167 9.80667 1.68 9.892 1.68ZM7.504 2.122C7.592 2.21 7.681 2.299 7.769 2.21C7.857 2.121 7.946 2.033 7.857 1.945L7.332 0.884C7.243 0.8 7.066 0.707 6.978 0.8C6.94456 0.834856 6.91931 0.876727 6.90409 0.922568C6.88887 0.968408 6.88405 1.01707 6.89 1.065L7.504 2.122ZM14.136 5.836C14.136 5.924 14.224 6.101 14.313 6.101H15.551C15.639 6.101 15.728 6.013 15.728 5.836C15.725 5.79006 15.7053 5.74679 15.6728 5.71423C15.6402 5.68168 15.5969 5.66205 15.551 5.659H14.318C14.318 5.659 14.141 5.748 14.141 5.836H14.136ZM4.236 6.101H5.475C5.563 6.101 5.74 6.013 5.74 5.924C5.74 5.835 5.652 5.66 5.563 5.66H4.237C4.149 5.66 4.06 5.748 4.06 5.925C4.06351 5.97058 4.08334 6.01337 4.11585 6.04552C4.14837 6.07766 4.19138 6.09701 4.237 6.1L4.236 6.101ZM9.892 9.02C10.5217 9.02079 11.1374 8.83481 11.6614 8.48558C12.1853 8.13636 12.5939 7.63958 12.8355 7.05809C13.077 6.4766 13.1407 5.83653 13.0184 5.21885C12.8961 4.60117 12.5934 4.03364 12.1485 3.58805C11.7036 3.14246 11.1365 2.83883 10.5191 2.71558C9.90157 2.59232 9.2614 2.65498 8.67954 2.89562C8.09767 3.13627 7.60025 3.54408 7.2502 4.06748C6.90015 4.59087 6.7132 5.20633 6.713 5.836C6.72154 6.65653 7.03484 7.44458 7.592 8.047C7.88872 8.3575 8.24584 8.604 8.64139 8.77133C9.03693 8.93866 9.46253 9.02329 9.892 9.02ZM12.103 2.211C12.1249 2.22769 12.1505 2.23878 12.1777 2.24331C12.2048 2.24785 12.2326 2.24568 12.2587 2.23701C12.2849 2.22834 12.3085 2.21342 12.3275 2.19355C12.3465 2.17368 12.3604 2.14946 12.368 2.123L12.992 1.061C13.0078 1.03911 13.0181 1.01375 13.0221 0.98704C13.0261 0.960332 13.0237 0.933056 13.015 0.907497C13.0062 0.881937 12.9915 0.858838 12.9721 0.840135C12.9526 0.821432 12.9289 0.807669 12.903 0.8C12.8811 0.783311 12.8555 0.772219 12.8284 0.767686C12.8012 0.763153 12.7734 0.765317 12.7473 0.773989C12.7211 0.782662 12.6975 0.797581 12.6785 0.81745C12.6595 0.837319 12.6456 0.861538 12.638 0.888L12.019 1.949C11.931 2.037 11.931 2.126 12.107 2.214L12.103 2.211Z" fill="#A4A4A4" />
</svg>