<svg width="20" height="15" viewBox="0 0 20 15" fill="none" xmlns="http://www.w3.org/2000/svg" >
  <path fillRule="evenodd" clipRule="evenodd" d="M19.616 11.01H15.662C15.497 9.62479 14.8298 8.34817 13.7867 7.42191C12.7436 6.49566 11.397 5.98409 10.002 5.98409C8.607 5.98409 7.26043 6.49566 6.21732 7.42191C5.1742 8.34817 4.50697 9.62479 4.342 11.01H0.309998C0.22778 11.01 0.148926 11.0427 0.0907898 11.1008C0.0326535 11.1589 0 11.2378 0 11.32C0 11.4022 0.0326535 11.4811 0.0907898 11.5392C0.148926 11.5973 0.22778 11.63 0.309998 11.63H19.616C19.6964 11.6244 19.772 11.5899 19.829 11.533C19.8859 11.476 19.9204 11.4004 19.926 11.32C20 11.165 19.849 11.01 19.616 11.01ZM14.344 13.569H5.34999C5.26777 13.569 5.18893 13.6017 5.1308 13.6598C5.07266 13.7179 5.03999 13.7968 5.03999 13.879C5.03999 13.9612 5.07266 14.0401 5.1308 14.0982C5.18893 14.1563 5.26777 14.189 5.34999 14.189H14.344C14.4262 14.189 14.5051 14.1563 14.5632 14.0982C14.6213 14.0401 14.654 13.9612 14.654 13.879C14.654 13.7968 14.6213 13.7179 14.5632 13.6598C14.5051 13.6017 14.4262 13.569 14.344 13.569ZM0.233002 7.211L3.955 8.452C4.0377 8.48667 4.1301 8.49039 4.21532 8.46247C4.30053 8.43456 4.37284 8.37688 4.41899 8.3C4.4361 8.26461 4.44566 8.22605 4.44704 8.18676C4.44842 8.14748 4.4416 8.10834 4.42702 8.07184C4.41244 8.03533 4.3904 8.00227 4.36234 7.97475C4.33427 7.94723 4.30078 7.92586 4.26399 7.912L0.619995 6.668C0.536838 6.63332 0.443936 6.62991 0.358459 6.6584C0.272983 6.68689 0.200715 6.74536 0.154999 6.823C-0.0780012 6.978 1.71363e-06 7.211 0.233002 7.211ZM6.979 4.885C7.01574 4.93243 7.06267 4.97099 7.11633 4.99782C7.16999 5.02465 7.22901 5.03907 7.289 5.04H7.444C7.48078 5.02614 7.51428 5.00477 7.54234 4.97725C7.57041 4.94973 7.59243 4.91667 7.60701 4.88016C7.62159 4.84366 7.62841 4.80452 7.62703 4.76524C7.62565 4.72595 7.61611 4.68739 7.599 4.652L6.59 2.481C6.54428 2.40336 6.47201 2.34489 6.38654 2.3164C6.30106 2.28791 6.20816 2.29132 6.125 2.326C6.08822 2.33986 6.05472 2.36123 6.02666 2.38875C5.99859 2.41627 5.97656 2.44933 5.96198 2.48584C5.94739 2.52234 5.94058 2.56148 5.94196 2.60076C5.94334 2.64005 5.95289 2.67861 5.97 2.714L6.979 4.885ZM12.174 5.04H12.329C12.389 5.03907 12.448 5.02465 12.5017 4.99782C12.5553 4.97099 12.6023 4.93243 12.639 4.885L13.647 2.714C13.6641 2.67861 13.6737 2.64005 13.675 2.60076C13.6764 2.56148 13.6696 2.52234 13.655 2.48584C13.6404 2.44933 13.6184 2.41627 13.5903 2.38875C13.5623 2.36123 13.5288 2.33986 13.492 2.326C13.4088 2.29132 13.3159 2.28791 13.2305 2.3164C13.145 2.34489 13.0727 2.40336 13.027 2.481L12.019 4.652C12.0019 4.68733 11.9923 4.72583 11.9908 4.76507C11.9894 4.8043 11.9961 4.84341 12.0106 4.8799C12.0251 4.91639 12.047 4.94947 12.075 4.97703C12.1029 5.0046 12.1363 5.02604 12.173 5.04H12.174ZM15.663 8.374C15.6997 8.42143 15.7467 8.45999 15.8003 8.48682C15.854 8.51365 15.913 8.52807 15.973 8.529H16.128L19.772 6.668C19.815 6.64905 19.8537 6.62157 19.8858 6.58722C19.9178 6.55287 19.9426 6.51236 19.9585 6.46816C19.9744 6.42396 19.9812 6.37698 19.9785 6.33007C19.9757 6.28316 19.9635 6.23731 19.9424 6.19528C19.9214 6.15325 19.8921 6.11593 19.8562 6.08558C19.8204 6.05523 19.7787 6.03247 19.7338 6.0187C19.6889 6.00493 19.6416 6.00043 19.5949 6.00546C19.5482 6.0105 19.5029 6.02497 19.462 6.048L15.818 7.909C15.7402 7.95456 15.6815 8.02676 15.6528 8.11225C15.6241 8.19774 15.6274 8.29073 15.662 8.374H15.663ZM5.427 6.513C5.48936 6.5712 5.57187 6.60291 5.65715 6.60144C5.74243 6.59997 5.82381 6.56543 5.88412 6.50512C5.94444 6.44481 5.97897 6.36343 5.98044 6.27815C5.98191 6.19287 5.9502 6.11035 5.892 6.048L2.558 2.869C2.53088 2.83297 2.49576 2.80374 2.45541 2.78361C2.41507 2.76348 2.37059 2.753 2.3255 2.753C2.28041 2.753 2.23594 2.76348 2.19559 2.78361C2.15524 2.80374 2.12012 2.83297 2.093 2.869C2.05698 2.89612 2.02773 2.93124 2.0076 2.97158C1.98747 3.01193 1.97699 3.05641 1.97699 3.1015C1.97699 3.14659 1.98747 3.19107 2.0076 3.23142C2.02773 3.27176 2.05698 3.30688 2.093 3.334L5.427 6.513ZM10 4.73C10.0804 4.72441 10.156 4.68995 10.213 4.63298C10.27 4.57601 10.3044 4.50037 10.31 4.42V0.31C10.31 0.227783 10.2773 0.148933 10.2192 0.0907969C10.1611 0.0326606 10.0822 0 10 0C9.91778 0 9.83893 0.0326606 9.78079 0.0907969C9.72266 0.148933 9.69 0.227783 9.69 0.31V4.419C9.614 4.575 9.769 4.73 10 4.73ZM14.5 6.513L17.834 3.334C17.87 3.30688 17.8993 3.27176 17.9194 3.23142C17.9395 3.19107 17.95 3.14659 17.95 3.1015C17.95 3.05641 17.9395 3.01193 17.9194 2.97158C17.8993 2.93124 17.87 2.89612 17.834 2.869C17.8069 2.83297 17.7718 2.80374 17.7314 2.78361C17.6911 2.76348 17.6466 2.753 17.6015 2.753C17.5564 2.753 17.5119 2.76348 17.4716 2.78361C17.4312 2.80374 17.3961 2.83297 17.369 2.869L14.113 6.125C14.077 6.15212 14.0477 6.18724 14.0276 6.22758C14.0075 6.26793 13.997 6.31241 13.997 6.3575C13.997 6.40259 14.0075 6.44707 14.0276 6.48742C14.0477 6.52776 14.077 6.56288 14.113 6.59C14.143 6.61159 14.1772 6.62677 14.2134 6.6346C14.2495 6.64243 14.2869 6.64275 14.3232 6.63553C14.3595 6.62831 14.3939 6.61371 14.4243 6.59263C14.4547 6.57155 14.4805 6.54445 14.5 6.513Z" fill="#A4A4A4" />
</svg>