<svg width="18" height="17" viewBox="0 0 18 17" fill="none" xmlns="http://www.w3.org/2000/svg" >
    <path d="M1.82783 11.2557H6.18733L6.18733 15.4777C6.18733 15.6477 6.25709 15.8107 6.38128 15.9309C6.50546 16.0511 6.67388 16.1187 6.84951 16.1187C7.02513 16.1187 7.19358 16.0511 7.31777 15.9309C7.44195 15.8107 7.51172 15.6477 7.51172 15.4777L7.51172 10.6107C7.51172 10.4407 7.44195 10.2776 7.31777 10.1574C7.19358 10.0372 7.02513 9.96967 6.84951 9.96967H1.82783C1.65221 9.96967 1.48379 10.0372 1.3596 10.1574C1.23542 10.2776 1.16565 10.4407 1.16565 10.6107C1.16565 10.7807 1.23542 10.9437 1.3596 11.0639C1.48379 11.1841 1.65221 11.2516 1.82783 11.2516V11.2557Z" fill="#001662" />
    <path d="M11.2888 6.95776L16.3105 6.95776C16.4861 6.95776 16.6545 6.89023 16.7787 6.77002C16.9029 6.64981 16.9727 6.48678 16.9727 6.31677C16.9727 6.14677 16.9029 5.98374 16.7787 5.86353C16.6545 5.74331 16.4861 5.67578 16.3105 5.67578L11.951 5.67578V1.45776C11.951 1.28776 11.8812 1.12473 11.757 1.00452C11.6328 0.884306 11.4644 0.816772 11.2888 0.816772C11.1132 0.816772 10.9448 0.884306 10.8206 1.00452C10.6964 1.12473 10.6266 1.28776 10.6266 1.45776V6.32074C10.6277 6.49005 10.698 6.65208 10.822 6.77142C10.9461 6.89077 11.1139 6.95777 11.2888 6.95776Z" fill="#001662" />
    <path d="M10.8206 6.76965C10.882 6.82922 10.955 6.87645 11.0353 6.90869C11.1156 6.94093 11.2017 6.95752 11.2886 6.95752C11.3755 6.95752 11.4616 6.94093 11.5419 6.90869C11.6222 6.87645 11.6952 6.82922 11.7566 6.76965L17.615 1.09662C17.6771 1.03724 17.7263 0.966609 17.76 0.888733C17.7938 0.810857 17.8113 0.727262 17.8115 0.642822C17.8118 0.558383 17.7948 0.474737 17.7616 0.396667C17.7283 0.318598 17.6795 0.247668 17.6178 0.187927C17.5562 0.128186 17.483 0.0808458 17.4023 0.048584C17.3217 0.0163221 17.2353 -0.000220299 17.1481 -6.10352e-05C17.0608 9.82285e-05 16.9745 0.0169439 16.894 0.0494995C16.8136 0.0820551 16.7405 0.129671 16.6791 0.189636L10.8206 5.86267C10.759 5.9222 10.7102 5.99286 10.6769 6.07068C10.6436 6.14849 10.6264 6.23193 10.6264 6.31616C10.6264 6.4004 10.6436 6.48377 10.6769 6.56158C10.7102 6.6394 10.759 6.71012 10.8206 6.76965Z" fill="#001662" />
    <path d="M11.2888 6.95776L16.3105 6.95776C16.4861 6.95776 16.6545 6.89023 16.7787 6.77002C16.9029 6.64981 16.9727 6.48678 16.9727 6.31677C16.9727 6.14677 16.9029 5.98374 16.7787 5.86353C16.6545 5.74331 16.4861 5.67578 16.3105 5.67578L11.951 5.67578V1.45776C11.951 1.28776 11.8812 1.12473 11.757 1.00452C11.6328 0.884306 11.4644 0.816772 11.2888 0.816772C11.1132 0.816772 10.9448 0.884306 10.8206 1.00452C10.6964 1.12473 10.6266 1.28776 10.6266 1.45776V6.32074C10.6277 6.49005 10.698 6.65208 10.822 6.77142C10.9461 6.89077 11.1139 6.95777 11.2888 6.95776Z" fill="#001662" />
    <path d="M0.523191 16.7418C0.584602 16.8013 0.657553 16.8486 0.737854 16.8809C0.818155 16.9131 0.904233 16.9297 0.991168 16.9297C1.0781 16.9297 1.16418 16.9131 1.24448 16.8809C1.32478 16.8486 1.39773 16.8013 1.45915 16.7418L7.31759 11.0688C7.43491 10.9473 7.49888 10.7865 7.496 10.6202C7.49312 10.454 7.42361 10.2953 7.30214 10.1777C7.18068 10.0602 7.01679 9.99284 6.84504 9.99005C6.67329 9.98726 6.50714 10.0492 6.38167 10.1628L0.524232 15.8358C0.400072 15.9558 0.330223 16.1187 0.330029 16.2886C0.329836 16.4585 0.399305 16.6214 0.523191 16.7418Z" fill="#001662" />
    <path d="M10.8216 6.76965C10.883 6.82922 10.956 6.87645 11.0363 6.90869C11.1166 6.94093 11.2026 6.95752 11.2896 6.95752C11.3765 6.95752 11.4626 6.94093 11.5429 6.90869C11.6232 6.87645 11.6961 6.82922 11.7575 6.76965L17.616 1.09662C17.678 1.03724 17.7273 0.966609 17.761 0.888733C17.7947 0.810857 17.8122 0.727262 17.8125 0.642822C17.8128 0.558383 17.7958 0.474737 17.7626 0.396667C17.7293 0.318598 17.6804 0.247668 17.6188 0.187927C17.5572 0.128186 17.4839 0.0808458 17.4033 0.048584C17.3227 0.0163221 17.2363 -0.000220299 17.1491 -6.10352e-05C17.0618 9.82285e-05 16.9755 0.0169439 16.895 0.0494995C16.8145 0.0820551 16.7415 0.129671 16.6801 0.189636L10.8216 5.86267C10.76 5.9222 10.7112 5.99286 10.6779 6.07068C10.6445 6.14849 10.6274 6.23193 10.6274 6.31616C10.6274 6.4004 10.6445 6.48377 10.6779 6.56158C10.7112 6.6394 10.76 6.71012 10.8216 6.76965Z" fill="#001662"/>
  </svg>