<svg width="14" height="15" viewBox="0 0 14 15" fill="none" xmlns="http://www.w3.org/2000/svg">
<path d="M1.2286 0.593301C1.12665 0.649551 1.03876 0.733926 0.968444 0.846426L0.862976 1.01518L0.852429 3.03666C0.841882 5.32885 0.841882 5.32533 1.08798 5.55033C1.16532 5.62064 1.28837 5.69096 1.36219 5.71205C1.55204 5.76478 5.41923 5.76478 5.60907 5.71205C5.82352 5.65228 6.03094 5.42377 6.08016 5.19174C6.13993 4.91049 6.05907 4.5976 5.8868 4.44643C5.67587 4.2601 5.65126 4.25658 4.38212 4.239L3.19383 4.22143L3.40126 4.03861C4.14305 3.39525 5.02899 2.96283 5.99579 2.77299C6.47391 2.68158 7.35985 2.68861 7.83094 2.79057C9.68719 3.19135 11.2552 4.55893 11.8282 6.27807C12.0145 6.84057 12.0743 7.2308 12.0743 7.91283C12.0743 8.43666 12.0638 8.60541 11.997 8.89018C11.7403 10.0433 11.2763 10.8976 10.4817 11.6956C9.50438 12.673 8.44969 13.1371 7.09969 13.1933C5.27508 13.2671 3.66844 12.5078 2.5786 11.0523C2.29383 10.6726 2.2411 10.6234 2.06532 10.5496C1.79813 10.4371 1.50282 10.5074 1.26376 10.7429C0.964929 11.0312 0.954382 11.3792 1.23915 11.7871C2.5786 13.7031 4.85673 14.8386 7.15594 14.7402C7.80633 14.7085 8.22469 14.6382 8.75204 14.4624C10.5591 13.8613 12.0919 12.5288 12.8864 10.8765C13.7688 9.03432 13.7618 6.79135 12.8618 4.99838C12.0919 3.46205 10.8227 2.2808 9.28641 1.6726C7.51102 0.969473 5.38758 1.09252 3.72821 1.99955C3.27469 2.24564 2.78251 2.59018 2.49071 2.8644L2.35712 2.98744V2.05932C2.35712 1.52494 2.33954 1.07143 2.32196 0.997598C2.23758 0.69877 1.96337 0.515958 1.59774 0.512442C1.43954 0.512442 1.3411 0.533536 1.2286 0.593301Z" fill="#133769"/>
</svg>
