<svg width="12" height="12" viewBox="0 0 12 12" fill="none" xmlns="http://www.w3.org/2000/svg">
    <path fillRule="evenodd" clipRule="evenodd" d="M11.9223 7.87193C11.9088 7.85379 11.8913 7.83906 11.8712 7.82891C11.851 7.81877 11.8288 7.81349 11.8063 7.81349C11.7838 7.81349 11.7615 7.81877 11.7414 7.82891C11.7213 7.83906 11.7037 7.85379 11.6902 7.87193C10.8078 8.62452 9.67016 9.00427 8.51561 8.93161C7.36106 8.85896 6.27928 8.33953 5.49698 7.48218C5.11756 7.06898 4.82562 6.58247 4.63889 6.05223C4.45217 5.52199 4.37457 4.95908 4.4108 4.39773C4.44704 3.83638 4.59635 3.2883 4.84967 2.78681C5.10299 2.28531 5.45504 1.84088 5.88439 1.48052C6.39803 1.07812 6.97326 0.762379 7.58758 0.545634C7.66523 0.545634 7.74202 0.390254 7.74202 0.31213C7.73921 0.271855 7.72203 0.233957 7.69365 0.205408C7.66528 0.176858 7.62761 0.15958 7.58758 0.15675C7.12812 0.0665842 6.66206 0.0146153 6.19413 0.00137005C5.39529 -0.0156612 4.60097 0.126242 3.8568 0.41893C3.11263 0.711619 2.43325 1.14933 1.8577 1.70691C1.28215 2.2645 0.821761 2.93099 0.502961 3.6681C0.18416 4.4052 0.0132304 5.19841 0 6.00216C0.0407219 7.62042 0.71362 9.15736 1.87288 10.2799C3.03214 11.4025 4.58438 12.0203 6.19326 11.9995C7.44644 12.0039 8.67166 11.6269 9.70798 10.918C10.7443 10.2091 11.5433 9.2014 12 8.02732C11.9942 7.96761 11.9665 7.91222 11.9223 7.87193Z" fill="#A4A4A4" />
</svg>