<svg width="21" height="21" viewBox="0 0 21 21" fill="none" xmlns="http://www.w3.org/2000/svg">
<g clip-path="url(#clip0_0_3)">
<path fill-rule="evenodd" clip-rule="evenodd" d="M20.125 2.625C20.6082 2.625 21 3.01675 21 3.5V8.75C21 9.23325 20.6082 9.625 20.125 9.625H14.875C14.3918 9.625 14 9.23325 14 8.75C14 8.26675 14.3918 7.875 14.875 7.875H19.25V3.5C19.25 3.01675 19.6418 2.625 20.125 2.625Z" fill="#14407E"/>
<path fill-rule="evenodd" clip-rule="evenodd" d="M0 12.25C0 11.7668 0.391751 11.375 0.875 11.375H6.125C6.60825 11.375 7 11.7668 7 12.25C7 12.7332 6.60825 13.125 6.125 13.125H1.75V17.5C1.75 17.9832 1.35825 18.375 0.875 18.375C0.391751 18.375 0 17.9832 0 17.5V12.25Z" fill="#14407E"/>
<path fill-rule="evenodd" clip-rule="evenodd" d="M12.4402 3.77761C11.3043 3.44904 10.1036 3.41359 8.95036 3.67454L8.77186 2.88567L8.95035 3.67454C7.79705 3.93549 6.72864 4.48434 5.84482 5.26988C4.96101 6.05543 4.29059 7.05206 3.89613 8.16678C3.73492 8.62234 3.23492 8.86097 2.77936 8.69976C2.32379 8.53855 2.08517 8.03855 2.24638 7.58298C2.73945 6.18958 3.57748 4.9438 4.68224 3.96186L4.68225 3.96186C5.78702 2.97994 7.12252 2.29387 8.56415 1.96768L8.75725 2.82111L8.56415 1.96768C10.0058 1.64149 11.5065 1.68582 12.9264 2.09652C14.3418 2.50591 15.6308 3.26606 16.6739 4.30637L20.7242 8.11222C21.0764 8.44314 21.0936 8.99689 20.7627 9.34906C20.4317 9.70123 19.878 9.71846 19.5258 9.38754L15.4658 5.57254C15.4592 5.56628 15.4526 5.55991 15.4461 5.55344C14.6102 4.71711 13.5761 4.10616 12.4402 3.77761ZM0.237344 11.6507C0.568261 11.2986 1.12201 11.2813 1.47418 11.6122L5.53418 15.4272C5.54085 15.4335 5.54742 15.4399 5.55389 15.4463C6.38979 16.2827 7.42394 16.8936 8.55982 17.2222C9.69572 17.5507 10.8964 17.5862 12.0496 17.3253C13.2029 17.0643 14.2714 16.5154 15.1552 15.7299C16.039 14.9444 16.7094 13.9477 17.1038 12.833C17.265 12.3775 17.765 12.1388 18.2206 12.3C18.6761 12.4612 18.9148 12.9612 18.7536 13.4168C18.2606 14.8101 17.4226 16.056 16.3178 17.0379C15.213 18.0198 13.8775 18.7059 12.4358 19.0321L12.4358 19.0321C10.9942 19.3582 9.49345 19.3139 8.0736 18.9032C6.65824 18.4939 5.36923 17.7338 4.32608 16.6934L0.275823 12.8876C-0.0763461 12.5566 -0.093574 12.0029 0.237344 11.6507Z" fill="#14407E"/>
</g>
<defs>
<clipPath id="clip0_0_3">
<rect width="21" height="21" fill="white"/>
</clipPath>
</defs>
</svg>
