<svg width="26" height="23" viewBox="0 0 26 23" fill="none" xmlns="http://www.w3.org/2000/svg" >
  <path d="M1.82227 20.1951V19.2476H23.6045V20.1951H1.82227Z" fill="#304CB2" />
  <path d="M1.94309 9.47874C1.99314 9.29925 2.09476 9.13889 2.23558 9.01717C2.3764 8.89546 2.55034 8.81766 2.73625 8.79319L2.56834 5.47329L5.0704 5.95869L7.09152 9.04738L10.6979 9.72492L9.58318 2.40598L12.7137 4.48189L15.9517 10.7452L19.9176 11.5186C20.7128 11.6115 21.476 11.8965 22.1404 12.3488C22.8047 12.801 23.3501 13.4068 23.7286 14.113C23.8602 14.3318 23.9261 14.5829 23.9182 14.836C23.9103 15.0892 23.8291 15.3335 23.6842 15.5397C23.3019 16.0175 22.5221 16.1331 21.2971 15.8947L7.11906 13.1287C5.95317 12.8486 4.83847 12.3809 3.81933 11.744C3.58577 11.6009 3.37272 11.4595 3.18017 11.3196C2.25285 10.6472 1.83248 10.026 1.94309 9.47874ZM3.57426 6.63186L3.72554 9.62251L3.27538 9.66455C3.14761 9.67346 3.02132 9.69558 2.89853 9.73053C3.29239 10.2667 3.81062 10.7009 4.40806 10.9952C5.30385 11.5449 6.27914 11.9518 7.29791 12.2007L21.476 14.9666C22.7212 15.2052 22.9422 14.9513 22.9435 14.9496C22.9726 14.9095 22.9785 14.7579 22.8678 14.4949C22.558 13.9223 22.1094 13.4345 21.5633 13.0767C21.0173 12.7188 20.3914 12.5024 19.7436 12.4475L15.327 11.5864L11.9915 5.13504L10.8447 4.37521L11.8391 10.9004L6.52526 9.90315L4.50213 6.81166L3.57426 6.63186Z" fill="#304CB2" />
</svg>