<svg width="15" height="15" viewBox="0 0 15 15" fill="none" xmlns="http://www.w3.org/2000/svg" >
    <path fillRule="evenodd" clipRule="evenodd" d="M7.15 1.96809C3.88801 1.96809 1.3 4.47515 1.3 7.49998C1.3 10.5248 3.88801 13.0319 7.15 13.0319C10.412 13.0319 13 10.5248 13 7.49998C13 4.47515 10.412 1.96809 7.15 1.96809ZM0 7.49998C0 3.69648 3.23228 0.668091 7.15 0.668091C11.0677 0.668091 14.3 3.69648 14.3 7.49998C14.3 11.3035 11.0677 14.3319 7.15 14.3319C3.23228 14.3319 0 11.3035 0 7.49998ZM7.15 4.37708C7.50899 4.37708 7.8 4.66809 7.8 5.02708V7.49983C7.8 7.85881 7.50899 8.14983 7.15 8.14983C6.79102 8.14983 6.5 7.85881 6.5 7.49983V5.02708C6.5 4.66809 6.79102 4.37708 7.15 4.37708ZM7.15 9.32239C6.79102 9.32239 6.5 9.6134 6.5 9.97239C6.5 10.3314 6.79102 10.6224 7.15 10.6224H7.157C7.51599 10.6224 7.807 10.3314 7.807 9.97239C7.807 9.6134 7.51599 9.32239 7.157 9.32239H7.15Z" fill="#005AAA" />
</svg>