<svg width="25" height="35" viewBox="0 0 25 35" fill="none" xmlns="http://www.w3.org/2000/svg" >
  <path fillRule="evenodd" clipRule="evenodd" d="M22.905 23.1971L23.8011 23.6452C23.9931 23.7412 24.1145 23.9375 24.1145 24.1522V25.9664C24.1145 26.1812 23.9931 26.3775 23.8011 26.4735L22.5916 27.0783C22.5101 27.119 22.4237 27.1382 22.3385 27.1382C22.1305 27.1383 21.9302 27.0234 21.8309 26.8247C21.6909 26.5447 21.8045 26.2041 22.0845 26.0641L22.9806 25.6161V24.5026L22.338 24.1814L21.6955 24.5026V25.3618C21.6955 25.6749 21.4417 25.9287 21.1285 25.9287C20.8153 25.9287 20.5616 25.6749 20.5616 25.3618V24.1523C20.5616 23.9375 20.683 23.7412 20.875 23.6452L21.7711 23.1971V18.067H19.8812V20.5238C19.8812 22.493 18.9291 24.244 17.4611 25.3407C17.4613 25.344 17.4615 25.3473 17.4617 25.3505C17.462 25.3543 17.4622 25.358 17.4622 25.3618V28.9903C17.4622 29.7716 16.955 30.4362 16.2527 30.6735V31.4471H17.5C17.7122 31.4471 17.9065 31.5655 18.0038 31.754L19.0939 33.8661H19.3143C19.6274 33.8661 19.8812 34.1199 19.8812 34.433C19.8812 34.7462 19.6274 35 19.3143 35H13.8715C13.5583 35 13.3045 34.7462 13.3045 34.433V32.014C13.3045 31.7009 13.5583 31.4471 13.8715 31.4471H15.1188V30.6735C14.4165 30.4362 13.9093 29.7716 13.9093 28.9903V26.5325C13.9033 26.5325 13.8973 26.5328 13.8913 26.533C13.8847 26.5332 13.8781 26.5335 13.8715 26.5335H10.243C10.2363 26.5335 10.2298 26.5332 10.2232 26.533C10.2172 26.5328 10.2112 26.5325 10.2052 26.5325V28.9903C10.2052 29.7716 9.69795 30.4362 8.99568 30.6735V31.4471H10.243C10.5562 31.4471 10.8099 31.7009 10.8099 32.014V34.433C10.8099 34.7462 10.5562 35 10.243 35H4.80022C4.48703 35 4.23326 34.7462 4.23326 34.433C4.23326 34.1199 4.48703 33.8661 4.80022 33.8661H5.02057L6.11064 31.754C6.20793 31.5655 6.40228 31.4471 6.61447 31.4471H7.86177V30.6735C7.1595 30.4362 6.65227 29.7716 6.65227 28.9903V25.3618C6.65227 25.3577 6.65255 25.3536 6.65283 25.3495C6.65303 25.3466 6.65323 25.3436 6.65333 25.3407C5.18537 24.244 4.23326 22.493 4.23326 20.5238V18.067H2.34341V23.1971L3.2395 23.6452C3.43159 23.7412 3.55292 23.9375 3.55292 24.1523V25.3618C3.55292 25.6749 3.29915 25.9287 2.98596 25.9287C2.67278 25.9287 2.41901 25.6749 2.41901 25.3618V24.5027L1.77646 24.1814L1.13391 24.5027V25.6161L2.03008 26.0642C2.31015 26.2042 2.42369 26.5447 2.28362 26.8248C2.18429 27.0234 1.98404 27.1383 1.77608 27.1383C1.69089 27.1383 1.60433 27.1191 1.52292 27.0784L0.313413 26.4736C0.121329 26.3776 0 26.1813 0 25.9665V24.1523C0 23.9375 0.121404 23.7412 0.313413 23.6452L1.2095 23.1971V17.9737C0.507235 17.7365 0 17.0718 0 16.2905C0 15.311 0.796912 14.514 1.77646 14.514H4.23326V13.8715C4.23326 13.5584 4.48703 13.3045 4.80022 13.3045H6.04752V10.243C6.04752 8.27376 6.99962 6.52278 8.46758 5.42606C8.46749 5.42311 8.46729 5.42017 8.46708 5.41722C8.4668 5.41316 8.46652 5.40909 8.46652 5.40497V3.45963C7.76426 3.22242 7.25702 2.5578 7.25702 1.77646C7.25702 0.796911 8.05393 0 9.03348 0C10.013 0 10.8099 0.796911 10.8099 1.77646C10.8099 2.5578 10.3027 3.22242 9.60043 3.45963V4.76053C10.3511 4.42278 11.1822 4.23326 12.0572 4.23326C12.9323 4.23326 13.7634 4.42278 14.514 4.76053V3.45963C13.8118 3.22242 13.3045 2.5578 13.3045 1.77646C13.3045 0.796911 14.1014 0 15.081 0C16.0605 0 16.8575 0.796911 16.8575 1.77646C16.8575 2.5578 16.3502 3.22242 15.648 3.45963V5.40497C15.648 5.40909 15.6477 5.41316 15.6474 5.41722C15.6472 5.42017 15.647 5.42311 15.6469 5.42606C17.1149 6.52278 18.067 8.27376 18.067 10.243V13.3045H19.3143C19.6274 13.3045 19.8812 13.5584 19.8812 13.8715V14.514H22.338C23.3176 14.514 24.1145 15.311 24.1145 16.2905C24.1145 17.0718 23.6072 17.7365 22.905 17.9737V23.1971ZM15.7235 1.77646C15.7235 1.42215 15.4353 1.13391 15.081 1.13391C14.7267 1.13391 14.4384 1.42215 14.4384 1.77646C14.4384 2.13077 14.7267 2.41901 15.081 2.41901C15.4353 2.41901 15.7235 2.13077 15.7235 1.77646ZM9.67603 1.77646C9.67603 1.42215 9.38779 1.13391 9.03348 1.13391C8.67917 1.13391 8.39093 1.42215 8.39093 1.77646C8.39093 2.13077 8.67917 2.41901 9.03348 2.41901C9.38779 2.41901 9.67603 2.13077 9.67603 1.77646ZM6.2966 33.8661H9.67603V32.581H6.95986L6.2966 33.8661ZM14.4384 33.8661H17.8179L17.1546 32.581H14.4384V33.8661ZM21.6955 16.2905C21.6955 16.6448 21.9837 16.933 22.338 16.933C22.6923 16.933 22.9806 16.6448 22.9806 16.2905C22.9806 15.9362 22.6923 15.6479 22.338 15.6479C21.9837 15.6479 21.6955 15.9362 21.6955 16.2905ZM16.933 10.243C16.933 7.55448 14.7457 5.36717 12.0572 5.36717C9.36874 5.36717 7.18143 7.55448 7.18143 10.243V10.8855H16.933V10.243ZM16.933 12.0194H7.18143V13.3045H16.933V12.0194ZM2.41901 16.2905C2.41901 15.9362 2.13077 15.6479 1.77646 15.6479C1.42215 15.6479 1.13391 15.9362 1.13391 16.2905C1.13391 16.6448 1.42215 16.933 1.77646 16.933C2.13077 16.933 2.41901 16.6448 2.41901 16.2905ZM3.55292 16.2905C3.55292 16.5171 3.50983 16.7336 3.43219 16.933H4.23326V15.6479H3.43219C3.50983 15.8474 3.55292 16.0639 3.55292 16.2905ZM7.78618 28.9903C7.78618 29.3446 8.07442 29.6328 8.42873 29.6328C8.78304 29.6328 9.07128 29.3446 9.07128 28.9903C9.07128 28.636 8.78304 28.3477 8.42873 28.3477C8.07442 28.3477 7.78618 28.636 7.78618 28.9903ZM8.42873 27.2138C8.65528 27.2138 8.87186 27.2569 9.07128 27.3345V26.418C8.62293 26.329 8.19287 26.1892 7.78618 26.0062V27.3345C7.9856 27.2569 8.20217 27.2138 8.42873 27.2138ZM5.36717 14.4384V20.5238C5.36717 23.2123 7.55448 25.3996 10.243 25.3996H11.4903V21.0907H9.63823C8.32524 21.0907 7.25702 20.0225 7.25702 18.7095C7.25702 17.3965 8.32524 16.3283 9.63823 16.3283H11.4903V14.4384H5.36717ZM8.39093 18.7095C8.39093 19.3973 8.95048 19.9568 9.63823 19.9568H14.4762C15.164 19.9568 15.7235 19.3973 15.7235 18.7095C15.7235 18.0217 15.164 17.4622 14.4762 17.4622H9.63823C8.95048 17.4622 8.39093 18.0217 8.39093 18.7095ZM15.0432 28.9903C15.0432 29.3446 15.3314 29.6328 15.6857 29.6328C16.0401 29.6328 16.3283 29.3446 16.3283 28.9903C16.3283 28.636 16.0401 28.3477 15.6857 28.3477C15.3314 28.3477 15.0432 28.636 15.0432 28.9903ZM15.6857 27.2138C15.9123 27.2138 16.1289 27.2569 16.3283 27.3345V26.0062C15.9216 26.1892 15.4915 26.329 15.0432 26.418V27.3345C15.2426 27.2569 15.4592 27.2138 15.6857 27.2138ZM13.8715 25.3996C16.56 25.3996 18.7473 23.2123 18.7473 20.5238V14.4384H12.6242V16.3283H14.4762C15.7892 16.3283 16.8575 17.3965 16.8575 18.7095C16.8575 20.0225 15.7892 21.0907 14.4762 21.0907H12.6242V25.3996H13.8715ZM20.6823 15.6479H19.8812V16.933H20.6823C20.6046 16.7336 20.5616 16.5171 20.5616 16.2905C20.5616 16.0639 20.6046 15.8474 20.6823 15.6479ZM10.2427 9.60048C10.5559 9.60048 10.8097 9.34664 10.8097 9.03353V8.42877C10.8097 8.11566 10.5559 7.86182 10.2427 7.86182C9.92955 7.86182 9.67578 8.11566 9.67578 8.42877V9.03353C9.67578 9.34664 9.92955 9.60048 10.2427 9.60048ZM13.8716 9.60048C14.1848 9.60048 14.4386 9.34664 14.4386 9.03353V8.42877C14.4386 8.11566 14.1848 7.86182 13.8716 7.86182C13.5585 7.86182 13.3047 8.11566 13.3047 8.42877V9.03353C13.3047 9.34664 13.5585 9.60048 13.8716 9.60048Z" fill="grey"/>
</svg>