<svg width="13" height="10" viewBox="0 0 13 10" fill="none" xmlns="http://www.w3.org/2000/svg">
<path fill-rule="evenodd" clip-rule="evenodd" d="M1.15958 5.00004C1.21878 5.10234 1.29726 5.23271 1.39448 5.38325C1.64421 5.76992 2.01402 6.28412 2.49414 6.79625C3.46426 7.83104 4.8206 8.79173 6.50005 8.79173C8.17949 8.79173 9.53583 7.83104 10.506 6.79625C10.9861 6.28412 11.3559 5.76992 11.6056 5.38325C11.7028 5.23271 11.7813 5.10234 11.8405 5.00004C11.7813 4.89773 11.7028 4.76736 11.6056 4.61682C11.3559 4.23015 10.9861 3.71595 10.506 3.20382C9.53583 2.16903 8.17949 1.20834 6.50005 1.20834C4.8206 1.20834 3.46426 2.16903 2.49414 3.20382C2.01402 3.71595 1.64421 4.23015 1.39448 4.61682C1.29726 4.76736 1.21878 4.89773 1.15958 5.00004ZM12.4584 5.00004C12.9429 4.75779 12.9428 4.75761 12.9427 4.75741L12.9418 4.75567L12.94 4.75197L12.9338 4.73994C12.9287 4.72989 12.9214 4.71583 12.9119 4.69802C12.8931 4.66241 12.8657 4.61178 12.83 4.54828C12.7586 4.42134 12.6535 4.24252 12.5157 4.02908C12.2406 3.60324 11.8318 3.03409 11.2963 2.46288C10.2351 1.331 8.6123 0.125 6.50005 0.125C4.3878 0.125 2.76495 1.331 1.7038 2.46288C1.16829 3.03409 0.759458 3.60324 0.484435 4.02908C0.346588 4.24252 0.241472 4.42134 0.170069 4.54828C0.134347 4.61178 0.107002 4.66241 0.0881587 4.69802C0.0787355 4.71583 0.0714329 4.72989 0.0662669 4.73994L0.06012 4.75197L0.0582507 4.75567L0.0576176 4.75693C0.057518 4.75713 0.0571857 4.75779 0.541671 5.00004L0.0571857 4.75779C-0.0190619 4.91029 -0.0190619 5.08978 0.0571857 5.24228L0.541671 5.00004C0.0571857 5.24228 0.0570862 5.24208 0.0571857 5.24228L0.0582507 5.2444L0.06012 5.2481L0.0662669 5.26013C0.0714329 5.27018 0.0787355 5.28424 0.0881587 5.30205C0.107002 5.33766 0.134347 5.38829 0.170069 5.4518C0.241472 5.57873 0.346588 5.75755 0.484435 5.97099C0.759458 6.39683 1.16829 6.96598 1.7038 7.53719C2.76495 8.66907 4.3878 9.87507 6.50005 9.87507C8.6123 9.87507 10.2351 8.66907 11.2963 7.53719C11.8318 6.96598 12.2406 6.39683 12.5157 5.97099C12.6535 5.75755 12.7586 5.57873 12.83 5.4518C12.8657 5.38829 12.8931 5.33766 12.9119 5.30205C12.9214 5.28424 12.9287 5.27018 12.9338 5.26013L12.94 5.2481L12.9418 5.2444L12.9425 5.24314C12.9426 5.24294 12.9429 5.24228 12.4584 5.00004ZM12.4584 5.00004L12.9429 5.24228C13.0192 5.08978 13.019 4.90991 12.9427 4.75741L12.4584 5.00004Z" fill="black"/>
<path fill-rule="evenodd" clip-rule="evenodd" d="M6.49963 3.91147C5.90132 3.91147 5.41629 4.39649 5.41629 4.99481C5.41629 5.59312 5.90132 6.07815 6.49963 6.07815C7.09794 6.07815 7.58297 5.59312 7.58297 4.99481C7.58297 4.39649 7.09794 3.91147 6.49963 3.91147ZM4.33295 4.99481C4.33295 3.79818 5.303 2.82812 6.49963 2.82812C7.69626 2.82812 8.66631 3.79818 8.66631 4.99481C8.66631 6.19143 7.69626 7.16149 6.49963 7.16149C5.303 7.16149 4.33295 6.19143 4.33295 4.99481Z" fill="black"/>
</svg>
