<svg width="16" height="17" viewBox="0 0 16 17" fill="none" xmlns="http://www.w3.org/2000/svg">
<path fill-rule="evenodd" clip-rule="evenodd" d="M10.4284 0.96207C10.1923 0.683117 10.2996 0.228924 10.6358 0.0787182C10.8039 3.91714e-05 13.5611 0.0286497 13.8364 0.107329C14.405 0.275416 14.8163 0.511453 15.1775 0.869085C15.4242 1.11585 15.6996 1.5307 15.8033 1.80966C16 2.32822 16 2.33895 16 3.91611C16 5.34664 15.9964 5.38956 15.9249 5.48612C15.7854 5.67566 15.671 5.73288 15.4457 5.73288C15.2204 5.73288 15.106 5.67566 14.9665 5.48612C14.895 5.39313 14.8914 5.33233 14.8735 3.95187C14.8556 2.5893 14.8521 2.50346 14.777 2.32822C14.5409 1.74528 14.1297 1.37335 13.5611 1.22672C13.3966 1.1838 13.0926 1.17307 12.0591 1.17307C10.6322 1.17307 10.6036 1.1695 10.4284 0.96207ZM0.0322242 2.46055C0.22176 1.25533 1.1158 0.329062 2.32096 0.0822957C2.49619 0.0465325 2.90744 0.0358035 3.95525 0.0393798C5.30704 0.0465325 5.3571 0.0501088 5.45366 0.121635C5.64319 0.261112 5.70041 0.375554 5.70041 0.600862C5.70041 0.82617 5.64319 0.940613 5.45366 1.08009C5.36068 1.15162 5.29988 1.15519 3.91949 1.17307C2.71433 1.19096 2.45685 1.20168 2.33526 1.25175C1.78096 1.46991 1.45553 1.7882 1.23738 2.32823C1.16229 2.50346 1.15871 2.5893 1.14083 3.95187C1.12295 5.33233 1.11937 5.39313 1.04785 5.48612C0.90838 5.67566 0.793943 5.73288 0.568646 5.73288C0.343349 5.73288 0.228912 5.67566 0.0894425 5.48612C0.0179196 5.39313 0.0143435 5.33591 0.00361504 4.05916C-0.00353725 3.16151 0.00361504 2.64294 0.0322242 2.46055ZM7.34504 3.51288C6.30081 3.67739 5.40677 4.14947 4.68797 4.90765C3.3648 6.30599 3.06082 8.34091 3.91552 10.0575C4.66651 11.5703 6.15061 12.5324 7.8457 12.6039C10.1487 12.7004 12.18 11.0017 12.5305 8.68067C12.8237 6.76733 11.7866 4.80751 10.0272 3.94204C9.17245 3.52361 8.22478 3.36983 7.34504 3.51288ZM8.48941 5.80173C9.51219 6.01273 10.2954 6.98191 10.2954 8.03693C10.2954 9.34228 9.18676 10.3866 7.87789 10.315C7.29498 10.2829 6.8122 10.0611 6.37949 9.62839C5.68929 8.93816 5.52479 7.89745 5.96823 7.0141C6.44028 6.08068 7.46306 5.58715 8.48941 5.80173ZM6.97024 7.55527C7.12044 7.2477 7.41011 7.01167 7.73911 6.92583C7.7999 6.90795 7.95368 6.90438 8.08242 6.91153C8.49725 6.93656 8.80838 7.13684 9.01222 7.50877C9.12308 7.7162 9.13381 7.75912 9.13381 8.03807C9.13381 8.31702 9.12308 8.35994 9.01222 8.56737C8.87632 8.81771 8.76189 8.925 8.49368 9.06805C8.3399 9.14673 8.2648 9.16103 8.00732 9.16103C7.72838 9.16461 7.68547 9.15388 7.47805 9.04302C7.2313 8.91069 7.08468 8.75691 6.96309 8.50299C6.84507 8.26338 6.84865 7.80203 6.97024 7.55527ZM0.336158 10.3777C0.189536 10.4421 0.0393376 10.6245 0.0143046 10.7675C0 10.8319 -0.00357614 11.5114 0.00357614 12.2768L0.00358402 12.2776C0.0178807 13.7574 0.0179162 13.761 0.210993 14.2688C0.314701 14.5477 0.590064 14.9626 0.836818 15.2093C1.08357 15.4561 1.4984 15.7315 1.77734 15.8352C2.29588 16.0319 2.30661 16.0319 3.88369 16.0319C5.31415 16.0319 5.35706 16.0283 5.45362 15.9568C5.64316 15.8173 5.70037 15.7029 5.70037 15.4776C5.70037 15.2523 5.64316 15.1378 5.45362 14.9983C5.36064 14.9268 5.29985 14.9232 3.91945 14.9054C2.55694 14.8875 2.47112 14.8839 2.29588 14.8088C1.75589 14.5906 1.43761 14.2652 1.21947 13.7109C1.1694 13.5893 1.15867 13.3318 1.14079 12.1266C1.12291 10.7461 1.11933 10.6853 1.04781 10.5923C1.00847 10.5387 0.933374 10.46 0.883308 10.4242C0.765295 10.3348 0.479203 10.3098 0.336158 10.3777ZM14.9128 10.696C14.9628 10.5637 15.0808 10.4385 15.2131 10.3777C15.3562 10.3098 15.6387 10.3348 15.7603 10.4242C15.8104 10.46 15.8855 10.5387 15.9248 10.5923C15.9963 10.6889 15.9999 10.7318 15.9999 12.1623C15.9999 13.7395 15.9999 13.7502 15.8032 14.2688C15.6995 14.5477 15.4241 14.9626 15.1774 15.2093C14.9306 15.4561 14.5158 15.7315 14.2369 15.8352C13.7183 16.0319 13.7076 16.0319 12.1305 16.0319C10.7001 16.0319 10.6571 16.0283 10.5606 15.9568C10.371 15.8173 10.3138 15.7029 10.3138 15.4776C10.3138 15.2523 10.371 15.1378 10.5606 14.9983C10.6536 14.9268 10.7144 14.9232 12.0948 14.9054C13.4573 14.8875 13.5431 14.8839 13.7183 14.8088C14.3191 14.5656 14.7268 14.0935 14.8377 13.5142C14.8591 13.4069 14.8734 12.7703 14.8734 12.0586C14.8734 11.2539 14.8877 10.7604 14.9128 10.696Z" fill="#133769"/>
</svg>
