<svg width="16" height="18" viewBox="0 0 16 18" fill="none" xmlns="http://www.w3.org/2000/svg">
<path d="M6.8578 16.3017C6.9363 16.4101 7.05466 16.4828 7.18682 16.504C7.31897 16.5251 7.4541 16.4929 7.56249 16.4144C7.67088 16.3359 7.74364 16.2175 7.76477 16.0854C7.7859 15.9532 7.75367 15.8181 7.67516 15.7097L6.54714 14.1435C7.92268 14.5497 9.40132 14.4166 10.6822 13.7713C11.6384 13.2135 12.376 12.3466 12.7737 11.3135C13.3976 11.309 13.9978 11.0734 14.4581 10.6521C14.9184 10.2308 15.2062 9.65391 15.2659 9.0328C15.3255 8.41169 15.1528 7.7905 14.7811 7.28931C14.4094 6.7881 13.8651 6.44248 13.2534 6.31935C12.6417 6.19612 12.0061 6.304 11.4693 6.6222C10.9326 6.94037 10.5328 7.44624 10.3473 8.04201C10.1619 8.63778 10.2039 9.28116 10.4652 9.84777C10.7265 10.4144 11.1886 10.864 11.7622 11.1098C11.4387 11.8589 10.8844 12.4851 10.18 12.897C9.03758 13.4396 7.7281 13.5137 6.53176 13.1032L8.65375 12.016C8.7728 11.955 8.86276 11.8493 8.90384 11.722C8.94492 11.5948 8.93377 11.4564 8.87283 11.3374C8.81189 11.2183 8.70616 11.1284 8.57889 11.0873C8.45163 11.0462 8.31325 11.0574 8.19421 11.1183L5.01348 12.7474C4.94675 12.7793 4.88791 12.8255 4.8412 12.8828C4.79449 12.9402 4.76108 13.0071 4.74335 13.0789C4.72563 13.1507 4.72405 13.2255 4.73873 13.298C4.75341 13.3704 4.78397 13.4387 4.82823 13.498L6.8578 16.3017ZM11.2542 8.59463C11.2959 8.2985 11.4244 8.02136 11.6235 7.79826C11.8226 7.57515 12.0834 7.41611 12.373 7.34124C12.6625 7.26636 12.9677 7.27903 13.25 7.37762C13.5324 7.47621 13.7791 7.6563 13.9591 7.89513C14.1391 8.13396 14.2442 8.42079 14.2611 8.71935C14.2781 9.01791 14.2061 9.31479 14.0544 9.57246C13.9026 9.83012 13.6778 10.037 13.4084 10.1669C13.1391 10.2968 12.8373 10.344 12.5411 10.3023C12.1448 10.2456 11.7872 10.0342 11.5463 9.71438C11.3055 9.39459 11.2012 8.99243 11.2561 8.5959L11.2542 8.59463Z" fill="black"/>
<path d="M9.03135 1.53838C8.95285 1.42999 8.8345 1.35723 8.70234 1.3361C8.57019 1.31497 8.43506 1.3472 8.32666 1.42571C8.21827 1.50421 8.14552 1.62256 8.12439 1.75471C8.10326 1.88686 8.13549 2.02199 8.214 2.13038L9.34202 3.6966C7.96648 3.29036 6.48784 3.42342 5.20694 4.06872C4.2508 4.6266 3.51317 5.49345 3.11549 6.52653C2.49152 6.53105 1.89138 6.76671 1.43107 7.18796C0.97075 7.60922 0.682944 8.18616 0.623276 8.80727C0.563609 9.42838 0.736316 10.0496 1.10802 10.5508C1.47971 11.052 2.02402 11.3976 2.63573 11.5207C3.24743 11.6439 3.88308 11.5361 4.41984 11.2179C4.95659 10.8997 5.35634 10.3938 5.54181 9.79806C5.72727 9.20228 5.68529 8.55891 5.42396 7.99229C5.16265 7.42567 4.70056 6.97604 4.127 6.73029C4.45042 5.98117 5.00475 5.355 5.70913 4.94311C6.85158 4.40042 8.16105 4.3264 9.35739 4.73685L7.23541 5.8241C7.11636 5.88503 7.0264 5.99076 6.98532 6.11802C6.94424 6.24528 6.95539 6.38366 7.01632 6.5027C7.07727 6.62174 7.183 6.7117 7.31027 6.75278C7.43753 6.79387 7.57591 6.78272 7.69495 6.72178L10.8757 5.09262C10.9424 5.06077 11.0012 5.01453 11.048 4.95723C11.0947 4.89991 11.1281 4.83295 11.1458 4.76117C11.1635 4.68938 11.1651 4.61457 11.1504 4.54211C11.1357 4.46964 11.1052 4.40133 11.0609 4.3421L9.03135 1.53838ZM4.63491 9.24543C4.59329 9.54156 4.46479 9.81871 4.26566 10.0418C4.06653 10.2649 3.80571 10.424 3.5162 10.4988C3.22667 10.5737 2.92144 10.561 2.63911 10.4624C2.35678 10.3639 2.11003 10.1838 1.93006 9.94494C1.75008 9.70611 1.64497 9.41928 1.62802 9.12071C1.61106 8.82216 1.68302 8.52527 1.8348 8.26761C1.98658 8.00995 2.21136 7.80308 2.48072 7.67316C2.75007 7.54324 3.05189 7.49611 3.34803 7.53773C3.74432 7.59449 4.10199 7.80589 4.34282 8.12569C4.58364 8.44547 4.688 8.84763 4.63307 9.24417L4.63491 9.24543Z" fill="black"/>
</svg>
