<?xml version="1.0" encoding="utf-8"?>
<!-- Generator: Adobe Illustrator 23.0.0, SVG Export Plug-In . SVG Version: 6.00 Build 0)  -->
<svg version="1.1" id="Layer_1" xmlns="http://www.w3.org/2000/svg" height="50px" width="50px" xmlns:xlink="http://www.w3.org/1999/xlink" x="0px" y="0px"
	 viewBox="0 0 14.2 14.2" style="enable-background:new 0 0 14.2 14.2;" xml:space="preserve">
<style type="text/css">
	.st0{fill:#FF6A6A;}
</style>
<g id="Group_41529" transform="translate(7.245 -4.812) rotate(45)">
	<g id="Path_47704">
		<path class="st0" d="M8.8,17.1c-0.1,0.1-0.3,0.2-0.5,0.2c-0.4,0-0.7-0.3-0.7-0.7L7.6,0c0-0.4,0.3-0.7,0.7-0.7S9.1-0.4,9.1,0
			l0,16.6C9.1,16.8,9,17,8.8,17.1z"/>
	</g>
	<g id="Path_47705">
		<path class="st0" d="M17.1,9.3c-0.1,0.1-0.3,0.2-0.5,0.2L0,9.5c-0.4,0-0.7-0.3-0.7-0.7S-0.4,8,0,8l16.6,0c0.4,0,0.7,0.3,0.7,0.7
			C17.4,9,17.3,9.1,17.1,9.3z"/>
	</g>
</g>
</svg>
