<svg width="18" height="18" viewBox="0 0 18 18" fill="none" xmlns="http://www.w3.org/2000/svg">
<path d="M15.3756 0.393728C14.71 0.534353 14.124 0.810915 13.6178 1.21873C13.4631 1.3406 12.6662 2.11404 11.8459 2.93904L10.3506 4.43435L9.9709 4.34529C9.75996 4.29842 9.20684 4.17185 8.74277 4.07342C8.27871 3.97029 6.74121 3.63279 5.3209 3.31873C2.46621 2.68592 2.32559 2.66717 1.9084 2.86873C1.55684 3.04685 0.450586 4.16717 0.380273 4.42498C0.314648 4.65935 0.314648 4.79998 0.380273 5.02967C0.488086 5.41404 0.586523 5.47498 3.56309 6.96092C5.0959 7.72498 6.36152 8.35779 6.37559 8.37185C6.38496 8.38123 5.91152 8.87342 5.31621 9.46873L4.23809 10.5469L3.11309 10.6594C1.78184 10.7953 1.7584 10.8 1.53809 10.9453C1.14434 11.1984 0.989648 11.7844 1.20527 12.2062C1.33652 12.4547 1.35059 12.4687 2.62559 13.364C3.23027 13.7953 3.76934 14.1937 3.82559 14.2547C3.87715 14.3109 4.28027 14.864 4.71152 15.4828C5.14746 16.0969 5.56934 16.65 5.64902 16.7062C5.72871 16.7672 5.89277 16.8469 6.01465 16.875C6.43652 16.9922 6.90527 16.7672 7.11152 16.35C7.1959 16.1812 7.23809 15.9187 7.33652 14.9484L7.4584 13.7531L8.53184 12.675C9.12246 12.0844 9.61465 11.6109 9.62402 11.6203C9.63809 11.6344 10.2803 12.9094 11.0537 14.4609C12.5678 17.489 12.5818 17.5125 12.9943 17.625C13.2334 17.6859 13.4912 17.6578 13.7115 17.5406C13.9787 17.4 14.9912 16.3687 15.1271 16.1015C15.3428 15.6797 15.3334 15.6234 14.424 11.489C13.9646 9.42185 13.5943 7.70154 13.5943 7.67342C13.5943 7.6406 14.3068 6.89529 15.1834 6.01873C16.0646 5.13279 16.8521 4.29842 16.9553 4.14373C17.3162 3.60467 17.5225 3.08435 17.6303 2.46092C17.7709 1.62185 17.4006 0.871853 16.6646 0.506227C16.3131 0.33279 15.8396 0.290604 15.3756 0.393728ZM16.2803 1.57029C16.4771 1.7156 16.5615 1.93592 16.524 2.22185C16.4818 2.57342 16.3881 2.85467 16.1865 3.24373C16.0318 3.54373 15.8209 3.7781 14.2693 5.33904C12.4506 7.17654 12.4225 7.20467 12.4225 7.59373C12.4225 7.66404 12.8021 9.45467 13.2662 11.5734C13.7303 13.6922 14.11 15.4734 14.11 15.5297C14.11 15.5953 13.9693 15.7734 13.7115 16.0265C13.4959 16.2422 13.3084 16.4109 13.2943 16.3969C13.285 16.3875 13.0318 15.8812 12.7271 15.2765C12.4271 14.6719 11.7756 13.3875 11.2834 12.4219C10.4256 10.739 10.3834 10.664 10.1771 10.5375C10.0084 10.4297 9.91465 10.4015 9.69433 10.4015C9.54434 10.4015 9.34277 10.4344 9.24434 10.4719C9.0334 10.5609 6.66152 12.9047 6.48809 13.2C6.38496 13.3734 6.35684 13.5234 6.26309 14.4328C6.20215 15 6.14121 15.4781 6.13184 15.4875C6.11777 15.5015 5.78965 15.0656 5.40059 14.5172C5.01152 13.9687 4.62715 13.4531 4.53809 13.3734C4.45371 13.2937 3.95684 12.9281 3.43184 12.5578C2.90684 12.1922 2.48496 11.8828 2.49434 11.8781C2.50371 11.8687 2.96309 11.8172 3.51621 11.7609C4.35059 11.6812 4.56621 11.6437 4.7584 11.55C4.93652 11.4656 5.29277 11.1328 6.21621 10.2047C6.89121 9.52498 7.47246 8.90623 7.51465 8.83123C7.71152 8.43748 7.63652 7.96873 7.32246 7.67342C7.20527 7.56092 6.26777 7.06404 4.3834 6.11717C2.86465 5.34842 1.6084 4.71092 1.59902 4.70154C1.58496 4.68748 1.75371 4.49998 1.96934 4.28435C2.22246 4.02654 2.40059 3.88592 2.46621 3.88592C2.52246 3.88592 4.30371 4.2656 6.42246 4.72967C8.54121 5.19373 10.3506 5.57342 10.435 5.57342C10.7771 5.57342 10.9084 5.4656 12.6803 3.7031C14.2225 2.17029 14.4521 1.96404 14.7521 1.80935C15.399 1.47185 16.0178 1.3781 16.2803 1.57029Z" fill="black"/>
</svg>
