<svg width="18" height="18" viewBox="0 0 18 18" fill="none" xmlns="http://www.w3.org/2000/svg">
<path d="M4.18076 0.0447512C2.15105 0.385972 0.529396 1.94082 0.0826497 3.96704C-0.00881018 4.38213 -0.0299163 5.38821 0.0474728 5.83848C0.571609 8.9939 3.88175 10.8689 6.86827 9.70096C8.46179 9.07832 9.62966 7.66771 9.97439 5.94401C10.0694 5.46208 10.0623 4.48063 9.9568 4.00573C9.49247 1.93378 7.90599 0.393008 5.87277 0.0482683C5.47175 -0.018568 4.5677 -0.0220861 4.18076 0.0447512ZM5.78482 0.607591C7.15672 0.846797 8.40198 1.78252 9.03517 3.04891C9.16884 3.31977 9.3588 3.89316 9.42563 4.23087C9.4995 4.59671 9.48895 5.49374 9.41156 5.86662C9.10904 7.28075 8.2261 8.41347 6.94214 9.03611C5.86573 9.55674 4.72248 9.62709 3.57923 9.24366C2.06311 8.7371 0.888201 7.36518 0.610303 5.78219C0.539949 5.37765 0.543467 4.66707 0.613821 4.24494C0.673622 3.89316 0.856541 3.33033 1.00428 3.03835C1.35254 2.34536 1.9224 1.70513 2.58021 1.27596C3.07972 0.948812 3.57572 0.744782 4.16317 0.625179C4.57474 0.540753 5.35567 0.533717 5.78482 0.607591Z" fill="black"/>
<path d="M4.86655 1.27462C4.63438 1.79173 4.38814 1.99576 3.99416 1.99576C3.74089 1.99576 3.63184 1.95003 3.28359 1.70027C3.13233 1.59122 3.00217 1.50679 2.99514 1.51383C2.9881 1.52086 3.00217 1.68971 3.01976 1.88319C3.06197 2.28773 3.03735 2.44603 2.88961 2.66765C2.6891 2.97017 2.3901 3.07571 1.87651 3.01942C1.68656 2.99832 1.52474 2.98425 1.51771 2.99128C1.51067 2.99832 1.5951 3.12847 1.70415 3.27974C1.9539 3.62799 1.99963 3.73704 1.99963 3.99032C1.99963 4.38431 1.82727 4.59889 1.30313 4.84865L0.961914 5.01398L1.27499 5.16173C1.44736 5.23912 1.64083 5.34465 1.70415 5.3939C1.87651 5.52758 1.99963 5.79844 1.99963 6.0482C1.99963 6.28389 1.92576 6.44922 1.66193 6.80803L1.4966 7.03317L1.91873 7.00855C2.30567 6.98392 2.3514 6.98744 2.52025 7.06131C2.75242 7.15981 2.93534 7.36736 3.00569 7.6136C3.05142 7.76486 3.05142 7.85632 3.02328 8.13071C3.00217 8.31363 2.98459 8.47545 2.98459 8.486C2.98459 8.52821 3.05494 8.49303 3.3258 8.29604C3.68109 8.04276 3.87104 7.98296 4.13135 8.03925C4.23688 8.06035 4.39166 8.12719 4.4796 8.18699C4.61328 8.27845 4.66604 8.35584 4.8173 8.6654C4.9158 8.86592 5.00726 9.03125 5.02133 9.03125C5.0354 9.03125 5.10927 8.89406 5.18314 8.72521C5.41531 8.2081 5.63341 8.03221 6.04497 8.03221C6.30177 8.03221 6.39323 8.06739 6.75555 8.33122C6.8857 8.4262 7.00179 8.50359 7.01234 8.50359C7.02641 8.50359 7.02289 8.31715 7.00882 8.08849C6.98772 7.71913 6.99475 7.65581 7.05455 7.5151C7.14249 7.31811 7.3219 7.1387 7.51889 7.05076C7.65959 6.99096 7.72291 6.98392 8.09227 7.00503C8.32092 7.0191 8.50736 7.02262 8.50736 7.00855C8.50736 6.99799 8.42997 6.88191 8.33499 6.75175C8.07116 6.38942 8.03599 6.29796 8.03599 6.04117C8.03599 5.62607 8.19428 5.42908 8.73249 5.17932L9.08074 5.01398L8.69028 4.82403C8.35961 4.66221 8.28574 4.61296 8.19076 4.47577C8.13096 4.38783 8.06413 4.23305 8.04302 4.12751C7.98674 3.8672 8.04654 3.67724 8.29981 3.32195C8.4159 3.16365 8.50736 3.01942 8.50736 3.00535C8.50736 2.98776 8.43349 2.98776 8.34203 3.00183C8.25057 3.01591 8.05006 3.02646 7.89528 3.02998C7.64552 3.03349 7.58924 3.02294 7.45205 2.93851C7.24451 2.81891 7.15656 2.72041 7.06159 2.50935C6.99123 2.35105 6.98772 2.3018 7.01234 1.91485L7.03696 1.49272L6.81183 1.65806C6.45303 1.92189 6.28769 1.99576 6.05201 1.99576C5.80225 1.99576 5.53139 1.87264 5.39772 1.70027C5.34847 1.63695 5.24646 1.44699 5.16907 1.27814C5.09168 1.1128 5.02133 0.975613 5.01429 0.975613C5.00726 0.975613 4.94042 1.10929 4.86655 1.27462ZM5.60175 2.50231C5.75652 2.55156 5.88316 2.56212 6.13643 2.55156C6.3686 2.54101 6.4671 2.54805 6.4671 2.57619C6.4671 2.68524 6.69926 3.06164 6.85404 3.20586C7.00179 3.34657 7.26913 3.49784 7.45909 3.55764C7.50833 3.57171 7.51185 3.59282 7.48019 3.7089C7.39577 4.01846 7.51185 4.51446 7.74754 4.84513L7.87417 5.02102L7.7405 5.19691C7.67015 5.29189 7.5822 5.44667 7.54703 5.53813C7.46612 5.75271 7.43446 6.11856 7.48019 6.31203C7.50482 6.42108 7.50482 6.4633 7.47316 6.4633C7.36763 6.4633 6.98068 6.68843 6.83645 6.83266C6.69223 6.97689 6.4671 7.36384 6.4671 7.46937C6.4671 7.50103 6.42488 7.50103 6.31935 7.47641C5.96407 7.3955 5.46807 7.51862 5.15852 7.76838L5.02836 7.87039L4.84896 7.74376C4.75398 7.6734 4.58865 7.58546 4.49016 7.54676C4.26502 7.46234 3.89215 7.42716 3.71978 7.47641L3.59315 7.50807L3.49465 7.28293C3.3645 6.98392 3.1077 6.70602 2.83684 6.57235C2.71724 6.51254 2.60467 6.4633 2.58005 6.4633C2.55191 6.4633 2.54487 6.3648 2.55543 6.13263C2.57302 5.72105 2.5097 5.48536 2.29512 5.19691L2.14738 4.99288L2.2318 4.91197C2.28105 4.86624 2.36899 4.72553 2.43231 4.60241C2.53784 4.38783 2.54487 4.34561 2.55191 3.97273L2.55543 3.57171L2.74538 3.49432C3.10067 3.35009 3.35394 3.10033 3.49465 2.74504L3.57556 2.55156L3.97657 2.54805C4.34945 2.54101 4.39166 2.53397 4.60624 2.42844C4.72936 2.36512 4.87007 2.27718 4.9158 2.22793L4.9967 2.1435L5.20073 2.29125C5.30978 2.37216 5.4927 2.47065 5.60175 2.50231Z" fill="black"/>
<path d="M4.53254 3.21363C3.72699 3.42822 3.16064 4.16343 3.16064 4.99361C3.16064 5.52831 3.33653 5.97155 3.69182 6.32684C3.94157 6.5766 4.20892 6.72786 4.55365 6.81581C5.21497 6.98466 5.84464 6.81229 6.33008 6.32684C6.81552 5.84139 6.98789 5.21171 6.81904 4.55038C6.65019 3.89256 6.14716 3.37897 5.49991 3.21012C5.24312 3.14328 4.78933 3.1468 4.53254 3.21363ZM5.56323 3.83979C5.83761 3.97347 6.06274 4.20212 6.19641 4.48706C6.29491 4.69109 6.30898 4.75793 6.30546 5.00417C6.30194 5.40519 6.20345 5.6444 5.92555 5.9223C5.64765 6.2002 5.40845 6.2987 5.00743 6.30222C4.76119 6.30573 4.69436 6.29166 4.49033 6.19317C4.026 5.97507 3.75513 5.57756 3.73051 5.07804C3.71996 4.84587 3.73051 4.75441 3.79383 4.58907C3.93102 4.21971 4.18429 3.9594 4.55365 3.80462C4.84562 3.68149 5.27126 3.69557 5.56323 3.83979Z" fill="black"/>
<path d="M12.3719 11.0535C11.5663 11.2681 11 12.0033 11 12.8335C11 13.3682 11.1759 13.8114 11.5312 14.1667C11.7809 14.4164 12.0483 14.5677 12.393 14.6557C13.0543 14.8245 13.684 14.6521 14.1694 14.1667C14.6549 13.6812 14.8272 13.0516 14.6584 12.3902C14.4895 11.7324 13.9865 11.2188 13.3393 11.05C13.0825 10.9831 12.6287 10.9866 12.3719 11.0535ZM13.4026 11.6796C13.677 11.8133 13.9021 12.042 14.0358 12.3269C14.1343 12.5309 14.1483 12.5978 14.1448 12.844C14.1413 13.245 14.0428 13.4842 13.7649 13.7621C13.487 14.04 13.2478 14.1385 12.8468 14.1421C12.6005 14.1456 12.5337 14.1315 12.3297 14.033C11.8654 13.8149 11.5945 13.4174 11.5699 12.9179C11.5593 12.6857 11.5699 12.5943 11.6332 12.4289C11.7704 12.0596 12.0236 11.7992 12.393 11.6445C12.685 11.5213 13.1106 11.5354 13.4026 11.6796Z" fill="black"/>
<path d="M10.4072 2.62874V2.91016H10.6886H10.9701V2.62874V2.34732H10.6886H10.4072V2.62874Z" fill="black"/>
<path d="M11.4624 2.62874V2.91016H11.7438H12.0252V2.62874V2.34732H11.7438H11.4624V2.62874Z" fill="black"/>
<path d="M12.5176 2.62434V2.90224L13.2141 2.91631C13.9071 2.92687 13.9071 2.92687 14.0935 3.02888C14.3046 3.14848 14.484 3.32789 14.6001 3.54951C14.681 3.69725 14.681 3.71836 14.6915 5.10787L14.7021 6.51497L14.2342 6.04711L13.7664 5.58276L13.5623 5.78679L13.3618 5.98731L14.1709 6.79639L14.98 7.60547L15.7961 6.78583L16.6157 5.96972L16.4117 5.76921L16.2112 5.56518L15.7363 6.04007L15.2614 6.51497V5.14305C15.2614 4.38321 15.2438 3.70429 15.2262 3.62338C15.0925 3.04647 14.5614 2.51529 13.9845 2.38162C13.9035 2.36403 13.5412 2.34644 13.1789 2.34644H12.5176V2.62434Z" fill="black"/>
<path d="M12.3244 7.97991C10.2032 8.26836 8.49711 9.85135 8.04685 11.9514C7.93077 12.4967 7.92725 13.4676 8.04333 13.9882C8.2755 15.0295 8.76446 15.9124 9.49966 16.616C10.161 17.2492 10.8927 17.6467 11.8424 17.8894C12.1907 17.9773 12.2716 17.9844 12.9575 17.9844C13.538 17.9844 13.7596 17.9703 13.9953 17.9211C14.4385 17.8261 14.8817 17.6678 15.2898 17.4567C16.6335 16.7567 17.5833 15.5184 17.9175 14.0234C18.0089 13.6153 18.0301 12.6093 17.9527 12.1555C17.6114 10.1081 16.0496 8.48294 14.0023 8.04674C13.6083 7.96232 12.7148 7.92714 12.3244 7.97991ZM13.9249 8.60607C14.0902 8.64476 14.3435 8.71863 14.4877 8.76788C15.9898 9.31313 17.119 10.6569 17.3933 12.2329C17.4778 12.7253 17.4461 13.5731 17.3265 14.0269C17.1014 14.8888 16.7355 15.536 16.1375 16.134C15.5395 16.7321 14.8923 17.0979 14.0304 17.323C13.5767 17.4426 12.7289 17.4743 12.2364 17.3899C10.6324 17.1085 9.26397 15.9406 8.7539 14.4174C8.27902 13.0068 8.51822 11.4941 9.39412 10.3157C10.0977 9.37293 11.1248 8.75381 12.3244 8.5533C12.7113 8.48998 13.5309 8.5146 13.9249 8.60607Z" fill="black"/>
<path d="M2.19335 11.2122L1.38428 12.0213L1.5883 12.2218L1.78881 12.4258L2.2637 11.9509L2.73859 11.476V12.8479C2.73859 13.6078 2.75618 14.2867 2.77376 14.3676C2.90744 14.9445 3.43861 15.4757 4.01551 15.6094C4.09642 15.6269 4.45874 15.6445 4.82458 15.6445H5.48239V15.3666V15.0887L4.7894 15.0747L4.0929 15.0641L3.90294 14.9586C3.66374 14.8284 3.46323 14.5998 3.37177 14.357C3.30494 14.1741 3.30142 14.0862 3.30142 12.8198V11.476L3.76927 11.9439L4.23361 12.4082L4.43763 12.2042L4.63814 12.0037L3.83611 11.2016C3.3964 10.7619 3.03056 10.4031 3.02 10.4031C3.00945 10.4031 2.63657 10.7654 2.19335 11.2122Z" fill="black"/>
<path d="M5.97461 15.3631V15.6445H6.25602H6.53744V15.3631V15.0817H6.25602H5.97461V15.3631Z" fill="black"/>
<path d="M7.03027 15.3631V15.6445H7.31169H7.5931V15.3631V15.0817H7.31169H7.03027V15.3631Z" fill="black"/>
</svg>
