<svg width="17" height="14" viewBox="0 0 17 14" fill="none" xmlns="http://www.w3.org/2000/svg">
<path d="M0.388591 0.890208C0.251861 0.953031 0.0929589 1.11932 0.0412232 1.25605C0.01166 1.32996 0.0005738 3.19984 0.0005738 7.31651C0.0005738 13.9978 -0.025294 13.4028 0.270338 13.6393L0.414459 13.7539H8.5H16.5855L16.726 13.643C16.7999 13.5802 16.8923 13.4731 16.9292 13.4028C16.9957 13.2809 16.9994 13.0481 16.9994 7.30543C16.9994 0.613053 17.0253 1.20801 16.7297 0.971507L16.5855 0.85695L8.54434 0.849559C1.87784 0.842168 0.480976 0.849559 0.388591 0.890208ZM16.4858 1.35213L16.5929 1.4593V7.30543V13.1516L16.4858 13.2587L16.3786 13.3659H8.5H0.621401L0.514235 13.2587L0.407068 13.1516V7.30543V1.4593L0.514235 1.35213L0.621401 1.24497H8.5H16.3786L16.4858 1.35213Z" fill="black"/>
<path d="M4.07984 2.25529C2.59799 2.63961 1.59653 4.00322 1.67414 5.52942C1.73696 6.73042 2.39843 7.74666 3.45532 8.26402C4.00963 8.53748 4.1981 8.57812 4.89653 8.57812C5.58387 8.57812 5.77973 8.53748 6.30448 8.28249C7.17289 7.86122 7.76785 7.13692 8.03023 6.17611C8.14479 5.75114 8.14479 5.00837 8.02653 4.56861C7.71981 3.41934 6.79227 2.51397 5.65408 2.24051C5.19955 2.13334 4.53438 2.14073 4.07984 2.25529ZM5.42497 2.63222C6.33404 2.81699 7.05464 3.39348 7.44266 4.24342C7.77155 4.95663 7.77155 5.80657 7.44266 6.51979C6.78857 7.94621 5.15521 8.57073 3.74726 7.93143C2.97492 7.58037 2.39104 6.88194 2.18041 6.05786C2.09172 5.71419 2.08433 5.10075 2.16193 4.76077C2.5093 3.2937 3.97637 2.33289 5.42497 2.63222Z" fill="black"/>
<path d="M4.3243 3.11016C3.4374 3.35775 2.79071 4.03771 2.60963 4.91352C2.53572 5.26828 2.53572 5.4937 2.60963 5.85585C2.82766 6.93121 3.78107 7.71094 4.8823 7.71094C5.95397 7.71094 6.84087 7.04207 7.15498 5.99258C7.20302 5.83737 7.22149 5.6526 7.2178 5.36436C7.2178 5.02068 7.20302 4.91352 7.11802 4.66223C6.87413 3.94902 6.37525 3.43905 5.66203 3.17298C5.34423 3.05473 4.6458 3.02147 4.3243 3.11016ZM4.69384 4.39616V5.29045L4.05453 5.92975C3.33393 6.65036 3.39306 6.62818 3.20089 6.24386C2.77223 5.38283 3.0346 4.35551 3.82542 3.81229C4.03236 3.66817 4.45364 3.50187 4.61254 3.49818H4.69384V4.39616ZM5.48835 3.57209C6.14613 3.79751 6.64871 4.37029 6.77435 5.03916L6.80022 5.16111H5.95027H5.10033V4.32964V3.49818H5.18533C5.23337 3.49818 5.3701 3.53144 5.48835 3.57209ZM6.77435 5.72281C6.70414 6.10713 6.43437 6.57275 6.14244 6.82404C5.82833 7.09011 5.27771 7.30444 4.89708 7.30444C4.58298 7.30444 4.01388 7.11598 3.80694 6.94229L3.71456 6.86469L4.34277 6.23647L4.97099 5.60456H5.88376H6.80022L6.77435 5.72281Z" fill="black"/>
<path d="M12.1845 2.49416C12.0958 2.59024 12.1069 2.74545 12.203 2.81197C12.2732 2.8637 12.4838 2.87109 13.7292 2.87109C15.3219 2.87109 15.3367 2.8674 15.3367 2.64937C15.3367 2.42765 15.3256 2.42765 13.707 2.42765C12.336 2.42765 12.2399 2.43134 12.1845 2.49416Z" fill="black"/>
<path d="M12.1845 3.86526C12.0958 3.96134 12.1069 4.11654 12.203 4.18306C12.2732 4.2348 12.4838 4.24219 13.7292 4.24219C15.3219 4.24219 15.3367 4.23849 15.3367 4.02046C15.3367 3.79874 15.3256 3.79874 13.707 3.79874C12.336 3.79874 12.2399 3.80243 12.1845 3.86526Z" fill="black"/>
<path d="M12.2024 5.21724C12.1507 5.25419 12.1211 5.31332 12.1211 5.37984C12.1211 5.59787 12.1359 5.60156 13.7286 5.60156C15.3213 5.60156 15.3361 5.59787 15.3361 5.37984C15.3361 5.16181 15.3213 5.15811 13.7286 5.15811C12.4832 5.15811 12.2726 5.1655 12.2024 5.21724Z" fill="black"/>
<path d="M13.0857 7.89091L12.1803 8.65956L11.2934 8.11264C10.4508 7.59159 10.3659 7.54724 10.2365 7.56572C10.207 7.56941 9.74503 8.00547 9.21289 8.53761C8.19296 9.55384 8.14861 9.61297 8.30012 9.76079C8.44794 9.9086 8.51076 9.86056 9.44939 8.92563L10.34 8.03503L11.2121 8.57456C11.6925 8.87389 12.1249 9.12518 12.1729 9.13996C12.269 9.16213 12.2136 9.20278 13.6178 8.01656C13.9652 7.72092 14.2608 7.44377 14.2793 7.39942C14.3052 7.3366 14.2978 7.28856 14.2497 7.21835C14.1241 7.02619 14.0539 7.06684 13.0857 7.89091Z" fill="black"/>
<path d="M13.4513 8.96014L13.3404 9.071V10.5529V12.0347H13.1371H12.9339V11.0739V10.1094L12.8415 10.0207C12.7565 9.93203 12.738 9.92833 12.217 9.92833C11.9251 9.92833 11.6553 9.93942 11.622 9.95051C11.4742 10.0096 11.4557 10.1427 11.4557 11.1109V12.0347H11.2525H11.0492V10.8189C11.0492 9.64748 11.0455 9.60314 10.9716 9.50706L10.8977 9.41098H10.3323C9.53413 9.41098 9.60804 9.26686 9.60804 10.7968V12.0347H9.38631H9.16459V11.3326C9.16459 10.6268 9.16459 10.6268 9.0722 10.5344C8.97982 10.442 8.97612 10.442 8.42181 10.4531C7.67903 10.4679 7.72338 10.4124 7.72338 11.3363V12.0347H7.52752C7.29841 12.0347 7.19494 12.0938 7.19494 12.2306C7.19494 12.456 6.91778 12.4412 11.2747 12.4412C15.177 12.4412 15.262 12.4412 15.299 12.371C15.4061 12.1677 15.2879 12.0347 15.0107 12.0347H14.8186V10.5602V9.08209L14.7299 8.97862C14.6412 8.87514 14.6412 8.87514 14.1016 8.86406L13.5621 8.85297L13.4513 8.96014ZM14.3751 10.6674V12.0347H14.0795H13.7838V10.6674V9.30012H14.0795H14.3751V10.6674ZM10.6427 10.9261V12.0347H10.3286H10.0145V10.9261V9.81747H10.3286H10.6427V10.9261ZM12.4904 11.1848V12.0347H12.1948H11.8992V11.1848V10.3348H12.1948H12.4904V11.1848ZM8.75809 11.4619V12.0347H8.44398H8.12987V11.4619V10.8891H8.44398H8.75809V11.4619Z" fill="black"/>
<path d="M2.48786 10.7628C2.43243 10.8514 2.43243 10.8699 2.48047 10.9586L2.5359 11.0547H4.0658H5.59569L5.65112 10.9586C5.69916 10.8699 5.69916 10.8514 5.64373 10.7628L5.58091 10.6667H4.0658H2.55068L2.48786 10.7628Z" fill="black"/>
<path d="M2.48786 12.1338C2.43243 12.2225 2.43243 12.241 2.48047 12.3297L2.5359 12.4258H4.0658H5.59569L5.65112 12.3297C5.69916 12.241 5.69916 12.2225 5.64373 12.1338L5.58091 12.0378H4.0658H2.55068L2.48786 12.1338Z" fill="black"/>
</svg>
