<svg width="16" height="21" viewBox="0 0 16 21" fill="none" xmlns="http://www.w3.org/2000/svg">
<path d="M2.25429 0.0721474C1.90894 0.253248 1.77416 0.501738 1.74047 1.01135L1.7152 1.37776L1.20559 1.39882C0.797058 1.41567 0.662285 1.43673 0.519088 1.50833C0.29587 1.62625 0.106345 1.85789 0.0473812 2.08953C-0.0157938 2.34645 -0.0157938 19.3868 0.0473812 19.6438C0.102133 19.8712 0.29587 20.107 0.510665 20.2165C0.670708 20.3008 0.784423 20.3008 7.13983 20.3008C13.0151 20.3008 13.6216 20.2966 13.7437 20.2334C14.0975 20.0523 14.2407 19.7954 14.2702 19.2858L14.2912 18.9236L14.8008 18.9025C15.2094 18.8857 15.3442 18.8646 15.4874 18.793C15.7274 18.6709 15.9085 18.435 15.9633 18.1781C15.997 18.0265 16.0054 15.411 15.997 9.30833C15.9843 0.952385 15.9801 0.649145 15.9043 0.505949C15.7948 0.299578 15.6727 0.173227 15.4916 0.0805702C15.3399 0.00476074 15.142 0.000549316 8.85819 0.000549316C3.03345 0.00476074 2.36801 0.00897217 2.25429 0.0721474ZM15.3189 0.644934L15.4368 0.758648V9.43468V18.1107L15.3189 18.2244C15.2094 18.3339 15.1799 18.3424 14.7419 18.355L14.2786 18.3718L14.2702 10.2307C14.2575 2.37172 14.2533 2.08111 14.1775 1.93792C14.068 1.73154 13.9459 1.60519 13.7521 1.50411L13.5837 1.41146L7.9232 1.39882L2.26272 1.3904L2.28378 1.07452C2.30483 0.733379 2.39749 0.573336 2.58702 0.535431C2.63334 0.527006 5.49307 0.518583 8.93821 0.522795L15.2052 0.527006L15.3189 0.644934ZM13.5921 2.0769L13.71 2.19061V10.8666V19.5427L13.5921 19.6564L13.4784 19.7743H7.13983H0.80127L0.687555 19.6564L0.569628 19.5427V10.8709V2.19904L0.670708 2.08953C0.72546 2.03057 0.809693 1.97582 0.860233 1.9674C0.906561 1.95897 3.76628 1.95055 7.21143 1.95476L13.4784 1.95897L13.5921 2.0769Z" fill="black"/>
<path d="M3.92213 3.11935C2.87342 3.40153 2.10269 4.12173 1.74049 5.16201C1.63098 5.47367 1.62256 5.54527 1.62256 6.13069C1.62677 6.70348 1.63519 6.79192 1.74049 7.09938C2.08163 8.12281 2.92396 8.90197 3.96424 9.15888C4.36014 9.25575 5.08034 9.24732 5.49308 9.14203C6.03638 9.00305 6.45334 8.75877 6.89135 8.32497C7.5231 7.68901 7.80528 7.01093 7.80528 6.13069C7.80528 5.25045 7.5231 4.57238 6.88714 3.94063C6.48282 3.53631 6.17116 3.33836 5.6447 3.16147C5.24038 3.02248 4.35593 3.00142 3.92213 3.11935ZM4.42332 4.90931C4.42332 6.18123 4.42753 6.2402 4.50755 6.32022C4.58757 6.40024 4.64653 6.40445 5.91846 6.40445C7.44308 6.40445 7.30831 6.35812 7.15669 6.85089C7.04297 7.22151 6.96295 7.37735 6.71867 7.69743C6.25539 8.31655 5.50571 8.68296 4.69707 8.68296C3.98951 8.68296 3.42936 8.44711 2.90291 7.92065C2.40172 7.42367 2.14902 6.82141 2.14902 6.13069C2.14902 4.9767 2.95345 3.94484 4.08638 3.65002C4.21273 3.61633 4.34329 3.58685 4.37278 3.58685C4.41068 3.58263 4.42332 3.87324 4.42332 4.90931ZM5.52677 3.7132C5.88055 3.83112 6.22591 4.05013 6.50388 4.33231C6.82818 4.66082 7.01349 4.95985 7.13984 5.36417C7.31252 5.90747 7.42202 5.85693 6.10798 5.85693H4.97083V4.71557V3.57421L5.13088 3.60369C5.21511 3.62054 5.392 3.66687 5.52677 3.7132Z" fill="black"/>
<path d="M8.49635 4.58298C8.39948 4.68827 8.4079 4.86937 8.50898 4.97045C8.589 5.05048 8.64797 5.05469 10.3116 5.05469C12.2279 5.05469 12.2152 5.05469 12.2152 4.78514C12.2152 4.50296 12.2574 4.50717 10.3116 4.50717C8.67324 4.50717 8.55952 4.51138 8.49635 4.58298Z" fill="black"/>
<path d="M8.49586 6.01657C8.39899 6.12187 8.40741 6.30297 8.50849 6.40405C8.58851 6.48407 8.64748 6.48828 10.3195 6.48828C11.9915 6.48828 12.0505 6.48407 12.1305 6.40405C12.2358 6.29876 12.24 6.10081 12.1389 6.01236C12.0674 5.94919 11.882 5.94076 10.3111 5.94076C8.67275 5.94076 8.55903 5.94498 8.49586 6.01657Z" fill="black"/>
<path d="M8.49635 7.44626C8.39948 7.55155 8.4079 7.73266 8.50898 7.83374C8.589 7.91376 8.64797 7.91797 10.32 7.91797C11.992 7.91797 12.051 7.91376 12.131 7.83374C12.2363 7.72844 12.2405 7.5305 12.1394 7.44205C12.0678 7.37888 11.8825 7.37045 10.3116 7.37045C8.67324 7.37045 8.55952 7.37466 8.49635 7.44626Z" fill="black"/>
<path d="M1.70685 10.5121C1.60156 10.6173 1.63947 10.87 1.77003 10.9374C1.85005 10.9796 2.34703 10.9922 3.84638 10.9922H5.81744L5.91852 10.8869C6.04066 10.769 6.04908 10.6721 5.95643 10.5373L5.89325 10.4447H3.83375C1.98904 10.4447 1.77003 10.4531 1.70685 10.5121Z" fill="black"/>
<path d="M10.7154 11.5535C10.6396 11.6125 10.6354 11.7009 10.627 14.6407C10.6185 17.0245 10.627 17.6857 10.6691 17.7699L10.7238 17.8752L11.6335 17.8879C12.4211 17.8963 12.5517 17.8879 12.6107 17.8289C12.6696 17.7699 12.678 17.4456 12.678 14.6996C12.678 11.7852 12.6738 11.6293 12.6022 11.5661C12.5348 11.503 12.4043 11.4945 11.663 11.4945C10.985 11.4945 10.7828 11.5072 10.7154 11.5535ZM12.1305 14.7165V17.3909H11.6462H11.1618V14.7165V12.0421H11.6462H12.1305V14.7165Z" fill="black"/>
<path d="M1.711 11.9027C1.67309 11.9364 1.64361 12.0332 1.64361 12.1091C1.64361 12.387 1.60149 12.3828 3.82525 12.3828H5.81737L5.91845 12.2775C6.04059 12.1596 6.04901 12.0627 5.95636 11.9279L5.89318 11.8353H3.83368C2.01845 11.8353 1.76996 11.8437 1.711 11.9027Z" fill="black"/>
<path d="M8.24347 13.4717C8.1803 13.5433 8.17188 13.7539 8.17188 15.6449C8.17188 17.0095 8.18872 17.7676 8.21399 17.8223C8.25611 17.8981 8.31086 17.9023 9.17425 17.9023C9.83127 17.9023 10.105 17.8897 10.1429 17.8518C10.1808 17.8139 10.1935 17.2706 10.1935 15.6702C10.1935 13.657 10.1893 13.5306 10.1177 13.4675C10.0503 13.4043 9.91972 13.3959 9.17425 13.3959C8.39088 13.3959 8.30665 13.4043 8.24347 13.4717ZM9.64596 15.6702V17.3969H9.18267H8.71939V15.6702V13.9434H9.18267H9.64596V15.6702Z" fill="black"/>
<path d="M5.77125 14.7015C5.69122 14.7815 5.68701 14.8405 5.68701 16.2766C5.68701 17.578 5.69544 17.7802 5.7544 17.835C5.80915 17.8939 5.95656 17.9023 6.71887 17.9023C7.60332 17.9023 7.62017 17.9023 7.68334 17.8097C7.7423 17.7297 7.75073 17.5107 7.75073 16.2682V14.8236L7.64544 14.7225C7.54436 14.6172 7.54014 14.6172 6.69781 14.6172C5.91023 14.6172 5.85127 14.6215 5.77125 14.7015ZM7.20321 16.2809V17.3969H6.71887H6.23453V16.2809V15.1648H6.71887H7.20321V16.2809Z" fill="black"/>
<path d="M3.28638 15.5859C3.20636 15.6659 3.20215 15.7249 3.20215 16.6936C3.20215 17.5486 3.21478 17.7297 3.26954 17.8097C3.33271 17.9023 3.34956 17.9023 4.23401 17.9023C5.11846 17.9023 5.1353 17.9023 5.19848 17.8097C5.25323 17.7297 5.26586 17.5486 5.26586 16.6936C5.26586 15.7249 5.26165 15.6659 5.18163 15.5859C5.10161 15.5059 5.04265 15.5017 4.23401 15.5017C3.42537 15.5017 3.3664 15.5059 3.28638 15.5859ZM4.71835 16.7231V17.3969H4.23401H3.74967V16.7231V16.0492H4.23401H4.71835V16.7231Z" fill="black"/>
<path d="M3.28638 18.4506C3.24005 18.4969 3.20215 18.5812 3.20215 18.6401C3.20215 18.6991 3.24005 18.7833 3.28638 18.8296C3.37062 18.9139 3.42537 18.9139 7.93185 18.9139C12.9901 18.9139 12.6784 18.9307 12.6784 18.6443C12.6784 18.3453 13.0364 18.3664 7.9487 18.3664C3.42537 18.3664 3.37062 18.3664 3.28638 18.4506Z" fill="black"/>
</svg>
