<svg width="18" height="14" viewBox="0 0 18 14" fill="none" xmlns="http://www.w3.org/2000/svg">
<path d="M16.6521 0.953125H1.34791C0.605143 0.953125 0 1.55827 0 2.30103V11.7012C0 12.444 0.605143 13.0491 1.34791 13.0491H16.6521C17.3949 13.0491 18 12.444 18 11.7012V2.30103C18 1.55827 17.3949 0.953125 16.6521 0.953125ZM17.4906 2.30103V11.7012C17.4906 11.8523 17.4487 11.9907 17.3777 12.1126L11.7743 7.00216L17.3777 1.8896C17.4465 2.01227 17.4906 2.15219 17.4906 2.30103ZM16.6521 1.46402C16.7763 1.46402 16.8952 1.49244 17.0007 1.54256L10.0569 7.87893C9.45549 8.42871 8.54592 8.42871 7.94457 7.87893L0.999266 1.54256C1.10623 1.49244 1.22367 1.46402 1.34783 1.46402H16.6521ZM0.622358 12.1148C0.553541 11.9922 0.50941 11.8523 0.50941 11.7034V2.30094C0.50941 2.14984 0.551299 2.01147 0.622358 1.88954L6.22571 7.00211L0.622358 12.1148ZM1.34793 12.5404C1.22376 12.5404 1.10483 12.512 0.999362 12.4619L6.60424 7.34704L7.59983 8.25662C7.99777 8.62014 8.49968 8.80267 8.99935 8.80267C9.49902 8.80267 10.0009 8.6209 10.3989 8.25662L11.3945 7.34704L16.9993 12.4619C16.8924 12.512 16.7749 12.5404 16.6508 12.5404H1.34793Z" fill="black"/>
</svg>
