<svg width="17" height="16" viewBox="0 0 17 16" fill="none" xmlns="http://www.w3.org/2000/svg">
<path d="M15.863 0.304688H3.05057C2.44046 0.304688 1.94127 0.803872 1.94127 1.41399V2.24596H1.1093C0.499184 2.24596 0 2.74514 0 3.35526V11.675C0 12.2851 0.499184 12.7843 1.1093 12.7843H1.969V15.4189C1.969 15.6407 2.2186 15.7794 2.41272 15.6407L6.2398 12.7843H13.9494C14.5595 12.7843 15.0587 12.2851 15.0587 11.675V10.843H15.8907C16.5008 10.843 17 10.3438 17 9.73373V1.41399C16.9723 0.803872 16.4731 0.304688 15.863 0.304688ZM14.4763 11.675C14.4763 11.9801 14.2268 12.2296 13.9217 12.2296H6.12887C6.07341 12.2296 6.01794 12.2574 5.96248 12.2851L2.52365 14.8642V12.507C2.52365 12.3406 2.41272 12.2296 2.24633 12.2296H1.1093C0.804241 12.2296 0.554649 11.9801 0.554649 11.675V3.35526C0.554649 3.0502 0.804241 2.80061 1.1093 2.80061H13.9494C14.2545 2.80061 14.5041 3.0502 14.5041 3.35526V11.675H14.4763ZM16.4176 9.73373C16.4176 10.0388 16.168 10.2884 15.863 10.2884H15.031V3.35526C15.031 2.74514 14.5318 2.24596 13.9217 2.24596H2.49592V1.41399C2.49592 1.10893 2.74551 0.859337 3.05057 0.859337H15.8907C16.1958 0.859337 16.4454 1.10893 16.4454 1.41399V9.73373H16.4176Z" fill="black"/>
<path d="M5.40749 7.89844H2.49559C2.32919 7.89844 2.21826 8.00937 2.21826 8.17576V10.9767C2.21826 11.1431 2.32919 11.2541 2.49559 11.2541H5.40749C5.57389 11.2541 5.68482 11.1431 5.68482 10.9767V8.17576C5.68482 8.0371 5.57389 7.89844 5.40749 7.89844ZM5.13017 10.6994H2.77291V8.45309H5.13017V10.6994Z" fill="black"/>
<path d="M7.21043 9.2109H10.4551C10.6215 9.2109 10.7325 9.09997 10.7325 8.93357C10.7325 8.76718 10.6215 8.65625 10.4551 8.65625H7.21043C7.04404 8.65625 6.93311 8.76718 6.93311 8.93357C6.93311 9.09997 7.07177 9.2109 7.21043 9.2109Z" fill="black"/>
<path d="M12.5351 9.95312H7.21043C7.04404 9.95312 6.93311 10.0641 6.93311 10.2304C6.93311 10.3968 7.04404 10.5078 7.21043 10.5078H12.5351C12.7015 10.5078 12.8124 10.3968 12.8124 10.2304C12.8124 10.0641 12.7015 9.95312 12.5351 9.95312Z" fill="black"/>
<path d="M5.40749 3.76953H2.49559C2.32919 3.76953 2.21826 3.88046 2.21826 4.04686V6.84783C2.21826 7.01423 2.32919 7.12516 2.49559 7.12516H5.40749C5.57389 7.12516 5.68482 7.01423 5.68482 6.84783V4.04686C5.68482 3.90819 5.57389 3.76953 5.40749 3.76953ZM5.13017 6.57051H2.77291V4.32418H5.13017V6.57051Z" fill="black"/>
<path d="M7.21043 5.07027H10.4551C10.6215 5.07027 10.7325 4.95934 10.7325 4.79295C10.7325 4.62655 10.6215 4.51562 10.4551 4.51562H7.21043C7.04404 4.51562 6.93311 4.62655 6.93311 4.79295C6.93311 4.95934 7.07177 5.07027 7.21043 5.07027Z" fill="black"/>
<path d="M12.5351 5.82031H7.21043C7.04404 5.82031 6.93311 5.93124 6.93311 6.09764C6.93311 6.26403 7.04404 6.37496 7.21043 6.37496H12.5351C12.7015 6.37496 12.8124 6.26403 12.8124 6.09764C12.8124 5.93124 12.7015 5.82031 12.5351 5.82031Z" fill="black"/>
</svg>
