<svg width="19" height="18" viewBox="0 0 19 18" fill="none" xmlns="http://www.w3.org/2000/svg">
<path d="M8.63457 8.18304L8.60912 8.08633C8.66249 8.07229 8.74332 8.02721 9.01095 7.78029C9.27298 7.53854 9.70007 7.11791 10.4418 6.38048C11.0044 5.81998 11.4323 5.38565 11.7263 5.07723C11.8734 4.92292 11.9863 4.80079 12.0656 4.71045C12.1053 4.66522 12.1359 4.62872 12.1579 4.60059C12.1689 4.58653 12.1773 4.57517 12.1834 4.56629C12.1864 4.56188 12.1886 4.55839 12.1903 4.55575C12.1916 4.55351 12.1923 4.55227 12.1925 4.55189C12.2397 4.45135 12.26 4.37072 12.26 4.29436C12.26 4.21784 12.2396 4.13702 12.1921 4.03616L12.1921 4.03607C12.1924 4.03676 12.1926 4.03713 12.1926 4.03714C12.1925 4.03717 12.1903 4.03334 12.1836 4.02425C12.176 4.01394 12.1653 4.00029 12.1511 3.98315C12.1227 3.94895 12.0832 3.9038 12.0335 3.84886C11.9343 3.73915 11.7971 3.59316 11.6341 3.42299C11.3083 3.0828 10.8809 2.64786 10.4507 2.21713C10.0205 1.7864 9.58797 1.36033 9.25196 1.03785C9.08386 0.876522 8.94043 0.741616 8.83371 0.645147C8.78025 0.596821 8.73679 0.558856 8.70442 0.532256C8.68817 0.518899 8.67565 0.509177 8.66662 0.502695C8.66311 0.500178 8.66072 0.498585 8.6593 0.497669C8.59343 0.474445 8.50602 0.463035 8.41536 0.465898C8.32224 0.468838 8.2348 0.486548 8.17245 0.514261C7.8679 0.649618 7.69195 1.01725 7.77705 1.3243L7.77753 1.32617C7.79304 1.38665 7.82426 1.45164 7.96589 1.61328C8.10782 1.77526 8.35018 2.02304 8.77421 2.44922L8.77434 2.44936L9.74544 3.42904L9.91434 3.59944H9.67441H6.55059C4.79713 3.59944 3.92667 3.59952 3.41458 3.63625C3.16005 3.6545 2.99904 3.68155 2.86477 3.72055C2.72994 3.75972 2.61845 3.81184 2.45948 3.88645C1.59199 4.29522 0.998218 5.01054 0.773746 5.90427L0.773696 5.90447C0.735334 6.0559 0.714303 6.16931 0.703137 6.5782C0.691905 6.9895 0.69082 7.69242 0.69082 9.02093C0.69082 10.5987 0.690929 11.3768 0.731264 11.8401C0.751251 12.0697 0.780791 12.2169 0.823349 12.3432C0.866028 12.4698 0.922824 12.5789 1.00428 12.7354L1.00592 12.7385C1.34056 13.3703 2.09209 13.9866 2.87936 14.2588L2.87936 14.2588L2.88047 14.2592C3.0446 14.3181 3.12792 14.3451 3.3022 14.3612C3.48301 14.3779 3.75678 14.3822 4.29847 14.3908L4.30468 14.3909C4.30472 14.3909 4.30475 14.3909 4.30479 14.3909C4.77799 14.3973 5.05982 14.3983 5.24244 14.3909C5.42291 14.3836 5.49837 14.3683 5.56143 14.3457C5.67047 14.3027 5.74654 14.2517 5.80243 14.188C5.85858 14.124 5.89995 14.0408 5.92945 13.9248L5.92944 13.9248L5.92982 13.9234C6.02268 13.5791 5.90213 13.2716 5.63715 13.1167C5.59735 13.0942 5.57021 13.0805 5.53553 13.0698C5.49973 13.0586 5.45172 13.0494 5.371 13.0419C5.20748 13.0268 4.93083 13.0204 4.39162 13.0096L4.39156 13.0096L4.37816 13.0093C3.83339 12.9988 3.55143 12.9934 3.37719 12.9752C3.28733 12.9659 3.22183 12.9528 3.16122 12.9325C3.10207 12.9128 3.05066 12.8871 2.99189 12.8577L2.99152 12.8575C2.66884 12.7006 2.34397 12.3609 2.18459 12.0152L2.06881 11.7708L2.05918 11.7504V11.728V8.99944V6.27093V6.24844L2.06881 6.22812L2.18436 5.98417C2.18444 5.98401 2.18452 5.98384 2.1846 5.98367C2.34398 5.63794 2.66885 5.29831 2.99153 5.14139C2.99171 5.1413 2.99188 5.14122 2.99205 5.14113L3.23165 5.02133L3.25257 5.01087L3.27596 5.01077L6.47714 4.99788H6.47727L9.67844 4.98929L9.92078 4.98864L9.74942 5.16L8.77441 6.13501C8.77432 6.1351 8.77423 6.13519 8.77414 6.13528C8.37422 6.5395 8.13148 6.78978 7.98335 6.95749C7.83292 7.1278 7.79148 7.201 7.77682 7.25231L7.77682 7.25231L7.77651 7.25337C7.63236 7.73755 8.10482 8.21805 8.6093 8.08628L8.63457 8.18304ZM8.63457 8.18304C8.05879 8.33343 7.51309 7.78772 7.68066 7.22483L12.2826 4.59515C12.2268 4.71116 11.6381 5.32991 10.5123 6.4514C9.02988 7.92522 8.79785 8.14007 8.63457 8.18304Z" fill="black" stroke="white" stroke-width="0.2"/>
<path d="M10.7619 9.64899L10.7874 9.7457C10.734 9.75975 10.6532 9.80482 10.3855 10.0517C10.1235 10.2935 9.69642 10.7141 8.95468 11.4516C8.39204 12.0121 7.96416 12.4464 7.67019 12.7548C7.52312 12.9091 7.41019 13.0312 7.33088 13.1216C7.29117 13.1668 7.26056 13.2033 7.23855 13.2314C7.22755 13.2455 7.21918 13.2569 7.21309 13.2657C7.21007 13.2702 7.20784 13.2736 7.20623 13.2763C7.20488 13.2785 7.20423 13.2798 7.20403 13.2801C7.15679 13.3807 7.13652 13.4613 7.13652 13.5377C7.13652 13.6142 7.15689 13.695 7.20435 13.7959L7.20439 13.796C7.20407 13.7953 7.20388 13.7949 7.2039 13.7949C7.20395 13.7949 7.20617 13.7987 7.21286 13.8078C7.22045 13.8181 7.23122 13.8317 7.24542 13.8489C7.27376 13.8831 7.31331 13.9282 7.36299 13.9832C7.46221 14.0929 7.59933 14.2389 7.76233 14.409C8.08819 14.7492 8.51561 15.1842 8.9458 15.6149C9.376 16.0456 9.80851 16.4717 10.1445 16.7942C10.3126 16.9555 10.4561 17.0904 10.5628 17.1869C10.6162 17.2352 10.6597 17.2732 10.6921 17.2998C10.7083 17.3131 10.7208 17.3229 10.7299 17.3293C10.7334 17.3319 10.7358 17.3334 10.7372 17.3344C10.8031 17.3576 10.8905 17.369 10.9811 17.3661C11.0742 17.3632 11.1617 17.3455 11.224 17.3178C11.5286 17.1824 11.7045 16.8148 11.6194 16.5077L11.619 16.5059C11.6034 16.4454 11.5722 16.3804 11.4306 16.2188C11.2887 16.0568 11.0463 15.809 10.6223 15.3828L10.6221 15.3827L9.65105 14.403L9.48214 14.2326H9.72207H12.8459C14.5993 14.2326 15.4698 14.2325 15.9819 14.1958C16.2364 14.1775 16.3974 14.1505 16.5317 14.1115C16.6665 14.0723 16.778 14.0202 16.937 13.9456C17.8045 13.5368 18.3983 12.8215 18.6227 11.9278L18.6228 11.9276C18.6612 11.7761 18.6822 11.6627 18.6933 11.2538C18.7046 10.8425 18.7057 10.1396 18.7057 8.8111C18.7057 7.23332 18.7056 6.45522 18.6652 5.9919C18.6452 5.7623 18.6157 5.61511 18.5731 5.48887C18.5305 5.36227 18.4737 5.25316 18.3922 5.09668L18.3906 5.09353C18.0559 4.46169 17.3044 3.84538 16.5171 3.57319L16.5171 3.5732L16.516 3.5728C16.3519 3.51388 16.2686 3.48691 16.0943 3.47084C15.9135 3.45416 15.6397 3.44984 15.098 3.44127L15.0918 3.44117C15.0918 3.44117 15.0917 3.44117 15.0917 3.44117C14.6185 3.43472 14.3367 3.43371 14.154 3.4411C13.9736 3.4484 13.8981 3.46373 13.8351 3.48634C13.726 3.52934 13.6499 3.58033 13.5941 3.64401C13.5379 3.708 13.4965 3.7912 13.467 3.90723L13.467 3.90723L13.4667 3.90862C13.3738 4.25298 13.4943 4.56043 13.7593 4.71538C13.7991 4.73781 13.8263 4.75151 13.861 4.76228C13.8967 4.77339 13.9448 4.78262 14.0255 4.79009C14.189 4.80525 14.4657 4.81167 15.0049 4.82245L15.0049 4.82245L15.0183 4.82271C15.5631 4.83323 15.8451 4.83867 16.0193 4.85681C16.1092 4.86616 16.1747 4.87924 16.2353 4.89949C16.2944 4.91926 16.3458 4.94497 16.4046 4.97435L16.405 4.97454C16.7276 5.13146 17.0525 5.4711 17.2119 5.81683L17.3277 6.06126L17.3373 6.08159V6.10407V8.83259V11.5611V11.5836L17.3277 11.6039L17.2121 11.8479C17.212 11.848 17.212 11.8482 17.2119 11.8484C17.0525 12.1941 16.7276 12.5337 16.405 12.6906C16.4048 12.6907 16.4046 12.6908 16.4044 12.6909L16.1648 12.8107L16.1439 12.8212L16.1205 12.8213L12.9193 12.8342H12.9192L9.71804 12.8427L9.4757 12.8434L9.64706 12.672L10.6221 11.697C10.6222 11.6969 10.6223 11.6968 10.6223 11.6968C11.0223 11.2925 11.265 11.0422 11.4131 10.8745C11.5636 10.7042 11.605 10.631 11.6197 10.5797L11.6197 10.5797L11.62 10.5787C11.7641 10.0945 11.2917 9.61398 10.7872 9.74575L10.7619 9.64899ZM10.7619 9.64899C11.3377 9.4986 11.8834 10.0443 11.7158 10.6072L7.11387 13.2369C7.16973 13.1209 7.7584 12.5021 8.88418 11.3806C10.3666 9.90681 10.5986 9.69196 10.7619 9.64899Z" fill="black" stroke="white" stroke-width="0.2"/>
</svg>
