<svg width="18" height="18" viewBox="0 0 18 18" fill="none" xmlns="http://www.w3.org/2000/svg">
<path d="M1.4827 1.48608L0 2.96877V10.4223C0 17.5954 0.00364299 17.8795 0.0655738 17.9342C0.127505 17.9925 0.67031 17.9961 7.13297 17.9961H14.1348L14.3607 17.9087C15.7086 17.4023 17.0055 16.2475 17.5993 15.0271C17.694 14.8267 17.8215 14.5134 17.8761 14.3349L17.9781 14.007L17.9891 11.9997L18 9.98881L17.9089 9.91595C17.8579 9.87588 17.745 9.83216 17.6612 9.82123C17.4754 9.79209 16.8925 9.62087 16.612 9.50793C16.3424 9.40229 15.6466 9.03799 15.4062 8.87405L15.2095 8.74291H14.7832H14.3534L14.3461 4.44782C14.3352 0.28389 14.3315 0.149099 14.2659 0.0762386L14.1967 -0.000263214H8.58288H2.96903L1.4827 1.48608ZM13.8069 4.62633V8.74291H13.3188H12.8306L12.5355 8.92506C11.8907 9.32578 11.1949 9.62451 10.6011 9.76294C10.4117 9.80666 10.2186 9.85766 10.1712 9.87588C10.1239 9.89409 8.37523 9.90866 6.051 9.90866C2.02186 9.90866 2.01457 9.90866 1.91621 9.98516C1.79599 10.0799 1.78506 10.273 1.89435 10.3823C1.96721 10.4551 2.01457 10.4551 5.99271 10.4551H10.0182V11.2384V12.0216H6C2.00729 12.0216 1.98179 12.0216 1.90164 12.0945C1.78506 12.2037 1.79235 12.3932 1.91621 12.4915C2.01457 12.568 2.02186 12.568 6.01457 12.568H10.0182V13.1473C10.0182 13.7229 10.0692 14.1455 10.1821 14.4624L10.2332 14.6081H6.10565C2.00364 14.6081 1.98179 14.6081 1.90164 14.681C1.78506 14.7903 1.79235 14.9797 1.91621 15.0781C2.01457 15.1546 2.01821 15.1546 6.25137 15.1546H10.4918L10.561 15.293C10.6667 15.497 11.02 15.9779 11.2787 16.2693C11.5628 16.5899 12.0109 16.9724 12.4408 17.2639L12.765 17.4861H6.63752H0.510018V10.4369V3.39136L1.85792 3.38043C3.20219 3.3695 3.20219 3.3695 3.28597 3.28571C3.36976 3.20192 3.36976 3.20192 3.38069 1.85766L3.39162 0.509754H8.59745H13.8069V4.62633ZM2.84153 1.87588V2.84127H1.86885H0.892532L1.85792 1.87588C2.3898 1.344 2.82696 0.910484 2.8306 0.910484C2.83789 0.910484 2.84153 1.344 2.84153 1.87588ZM15.2459 9.43143C15.7887 9.77387 16.5683 10.1163 17.1694 10.273L17.4936 10.3604L17.4754 12.0544C17.4572 13.9014 17.4572 13.9087 17.2313 14.4915C16.9035 15.3404 16.1457 16.2147 15.1803 16.8631C14.816 17.1108 14.1494 17.4278 14 17.4278C13.8397 17.4278 13.0565 17.0271 12.6594 16.7393C11.5993 15.9815 10.8743 14.9979 10.6339 14.007C10.5719 13.7411 10.5647 13.5662 10.5647 12.0325V10.3495L10.7213 10.3094C11.3552 10.1491 11.949 9.90502 12.5319 9.57351C12.7432 9.45329 12.929 9.34036 12.9508 9.32214C12.969 9.30393 13.4426 9.28935 14 9.28935H15.02L15.2459 9.43143Z" fill="black"/>
<path d="M2.29886 4.19072C2.15314 4.22351 2.01835 4.32187 1.91635 4.4603C1.83984 4.55866 1.83984 4.59874 1.83984 6.26358V7.9685L1.94185 8.09965C2.13128 8.35101 2.07664 8.34373 3.89813 8.34373C5.74877 8.34373 5.71598 8.34737 5.89449 8.07779L5.99285 7.92843L6.00378 6.31458C6.01471 4.78089 6.01106 4.68981 5.94185 4.54045C5.89449 4.43116 5.81799 4.34373 5.71598 4.27451L5.55933 4.17251L3.99285 4.16522C3.12946 4.16158 2.36808 4.17251 2.29886 4.19072ZM5.40268 4.74446C5.46097 4.78817 5.46462 4.91203 5.45733 6.28544L5.4464 7.77907H3.91635H2.38629L2.37536 6.28908C2.37172 5.22169 2.37901 4.78453 2.40815 4.75174C2.46644 4.67888 5.30797 4.67524 5.40268 4.74446Z" fill="black"/>
<path d="M2.97249 5.36293C2.85227 5.53415 2.89235 5.63616 3.21293 5.96038L3.51165 6.26639L3.21293 6.5724C2.96885 6.82013 2.9142 6.89663 2.9142 6.99135C2.9142 7.14435 3.02714 7.25 3.19107 7.25C3.30765 7.25 3.35865 7.21357 3.62094 6.9622L3.91603 6.67077L4.21111 6.9622C4.46976 7.21357 4.5244 7.25 4.63734 7.25C4.7357 7.25 4.7867 7.2245 4.84499 7.15164C4.96885 6.99135 4.92149 6.87113 4.60091 6.55055L4.3204 6.27004L4.59726 5.98224C4.89235 5.67987 4.95063 5.5633 4.87777 5.42122C4.81949 5.30829 4.77577 5.28279 4.62641 5.28279C4.51348 5.28279 4.46247 5.31922 4.20746 5.57423L3.91967 5.86566L3.62094 5.57423C3.34772 5.30829 3.31129 5.28279 3.1765 5.28279C3.06357 5.28279 3.01256 5.301 2.97249 5.36293Z" fill="black"/>
<path d="M8.79781 4.1871C8.63387 4.22717 8.49908 4.32554 8.40801 4.47854L8.32422 4.60969V6.26725V7.92481L8.41165 8.06324C8.45537 8.13974 8.55737 8.23082 8.63752 8.27089C8.76866 8.34011 8.85609 8.34375 10.4299 8.34375H12.0838L12.204 8.25996C12.2696 8.21625 12.3606 8.13246 12.4007 8.07781C12.4772 7.97581 12.4772 7.94302 12.4772 6.26725C12.4772 4.59876 12.4772 4.55869 12.4007 4.46033C12.2951 4.31461 12.1639 4.22717 12 4.19074C11.8324 4.15067 8.9581 4.15067 8.79781 4.1871ZM11.9053 4.72991C11.9417 4.75541 11.949 5.08692 11.9417 6.27089L11.9308 7.77909H10.4007H8.87067L8.85974 6.28546C8.85245 4.91206 8.85609 4.78819 8.91438 4.74448C8.96174 4.71169 9.31875 4.70076 10.4153 4.70076C11.2095 4.70076 11.8798 4.71533 11.9053 4.72991Z" fill="black"/>
<path d="M10.7905 5.81805C10.4772 6.06942 10.1639 6.32443 10.0947 6.38272L9.97451 6.48836L9.77779 6.19692C9.54828 5.85448 9.44992 5.77434 9.29327 5.81077C9.16213 5.83991 9.11477 5.89091 9.08562 6.03663C9.06741 6.12771 9.11113 6.2115 9.38799 6.62315C9.73408 7.13681 9.83244 7.22425 10.0037 7.14774C10.0984 7.10403 11.6066 5.89091 11.6867 5.79984C11.7086 5.76705 11.7304 5.69055 11.7304 5.62497C11.7304 5.48654 11.592 5.35539 11.4536 5.35539C11.3953 5.35539 11.1658 5.51568 10.7905 5.81805Z" fill="black"/>
<path d="M15.574 11.5573C15.5339 11.5792 14.9765 12.0236 14.3354 12.5446C13.6942 13.0655 13.1514 13.5063 13.1296 13.5209C13.1041 13.5428 12.9547 13.3497 12.6997 12.9708C12.4847 12.6502 12.2662 12.3588 12.2188 12.326C12.0184 12.1949 11.7452 12.4171 11.829 12.6429C11.8472 12.6939 12.0877 13.0655 12.3645 13.4735C12.9037 14.2677 12.9547 14.3151 13.1587 14.1985C13.2133 14.1657 13.8654 13.6484 14.6086 13.0437C15.9419 11.9581 15.9565 11.9471 15.9565 11.8123C15.9565 11.6557 15.931 11.612 15.8217 11.5537C15.7234 11.5027 15.6687 11.5027 15.574 11.5573Z" fill="black"/>
</svg>
