<svg width="18" height="12" viewBox="0 0 18 12" fill="none" xmlns="http://www.w3.org/2000/svg">
<path d="M8.33769 0.961275C7.6912 1.01046 7.23092 1.08073 7.17119 1.14398C7.12903 1.18262 7.02362 1.49884 6.89713 1.96262C6.78118 2.37721 6.67226 2.74612 6.65469 2.78829C6.63713 2.83045 6.56334 2.87612 6.47199 2.90423C6.38766 2.92882 6.16631 3.02017 5.97658 3.1045L5.62873 3.25558L5.0244 2.91126C4.26898 2.48261 4.14249 2.41586 4.05466 2.41586C3.97033 2.41586 3.3414 2.91477 2.8495 3.36801C2.51571 3.6772 1.91841 4.34476 1.62678 4.73475C1.53894 4.85421 1.48624 4.95962 1.48624 5.02637C1.48624 5.08962 1.63029 5.38123 1.8903 5.8415C2.11165 6.2315 2.29436 6.56879 2.29436 6.58636C2.29436 6.60744 2.24166 6.73744 2.1749 6.88149C2.10814 7.02554 2.0203 7.24338 1.97462 7.36987L1.89733 7.59824L1.08569 7.81959C0.60082 7.9531 0.249463 8.06553 0.210814 8.10418C0.126488 8.18851 0.0527035 8.71553 0.024595 9.48147L0 10.0612L0.101893 10.142C0.175678 10.2017 0.228382 10.2158 0.309194 10.2017C0.498926 10.1631 0.512981 10.1209 0.544603 9.5412C0.569198 9.01417 0.621901 8.53985 0.657037 8.50472C0.667578 8.49418 1.01191 8.39229 1.42299 8.27986C1.83408 8.16391 2.20652 8.05499 2.24868 8.03391C2.30139 8.00581 2.3576 7.89689 2.4349 7.67202C2.49815 7.49635 2.62463 7.18716 2.7195 6.9869C2.81437 6.78663 2.89166 6.5969 2.89166 6.56528C2.89166 6.53366 2.70896 6.18582 2.4876 5.79231C2.26625 5.3988 2.08354 5.06502 2.08354 5.05097C2.08354 4.99826 2.55788 4.43962 2.90572 4.07422C3.22194 3.74747 4.05466 3.01315 4.10736 3.01315C4.12141 3.01315 4.45169 3.19585 4.84169 3.4172C5.23521 3.63855 5.59008 3.82125 5.62873 3.82125C5.6709 3.82125 5.79387 3.77557 5.9063 3.71936C6.09252 3.62801 6.50361 3.45936 6.90064 3.31531C7.10092 3.24152 7.08686 3.26963 7.35038 2.32451C7.55065 1.61478 7.55768 1.5937 7.65606 1.56559C7.71228 1.55154 8.04607 1.51992 8.39742 1.49532C8.89986 1.4637 9.17041 1.4637 9.64474 1.49532C9.97853 1.51992 10.2983 1.55154 10.3545 1.56559C10.4564 1.5937 10.4634 1.61127 10.6777 2.37721C10.8148 2.87261 10.9202 3.18531 10.9623 3.22396C10.9975 3.25558 11.1696 3.33639 11.3418 3.39963C11.5175 3.46287 11.8056 3.58233 11.9883 3.66666C12.171 3.75098 12.3502 3.82125 12.3923 3.82125C12.4345 3.82125 12.7859 3.63855 13.1794 3.4172C13.5799 3.18882 13.9137 3.02369 13.9348 3.03774C14.0578 3.10801 14.5462 3.52612 14.8518 3.82125C15.2173 4.1726 15.8392 4.87529 15.8989 5.00178C15.9305 5.06853 15.8743 5.18448 15.551 5.75718C15.3367 6.13312 15.154 6.47393 15.14 6.5196C15.1189 6.57582 15.1575 6.69528 15.277 6.95176C15.3683 7.145 15.4913 7.44013 15.5546 7.60878C15.6143 7.77743 15.681 7.94256 15.7021 7.98121C15.7302 8.0304 15.9516 8.10418 16.5419 8.26932C16.9846 8.39229 17.357 8.50472 17.3711 8.51877C17.4062 8.55742 17.473 9.29525 17.473 9.64309C17.473 9.95579 17.5186 10.1315 17.6135 10.1807C17.7189 10.2369 17.8524 10.2228 17.9297 10.1455C17.993 10.0823 18 10.0296 18 9.67822C18 9.33039 17.9332 8.58202 17.8735 8.25526C17.8595 8.19202 17.8173 8.11824 17.7751 8.09013C17.733 8.06202 17.3394 7.94256 16.9003 7.81959L16.1027 7.59824L16.0465 7.42257C16.0148 7.32419 15.92 7.09581 15.8392 6.9096L15.6916 6.5723L16.1097 5.83799C16.3521 5.40934 16.5243 5.06502 16.5243 5.00881C16.5243 4.88583 15.8989 4.11287 15.3648 3.5753C14.8237 3.03774 14.0543 2.41586 13.9313 2.41586C13.8751 2.41937 13.5202 2.59856 13.1056 2.83396L12.3748 3.24855L12.034 3.10098C11.8477 3.01666 11.6264 2.93234 11.5421 2.90774C11.4613 2.88315 11.3804 2.8445 11.3629 2.82342C11.3453 2.80234 11.2364 2.42991 11.1134 1.99424C10.9904 1.54451 10.871 1.1756 10.8358 1.14046C10.7902 1.09127 10.6637 1.06317 10.3193 1.02452C9.86258 0.971815 8.69608 0.936681 8.33769 0.961275Z" fill="black"/>
<path d="M8.35873 5.581C6.78817 5.83045 5.47058 6.87747 4.89787 8.33908C4.72571 8.77475 4.61327 9.31934 4.60273 9.7515L4.5957 10.0818L4.71165 10.1872C4.82408 10.2855 4.83463 10.2891 5.20706 10.2891C5.63572 10.2891 5.72004 10.2539 5.75869 10.0537C5.77626 9.96231 5.76221 9.92366 5.69194 9.85339C5.61112 9.77258 5.56896 9.76204 5.36869 9.76204H5.14031V9.61096C5.14031 9.3334 5.35463 8.53232 5.46707 8.37773C5.50572 8.32503 5.5268 8.32854 5.70248 8.4234C5.93789 8.5534 6.02924 8.55692 6.14167 8.44448C6.31384 8.27584 6.24708 8.11773 5.93086 7.93503C5.85356 7.88935 5.78329 7.84719 5.77626 7.84017C5.71302 7.79098 6.4333 7.00396 6.70384 6.82477C6.79871 6.76153 6.80574 6.76153 6.84087 6.82477C7.05871 7.18314 7.09034 7.21477 7.22736 7.22531C7.50494 7.2499 7.57872 7.00747 7.38899 6.68774C7.33277 6.58937 7.28358 6.50153 7.28358 6.48748C7.28358 6.41018 8.13035 6.14667 8.57657 6.09045L8.75928 6.06586V6.35045C8.75928 6.67369 8.81901 6.77558 9.00523 6.77558C9.19145 6.77558 9.25118 6.67369 9.25118 6.35045V6.06586L9.4374 6.09045C9.75713 6.1291 10.1963 6.24504 10.4669 6.35748C10.6109 6.41721 10.7269 6.47342 10.7269 6.48396C10.7269 6.4945 10.6777 6.58937 10.618 6.69126C10.4317 7.02152 10.4985 7.24639 10.7761 7.22531C10.9236 7.21477 10.9482 7.19017 11.1696 6.82477C11.2047 6.76153 11.2117 6.76153 11.3066 6.82477C11.5772 7.00396 12.2974 7.79098 12.2342 7.84017C12.2272 7.84719 12.1569 7.88935 12.0796 7.93503C11.7634 8.11773 11.6966 8.27584 11.8688 8.44448C11.9777 8.55692 12.0726 8.5534 12.3045 8.42692C12.4099 8.36719 12.5012 8.32151 12.5083 8.32151C12.5153 8.32151 12.561 8.40935 12.6066 8.51475C12.7191 8.76772 12.835 9.22799 12.8596 9.52312L12.8807 9.76204H12.6453C12.4415 9.76204 12.3993 9.77258 12.3185 9.85339C12.2483 9.92366 12.2342 9.96231 12.2518 10.0537C12.2904 10.2539 12.3747 10.2891 12.7999 10.2891C13.1583 10.2891 13.1864 10.282 13.2883 10.1977C13.4253 10.0818 13.4464 9.96231 13.3972 9.51961C13.1829 7.58017 11.8301 6.06234 9.9293 5.6337C9.64118 5.56694 8.65387 5.53532 8.35873 5.581Z" fill="black"/>
<path d="M10.7059 8.32705C10.6497 8.36921 10.4002 8.58704 10.1472 8.80839C9.89775 9.02974 9.66234 9.23353 9.63072 9.26163C9.57801 9.30731 9.54991 9.3038 9.40936 9.23704C9.23017 9.15272 8.90341 9.13866 8.68206 9.20542C8.34827 9.3038 8.05664 9.71136 8.05664 10.0803C8.05664 10.4703 8.22178 10.7549 8.55205 10.9376C8.71368 11.0289 8.78044 11.043 9.0053 11.043C9.23017 11.043 9.29693 11.0289 9.45855 10.9376C9.82045 10.7373 9.97856 10.4316 9.94343 9.98541L9.92586 9.72893L10.474 9.24407C11.1837 8.61867 11.1486 8.65731 11.1486 8.51326C11.1486 8.27083 10.9097 8.17245 10.7059 8.32705ZM9.19855 9.73244C9.34261 9.7992 9.43747 9.98541 9.41639 10.1576C9.38477 10.393 9.13531 10.5722 8.91746 10.5195C8.76989 10.4808 8.61881 10.3192 8.59422 10.1751C8.54151 9.83433 8.87882 9.58487 9.19855 9.73244Z" fill="black"/>
</svg>
