<svg width="18" height="19" viewBox="0 0 18 19" fill="none" xmlns="http://www.w3.org/2000/svg">
<path d="M5.54578 0.0745773C5.42885 0.102923 5.19854 0.191504 5.032 0.272999C4.78752 0.393469 4.66704 0.485593 4.40838 0.74425C4.14263 1.00645 4.05759 1.11983 3.94067 1.36432C3.69263 1.87454 3.68555 1.93478 3.68555 3.63199C3.68555 5.33274 3.69263 5.39298 3.94067 5.89966C4.06114 6.14415 4.14972 6.26107 4.41193 6.51973C4.9257 7.03704 5.42885 7.24609 6.16586 7.24609C6.62649 7.24609 6.90996 7.18232 7.29972 6.99098C7.72846 6.77839 8.17846 6.32839 8.39106 5.89966C8.63909 5.39298 8.64618 5.33274 8.64618 3.63199C8.64618 1.93123 8.63909 1.871 8.39106 1.36432C8.27059 1.11983 8.17846 0.999363 7.9198 0.740706C7.6576 0.474963 7.54421 0.389925 7.29972 0.272999C7.13319 0.191504 6.89578 0.102923 6.76823 0.0745773C6.47767 0.00371265 5.83279 0.00725603 5.54578 0.0745773ZM6.67256 0.531655C7.37059 0.71236 7.93397 1.27574 8.13949 2.00564C8.19618 2.20761 8.20327 2.38477 8.20327 3.63199C8.20327 4.87921 8.19618 5.05637 8.13949 5.25834C7.93397 5.98824 7.37767 6.54808 6.67256 6.73587C6.41035 6.80319 5.92137 6.80319 5.65917 6.73587C4.95405 6.54808 4.39067 5.97761 4.1887 5.25125C4.13555 5.05992 4.12846 4.84732 4.12846 3.63199C4.12846 2.41666 4.13555 2.20406 4.1887 2.01273C4.38712 1.297 4.95405 0.719447 5.645 0.531655C5.88948 0.467877 6.42098 0.464334 6.67256 0.531655Z" fill="black"/>
<path d="M5.65116 0.929405C5.21888 1.08531 4.861 1.40774 4.66612 1.81521L4.55273 2.05615V3.63644V5.21318L4.68384 5.47892C4.85037 5.81553 5.14447 6.10608 5.48108 6.26552C5.7114 6.37536 5.73974 6.37891 6.16848 6.37891C6.60785 6.37891 6.61494 6.37891 6.87714 6.24781C7.21376 6.08127 7.50431 5.78719 7.66376 5.45058L7.77715 5.20964V3.6329V2.05615L7.66376 1.81521C7.50431 1.47861 7.21376 1.18452 6.87714 1.01799C6.62557 0.893972 6.59014 0.886886 6.22163 0.876256C5.91691 0.86917 5.78935 0.883343 5.65116 0.929405ZM6.67163 1.43254C6.88423 1.5353 7.12872 1.77624 7.22793 1.98175C7.27045 2.07033 7.32006 2.24395 7.33777 2.36442C7.37675 2.64788 7.37675 4.61083 7.33777 4.89075C7.27754 5.3053 7.02596 5.65963 6.67163 5.83679C6.5299 5.90411 6.44486 5.91829 6.16494 5.91829C5.76809 5.91829 5.58738 5.84742 5.33226 5.59585C4.98856 5.24861 4.94958 5.02185 4.9673 3.43802C4.98502 2.15537 4.98856 2.11639 5.21179 1.80813C5.33581 1.63451 5.53069 1.48569 5.75392 1.39357C5.97006 1.30145 6.44486 1.31916 6.67163 1.43254Z" fill="black"/>
<path d="M14.8993 0.0745778C14.7824 0.102924 14.5521 0.191505 14.3855 0.272999C14.141 0.393469 14.0241 0.48205 13.7654 0.74425C13.5032 1.00291 13.4147 1.11983 13.2942 1.36432C13.0461 1.871 13.0391 1.93124 13.0391 3.63199C13.0391 5.33274 13.0461 5.39298 13.2942 5.89966C13.4147 6.14415 13.5032 6.26107 13.7654 6.51973C14.2792 7.03704 14.7824 7.24609 15.5194 7.24609C15.98 7.24609 16.2635 7.18232 16.6532 6.99098C16.8977 6.87051 17.0147 6.78193 17.2733 6.51973C17.5355 6.26107 17.6241 6.14415 17.7446 5.89966C17.9926 5.39298 17.9997 5.33274 17.9997 3.63199C17.9997 1.93124 17.9926 1.871 17.7446 1.36432C17.6241 1.11983 17.5355 1.00291 17.2733 0.74425C16.7524 0.219851 16.2528 0.0178862 15.5017 0.0214291C15.2891 0.0214291 15.0162 0.0462317 14.8993 0.0745778ZM16.0261 0.531656C16.7241 0.712361 17.2875 1.27574 17.493 2.00564C17.5497 2.20761 17.5568 2.38477 17.5568 3.63199C17.5568 4.87921 17.5497 5.05637 17.493 5.25834C17.2875 5.98824 16.7312 6.54808 16.0261 6.73587C15.7639 6.80319 15.2749 6.80319 15.0127 6.73587C14.3076 6.54808 13.7442 5.97761 13.5422 5.25125C13.4891 5.05992 13.482 4.84732 13.482 3.63199C13.482 2.41666 13.4891 2.20406 13.5422 2.01273C13.7406 1.297 14.3076 0.719447 14.9985 0.531656C15.243 0.467877 15.7745 0.464334 16.0261 0.531656Z" fill="black"/>
<path d="M15.0057 0.929405C14.5734 1.08531 14.2155 1.40774 14.0206 1.81521L13.9072 2.05615V3.63644V5.21318L14.0383 5.47892C14.2049 5.81553 14.499 6.10608 14.8356 6.26552C15.0659 6.37536 15.0942 6.37891 15.523 6.37891C15.9623 6.37891 15.9694 6.37891 16.2316 6.24781C16.5683 6.08127 16.8588 5.78719 17.0183 5.45058L17.1316 5.20964V3.6329V2.05615L17.0183 1.81521C16.8588 1.47861 16.5683 1.18452 16.2316 1.01799C15.9801 0.893972 15.9446 0.886886 15.5761 0.876256C15.2714 0.86917 15.1438 0.883343 15.0057 0.929405ZM16.0261 1.43254C16.2387 1.5353 16.4832 1.77624 16.5824 1.98175C16.6249 2.07033 16.6746 2.24395 16.6923 2.36442C16.7312 2.64788 16.7312 4.61083 16.6923 4.89075C16.632 5.3053 16.3805 5.65963 16.0261 5.83679C15.8844 5.90411 15.7994 5.91829 15.5194 5.91829C15.1226 5.91829 14.9419 5.84742 14.6868 5.59585C14.3431 5.24861 14.3041 5.02185 14.3218 3.43802C14.3395 2.15537 14.3431 2.11639 14.5663 1.80813C14.6903 1.63451 14.8852 1.48569 15.1084 1.39357C15.3245 1.30145 15.7994 1.31916 16.0261 1.43254Z" fill="black"/>
<path d="M0.46063 3.18878C0.170079 3.31988 0 3.58562 0 3.90452C0 4.149 1.49882 12.6847 1.57323 12.8583C1.65118 13.0461 1.90984 13.3047 2.10827 13.3969C2.27126 13.4748 2.3315 13.4819 2.84173 13.4819H3.39449L3.40866 13.8114C3.41929 14.109 3.42992 14.1551 3.51851 14.272C3.68504 14.4917 3.84449 14.5909 4.06063 14.6086L4.25197 14.6228V15.5405V16.4547L2.36693 16.4653L0.478347 16.4759L0.333071 16.5787C0.0531496 16.7806 0.0177165 16.8692 0.00708662 17.4255C-0.00354331 17.7692 0.00708662 17.9287 0.0354331 17.9676C0.102756 18.042 17.8973 18.042 17.9646 17.9676C17.9929 17.9287 18.0036 17.7692 17.9929 17.422C17.9823 16.9472 17.9788 16.9259 17.8831 16.8019C17.8299 16.731 17.7272 16.6283 17.6563 16.5751L17.5288 16.4759L16.3453 16.4653L15.1654 16.4547V15.537V14.6157H15.3071C15.4913 14.6157 15.6898 14.513 15.835 14.3464C15.991 14.1728 16.0158 14.0913 16.0158 13.7618V13.4819H16.7244C17.5075 13.4819 17.589 13.4642 17.791 13.2445C18 13.0248 18.0036 12.9894 17.9929 12.054C17.9823 11.2107 17.9823 11.193 17.8866 10.9945C17.7201 10.6331 17.4083 10.3709 17.0185 10.254L16.8662 10.2115V9.74732C16.8662 9.4426 16.8484 9.20874 16.813 9.07056C16.6465 8.43632 16.1008 7.89066 15.4665 7.72413C15.2929 7.68161 14.9847 7.67098 13.7268 7.67098C12.2988 7.67098 12.1925 7.66744 12.1748 7.6072C12.1642 7.57531 12.0189 6.76391 11.8524 5.81078C11.5158 3.89034 11.4945 3.81948 11.1969 3.52539C10.9453 3.27028 10.6866 3.15689 10.3146 3.14272C9.96024 3.125 9.79016 3.17107 9.61654 3.31988C9.43938 3.47578 9.35434 3.66003 9.35434 3.89743C9.35434 4.13837 10.8532 12.6847 10.9276 12.8583C11.0055 13.0461 11.2642 13.3047 11.4626 13.3969C11.6256 13.4748 11.6858 13.4819 12.1996 13.4819H12.7559V13.7653C12.7559 13.9779 12.7736 14.0842 12.8232 14.1835C12.9543 14.4386 13.2165 14.6157 13.4646 14.6157H13.6063V15.537V16.4582H9.70867H5.81103V15.537V14.6157H5.95276C6.13701 14.6157 6.33544 14.513 6.48071 14.3464C6.63662 14.1728 6.66142 14.0913 6.66142 13.7618V13.4819H7.37008C7.95473 13.4819 8.10355 13.4713 8.19567 13.4252C8.35512 13.3437 8.5004 13.202 8.57835 13.0461C8.64567 12.9221 8.64922 12.8477 8.63859 12.054C8.62796 11.2107 8.62796 11.193 8.53229 10.9945C8.36575 10.6331 8.05394 10.3709 7.66418 10.254L7.51182 10.2115V9.74732C7.51182 9.4426 7.4941 9.20874 7.45867 9.07056C7.29213 8.43632 6.74646 7.89066 6.11221 7.72413C5.93859 7.68161 5.63032 7.67098 4.37244 7.67098C2.94449 7.67098 2.83819 7.66744 2.82047 7.6072C2.80984 7.57531 2.66457 6.76391 2.49803 5.81078C2.16142 3.89034 2.14016 3.81948 1.84252 3.52539C1.57323 3.2561 1.33583 3.15689 0.92126 3.14272C0.676772 3.13918 0.552756 3.14981 0.46063 3.18878ZM1.24016 3.67066C1.43858 3.75924 1.58032 3.89034 1.67244 4.07459C1.72559 4.17735 1.93465 5.27929 2.42362 8.06073L3.10394 11.9051L2.4874 11.9158C2.14725 11.9193 1.86378 11.9193 1.85669 11.9122C1.83189 11.8874 0.46063 4.02853 0.46063 3.90806C0.46063 3.80885 0.485433 3.75924 0.570473 3.68838C0.708662 3.57145 1.00276 3.56082 1.24016 3.67066ZM10.5945 3.67066C10.7929 3.75924 10.9347 3.89034 11.0268 4.07459C11.0799 4.17735 11.289 5.27929 11.778 8.06073L12.4583 11.9051L11.8417 11.9158C11.5016 11.9193 11.2181 11.9193 11.211 11.9122C11.1862 11.8874 9.81497 4.02853 9.81497 3.90806C9.81497 3.80885 9.83977 3.75924 9.92481 3.68838C10.063 3.57145 10.3571 3.56082 10.5945 3.67066ZM5.74725 8.12806C6.25748 8.19538 6.70394 8.51781 6.91654 8.96426C7.03347 9.21583 7.08308 9.51346 7.08662 9.94574V10.2221H6.87402H6.66142V9.76858C6.66142 9.37173 6.65079 9.29733 6.57638 9.14142C6.45591 8.88277 6.33189 8.75167 6.08741 8.6312L5.87126 8.52136H4.42559H2.98347L2.96221 8.41506C2.95158 8.35482 2.93032 8.25916 2.91969 8.20246L2.89843 8.09617H4.20591C4.92166 8.09971 5.61615 8.11388 5.74725 8.12806ZM15.1016 8.12806C15.6118 8.19538 16.0583 8.51781 16.2709 8.96426C16.3878 9.21583 16.4374 9.51346 16.441 9.94574V10.2221H16.2284H16.0158V9.76858C16.0158 9.37173 16.0051 9.29733 15.9307 9.14142C15.8102 8.88277 15.6862 8.75167 15.4417 8.6312L15.2256 8.52136H13.7799H12.3378L12.3165 8.41506C12.3059 8.35482 12.2847 8.25916 12.274 8.20246L12.2528 8.09617H13.5602C14.276 8.09971 14.9705 8.11388 15.1016 8.12806ZM5.71181 8.98552C6.09095 9.06701 6.23622 9.33276 6.23622 9.93865V10.2221H4.75512H3.27402L3.17835 9.64456C3.12166 9.32922 3.06851 9.04221 3.06142 9.00678C3.0437 8.95009 3.11811 8.94654 4.28386 8.94654C5.07402 8.94654 5.59134 8.96072 5.71181 8.98552ZM15.0662 8.98552C15.4453 9.06701 15.5906 9.33276 15.5906 9.93865V10.2221H14.1095H12.6284L12.5327 9.64456C12.476 9.32922 12.4228 9.04221 12.4158 9.00678C12.398 8.95009 12.4724 8.94654 13.6382 8.94654C14.4284 8.94654 14.9457 8.96072 15.0662 8.98552ZM7.62166 10.7253C7.80945 10.8067 8.02914 11.0193 8.11063 11.1894C8.15315 11.278 8.19213 11.4552 8.2063 11.6288L8.23111 11.9229H5.9067H3.58583L3.56457 11.8237C3.52205 11.6323 3.36614 10.7359 3.36614 10.6898C3.36614 10.6508 3.75236 10.6473 5.43189 10.6544C7.26024 10.665 7.50827 10.6721 7.62166 10.7253ZM16.976 10.7253C17.1638 10.8067 17.3835 11.0193 17.465 11.1894C17.5075 11.278 17.5465 11.4552 17.5606 11.6288L17.5854 11.9229H15.261H12.9402L12.9189 11.8237C12.8764 11.6323 12.7205 10.7359 12.7205 10.6898C12.7205 10.6508 13.1067 10.6473 14.7862 10.6544C16.6146 10.665 16.8626 10.6721 16.976 10.7253ZM8.21339 12.5713C8.20276 12.6953 8.17441 12.8299 8.14607 12.8689C8.03977 13.0425 8.10355 13.039 5.17677 13.039H2.42717L2.2748 12.9504C2.10118 12.8512 2.00197 12.713 1.95591 12.4969L1.92047 12.3481H5.07402H8.23111L8.21339 12.5713ZM17.5677 12.5713C17.5571 12.6953 17.5288 12.8299 17.5004 12.8689C17.3941 13.0425 17.4579 13.039 14.5311 13.039H11.7815L11.6291 12.9504C11.4555 12.8512 11.3563 12.713 11.3102 12.4969L11.2748 12.3481H14.4284H17.5854L17.5677 12.5713ZM6.22914 13.7051C6.19016 14.1657 6.1689 14.1728 5.0315 14.1728C3.8941 14.1728 3.87284 14.1657 3.83386 13.7051L3.81614 13.4819H5.0315H6.24685L6.22914 13.7051ZM15.5835 13.7051C15.5622 13.9425 15.5197 14.0453 15.3992 14.1232C15.3036 14.187 13.6878 14.2153 13.4681 14.1551C13.2803 14.1055 13.213 13.9992 13.1882 13.7122L13.1705 13.4819H14.3858H15.6012L15.5835 13.7051ZM5.38583 15.537V16.4582H5.0315H4.67717V15.537V14.6157H5.0315H5.38583V15.537ZM14.7402 15.537V16.4582H14.3858H14.0315V15.537V14.6157H14.3858H14.7402V15.537ZM17.302 16.9224C17.4756 16.9684 17.5429 17.0818 17.5677 17.3617L17.5854 17.592H9.00001H0.414567L0.432284 17.3617C0.457087 17.0889 0.52441 16.9684 0.683859 16.9224C0.850394 16.8763 17.1284 16.8728 17.302 16.9224Z" fill="black"/>
</svg>
