<svg width="18" height="19" viewBox="0 0 18 19" fill="none" xmlns="http://www.w3.org/2000/svg">
<path d="M8.218 0.628925C7.38317 1.46376 7.38669 1.35808 8.1546 2.13304L8.7182 2.70016V3.04184V3.38352H7.76712C6.71389 3.38352 6.65753 3.39409 6.43209 3.60544C6.19961 3.82736 6.182 3.90486 6.182 4.81718V5.63793H5.33659H4.49119V5.28568C4.49119 4.75026 4.61096 4.79253 3.08219 4.79253C1.55342 4.79253 1.67319 4.75026 1.67319 5.28216V5.63088L1.33151 5.64497C1.04266 5.65554 0.951076 5.67667 0.774951 5.76122C0.507241 5.89155 0.236008 6.15926 0.102153 6.43049L0 6.64184V11.8375V17.0332L0.102153 17.2446C0.236008 17.5158 0.503718 17.7835 0.774951 17.9174L0.986301 18.0195H9H17.0137L17.225 17.9174C17.4963 17.7835 17.764 17.5158 17.8978 17.2446L18 17.0332V11.8375V6.64184L17.8978 6.43049C17.764 6.15926 17.4963 5.89155 17.225 5.76122C17.0489 5.67315 16.9644 5.65554 16.672 5.64497L16.3268 5.63088V5.28216C16.3268 4.75026 16.4466 4.79253 14.9178 4.79253C13.389 4.79253 13.5088 4.75026 13.5088 5.28568V5.63793H12.6634H11.818V4.82775C11.818 3.92951 11.8039 3.85202 11.5961 3.63362C11.3706 3.39409 11.3108 3.38352 10.2434 3.38352H9.2818V3.10172V2.81992H12.0294C14.7311 2.81992 14.7769 2.81992 14.8474 2.74947C14.9143 2.68255 14.9178 2.63323 14.9178 1.41092C14.9178 0.188614 14.9143 0.139297 14.8474 0.0723705C14.7769 0.0019207 14.7311 0.0019207 11.811 0.0019207H8.84501L8.218 0.628925ZM14.3542 1.41092V2.25632H11.818H9.2818V1.76317C9.2818 1.31581 9.27476 1.26298 9.21135 1.19957C9.16556 1.15378 9.09511 1.12912 9 1.12912C8.77456 1.12912 8.7182 1.21366 8.7182 1.54125V1.81601L8.51742 1.61171L8.31311 1.41092L8.73581 0.988222L9.15851 0.565521H11.7546H14.3542V1.41092ZM8.7182 4.22893V4.51073H7.7319H6.7456V4.39096C6.7456 4.32756 6.76321 4.22188 6.78434 4.15848C6.85127 3.96826 6.94286 3.95065 7.88337 3.94713H8.7182V4.22893ZM11.0431 3.98587C11.1734 4.03167 11.2544 4.18666 11.2544 4.38744V4.51073H10.2681H9.2818V4.22893V3.94713H10.1061C10.6274 3.94713 10.9691 3.96122 11.0431 3.98587ZM8.7182 5.14478C8.7182 5.26102 8.84149 5.35613 9 5.35613C9.15851 5.35613 9.2818 5.26102 9.2818 5.14478C9.2818 5.07785 9.30646 5.07433 9.8454 5.07433H10.409V5.35613V5.63793H9H7.591V5.35613V5.07433H8.1546C8.69354 5.07433 8.7182 5.07785 8.7182 5.14478ZM3.92759 5.49703V5.63793H3.08219H2.23679V5.49703V5.35613H3.08219H3.92759V5.49703ZM15.7632 5.49703V5.63793H14.9178H14.0724V5.49703V5.35613H14.9178H15.7632V5.49703ZM2.23679 11.8411V17.4841L1.73659 17.4665C1.15538 17.4489 0.996869 17.3996 0.789041 17.1671C0.549511 16.9029 0.563601 17.2481 0.563601 11.8375C0.563601 6.43049 0.549511 6.77217 0.785519 6.51151C1.01096 6.26141 1.18356 6.2121 1.82466 6.20505L2.23679 6.20153V11.8411ZM3.36399 11.8375V17.4735H3.08219H2.80039V11.8375V6.20153H3.08219H3.36399V11.8375ZM14.0724 11.8375V17.4735H9H3.92759V11.8375V6.20153H9H14.0724V11.8375ZM15.1996 11.8375V17.4735H14.9178H14.636V11.8375V6.20153H14.9178H15.1996V11.8375ZM16.9256 6.29664C17.1159 6.38118 17.3202 6.59957 17.3871 6.78626C17.4294 6.89898 17.4364 7.76552 17.4364 11.8375C17.4364 17.2481 17.4505 16.9029 17.211 17.1671C17.0031 17.3996 16.8446 17.4489 16.2669 17.4665L15.7632 17.4841V11.8375V6.19096L16.2669 6.20857C16.6685 6.22266 16.7988 6.23675 16.9256 6.29664Z" fill="black"/>
<path d="M9.91615 1.19826C9.87036 1.24405 9.8457 1.3145 9.8457 1.40961C9.8457 1.50471 9.87036 1.57516 9.91615 1.62096C9.98308 1.68788 10.0324 1.69141 11.8183 1.69141C13.6042 1.69141 13.6535 1.68788 13.7205 1.62096C13.7663 1.57516 13.7909 1.50471 13.7909 1.40961C13.7909 1.3145 13.7663 1.24405 13.7205 1.19826C13.6535 1.13133 13.6042 1.12781 11.8183 1.12781C10.0324 1.12781 9.98308 1.13133 9.91615 1.19826Z" fill="black"/>
<path d="M8.23937 8.52446C6.99945 8.8133 6.04133 9.75381 5.70317 11.0113C5.60806 11.3636 5.60806 12.3147 5.70317 12.6669C6.03076 13.8857 6.929 14.7945 8.12665 15.1221C8.37675 15.1926 8.50356 15.2031 9.01784 15.2031C9.53565 15.2031 9.65542 15.1926 9.89495 15.1221C11.0715 14.7839 11.9415 13.9104 12.2832 12.7338C12.3537 12.4908 12.3642 12.3781 12.3642 11.8391C12.3642 11.3002 12.3537 11.1875 12.2832 10.9444C11.945 9.77495 11.075 8.90136 9.91256 8.55968C9.53565 8.45048 8.64446 8.43287 8.23937 8.52446ZM9.60962 9.11271C9.75052 9.14089 10.0218 9.24305 10.2155 9.33815C10.8073 9.627 11.2018 10.0145 11.4871 10.5886C11.6985 11.0184 11.783 11.3706 11.783 11.8286C11.783 12.3076 11.709 12.6211 11.5012 13.0544C11.2124 13.6462 10.8249 14.0407 10.2507 14.326C9.81745 14.5409 9.46872 14.6219 9.00023 14.6219C8.52822 14.6219 8.18301 14.5409 7.73213 14.319C7.44328 14.1746 7.3517 14.1041 7.04524 13.7976C6.74231 13.4947 6.66481 13.3926 6.52391 13.1072C6.30199 12.6599 6.21745 12.3147 6.21745 11.8391C6.21745 11.3671 6.30199 11.0219 6.51687 10.5886C6.86912 9.87358 7.54544 9.33111 8.33096 9.1268C8.66559 9.04226 9.25385 9.03522 9.60962 9.11271Z" fill="black"/>
<path d="M9.67596 10.7233L9.30609 11.0861L8.46422 10.8078C7.89709 10.6176 7.59416 10.5331 7.5378 10.5472C7.33701 10.5965 7.24543 10.8466 7.36167 11.0157C7.40042 11.0685 7.61529 11.1566 8.12253 11.3256L8.83056 11.5616L8.37615 12.0196L7.92175 12.474L7.64699 12.393C7.40042 12.3225 7.36519 12.319 7.28065 12.3683C7.08339 12.4775 7.04817 12.7065 7.20316 12.8509C7.24191 12.8861 7.38281 12.9495 7.51666 12.9918L7.76324 13.0728L7.85482 13.3546C7.93232 13.58 7.96754 13.6434 8.04856 13.6857C8.20003 13.7632 8.28809 13.7491 8.40433 13.6364C8.52762 13.5131 8.52762 13.4673 8.43251 13.1538L8.35854 12.9178L8.81647 12.4599L9.27439 12.0055L9.5104 12.7135C9.67948 13.2207 9.76754 13.4356 9.82038 13.4744C9.98946 13.5906 10.2396 13.499 10.2889 13.2982C10.303 13.2419 10.2184 12.9389 10.0282 12.3718L9.74993 11.5299L10.1127 11.1601C10.458 10.8114 10.4791 10.7832 10.4791 10.6458C10.4791 10.5436 10.458 10.4767 10.4086 10.4274C10.3593 10.3781 10.2924 10.3569 10.1902 10.3569C10.0529 10.3569 10.0247 10.3781 9.67596 10.7233Z" fill="black"/>
</svg>
