<svg width="15" height="22" viewBox="0 0 15 22" fill="none" xmlns="http://www.w3.org/2000/svg">
<path d="M1.77054 0.0538025C1.1916 0.21648 0.569599 0.709295 0.292091 1.22603C-0.0189086 1.80976 0.000229848 1.27866 0.000229848 9.89097C0.000229848 18.4459 -0.014124 17.9435 0.277738 18.5416C0.445199 18.8908 0.899738 19.3502 1.27294 19.5463C1.76575 19.8047 2.03848 19.843 3.36381 19.843H4.54561V20.6037C4.54561 21.0248 4.56475 21.4267 4.59346 21.4937C4.63652 21.6037 4.66523 21.6181 4.81834 21.6037C4.99537 21.5894 5.01451 21.5654 5.45469 20.9099C5.70349 20.5367 5.92358 20.2305 5.93794 20.2257C5.95229 20.2257 6.17238 20.5367 6.42597 20.9195C6.87572 21.5894 6.89486 21.6133 7.05754 21.6133C7.17237 21.6133 7.23457 21.5846 7.27285 21.5224C7.30155 21.4697 7.32069 21.0918 7.32069 20.6372V19.8478L10.5407 19.8334L13.756 19.8191L14.0287 19.6899C14.3876 19.5224 14.689 19.2401 14.8612 18.9004L15 18.6229V9.9149V1.2069L14.8708 0.934172C14.7177 0.604034 14.4115 0.28825 14.0909 0.130356L13.8517 0.0107422L7.91877 0.00117302C3.26812 -0.00361252 1.938 0.00595665 1.77054 0.0538025ZM13.5885 0.51791C13.9139 0.584896 14.201 0.814556 14.3636 1.13034L14.4976 1.38393V8.7953V16.2067H8.58862H2.67961V8.33597V0.465281H8.01446C11.6843 0.465281 13.4211 0.479633 13.5885 0.51791ZM2.15331 8.37903V16.2402L1.97149 16.2737C1.64614 16.3215 1.12461 16.6229 0.813614 16.9339L0.526538 17.221L0.536107 9.5704L0.550461 1.92459L0.698784 1.61359C0.856676 1.27866 1.1294 0.972448 1.42605 0.781065C1.60786 0.666233 1.97628 0.51791 2.09589 0.513126C2.13895 0.513126 2.15331 2.11597 2.15331 8.37903ZM14.4976 17.5703C14.4976 18.1731 14.4785 18.4554 14.4306 18.5703C14.3302 18.8143 14.067 19.0822 13.8038 19.2018L13.5646 19.3167H10.445H7.32069V18.7904V18.2641H10.0958H12.8708L12.9283 18.1444C12.9665 18.0535 12.9665 17.9961 12.9283 17.9052L12.8708 17.7856H7.61255C2.45474 17.7856 2.34469 17.7856 2.29685 17.8765C2.22986 18.0057 2.23465 18.1014 2.32555 18.1875C2.38775 18.2545 2.56 18.2641 3.47386 18.2641H4.54561V18.7951V19.3215L3.26812 19.3071L1.98585 19.2927L1.67485 19.1444C1.5026 19.0631 1.27772 18.9243 1.17725 18.8382C0.93323 18.6229 0.698784 18.2688 0.708353 18.1349C0.737061 17.7952 1.22509 17.1779 1.63178 16.9674C2.09589 16.733 1.83752 16.7378 8.36374 16.7378L14.4976 16.733V17.5703ZM6.79438 19.3645C6.79438 19.9674 6.78482 20.465 6.77525 20.465C6.76568 20.465 6.62692 20.264 6.47381 20.02C6.13889 19.5081 6.08148 19.4459 5.89966 19.4698C5.78962 19.4793 5.71306 19.5607 5.48818 19.8908C5.33508 20.1157 5.18197 20.3406 5.14369 20.3932C5.08628 20.4745 5.07671 20.3454 5.07671 19.3741L5.07192 18.2641H5.93315H6.79438V19.3645Z" fill="black"/>
<path d="M5.2441 3.35983C4.98573 3.45074 4.83741 3.57035 4.66516 3.80958L4.52162 4.01532L4.50727 5.47941C4.4977 6.28801 4.50727 7.01528 4.52162 7.09661C4.56469 7.35498 4.8087 7.6612 5.08142 7.81431L5.33501 7.95306H8.56462C12.2344 7.95306 12.0813 7.96742 12.4306 7.56551C12.7177 7.24015 12.732 7.13011 12.7177 5.50812L12.7033 4.06795L12.5598 3.83351C12.4689 3.68997 12.3253 3.54643 12.1818 3.45552L11.9473 3.31198L8.68902 3.30241C5.97615 3.29285 5.39721 3.30241 5.2441 3.35983ZM11.8421 3.88135C11.933 3.91963 12.0526 4.02489 12.1052 4.11101C12.2009 4.26412 12.2009 4.33111 12.1914 5.66601L12.177 7.05834L12.0574 7.18752C11.8134 7.45546 11.8804 7.45068 8.6029 7.45068C5.73213 7.45068 5.56467 7.44589 5.37329 7.35977C5.00965 7.19231 5.00009 7.13968 5.00009 5.6086C5.00009 4.1158 5.00487 4.10623 5.32544 3.91006C5.47376 3.81915 5.58859 3.81437 8.57898 3.81437C11.1675 3.81437 11.7033 3.82394 11.8421 3.88135Z" fill="black"/>
<path d="M5.62288 8.97493C5.40758 9.02756 5.29753 9.09933 5.10615 9.30985C4.91476 9.52038 4.85735 9.72611 4.89084 10.0802C4.92911 10.4582 5.21141 10.7835 5.60375 10.8936C5.69944 10.9223 6.90516 10.9414 8.59413 10.9414C11.7233 10.9414 11.7615 10.9366 12.0438 10.6448C12.4457 10.2285 12.4457 9.63042 12.0343 9.23808C11.9003 9.1089 11.7568 9.02278 11.6132 8.98928C11.3692 8.92708 5.87647 8.91751 5.62288 8.97493ZM11.6802 9.63999C11.862 9.84094 11.862 10.0323 11.6802 10.2333L11.5415 10.3912L8.67547 10.4055C6.58938 10.4151 5.78078 10.4007 5.6803 10.3625C5.3071 10.2094 5.31667 9.65913 5.69465 9.51081C5.77121 9.4821 6.87167 9.46774 8.67547 9.47253L11.5415 9.4821L11.6802 9.63999Z" fill="black"/>
<path d="M5.40233 11.5334C4.65115 11.9305 4.74205 13.1027 5.5363 13.3372C5.6607 13.3755 6.64155 13.385 8.71807 13.3755L11.7132 13.3611L11.919 13.2176C12.163 13.0453 12.3065 12.7822 12.3352 12.4568C12.3496 12.2559 12.3305 12.1649 12.2156 11.9496C12.1056 11.7391 12.029 11.6673 11.8233 11.5573L11.5697 11.4233H8.58889H5.61285L5.40233 11.5334ZM11.608 12.0358C11.8568 12.2367 11.8711 12.5812 11.6415 12.763C11.5219 12.8587 11.4644 12.8587 8.60324 12.8587H5.68462L5.54587 12.72C5.44539 12.6147 5.40712 12.5334 5.40712 12.4042C5.40712 12.275 5.44539 12.1937 5.54587 12.0884L5.68462 11.9496H8.59845C11.2826 11.9496 11.5171 11.9592 11.608 12.0358Z" fill="black"/>
</svg>
