<svg width="232" height="52" viewBox="0 0 232 52" fill="none" xmlns="http://www.w3.org/2000/svg">
  <g clip-path="url(#clip0_548_31648)">
  <path fill-rule="evenodd" clip-rule="evenodd" d="M151.753 13.7849C152.172 11.5461 154.023 9.66362 156.205 9.23112C157.029 9.06577 192.008 9.06577 192.858 9.2184C195.141 9.65089 196.98 11.4953 197.411 13.7849C197.588 14.7134 197.588 37.8129 197.411 38.7415C196.98 41.0308 195.141 42.8754 192.858 43.3078C192.439 43.3843 188.647 43.4351 182.801 43.4351C174.861 43.4351 173.365 43.4604 172.984 43.6257C172.743 43.7276 170.219 45.3684 167.378 47.2765C164.537 49.1845 162.052 50.8253 161.861 50.9145C161.012 51.2831 159.921 50.8888 159.49 50.0493C159.262 49.5915 159.236 49.3117 159.236 46.4877V43.4351H158.107C157.499 43.4351 156.687 43.3713 156.306 43.3078C154.023 42.8754 152.184 41.0308 151.753 38.7415C151.576 37.8129 151.576 14.7134 151.753 13.7849ZM215.964 21.1593H202.785C201.643 21.1593 200.717 20.2331 200.717 19.0906C200.717 17.9482 201.643 17.022 202.785 17.022H215.964C217.106 17.022 218.032 17.9482 218.032 19.0906C218.032 20.2331 217.106 21.1593 215.964 21.1593ZM200.715 26.2144C200.715 25.072 201.642 24.1457 202.784 24.1457H222.549C223.691 24.1457 224.618 25.072 224.618 26.2144C224.618 27.3568 223.692 28.283 222.549 28.283H202.784C201.642 28.2827 200.715 27.3565 200.715 26.2144ZM230.789 24.7516C230.404 24.3664 229.871 24.1457 229.326 24.1457C228.781 24.1457 228.249 24.3664 227.864 24.7516C227.479 25.1368 227.258 25.6697 227.258 26.2144C227.258 26.7593 227.479 27.292 227.864 27.6771C228.249 28.0624 228.781 28.283 229.326 28.283C229.871 28.283 230.404 28.0624 230.789 27.6771C231.174 27.2917 231.395 26.759 231.395 26.2144C231.395 25.6694 231.174 25.1368 230.789 24.7516ZM213.19 35.4107H202.782C201.64 35.4107 200.714 34.4845 200.714 33.3422C200.714 32.1998 201.64 31.2735 202.782 31.2735H213.19C214.332 31.2735 215.258 32.1998 215.258 33.3422C215.258 34.4845 214.332 35.4107 213.19 35.4107Z" fill="url(#paint0_linear_548_31648)"/>
  <path d="M11.1282 37.7252L0.630859 11.8516H6.43398L14.3439 32.2178L22.4387 11.8516H27.9831L17.3379 37.7252H11.1282ZM36.564 38.0949C34.6421 38.0949 32.9049 37.6511 31.3524 36.7643C29.8 35.8772 28.5679 34.6821 27.6562 33.1788C26.7444 31.6757 26.2886 29.9878 26.2886 28.115C26.2886 26.2422 26.7321 24.5543 27.6192 23.0512C28.531 21.5234 29.7631 20.3159 31.3155 19.4288C32.8925 18.5417 34.6421 18.0982 36.564 18.0982C38.4861 18.0982 40.2234 18.5417 41.7758 19.4288C43.3529 20.3159 44.585 21.5234 45.4721 23.0512C46.3839 24.5543 46.8397 26.2422 46.8397 28.115C46.8397 29.9878 46.3839 31.6757 45.4721 33.1788C44.585 34.6821 43.3652 35.8772 41.8128 36.7643C40.2604 37.6511 38.5108 38.0949 36.564 38.0949ZM36.564 33.6963C37.5746 33.6963 38.4738 33.4499 39.2625 32.957C40.0756 32.4642 40.7161 31.7989 41.1846 30.9611C41.6773 30.0986 41.9236 29.1499 41.9236 28.115C41.9236 27.0554 41.6773 26.1067 41.1846 25.2689C40.7161 24.4311 40.0756 23.7658 39.2625 23.2729C38.4738 22.7555 37.5746 22.4967 36.564 22.4967C35.5785 22.4967 34.6791 22.7555 33.8659 23.2729C33.0527 23.7658 32.412 24.4311 31.9438 25.2689C31.4756 26.1067 31.2416 27.0554 31.2416 28.115C31.2416 29.1499 31.4756 30.0986 31.9438 30.9611C32.412 31.7989 33.0527 32.4642 33.8659 32.957C34.6791 33.4499 35.5785 33.6963 36.564 33.6963ZM51.296 45.672C50.8526 45.672 50.4212 45.6474 50.0025 45.5983C49.6081 45.5736 49.2755 45.5366 49.0042 45.4872V41.1256C49.497 41.2244 50.0885 41.2737 50.7785 41.2737C52.6265 41.2737 53.908 40.3989 54.6227 38.6494L54.9183 37.91L47.4148 18.4678H52.9962L57.8016 31.5894L63.2348 18.4678H68.7055L59.8344 39.2776C59.1691 40.83 58.4421 42.0745 57.6534 43.0106C56.865 43.9472 55.9532 44.6248 54.9183 45.0438C53.908 45.4625 52.7006 45.672 51.296 45.672ZM76.3382 38.0578C74.958 38.0578 73.7385 37.8116 72.6789 37.3185C71.6193 36.801 70.7939 36.0987 70.2023 35.2119C69.6108 34.3248 69.3152 33.302 69.3152 32.1439C69.3152 30.2958 70.0051 28.8665 71.385 27.8563C72.7897 26.8213 74.7117 26.3038 77.1513 26.3038C78.8268 26.3038 80.4039 26.5626 81.8826 27.08V25.6755C81.8826 24.5666 81.5376 23.7288 80.8476 23.1621C80.1573 22.5953 79.1471 22.3119 77.8166 22.3119C77.0035 22.3119 76.1287 22.4474 75.1922 22.7185C74.256 22.9649 73.1717 23.3592 71.9396 23.9013L70.0915 20.1681C71.6193 19.4781 73.0729 18.9607 74.4528 18.6157C75.8574 18.2707 77.2621 18.0982 78.6667 18.0982C81.254 18.0982 83.2625 18.7266 84.6915 19.9833C86.1455 21.2154 86.8725 22.9649 86.8725 25.2319V37.7252H81.8826V36.3576C81.0939 36.9488 80.2438 37.3802 79.3319 37.6511C78.4204 37.9224 77.4222 38.0578 76.3382 38.0578ZM74.1202 32.033C74.1202 32.7722 74.4405 33.3636 75.0814 33.8072C75.722 34.2261 76.5721 34.4355 77.6317 34.4355C78.4695 34.4355 79.2459 34.3371 79.9605 34.1398C80.6752 33.9181 81.3157 33.5977 81.8826 33.1788V30.3697C81.2663 30.1233 80.6258 29.9384 79.9605 29.8153C79.2949 29.6921 78.5806 29.6304 77.8166 29.6304C76.6585 29.6304 75.7467 29.8522 75.0814 30.2958C74.4405 30.7147 74.1202 31.2937 74.1202 32.033ZM100.389 45.635C98.9104 45.635 97.4814 45.4749 96.1015 45.1546C94.7216 44.859 93.4771 44.4276 92.3681 43.8611L94.1424 39.9429C95.202 40.4603 96.237 40.8423 97.2472 41.0889C98.2575 41.3351 99.2677 41.4582 100.278 41.4582C101.781 41.4582 102.915 41.1379 103.679 40.4974C104.467 39.8568 104.861 38.8956 104.861 37.6144V36.0987C103.284 37.2571 101.522 37.836 99.576 37.836C97.7523 37.836 96.1015 37.4049 94.6228 36.5425C93.1692 35.6553 91.9985 34.4602 91.1116 32.957C90.2489 31.4539 89.8178 29.7906 89.8178 27.9671C89.8178 26.1437 90.2489 24.4927 91.1116 23.0142C91.9985 21.5357 93.1935 20.3652 94.6969 19.5028C96.1999 18.6157 97.8755 18.1721 99.7238 18.1721C100.66 18.1721 101.572 18.3077 102.459 18.5787C103.346 18.8498 104.172 19.2317 104.936 19.7245V18.4678H109.925V37.6882C109.925 40.2265 109.1 42.1852 107.449 43.5651C105.823 44.945 103.469 45.635 100.389 45.635ZM100.352 33.5484C101.289 33.5484 102.139 33.4006 102.902 33.1049C103.666 32.7846 104.319 32.341 104.861 31.7742V24.234C104.319 23.6918 103.654 23.2729 102.866 22.9772C102.102 22.6569 101.276 22.4967 100.389 22.4967C99.3294 22.4967 98.3809 22.7431 97.5428 23.236C96.7051 23.7041 96.0398 24.3572 95.547 25.195C95.0542 26.0081 94.8077 26.9322 94.8077 27.9671C94.8077 29.0267 95.0419 29.9754 95.51 30.8132C96.0028 31.6511 96.668 32.3164 97.5061 32.8092C98.3686 33.302 99.3171 33.5484 100.352 33.5484ZM123.304 38.0949C121.382 38.0949 119.633 37.6511 118.055 36.7643C116.503 35.8772 115.271 34.6821 114.359 33.1788C113.448 31.6757 112.991 29.9878 112.991 28.115C112.991 26.2422 113.423 24.5543 114.285 23.0512C115.172 21.548 116.368 20.3529 117.871 19.4658C119.374 18.5787 121.049 18.1352 122.897 18.1352C124.745 18.1352 126.384 18.591 127.814 19.5028C129.243 20.4145 130.364 21.6466 131.177 23.199C132.015 24.7514 132.434 26.5133 132.434 28.4846V29.8153H118.166C118.388 30.5791 118.745 31.2691 119.238 31.8851C119.756 32.5012 120.384 32.9817 121.123 33.3267C121.887 33.6717 122.7 33.8441 123.563 33.8441C124.425 33.8441 125.214 33.7086 125.929 33.4375C126.668 33.1665 127.296 32.7846 127.814 32.2917L131.14 35.3227C129.957 36.2836 128.737 36.9859 127.481 37.4296C126.249 37.873 124.857 38.0949 123.304 38.0949ZM118.092 26.193H127.444C127.271 25.4291 126.951 24.7637 126.483 24.197C126.039 23.6056 125.497 23.1497 124.857 22.8294C124.24 22.4844 123.55 22.3119 122.787 22.3119C121.998 22.3119 121.283 22.4721 120.643 22.7924C120.002 23.1127 119.46 23.5686 119.016 24.16C118.598 24.7268 118.29 25.4044 118.092 26.193ZM135.536 37.7252V18.4678H140.6V20.6116C141.216 19.7738 141.955 19.1331 142.818 18.6896C143.68 18.246 144.654 18.0243 145.738 18.0243C146.674 18.0489 147.377 18.1968 147.845 18.4678V22.9033C147.475 22.7308 147.069 22.6076 146.625 22.5337C146.182 22.4351 145.726 22.3858 145.257 22.3858C144.272 22.3858 143.372 22.6322 142.559 23.1251C141.746 23.6179 141.093 24.3202 140.6 25.2319V37.7252H135.536Z" fill="white" />
  <path d="M155.342 33.9359L162.255 17.1328H166.264L173.105 33.9359H169.336L167.632 29.5191H160.695L158.966 33.9359H155.342ZM161.775 26.7346H166.576L164.175 20.5414L161.775 26.7346Z" fill="white" />
  <path d="M174.316 33.9307V21.4244H177.605V33.9307H174.316ZM175.949 19.9361C175.436 19.9361 174.996 19.7521 174.628 19.384C174.26 19.0159 174.076 18.5758 174.076 18.0638C174.076 17.5357 174.26 17.0956 174.628 16.7435C174.996 16.3754 175.436 16.1914 175.949 16.1914C176.477 16.1914 176.917 16.3754 177.269 16.7435C177.637 17.0956 177.821 17.5357 177.821 18.0638C177.821 18.5758 177.637 19.0159 177.269 19.384C176.917 19.7521 176.477 19.9361 175.949 19.9361Z" fill="white" />
  <path d="M185.961 34.1014C184.777 34.1014 183.704 33.8133 182.744 33.2372C181.784 32.6611 181.016 31.893 180.44 30.9328C179.88 29.9566 179.6 28.8684 179.6 27.6682C179.6 26.468 179.88 25.3878 180.44 24.4276C181.016 23.4514 181.792 22.6832 182.768 22.1232C183.745 21.547 184.841 21.259 186.057 21.259C186.681 21.259 187.281 21.347 187.857 21.523C188.433 21.6831 188.97 21.9231 189.465 22.2432V17.1302L192.754 16.5781V33.9333H189.514V32.9012C188.49 33.7013 187.305 34.1014 185.961 34.1014ZM186.489 31.2929C187.097 31.2929 187.649 31.1968 188.145 31.0048C188.658 30.7968 189.098 30.4927 189.465 30.0926V25.2197C189.098 24.8516 188.658 24.5636 188.145 24.3556C187.633 24.1475 187.081 24.0435 186.489 24.0435C185.801 24.0435 185.177 24.2035 184.617 24.5236C184.073 24.8276 183.641 25.2597 183.32 25.8198C183 26.3639 182.84 26.98 182.84 27.6682C182.84 28.3563 183 28.9724 183.32 29.5165C183.641 30.0606 184.073 30.4927 184.617 30.8128C185.177 31.1328 185.801 31.2929 186.489 31.2929Z" fill="white" />
  </g>
  <defs>
    <linearGradient id="paint0_linear_548_31648" x1="123.313" y1="25.1396" x2="238.52" y2="26.5252" gradientUnits="userSpaceOnUse" >
      <stop stop-color="#F8B133" />
      <stop offset="1" stop-color="#D22635" />
    </linearGradient>
    <clipPath id="clip0_548_31648">
      <rect width="231.13" height="51.0952" fill="white" transform="translate(0.435547)" />
    </clipPath>
  </defs>
</svg>