<svg width="302" height="56" viewBox="0 0 302 56" fill="none" xmlns="http://www.w3.org/2000/svg">
<path d="M72.2775 43L60.1921 13.2119H66.8731L75.9798 36.6594L85.2992 13.2119H91.6824L79.4267 43H72.2775ZM101.562 43.4255C99.3488 43.4255 97.3487 42.9149 95.5615 41.8936C93.7742 40.8723 92.3557 39.4964 91.306 37.7658C90.2563 36.0353 89.7315 34.0919 89.7315 31.9358C89.7315 29.7798 90.2422 27.8364 91.2635 26.1059C92.3131 24.347 93.7316 22.9569 95.5189 21.9356C97.3346 20.9143 99.3488 20.4036 101.562 20.4036C103.774 20.4036 105.775 20.9143 107.562 21.9356C109.377 22.9569 110.796 24.347 111.817 26.1059C112.867 27.8364 113.392 29.7798 113.392 31.9358C113.392 34.0919 112.867 36.0353 111.817 37.7658C110.796 39.4964 109.392 40.8723 107.604 41.8936C105.817 42.9149 103.803 43.4255 101.562 43.4255ZM101.562 38.3616C102.725 38.3616 103.76 38.0779 104.668 37.5105C105.604 36.9431 106.342 36.1771 106.881 35.2125C107.448 34.2196 107.732 33.1274 107.732 31.9358C107.732 30.716 107.448 29.6237 106.881 28.6592C106.342 27.6946 105.604 26.9286 104.668 26.3612C103.76 25.7655 102.725 25.4676 101.562 25.4676C100.427 25.4676 99.3914 25.7655 98.4552 26.3612C97.519 26.9286 96.7814 27.6946 96.2423 28.6592C95.7033 29.6237 95.4338 30.716 95.4338 31.9358C95.4338 33.1274 95.7033 34.2196 96.2423 35.2125C96.7814 36.1771 97.519 36.9431 98.4552 37.5105C99.3914 38.0779 100.427 38.3616 101.562 38.3616ZM118.522 52.1492C118.012 52.1492 117.515 52.1208 117.033 52.0641C116.579 52.0357 116.196 51.9932 115.884 51.9364V46.915C116.451 47.0285 117.132 47.0852 117.926 47.0852C120.054 47.0852 121.529 46.0781 122.352 44.0639L122.693 43.2128L114.054 20.8291H120.48L126.012 35.936L132.267 20.8291H138.565L128.352 44.7873C127.586 46.5746 126.749 48.0072 125.842 49.0853C124.934 50.1633 123.884 50.9435 122.693 51.4258C121.529 51.9081 120.139 52.1492 118.522 52.1492ZM147.353 43.383C145.764 43.383 144.36 43.0993 143.14 42.5319C141.92 41.9361 140.97 41.1276 140.289 40.1063C139.608 39.085 139.268 37.9077 139.268 36.5743C139.268 34.4466 140.062 32.8011 141.651 31.638C143.268 30.4464 145.48 29.8507 148.289 29.8507C150.218 29.8507 152.034 30.1486 153.736 30.7443V29.1273C153.736 27.8506 153.339 26.8861 152.544 26.2336C151.75 25.5811 150.587 25.2548 149.055 25.2548C148.119 25.2548 147.112 25.4108 146.034 25.7229C144.956 26.0066 143.707 26.4605 142.289 27.0846L140.161 22.7866C141.92 21.9923 143.594 21.3965 145.183 20.9994C146.8 20.6022 148.417 20.4036 150.034 20.4036C153.013 20.4036 155.325 21.127 156.97 22.5739C158.644 23.9924 159.481 26.0066 159.481 28.6166V43H153.736V41.4255C152.828 42.1064 151.849 42.6028 150.8 42.9149C149.75 43.227 148.601 43.383 147.353 43.383ZM144.8 36.4466C144.8 37.2977 145.168 37.9786 145.906 38.4892C146.644 38.9715 147.622 39.2127 148.842 39.2127C149.807 39.2127 150.7 39.0992 151.523 38.8722C152.346 38.6169 153.084 38.2481 153.736 37.7658V34.5317C153.027 34.248 152.289 34.0352 151.523 33.8934C150.757 33.7515 149.934 33.6806 149.055 33.6806C147.722 33.6806 146.672 33.9359 145.906 34.4466C145.168 34.9288 144.8 35.5955 144.8 36.4466ZM175.042 52.1066C173.34 52.1066 171.695 51.9222 170.106 51.5534C168.517 51.213 167.085 50.7165 165.808 50.064L167.851 45.5533C169.071 46.149 170.262 46.5888 171.425 46.8725C172.589 47.1561 173.752 47.298 174.915 47.298C176.645 47.298 177.95 46.9292 178.83 46.1916C179.738 45.454 180.192 44.3476 180.192 42.8723V41.1276C178.376 42.461 176.347 43.1277 174.106 43.1277C172.007 43.1277 170.106 42.6312 168.404 41.6383C166.73 40.617 165.383 39.241 164.361 37.5105C163.368 35.7799 162.872 33.865 162.872 31.7656C162.872 29.6663 163.368 27.7655 164.361 26.0633C165.383 24.3612 166.759 23.0136 168.489 22.0207C170.22 20.9994 172.149 20.4887 174.277 20.4887C175.355 20.4887 176.404 20.6447 177.426 20.9568C178.447 21.2689 179.397 21.7086 180.277 22.276V20.8291H186.022V42.9574C186.022 45.8795 185.071 48.1349 183.17 49.7236C181.298 51.3123 178.589 52.1066 175.042 52.1066ZM175 38.1914C176.078 38.1914 177.057 38.0211 177.936 37.6807C178.816 37.3119 179.567 36.8012 180.192 36.1487V27.4676C179.567 26.8435 178.801 26.3612 177.894 26.0208C177.014 25.652 176.064 25.4676 175.042 25.4676C173.823 25.4676 172.73 25.7513 171.766 26.3187C170.801 26.8577 170.035 27.6095 169.468 28.5741C168.9 29.5102 168.617 30.5741 168.617 31.7656C168.617 32.9855 168.886 34.0778 169.425 35.0423C169.993 36.0069 170.759 36.7729 171.723 37.3403C172.716 37.9077 173.808 38.1914 175 38.1914ZM201.424 43.4255C199.211 43.4255 197.197 42.9149 195.381 41.8936C193.594 40.8723 192.176 39.4964 191.126 37.7658C190.076 36.0353 189.552 34.0919 189.552 31.9358C189.552 29.7798 190.048 27.8364 191.041 26.1059C192.062 24.3753 193.438 22.9994 195.169 21.9781C196.899 20.9568 198.828 20.4462 200.956 20.4462C203.084 20.4462 204.97 20.971 206.616 22.0207C208.261 23.0703 209.552 24.4888 210.488 26.2761C211.453 28.0634 211.935 30.0918 211.935 32.3614V33.8934H195.509C195.764 34.7728 196.176 35.5672 196.743 36.2764C197.339 36.9856 198.062 37.5388 198.914 37.936C199.793 38.3332 200.729 38.5318 201.722 38.5318C202.715 38.5318 203.623 38.3758 204.446 38.0637C205.297 37.7516 206.02 37.3119 206.616 36.7445L210.446 40.234C209.084 41.3404 207.68 42.1489 206.233 42.6596C204.814 43.1702 203.212 43.4255 201.424 43.4255ZM195.424 29.723H206.19C205.992 28.8436 205.623 28.0776 205.084 27.4251C204.573 26.7442 203.949 26.2194 203.212 25.8506C202.502 25.4534 201.708 25.2548 200.828 25.2548C199.921 25.2548 199.098 25.4392 198.36 25.808C197.623 26.1768 196.999 26.7017 196.488 27.3825C196.006 28.035 195.651 28.8152 195.424 29.723ZM215.507 43V20.8291H221.337V23.2973C222.046 22.3327 222.897 21.5951 223.89 21.0845C224.883 20.5738 226.004 20.3185 227.252 20.3185C228.33 20.3469 229.139 20.5171 229.678 20.8291V25.9357C229.252 25.7371 228.784 25.5952 228.273 25.5101C227.763 25.3967 227.238 25.3399 226.699 25.3399C225.564 25.3399 224.529 25.6236 223.592 26.191C222.656 26.7584 221.904 27.5669 221.337 28.6166V43H215.507Z" fill="white"/>
<path d="M232.633 43L244.889 13.2119H251.996L264.124 43H257.443L254.421 35.17H242.123L239.059 43H232.633ZM244.038 30.2337H252.549L248.294 19.2546L244.038 30.2337ZM266.269 43V20.8291H272.099V43H266.269ZM269.163 18.1908C268.255 18.1908 267.475 17.8645 266.823 17.212C266.17 16.5595 265.844 15.7794 265.844 14.8715C265.844 13.9353 266.17 13.1552 266.823 12.531C267.475 11.8785 268.255 11.5523 269.163 11.5523C270.099 11.5523 270.879 11.8785 271.504 12.531C272.156 13.1552 272.482 13.9353 272.482 14.8715C272.482 15.7794 272.156 16.5595 271.504 17.212C270.879 17.8645 270.099 18.1908 269.163 18.1908ZM286.914 43.2979C284.815 43.2979 282.914 42.7872 281.212 41.7659C279.51 40.7446 278.148 39.3829 277.127 37.6807C276.134 35.9502 275.637 34.021 275.637 31.8933C275.637 29.7656 276.134 27.8506 277.127 26.1484C278.148 24.4179 279.524 23.0562 281.255 22.0632C282.985 21.0419 284.928 20.5313 287.085 20.5313C288.191 20.5313 289.255 20.6873 290.276 20.9994C291.297 21.2831 292.248 21.7086 293.127 22.276V13.2119L298.957 12.2332V43H293.212V41.1702C291.397 42.5886 289.297 43.2979 286.914 43.2979ZM287.851 38.319C288.929 38.319 289.907 38.1488 290.787 37.8084C291.695 37.4396 292.475 36.9005 293.127 36.1913V27.5527C292.475 26.9002 291.695 26.3896 290.787 26.0208C289.879 25.652 288.9 25.4676 287.851 25.4676C286.631 25.4676 285.524 25.7513 284.531 26.3187C283.567 26.8577 282.801 27.6237 282.233 28.6166C281.666 29.5812 281.382 30.6734 281.382 31.8933C281.382 33.1132 281.666 34.2054 282.233 35.17C282.801 36.1346 283.567 36.9005 284.531 37.4679C285.524 38.0353 286.631 38.319 287.851 38.319Z" fill="url(#paint0_linear_4263_26863)"/>
<path d="M24.3922 9.23832C17.4739 10.0437 11.392 14.4115 8.39755 20.7103L8.02583 21.5157H6.22914C5.24819 21.5157 4.19495 21.5673 3.89551 21.6293C2.15045 22.001 0.673857 23.4776 0.312454 25.2124C0.157567 25.9558 0.157567 32.5747 0.312454 33.3078C0.498319 34.2061 0.911351 34.9393 1.58253 35.6208C1.9336 35.9615 2.42924 36.3436 2.70804 36.4778C3.71997 36.9631 4.06072 37.0044 7.71605 37.0044C9.59535 37.0044 11.1442 36.9735 11.1442 36.9425C11.1442 36.9012 10.917 36.1474 10.6383 35.2594C10.3595 34.3714 10.06 33.2768 9.96708 32.8225C8.80026 26.9677 10.5143 21.2886 14.7169 17.1272C18.0418 13.823 22.6885 12.0366 27.397 12.2535C29.8546 12.367 31.9507 12.904 34.1191 13.9779C40.6863 17.2202 44.4552 24.1901 43.5156 31.3562C42.545 38.7598 37.7418 45.3497 30.4094 46.3952C29.9932 47.3986 25.1836 48.6511 31.4184 47.4042C36.3744 45.5776 40.4798 44.6352 43.2781 40.4739C43.7324 39.7924 44.3417 38.7392 44.6308 38.1196L45.1677 37.0044H47.078C48.1312 37.0044 49.1948 36.9528 49.4426 36.8909C51.1567 36.4985 52.592 35.0322 52.9534 33.3078C53.1083 32.5643 53.1083 25.9455 52.9534 25.2124C52.5816 23.4776 51.1051 22.001 49.3703 21.6293C49.0709 21.5673 47.997 21.5157 46.9954 21.5157L45.1677 21.5054L44.6411 20.4005C42.0184 14.9485 36.6593 10.7562 30.7529 9.5481C28.7807 9.14539 26.2715 9.02148 24.3922 9.23832Z" fill="white"/>
<path fill-rule="evenodd" clip-rule="evenodd" d="M26.6334 43.7695C34.6887 43.7695 41.2189 37.2394 41.2189 29.184C41.2189 21.1286 34.6887 14.5985 26.6334 14.5985C18.578 14.5985 12.0479 21.1286 12.0479 29.184C12.0479 37.2394 18.578 43.7695 26.6334 43.7695ZM21.6209 27.3716C21.8726 27.3716 22.0767 27.5756 22.0767 27.8274V30.5621C22.0767 30.8139 21.8726 31.0179 21.6209 31.0179H18.8861C18.6344 31.0179 18.4303 30.8139 18.4303 30.5621V27.8274C18.4303 27.5756 18.6344 27.3716 18.8861 27.3716H21.6209ZM28.459 27.8274C28.459 27.5756 28.2549 27.3716 28.0032 27.3716H25.2684C25.0167 27.3716 24.8126 27.5756 24.8126 27.8274V30.5621C24.8126 30.8139 25.0167 31.0179 25.2684 31.0179H28.0032C28.2549 31.0179 28.459 30.8139 28.459 30.5621V27.8274ZM34.3842 27.3716C34.636 27.3716 34.84 27.5756 34.84 27.8274V30.5621C34.84 30.8139 34.636 31.0179 34.3842 31.0179H31.6494C31.3977 31.0179 31.1936 30.8139 31.1936 30.5621V27.8274C31.1936 27.5756 31.3977 27.3716 31.6494 27.3716H34.3842Z" fill="url(#paint1_linear_4263_26863)"/>
<path d="M18.198 45.9569C22.1667 48.051 25.9466 48.3158 30.2114 47.9935C34.6265 47.1922 38.6454 45.845 41.6252 42.49C44.6049 39.135 46.3735 34.8775 46.6479 30.3987C46.9223 25.9198 45.6867 21.4784 43.1388 17.7847C40.5908 14.091 36.8778 11.3585 32.5935 10.0242C28.3092 8.69001 23.7012 8.83113 19.5066 10.425C15.312 12.019 11.7731 14.9736 9.45594 18.8162C7.13882 22.6589 6.17735 27.1677 6.72533 31.6214L9.69922 31.2555C9.23311 27.4672 10.0509 23.6321 12.0219 20.3635C13.9928 17.0949 17.003 14.5817 20.5709 13.226C24.1388 11.8702 28.0583 11.7501 31.7026 12.885C35.3468 14.0199 38.5051 16.3442 40.6723 19.486C42.8396 22.6279 43.8906 26.4058 43.6572 30.2155C43.4238 34.0251 41.9195 37.6465 39.3849 40.5003C36.8503 43.3541 33.4319 45.2754 29.6764 45.9569C25.9209 46.6385 22.0296 46.6785 18.6538 44.8973L18.198 45.9569Z" fill="white"/>
<path d="M21.1813 44.725L19.3668 45.1547C19.161 44.9529 18.9305 44.7431 18.6746 44.5317C18.1056 44.0621 17.1952 43.4126 16.2698 42.777L16.9993 42.257L17.3695 42.5004L17.1401 42.1566L17.5612 41.8566L17.9103 42.0862L17.6939 41.7619L18.1229 41.4561L18.4511 41.672L18.2478 41.3672L18.6847 41.0557L18.992 41.2577L18.8015 40.9723L19.2464 40.6552L19.5328 40.8436L19.3554 40.5776L21.362 39.1473L20.8112 38.7851L17.9728 39.9136L17.567 39.6467C17.4638 39.5789 17.3252 39.6078 17.2576 39.7112L17.1544 39.869C17.0868 39.9724 17.1157 40.1114 17.2188 40.1792L17.2511 40.2005L15.9415 40.7211L15.5167 40.4417C15.4136 40.3739 15.275 40.4028 15.2073 40.5062L15.1042 40.6639C15.0365 40.7674 15.0653 40.9064 15.1686 40.9742L15.2198 41.008L14.2257 41.4032C13.7906 41.1158 13.4361 40.8839 13.2272 40.7467C12.3773 40.1878 11.9982 40.0815 11.6893 40.0653C11.2445 40.0421 10.9508 40.2866 10.8752 40.3987L10.8749 40.3984C10.8745 40.399 10.8742 40.3998 10.8739 40.4004C10.8735 40.401 10.8728 40.4016 10.8724 40.4021L10.8727 40.4024C10.8004 40.5167 10.694 40.8842 10.8925 41.2841C11.0304 41.5618 11.2787 41.8682 12.1287 42.4269C12.3376 42.5643 12.6907 42.798 13.1272 43.0836L13.1622 44.1555L13.111 44.1218C13.0078 44.0539 12.8692 44.0828 12.8016 44.1862L12.6984 44.344C12.6308 44.4474 12.6596 44.5864 12.7628 44.6543L13.1876 44.9336L13.2337 46.3457L13.2014 46.3245C13.0982 46.2566 12.9596 46.2855 12.892 46.3889L12.7889 46.5467C12.7212 46.6501 12.7501 46.7891 12.8533 46.857L13.2591 47.1238L13.359 50.1844L13.9098 50.5466L14.4176 48.1308L14.7316 48.1879L14.4453 47.9996L14.5579 47.4639L14.8948 47.5252L14.5875 47.3232L14.6981 46.7971L15.0579 46.8627L14.7297 46.6468L14.8383 46.1304L15.2211 46.2001L14.872 45.9704L14.9786 45.4635L15.3843 45.5374L15.0141 45.2941L15.1987 44.4158C16.1489 45.0136 17.1059 45.5919 17.762 45.928C18.0574 46.0793 18.3411 46.2076 18.6076 46.3163L18.9382 48.1567L19.5252 48.4637L19.7387 46.7012C20.2483 46.8381 20.5672 46.8697 20.5818 46.8475C20.5999 46.8198 20.6068 46.8093 20.6096 46.805C20.6096 46.805 20.6103 46.804 20.6121 46.8013C20.615 46.7969 20.6217 46.7865 20.6398 46.7588C20.6544 46.7366 20.4984 46.4559 20.1699 46.0417L21.6965 45.1426L21.1813 44.725Z" fill="white"/>
<defs>
<linearGradient id="paint0_linear_4263_26863" x1="232.804" y1="28" x2="301.804" y2="28" gradientUnits="userSpaceOnUse">
<stop stop-color="#F8B133"/>
<stop offset="1" stop-color="#D22635"/>
</linearGradient>
<linearGradient id="paint1_linear_4263_26863" x1="12.0479" y1="29.184" x2="41.2189" y2="29.184" gradientUnits="userSpaceOnUse">
<stop stop-color="#F8B133"/>
<stop offset="1" stop-color="#D22635"/>
</linearGradient>
</defs>
</svg>
