<svg width="161" height="30" viewBox="0 0 161 30" fill="none" xmlns="http://www.w3.org/2000/svg">
<path d="M38.2603 23L31.8454 7.18848H35.3917L40.2255 19.6344L45.1722 7.18848H48.5604L42.0551 23H38.2603ZM53.8043 23.2259C52.6298 23.2259 51.5681 22.9548 50.6194 22.4127C49.6707 21.8706 48.9178 21.1403 48.3607 20.2217C47.8035 19.3031 47.5249 18.2716 47.5249 17.1271C47.5249 15.9827 47.796 14.9512 48.3381 14.0326C48.8952 13.099 49.6482 12.3611 50.5969 11.819C51.5606 11.2769 52.6298 11.0058 53.8043 11.0058C54.9789 11.0058 56.0405 11.2769 56.9892 11.819C57.953 12.3611 58.7059 13.099 59.248 14.0326C59.8052 14.9512 60.0838 15.9827 60.0838 17.1271C60.0838 18.2716 59.8052 19.3031 59.248 20.2217C58.7059 21.1403 57.9605 21.8706 57.0118 22.4127C56.0631 22.9548 54.994 23.2259 53.8043 23.2259ZM53.8043 20.5379C54.4217 20.5379 54.9714 20.3873 55.4532 20.0862C55.9502 19.785 56.3417 19.3784 56.6278 18.8664C56.929 18.3394 57.0796 17.7596 57.0796 17.1271C57.0796 16.4796 56.929 15.8999 56.6278 15.3879C56.3417 14.8759 55.9502 14.4693 55.4532 14.1681C54.9714 13.8519 54.4217 13.6938 53.8043 13.6938C53.202 13.6938 52.6523 13.8519 52.1554 14.1681C51.6585 14.4693 51.267 14.8759 50.9808 15.3879C50.6947 15.8999 50.5517 16.4796 50.5517 17.1271C50.5517 17.7596 50.6947 18.3394 50.9808 18.8664C51.267 19.3784 51.6585 19.785 52.1554 20.0862C52.6523 20.3873 53.202 20.5379 53.8043 20.5379ZM62.807 27.8564C62.536 27.8564 62.2724 27.8413 62.0164 27.8112C61.7755 27.7962 61.5722 27.7736 61.4066 27.7435V25.0781C61.7077 25.1383 62.0691 25.1684 62.4908 25.1684C63.6202 25.1684 64.4032 24.6339 64.8399 23.5647L65.0206 23.1129L60.4353 11.2317H63.8461L66.7825 19.2504L70.1029 11.2317H73.4459L68.0248 23.9487C67.6182 24.8974 67.174 25.6578 66.6921 26.2301C66.2103 26.8023 65.6531 27.2164 65.0206 27.4724C64.4032 27.7284 63.6654 27.8564 62.807 27.8564ZM78.1103 23.2033C77.267 23.2033 76.5216 23.0527 75.8741 22.7515C75.2266 22.4353 74.7221 22.0061 74.3607 21.464C73.9993 20.9219 73.8186 20.297 73.8186 19.5892C73.8186 18.4598 74.2402 17.5864 75.0835 16.969C75.9419 16.3366 77.1164 16.0203 78.6072 16.0203C79.6312 16.0203 80.595 16.1785 81.4985 16.4947V15.6363C81.4985 14.9587 81.2877 14.4467 80.866 14.1004C80.4444 13.754 79.827 13.5809 79.0138 13.5809C78.5169 13.5809 77.9823 13.6637 77.4101 13.8293C76.8379 13.9799 76.1753 14.2208 75.4223 14.5521L74.293 12.2708C75.2266 11.8491 76.115 11.5329 76.9583 11.3221C77.8167 11.1112 78.675 11.0058 79.5333 11.0058C81.1145 11.0058 82.3418 11.3898 83.2152 12.1578C84.1036 12.9107 84.5479 13.9799 84.5479 15.3653V23H81.4985V22.1642C81.0166 22.5257 80.4971 22.7892 79.9399 22.9548C79.3828 23.1205 78.7729 23.2033 78.1103 23.2033ZM76.755 19.5215C76.755 19.9732 76.9508 20.3346 77.3423 20.6057C77.7338 20.8617 78.2534 20.9897 78.9009 20.9897C79.4129 20.9897 79.8872 20.9294 80.3239 20.809C80.7606 20.6734 81.1521 20.4777 81.4985 20.2217V18.505C81.122 18.3544 80.7305 18.2415 80.3239 18.1662C79.9173 18.0909 79.4806 18.0533 79.0138 18.0533C78.3061 18.0533 77.7489 18.1888 77.3423 18.4598C76.9508 18.7158 76.755 19.0697 76.755 19.5215ZM92.808 27.8338C91.9044 27.8338 91.031 27.7359 90.1878 27.5402C89.3445 27.3595 88.584 27.0959 87.9064 26.7496L88.9906 24.3553C89.6381 24.6715 90.2706 24.9049 90.888 25.0555C91.5054 25.2061 92.1228 25.2814 92.7402 25.2814C93.6588 25.2814 94.3515 25.0856 94.8183 24.6941C95.3002 24.3026 95.5411 23.7153 95.5411 22.9322V22.0061C94.5773 22.7139 93.5007 23.0678 92.311 23.0678C91.1967 23.0678 90.1878 22.8042 89.2843 22.2772C88.3958 21.7351 87.6805 21.0047 87.1384 20.0862C86.6114 19.1676 86.3478 18.1511 86.3478 17.0368C86.3478 15.9225 86.6114 14.9135 87.1384 14.01C87.6805 13.1065 88.4109 12.3912 89.3294 11.8642C90.248 11.3221 91.272 11.051 92.4014 11.051C92.9736 11.051 93.5308 11.1338 94.0729 11.2995C94.615 11.4651 95.1195 11.6985 95.5863 11.9997V11.2317H98.6356V22.9774C98.6356 24.5284 98.1312 25.7256 97.1222 26.5689C96.1284 27.4122 94.6903 27.8338 92.808 27.8338ZM92.7854 20.4476C93.3576 20.4476 93.8771 20.3572 94.3439 20.1765C94.8108 19.9808 95.2098 19.7097 95.5411 19.3634V14.7554C95.2098 14.4241 94.8032 14.1681 94.3213 13.9874C93.8545 13.7917 93.3501 13.6938 92.808 13.6938C92.1604 13.6938 91.5807 13.8444 91.0687 14.1455C90.5567 14.4317 90.1501 14.8307 89.8489 15.3427C89.5478 15.8396 89.3972 16.4043 89.3972 17.0368C89.3972 17.6843 89.5402 18.2641 89.8264 18.7761C90.1275 19.2881 90.5341 19.6946 91.0461 19.9958C91.5732 20.297 92.1529 20.4476 92.7854 20.4476ZM106.811 23.2259C105.637 23.2259 104.568 22.9548 103.604 22.4127C102.655 21.8706 101.902 21.1403 101.345 20.2217C100.788 19.3031 100.509 18.2716 100.509 17.1271C100.509 15.9827 100.773 14.9512 101.3 14.0326C101.842 13.114 102.572 12.3837 103.491 11.8416C104.41 11.2995 105.434 11.0284 106.563 11.0284C107.692 11.0284 108.694 11.307 109.567 11.8642C110.441 12.4213 111.126 13.1743 111.623 14.123C112.135 15.0717 112.391 16.1483 112.391 17.353V18.1662H103.672C103.807 18.633 104.026 19.0546 104.327 19.4311C104.643 19.8076 105.027 20.1012 105.479 20.312C105.946 20.5229 106.442 20.6283 106.97 20.6283C107.497 20.6283 107.978 20.5454 108.415 20.3798C108.867 20.2142 109.251 19.9808 109.567 19.6796L111.6 21.5318C110.877 22.1191 110.132 22.5482 109.364 22.8193C108.611 23.0904 107.76 23.2259 106.811 23.2259ZM103.626 15.9526H109.341C109.236 15.4858 109.04 15.0792 108.754 14.7328C108.483 14.3714 108.152 14.0928 107.76 13.8971C107.384 13.6863 106.962 13.5809 106.495 13.5809C106.013 13.5809 105.577 13.6787 105.185 13.8745C104.794 14.0703 104.462 14.3488 104.191 14.7102C103.935 15.0566 103.747 15.4707 103.626 15.9526ZM114.287 23V11.2317H117.381V12.5418C117.758 12.0298 118.209 11.6383 118.736 11.3672C119.263 11.0962 119.858 10.9607 120.521 10.9607C121.093 10.9757 121.522 11.0661 121.808 11.2317V13.9423C121.582 13.8368 121.334 13.7616 121.063 13.7164C120.792 13.6561 120.513 13.626 120.227 13.626C119.625 13.626 119.075 13.7766 118.578 14.0778C118.081 14.379 117.682 14.8081 117.381 15.3653V23H114.287Z" fill="#133769"/>
<path d="M123.377 23L129.882 7.18848H133.655L140.092 23H136.546L134.942 18.8438H128.414L126.788 23H123.377ZM129.431 16.2236H133.948L131.689 10.396L129.431 16.2236ZM141.231 23V11.2317H144.326V23H141.231ZM142.767 9.83126C142.285 9.83126 141.871 9.65809 141.525 9.31174C141.178 8.96539 141.005 8.55128 141.005 8.06941C141.005 7.57247 141.178 7.15836 141.525 6.82707C141.871 6.48073 142.285 6.30755 142.767 6.30755C143.264 6.30755 143.678 6.48073 144.009 6.82707C144.356 7.15836 144.529 7.57247 144.529 8.06941C144.529 8.55128 144.356 8.96539 144.009 9.31174C143.678 9.65809 143.264 9.83126 142.767 9.83126ZM152.189 23.1581C151.075 23.1581 150.066 22.8871 149.163 22.345C148.259 21.8028 147.536 21.08 146.994 20.1765C146.467 19.2579 146.204 18.234 146.204 17.1046C146.204 15.9752 146.467 14.9587 146.994 14.0552C147.536 13.1366 148.267 12.4138 149.185 11.8868C150.104 11.3447 151.135 11.0736 152.28 11.0736C152.867 11.0736 153.432 11.1564 153.974 11.3221C154.516 11.4726 155.02 11.6985 155.487 11.9997V7.18848L158.582 6.66896V23H155.532V22.0287C154.569 22.7817 153.454 23.1581 152.189 23.1581ZM152.686 20.5153C153.259 20.5153 153.778 20.425 154.245 20.2443C154.727 20.0485 155.141 19.7624 155.487 19.3859V14.8006C155.141 14.4543 154.727 14.1832 154.245 13.9874C153.763 13.7917 153.243 13.6938 152.686 13.6938C152.039 13.6938 151.452 13.8444 150.924 14.1455C150.412 14.4317 150.006 14.8382 149.705 15.3653C149.404 15.8773 149.253 16.457 149.253 17.1046C149.253 17.7521 149.404 18.3318 149.705 18.8438C150.006 19.3558 150.412 19.7624 150.924 20.0636C151.452 20.3647 152.039 20.5153 152.686 20.5153Z" fill="url(#paint0_linear_7889_27186)"/>
<path d="M12.8432 4.90317C9.17097 5.33069 5.9427 7.64912 4.35323 10.9925L4.15592 11.42H3.20224C2.68155 11.42 2.12249 11.4474 1.96354 11.4803C1.03727 11.6776 0.253493 12.4614 0.0616605 13.3822C-0.0205535 13.7768 -0.0205535 17.2901 0.0616605 17.6793C0.160317 18.1561 0.379555 18.5452 0.735815 18.907C0.922167 19.0879 1.18525 19.2907 1.33324 19.3619C1.87037 19.6195 2.05124 19.6414 3.99149 19.6414C4.98902 19.6414 5.81116 19.625 5.81116 19.6085C5.81116 19.5866 5.69058 19.1865 5.54259 18.7152C5.39461 18.2438 5.23566 17.6628 5.18633 17.4216C4.56699 14.3139 5.47682 11.2994 7.70756 9.09062C9.47242 7.33671 11.9388 6.38851 14.4381 6.50361C15.7426 6.5639 16.8552 6.84891 18.0062 7.41893C21.4921 9.13995 23.4927 12.8396 22.9939 16.6434C22.4787 20.5732 19.9291 24.0711 16.0371 24.6261C15.8162 25.1586 13.2633 25.8235 16.5727 25.1616C19.2033 24.1921 21.3825 23.6918 22.8678 21.483C23.109 21.1213 23.4324 20.5622 23.5858 20.2334L23.8708 19.6414H24.8848C25.4439 19.6414 26.0084 19.614 26.1399 19.5811C27.0498 19.3729 27.8116 18.5946 28.0035 17.6793C28.0857 17.2846 28.0857 13.7713 28.0035 13.3822C27.8061 12.4614 27.0224 11.6776 26.1016 11.4803C25.9426 11.4474 25.3726 11.42 24.841 11.42L23.8708 11.4145L23.5913 10.8281C22.1992 7.93413 19.3545 5.70887 16.2195 5.0676C15.1726 4.85384 13.8407 4.78807 12.8432 4.90317Z" fill="#133769"/>
<path fill-rule="evenodd" clip-rule="evenodd" d="M14.0324 23.2324C18.3082 23.2324 21.7744 19.7662 21.7744 15.4904C21.7744 11.2146 18.3082 7.74843 14.0324 7.74843C9.75662 7.74843 6.29041 11.2146 6.29041 15.4904C6.29041 19.7662 9.75662 23.2324 14.0324 23.2324ZM11.3711 14.5227C11.5047 14.5227 11.613 14.631 11.613 14.7646V16.2162C11.613 16.3499 11.5047 16.4582 11.3711 16.4582H9.91946C9.78585 16.4582 9.67753 16.3499 9.67753 16.2162V14.7646C9.67753 14.631 9.78585 14.5227 9.91946 14.5227H11.3711ZM15.0001 14.7646C15.0001 14.631 14.8918 14.5227 14.7582 14.5227H13.3066C13.173 14.5227 13.0646 14.631 13.0646 14.7646V16.2162C13.0646 16.3499 13.173 16.4582 13.3066 16.4582H14.7582C14.8918 16.4582 15.0001 16.3499 15.0001 16.2162V14.7646ZM18.1453 14.5227C18.279 14.5227 18.3873 14.631 18.3873 14.7646V16.2162C18.3873 16.3499 18.279 16.4582 18.1453 16.4582H16.6937C16.5601 16.4582 16.4518 16.3499 16.4518 16.2162V14.7646C16.4518 14.631 16.5601 14.5227 16.6937 14.5227H18.1453Z" fill="url(#paint1_linear_7889_27186)"/>
<path d="M9.55655 24.3934C11.6631 25.5049 13.6695 25.6455 15.9332 25.4744C18.2768 25.0491 20.41 24.334 21.9917 22.5532C23.5733 20.7723 24.5121 18.5125 24.6577 16.1351C24.8034 13.7577 24.1475 11.4002 22.7951 9.43956C21.4426 7.47895 19.4718 6.02854 17.1976 5.32033C14.9235 4.61212 12.4776 4.68703 10.2511 5.53308C8.02462 6.37912 6.14617 7.94742 4.91625 9.98713C3.68632 12.0268 3.17597 14.4201 3.46684 16.7841L5.04538 16.5899C4.79797 14.5791 5.23207 12.5434 6.27824 10.8084C7.32441 9.07344 8.92221 7.73945 10.8161 7.0198C12.7099 6.30016 14.7904 6.23644 16.7247 6.83884C18.6591 7.44124 20.3355 8.67495 21.4859 10.3426C22.6363 12.0103 23.1942 14.0156 23.0703 16.0378C22.9464 18.06 22.1479 19.9822 20.8025 21.497C19.4572 23.0118 17.6427 24.0316 15.6492 24.3934C13.6558 24.7552 11.5903 24.7764 9.79849 23.831L9.55655 24.3934Z" fill="#133769"/>
<path d="M11.1404 23.7401L10.1772 23.9681C10.068 23.861 9.94566 23.7497 9.80981 23.6375C9.50779 23.3882 9.02455 23.0434 8.53334 22.706L8.92057 22.43L9.11707 22.5592L8.99534 22.3768L9.21882 22.2175L9.40415 22.3394L9.28926 22.1672L9.517 22.0049L9.69122 22.1195L9.58326 21.9577L9.81518 21.7924L9.97829 21.8996L9.87718 21.7481L10.1134 21.5798L10.2654 21.6798L10.1712 21.5386L11.2363 20.7794L10.9439 20.5872L9.43732 21.1861L9.2219 21.0445C9.16713 21.0085 9.09356 21.0238 9.05767 21.0787L9.00292 21.1625C8.96702 21.2174 8.98234 21.2911 9.03711 21.3272L9.05425 21.3384L8.35912 21.6148L8.13363 21.4665C8.07886 21.4305 8.0053 21.4458 7.9694 21.5007L7.91465 21.5844C7.87875 21.6393 7.894 21.7131 7.94884 21.7491L7.97605 21.7671L7.44836 21.9768C7.21738 21.8243 7.02921 21.7012 6.91834 21.6284C6.46722 21.3317 6.26597 21.2753 6.10203 21.2667C5.86595 21.2544 5.71006 21.3841 5.6699 21.4436L5.66975 21.4435C5.66956 21.4438 5.66938 21.4442 5.6692 21.4445C5.66901 21.4448 5.66862 21.4452 5.66843 21.4455L5.66858 21.4456C5.63021 21.5063 5.57372 21.7014 5.67907 21.9136C5.75231 22.061 5.88407 22.2236 6.33525 22.5202C6.44613 22.5932 6.6336 22.7172 6.86527 22.8688L6.88385 23.4378L6.85665 23.4199C6.80188 23.3838 6.72831 23.3992 6.69242 23.4541L6.63766 23.5378C6.60177 23.5927 6.61709 23.6665 6.67186 23.7025L6.89734 23.8508L6.9218 24.6003L6.90466 24.589C6.84989 24.553 6.77632 24.5684 6.74043 24.6233L6.68567 24.707C6.64978 24.7619 6.6651 24.8357 6.71987 24.8717L6.93529 25.0133L6.98829 26.6379L7.28069 26.8301L7.55023 25.5478L7.71691 25.5782L7.5649 25.4782L7.6247 25.1938L7.80353 25.2264L7.64042 25.1192L7.6991 24.8399L7.89009 24.8747L7.71588 24.7601L7.7735 24.486L7.97672 24.523L7.7914 24.4011L7.84797 24.132L8.06335 24.1713L7.86685 24.0421L7.96482 23.5759C8.46921 23.8932 8.97716 24.2002 9.32544 24.3786C9.48221 24.4589 9.63282 24.527 9.77426 24.5847L9.94976 25.5616L10.2613 25.7245L10.3747 24.789C10.6452 24.8617 10.8144 24.8785 10.8222 24.8667C10.8318 24.8519 10.8354 24.8464 10.8369 24.8441C10.8369 24.8441 10.8373 24.8436 10.8382 24.8421C10.8398 24.8398 10.8434 24.8343 10.853 24.8196C10.8607 24.8078 10.7779 24.6588 10.6035 24.439L11.4138 23.9617L11.1404 23.7401Z" fill="#133769"/>
<defs>
<linearGradient id="paint0_linear_7889_27186" x1="123.467" y1="15" x2="160.467" y2="15" gradientUnits="userSpaceOnUse">
<stop stop-color="#F8B133"/>
<stop offset="1" stop-color="#D22635"/>
</linearGradient>
<linearGradient id="paint1_linear_7889_27186" x1="6.29041" y1="15.4904" x2="21.7744" y2="15.4904" gradientUnits="userSpaceOnUse">
<stop stop-color="#F8B133"/>
<stop offset="1" stop-color="#D22635"/>
</linearGradient>
</defs>
</svg>
